<svg xmlns="http://www.w3.org/2000/svg" xmlns:xlink="http://www.w3.org/1999/xlink" width="1920" height="1080" viewBox="0 0 1920 1080"><defs><style>.cls-1{isolation:isolate;}.cls-2{fill:url(#radial-gradient);}.cls-3{opacity:0.5;}.cls-4{opacity:0.78;mix-blend-mode:multiply;}.cls-5{fill:url(#radial-gradient-2);}.cls-6{fill:url(#radial-gradient-3);}.cls-7{fill:none;}.cls-8{fill:#006837;}.cls-9{fill:#895633;}.cls-10{fill:#603b20;}.cls-11{fill:#070707;}.cls-12{fill:#f7931e;}.cls-13{fill:gold;}.cls-14{fill:#fff;opacity:0.94;}.cls-15{fill:#3f9aff;}.cls-16{fill:#629aff;}.cls-17{fill:url(#radial-gradient-4);}.cls-18{fill:url(#radial-gradient-5);}.cls-19{fill:url(#radial-gradient-6);}</style><radialGradient id="radial-gradient" cx="890.34" cy="6.42" r="1328.28" gradientUnits="userSpaceOnUse"><stop offset="0" stop-color="#60bfe8"/><stop offset="0.1" stop-color="#70c5eb"/><stop offset="0.37" stop-color="#97d3f4"/><stop offset="0.62" stop-color="#b4ddfa"/><stop offset="0.84" stop-color="#c5e4fe"/><stop offset="1" stop-color="#cbe6ff"/></radialGradient><radialGradient id="radial-gradient-2" cx="553.86" cy="145.32" r="197.52" gradientTransform="matrix(0, 0.97, -0.95, 0, 732.87, -175.31)" gradientUnits="userSpaceOnUse"><stop offset="0" stop-color="#cbe6ff"/><stop offset="0.01" stop-color="#b6dffa"/><stop offset="0.04" stop-color="#9bd5f5"/><stop offset="0.07" stop-color="#85cdf0"/><stop offset="0.1" stop-color="#74c7ec"/><stop offset="0.14" stop-color="#69c3ea"/><stop offset="0.19" stop-color="#62c1e8"/><stop offset="0.34" stop-color="#60c0e8"/></radialGradient><radialGradient id="radial-gradient-3" cx="357.21" cy="860.26" r="267.35" gradientUnits="userSpaceOnUse"><stop offset="0" stop-color="#ff9309"/><stop offset="0.17" stop-color="#fe9c19"/><stop offset="0.43" stop-color="#fca72c"/><stop offset="0.71" stop-color="#fbae37"/><stop offset="1" stop-color="#fbb03b"/></radialGradient><radialGradient id="radial-gradient-4" cx="712.87" cy="655.13" r="20" gradientUnits="userSpaceOnUse"><stop offset="0" stop-color="#fff"/><stop offset="0.06" stop-color="#e3f4fb"/><stop offset="0.19" stop-color="#b2e1f5"/><stop offset="0.32" stop-color="#88d0ef"/><stop offset="0.45" stop-color="#66c3ea"/><stop offset="0.58" stop-color="#4bb8e7"/><stop offset="0.72" stop-color="#38b1e4"/><stop offset="0.85" stop-color="#2dace3"/><stop offset="1" stop-color="#29abe2"/></radialGradient><radialGradient id="radial-gradient-5" cx="712.87" cy="569.13" r="20" xlink:href="#radial-gradient-4"/><radialGradient id="radial-gradient-6" cx="672.69" cy="697" r="12" xlink:href="#radial-gradient-4"/></defs><title>Artboard 12_1</title><g class="cls-1"><g id="Layer_1" data-name="Layer 1"><rect class="cls-2" x="0.5" y="-1.5" width="1919" height="1080"/><g class="cls-3"><image class="cls-4" width="422" height="398" transform="translate(383.5 167.5)" xlink:href="Artboard%2012_11.png"/><ellipse class="cls-5" cx="587.24" cy="359.39" rx="183.48" ry="195.52" transform="translate(181.82 915.86) rotate(-85.39)"/></g><path d="M474.16,273.36H463.63v2.58h10.2v5.61h-9.76c0,1.68,0,3.14,0,4.37s0,2.48,0,3.77h-9.65c0-1,0-2.26,0-3.89s0-4.54,0-8.74c0-1.39,0-3.07,0-5s0-3.92,0-5.88h19.7Z"/><path d="M495.59,281.25v8.44l-3.13.18c-1.81.1-3.45.15-4.9.15-1,0-2.34-.08-4-.24a15.23,15.23,0,0,1-4-.83,7,7,0,0,1-2.87-1.95,4.22,4.22,0,0,1-1-2.71,4.49,4.49,0,0,1,.91-2.86,6.83,6.83,0,0,1,3.29-2,17.52,17.52,0,0,1,3.93-.78c1.48-.13,2.42-.21,2.83-.22a.87.87,0,0,0-.27-.66,2.84,2.84,0,0,0-1.27-.43,12.16,12.16,0,0,0-1.34-.15c-.49,0-1.09,0-1.81,0q-1.41,0-2.43,0l-1.81.06.71-6H482a28.08,28.08,0,0,1,6.6.61,10.46,10.46,0,0,1,4.16,2,7.14,7.14,0,0,1,2.23,3.09A12.51,12.51,0,0,1,495.59,281.25Zm-8.26,1.91v-1.89a4.58,4.58,0,0,0-.66.07,3.6,3.6,0,0,0-1.1.38,2.42,2.42,0,0,0-.68.6,1.51,1.51,0,0,0-.36,1,1.59,1.59,0,0,0,.35,1.09,2.27,2.27,0,0,0,.78.58,2.43,2.43,0,0,0,.64.19,4.51,4.51,0,0,0,.87.07h.16v-2.11Z"/><path d="M519.62,289.69h-8.84c0-.43,0-1.07,0-1.95s0-2,0-3.35c0-.55,0-1.28,0-2.19s0-1.65,0-2.2a3.82,3.82,0,0,0-.27-1.62,1,1,0,0,0-1-.54,4.55,4.55,0,0,0-1.29.2,9.93,9.93,0,0,0-1,.33c0,2.42,0,3.92,0,4.5,0,1.16,0,2.52,0,4.09s0,2.48,0,2.73h-8.85c0-.53,0-1.49,0-2.88s0-3.36,0-5.91c0-1.9,0-3.57,0-5s0-2.89,0-4.34h8.65l0,1.18,0,0c.42-.19,1.35-.52,2.78-1a12.83,12.83,0,0,1,4-.7,5.42,5.42,0,0,1,4.19,1.63,6,6,0,0,1,1.51,4.26c0,1.36,0,2.42,0,3.19s0,1.46,0,2.06c0,1.13,0,2.48,0,4.06S519.62,289,519.62,289.69Z"/><path d="M542.37,271.54c0,.81,0,1.86,0,3.13s0,2.66,0,4.15c0,.87,0,2,0,3.42s0,3.16,0,5.23a9.36,9.36,0,0,1-1.2,4.79,7.73,7.73,0,0,1-3.53,3.16,22.74,22.74,0,0,1-7.35,2,45.1,45.1,0,0,1-6,.29l-.91-6.1c1.51-.05,2.91-.13,4.2-.22a26.48,26.48,0,0,0,3-.37,6.62,6.62,0,0,0,2.06-.7,1.09,1.09,0,0,0,.63-.89h-.42a15.36,15.36,0,0,1-3.55-.47,12,12,0,0,1-3.22-1.2,10,10,0,0,1-3.31-3,7.89,7.89,0,0,1-1.14-4.48,7.11,7.11,0,0,1,1.43-4.34,9.41,9.41,0,0,1,4.27-3,18.52,18.52,0,0,1,4.24-1,49.88,49.88,0,0,1,6.37-.33l2.17,0Zm-8.32,8.88V278h-.42a4.57,4.57,0,0,0-.83.07,3,3,0,0,0-.93.37,2.46,2.46,0,0,0-1,1,3.2,3.2,0,0,0-.38,1.55,4.45,4.45,0,0,0,.24,1.5,2.36,2.36,0,0,0,1,1.17,3.25,3.25,0,0,0,1.07.49,4.58,4.58,0,0,0,1.14.15h.16v-3.89Z"/><path d="M567.49,269.75h-1c-.48,0-1,0-1.45.05a11.58,11.58,0,0,0-1.31.15,3.18,3.18,0,0,0-1.25.49,1,1,0,0,0-.56.81v.29h5.32v6.16h-4.83c0,1.33,0,3.37,0,6.11s0,4.7,0,5.88h-8.84q0-2.08,0-6.07c0-2.66,0-4.63,0-5.92h-3v-6.16h3.11v-.42a6.66,6.66,0,0,1,.65-2.94,6.34,6.34,0,0,1,2.19-2.44,10.38,10.38,0,0,1,3.11-1.36,18.88,18.88,0,0,1,4.77-.5h2.32Z"/><path d="M577.31,269.54h-8.84v-5.62h8.84Zm0,20.15h-8.84c0-1.06,0-2.31,0-3.75s0-3.1,0-5c0-1.54,0-3.06,0-4.58s0-3.13,0-4.85h8.84c0,1.65,0,3,0,4.14s0,2.87,0,5.25c0,2.59,0,4.41,0,5.46S577.31,288.54,577.31,289.69Z"/><path d="M596.84,283.92a4,4,0,0,1-1,2.77,7.85,7.85,0,0,1-2.52,1.85,13,13,0,0,1-4,1.08,37.14,37.14,0,0,1-4.51.33l-3,0h-1.86l-.83-5.91h4.38a10.71,10.71,0,0,0,1.13-.07,2.72,2.72,0,0,0,1.24-.28.53.53,0,0,0,.16-.35c0-.14-.11-.28-.32-.4s-.61-.31-1.17-.55l-1-.48c-.4-.18-.81-.41-1.25-.66a4.65,4.65,0,0,1-1.82-1.81,4.55,4.55,0,0,1-.55-2.18,4.2,4.2,0,0,1,.83-2.54,6.82,6.82,0,0,1,2.84-2,14,14,0,0,1,3.85-1,39.22,39.22,0,0,1,4.29-.39l2.56,0h1.56l.82,5.92h-2.35c-.46,0-.88,0-1.27,0s-.76,0-1.12.08a4,4,0,0,0-.88.16c-.23.08-.34.21-.34.4s.12.32.36.45l1.1.51,1.17.54a13.32,13.32,0,0,1,1.19.62,5,5,0,0,1,1.77,1.66A4.26,4.26,0,0,1,596.84,283.92Z"/><path d="M607.65,289.69h-8.84c0-.73,0-2.08,0-4s0-5.11,0-9.43q0-2.85,0-6t0-6.29h8.84c0,2.49,0,4.58,0,6.26s0,3.8,0,6.34q0,4.22,0,8C607.65,287.05,607.65,288.77,607.65,289.69Zm13.24-.18-8,2.39q-2.73-5.13-4-7.33l-2.15-3.82v0c.38-.76,1-2,1.76-3.6s1.74-3.65,2.84-6l8.86,1.93q-1.23,2.65-2.14,4.73c-.61,1.38-1,2.24-1.13,2.58v0Q619.22,285.52,620.89,289.51Z"/><path d="M641.16,281.46H629.62a1.74,1.74,0,0,0,.71,1.3,4.82,4.82,0,0,0,2.18.93,12.12,12.12,0,0,0,2.16.29c.69,0,1.33,0,1.91,0h2.11l1.45,0-.83,5.82-1.65.1c-.66,0-1.39.06-2.18.06a29.26,29.26,0,0,1-6.15-.61,13.08,13.08,0,0,1-4.89-2.1,8.84,8.84,0,0,1-2.7-3,8,8,0,0,1-.94-3.83,9.29,9.29,0,0,1,.68-3.68,9.08,9.08,0,0,1,2.41-3.12,9.24,9.24,0,0,1,3.38-1.88,13.24,13.24,0,0,1,8-.06,8.1,8.1,0,0,1,3.06,1.75,7.72,7.72,0,0,1,2.19,3.43A15.18,15.18,0,0,1,641.16,281.46ZM633,278.58a3.17,3.17,0,0,0-.5-1.85A1.77,1.77,0,0,0,631,276a1.93,1.93,0,0,0-1.59.7,3.07,3.07,0,0,0-.62,1.89Z"/><path d="M658.79,283.92l-.76,6c-.29,0-.67,0-1.14.05l-2.41,0q-5.12,0-7.73-1.8a5.87,5.87,0,0,1-2.61-5.16c0-1.47,0-2.57,0-3.3s0-1.4,0-2h-2.9v-6.16h3v-5.39H653v5.39h5.68v6.16H653c0,.28,0,.51,0,.68s0,.45,0,.81,0,.54,0,.89,0,.58,0,.71a3.08,3.08,0,0,0,.86,2.28c.58.57,2,.85,4.19.85h.79Z"/><path d="M679,281.25v8.44l-3.13.18c-1.81.1-3.45.15-4.9.15-1,0-2.33-.08-4-.24a15.23,15.23,0,0,1-4-.83A7,7,0,0,1,660.1,287a4.22,4.22,0,0,1-1-2.71,4.49,4.49,0,0,1,.91-2.86,6.88,6.88,0,0,1,3.29-2,17.75,17.75,0,0,1,3.93-.78c1.48-.13,2.43-.21,2.84-.22a.84.84,0,0,0-.28-.66,2.79,2.79,0,0,0-1.27-.43,11.89,11.89,0,0,0-1.34-.15c-.49,0-1.09,0-1.81,0-.93,0-1.75,0-2.43,0l-1.8.06.7-6h3.46a28.08,28.08,0,0,1,6.6.61,10.4,10.4,0,0,1,4.16,2,7.06,7.06,0,0,1,2.23,3.09A12.27,12.27,0,0,1,679,281.25Zm-8.26,1.91v-1.89a4.58,4.58,0,0,0-.66.07,3.7,3.7,0,0,0-1.1.38,2.42,2.42,0,0,0-.68.6,1.51,1.51,0,0,0-.35,1,1.58,1.58,0,0,0,.34,1.09,2.27,2.27,0,0,0,.78.58,2.55,2.55,0,0,0,.64.19,4.65,4.65,0,0,0,.87.07h.16v-2.11Z"/><path d="M697.67,283.2l-.95,6.77h-1a25.74,25.74,0,0,1-6.59-.7,16.07,16.07,0,0,1-4.61-2,8.58,8.58,0,0,1-2.75-2.85,7.45,7.45,0,0,1-1-3.78,7.19,7.19,0,0,1,1-3.87,8.51,8.51,0,0,1,2.75-2.72A15,15,0,0,1,689.3,272a26.83,26.83,0,0,1,6.42-.68h.88l.91,6.77h-.81l-1.56,0a13.9,13.9,0,0,0-2.23.3,6.28,6.28,0,0,0-2.11.81,1.61,1.61,0,0,0-.81,1.41,1.56,1.56,0,0,0,.8,1.36,6.44,6.44,0,0,0,2.13.82,14.18,14.18,0,0,0,2.19.27l1.59.08h1Z"/><path d="M720.08,280.65a9.16,9.16,0,0,1-3.41,7.23,9.39,9.39,0,0,1-3.37,1.78,14.26,14.26,0,0,1-4,.57,14,14,0,0,1-4-.58,9.8,9.8,0,0,1-3.37-1.74,9.39,9.39,0,0,1-2.54-3.25,9.19,9.19,0,0,1-.9-4,9.3,9.3,0,0,1,.77-3.86,9.55,9.55,0,0,1,2.36-3.12,9.65,9.65,0,0,1,3.42-1.95,13.4,13.4,0,0,1,4.26-.65,14.13,14.13,0,0,1,4.16.59,9.72,9.72,0,0,1,3.45,1.89,8.95,8.95,0,0,1,3.27,7.1Zm-8.72,0a7.53,7.53,0,0,0-.17-1.52,2.85,2.85,0,0,0-.65-1.3,1.52,1.52,0,0,0-.58-.37,2,2,0,0,0-.74-.14,1.78,1.78,0,0,0-.74.13,1.74,1.74,0,0,0-.63.49,2.61,2.61,0,0,0-.57,1.23,6.22,6.22,0,0,0-.17,1.42,6.6,6.6,0,0,0,.16,1.51,2.76,2.76,0,0,0,.61,1.22,1.53,1.53,0,0,0,.63.45,2.35,2.35,0,0,0,.74.13,2.06,2.06,0,0,0,.74-.16,1.61,1.61,0,0,0,.6-.4,3,3,0,0,0,.57-1.19A6.07,6.07,0,0,0,711.36,280.69Z"/><path d="M738.54,283.92a4,4,0,0,1-1,2.77,8,8,0,0,1-2.53,1.85,13,13,0,0,1-4,1.08,37.16,37.16,0,0,1-4.52.33l-3,0h-1.86l-.83-5.91h4.38a10.4,10.4,0,0,0,1.12-.07,2.64,2.64,0,0,0,1.24-.28.55.55,0,0,0,.17-.35c0-.14-.11-.28-.33-.4a12.63,12.63,0,0,0-1.16-.55l-1-.48a13.9,13.9,0,0,1-1.25-.66,4.74,4.74,0,0,1-1.83-1.81,4.66,4.66,0,0,1-.54-2.18,4.19,4.19,0,0,1,.82-2.54,6.79,6.79,0,0,1,2.85-2,13.94,13.94,0,0,1,3.85-1,39.22,39.22,0,0,1,4.29-.39l2.56,0h1.55l.83,5.92H736q-.68,0-1.26,0c-.39,0-.76,0-1.13.08a4.23,4.23,0,0,0-.88.16.42.42,0,0,0-.33.4q0,.26.36.45l1.1.51,1.17.54c.41.19.81.4,1.19.62a5,5,0,0,1,1.77,1.66A4.26,4.26,0,0,1,738.54,283.92Z"/><path d="M474.82,323.85a9.38,9.38,0,0,1-6.79,9,14.24,14.24,0,0,1-4,.57,13.92,13.92,0,0,1-4.05-.58,9.71,9.71,0,0,1-3.37-1.74,9.54,9.54,0,0,1-2.55-3.25,9.65,9.65,0,0,1-.12-7.87,9.51,9.51,0,0,1,2.35-3.12,9.83,9.83,0,0,1,3.42-1.95,13.49,13.49,0,0,1,4.26-.65,14.13,14.13,0,0,1,4.16.59,9.85,9.85,0,0,1,3.46,1.89,8.95,8.95,0,0,1,3.27,7.1Zm-8.72,0a6.91,6.91,0,0,0-.18-1.52,2.76,2.76,0,0,0-.65-1.3,1.41,1.41,0,0,0-.57-.37,2,2,0,0,0-.75-.14,1.82,1.82,0,0,0-.74.13,1.74,1.74,0,0,0-.63.49,2.61,2.61,0,0,0-.57,1.23,6.84,6.84,0,0,0-.17,1.42,7.21,7.21,0,0,0,.16,1.51,2.78,2.78,0,0,0,.62,1.22,1.44,1.44,0,0,0,.62.45,2.36,2.36,0,0,0,.75.13,2.1,2.1,0,0,0,.74-.16,1.65,1.65,0,0,0,.59-.4,2.87,2.87,0,0,0,.57-1.19A5.65,5.65,0,0,0,466.1,323.89Z"/><path d="M496.7,314.75c0,.8,0,1.85,0,3.12s0,2.66,0,4.15c0,.87,0,2,0,3.42s0,3.16,0,5.23a9.36,9.36,0,0,1-1.2,4.79,7.68,7.68,0,0,1-3.53,3.16,22.74,22.74,0,0,1-7.35,2,45.1,45.1,0,0,1-6,.29l-.91-6.1c1.51,0,2.91-.13,4.2-.22a26.48,26.48,0,0,0,3-.37,6.53,6.53,0,0,0,2.06-.7,1.09,1.09,0,0,0,.63-.89h-.42a15.28,15.28,0,0,1-3.54-.47,11.71,11.71,0,0,1-3.23-1.2,10.1,10.1,0,0,1-3.31-3,7.89,7.89,0,0,1-1.13-4.48,7.1,7.1,0,0,1,1.42-4.34,9.46,9.46,0,0,1,4.27-3,18.48,18.48,0,0,1,4.25-1,49.77,49.77,0,0,1,6.37-.33l2.17,0Zm-8.31,8.87v-2.44H488a4.47,4.47,0,0,0-.82.07,3,3,0,0,0-.93.37,2.4,2.4,0,0,0-1,1,3.1,3.1,0,0,0-.39,1.55,4.45,4.45,0,0,0,.24,1.5,2.47,2.47,0,0,0,1,1.17,3.35,3.35,0,0,0,1.07.49,4.6,4.6,0,0,0,1.15.15h.16v-3.89Z"/><path d="M528.18,332.89h-8.84c0-.66,0-1.88,0-3.67s0-3,0-3.77c0-.55,0-.93,0-1.12s0-.58,0-1.13a3.34,3.34,0,0,0-.3-1.7,1,1,0,0,0-.93-.46,4.43,4.43,0,0,0-1.28.2c-.44.14-.76.24-1,.33l0,11.32H507c0-1.36,0-2.87,0-4.51s0-4.63,0-9c0-1.9,0-3.9,0-6s0-4.2,0-6.31h8.84l0,8.73,0,0c.33-.15,1.22-.46,2.69-.93a13.23,13.23,0,0,1,3.92-.69,5.41,5.41,0,0,1,4.18,1.63,6,6,0,0,1,1.51,4.26c0,1.36,0,2.42,0,3.19s0,1.46,0,2.07c0,1.12,0,2.44,0,4S528.18,332.07,528.18,332.89Z"/><path d="M551.9,323.85a9.38,9.38,0,0,1-6.79,9,14.24,14.24,0,0,1-4,.57,13.92,13.92,0,0,1-4.05-.58,9.71,9.71,0,0,1-3.37-1.74,9.54,9.54,0,0,1-2.55-3.25A9.65,9.65,0,0,1,531,320a9.51,9.51,0,0,1,2.35-3.12,9.83,9.83,0,0,1,3.42-1.95,13.49,13.49,0,0,1,4.26-.65,14.13,14.13,0,0,1,4.16.59,9.85,9.85,0,0,1,3.46,1.89,8.95,8.95,0,0,1,3.27,7.1Zm-8.72,0a6.91,6.91,0,0,0-.18-1.52,2.76,2.76,0,0,0-.65-1.3,1.41,1.41,0,0,0-.57-.37,2,2,0,0,0-.75-.14,1.82,1.82,0,0,0-.74.13,1.74,1.74,0,0,0-.63.49,2.61,2.61,0,0,0-.57,1.23,6.84,6.84,0,0,0-.17,1.42,7.21,7.21,0,0,0,.16,1.51,2.78,2.78,0,0,0,.62,1.22,1.44,1.44,0,0,0,.62.45,2.36,2.36,0,0,0,.75.13,2.1,2.1,0,0,0,.74-.16,1.65,1.65,0,0,0,.59-.4,2.87,2.87,0,0,0,.57-1.19A5.65,5.65,0,0,0,543.18,323.89Z"/><path d="M569.68,327.12l-.75,6c-.29,0-.68,0-1.14,0l-2.41,0q-5.11,0-7.73-1.8a5.87,5.87,0,0,1-2.61-5.16c0-1.47,0-2.57,0-3.3s0-1.4,0-2h-2.9v-6.15h3v-5.4h8.67v5.4h5.68v6.15h-5.68c0,.28,0,.51,0,.68s0,.45,0,.81,0,.54,0,.89,0,.58,0,.71a3.08,3.08,0,0,0,.86,2.28c.57.57,2,.85,4.18.85h.79Z"/><path d="M587.4,327.12a4,4,0,0,1-1,2.77,7.85,7.85,0,0,1-2.52,1.85,13,13,0,0,1-4,1.08,37.44,37.44,0,0,1-4.52.33l-3,0h-1.87l-.82-5.91H574a10.56,10.56,0,0,0,1.13-.07,2.68,2.68,0,0,0,1.24-.28.55.55,0,0,0,.17-.35c0-.14-.11-.27-.33-.4s-.61-.31-1.17-.55l-1-.48c-.39-.18-.81-.41-1.24-.66a4.61,4.61,0,0,1-1.83-1.81,4.55,4.55,0,0,1-.55-2.18,4.2,4.2,0,0,1,.83-2.54,6.79,6.79,0,0,1,2.85-2,13.94,13.94,0,0,1,3.85-1,38.78,38.78,0,0,1,4.29-.39l2.55,0h1.56l.82,5.92h-2.35c-.46,0-.88,0-1.27,0s-.76,0-1.12.08a4.1,4.1,0,0,0-.88.16.42.42,0,0,0-.33.4q0,.25.36.45l1.09.51,1.17.54a10.3,10.3,0,0,1,1.19.63,4.84,4.84,0,0,1,1.78,1.65A4.35,4.35,0,0,1,587.4,327.12Z"/><path d="M608.08,324.45v8.44l-3.13.18c-1.82.1-3.45.15-4.91.15-1,0-2.33-.08-4-.24a15.23,15.23,0,0,1-4-.83,7,7,0,0,1-2.86-1.95,4.17,4.17,0,0,1-1-2.71,4.49,4.49,0,0,1,.91-2.86,6.88,6.88,0,0,1,3.29-2,17.75,17.75,0,0,1,3.93-.78c1.48-.13,2.43-.21,2.84-.22a.87.87,0,0,0-.27-.66,2.9,2.9,0,0,0-1.28-.43,12,12,0,0,0-1.33-.15c-.5,0-1.1,0-1.82,0q-1.39,0-2.43,0l-1.8.06.7-6h3.46a28.23,28.23,0,0,1,6.61.61,10.42,10.42,0,0,1,4.15,2,7.06,7.06,0,0,1,2.23,3.09A12.3,12.3,0,0,1,608.08,324.45Zm-8.27,1.91v-1.89a4.58,4.58,0,0,0-.66.07,3.56,3.56,0,0,0-1.09.38,2.31,2.31,0,0,0-.69.6,1.56,1.56,0,0,0-.35,1,1.58,1.58,0,0,0,.34,1.09,2.27,2.27,0,0,0,.78.58,2.51,2.51,0,0,0,.65.19,4.51,4.51,0,0,0,.87.07h.15v-2.11Z"/><path d="M631.89,332.89h-8.64v-1.27l0,0A30.64,30.64,0,0,1,620,332.8a11.78,11.78,0,0,1-3.54.63,5.45,5.45,0,0,1-4.22-1.6,6.1,6.1,0,0,1-1.47-4.29c0-1.36,0-2.68,0-4s0-2.25,0-2.86c0-1.12,0-2.29,0-3.5s0-2,0-2.45h8.84c0,.46,0,1.24,0,2.32s0,2.08,0,3c0,.59,0,1.36,0,2.3s0,1.66,0,2.16a5.23,5.23,0,0,0,.19,1.51.94.94,0,0,0,1,.65,4.06,4.06,0,0,0,1.24-.22,5.34,5.34,0,0,0,1-.39c0-2.06,0-3.56,0-4.48,0-1.16,0-2.45,0-3.86s0-2.4,0-3h8.84c0,.44,0,1.6,0,3.47s0,3.64,0,5.31,0,3.11,0,4.44S631.89,330.94,631.89,332.89Z"/><path d="M651,326.4l-1,6.77h-1a25.74,25.74,0,0,1-6.59-.7,16.07,16.07,0,0,1-4.61-2,8.58,8.58,0,0,1-2.75-2.85,7.41,7.41,0,0,1-1-3.78,7.28,7.28,0,0,1,1-3.87,8.51,8.51,0,0,1,2.75-2.72,15,15,0,0,1,4.76-2.05,26.83,26.83,0,0,1,6.42-.68h.88l.91,6.77H650l-1.56.05a14.06,14.06,0,0,0-2.23.3,6.37,6.37,0,0,0-2.11.81,1.61,1.61,0,0,0-.81,1.41,1.58,1.58,0,0,0,.8,1.36,6.44,6.44,0,0,0,2.13.82,14.18,14.18,0,0,0,2.19.27l1.59.08h1Z"/><path d="M672.08,324.66H660.55a1.73,1.73,0,0,0,.7,1.3,4.82,4.82,0,0,0,2.18.93,12.12,12.12,0,0,0,2.16.29c.69,0,1.33.05,1.92.05h2.11l1.44,0-.83,5.82-1.65.1c-.66,0-1.38.06-2.18.06a29.1,29.1,0,0,1-6.14-.61,13.13,13.13,0,0,1-4.9-2.1,8.84,8.84,0,0,1-2.7-3,8.1,8.1,0,0,1-.94-3.83,9.29,9.29,0,0,1,.68-3.68,9.77,9.77,0,0,1,5.79-5,13.28,13.28,0,0,1,8-.06,8.13,8.13,0,0,1,3,1.75,7.72,7.72,0,0,1,2.19,3.43A15.18,15.18,0,0,1,672.08,324.66ZM664,321.78a3.25,3.25,0,0,0-.5-1.85,1.79,1.79,0,0,0-1.58-.74,1.93,1.93,0,0,0-1.59.7,3.07,3.07,0,0,0-.62,1.89Z"/><path d="M695.3,332.89h-8.84c0-.43,0-1.07,0-1.95s0-2,0-3.35c0-.55,0-1.28,0-2.19s0-1.65,0-2.2a3.82,3.82,0,0,0-.27-1.62,1,1,0,0,0-1-.54,4.5,4.5,0,0,0-1.29.2c-.43.14-.75.24-1,.33,0,2.42,0,3.92,0,4.5,0,1.16,0,2.52,0,4.09s0,2.48,0,2.73h-8.84c0-.53,0-1.49,0-2.88s0-3.36,0-5.91c0-1.9,0-3.57,0-5s0-2.89,0-4.33h8.65l0,1.17,0,0c.42-.19,1.35-.52,2.77-1a12.89,12.89,0,0,1,4-.7,5.43,5.43,0,0,1,4.19,1.63,6,6,0,0,1,1.51,4.26c0,1.36,0,2.42,0,3.19s0,1.46,0,2.07c0,1.12,0,2.47,0,4.05S695.3,332.18,695.3,332.89Z"/><path d="M708.08,332.89h-9.69V323h9.69Z"/><path d="M477.16,404.5a7.76,7.76,0,0,1-1.28,4.53,10.18,10.18,0,0,1-3.59,3.07,14.22,14.22,0,0,1-4,1.29,25,25,0,0,1-4.21.45l0,5.45h-9.65c0-1.55,0-3.21,0-5s0-4.32,0-7.64c0-1.4,0-3.08,0-5s0-3.92,0-5.88l2.4,0,2.89,0a70.28,70.28,0,0,1,7,.25,18.72,18.72,0,0,1,4.31,1,10,10,0,0,1,4.51,2.95A7,7,0,0,1,477.16,404.5Zm-9.85.85a3.32,3.32,0,0,0-.3-1.4,2.79,2.79,0,0,0-2-1.5,6.59,6.59,0,0,0-1.09-.09h-.36v6.33h.38a4.85,4.85,0,0,0,1.06-.15,2.94,2.94,0,0,0,1-.38,3.28,3.28,0,0,0,1-1A3.55,3.55,0,0,0,467.31,405.35Z"/><path d="M498.09,410.85v8.44l-3.13.18c-1.81.1-3.45.15-4.9.15-1,0-2.33-.08-4-.24a15.23,15.23,0,0,1-4-.83,7,7,0,0,1-2.87-1.95,4.22,4.22,0,0,1-1-2.71,4.49,4.49,0,0,1,.91-2.86,6.88,6.88,0,0,1,3.29-2,17.75,17.75,0,0,1,3.93-.78c1.48-.13,2.43-.21,2.84-.22a.84.84,0,0,0-.28-.66,2.79,2.79,0,0,0-1.27-.43,11.89,11.89,0,0,0-1.34-.15c-.49,0-1.09,0-1.81,0-.93,0-1.75,0-2.43,0l-1.8.06.7-6h3.46a28.08,28.08,0,0,1,6.6.61,10.4,10.4,0,0,1,4.16,2,7.06,7.06,0,0,1,2.23,3.09A12.31,12.31,0,0,1,498.09,410.85Zm-8.26,1.91v-1.89a4.58,4.58,0,0,0-.66.07,3.7,3.7,0,0,0-1.1.38,2.42,2.42,0,0,0-.68.6,1.51,1.51,0,0,0-.35,1,1.58,1.58,0,0,0,.34,1.09,2.27,2.27,0,0,0,.78.58,2.55,2.55,0,0,0,.64.19,4.65,4.65,0,0,0,.87.07h.16v-2.11Z"/><path d="M517.2,413.52a4,4,0,0,1-1,2.77,7.85,7.85,0,0,1-2.52,1.85,13,13,0,0,1-4,1.08,37.44,37.44,0,0,1-4.52.33l-3,0h-1.86l-.83-5.91h4.38a10.71,10.71,0,0,0,1.13-.07,2.72,2.72,0,0,0,1.24-.28.51.51,0,0,0,.16-.35c0-.14-.11-.27-.32-.4s-.61-.31-1.17-.55l-1-.48c-.4-.18-.81-.41-1.25-.66a4.65,4.65,0,0,1-1.82-1.81,4.55,4.55,0,0,1-.55-2.18,4.2,4.2,0,0,1,.83-2.54,6.82,6.82,0,0,1,2.84-2,14,14,0,0,1,3.85-1,39.22,39.22,0,0,1,4.29-.39l2.56,0h1.56l.82,5.92h-2.35c-.46,0-.88,0-1.27,0s-.76,0-1.12.08a4,4,0,0,0-.88.16c-.23.08-.34.21-.34.4s.12.32.36.45l1.1.52,1.17.53a11.19,11.19,0,0,1,1.19.63,4.8,4.8,0,0,1,1.77,1.65A4.26,4.26,0,0,1,517.2,413.52Z"/><path d="M546.93,410a7.76,7.76,0,0,1-1.27,4.51,10,10,0,0,1-3.41,3,13.14,13.14,0,0,1-3.48,1.26,17.92,17.92,0,0,1-3.76.46l0,8H526.2c0-1,0-2.69,0-5s0-5.3,0-8.89c0-1.64,0-3.58,0-5.82s0-4.38,0-6.39l2.13,0,2,0c2.07,0,3.92.06,5.54.19a19.63,19.63,0,0,1,5.08,1.15,9.18,9.18,0,0,1,4.46,3.09A7.3,7.3,0,0,1,546.93,410Zm-8.81.58a3.22,3.22,0,0,0-.31-1.4,2.48,2.48,0,0,0-.92-1.06,2.79,2.79,0,0,0-1.09-.44,6.68,6.68,0,0,0-1.09-.09h-.19v6.33a5.62,5.62,0,0,0,1.16-.14,3.29,3.29,0,0,0,1-.39,3.59,3.59,0,0,0,1-1A3.31,3.31,0,0,0,538.12,410.57Z"/><path d="M568.79,410.85v8.44l-3.13.18c-1.81.1-3.45.15-4.9.15-1,0-2.34-.08-4-.24a15.23,15.23,0,0,1-4-.83,7,7,0,0,1-2.87-1.95,4.22,4.22,0,0,1-1-2.71,4.49,4.49,0,0,1,.91-2.86,6.88,6.88,0,0,1,3.29-2,17.63,17.63,0,0,1,3.93-.78c1.48-.13,2.43-.21,2.84-.22a.84.84,0,0,0-.28-.66,2.79,2.79,0,0,0-1.27-.43,11.89,11.89,0,0,0-1.34-.15c-.49,0-1.09,0-1.81,0-.93,0-1.75,0-2.43,0l-1.8.06.7-6h3.46a28.08,28.08,0,0,1,6.6.61,10.4,10.4,0,0,1,4.16,2,7.14,7.14,0,0,1,2.23,3.09A12.31,12.31,0,0,1,568.79,410.85ZM564.93,397a4.16,4.16,0,0,1-1.67,3.31,6.19,6.19,0,0,1-4.06,1.37,6,6,0,0,1-4-1.36,4.17,4.17,0,0,1,0-6.66,6.61,6.61,0,0,1,8,0A4.12,4.12,0,0,1,564.93,397Zm-4.4,15.75v-1.89a4.58,4.58,0,0,0-.66.07,3.7,3.7,0,0,0-1.1.38,2.42,2.42,0,0,0-.68.6,1.51,1.51,0,0,0-.35,1,1.58,1.58,0,0,0,.34,1.09,2.27,2.27,0,0,0,.78.58,2.55,2.55,0,0,0,.64.19,4.51,4.51,0,0,0,.87.07h.16v-2.11Zm0-15.76a1.38,1.38,0,0,0-.35-.95,1.17,1.17,0,0,0-.91-.39,1.24,1.24,0,0,0-.94.39,1.44,1.44,0,0,0,0,1.93,1.21,1.21,0,0,0,.94.39,1.15,1.15,0,0,0,.91-.41A1.44,1.44,0,0,0,560.53,397Z"/><path d="M598,419.29h-8.84c0-.66,0-1.88,0-3.67s0-3,0-3.77c0-.55,0-.93,0-1.12s0-.58,0-1.13a3.34,3.34,0,0,0-.3-1.7,1,1,0,0,0-.93-.46,4.55,4.55,0,0,0-1.29.2c-.43.14-.75.24-1,.33l0,11.32h-8.85c0-1.36,0-2.87,0-4.51s0-4.63,0-9q0-2.85,0-6t0-6.31h8.85l0,8.73,0,0c.32-.15,1.22-.46,2.69-.92a13,13,0,0,1,3.91-.7,5.42,5.42,0,0,1,4.19,1.63,6,6,0,0,1,1.51,4.26c0,1.36,0,2.42,0,3.19s0,1.46,0,2.07c0,1.12,0,2.44,0,4S598,418.47,598,419.29Z"/><path d="M619.79,410.85v8.44l-3.13.18c-1.82.1-3.45.15-4.91.15-1,0-2.33-.08-4-.24a15.32,15.32,0,0,1-4-.83,7,7,0,0,1-2.86-1.95,4.17,4.17,0,0,1-1-2.71,4.5,4.5,0,0,1,.92-2.86,6.79,6.79,0,0,1,3.28-2,17.75,17.75,0,0,1,3.93-.78c1.48-.13,2.43-.21,2.84-.22a.87.87,0,0,0-.27-.66,2.85,2.85,0,0,0-1.28-.43,12,12,0,0,0-1.33-.15c-.49,0-1.1,0-1.81,0-.94,0-1.75,0-2.44,0l-1.8.06.7-6h3.47a28.2,28.2,0,0,1,6.6.61,10.36,10.36,0,0,1,4.15,2,7.17,7.17,0,0,1,2.24,3.09A12.55,12.55,0,0,1,619.79,410.85Zm-8.26,1.91v-1.89a4.58,4.58,0,0,0-.66.07,3.6,3.6,0,0,0-1.1.38,2.44,2.44,0,0,0-.69.6,1.56,1.56,0,0,0-.35,1,1.58,1.58,0,0,0,.34,1.09,2.22,2.22,0,0,0,.79.58,2.43,2.43,0,0,0,.64.19,4.51,4.51,0,0,0,.87.07h.16v-2.11Z"/><path d="M631.6,417.12a10.19,10.19,0,0,1-1.18,5,8,8,0,0,1-3.48,3.31,17.17,17.17,0,0,1-3.11,1.12,25.6,25.6,0,0,1-4,.7L618,421c.62-.05,1.26-.14,1.92-.26a4.7,4.7,0,0,0,1.68-.61,3,3,0,0,0,.91-1,5.83,5.83,0,0,0,.3-2.31c0-2.79,0-6,0-9.53s0-5.6,0-6.11h8.84c0,.65,0,1.31,0,2s0,2,0,3.94,0,3.66,0,5.37S631.6,415.7,631.6,417.12Zm0-18h-8.84v-5.62h8.84Z"/><path d="M654.1,411.06H642.57a1.73,1.73,0,0,0,.7,1.3,4.87,4.87,0,0,0,2.18.93,12.12,12.12,0,0,0,2.16.29c.69,0,1.33.05,1.92.05h2.11l1.44,0-.83,5.82-1.65.1c-.65,0-1.38.06-2.18.06a28.52,28.52,0,0,1-6.14-.61,13.13,13.13,0,0,1-4.9-2.1,8.84,8.84,0,0,1-2.7-3,8.1,8.1,0,0,1-.94-3.83,9.29,9.29,0,0,1,.68-3.68,9.77,9.77,0,0,1,5.79-5,13.28,13.28,0,0,1,8-.06,8.4,8.4,0,0,1,3.06,1.75,7.9,7.9,0,0,1,2.19,3.43A15.52,15.52,0,0,1,654.1,411.06ZM646,408.18a3.25,3.25,0,0,0-.5-1.85,1.79,1.79,0,0,0-1.58-.74,1.93,1.93,0,0,0-1.59.7,3.07,3.07,0,0,0-.62,1.89Z"/><path d="M677.32,419.29h-8.84c0-.43,0-1.07,0-2s0-2,0-3.34c0-.56,0-1.29,0-2.2s0-1.65,0-2.2a3.82,3.82,0,0,0-.27-1.62,1,1,0,0,0-1-.54,4.55,4.55,0,0,0-1.29.2c-.43.14-.75.24-1,.33,0,2.42,0,3.92,0,4.5,0,1.16,0,2.52,0,4.09s0,2.48,0,2.73h-8.85c0-.53,0-1.49,0-2.88s0-3.36,0-5.91c0-1.9,0-3.57,0-5s0-2.89,0-4.33h8.65l0,1.17,0,0c.42-.19,1.35-.52,2.78-1a13.12,13.12,0,0,1,4-.7,5.42,5.42,0,0,1,4.19,1.63,6,6,0,0,1,1.51,4.26c0,1.36,0,2.42,0,3.19s0,1.46,0,2.07c0,1.12,0,2.47,0,4.05S677.32,418.58,677.32,419.29Z"/><path d="M708.06,410.25a9.42,9.42,0,0,1-.82,3.91,9.57,9.57,0,0,1-6,5.1,14.24,14.24,0,0,1-4,.57,14,14,0,0,1-4.06-.58,9.75,9.75,0,0,1-3.36-1.74,9.54,9.54,0,0,1-2.55-3.25,9.65,9.65,0,0,1-.12-7.87,9.51,9.51,0,0,1,2.35-3.12,10,10,0,0,1,3.42-1.95,13.49,13.49,0,0,1,4.26-.65,14.13,14.13,0,0,1,4.16.59,9.72,9.72,0,0,1,3.45,1.89,9.1,9.1,0,0,1,2.45,3.15A9.25,9.25,0,0,1,708.06,410.25Zm-8.71,0a6.91,6.91,0,0,0-.18-1.52,2.76,2.76,0,0,0-.65-1.3,1.41,1.41,0,0,0-.57-.37,2,2,0,0,0-.75-.14,1.82,1.82,0,0,0-.74.13,1.74,1.74,0,0,0-.63.49,2.61,2.61,0,0,0-.57,1.23,6.92,6.92,0,0,0-.17,1.42,6.6,6.6,0,0,0,.16,1.51,2.78,2.78,0,0,0,.62,1.22,1.44,1.44,0,0,0,.62.45,2.36,2.36,0,0,0,.75.13,1.82,1.82,0,0,0,.73-.16,1.61,1.61,0,0,0,.6-.4,2.87,2.87,0,0,0,.57-1.19A5.65,5.65,0,0,0,699.35,410.29Z"/><path d="M730,401.15c0,.8,0,1.85,0,3.12s0,2.66,0,4.15c0,.87,0,2,0,3.42s0,3.16,0,5.23a9.36,9.36,0,0,1-1.2,4.79,7.68,7.68,0,0,1-3.53,3.16,22.74,22.74,0,0,1-7.35,2,45.1,45.1,0,0,1-6,.29l-.91-6.1c1.51-.05,2.91-.13,4.2-.22a26.48,26.48,0,0,0,3-.37,6.53,6.53,0,0,0,2.06-.7,1.09,1.09,0,0,0,.63-.89h-.42a15.28,15.28,0,0,1-3.54-.47,11.71,11.71,0,0,1-3.23-1.2,10,10,0,0,1-3.31-3,7.89,7.89,0,0,1-1.14-4.48,7.11,7.11,0,0,1,1.43-4.34,9.54,9.54,0,0,1,4.27-3,18.48,18.48,0,0,1,4.25-1,49.77,49.77,0,0,1,6.37-.33l2.17,0ZM721.63,410v-2.44h-.42a4.47,4.47,0,0,0-.82.07,3,3,0,0,0-.93.37,2.4,2.4,0,0,0-1,1,3.1,3.1,0,0,0-.39,1.55,4.45,4.45,0,0,0,.24,1.5,2.47,2.47,0,0,0,1,1.17,3.35,3.35,0,0,0,1.07.49,4.6,4.6,0,0,0,1.15.15h.15V410Z"/><path d="M468.93,442.55h-1c-.49,0-1,0-1.45.05a8.29,8.29,0,0,0-1.31.15,3.18,3.18,0,0,0-1.25.49,1,1,0,0,0-.57.81v.29h5.33v6.16h-4.83q0,2,0,6.11c0,2.75,0,4.7,0,5.88H455q0-2.08,0-6.07c0-2.66,0-4.63,0-5.92h-3v-6.16h3.12v-.42a6.66,6.66,0,0,1,.65-2.94,6.34,6.34,0,0,1,2.19-2.44,10.38,10.38,0,0,1,3.11-1.36,18.88,18.88,0,0,1,4.77-.5h2.32Z"/><path d="M478.76,442.34h-8.84v-5.62h8.84Zm0,20.15h-8.84c0-1.06,0-2.31,0-3.75s0-3.1,0-5c0-1.54,0-3.06,0-4.58s0-3.13,0-4.85h8.84c0,1.65,0,3,0,4.14s0,2.87,0,5.25c0,2.59,0,4.41,0,5.46S478.76,461.34,478.76,462.49Z"/><path d="M498.29,456.72a4,4,0,0,1-1,2.77,8,8,0,0,1-2.52,1.85,13,13,0,0,1-4,1.08,37.14,37.14,0,0,1-4.51.33l-3,0h-1.86l-.83-5.91h4.38a10.71,10.71,0,0,0,1.13-.07,2.62,2.62,0,0,0,1.23-.28.5.5,0,0,0,.17-.35c0-.14-.11-.28-.32-.4s-.61-.31-1.17-.55l-1-.48c-.4-.18-.81-.41-1.25-.66a4.74,4.74,0,0,1-1.83-1.81,4.66,4.66,0,0,1-.54-2.18,4.14,4.14,0,0,1,.83-2.54,6.92,6.92,0,0,1,2.84-2,14.43,14.43,0,0,1,3.85-1,39.22,39.22,0,0,1,4.29-.39l2.56,0h1.56l.82,5.92h-2.35c-.46,0-.88,0-1.27,0s-.76,0-1.12.08a4,4,0,0,0-.88.16c-.23.08-.34.21-.34.4s.12.32.36.45l1.1.51,1.17.54a13.32,13.32,0,0,1,1.19.62,5,5,0,0,1,1.77,1.66A4.26,4.26,0,0,1,498.29,456.72Z"/><path d="M509.1,462.49h-8.84c0-.73,0-2.08,0-4s0-5.11,0-9.43q0-2.85,0-6c0-2.11,0-4.21,0-6.29h8.84q0,3.73,0,6.26c0,1.68,0,3.8,0,6.34q0,4.21,0,8C509.09,459.85,509.1,461.57,509.1,462.49Zm13.24-.18-8,2.39q-2.73-5.13-4-7.33c-.83-1.47-1.54-2.75-2.15-3.82v0c.38-.76,1-2,1.76-3.6s1.74-3.65,2.84-6l8.86,1.93q-1.23,2.65-2.14,4.73c-.61,1.38-1,2.24-1.13,2.58v0Q520.67,458.32,522.34,462.31Z"/><path d="M542.6,454.26H531.07a1.74,1.74,0,0,0,.71,1.3,4.82,4.82,0,0,0,2.18.93,12.12,12.12,0,0,0,2.16.29c.69,0,1.33.05,1.91.05h2.11l1.44,0-.82,5.82-1.65.1c-.66,0-1.39.06-2.18.06a29.26,29.26,0,0,1-6.15-.61,13.08,13.08,0,0,1-4.89-2.1,8.84,8.84,0,0,1-2.7-3,8,8,0,0,1-.94-3.83,8.17,8.17,0,0,1,3.09-6.8,9.24,9.24,0,0,1,3.38-1.88,13.24,13.24,0,0,1,8-.06,8.1,8.1,0,0,1,3.06,1.75,7.9,7.9,0,0,1,2.19,3.43A15.2,15.2,0,0,1,542.6,454.26Zm-8.12-2.88a3.17,3.17,0,0,0-.5-1.85,1.77,1.77,0,0,0-1.57-.74,1.93,1.93,0,0,0-1.59.7,3.14,3.14,0,0,0-.63,1.89Z"/><path d="M565.83,462.49H557c0-.43,0-1.07,0-1.95s0-2,0-3.35c0-.55,0-1.28,0-2.19s0-1.65,0-2.2a3.81,3.81,0,0,0-.26-1.62,1,1,0,0,0-1-.54,4.43,4.43,0,0,0-1.28.2c-.43.13-.76.24-1,.33,0,2.42,0,3.92,0,4.5,0,1.16,0,2.52,0,4.09s0,2.48,0,2.73h-8.84c0-.53,0-1.49,0-2.88s0-3.36,0-5.91c0-1.9,0-3.58,0-5s0-2.89,0-4.34h8.65l0,1.18,0,0c.43-.19,1.35-.52,2.78-1a12.89,12.89,0,0,1,4-.7,5.39,5.39,0,0,1,4.18,1.63,6,6,0,0,1,1.52,4.26c0,1.36,0,2.42,0,3.19s0,1.46,0,2.06c0,1.13,0,2.48,0,4.06S565.83,461.78,565.83,462.49Z"/><path d="M588.2,454.26H576.67a1.76,1.76,0,0,0,.7,1.3,4.87,4.87,0,0,0,2.18.93,12.11,12.11,0,0,0,2.17.29c.69,0,1.33.05,1.91.05h2.11l1.44,0-.82,5.82-1.66.1c-.65,0-1.38.06-2.18.06a29.23,29.23,0,0,1-6.14-.61,13,13,0,0,1-4.89-2.1,8.64,8.64,0,0,1-2.7-3,8,8,0,0,1-.94-3.83,9.3,9.3,0,0,1,.67-3.68,9.75,9.75,0,0,1,5.8-5,13.24,13.24,0,0,1,8-.06,8.1,8.1,0,0,1,3.06,1.75,7.9,7.9,0,0,1,2.19,3.43A15.52,15.52,0,0,1,588.2,454.26Zm-8.12-2.88a3.25,3.25,0,0,0-.5-1.85,1.77,1.77,0,0,0-1.57-.74,1.93,1.93,0,0,0-1.59.7,3.14,3.14,0,0,0-.63,1.89Z"/><path d="M605.83,456.72l-.75,6c-.3,0-.68,0-1.15.05l-2.4,0q-5.12,0-7.73-1.8a5.87,5.87,0,0,1-2.61-5.16c0-1.47,0-2.57,0-3.3s0-1.4,0-2h-2.9v-6.16h3V439H600v5.39h5.67v6.16H600c0,.28,0,.51,0,.68s0,.45,0,.81,0,.54,0,.89,0,.58,0,.71a3,3,0,0,0,.86,2.28c.57.57,2,.85,4.18.85h.79Z"/><path d="M622.88,456.72l-.75,6c-.3,0-.68,0-1.14.05l-2.41,0q-5.12,0-7.73-1.8a5.87,5.87,0,0,1-2.61-5.16c0-1.47,0-2.57,0-3.3s0-1.4,0-2h-2.9v-6.16h3V439h8.67v5.39h5.68v6.16h-5.68c0,.28,0,.51,0,.68s0,.45,0,.81,0,.54,0,.89,0,.58,0,.71a3,3,0,0,0,.86,2.28c.57.57,2,.85,4.18.85h.79Z"/><path d="M643.66,454.26H632.13a1.73,1.73,0,0,0,.7,1.3,4.87,4.87,0,0,0,2.18.93,12.12,12.12,0,0,0,2.16.29c.7,0,1.33.05,1.92.05h2.11l1.44,0-.82,5.82-1.66.1c-.65,0-1.38.06-2.18.06a29.23,29.23,0,0,1-6.14-.61,13.13,13.13,0,0,1-4.9-2.1,8.71,8.71,0,0,1-2.69-3,8,8,0,0,1-.94-3.83,9.3,9.3,0,0,1,.67-3.68,9.77,9.77,0,0,1,5.79-5,13.28,13.28,0,0,1,8-.06,8.18,8.18,0,0,1,3.06,1.75,7.9,7.9,0,0,1,2.19,3.43A15.52,15.52,0,0,1,643.66,454.26Zm-8.12-2.88a3.25,3.25,0,0,0-.5-1.85,1.77,1.77,0,0,0-1.57-.74,1.93,1.93,0,0,0-1.59.7,3.07,3.07,0,0,0-.63,1.89Z"/><path d="M661.29,456.72l-.75,6c-.3,0-.68,0-1.15.05l-2.4,0q-5.12,0-7.73-1.8a5.87,5.87,0,0,1-2.61-5.16c0-1.47,0-2.57,0-3.3s0-1.4,0-2h-2.9v-6.16h3V439h8.67v5.39h5.67v6.16h-5.67c0,.28,0,.51,0,.68s0,.45,0,.81,0,.54,0,.89,0,.58,0,.71a3,3,0,0,0,.86,2.28c.57.57,2,.85,4.18.85h.79Z"/><path d="M674.93,439a72.9,72.9,0,0,1-.64,8.66c-.36,2.52-.71,4.55-1,6.07h-7.16q-.52-2.46-1-6.08a80.47,80.47,0,0,1-.66-8.65Zm-.61,23.54H665V455.4h9.34Z"/><path d="M691.63,439a72.9,72.9,0,0,1-.64,8.66c-.36,2.52-.71,4.55-1,6.07h-7.15q-.52-2.46-1-6.08a82.86,82.86,0,0,1-.67-8.65ZM691,462.49h-9.34V455.4H691Z"/><path d="M708.33,439a72.9,72.9,0,0,1-.64,8.66c-.36,2.52-.71,4.55-1.05,6.07h-7.15q-.53-2.46-1-6.08a82.86,82.86,0,0,1-.67-8.65Zm-.61,23.54h-9.34V455.4h9.34Z"/><path class="cls-6" d="M14,823.49c20.46-60.41,100.12-107.43,199.86-116.94q18.26-1.72,37.32-1.75l3.51,0c95.12.82,177,35.46,215.41,85.27a245.47,245.47,0,0,1,60-7.31,250.05,250.05,0,0,1,37.79,2.83c28.83,4.39,54.93,13.7,76.27,26.57C663.58,823.85,679,838.47,689,855a88.45,88.45,0,0,1,11,27,80.34,80.34,0,0,1,1.88,17.29c0,2-.07,4-.22,6a80.3,80.3,0,0,1-1.91,12.38,89.11,89.11,0,0,1-11.58,27.31c-1.18,1.87-2.42,3.72-3.74,5.54a114,114,0,0,1-9.34,11.28q-3.23,3.45-6.8,6.71c-25.16,23.07-62.61,39.62-105.78,45.2a253.82,253.82,0,0,1-64.7,0c-40.14-5.18-75.31-19.83-100.29-40.4-40.65,19-91.34,30.31-146.31,30.31-3.72,0-7.42-.06-11.09-.16h-.5c-54.93-1.6-105.06-14.46-144.46-34.94A219.3,219.3,0,0,1,58.7,944.92,170.26,170.26,0,0,1,41,928.58c-1.33-1.43-2.62-2.86-3.88-4.32-1.89-2.18-3.69-4.41-5.4-6.65A123.56,123.56,0,0,1,20.9,900.75a105.42,105.42,0,0,1-6.47-14.7c-.14-.39-.28-.78-.41-1.18q-.79-2.34-1.46-4.69Z"/><line class="cls-7" x1="184.45" y1="636.69" x2="177.63" y2="648.49"/><path class="cls-8" d="M249,474.62c-.94-.35-45.45-6.6-87.88-5.65-42.45-1.15-86.92,5.27-87.84,5.66.26.19,6.26-8.34,21.25-17.62a127.15,127.15,0,0,1,133.27-.1C242.82,466.2,248.79,474.82,249,474.62Z"/><path class="cls-8" d="M266.35,478.6c-.16-.12-54.34,2.31-99.91,17.57-45.8,13.67-77.69,31.32-78.67,31.39-.42,1.52,10.2-40.72,66.82-59.69,27.5-9.12,57.22-6.9,78.12-1.79C253.91,471.07,266.3,479,266.35,478.6Z"/><path class="cls-8" d="M249.87,501.07c-.34.43-19.88-33.44-68.48-62.21-47.89-28.95-98.77-41.95-97.82-42.76-.25.52,19.54-6.34,46.56-5.43,26.79.43,60.81,8.63,84,28C261,458.37,248.76,502.48,249.87,501.07Z"/><path class="cls-9" d="M276.28,710.6h-48.4V477.08h35.85A399.59,399.59,0,0,0,276.28,710.6Z"/><path class="cls-8" d="M239,485.39c.4.4,20.37-32.36,69-61.17,47.93-29,99.34-43.11,98.41-43.88.25.51-19.73-6.09-46.86-4.88-26.92.71-61,9.22-84.21,28.54C228.41,443.75,240.13,486.77,239,485.39Z"/><path class="cls-8" d="M234.9,468.67c1-.36,43.11-8.24,85.67-9.5,42.51-3.34,89.27,1.45,90.12,1.82-.23.22-7.16-8.3-23.16-17-15.67-8.58-40.41-17.3-68.65-15.65a122.9,122.9,0,0,0-64.58,22C240.29,460.22,235.18,468.83,234.9,468.67Z"/><path class="cls-8" d="M224.49,475.23c.28-.23,53.22.06,97.87,13,44.81,11.23,78.25,26.73,79.28,26.82.67,1.47-12.72-40.46-69.8-55.9-27.66-7.42-56.3-3.58-76,2.4C235.74,467.48,224.58,475.55,224.49,475.23Z"/><path class="cls-8" d="M244.19,477.4c-.71.62,22.5,9.08,46.45,25.36C315.11,519.33,322.1,539,322,538.64c-.87.57,9-20.54-11.18-43.57-10.1-11.26-27.26-17.47-41.41-18.84A84.14,84.14,0,0,0,244.19,477.4Z"/><path class="cls-8" d="M161.5,547.3c-.32.48,5.07-20,29.38-37.39,23.7-16.68,42.56-28.25,41.56-29.11.29.28-12.38-2.68-27.19.21-14.81,2.44-31.75,10.73-39.88,23C149.5,529,162.73,547.58,161.5,547.3Z"/><rect class="cls-8" x="224.78" y="475.21" width="37.85" height="12.42" rx="6.21"/><ellipse class="cls-10" cx="227.88" cy="483.6" rx="10.87" ry="8.69" transform="translate(-291.85 608.81) rotate(-78.31)"/><ellipse class="cls-11" cx="224.71" cy="492.77" rx="0.62" ry="0.5" transform="translate(-303.36 613.02) rotate(-78.31)"/><ellipse class="cls-11" cx="227.14" cy="493.27" rx="0.62" ry="0.5" transform="translate(-301.91 615.81) rotate(-78.31)"/><ellipse class="cls-11" cx="225.94" cy="491.76" rx="0.62" ry="0.5" transform="translate(-301.39 613.41) rotate(-78.31)"/><ellipse class="cls-10" cx="241.41" cy="482.95" rx="8.69" ry="10.87" transform="translate(-216.53 196.92) rotate(-31.45)"/><ellipse class="cls-11" cx="245.39" cy="491.8" rx="0.5" ry="0.62" transform="translate(-220.56 200.3) rotate(-31.45)"/><ellipse class="cls-11" cx="247.5" cy="490.5" rx="0.5" ry="0.62" transform="translate(-219.57 201.21) rotate(-31.45)"/><ellipse class="cls-11" cx="245.58" cy="490.22" rx="0.5" ry="0.62" transform="translate(-219.71 200.17) rotate(-31.45)"/><ellipse class="cls-10" cx="256.3" cy="483.57" rx="8.69" ry="10.87" transform="translate(-189.53 166.13) rotate(-26.62)"/><ellipse class="cls-11" cx="259.52" cy="492.73" rx="0.5" ry="0.62" transform="translate(-193.29 168.54) rotate(-26.62)"/><ellipse class="cls-11" cx="261.73" cy="491.61" rx="0.5" ry="0.62" transform="translate(-192.55 169.42) rotate(-26.62)"/><ellipse class="cls-11" cx="259.84" cy="491.17" rx="0.5" ry="0.62" transform="translate(-192.56 168.52) rotate(-26.62)"/><polygon class="cls-12" points="1826.87 177.32 1784.22 204.38 1800.47 252.2 1750.05 247.47 1735.23 295.88 1696.21 263.51 1657.19 295.88 1642.37 247.47 1591.95 252.2 1608.2 204.38 1565.55 177.32 1608.2 150.26 1591.95 102.44 1642.37 107.17 1657.19 58.76 1696.21 91.13 1735.23 58.76 1750.05 107.17 1800.47 102.44 1784.22 150.26 1826.87 177.32"/><ellipse class="cls-13" cx="1696.75" cy="177.96" rx="95.69" ry="90.14"/><path class="cls-14" d="M-2.75,959.43H1083.16v2H1923v-153c-18.74-1.1-38,9.24-45.39,30.36l-8.7,24.95c-13,37.39-63.92,41.31-82.43,6.35l-21.39-40.36c-19-36-71.78-30.5-83.16,8.63l-3.18,10.94c-11.6,39.82-65.66,44.53-83.84,7.3l-14.64-30c-17.54-35.89-69.16-33.17-82.88,4.38l-6,16.55c-14.43,39.47-69.67,39.8-84.55.51l-1.43-3.77c-14.87-39.24-70-39-84.51.37l-4.81,13c-14.06,38.11-66.85,39.94-83.47,2.89l-14.18-31.6c-16.41-36.59-68.34-35.4-83.09,1.9L1121.39,866a44.5,44.5,0,0,1-38.23,28.5v1.25a44.46,44.46,0,0,1-33-27.88l-8.51-21.71a44.35,44.35,0,0,0-41.94-28.79c-18.07,0-36.12,10.52-42.92,31.23-12.8,39-66.19,42.33-83.66,5.24L863,832.34c-17.29-36.71-70-33.9-83.38,4.45l-8.7,25c-13,37.39-63.92,41.31-82.44,6.35l-21.38-40.36c-19.05-36-71.78-30.5-83.16,8.64l-3.18,10.94c-11.6,39.82-65.66,44.53-83.84,7.29l-14.64-30c-17.54-35.89-69.16-33.16-82.88,4.38l-6.05,16.55c-14.43,39.47-69.67,39.8-84.55.51l-1.43-3.77c-14.87-39.23-70-39-84.51.38l-4.81,13a44.32,44.32,0,0,1-32.93,28.68c-19.29,4-40.95-4.39-50.54-25.79L120.38,827C104,790.44,52,791.62,37.29,828.92L23.42,864A44.39,44.39,0,0,1-2.75,889.86Z"/><path class="cls-15" d="M-.75,988.8H1085.17v2H1925v-153c-18.74-1.09-38,9.24-45.39,30.36l-8.7,24.95c-13,37.39-63.92,41.31-82.44,6.36l-21.38-40.36c-19-36-71.78-30.5-83.16,8.63l-3.18,10.94c-11.6,39.82-65.66,44.53-83.84,7.29l-14.64-30c-17.54-35.89-69.16-33.17-82.88,4.37l-6,16.56c-14.43,39.46-69.67,39.8-84.55.5l-1.43-3.77c-14.87-39.23-70-39-84.51.38l-4.82,13c-14,38.11-66.84,39.94-83.46,2.88l-14.18-31.59C1204,821.84,1152,823,1137.27,860.32L1123.4,895.4a44.51,44.51,0,0,1-38.23,28.51v1.25a44.46,44.46,0,0,1-33-27.88l-8.51-21.71a44.35,44.35,0,0,0-41.94-28.79c-18.07,0-36.12,10.51-42.92,31.23-12.8,39-66.19,42.32-83.66,5.24L865,861.72c-17.29-36.71-70-33.9-83.38,4.45l-8.7,25c-13,37.39-63.92,41.31-82.44,6.35l-21.38-40.36c-19.05-36-71.78-30.5-83.16,8.63l-3.18,10.94c-11.6,39.82-65.66,44.53-83.84,7.3l-14.64-30c-17.54-35.89-69.16-33.16-82.88,4.38L395.34,875c-14.43,39.47-69.67,39.8-84.56.51l-1.42-3.77c-14.87-39.24-70-39-84.51.37L220,885.11a44.29,44.29,0,0,1-32.92,28.68c-19.29,4-41-4.4-50.54-25.79l-14.18-31.6C106,819.81,54.05,821,39.3,858.3L25.43,893.38A44.41,44.41,0,0,1-.75,919.24Z"/><path class="cls-16" d="M-.75,1014.13H1085.17v2H1925v-153c-18.74-1.09-38,9.24-45.39,30.36l-8.7,25c-13,37.39-63.92,41.31-82.44,6.35l-21.38-40.36c-19-36-71.78-30.5-83.16,8.63L1680.72,904c-11.6,39.83-65.66,44.54-83.84,7.3l-14.64-30c-17.54-35.89-69.16-33.16-82.88,4.38l-6,16.55c-14.43,39.47-69.67,39.8-84.55.51l-1.43-3.77c-14.87-39.23-70-39-84.51.37L1318,912.46c-14,38.11-66.84,39.94-83.46,2.89l-14.18-31.6c-16.41-36.59-68.34-35.4-83.09,1.9l-13.87,35.08a44.5,44.5,0,0,1-38.23,28.5v1.25a44.46,44.46,0,0,1-33-27.88l-8.51-21.71a44.36,44.36,0,0,0-41.94-28.79c-18.07,0-36.12,10.52-42.92,31.23-12.8,39-66.19,42.33-83.66,5.24L865,887.05c-17.29-36.72-70-33.91-83.38,4.44l-8.7,25c-13,37.39-63.92,41.31-82.44,6.35l-21.38-40.35c-19.05-36-71.78-30.51-83.16,8.63L582.75,902c-11.6,39.82-65.66,44.53-83.84,7.29l-14.64-29.95c-17.54-35.89-69.16-33.17-82.88,4.37l-6.05,16.56c-14.43,39.46-69.67,39.8-84.56.5L309.36,897c-14.87-39.23-70-39-84.51.38L220,910.44a44.28,44.28,0,0,1-32.92,28.67c-19.29,4-41-4.39-50.54-25.79l-14.18-31.59C106,845.14,54.05,846.32,39.3,883.62L25.43,918.7A44.38,44.38,0,0,1-.75,944.56Z"/><path class="cls-15" d="M-2.75,1062.75H1083.16v2H1923v-153c-18.74-1.09-38,9.24-45.39,30.36l-8.7,25c-13,37.39-63.92,41.31-82.43,6.36l-21.39-40.36c-19-36-71.78-30.5-83.16,8.63l-3.18,10.94c-11.6,39.82-65.66,44.53-83.84,7.29l-14.64-30c-17.54-35.89-69.16-33.17-82.88,4.37l-6,16.56c-14.43,39.46-69.67,39.8-84.55.5l-1.43-3.77c-14.87-39.23-70-39-84.51.38L1316,961.09c-14.06,38.11-66.85,39.94-83.47,2.88l-14.18-31.59c-16.41-36.59-68.34-35.41-83.09,1.89l-13.87,35.08a44.51,44.51,0,0,1-38.23,28.51v1.24a44.43,44.43,0,0,1-33-27.87l-8.51-21.71a44.35,44.35,0,0,0-41.94-28.79c-18.07,0-36.12,10.51-42.92,31.23-12.8,39-66.19,42.32-83.66,5.24L863,935.67c-17.29-36.71-70-33.91-83.38,4.45l-8.7,25c-13,37.39-63.92,41.31-82.44,6.35l-21.38-40.36c-19.05-36-71.78-30.5-83.16,8.63l-3.18,10.94c-11.6,39.82-65.66,44.53-83.84,7.3l-14.64-30c-17.54-35.89-69.16-33.16-82.88,4.38l-6.05,16.55c-14.43,39.47-69.67,39.8-84.55.51l-1.43-3.77c-14.87-39.24-70-39-84.51.37l-4.81,13a44.32,44.32,0,0,1-32.93,28.68c-19.29,4-40.95-4.4-50.54-25.79l-14.18-31.6C104,893.76,52,895,37.29,932.25L23.42,967.33A44.42,44.42,0,0,1-2.75,993.19Z"/><path class="cls-16" d="M1923,927v153H1083.16v-2H-2.75v-69.56c.53-.19,1.05-.4,1.57-.61l.44-.19A43.94,43.94,0,0,0,20.41,988.8a48,48,0,0,0,3-6.28l4.46-11.29,4.67-11.81,4.73-12c14.76-37.3,66.68-38.49,83.09-1.9l6.23,13.88,8,17.72A46.71,46.71,0,0,0,142,988.8a44.91,44.91,0,0,0,43.13,14.13,44.25,44.25,0,0,0,24.37-14.13A46.25,46.25,0,0,0,218,974.25l4.81-13c.22-.6.46-1.2.69-1.78,15.32-37.11,67.86-37.23,83.26,0,.19.46.38.93.56,1.41l1.43,3.77A44.42,44.42,0,0,0,330,988.8a46,46,0,0,0,42,0,44.47,44.47,0,0,0,21.36-24.71l1.71-4.67,4.34-11.88c13.72-37.54,65.34-40.27,82.88-4.38l7.95,16.26,6.69,13.7a45.66,45.66,0,0,0,12.36,15.68c16.39,13.2,40.21,12.76,56.29,0a44.94,44.94,0,0,0,15.19-23l1.86-6.4,1.32-4.54c11.38-39.13,64.11-44.6,83.16-8.63l7,13.17,14.41,27.19c.4.75.81,1.48,1.24,2.19A44.21,44.21,0,0,0,710,1006.9c19.87,8.75,45,2.24,57-18.1a47.36,47.36,0,0,0,3.95-8.54l7.27-20.84,1.43-4.11C793,917,845.69,914.15,863,950.86l4,8.56,6.11,13A45.33,45.33,0,0,0,886,988.8c16.26,12.93,39.81,12.62,55.86,0a44.86,44.86,0,0,0,14.95-21.65,48,48,0,0,1,3.29-7.73,45.06,45.06,0,0,1,79.14,0,49.27,49.27,0,0,1,2.44,5.29l8.5,21.71c.32.81.65,1.6,1,2.38a44.32,44.32,0,0,0,31.15,25.32c.28.07.56.12.84.18v-1.25a44.4,44.4,0,0,0,35.22-22.23,48.57,48.57,0,0,0,3-6.28l9.12-23.09,4.74-12c14.76-37.3,66.68-38.48,83.1-1.89l6.23,13.88,7.94,17.71a46.89,46.89,0,0,0,7.41,11.66c17.73,20.33,50,20,67.5,0a46.2,46.2,0,0,0,8.56-14.54l4.81-13c.22-.6.46-1.2.69-1.78,15.32-37.12,67.87-37.23,83.26,0,.2.46.38.93.56,1.4l1.43,3.77a44.46,44.46,0,0,0,21.16,24.2,46,46,0,0,0,42,0,44.45,44.45,0,0,0,21.34-24.7l1.71-4.67,4.34-11.89c13.72-37.54,65.34-40.26,82.88-4.37l8,16.26,6.69,13.69a45.62,45.62,0,0,0,12.35,15.68c16.38,13.21,40.21,12.78,56.3,0a44.81,44.81,0,0,0,15.19-23l1.86-6.4,1.32-4.54c11.39-39.13,64.11-44.6,83.16-8.63l7,13.17,14.41,27.19c.39.75.8,1.47,1.23,2.18,17.8,29.85,60.41,28.55,77.25,0a47.36,47.36,0,0,0,3.95-8.54l7.26-20.83,1.44-4.12a44.57,44.57,0,0,1,41.25-30.41C1920.21,926.87,1921.59,926.89,1923,927Z"/><circle class="cls-17" cx="712.87" cy="655.13" r="20"/><circle class="cls-18" cx="712.87" cy="569.13" r="20"/><circle class="cls-19" cx="672.69" cy="697" r="12"/><path d="M752.2,85.13c-1.49,0-3.8.05-6.91.07l-6.65.07-8,.17q-5.19.14-8.13.18c-.12,1.13-.29,2.74-.45,4.84s-.29,4.1-.37,6l8,0,7.8,0q2.9,0,6.7-.09c2.53,0,4.51-.07,5.91-.08a132.22,132.22,0,0,0,.64,24.12l-6.61-.12c-3-.07-5-.11-6.24-.12-1.78,0-4.17,0-7.14-.06s-5.44,0-7.4-.07a157.44,157.44,0,0,0,2.6,18.12,147.92,147.92,0,0,0,4,15.23l-29.62-.49c-.55-3.91-1.16-9.2-1.65-15.86s-1.23-18.57-1.11-35.71c0-5.7.16-12.56.57-20.58s1.1-16,2.22-24l10.64-.13q7.39-.09,16.94-.25,7.77-.12,18.94-.35l14-.27A115.31,115.31,0,0,0,752.2,85.13Z"/><path d="M799.29,154.48l-29.56-.5a105.44,105.44,0,0,1-7.08-20.46,126.64,126.64,0,0,1-.73-54.16,107.11,107.11,0,0,1,7.91-23.88L799.4,55a100.06,100.06,0,0,0-8,20.82,111.57,111.57,0,0,0-3.67,25.13,113.54,113.54,0,0,0,3.06,30.5A102.29,102.29,0,0,0,799.29,154.48Z"/><path d="M864.26,125.67c1,6.34.9,11.47-.48,15.49a19.87,19.87,0,0,1-6.91,9.71c-2.82,2.13-7,3.57-12.52,4.41a96.77,96.77,0,0,1-16.14,1.12q-7.17-.12-11.73-.38c-3-.18-5.32-.33-6.83-.44a107.7,107.7,0,0,1-13.84-31.35c.4,0,2.38.18,6,.38s6,.3,7.08.31l5,.06c1.88,0,3.7,0,5.46-.17,2.39-.23,3.86-.72,4.4-1.47a3.44,3.44,0,0,0,.62-2.54,4.2,4.2,0,0,0-1.61-2.84,34.52,34.52,0,0,0-5-3c-1.3-.7-3.23-1.8-5.76-3.31a41.47,41.47,0,0,1-5.94-4.17,22.54,22.54,0,0,1-6.93-10.27,26.64,26.64,0,0,1-.64-12.77,28,28,0,0,1,3-8.4,27.47,27.47,0,0,1,5.13-6.81c5.24-5.12,12.19-9,20.44-11.8A90.8,90.8,0,0,1,854.53,53q6.65-.1,10,0c2.23,0,3.79.11,4.68.18a106.31,106.31,0,0,0-6,31.63l-4.87-.27c-1.55-.09-3.47-.12-5.78-.1-2.09,0-3.91.07-5.46.17s-3.27.23-5.15.41a9.92,9.92,0,0,0-4.1,1.1,3.16,3.16,0,0,0-1.62,2.41,3.21,3.21,0,0,0,1.11,3,31,31,0,0,0,4.26,2.92l5.72,3.39A40.41,40.41,0,0,1,853,102a30.21,30.21,0,0,1,7.53,10.16A50,50,0,0,1,864.26,125.67Z"/><path d="M960.78,157.13l-30-.46c-.7-2.37-1.65-5.84-2.66-10.73a195,195,0,0,1-3.33-24.09c-2.25,0-4.15,0-5.72-.07s-3.37-.06-5.41-.07c-1.74,0-3.4,0-5,0s-3.33,0-5.24,0a153.54,153.54,0,0,0,3.1,19.66,125.45,125.45,0,0,0,4.36,15l-29.81-.49a100,100,0,0,1-5.43-15.74,141.36,141.36,0,0,1-4.29-39.39,145.44,145.44,0,0,1,2.42-23,108.43,108.43,0,0,1,7.39-24.14L911,53.11a129.62,129.62,0,0,0-4.65,16.14,147.12,147.12,0,0,0-2.55,15.44H909c1.57,0,3.24,0,5,0,2.08,0,3.88,0,5.4-.08s3.41-.06,5.65-.08c.46-4.92,1.11-10.19,2-15.62a133.18,133.18,0,0,1,3.73-16.12l29.94-.47a251.7,251.7,0,0,0-3.69,27.86c-.78,9.83-1,18.24-1,24.64a303.12,303.12,0,0,0,1.67,32.34C958.89,147.12,960.07,153.43,960.78,157.13Z"/><path d="M1061.53,86c-2.94,0-6.7,0-11.27,0s-8.3,0-11.18,0c.08,5.2.1,10.14.07,14.75s-.05,10-.1,16.13c-.08,9.42-.23,17.56-.41,24.34s-.45,12.44-.76,17.08l-30.12-.41c-.13-4.21-.25-9.16-.35-14.92s-.26-14.13-.35-25.47c0-5.07-.07-10.2-.08-15.33s0-10.51,0-16.07q-5.85,0-13.12.09l-9.49.08c.39-12.45,1.19-24.27,2.22-34.24q2.42,0,14.26-.17t22.18-.28q8.28-.11,20.11-.3L1059,51C1060.35,61.3,1061.13,73.33,1061.53,86Z"/><path d="M1143.7,150.86c-10.81,3.75-21.72,7.32-32.58,10.63.11-2.85.18-6.21.12-10.14s-.21-7.08-.33-9.25l-20.7-.07c-.37,1.25-1.24,4.32-2.77,8.9s-2.83,7.88-3.81,10.21l-28-10.83c1.26-3.34,6.31-15.87,13.3-40.74s10.9-45.19,12.65-58.81q16.88-.21,33.71-.38c8.7,16.17,16.76,38.11,22.28,62S1143.35,148.3,1143.7,150.86ZM1108.21,116c-.65-4.33-1.48-9.62-2.62-15.81s-2.33-11.66-3.47-16.35l-.35-.07c-.52,4.54-1.24,10.25-2.34,17.12s-2.09,11.92-2.77,15.11c0,0,0,.06,0,.08h11.57S1108.21,116,1108.21,116Z"/><path d="M1212.66,123.93c-1.13,6.24-2.41,12.37-3.81,18.32s-3.07,12.32-5.09,18.94l-1.43,0h-2q-13.77-.12-23.83-3.67a37,37,0,0,1-16.8-11.87,48.37,48.37,0,0,1-8.86-17.26c-2-6.64-2.82-14.5-2.82-23.45,0-8.78.86-16.57,2.82-23.25a46.7,46.7,0,0,1,9-17.31,38.67,38.67,0,0,1,17.47-12.08,71.93,71.93,0,0,1,23-3.7h2.75c1.23,4,2.76,9.22,4.34,15.93s3.09,13.87,4.49,21.4h-3.17c-1.1,0-3.42.17-7,.53a39.66,39.66,0,0,0-9.36,2,24.21,24.21,0,0,0-9.68,5.93c-2.45,2.56-3.62,6.13-3.62,10.7,0,4.29,1.2,7.77,3.7,10.41a24.36,24.36,0,0,0,9.65,6.06,39.33,39.33,0,0,0,9.31,1.92c3.75.38,6.06.57,7,.57h3.94Z"/><path d="M1291.59,104.74a116.32,116.32,0,0,1-2.3,24.27A56.88,56.88,0,0,1,1281,149.2a30.67,30.67,0,0,1-12.09,10.64,35.35,35.35,0,0,1-15.89,3.5,34.55,34.55,0,0,1-15.27-3.46,28.08,28.08,0,0,1-11.27-10.34,58.27,58.27,0,0,1-7.4-19.72,127,127,0,0,1-2.2-25.08,130.59,130.59,0,0,1,1.9-24,59.61,59.61,0,0,1,6.69-19.06,30.19,30.19,0,0,1,11.21-11.43,32.67,32.67,0,0,1,16.11-4,36.05,36.05,0,0,1,16.13,3.46,31.91,31.91,0,0,1,12.6,11.41,55.61,55.61,0,0,1,7.87,19.66A117.94,117.94,0,0,1,1291.59,104.74ZM1266,105a57.49,57.49,0,0,0-1-10.8,22.1,22.1,0,0,0-3.36-8.79,10.93,10.93,0,0,0-2.77-2.82,6.44,6.44,0,0,0-3.73-1.15,5.68,5.68,0,0,0-3.52,1.11,11.72,11.72,0,0,0-2.94,3.54,26.28,26.28,0,0,0-2.68,8.34,57.47,57.47,0,0,0-.9,10.24,63.78,63.78,0,0,0,.85,10.53,24.78,24.78,0,0,0,2.87,8.54,9.48,9.48,0,0,0,2.81,3.21,6.25,6.25,0,0,0,3.71,1.11,6.15,6.15,0,0,0,3.51-1.15,11.56,11.56,0,0,0,3-3.16,24.27,24.27,0,0,0,3.16-8.61A54.07,54.07,0,0,0,1266,105Z"/></g></g></svg>
