<svg id="Layer_1" data-name="Layer 1" xmlns="http://www.w3.org/2000/svg" xmlns:xlink="http://www.w3.org/1999/xlink" width="1920" height="1080" viewBox="0 0 1920 1080"><defs><style>.cls-1{fill:url(#radial-gradient);}.cls-2{fill:#f7931e;}.cls-3{fill:gold;}.cls-4{fill:url(#radial-gradient-2);}.cls-5{fill:url(#radial-gradient-3);}.cls-6{fill:url(#radial-gradient-4);}.cls-7{fill:url(#radial-gradient-5);}.cls-8{fill:url(#radial-gradient-6);}.cls-9{fill:url(#radial-gradient-7);}.cls-10{fill:url(#radial-gradient-8);}.cls-11{fill:url(#radial-gradient-9);}.cls-12{fill:url(#radial-gradient-10);}.cls-13{fill:url(#radial-gradient-11);}.cls-14,.cls-18,.cls-27{fill:#fff;}.cls-14{opacity:0.94;}.cls-15{fill:#3f9aff;}.cls-16{fill:#629aff;}.cls-17,.cls-27{opacity:0.1;}.cls-19{opacity:0.15;}.cls-20,.cls-32{fill:none;}.cls-21{fill:#006837;}.cls-22{fill:#895633;}.cls-23{fill:#603b20;}.cls-24{fill:#070707;}.cls-25{fill:#e21717;}.cls-26{fill:#4d770c;}.cls-28{fill:#009245;}.cls-29{fill:#fbb03b;}.cls-30{fill:red;}.cls-31{fill:#eaeaea;}.cls-32{stroke:#b3e021;stroke-miterlimit:10;}.cls-33{fill:#ed1c24;}.cls-34{fill:#c1272d;}.cls-35{fill:#090a0a;}.cls-36{fill:#666;}</style><radialGradient id="radial-gradient" cx="885.34" cy="8.42" r="1328.28" gradientUnits="userSpaceOnUse"><stop offset="0" stop-color="#60bfe8"/><stop offset="0.1" stop-color="#70c5eb"/><stop offset="0.37" stop-color="#97d3f4"/><stop offset="0.62" stop-color="#b4ddfa"/><stop offset="0.84" stop-color="#c5e4fe"/><stop offset="1" stop-color="#cbe6ff"/></radialGradient><radialGradient id="radial-gradient-2" cx="920.15" cy="179.41" r="137.38" gradientUnits="userSpaceOnUse"><stop offset="0" stop-color="#cbe6ff"/><stop offset="0" stop-color="#c6e4ff"/><stop offset="0.02" stop-color="#9cd6fb"/><stop offset="0.03" stop-color="#77c9f8"/><stop offset="0.05" stop-color="#57bdf6"/><stop offset="0.08" stop-color="#3bb4f4"/><stop offset="0.1" stop-color="#25acf2"/><stop offset="0.13" stop-color="#14a6f1"/><stop offset="0.16" stop-color="#09a2f0"/><stop offset="0.21" stop-color="#02a0ef"/><stop offset="0.34" stop-color="#009fef"/></radialGradient><radialGradient id="radial-gradient-3" cx="776.55" cy="153.31" r="27.7" xlink:href="#radial-gradient-2"/><radialGradient id="radial-gradient-4" cx="812.72" cy="116.69" r="41.3" gradientTransform="translate(12.68 -67.9) rotate(4.82)" xlink:href="#radial-gradient-2"/><radialGradient id="radial-gradient-5" cx="856.22" cy="88.65" r="34.46" xlink:href="#radial-gradient-2"/><radialGradient id="radial-gradient-6" cx="920.4" cy="76.43" r="43.05" xlink:href="#radial-gradient-2"/><radialGradient id="radial-gradient-7" cx="987.08" cy="88.65" r="34.46" xlink:href="#radial-gradient-2"/><radialGradient id="radial-gradient-8" cx="1031.77" cy="109.51" r="41.3" gradientTransform="translate(12.86 -86.33) rotate(4.82)" xlink:href="#radial-gradient-2"/><radialGradient id="radial-gradient-9" cx="1060.75" cy="147.08" r="27.7" xlink:href="#radial-gradient-2"/><radialGradient id="radial-gradient-10" cx="914.67" cy="142.09" r="100.97" gradientTransform="translate(945.41 -783.04) rotate(83.07)" xlink:href="#radial-gradient-2"/><radialGradient id="radial-gradient-11" cx="369.72" cy="667.33" r="287.62" gradientUnits="userSpaceOnUse"><stop offset="0" stop-color="#ff9309"/><stop offset="0.17" stop-color="#fe9c19"/><stop offset="0.43" stop-color="#fca72c"/><stop offset="0.71" stop-color="#fbae37"/><stop offset="1" stop-color="#fbb03b"/></radialGradient></defs><title>Artboard 6</title><rect class="cls-1" x="-4.5" y="0.5" width="1919" height="1080"/><polygon class="cls-2" points="1840.56 160.76 1797.91 187.82 1814.16 235.64 1763.74 230.91 1748.92 279.32 1709.9 246.95 1670.88 279.32 1656.06 230.91 1605.64 235.64 1621.89 187.82 1579.24 160.76 1621.89 133.71 1605.64 85.89 1656.06 90.61 1670.88 42.21 1709.9 74.57 1748.92 42.21 1763.74 90.61 1814.16 85.89 1797.91 133.71 1840.56 160.76"/><ellipse class="cls-3" cx="1710.44" cy="161.4" rx="95.69" ry="90.14"/><rect class="cls-4" x="726.86" y="159.77" width="386.59" height="39.27" rx="19.64"/><ellipse class="cls-5" cx="776.55" cy="153.31" rx="29.22" ry="26.1"/><ellipse class="cls-6" cx="812.72" cy="116.69" rx="44.63" ry="37.65" transform="translate(-6.93 68.72) rotate(-4.82)"/><ellipse class="cls-7" cx="856.22" cy="88.65" rx="36.46" ry="32.33"/><ellipse class="cls-8" cx="920.4" cy="76.43" rx="45.7" ry="40.23"/><ellipse class="cls-9" cx="987.08" cy="88.65" rx="36.46" ry="32.33"/><ellipse class="cls-10" cx="1031.77" cy="109.51" rx="44.63" ry="37.65" transform="translate(-5.55 87.11) rotate(-4.82)"/><ellipse class="cls-11" cx="1060.75" cy="147.08" rx="29.22" ry="26.1"/><ellipse class="cls-12" cx="914.67" cy="142.09" rx="54.01" ry="132.17" transform="translate(663.3 1032.95) rotate(-83.07)"/><path class="cls-13" d="M.5,627.77c22-65,107.71-115.57,215-125.8q19.64-1.86,40.14-1.89l3.78,0c102.33.89,190.39,38.15,231.74,91.74A264,264,0,0,1,555.74,584a269.1,269.1,0,0,1,40.65,3c31,4.72,59.1,14.74,82.05,28.58,20.86,12.56,37.49,28.29,48.25,46.07a95,95,0,0,1,11.79,29,86.73,86.73,0,0,1,2,18.6q0,3.24-.24,6.44a86.09,86.09,0,0,1-2,13.31,95.84,95.84,0,0,1-12.46,29.38q-1.9,3-4,6a121.79,121.79,0,0,1-10,12.13q-3.48,3.71-7.32,7.22c-27.07,24.82-67.36,42.62-113.8,48.63a273.87,273.87,0,0,1-69.6,0c-43.18-5.58-81-21.34-107.89-43.47-43.74,20.46-98.27,32.61-157.41,32.61q-6,0-11.93-.17h-.54c-59.09-1.72-113-15.56-155.41-37.59A235.47,235.47,0,0,1,48.57,758.4a182.45,182.45,0,0,1-19-17.57c-1.43-1.54-2.82-3.08-4.17-4.65q-3-3.52-5.81-7.16A131.76,131.76,0,0,1,7.91,710.89a113.92,113.92,0,0,1-7-15.82c-.15-.42-.3-.84-.44-1.27q-.86-2.5-1.57-5Z"/><path class="cls-14" d="M-1.07,729H1084.84v2h839.81v-153c-18.75-1.09-38,9.24-45.4,30.36l-8.7,25c-13,37.39-63.92,41.31-82.43,6.35l-21.39-40.35c-19-36-71.77-30.51-83.16,8.63l-3.18,10.94c-11.59,39.82-65.66,44.53-83.84,7.29l-14.64-30c-17.54-35.89-69.16-33.17-82.88,4.37l-6,16.55c-14.42,39.47-69.66,39.81-84.55.51l-1.43-3.77c-14.87-39.23-70-39-84.51.38l-4.81,13.05c-14.06,38.1-66.85,39.94-83.47,2.88L1220,598.65c-16.42-36.59-68.34-35.41-83.1,1.89l-13.86,35.08a44.52,44.52,0,0,1-38.24,28.51v1.24a44.43,44.43,0,0,1-33-27.87l-8.5-21.71A44.36,44.36,0,0,0,1001.4,587c-18.08,0-36.13,10.51-42.93,31.23-12.8,39-66.19,42.32-83.66,5.24l-10.14-21.53c-17.3-36.71-70-33.91-83.39,4.45l-8.7,25c-13,37.39-63.92,41.31-82.43,6.35l-21.39-40.36c-19-36-71.78-30.5-83.16,8.63l-3.18,10.94c-11.59,39.82-65.66,44.53-83.84,7.29l-14.64-30c-17.54-35.89-69.16-33.17-82.88,4.38L395,615.17c-14.42,39.47-69.66,39.8-84.55.51L309,611.91c-14.87-39.24-70-39-84.51.37l-4.81,13.05A44.32,44.32,0,0,1,186.78,654c-19.29,4-40.95-4.4-50.54-25.79l-14.18-31.6C105.65,560,53.73,561.22,39,598.51L25.11,633.6A44.49,44.49,0,0,1-1.07,659.46Z"/><path class="cls-15" d="M.94,758.4H1086.85v2h839.8v-153c-18.74-1.09-38,9.24-45.39,30.36l-8.7,25c-13,37.39-63.92,41.31-82.43,6.35l-21.39-40.36c-19-36-71.78-30.5-83.16,8.63l-3.18,10.94c-11.59,39.83-65.66,44.54-83.84,7.3l-14.64-30c-17.54-35.89-69.16-33.16-82.88,4.38l-6,16.55c-14.43,39.47-69.67,39.8-84.55.51l-1.43-3.77c-14.87-39.23-70-39-84.51.37l-4.81,13.05c-14.06,38.11-66.85,39.95-83.47,2.89L1222,628c-16.41-36.59-68.33-35.4-83.09,1.9L1125.09,665a44.52,44.52,0,0,1-38.24,28.5v1.25a44.46,44.46,0,0,1-33-27.88l-8.51-21.71a44.36,44.36,0,0,0-41.94-28.79c-18.07,0-36.12,10.52-42.92,31.24-12.8,39-66.19,42.32-83.66,5.23l-10.14-21.52c-17.3-36.72-70-33.91-83.39,4.44l-8.7,25c-13,37.39-63.92,41.31-82.43,6.36l-21.39-40.36c-19-36-71.78-30.5-83.16,8.63l-3.18,10.94c-11.59,39.82-65.66,44.53-83.84,7.29l-14.64-30c-17.54-35.89-69.16-33.17-82.88,4.37L397,644.55c-14.43,39.46-69.67,39.8-84.55.5L311,641.28c-14.87-39.23-70-39-84.51.38l-4.81,13.05a44.31,44.31,0,0,1-32.93,28.67c-19.29,4-40.95-4.39-50.54-25.79L124.07,626c-16.41-36.59-68.34-35.41-83.09,1.89L27.12,663A44.43,44.43,0,0,1,.94,688.83Z"/><path class="cls-16" d="M.94,783.72H1086.85v2h839.8v-153c-18.74-1.09-38,9.24-45.39,30.36l-8.7,24.95c-13,37.39-63.92,41.32-82.43,6.36l-21.39-40.36c-19-36-71.78-30.5-83.16,8.63l-3.18,10.94c-11.59,39.82-65.66,44.53-83.84,7.29L1583.92,651c-17.54-35.89-69.16-33.17-82.88,4.37l-6,16.56c-14.43,39.46-69.67,39.8-84.55.5l-1.43-3.76c-14.87-39.24-70-39-84.51.37l-4.81,13c-14.06,38.11-66.85,39.94-83.47,2.88L1222,653.35c-16.41-36.59-68.33-35.41-83.09,1.89l-13.86,35.08a44.53,44.53,0,0,1-38.24,28.51v1.25a44.46,44.46,0,0,1-33-27.88l-8.51-21.71a44.35,44.35,0,0,0-41.94-28.79c-18.07,0-36.12,10.51-42.92,31.23-12.8,39-66.19,42.32-83.66,5.24l-10.14-21.53c-17.3-36.71-70-33.9-83.39,4.45L774.59,686c-13,37.39-63.92,41.31-82.43,6.35L670.77,652c-19-36-71.78-30.5-83.16,8.63l-3.18,10.94c-11.59,39.82-65.66,44.54-83.84,7.3l-14.64-30c-17.54-35.89-69.16-33.16-82.88,4.38L397,669.87c-14.43,39.47-69.67,39.8-84.55.51L311,666.61c-14.87-39.23-70-39-84.51.37l-4.81,13a44.32,44.32,0,0,1-32.93,28.68c-19.29,4-40.95-4.4-50.54-25.79l-14.18-31.6c-16.41-36.59-68.34-35.4-83.09,1.9L27.12,688.3A44.43,44.43,0,0,1,.94,714.16Z"/><path class="cls-15" d="M-1.07,832.35H1084.84v2h839.81v-153c-18.75-1.1-38,9.24-45.4,30.36l-8.7,25c-13,37.39-63.92,41.31-82.43,6.35l-21.39-40.36c-19-36-71.77-30.5-83.16,8.63l-3.18,10.94c-11.59,39.82-65.66,44.54-83.84,7.3l-14.64-30c-17.54-35.89-69.16-33.16-82.88,4.38l-6,16.55c-14.42,39.47-69.66,39.8-84.55.51l-1.43-3.77c-14.87-39.23-70-39-84.51.37l-4.81,13c-14.06,38.11-66.85,39.94-83.47,2.89L1220,702c-16.42-36.59-68.34-35.4-83.1,1.9L1123.08,739a44.51,44.51,0,0,1-38.24,28.5v1.25a44.46,44.46,0,0,1-33-27.88l-8.5-21.71a44.38,44.38,0,0,0-41.94-28.79c-18.08,0-36.13,10.52-42.93,31.23-12.8,39-66.19,42.33-83.66,5.24l-10.14-21.52c-17.3-36.72-70-33.91-83.39,4.44l-8.7,24.95c-13,37.39-63.92,41.31-82.43,6.35l-21.39-40.35c-19-36-71.78-30.51-83.16,8.63l-3.18,10.94c-11.59,39.82-65.66,44.53-83.84,7.29l-14.64-29.95c-17.54-35.89-69.16-33.17-82.88,4.37L395,718.5c-14.42,39.46-69.66,39.8-84.55.5L309,715.23c-14.87-39.23-70-39-84.51.38l-4.81,13a44.31,44.31,0,0,1-32.93,28.67c-19.29,4-40.95-4.39-50.54-25.79L122.06,700c-16.41-36.59-68.33-35.41-83.09,1.89L25.11,736.92A44.43,44.43,0,0,1-1.07,762.78Z"/><path class="cls-16" d="M1924.65,696.57v153H1084.84v-2H-1.07V778c.53-.19,1.05-.4,1.57-.61l.44-.19A43.94,43.94,0,0,0,22.09,758.4a48,48,0,0,0,3-6.28l4.46-11.29L34.24,729,39,717c14.76-37.3,66.68-38.49,83.09-1.9L128.29,729l8,17.72a46.71,46.71,0,0,0,7.41,11.66,44.91,44.91,0,0,0,43.13,14.13,44.25,44.25,0,0,0,24.37-14.13,46.25,46.25,0,0,0,8.56-14.55l4.81-13.05c.22-.6.46-1.2.69-1.78,15.32-37.11,67.86-37.23,83.26,0,.19.46.38.93.56,1.41l1.43,3.77a44.42,44.42,0,0,0,21.18,24.2,46,46,0,0,0,42,0A44.47,44.47,0,0,0,395,733.69l1.71-4.67,4.34-11.88c13.72-37.54,65.34-40.27,82.88-4.38L491.89,729l6.69,13.7a45.66,45.66,0,0,0,12.36,15.68c16.39,13.2,40.21,12.76,56.29,0a44.94,44.94,0,0,0,15.19-23l1.86-6.4,1.32-4.54c11.38-39.13,64.11-44.6,83.16-8.63l7,13.17,14.41,27.19c.4.75.81,1.48,1.24,2.19a44.21,44.21,0,0,0,20.29,18.1c19.87,8.75,45,2.24,57-18.1a47.36,47.36,0,0,0,4-8.54L779.85,729l1.43-4.11c13.37-38.35,66.09-41.16,83.39-4.45l4,8.56,6.11,13a45.33,45.33,0,0,0,12.85,16.41c16.26,12.93,39.81,12.62,55.86,0a44.86,44.86,0,0,0,15-21.65,48,48,0,0,1,3.29-7.73,45.06,45.06,0,0,1,79.14,0,49.27,49.27,0,0,1,2.44,5.29l8.5,21.71c.32.81.65,1.6,1,2.38A44.32,44.32,0,0,0,1084,783.72l.84.18v-1.25a44.4,44.4,0,0,0,35.22-22.23,48.57,48.57,0,0,0,3-6.28l9.12-23.09,4.74-12c14.76-37.3,66.68-38.48,83.1-1.89l6.23,13.88,7.94,17.71a46.89,46.89,0,0,0,7.41,11.66c17.73,20.33,50,20,67.5,0a46.2,46.2,0,0,0,8.56-14.54l4.81-13c.22-.6.46-1.2.69-1.78,15.32-37.12,67.87-37.23,83.26,0,.2.46.38.93.56,1.4l1.43,3.77a44.46,44.46,0,0,0,21.16,24.2,46,46,0,0,0,42.05,0,44.45,44.45,0,0,0,21.34-24.7l1.71-4.67,4.34-11.89c13.72-37.54,65.34-40.26,82.88-4.37l7.95,16.26,6.69,13.69a45.62,45.62,0,0,0,12.35,15.68c16.38,13.21,40.21,12.78,56.3,0a44.81,44.81,0,0,0,15.19-23l1.86-6.4,1.32-4.54c11.39-39.13,64.11-44.6,83.16-8.63l7,13.17,14.41,27.19c.39.75.8,1.47,1.23,2.18,17.8,29.85,60.41,28.55,77.25,0a47.36,47.36,0,0,0,4-8.54l7.26-20.83,1.44-4.12a44.57,44.57,0,0,1,41.25-30.41C1921.89,696.47,1923.27,696.49,1924.65,696.57Z"/><path class="cls-16" d="M1928.66,832.35v173.76l-8.16-.37v74.76H.5v-73.64l-1.57.08V832.35Z"/><g class="cls-17"><ellipse class="cls-18" cx="814.27" cy="939.83" rx="43.57" ry="14.39"/><polygon class="cls-18" points="853.97 938.89 879.19 922.68 880.5 952.81 853.97 938.89"/></g><g class="cls-19"><path class="cls-18" d="M267.83,775.79c-3.63-11.09-14.7-17.36-24.72-14s-15.2,15-11.56,26.12Z"/><ellipse class="cls-18" cx="232.51" cy="787.75" rx="0.96" ry="1.05" transform="translate(-216.76 100.17) rotate(-16.72)"/><ellipse class="cls-18" cx="234.32" cy="787.14" rx="0.96" ry="1.05" transform="translate(-216.5 100.66) rotate(-16.72)"/><ellipse class="cls-18" cx="236.14" cy="786.54" rx="0.96" ry="1.05" transform="translate(-216.25 101.16) rotate(-16.72)"/><ellipse class="cls-18" cx="237.95" cy="785.93" rx="0.96" ry="1.05" transform="translate(-216 101.65) rotate(-16.72)"/><ellipse class="cls-18" cx="239.77" cy="785.33" rx="0.96" ry="1.05" transform="translate(-215.75 102.15) rotate(-16.72)"/><ellipse class="cls-18" cx="241.58" cy="784.72" rx="0.96" ry="1.05" transform="translate(-215.5 102.65) rotate(-16.72)"/><ellipse class="cls-18" cx="243.39" cy="784.12" rx="0.96" ry="1.05" transform="translate(-215.25 103.14) rotate(-16.72)"/><ellipse class="cls-18" cx="245.21" cy="783.51" rx="0.96" ry="1.05" transform="translate(-215 103.64) rotate(-16.72)"/><ellipse class="cls-18" cx="247.02" cy="782.91" rx="0.96" ry="1.05" transform="translate(-214.75 104.14) rotate(-16.72)"/><ellipse class="cls-18" cx="248.84" cy="782.3" rx="0.96" ry="1.05" transform="translate(-214.5 104.63) rotate(-16.72)"/><ellipse class="cls-18" cx="266.98" cy="776.26" rx="0.96" ry="1.05" transform="matrix(0.96, -0.29, 0.29, 0.96, -211.99, 109.6)"/><ellipse class="cls-18" cx="265.17" cy="776.86" rx="0.96" ry="1.05" transform="translate(-212.24 109.1) rotate(-16.72)"/><ellipse class="cls-18" cx="263.35" cy="777.47" rx="0.96" ry="1.05" transform="translate(-212.49 108.6) rotate(-16.72)"/><ellipse class="cls-18" cx="261.54" cy="778.07" rx="0.96" ry="1.05" transform="translate(-212.74 108.11) rotate(-16.72)"/><ellipse class="cls-18" cx="259.72" cy="778.68" rx="0.96" ry="1.05" transform="translate(-213 107.61) rotate(-16.72)"/><ellipse class="cls-18" cx="257.91" cy="779.28" rx="0.96" ry="1.05" transform="translate(-213.25 107.11) rotate(-16.72)"/><ellipse class="cls-18" cx="256.1" cy="779.89" rx="0.96" ry="1.05" transform="matrix(0.96, -0.29, 0.29, 0.96, -213.5, 106.62)"/><ellipse class="cls-18" cx="254.28" cy="780.49" rx="0.96" ry="1.05" transform="translate(-213.75 106.12) rotate(-16.72)"/><ellipse class="cls-18" cx="252.47" cy="781.09" rx="0.96" ry="1.05" transform="translate(-214 105.63) rotate(-16.72)"/><ellipse class="cls-18" cx="250.65" cy="781.7" rx="0.96" ry="1.05" transform="translate(-214.25 105.13) rotate(-16.72)"/><path class="cls-18" d="M238,786.49a3.84,3.84,0,0,1,0,3.24c-.42.82-1,1.36-1.43,2.22-.91,2-.28,5.37.89,8.07a79.82,79.82,0,0,0,4.21,7.47c.93,1.67,1.84,3.8,1.51,5.43a14.3,14.3,0,0,1-.79,1.92c-.81,2.35.49,5.89,1.73,8.78Z"/><path class="cls-18" d="M244.24,783.69a8.35,8.35,0,0,0-2.15,7.1,3.8,3.8,0,0,0,.38,1.24,3.36,3.36,0,0,0,1.29,1.22c1.63,1,3.51,1.3,5.2,2.15s3.29,2.61,3.1,4.56-1.92,3.17-1.93,5a4,4,0,0,0,1.41,2.85,10.5,10.5,0,0,0,2.71,1.61Z"/><path class="cls-18" d="M244.37,783.91a3.84,3.84,0,0,1,0,3.24c-.42.82-1,1.36-1.43,2.22-.91,2-.28,5.37.89,8.06a80,80,0,0,0,4.21,7.48c.93,1.67,1.84,3.8,1.51,5.42a13.91,13.91,0,0,1-.79,1.93c-.81,2.35.49,5.89,1.73,8.78Z"/><path class="cls-18" d="M248,782.7a3.84,3.84,0,0,1,0,3.24c-.42.82-1,1.36-1.43,2.22-.91,2-.28,5.37.89,8.06a80,80,0,0,0,4.21,7.48c.93,1.67,1.84,3.8,1.5,5.42a12.75,12.75,0,0,1-.78,1.93c-.81,2.35.49,5.89,1.73,8.78Z"/><path class="cls-18" d="M262.44,778.25a3.77,3.77,0,0,0,1.95,2.58c.82.41,1.63.47,2.45.92,1.93,1.08,3.4,4.15,4.05,7a80.4,80.4,0,0,1,1.05,8.53c.23,1.9.76,4.15,2,5.26a15,15,0,0,0,1.77,1.08c2,1.39,3.08,5,3.8,8.08Z"/><path class="cls-18" d="M256.88,779.73a3.8,3.8,0,0,0,1.95,2.58c.82.41,1.64.47,2.46.93,1.93,1.08,3.4,4.15,4,7a83.08,83.08,0,0,1,1.05,8.53c.23,1.9.76,4.15,2,5.26a13.1,13.1,0,0,0,1.77,1.08c2,1.4,3.08,5,3.8,8.08Z"/><path class="cls-18" d="M253.36,781.27a3.78,3.78,0,0,0,1.95,2.58c.82.41,1.64.47,2.46.93,1.93,1.08,3.4,4.15,4.05,7a83.43,83.43,0,0,1,1.05,8.53c.23,1.9.76,4.16,2,5.26a13.1,13.1,0,0,0,1.77,1.08c2,1.4,3.08,5,3.8,8.09Z"/><path class="cls-18" d="M249.85,782.28c1.84,2.68-.17,6.55,1.14,9.55a7.56,7.56,0,0,0,1.75,2.32c2.64,2.57,6.07,4.88,6.75,8.58a20.11,20.11,0,0,1,.13,3.47,19.68,19.68,0,0,0,3.66,11.12Z"/></g><g class="cls-17"><ellipse class="cls-18" cx="647.48" cy="913.08" rx="42.15" ry="13.92"/><polygon class="cls-18" points="685.88 912.17 710.28 896.49 711.54 925.64 685.88 912.17"/></g><g class="cls-17"><ellipse class="cls-18" cx="659.74" cy="1023.61" rx="41.29" ry="13.64"/><polygon class="cls-18" points="697.36 1022.72 721.26 1007.36 722.5 1035.92 697.36 1022.72"/></g><line class="cls-20" x1="168.79" y1="445.1" x2="161.45" y2="457.8"/><path class="cls-21" d="M238.28,270.75c-1-.39-48.9-7.1-94.54-6.08-45.67-1.24-93.51,5.67-94.5,6.09.28.2,6.73-9,22.86-19a136.75,136.75,0,0,1,143.37-.11C231.59,261.69,238,271,238.28,270.75Z"/><path class="cls-21" d="M256.9,275c-.17-.14-58.46,2.48-107.48,18.89-49.27,14.72-83.58,33.7-84.63,33.78-.45,1.63,11-43.81,71.88-64.22,29.59-9.81,61.56-7.42,84-1.93C243.52,266.93,256.84,275.41,256.9,275Z"/><path class="cls-21" d="M239.17,299.19c-.36.48-21.38-36-73.67-66.92-51.52-31.15-106.26-45.13-105.24-46-.26.56,21-6.82,50.09-5.84,28.83.46,65.42,9.28,90.36,30.07C251.13,253.27,238,300.72,239.17,299.19Z"/><path class="cls-22" d="M267.58,524.61H215.52V273.38h38.56a430,430,0,0,0,13.5,251.23Z"/><path class="cls-21" d="M227.49,282.33c.42.42,21.91-34.81,74.19-65.81,51.56-31.2,106.87-46.38,105.86-47.2.28.55-21.21-6.55-50.4-5.26-29,.77-65.63,9.92-90.6,30.71C216.08,237.53,228.7,283.81,227.49,282.33Z"/><path class="cls-21" d="M223.07,264.34c1.06-.38,46.38-8.87,92.16-10.22,45.73-3.59,96,1.56,97,1.95-.25.24-7.71-8.92-24.92-18.24-16.86-9.24-43.48-18.62-73.85-16.84a132.28,132.28,0,0,0-69.49,23.65C228.87,255.25,223.37,264.51,223.07,264.34Z"/><path class="cls-21" d="M211.87,271.39c.3-.24,57.25.08,105.29,14,48.2,12.08,84.18,28.75,85.29,28.84.72,1.59-13.68-43.52-75.09-60.13-29.76-8-60.58-3.86-81.81,2.58C224,263.06,212,271.75,211.87,271.39Z"/><path class="cls-21" d="M233.06,273.73c-.76.67,24.2,9.77,50,27.28,26.33,17.83,33.85,39,33.78,38.6-.95.62,9.68-22.09-12-46.86-10.88-12.12-29.33-18.81-44.56-20.28C244.92,270.64,232.85,274,233.06,273.73Z"/><path class="cls-21" d="M144.11,348.93c-.35.52,5.45-21.5,31.6-40.22,25.5-17.95,45.78-30.4,44.71-31.32.31.3-13.32-2.89-29.25.23-15.93,2.62-34.16,11.53-42.91,24.76C131.19,329.2,145.42,349.23,144.11,348.93Z"/><rect class="cls-21" x="212.18" y="271.38" width="40.72" height="13.36" rx="6.55"/><ellipse class="cls-23" cx="215.52" cy="280.4" rx="11.69" ry="9.35" transform="translate(-102.72 434.66) rotate(-78.31)"/><ellipse class="cls-24" cx="212.11" cy="290.27" rx="0.67" ry="0.53" transform="translate(-115.1 439.19) rotate(-78.31)"/><ellipse class="cls-24" cx="214.72" cy="290.81" rx="0.67" ry="0.53" transform="translate(-113.55 442.18) rotate(-78.31)"/><ellipse class="cls-24" cx="213.42" cy="289.18" rx="0.67" ry="0.53" transform="translate(-112.99 439.61) rotate(-78.31)"/><ellipse class="cls-23" cx="230.07" cy="279.7" rx="9.35" ry="11.69" transform="translate(-112.14 161.14) rotate(-31.45)"/><ellipse class="cls-24" cx="234.35" cy="289.23" rx="0.53" ry="0.67" transform="translate(-116.48 164.77) rotate(-31.45)"/><ellipse class="cls-24" cx="236.62" cy="287.83" rx="0.53" ry="0.67" transform="translate(-115.42 165.76) rotate(-31.45)"/><ellipse class="cls-24" cx="234.56" cy="287.53" rx="0.53" ry="0.67" transform="translate(-115.57 164.63) rotate(-31.45)"/><ellipse class="cls-23" cx="246.09" cy="280.37" rx="9.35" ry="11.69" transform="translate(-99.55 140.01) rotate(-26.62)"/><ellipse class="cls-24" cx="249.55" cy="290.22" rx="0.53" ry="0.67" transform="translate(-103.6 142.6) rotate(-26.62)"/><ellipse class="cls-24" cx="251.93" cy="289.02" rx="0.53" ry="0.67" transform="translate(-102.81 143.54) rotate(-26.62)"/><ellipse class="cls-24" cx="249.9" cy="288.55" rx="0.53" ry="0.67" transform="translate(-102.81 142.58) rotate(-26.62)"/><path class="cls-25" d="M324.73,73.69C321.27,83.39,312,88.5,306.89,91.3c-4.1,2.25-21.33,11.73-35.66,5.88-6.85-2.8-12-8.66-11.15-9.79.6-.8,4,1,8.92,2,11.86,2.23,22.38-2.88,24.52-3.92,6.31-3.07,18.61-11.1,17.83-19.58-.2-2.09-1.14-3.79,0-5.87a6.9,6.9,0,0,1,2.28-2.39,0,0,0,0,1,0,0,10.79,10.79,0,0,1,2.12-1.15.07.07,0,0,0,.06,0,19.57,19.57,0,0,1,4.53-.33,20.8,20.8,0,0,1,2.63.25l0,0a6,6,0,0,1,2.43,3.09C327,63.31,326.27,69.36,324.73,73.69Z"/><path class="cls-26" d="M325.44,59.43a15.7,15.7,0,0,1-5.26.55c-3.7-.13-6.64-1.13-6.6-2.21a.41.41,0,0,1,.05-.18,0,0,0,0,1,0,0c.18-.49,1-.88,2.12-1.15a.07.07,0,0,0,.06,0,19.57,19.57,0,0,1,4.53-.33,20.8,20.8,0,0,1,2.63.25l0,0A6,6,0,0,1,325.44,59.43Z"/><path class="cls-26" d="M319.06,57.19l-.14-2.63a8.56,8.56,0,0,1,0-1.34c.25-2.25,2.61-4.17,5.19-4.21,1.1,0,2.38.42,2.63,1.37l-2.29-.1a4.5,4.5,0,0,0-2,.18A3,3,0,0,0,321,52.11a6,6,0,0,0-.21,4.32Z"/><path class="cls-25" d="M244.32,70.48c-3.46,9.71-12.73,14.82-17.83,17.62-4.11,2.25-21.34,11.73-35.67,5.87-6.85-2.8-12-8.65-11.15-9.79.6-.8,4,1,8.92,2,11.86,2.23,22.38-2.88,24.52-3.91,6.31-3.08,18.61-11.1,17.83-19.58-.2-2.09-1.13-3.8,0-5.87a7,7,0,0,1,2.28-2.39,0,0,0,0,1,0,0,11.08,11.08,0,0,1,2.12-1.15.07.07,0,0,0,.06,0,19,19,0,0,1,4.53-.34,20.54,20.54,0,0,1,2.63.26l0,0A6,6,0,0,1,245,56.23C246.55,60.11,245.86,66.16,244.32,70.48Z"/><path class="cls-26" d="M245,56.23a15.93,15.93,0,0,1-5.26.55c-3.7-.14-6.64-1.14-6.6-2.21a.61.61,0,0,1,.05-.18,0,0,0,0,1,0,0c.18-.49,1-.88,2.12-1.15a.07.07,0,0,0,.06,0,19,19,0,0,1,4.53-.34,20.54,20.54,0,0,1,2.63.26l0,0A6,6,0,0,1,245,56.23Z"/><path class="cls-26" d="M238.65,54l-.13-2.64a7.39,7.39,0,0,1,0-1.33c.25-2.25,2.61-4.17,5.19-4.21,1.1,0,2.38.42,2.63,1.36l-2.29-.1a4.82,4.82,0,0,0-2,.18,3,3,0,0,0-1.53,1.66,6,6,0,0,0-.21,4.32Z"/><path class="cls-25" d="M161.32,66.48c-3.46,9.71-12.73,14.82-17.83,17.62-4.11,2.25-21.34,11.73-35.67,5.87-6.85-2.8-12-8.65-11.15-9.79.6-.8,4,1,8.92,2,11.86,2.23,22.38-2.88,24.52-3.91,6.31-3.08,18.61-11.1,17.83-19.58-.2-2.09-1.13-3.8,0-5.87a7,7,0,0,1,2.28-2.39,0,0,0,0,1,0,0,11.08,11.08,0,0,1,2.12-1.15.07.07,0,0,0,.06,0,19,19,0,0,1,4.53-.34,20.54,20.54,0,0,1,2.63.26l0,0A6,6,0,0,1,162,52.23C163.55,56.11,162.86,62.16,161.32,66.48Z"/><path class="cls-26" d="M162,52.23a15.93,15.93,0,0,1-5.26.55c-3.7-.14-6.64-1.14-6.6-2.21a.61.61,0,0,1,.05-.18,0,0,0,0,1,0,0c.18-.49,1-.88,2.12-1.15a.07.07,0,0,0,.06,0,19,19,0,0,1,4.53-.34,20.54,20.54,0,0,1,2.63.26l0,0A6,6,0,0,1,162,52.23Z"/><path class="cls-26" d="M155.65,50l-.13-2.64a7.39,7.39,0,0,1,0-1.33c.25-2.25,2.61-4.17,5.19-4.21,1.1,0,2.38.42,2.63,1.36l-2.29-.1a4.82,4.82,0,0,0-2,.18,3,3,0,0,0-1.53,1.66,6,6,0,0,0-.21,4.32Z"/><path class="cls-27" d="M1928.66,954.28v51.83l-8.16-.37q-302.94-13.41-606-18.24Q657.85,977,.5,1006.86l-1.57.08V956.18l1.57.08c117,6.26,287.3,13.12,493,13.24,105.49.06,194.39-1.68,275.32-4.19,34.32-1.08,67.2-2.29,99.3-3.56l3.36-.13,24.14-1c66.86-2.75,131.1-5.7,198.88-8.13,198.06-7.1,478.71-11.6,826,1.47Z"/><path class="cls-27" d="M1913.66,837.45v42.13a25.87,25.87,0,0,1-15.16,4.92q-598-38.79-1194.2-29-12.48.19-25,.43h0c-.75,0-1.49,0-2.24,0q-49.68.88-99.34,2.14-73.64,1.83-147.25,4.42c-226.92,8-340.39,11.33-353.3,16.67C69,882.54,27.78,900.62-8.5,884.5c-1.11-.49-3.32-1.51-6-3l-1.57-.89v-47c.52-.16,1-.3,1.57-.42a25.33,25.33,0,0,1,6-.71c80.88,1.46,217.45,3.26,387,2,127.17-.94,232.39-3.3,326.14-6.15,231.66-7,393.26-17,642.86-15.85,111.46.53,278.73,3.46,485.7,15.85q16.2,1,32.73,2,16.13,1,32.57,2.13a25.35,25.35,0,0,1,7,1,25.84,25.84,0,0,1,4.15,1.56A25.08,25.08,0,0,1,1913.66,837.45Z"/><g class="cls-19"><path class="cls-18" d="M148.79,1020.4c-3.63-11.09-14.7-17.36-24.72-14s-15.2,15-11.56,26.11Z"/><ellipse class="cls-18" cx="113.47" cy="1032.36" rx="0.96" ry="1.05" transform="translate(-292.14 76.26) rotate(-16.72)"/><ellipse class="cls-18" cx="115.28" cy="1031.75" rx="0.96" ry="1.05" transform="translate(-291.89 76.76) rotate(-16.72)"/><ellipse class="cls-18" cx="117.1" cy="1031.15" rx="0.96" ry="1.05" transform="translate(-291.64 77.26) rotate(-16.72)"/><ellipse class="cls-18" cx="118.91" cy="1030.54" rx="0.96" ry="1.05" transform="translate(-291.39 77.75) rotate(-16.72)"/><ellipse class="cls-18" cx="120.73" cy="1029.94" rx="0.96" ry="1.05" transform="translate(-291.14 78.25) rotate(-16.72)"/><ellipse class="cls-18" cx="122.54" cy="1029.33" rx="0.96" ry="1.05" transform="translate(-290.89 78.74) rotate(-16.72)"/><ellipse class="cls-18" cx="124.35" cy="1028.73" rx="0.96" ry="1.05" transform="translate(-290.64 79.24) rotate(-16.72)"/><ellipse class="cls-18" cx="126.17" cy="1028.12" rx="0.96" ry="1.05" transform="translate(-290.39 79.74) rotate(-16.72)"/><ellipse class="cls-18" cx="127.98" cy="1027.52" rx="0.96" ry="1.05" transform="translate(-290.14 80.23) rotate(-16.72)"/><ellipse class="cls-18" cx="129.8" cy="1026.91" rx="0.96" ry="1.05" transform="translate(-289.89 80.73) rotate(-16.72)"/><ellipse class="cls-18" cx="147.94" cy="1020.87" rx="0.96" ry="1.05" transform="translate(-287.38 85.69) rotate(-16.72)"/><ellipse class="cls-18" cx="146.13" cy="1021.47" rx="0.96" ry="1.05" transform="translate(-287.63 85.2) rotate(-16.72)"/><ellipse class="cls-18" cx="144.31" cy="1022.08" rx="0.96" ry="1.05" transform="translate(-287.88 84.7) rotate(-16.72)"/><ellipse class="cls-18" cx="142.5" cy="1022.68" rx="0.96" ry="1.05" transform="translate(-288.13 84.2) rotate(-16.72)"/><ellipse class="cls-18" cx="140.68" cy="1023.29" rx="0.96" ry="1.05" transform="translate(-288.38 83.71) rotate(-16.72)"/><ellipse class="cls-18" cx="138.87" cy="1023.89" rx="0.96" ry="1.05" transform="translate(-288.63 83.21) rotate(-16.72)"/><ellipse class="cls-18" cx="137.05" cy="1024.49" rx="0.96" ry="1.05" transform="translate(-288.88 82.71) rotate(-16.72)"/><ellipse class="cls-18" cx="135.24" cy="1025.1" rx="0.96" ry="1.05" transform="translate(-289.13 82.22) rotate(-16.72)"/><ellipse class="cls-18" cx="133.43" cy="1025.7" rx="0.96" ry="1.05" transform="translate(-289.39 81.72) rotate(-16.72)"/><ellipse class="cls-18" cx="131.61" cy="1026.31" rx="0.96" ry="1.05" transform="matrix(0.96, -0.29, 0.29, 0.96, -289.64, 81.23)"/><path class="cls-18" d="M119,1031.1a3.84,3.84,0,0,1,0,3.24c-.42.82-1,1.36-1.43,2.22-.91,2-.28,5.37.89,8.07a79.82,79.82,0,0,0,4.21,7.47c.93,1.67,1.84,3.8,1.51,5.42a13.91,13.91,0,0,1-.79,1.93c-.81,2.35.49,5.89,1.73,8.78Z"/><path class="cls-18" d="M125.2,1028.3a8.35,8.35,0,0,0-2.15,7.1,3.58,3.58,0,0,0,.38,1.24,3.36,3.36,0,0,0,1.29,1.22c1.63,1,3.51,1.3,5.2,2.15s3.29,2.61,3.1,4.56-1.92,3.17-1.93,5a4,4,0,0,0,1.41,2.85,10.5,10.5,0,0,0,2.71,1.61Z"/><path class="cls-18" d="M125.33,1028.52a3.84,3.84,0,0,1,0,3.24c-.42.82-1,1.36-1.43,2.22-.91,2-.28,5.37.89,8.06a80,80,0,0,0,4.21,7.48c.93,1.67,1.84,3.8,1.51,5.42a13.91,13.91,0,0,1-.79,1.93c-.81,2.35.49,5.89,1.73,8.78Z"/><path class="cls-18" d="M129,1027.31a3.84,3.84,0,0,1,0,3.24c-.42.82-1,1.36-1.43,2.22-.91,2-.28,5.37.89,8.06a82.24,82.24,0,0,0,4.2,7.48c.94,1.67,1.84,3.8,1.51,5.42a13.89,13.89,0,0,1-.78,1.93c-.81,2.35.49,5.89,1.73,8.78Z"/><path class="cls-18" d="M143.4,1022.86a3.77,3.77,0,0,0,1.95,2.58c.81.41,1.63.47,2.45.92,1.93,1.08,3.4,4.15,4,7a80.4,80.4,0,0,1,1.05,8.53c.23,1.9.76,4.15,2,5.26a13.66,13.66,0,0,0,1.77,1.07c2,1.4,3.08,5,3.8,8.09Z"/><path class="cls-18" d="M137.84,1024.34a3.8,3.8,0,0,0,1.95,2.58c.82.41,1.64.47,2.46.93,1.93,1.08,3.4,4.15,4.05,7a83.08,83.08,0,0,1,1,8.53c.23,1.9.76,4.15,2,5.26a13.1,13.1,0,0,0,1.77,1.08c2,1.4,3.08,5,3.8,8.08Z"/><path class="cls-18" d="M134.32,1025.88a3.78,3.78,0,0,0,2,2.58c.82.41,1.64.47,2.46.93,1.93,1.08,3.4,4.15,4.05,7a83.43,83.43,0,0,1,1.05,8.53c.23,1.9.76,4.16,2,5.26a13.1,13.1,0,0,0,1.77,1.08c2,1.4,3.08,5,3.8,8.09Z"/><path class="cls-18" d="M130.81,1026.89c1.84,2.68-.17,6.55,1.14,9.55a7.56,7.56,0,0,0,1.75,2.32c2.64,2.57,6.07,4.88,6.75,8.58a20.11,20.11,0,0,1,.13,3.47,19.68,19.68,0,0,0,3.66,11.12Z"/></g><g class="cls-17"><ellipse class="cls-18" cx="1517.89" cy="900.95" rx="42.15" ry="13.92"/><polygon class="cls-18" points="1556.29 900.04 1580.69 884.37 1581.95 913.51 1556.29 900.04"/></g><g class="cls-17"><ellipse class="cls-18" cx="1554.89" cy="1037.95" rx="42.15" ry="13.92"/><polygon class="cls-18" points="1593.29 1037.04 1617.69 1021.37 1618.95 1050.51 1593.29 1037.04"/></g><g class="cls-19"><path class="cls-18" d="M1135,1013.39c-3.63-11.09-14.7-17.36-24.72-14s-15.2,15-11.57,26.11Z"/><ellipse class="cls-18" cx="1099.65" cy="1025.35" rx="0.96" ry="1.05" transform="translate(-248.45 359.62) rotate(-16.72)"/><ellipse class="cls-18" cx="1101.46" cy="1024.74" rx="0.96" ry="1.05" transform="translate(-248.2 360.12) rotate(-16.72)"/><ellipse class="cls-18" cx="1103.27" cy="1024.14" rx="0.96" ry="1.05" transform="translate(-247.95 360.61) rotate(-16.72)"/><ellipse class="cls-18" cx="1105.09" cy="1023.53" rx="0.96" ry="1.05" transform="translate(-247.7 361.11) rotate(-16.72)"/><ellipse class="cls-18" cx="1106.9" cy="1022.93" rx="0.96" ry="1.05" transform="translate(-247.45 361.61) rotate(-16.72)"/><ellipse class="cls-18" cx="1108.72" cy="1022.32" rx="0.96" ry="1.05" transform="translate(-247.2 362.1) rotate(-16.72)"/><ellipse class="cls-18" cx="1110.53" cy="1021.72" rx="0.96" ry="1.05" transform="translate(-246.95 362.6) rotate(-16.72)"/><ellipse class="cls-18" cx="1112.35" cy="1021.11" rx="0.96" ry="1.05" transform="matrix(0.96, -0.29, 0.29, 0.96, -246.7, 363.1)"/><ellipse class="cls-18" cx="1114.16" cy="1020.51" rx="0.96" ry="1.05" transform="translate(-246.45 363.59) rotate(-16.72)"/><ellipse class="cls-18" cx="1115.97" cy="1019.9" rx="0.96" ry="1.05" transform="translate(-246.2 364.09) rotate(-16.72)"/><ellipse class="cls-18" cx="1134.12" cy="1013.85" rx="0.96" ry="1.05" transform="translate(-243.69 369.05) rotate(-16.72)"/><ellipse class="cls-18" cx="1132.3" cy="1014.46" rx="0.96" ry="1.05" transform="translate(-243.94 368.55) rotate(-16.72)"/><ellipse class="cls-18" cx="1130.49" cy="1015.06" rx="0.96" ry="1.05" transform="translate(-244.19 368.06) rotate(-16.72)"/><ellipse class="cls-18" cx="1128.68" cy="1015.67" rx="0.96" ry="1.05" transform="translate(-244.44 367.56) rotate(-16.72)"/><ellipse class="cls-18" cx="1126.86" cy="1016.27" rx="0.96" ry="1.05" transform="translate(-244.69 367.07) rotate(-16.72)"/><ellipse class="cls-18" cx="1125.05" cy="1016.88" rx="0.96" ry="1.05" transform="translate(-244.94 366.57) rotate(-16.72)"/><ellipse class="cls-18" cx="1123.23" cy="1017.48" rx="0.96" ry="1.05" transform="translate(-245.19 366.07) rotate(-16.72)"/><ellipse class="cls-18" cx="1121.42" cy="1018.09" rx="0.96" ry="1.05" transform="translate(-245.44 365.58) rotate(-16.72)"/><ellipse class="cls-18" cx="1119.6" cy="1018.69" rx="0.96" ry="1.05" transform="translate(-245.69 365.08) rotate(-16.72)"/><ellipse class="cls-18" cx="1117.79" cy="1019.3" rx="0.96" ry="1.05" transform="translate(-245.95 364.58) rotate(-16.72)"/><path class="cls-18" d="M1105.16,1024.09a3.76,3.76,0,0,1,0,3.24c-.41.82-1,1.36-1.42,2.22-.91,2-.28,5.37.89,8.07a83.43,83.43,0,0,0,4.2,7.47c.94,1.67,1.84,3.8,1.51,5.42a13.89,13.89,0,0,1-.78,1.93c-.81,2.35.49,5.89,1.73,8.78Z"/><path class="cls-18" d="M1111.38,1021.29a8.36,8.36,0,0,0-2.16,7.1,3.8,3.8,0,0,0,.38,1.24,3.51,3.51,0,0,0,1.29,1.22c1.63,1,3.52,1.3,5.21,2.15s3.29,2.61,3.09,4.56-1.92,3.17-1.92,5a4,4,0,0,0,1.41,2.86,10.61,10.61,0,0,0,2.7,1.61Z"/><path class="cls-18" d="M1111.5,1021.5a3.82,3.82,0,0,1,0,3.25c-.41.82-1,1.36-1.42,2.22-.91,2-.28,5.37.89,8.06a82.24,82.24,0,0,0,4.2,7.48c.94,1.67,1.84,3.8,1.51,5.42a13.89,13.89,0,0,1-.78,1.93c-.81,2.35.49,5.88,1.73,8.78Z"/><path class="cls-18" d="M1115.13,1020.29a3.82,3.82,0,0,1,0,3.25c-.41.82-1,1.36-1.42,2.22-.91,2-.28,5.37.89,8.06a82.24,82.24,0,0,0,4.2,7.48c.94,1.67,1.84,3.8,1.51,5.42a13.89,13.89,0,0,1-.78,1.93c-.81,2.35.49,5.88,1.73,8.78Z"/><path class="cls-18" d="M1129.57,1015.85a3.82,3.82,0,0,0,2,2.58c.82.41,1.64.47,2.46.92,1.93,1.08,3.4,4.15,4,7a80.36,80.36,0,0,1,1,8.53c.24,1.9.77,4.15,2,5.26a13,13,0,0,0,1.77,1.07c2,1.4,3.08,5,3.8,8.09Z"/><path class="cls-18" d="M1124,1017.33a3.77,3.77,0,0,0,2,2.58c.82.41,1.64.47,2.46.93,1.92,1.08,3.4,4.14,4,7a83,83,0,0,1,1,8.53c.24,1.9.77,4.15,2,5.26a13.65,13.65,0,0,0,1.76,1.08c2,1.39,3.09,5,3.81,8.08Z"/><path class="cls-18" d="M1120.5,1018.87a3.77,3.77,0,0,0,2,2.58c.82.41,1.64.47,2.46.93,1.92,1.08,3.4,4.15,4,7a83,83,0,0,1,1,8.53c.24,1.9.77,4.15,2,5.26a13.65,13.65,0,0,0,1.76,1.08c2,1.4,3.09,5,3.81,8.08Z"/><path class="cls-18" d="M1117,1019.88c1.84,2.68-.17,6.55,1.14,9.55a7.64,7.64,0,0,0,1.75,2.32c2.64,2.57,6.07,4.88,6.75,8.58a20.11,20.11,0,0,1,.13,3.47,19.68,19.68,0,0,0,3.66,11.12Z"/></g><g class="cls-19"><path class="cls-18" d="M1094,895.39c-3.63-11.09-14.7-17.36-24.72-14s-15.2,15-11.57,26.11Z"/><ellipse class="cls-18" cx="1058.65" cy="907.35" rx="0.96" ry="1.05" transform="translate(-216.24 342.84) rotate(-16.72)"/><ellipse class="cls-18" cx="1060.46" cy="906.74" rx="0.96" ry="1.05" transform="translate(-215.99 343.34) rotate(-16.72)"/><ellipse class="cls-18" cx="1062.27" cy="906.14" rx="0.96" ry="1.05" transform="translate(-215.74 343.83) rotate(-16.72)"/><ellipse class="cls-18" cx="1064.09" cy="905.53" rx="0.96" ry="1.05" transform="translate(-215.49 344.33) rotate(-16.72)"/><ellipse class="cls-18" cx="1065.9" cy="904.93" rx="0.96" ry="1.05" transform="translate(-215.24 344.83) rotate(-16.72)"/><ellipse class="cls-18" cx="1067.72" cy="904.32" rx="0.96" ry="1.05" transform="translate(-214.99 345.32) rotate(-16.72)"/><ellipse class="cls-18" cx="1069.53" cy="903.72" rx="0.96" ry="1.05" transform="translate(-214.74 345.82) rotate(-16.72)"/><ellipse class="cls-18" cx="1071.35" cy="903.11" rx="0.96" ry="1.05" transform="matrix(0.96, -0.29, 0.29, 0.96, -214.49, 346.32)"/><ellipse class="cls-18" cx="1073.16" cy="902.51" rx="0.96" ry="1.05" transform="translate(-214.24 346.81) rotate(-16.72)"/><ellipse class="cls-18" cx="1074.97" cy="901.9" rx="0.96" ry="1.05" transform="translate(-213.99 347.31) rotate(-16.72)"/><ellipse class="cls-18" cx="1093.12" cy="895.85" rx="0.96" ry="1.05" transform="translate(-211.48 352.27) rotate(-16.72)"/><ellipse class="cls-18" cx="1091.3" cy="896.46" rx="0.96" ry="1.05" transform="translate(-211.73 351.78) rotate(-16.72)"/><ellipse class="cls-18" cx="1089.49" cy="897.06" rx="0.96" ry="1.05" transform="translate(-211.98 351.28) rotate(-16.72)"/><ellipse class="cls-18" cx="1087.68" cy="897.67" rx="0.96" ry="1.05" transform="translate(-212.23 350.78) rotate(-16.72)"/><ellipse class="cls-18" cx="1085.86" cy="898.27" rx="0.96" ry="1.05" transform="translate(-212.48 350.29) rotate(-16.72)"/><ellipse class="cls-18" cx="1084.05" cy="898.88" rx="0.96" ry="1.05" transform="translate(-212.73 349.79) rotate(-16.72)"/><ellipse class="cls-18" cx="1082.23" cy="899.48" rx="0.96" ry="1.05" transform="translate(-212.99 349.29) rotate(-16.72)"/><ellipse class="cls-18" cx="1080.42" cy="900.09" rx="0.96" ry="1.05" transform="translate(-213.24 348.8) rotate(-16.72)"/><ellipse class="cls-18" cx="1078.6" cy="900.69" rx="0.96" ry="1.05" transform="translate(-213.49 348.3) rotate(-16.72)"/><ellipse class="cls-18" cx="1076.79" cy="901.3" rx="0.96" ry="1.05" transform="translate(-213.74 347.81) rotate(-16.72)"/><path class="cls-18" d="M1064.16,906.09a3.76,3.76,0,0,1,0,3.24c-.41.82-1,1.36-1.42,2.22-.91,2-.28,5.37.89,8.07a83.43,83.43,0,0,0,4.2,7.47c.94,1.67,1.84,3.8,1.51,5.42a13.89,13.89,0,0,1-.78,1.93c-.81,2.35.49,5.89,1.73,8.78Z"/><path class="cls-18" d="M1070.38,903.29a8.36,8.36,0,0,0-2.16,7.1,3.8,3.8,0,0,0,.38,1.24,3.51,3.51,0,0,0,1.29,1.22c1.63,1,3.52,1.3,5.21,2.15s3.29,2.61,3.09,4.56-1.92,3.17-1.92,5a4,4,0,0,0,1.41,2.86,10.61,10.61,0,0,0,2.7,1.61Z"/><path class="cls-18" d="M1070.5,903.5a3.82,3.82,0,0,1,0,3.25c-.41.82-1,1.36-1.42,2.22-.91,2-.28,5.37.89,8.06a82.24,82.24,0,0,0,4.2,7.48c.94,1.67,1.84,3.8,1.51,5.42a13.89,13.89,0,0,1-.78,1.93c-.81,2.35.49,5.88,1.73,8.78Z"/><path class="cls-18" d="M1074.13,902.29a3.82,3.82,0,0,1,0,3.25c-.41.82-1,1.36-1.42,2.22-.91,2-.28,5.37.89,8.06a82.24,82.24,0,0,0,4.2,7.48c.94,1.67,1.84,3.8,1.51,5.42a13.89,13.89,0,0,1-.78,1.93c-.81,2.35.49,5.88,1.73,8.78Z"/><path class="cls-18" d="M1088.57,897.85a3.82,3.82,0,0,0,2,2.58c.82.41,1.64.47,2.46.92,1.93,1.08,3.4,4.15,4,7a80.36,80.36,0,0,1,1,8.53c.24,1.9.77,4.15,2,5.26a13,13,0,0,0,1.77,1.07c2,1.4,3.08,5,3.8,8.09Z"/><path class="cls-18" d="M1083,899.33a3.77,3.77,0,0,0,2,2.58c.82.41,1.64.47,2.46.93,1.92,1.08,3.4,4.14,4,7a83,83,0,0,1,1,8.53c.24,1.9.77,4.15,2,5.26a13.65,13.65,0,0,0,1.76,1.08c2,1.39,3.09,5,3.81,8.08Z"/><path class="cls-18" d="M1079.5,900.87a3.77,3.77,0,0,0,2,2.58c.82.41,1.64.47,2.46.93,1.92,1.08,3.4,4.15,4,7a83,83,0,0,1,1,8.53c.24,1.9.77,4.15,2,5.26a13.65,13.65,0,0,0,1.76,1.08c2,1.4,3.09,5,3.81,8.08Z"/><path class="cls-18" d="M1076,901.88c1.84,2.68-.17,6.55,1.14,9.55a7.64,7.64,0,0,0,1.75,2.32c2.64,2.57,6.07,4.88,6.75,8.58a20.11,20.11,0,0,1,.13,3.47,19.68,19.68,0,0,0,3.66,11.12Z"/></g><path class="cls-20" d="M1319.38,942.66l-7.36,6.13"/><path class="cls-28" d="M1487,913.14c7.89,14.29,6.82,13.36,8.59,16,10.9,16,30.27,20,31.27,20.24,4.3.83,15.92,2.9,28.21-3.07,1.76-.86,19.23-9.63,20.86-24.53,1.06-9.75-5.16-17.62-3.68-18.4s6.61,5.95,9.81,11a49.72,49.72,0,0,1,3.07,5.52c4.08,9.09,1.45,19.8,0,24.53,1.49-.2,3.6-.45,6.13-.61a61.92,61.92,0,0,1,10.42,0,37.12,37.12,0,0,1,11,2.45,33.84,33.84,0,0,1,11,7.36c2.48,2.33,4.1,3.85,3.68,4.91-.6,1.53-4.85.63-13.49.61a86.17,86.17,0,0,0-12.27.61c-6,.83-10.45,2.38-15.94,4.3-3.94,1.37-6.75,2.57-12.27,4.9-8.59,3.65-9.13,4.25-12.88,5.52-1.15.39-5.58,1.87-14.71,3.07a154.9,154.9,0,0,1-23.31,1.23c-15.71-.31-17.58-1.84-31.89-2.46-9.76-.42-8.25.32-29.44.62-18.81.26-19-.34-35.57,0-18.08.36-18,1.07-27,.61a213.1,213.1,0,0,1-28.83-3.68c-9.64-1.79-16.81-3.67-21.46-4.91-9.79-2.59-16.44-4.36-25.15-8a116.87,116.87,0,0,1-12.74-6c-2-1.1-4.08-2.37-6.27-3.83-1.19-.8-2.73-1.81-4.69-3.3a80.48,80.48,0,0,1-8.19-7.13l-.81-.81c-5-5.09-8.92-9.18-10.84-14.52-4.08-11.35,2.64-23.13,10.43-36.8,5.49-9.63,10.86-15.35,17.17-22.08a71,71,0,0,1,9.46-8.75,24.34,24.34,0,0,1,6.48-3.51c5-1.82,9.32-1.83,14.11-1.84,9,0,11.2,1.8,21.46,3.07,3.6.44,10,.5,22.7.61,4.13,0,3.82,0,20.85,0,21.54,0,18.41,0,23.3,0s9.83.35,14.72,0c5.61-.4,9.29-1.14,14.11.61.67.25,1.29.51,1.86.79a16.6,16.6,0,0,1,4.27,2.89,18.69,18.69,0,0,1,4.29,6.75c3.17,7.15,3.81,5.92,7.36,13.49Z"/><path class="cls-2" d="M1494.36,842c0,.12,0,.23,0,.35h0c0,.25,0,.49-.07.75-.82,7.75-3.28,18.82-11.51,23.43-5.18,2.91-10.65,2.13-12.84,1.84-37.51-5-126.57-.08-143.7-1.84a55.79,55.79,0,0,0-7.38-.35c-1.29,0-2.38.05-2.61.07-1,0-2,.13-3.46.28-5.24.58-8.1,1.6-12.23.62a18.43,18.43,0,0,1-8-4.29q-2.43-9.55-4.88-19.1l-.45-1.75c.6-1,2.7-2,6.09-3l200.85,3Z"/><path class="cls-29" d="M1494.36,842.62a1.2,1.2,0,0,1-.11.48c-2.5,5.53-47.9,9.94-103.53,9.94-53.4,0-97.36-4.06-103-9.28l-.45-1.75c.6-1,2.7-2,6.09-3,14.51-4,52.63-6.85,97.39-6.85,55.2,0,100.31,4.34,103.46,9.81a1,1,0,0,1,.14.35h0A.84.84,0,0,1,1494.36,842.62Z"/><path class="cls-2" d="M1368.36,847.26c0-35.06,10.16-63.48,22.7-63.48s22.69,28.42,22.69,63.48Z"/><circle class="cls-30" cx="1374.16" cy="833.42" r="4.29"/><circle class="cls-21" cx="1391.33" cy="833.42" r="4.29"/><circle class="cls-18" cx="1407.89" cy="833.42" r="4.29"/><ellipse class="cls-31" cx="1330.58" cy="893.06" rx="12.85" ry="12.73"/><circle cx="1328.72" cy="893.82" r="7.36"/><circle class="cls-18" cx="1326.88" cy="890.75" r="3.07"/><path class="cls-32" d="M1446.77,921.42a5.83,5.83,0,1,1,0,11.65"/><path class="cls-32" d="M1433.54,910.26a5.83,5.83,0,0,1,0,11.66"/><path class="cls-32" d="M1427.63,930.47a5.83,5.83,0,0,1,0,11.66"/><path class="cls-32" d="M1412.24,910.47a5.83,5.83,0,0,1,0,11.65"/><path class="cls-32" d="M1406.9,932.83a5.83,5.83,0,1,1,0,11.65"/><path class="cls-32" d="M1424.78,895.05a5.83,5.83,0,0,1,0,11.65"/><path class="cls-32" d="M1441.1,938.56a5.83,5.83,0,1,1,0,11.65"/><ellipse class="cls-31" cx="1326.06" cy="896.36" rx="12.85" ry="12.73"/><circle cx="1324.19" cy="897.13" r="7.36"/><circle class="cls-18" cx="1322.35" cy="894.06" r="3.07"/><path class="cls-33" d="M1317.35,942.28h0a1.36,1.36,0,0,0,0,1.44,8.61,8.61,0,0,1,1,6.14,7.58,7.58,0,0,1-6.06,6.07.1.1,0,0,0,0,.19,7.38,7.38,0,0,0,8.12-6.09,8.38,8.38,0,0,0-2.84-8A2.69,2.69,0,0,1,1317.35,942.28Z"/><circle class="cls-34" cx="379.88" cy="88.42" r="8.38"/><circle class="cls-34" cx="392.06" cy="55.67" r="8.38"/><circle class="cls-34" cx="406.53" cy="35.87" r="8.38"/><circle class="cls-34" cx="434.71" cy="19.88" r="8.38"/><circle class="cls-34" cx="468.99" cy="19.88" r="8.38"/><circle class="cls-34" cx="496.41" cy="33.59" r="8.38"/><circle class="cls-34" cx="514.69" cy="58.72" r="8.38"/><circle class="cls-34" cx="523.06" cy="88.42" r="8.38"/><path class="cls-21" d="M369.35,103.35c0-5.55,12.39-10,13.22-15.29.85-5.48-9.51-13.56-7.86-18.64,1.71-5.26,14.85-5.67,17.31-10.4,2.56-4.91-4.55-16-1.28-20.18,3.39-4.37,15.8-.11,19.85-3.62s1.89-16.53,6.63-19.08,14.2,6.53,19.48,5.18,9.15-13.83,14.68-13.8S460.77,20.07,466,21.43s14.72-7.65,19.51-5,2.35,15.5,6.49,19.13,16.47-.63,19.82,3.76-4,15.24-1.43,20.17c2.43,4.75,15.57,5.25,17.24,10.53,1.61,5.09-8.81,13.1-8,18.58.79,5.27,13.12,9.84,13.1,15.39"/><path class="cls-2" d="M379.12,104.16c0-43.6,32.22-78.95,72-78.95s72,35.35,72,78.95"/><path d="M420.74,67a7.76,7.76,0,0,1-1.28,4.53,10.18,10.18,0,0,1-3.59,3.07,14.15,14.15,0,0,1-4,1.29,26.34,26.34,0,0,1-4.21.45v5.45H398c0-1.55,0-3.21,0-5s0-4.32,0-7.65c0-1.39,0-3.07,0-5s0-3.92,0-5.88l2.4,0c1,0,1.92,0,2.89,0a70.28,70.28,0,0,1,7,.25,18.72,18.72,0,0,1,4.31,1,10,10,0,0,1,4.51,3A7,7,0,0,1,420.74,67Zm-9.84.85a3.33,3.33,0,0,0-.31-1.4,2.51,2.51,0,0,0-.93-1.06,2.59,2.59,0,0,0-1.09-.44,6.59,6.59,0,0,0-1.09-.09h-.36v6.33h.38a4.77,4.77,0,0,0,1.06-.15,2.94,2.94,0,0,0,1-.38,3.28,3.28,0,0,0,1-1A3.54,3.54,0,0,0,410.9,67.82Z"/><path d="M443.59,72.72a9.39,9.39,0,0,1-6.78,9,14.26,14.26,0,0,1-4.05.57,14,14,0,0,1-4.05-.58A9.8,9.8,0,0,1,425.34,80a9.39,9.39,0,0,1-2.54-3.25,9.19,9.19,0,0,1-.9-4,9.3,9.3,0,0,1,.77-3.86A9.55,9.55,0,0,1,425,65.74a9.81,9.81,0,0,1,3.42-1.95,13.4,13.4,0,0,1,4.26-.65,14.13,14.13,0,0,1,4.16.59,9.72,9.72,0,0,1,3.45,1.89,9.07,9.07,0,0,1,2.44,3.15A9.25,9.25,0,0,1,443.59,72.72Zm-8.72,0a7.53,7.53,0,0,0-.17-1.52,2.85,2.85,0,0,0-.65-1.3,1.52,1.52,0,0,0-.58-.37,2,2,0,0,0-.74-.14,1.78,1.78,0,0,0-.74.13,1.74,1.74,0,0,0-.63.49,2.71,2.71,0,0,0-.58,1.23,6.79,6.79,0,0,0-.16,1.42,6.6,6.6,0,0,0,.16,1.51,2.76,2.76,0,0,0,.61,1.22,1.47,1.47,0,0,0,.63.45,2.3,2.3,0,0,0,.74.13,1.87,1.87,0,0,0,.74-.16,1.61,1.61,0,0,0,.6-.4,3.14,3.14,0,0,0,.57-1.19A6.07,6.07,0,0,0,434.87,72.76Z"/><path d="M454.66,61.61h-8.84V56h8.84Zm0,20.15h-8.84c0-1.06,0-2.31,0-3.75s0-3.1,0-5c0-1.54,0-3.06,0-4.58s0-3.13,0-4.84h8.84c0,1.64,0,3,0,4.13s0,2.87,0,5.25c0,2.59,0,4.41,0,5.46S454.66,80.61,454.66,81.76Z"/><path d="M479.12,81.76h-8.85c0-.43,0-1.07,0-2s0-2,0-3.35c0-.55,0-1.28,0-2.19s0-1.65,0-2.2a3.84,3.84,0,0,0-.26-1.62,1,1,0,0,0-1-.54,4.43,4.43,0,0,0-1.28.2c-.43.14-.76.24-1,.33,0,2.42,0,3.92,0,4.5,0,1.16,0,2.52,0,4.09s0,2.48,0,2.73H458c0-.53,0-1.49,0-2.88s0-3.36,0-5.91c0-1.9,0-3.57,0-5s0-2.89,0-4.33h8.65l0,1.17,0,0c.42-.19,1.34-.52,2.77-1a13.18,13.18,0,0,1,4-.7,5.39,5.39,0,0,1,4.18,1.63A6,6,0,0,1,479.12,69c0,1.36,0,2.42,0,3.19s0,1.46,0,2.07c0,1.12,0,2.47,0,4S479.12,81.05,479.12,81.76Z"/><path d="M497.77,76,497,82c-.29,0-.67,0-1.14,0l-2.41,0q-5.11,0-7.73-1.8a5.87,5.87,0,0,1-2.61-5.16c0-1.47,0-2.57,0-3.3s0-1.4,0-2h-2.9V63.62h3v-5.4h8.67v5.4h5.68v6.15h-5.68c0,.28,0,.51,0,.68s0,.45,0,.81,0,.54,0,.89,0,.58,0,.71a3.08,3.08,0,0,0,.86,2.28c.58.57,2,.85,4.19.85h.79Z"/><circle class="cls-35" cx="1709" cy="83" r="3.5"/><circle class="cls-35" cx="1709" cy="241" r="3.5"/><circle class="cls-35" cx="1781" cy="122" r="4.5"/><circle class="cls-35" cx="1780" cy="201" r="3.5"/><circle class="cls-35" cx="1641" cy="204" r="3.5"/><circle class="cls-35" cx="1638" cy="123" r="3.5"/><circle class="cls-35" cx="1753" cy="95" r="3.5"/><circle class="cls-35" cx="1750" cy="230" r="3.5"/><circle class="cls-35" cx="1791" cy="161" r="3.5"/><circle class="cls-35" cx="1628" cy="165" r="3.5"/><circle class="cls-35" cx="1673" cy="232" r="3.5"/><circle class="cls-35" cx="1666" cy="95" r="3.5"/><circle class="cls-35" cx="1709" cy="83" r="4.5"/><rect class="cls-36" x="1707.5" y="102.5" width="5" height="55" rx="1.5"/><rect class="cls-36" x="1684.32" y="131.5" width="4.33" height="47.59" rx="1.5" transform="translate(1920.05 -1522.14) rotate(92.67)"/><circle class="cls-35" cx="1710" cy="156" r="4.5"/><circle class="cls-35" cx="1709" cy="241" r="4.5"/><circle class="cls-35" cx="1638" cy="123" r="4.5"/><circle class="cls-35" cx="1641" cy="204" r="4.5"/><circle class="cls-35" cx="1780" cy="201" r="4.5"/><path class="cls-36" d="M70.06,1045.08l-3.77-2a6.61,6.61,0,0,0-8.69,2.3l-2.29,3.6a6.63,6.63,0,0,1-12.1-2.33l-.79-4.19a6.61,6.61,0,0,0-7.21-5.36l-4.24.45a6.62,6.62,0,0,1-5.73-10.91l2.79-3.23a6.61,6.61,0,0,0-.31-9l-3-3a6.63,6.63,0,0,1,5-11.28l4.27.17a6.64,6.64,0,0,0,6.83-5.85l.5-4.23a6.62,6.62,0,0,1,11.91-3.16l2.53,3.44a6.62,6.62,0,0,0,8.82,1.7L68.17,990a6.61,6.61,0,0,1,9.88,7.34l-1.1,4.12a6.62,6.62,0,0,0,4.17,8l4,1.43a6.62,6.62,0,0,1,.42,12.31l-3.91,1.71A6.62,6.62,0,0,0,78,1033l1.39,4A6.62,6.62,0,0,1,70.06,1045.08Z"/><circle class="cls-3" cx="56.5" cy="1018.5" r="11"/></svg>
