<svg xmlns="http://www.w3.org/2000/svg" xmlns:xlink="http://www.w3.org/1999/xlink" width="1920" height="1080" viewBox="0 0 1920 1080"><defs><style>.cls-1{isolation:isolate;}.cls-2{fill:url(#radial-gradient);}.cls-3,.cls-6,.cls-8{fill:#fff;}.cls-3{opacity:0.94;}.cls-4{fill:#3f9aff;}.cls-5{fill:#629aff;}.cls-6,.cls-7{opacity:0.1;}.cls-9{opacity:0.15;}.cls-10,.cls-16,.cls-32,.cls-34{fill:none;}.cls-11{fill:#009245;}.cls-12{fill:#f7931e;}.cls-13{fill:#fbb03b;}.cls-14{fill:red;}.cls-15{fill:#006837;}.cls-16{stroke:#b3e021;}.cls-16,.cls-32,.cls-34{stroke-miterlimit:10;}.cls-17{fill:#eaeaea;}.cls-18{fill:#ed1c24;}.cls-19{fill:url(#radial-gradient-2);}.cls-20{fill:url(#radial-gradient-3);}.cls-21{fill:url(#radial-gradient-4);}.cls-22{opacity:0.78;mix-blend-mode:multiply;}.cls-23{fill:url(#radial-gradient-5);}.cls-24{fill:url(#radial-gradient-6);}.cls-25{fill:#3f9df4;}.cls-26{fill:url(#linear-gradient);}.cls-27{fill:url(#linear-gradient-2);}.cls-28{fill:url(#linear-gradient-3);}.cls-29{fill:url(#linear-gradient-4);}.cls-30{fill:url(#linear-gradient-5);}.cls-31{fill:#0071bc;}.cls-32{stroke:#666;}.cls-33{fill:#050505;}.cls-34{stroke:#000;stroke-width:3px;}.cls-35{fill:#999;}.cls-36{fill:#b57c47;}.cls-37{fill:#a56c34;}.cls-38{fill:#c1272d;}</style><radialGradient id="radial-gradient" cx="906.84" cy="3.72" r="1328.28" gradientTransform="translate(-0.66)" gradientUnits="userSpaceOnUse"><stop offset="0" stop-color="#60bfe8"/><stop offset="0.1" stop-color="#70c5eb"/><stop offset="0.37" stop-color="#97d3f4"/><stop offset="0.62" stop-color="#b4ddfa"/><stop offset="0.84" stop-color="#c5e4fe"/><stop offset="1" stop-color="#cbe6ff"/></radialGradient><radialGradient id="radial-gradient-2" cx="961.96" cy="823.66" r="20.87" gradientTransform="matrix(0, 1.2, -1.14, 0, 2040.46, -361.1)" gradientUnits="userSpaceOnUse"><stop offset="0" stop-color="#fff"/><stop offset="0.06" stop-color="#e3f4fb"/><stop offset="0.19" stop-color="#b2e1f5"/><stop offset="0.32" stop-color="#88d0ef"/><stop offset="0.45" stop-color="#66c3ea"/><stop offset="0.58" stop-color="#4bb8e7"/><stop offset="0.72" stop-color="#38b1e4"/><stop offset="0.85" stop-color="#2dace3"/><stop offset="1" stop-color="#29abe2"/></radialGradient><radialGradient id="radial-gradient-3" cx="953.61" cy="753.76" r="20.87" gradientTransform="matrix(0, 1.2, -1.14, 0, 1974.12, -430.08)" xlink:href="#radial-gradient-2"/><radialGradient id="radial-gradient-4" cx="941.09" cy="867.48" r="12.52" gradientTransform="matrix(0, 1.2, -1.14, 0, 2051.97, -295.46)" xlink:href="#radial-gradient-2"/><radialGradient id="radial-gradient-5" cx="815.41" cy="717.83" r="206.06" gradientTransform="matrix(0, 1.16, -1.08, 0, 1794.19, -548.44)" gradientUnits="userSpaceOnUse"><stop offset="0" stop-color="#cbe6ff"/><stop offset="0.01" stop-color="#b6dffa"/><stop offset="0.04" stop-color="#9bd5f5"/><stop offset="0.07" stop-color="#85cdf0"/><stop offset="0.1" stop-color="#74c7ec"/><stop offset="0.14" stop-color="#69c3ea"/><stop offset="0.19" stop-color="#62c1e8"/><stop offset="0.34" stop-color="#60c0e8"/></radialGradient><radialGradient id="radial-gradient-6" cx="932.74" cy="702.64" r="20.87" gradientTransform="matrix(0, 1.2, -1.14, 0, 1908.59, -467.84)" xlink:href="#radial-gradient-2"/><linearGradient id="linear-gradient" x1="230.8" y1="138.84" x2="247.39" y2="138.84" gradientTransform="translate(1315.94 399.93) rotate(-21.03)" gradientUnits="userSpaceOnUse"><stop offset="0" stop-color="#fff"/><stop offset="0.57" stop-color="#fff"/><stop offset="0.87" stop-color="red"/><stop offset="0.99" stop-color="red"/></linearGradient><linearGradient id="linear-gradient-2" x1="247.37" y1="142.55" x2="263.95" y2="142.55" xlink:href="#linear-gradient"/><linearGradient id="linear-gradient-3" x1="263.77" y1="146.75" x2="280.35" y2="146.75" xlink:href="#linear-gradient"/><linearGradient id="linear-gradient-4" x1="-877.78" y1="-89.96" x2="-861.19" y2="-89.96" gradientTransform="translate(2427.73 57.11) rotate(-31.47)" xlink:href="#linear-gradient"/><linearGradient id="linear-gradient-5" x1="6206.77" y1="-12688" x2="6223.95" y2="-12688" gradientTransform="matrix(-0.48, 0.63, -0.64, -0.48, -3549.24, -9553.7)" xlink:href="#linear-gradient"/></defs><title>Artboard 12</title><g class="cls-1"><g id="Layer_1" data-name="Layer 1"><rect class="cls-2" x="16.28" y="-4.2" width="1913.7" height="1080"/><path class="cls-3" d="M1819.11,94.27l-2.68-8.09c-10.49-31.54-31.64-51.18-55.42-59a77,77,0,0,0-48,0c-24,7.85-45.33,27.78-55.7,59.73l-9.06,28c-26.47,81.69-125.82,85.59-157.1,6.15l-26.67-67.74a102.27,102.27,0,0,0-14.82-26.11c-33.18-42-92.38-41.51-125.28,0a101.9,101.9,0,0,0-16.29,30.14L1282,132.55c-13.13,37.74-42,58.32-72,61.09v2.67c-26.42-6-50.54-26.18-62.11-59.77L1132,90c-14.23-41.34-46.59-61.72-78.93-61.73-34,0-68,22.52-80.79,66.93-24.11,83.56-124.6,90.7-157.46,11.18L795.69,60.22a97.92,97.92,0,0,0-21.86-33c-31.4-30.63-78.82-30-109.83,0C653.07,37.77,644.18,52,638.74,69.72L622.36,123.2C597.8,203.35,502,211.73,467.21,136.79L427,50.25a101.39,101.39,0,0,0-14.6-23c-33.26-39.07-88.73-37.29-120.87,0-9.38,10.86-16.76,24.74-21,41.5l-6,23.45c-21.83,85.36-123.6,95.43-157.8,15.59L79.12,43.55A105.55,105.55,0,0,0,70.4,27.22H-3V332.46l97.05,0h14l149.75,0h10.11l166.53,0H455.2l170.82,0h10l167.23,0h24.21l138.81,0h12.13l148.95,0h11.89l70.82,0v4.34l77.83,0h11.3l177,.05H1489l159,0h10.62l156.71,0h13.5l99.85,0V150.9C1888.12,168.09,1837.4,149.3,1819.11,94.27Z"/><path class="cls-4" d="M1822.88,157.24l-2.68-8.07c-28-84.12-131.71-83.6-159.07.76l-9.06,28c-26.47,81.7-125.82,85.61-157.09,6.16l-26.67-67.74c-30.88-78.45-128.61-75.94-156.4,4l-26.1,75.2c-13.14,37.74-42,58.32-72,61.09v2.67c-26.41-6-50.53-26.17-62.1-59.77l-16-46.55c-14.23-41.35-46.59-61.73-78.92-61.74-34,0-68,22.53-80.81,66.94-24.1,83.56-124.59,90.7-157.46,11.19L799.46,123.2c-32.55-78.71-131.77-72.71-156.94,9.5l-16.39,53.48C601.58,266.33,505.81,274.72,471,199.76l-40.24-86.52C394.91,36.11,295.66,47.81,274.22,131.7l-6,23.45c-21.82,85.36-123.58,95.44-157.79,15.6L82.89,106.52C65.48,65.93,30.21,48.37-3,52.65V395.44l132.88,0,106,0,165.06,0,68.62,0h27.78l89.61,0h28l224,.06H861l83.08,0,205.76,0h64v4.35h62.5l228.79,0,127,0h0l226.76.05h0c-17.18-10.16-31.69-27.45-39.82-51.89l-2.69-8.08c-.34-1-.67-2-1-3h13.5l99.85,0V215.37C1888.81,229.88,1840.61,210.59,1822.88,157.24Z"/><path class="cls-5" d="M1928.67,400.26V269.65c-39.87,14.52-88.06-4.76-105.8-58.11l-2.68-8.08c-28-84.12-131.71-83.6-159.07.76l-9.06,28c-26.47,81.69-125.82,85.59-157.09,6.15L1468.3,170.6c-30.88-78.45-128.61-75.93-156.4,4l-26.1,75.2c-13.14,37.73-42,58.31-72,61.08v2.67c-26.41-6-50.53-26.18-62.1-59.77l-16-46.54c-14.23-41.36-46.59-61.73-78.92-61.74-34,0-68,22.52-80.81,66.93-24.1,83.55-124.59,90.7-157.46,11.18l-19.08-46.15c-32.55-78.7-131.77-72.71-156.94,9.5l-16.39,53.49c-.32,1.05-.66,2.08-1,3.11-22,65.24-92.29,80.51-134.31,39.09A97.55,97.55,0,0,1,471,254.05l-40.24-86.52C394.9,90.4,295.65,102.11,274.21,186l-6,23.45C246.39,294.8,144.63,304.87,110.42,225L82.88,160.81C65.48,120.22,30.21,102.66-3,106.94V449.73l396.09.1,475.68.11,339.71.09h5.34v4.34l714.87.18V405a80,80,0,0,0,9.33-4.71Z"/><path class="cls-4" d="M-329.56,541.82c-1.54-.83-3.08-.94-4.63-1.69a7,7,0,0,1-2-1.47l-1.61-3.08a2,2,0,0,0-.06-1,1.9,1.9,0,0,0,2.32,1.26,1.83,1.83,0,0,0,1.09-2.37,1.88,1.88,0,0,0,2.32,1.26,1.82,1.82,0,0,0,1.1-2.36,1.88,1.88,0,0,0,2.31,1.27,1.84,1.84,0,0,0,1.11-2.37,1.55,1.55,0,0,0-.14-.29h0a1.87,1.87,0,0,0-2.19-1,1.82,1.82,0,0,0-1.17,2.06l-.05,0a1.88,1.88,0,0,0-2.2-1,1.81,1.81,0,0,0-1.17,2.06h0a1.86,1.86,0,0,0-2.2-1,1.81,1.81,0,0,0-1.17,2l0,0a1.84,1.84,0,0,0-2.46-.86,1.83,1.83,0,0,0-.91,2l-.05,0a1.83,1.83,0,0,0-2.45-.86,1.81,1.81,0,0,0-.91,1.93l-.05,0a1.83,1.83,0,0,0-2.46-.86,1.84,1.84,0,0,0-.91,1.95h0a1.83,1.83,0,0,0-2.45-.85,1.8,1.8,0,0,0-.91,1.94l-.05,0a1.83,1.83,0,0,0-2.45-.86,1.81,1.81,0,0,0-.91,1.94h0a1.84,1.84,0,0,0-2.46-.85,1.81,1.81,0,0,0-.91,1.94l-.05,0a1.84,1.84,0,0,0-2.46-.86,1.83,1.83,0,0,0-.91,2h-.05a1.86,1.86,0,0,0-1.91-1,1.76,1.76,0,0,0-1.45,2.11l-.06,0a1.91,1.91,0,0,0-1.91-1,1.81,1.81,0,0,0-1.45,2.13h-.06a1.85,1.85,0,0,0-1.91-1,1.77,1.77,0,0,0-1.44,2.11l-.06,0a1.88,1.88,0,0,0-1.91-1,1.76,1.76,0,0,0-1.44,2.11l-.06,0a1.89,1.89,0,0,0-1.91-1,1.79,1.79,0,0,0-1.45,2.12l-.06,0a1.87,1.87,0,0,0-1.91-1,1.79,1.79,0,0,0-1.45,2.11l-.05,0a1.89,1.89,0,0,0-1.91-1,1.78,1.78,0,0,0-1.45,2.12h-.06a1.85,1.85,0,0,0-2.18-1,1.8,1.8,0,0,0-1.19,2l0,0a1.85,1.85,0,0,0-2.19-1,1.79,1.79,0,0,0-1.17,2.05l-.05,0a1.88,1.88,0,0,0-2.2-1A1.81,1.81,0,0,0-396,553c0,.1.05.2.08.31a2.11,2.11,0,0,0,.33.61h73.45C-323.41,548.88-326.1,543.7-329.56,541.82ZM1928.67,400.26V372.39c-34.73,14.75-76.94,3.09-99.85-35.14a108.46,108.46,0,0,1-9.76-21.47l-2.68-8.09c-28-84.11-131.7-83.6-159.06.77l-9.06,28c-.08.26-.17.53-.27.78-26.84,80.93-125.66,84.56-156.83,5.37l-2.12-5.41-24.55-62.34c-30.87-78.44-128.6-75.92-156.39,4l-20.23,58.25L1282,354.06c-7.09,20.39-18.77,35.76-32.73,46A78.38,78.38,0,0,1,1210,415.15v2.67a80.15,80.15,0,0,1-39.25-22.1c-9.6-9.69-17.54-22.26-22.85-37.68l-8.7-25.3-7.3-21.24c-14.23-41.35-46.59-61.72-78.93-61.73-34,0-68,22.52-80.79,66.93a111.08,111.08,0,0,1-6,16c-22.58,48.79-74.83,63.23-113.91,40.28h0c-14.29-8.4-26.81-21.78-35.49-40.32q-1.08-2.34-2.1-4.78l-6.88-16.61h0l-12.21-29.53c-24.86-60.12-88.65-70.82-128.6-35.86-12.34,10.8-22.41,26-28.35,45.36L626,332.61l-3.7,12.1c-7,22.91-19.86,40-35.43,50.87-27,18.94-62.27,19.4-89.61,0-12-8.54-22.52-20.92-30.11-37.26l-12-25.73L448,317.14l-21.1-45.38c-35.84-77.12-135.08-65.42-156.51,18.47l-6,23.45a111.33,111.33,0,0,1-6.61,18.84c-30.44,66.55-117.07,70.18-149.75,0-.49-1.05-1-2.13-1.44-3.22L79.08,265.06C62.34,226,29.07,208.27-3,210.79V554l193.84,0h.33l236.71.06h0l406,.1h0l376.12.09v4.34l718.67.18V405a80,80,0,0,0,9.33-4.71Z"/><path class="cls-5" d="M-342.17,559.41l-2.9-5.51h6.91a29.15,29.15,0,0,1,2,5.52c.06.22.12.46.17.68,1.15,4.9,1.3,9.72,1.85,14.59ZM0,554V243.37c32.08-2.52,65.35,15.21,82.09,54.25l15,34.86,12.58,29.38a97.19,97.19,0,0,0,23.25,33.61h0c30.84,28.31,75.66,27.38,105.93,0h0c12.94-11.69,23.19-28.17,28.6-49.25l3.5-13.72,2.48-9.74c21.44-83.88,120.69-95.57,156.53-18.46l11.09,23.87,2,4.37,27.11,58.3c.75,1.6,1.53,3.17,2.34,4.69,9.61,18.4,23.1,31.26,38.18,38.82,37.39,18.76,84.62,4.81,107.19-38.78h0a109,109,0,0,0,7.43-18.3L639,332.62l2.69-8.81c13.42-43.82,47.87-66,82.06-65.21,22.16.49,44.18,10.64,60.31,30.75h0a102.11,102.11,0,0,1,14.57,24.95l7.58,18.35,11.49,27.81c6.06,14.65,14.41,26.36,24.17,35.18h0a79.66,79.66,0,0,0,26.16,15.89c26.53,9.7,56.61,4.15,79-15.87h0c12.39-11,22.41-26.58,28.13-46.4a111,111,0,0,1,6.19-16.57c15.67-33.44,45.13-50.37,74.62-50.36,29.21,0,58.48,16.65,74.33,50.4a110.38,110.38,0,0,1,4.59,11.34l16,46.54c.61,1.74,1.23,3.43,1.91,5.09h0c11.9,29.9,34.18,48.19,58.61,54.3h0c.52.15,1,.25,1.54.38v-2.68c26.26-2.44,51.55-18.44,66.31-47.63h0a112.35,112.35,0,0,0,5.68-13.46l17.17-49.5h0l8.93-25.69c27.79-80,125.51-82.46,156.4-4l11.72,29.75,14.94,38a103.27,103.27,0,0,0,13.94,25c33.36,43.58,94.13,42.85,127,0h0A102.54,102.54,0,0,0,1651.29,369l9.06-28c.42-1.29.86-2.58,1.3-3.82h0c28.86-79.56,127.74-79.77,156.71,0h0c.37,1,.7,2,1.05,3l2.69,8.08c8.12,24.44,22.63,41.73,39.82,51.89h0A77.1,77.1,0,0,0,1931.7,405V591.36L1213,591.19v-4.35l-404.92-.1-348.41-.08L0,586.55V554l-319.09-.07c.06.22.12.46.17.68a43.33,43.33,0,0,1,.86,4.83c.44,3.25.62,6.49,1,9.75l6.32,12a7.37,7.37,0,0,1,.87.48,12.31,12.31,0,0,1,3.86,4.8h-69.28a98.64,98.64,0,0,1-6.55-11.38c-2.21-4.91-3.39-11-1.68-14.69a7.22,7.22,0,0,1,.57-1,31.77,31.77,0,0,0,2.11-3,7,7,0,0,0,.69-2.32l0-.12h-9.49a1.59,1.59,0,0,1-.86.64,1.81,1.81,0,0,1-2-.64h0a1.92,1.92,0,0,1-.34-.61c0-.11-.06-.21-.08-.31a1.82,1.82,0,0,1,1.17-2.05,1.88,1.88,0,0,1,2.2,1l.05,0a1.8,1.8,0,0,1,1.17-2.05,1.87,1.87,0,0,1,2.2,1l0,0a1.79,1.79,0,0,1,1.18-2,1.87,1.87,0,0,1,2.19,1h.06a1.77,1.77,0,0,1,1.44-2.12,1.89,1.89,0,0,1,1.91,1l.06,0a1.77,1.77,0,0,1,1.44-2.11,1.86,1.86,0,0,1,1.91,1l.06,0a1.79,1.79,0,0,1,1.45-2.12,1.86,1.86,0,0,1,1.91,1l.06,0a1.77,1.77,0,0,1,1.45-2.11,1.86,1.86,0,0,1,1.9,1l.06,0a1.79,1.79,0,0,1,1.45-2.11,1.86,1.86,0,0,1,1.91,1h.06a1.8,1.8,0,0,1,1.44-2.13,1.93,1.93,0,0,1,1.92,1l.06,0a1.75,1.75,0,0,1,1.44-2.11,1.86,1.86,0,0,1,1.91,1h.06a1.81,1.81,0,0,1,.91-2,1.82,1.82,0,0,1,2.45.86l.05,0a1.82,1.82,0,0,1,.91-1.94,1.84,1.84,0,0,1,2.46.85h.05a1.81,1.81,0,0,1,.91-1.94,1.83,1.83,0,0,1,2.45.86l0,0a1.81,1.81,0,0,1,.91-1.94,1.84,1.84,0,0,1,2.46.85h.05a1.83,1.83,0,0,1,.91-1.95,1.84,1.84,0,0,1,2.46.86l.05,0a1.79,1.79,0,0,1,.91-1.93,1.82,1.82,0,0,1,2.44.86l.06,0a1.82,1.82,0,0,1,.91-2,1.82,1.82,0,0,1,2.45.86l.05,0a1.82,1.82,0,0,1,1.18-2,1.85,1.85,0,0,1,2.19,1h0a1.82,1.82,0,0,1,1.17-2.06,1.88,1.88,0,0,1,2.2,1l.05,0a1.83,1.83,0,0,1,1.17-2.06,1.89,1.89,0,0,1,2.2,1h0a1.08,1.08,0,0,1,.13.29,1.84,1.84,0,0,1-1.1,2.37,1.89,1.89,0,0,1-2.32-1.27,1.83,1.83,0,0,1-1.09,2.36,1.89,1.89,0,0,1-2.33-1.26,1.82,1.82,0,0,1-1.09,2.37,1.9,1.9,0,0,1-2.32-1.26,1.88,1.88,0,0,1,.07,1l1.6,3.08a7.06,7.06,0,0,0,2,1.47c1.54.75,3.08.86,4.63,1.69,3.46,1.88,6.15,7.07,7.44,12.08Z"/><path class="cls-5" d="M1930,548.65v529.41H0V548.19l193.67,0H194l236.5.06h0l405.65.1h0l375.78.1Z"/><path class="cls-6" d="M1926.77,786.75V881.6q-141.36-3.75-282.75-6.35-516.4-9.51-1033.07-3.73-96.11,1.1-192.22,2.69-17.14.28-34.28.59-51.45.91-102.89,2-51.08,1-102.14,2.25-14.1.33-28.2.68-65.48,1.59-130.95,3.42V836.39q48.57.35,98.68.4,20.13,0,39.82,0h9.76q69.42-.18,133.87-1,37.74-.43,74-1.07h0q16.61-.29,32.91-.6c73-1.44,141.82-3.37,207.71-5.63l13.36-.46c60.42-2.15,118.43-4.55,175.08-7.06h0l9.38-.42c2.07-.11,4.16-.2,6.23-.28,3.49-.16,7-.31,10.44-.48l34.4-1.6c124.2-5.79,243.53-12,369.44-17.11C1426,793.36,1657.86,787.11,1926.77,786.75Z"/><path class="cls-6" d="M1907.78,512V615.5Q1345.09,592.55,783.22,596q-145.85.9-291.64,3.59-7.86.14-15.71.3h0q-15.33.27-30.64.6h0c-1.39,0-2.77,0-4.17.08l-4,.09s0,0,0,0c-5.23.09-10.46.21-15.69.32q-82.41,1.74-164.79,4.07-127.62,3.58-255.22,8.57V553.89c67-.87,130.57-2,191.31-3.26h.33c81.15-1.74,157.21-3.81,229.43-6.08q35.53-1.12,69.88-2.31c124.82-4.28,238.68-9.1,348.77-13.7h0c269.44-11.3,516.22-21.38,845.39-19.55C1750.54,509.36,1824.63,510.21,1907.78,512Z"/><g class="cls-7"><ellipse class="cls-8" cx="697.54" cy="773.91" rx="81.09" ry="31.53"/><polygon class="cls-8" points="771.42 771.87 818.37 736.38 820.78 802.38 771.42 771.87"/></g><g class="cls-7"><ellipse class="cls-8" cx="387.15" cy="715.25" rx="78.44" ry="30.5"/><polygon class="cls-8" points="458.61 713.27 504.03 678.94 506.37 742.78 458.61 713.27"/></g><g class="cls-7"><ellipse class="cls-8" cx="409.92" cy="957.35" rx="76.85" ry="29.88"/><polygon class="cls-8" points="479.93 955.41 524.42 921.78 526.71 984.33 479.93 955.41"/></g><path class="cls-6" d="M1909.71,785v98.18q-141.63-3.89-283.27-6.57-517.37-9.84-1035-3.86-96.29,1.13-192.57,2.78l-34.35.61q-51.54.95-103.08,2-51.17,1.08-102.32,2.33l-28.25.7Q65.31,882.81-.29,884.71V836.33q48.65.36,98.86.42,20.16,0,39.89,0l9.78,0q69.54-.18,134.11-1,37.81-.45,74.13-1.11h0q16.63-.29,33-.62c73.15-1.49,142.08-3.49,208.09-5.83l13.39-.47c60.53-2.23,118.64-4.71,175.4-7.31h0l9.39-.44c2.08-.11,4.17-.2,6.25-.28l10.45-.5,34.47-1.66c124.43-6,244-12.42,370.12-17.71C1408,791.79,1640.3,785.32,1909.71,785Z"/><path class="cls-6" d="M1914.71,498.39V605.53Q1351,581.77,788.09,585.38q-146.12.93-292.18,3.71l-15.74.31h0q-15.36.29-30.7.63h0c-1.39,0-2.77,0-4.17.08l-4,.09h0c-5.24.1-10.48.22-15.72.33q-82.56,1.8-165.09,4.22-127.86,3.71-255.69,8.87V541.76c67.1-.9,130.81-2,191.66-3.38h.33c81.3-1.8,157.5-3.94,229.85-6.29q35.61-1.17,70-2.39c125.05-4.43,239.12-9.42,349.41-14.19h0c269.94-11.69,517.17-22.13,846.94-20.23C1757.18,495.66,1831.41,496.54,1914.71,498.39Z"/><g class="cls-9"><path class="cls-8" d="M1294.33,935.17c-6.76-24.28-27.36-38-46-30.72s-28.28,32.92-21.53,57.2Z"/><ellipse class="cls-8" cx="1228.58" cy="961.35" rx="1.79" ry="2.28" transform="translate(-91.9 130.73) rotate(-5.87)"/><ellipse class="cls-8" cx="1231.96" cy="960.03" rx="1.79" ry="2.28" transform="translate(-91.75 131.07) rotate(-5.87)"/><ellipse class="cls-8" cx="1235.34" cy="958.7" rx="1.79" ry="2.28" transform="translate(-91.6 131.41) rotate(-5.87)"/><ellipse class="cls-8" cx="1238.71" cy="957.38" rx="1.79" ry="2.28" transform="translate(-91.44 131.75) rotate(-5.87)"/><ellipse class="cls-8" cx="1242.09" cy="956.05" rx="1.79" ry="2.28" transform="translate(-91.29 132.09) rotate(-5.87)"/><ellipse class="cls-8" cx="1245.47" cy="954.73" rx="1.79" ry="2.28" transform="translate(-91.14 132.42) rotate(-5.87)"/><ellipse class="cls-8" cx="1248.84" cy="953.41" rx="1.79" ry="2.28" transform="translate(-90.98 132.76) rotate(-5.87)"/><ellipse class="cls-8" cx="1252.22" cy="952.08" rx="1.79" ry="2.28" transform="translate(-90.83 133.1) rotate(-5.87)"/><ellipse class="cls-8" cx="1255.6" cy="950.76" rx="1.79" ry="2.28" transform="translate(-90.68 133.44) rotate(-5.87)"/><ellipse class="cls-8" cx="1258.97" cy="949.43" rx="1.79" ry="2.28" transform="translate(-90.52 133.78) rotate(-5.87)"/><ellipse class="cls-8" cx="1292.74" cy="936.19" rx="1.79" ry="2.28" transform="translate(-88.99 137.16) rotate(-5.87)"/><ellipse class="cls-8" cx="1289.36" cy="937.52" rx="1.79" ry="2.28" transform="translate(-89.15 136.82) rotate(-5.87)"/><ellipse class="cls-8" cx="1285.99" cy="938.84" rx="1.79" ry="2.28" transform="translate(-89.3 136.49) rotate(-5.87)"/><ellipse class="cls-8" cx="1282.61" cy="940.17" rx="1.79" ry="2.28" transform="translate(-89.45 136.15) rotate(-5.87)"/><ellipse class="cls-8" cx="1279.23" cy="941.49" rx="1.79" ry="2.28" transform="translate(-89.61 135.81) rotate(-5.87)"/><ellipse class="cls-8" cx="1275.86" cy="942.81" rx="1.79" ry="2.28" transform="translate(-89.76 135.47) rotate(-5.87)"/><ellipse class="cls-8" cx="1272.48" cy="944.14" rx="1.79" ry="2.28" transform="translate(-89.91 135.13) rotate(-5.87)"/><ellipse class="cls-8" cx="1269.1" cy="945.46" rx="1.79" ry="2.28" transform="translate(-90.06 134.79) rotate(-5.87)"/><ellipse class="cls-8" cx="1265.73" cy="946.79" rx="1.79" ry="2.28" transform="translate(-90.22 134.45) rotate(-5.87)"/><ellipse class="cls-8" cx="1262.35" cy="948.11" rx="1.79" ry="2.28" transform="translate(-90.37 134.12) rotate(-5.87)"/><path class="cls-8" d="M1238.85,958.59a9.71,9.71,0,0,1-.07,7.1c-.78,1.8-1.94,3-2.66,4.86-1.69,4.44-.52,11.78,1.66,17.67s5.21,10.91,7.82,16.38c1.74,3.65,3.42,8.31,2.81,11.88a36,36,0,0,1-1.46,4.22c-1.51,5.14.91,12.89,3.21,19.22Z"/><path class="cls-8" d="M1250.42,952.47c-3.24,3.82-4.79,9.83-4,15.55a9,9,0,0,0,.7,2.7,7.15,7.15,0,0,0,2.4,2.69c3,2.17,6.54,2.84,9.68,4.71s6.13,5.71,5.77,10c-.35,4-3.58,7-3.59,11.06a9.4,9.4,0,0,0,2.63,6.24,19.23,19.23,0,0,0,5,3.54Z"/><path class="cls-8" d="M1250.65,952.94a9.71,9.71,0,0,1-.07,7.1c-.78,1.8-1.94,3-2.66,4.86-1.69,4.44-.52,11.77,1.66,17.67s5.21,10.91,7.82,16.38c1.74,3.65,3.42,8.31,2.8,11.87a33.7,33.7,0,0,1-1.45,4.22c-1.51,5.15.91,12.89,3.21,19.23Z"/><path class="cls-8" d="M1257.41,950.29a9.7,9.7,0,0,1-.08,7.1c-.77,1.8-1.94,3-2.65,4.86-1.7,4.44-.52,11.78,1.65,17.67s5.21,10.91,7.82,16.38c1.75,3.65,3.42,8.31,2.81,11.88a34.28,34.28,0,0,1-1.46,4.22c-1.51,5.14.91,12.89,3.21,19.22Z"/><path class="cls-8" d="M1284.28,940.56a8.2,8.2,0,0,0,3.63,5.65c1.52.9,3,1,4.57,2,3.58,2.36,6.32,9.09,7.54,15.36s1.29,12.44,1.94,18.68c.43,4.17,1.42,9.1,3.7,11.52,1.06,1.12,2.2,1.49,3.29,2.37,3.8,3.06,5.74,11,7.07,17.71Z"/><path class="cls-8" d="M1274,943.8a8.22,8.22,0,0,0,3.63,5.66c1.52.89,3.05,1,4.57,2,3.58,2.37,6.32,9.09,7.53,15.36s1.3,12.45,1.94,18.69c.44,4.16,1.43,9.1,3.71,11.52,1.05,1.12,2.2,1.48,3.29,2.36,3.8,3.06,5.74,11,7.07,17.71Z"/><path class="cls-8" d="M1267.4,947.18a8.23,8.23,0,0,0,3.62,5.65c1.53.9,3,1,4.57,2,3.59,2.36,6.33,9.09,7.54,15.36s1.29,12.44,1.94,18.68c.43,4.17,1.43,9.1,3.71,11.52,1,1.12,2.2,1.49,3.29,2.37,3.8,3.06,5.74,11,7.07,17.71Z"/><path class="cls-8" d="M1260.86,949.38c3.42,5.88-.32,14.35,2.12,20.92a16.52,16.52,0,0,0,3.26,5.08c4.91,5.63,11.29,10.69,12.55,18.8a53.54,53.54,0,0,1,.25,7.6,48.29,48.29,0,0,0,6.8,24.35Z"/></g><g class="cls-9"><path class="cls-8" d="M1218.07,676.7c-6.75-24.27-27.35-38-46-30.71s-28.29,32.92-21.53,57.19Z"/><ellipse class="cls-8" cx="1152.33" cy="702.88" rx="1.79" ry="2.28" transform="translate(-65.86 121.57) rotate(-5.87)"/><ellipse class="cls-8" cx="1155.71" cy="701.56" rx="1.79" ry="2.28" transform="translate(-65.71 121.91) rotate(-5.87)"/><ellipse class="cls-8" cx="1159.08" cy="700.24" rx="1.79" ry="2.28" transform="translate(-65.55 122.25) rotate(-5.87)"/><ellipse class="cls-8" cx="1162.46" cy="698.91" rx="1.79" ry="2.28" transform="translate(-65.4 122.59) rotate(-5.87)"/><ellipse class="cls-8" cx="1165.84" cy="697.59" rx="1.79" ry="2.28" transform="translate(-65.25 122.93) rotate(-5.87)"/><ellipse class="cls-8" cx="1169.21" cy="696.26" rx="1.79" ry="2.28" transform="translate(-65.1 123.27) rotate(-5.87)"/><ellipse class="cls-8" cx="1172.59" cy="694.94" rx="1.79" ry="2.28" transform="translate(-64.94 123.61) rotate(-5.87)"/><ellipse class="cls-8" cx="1175.97" cy="693.62" rx="1.79" ry="2.28" transform="translate(-64.79 123.94) rotate(-5.87)"/><ellipse class="cls-8" cx="1179.34" cy="692.29" rx="1.79" ry="2.28" transform="translate(-64.64 124.28) rotate(-5.87)"/><ellipse class="cls-8" cx="1182.72" cy="690.97" rx="1.79" ry="2.28" transform="translate(-64.48 124.62) rotate(-5.87)"/><ellipse class="cls-8" cx="1216.49" cy="677.73" rx="1.79" ry="2.28" transform="translate(-62.95 128.01) rotate(-5.87)"/><ellipse class="cls-8" cx="1213.11" cy="679.05" rx="1.79" ry="2.28" transform="translate(-63.1 127.67) rotate(-5.87)"/><ellipse class="cls-8" cx="1209.73" cy="680.38" rx="1.79" ry="2.28" transform="translate(-63.26 127.33) rotate(-5.87)"/><ellipse class="cls-8" cx="1206.36" cy="681.7" rx="1.79" ry="2.28" transform="translate(-63.41 126.99) rotate(-5.87)"/><ellipse class="cls-8" cx="1202.98" cy="683.03" rx="1.79" ry="2.28" transform="translate(-63.56 126.65) rotate(-5.87)"/><ellipse class="cls-8" cx="1199.6" cy="684.35" rx="1.79" ry="2.28" transform="translate(-63.72 126.31) rotate(-5.87)"/><ellipse class="cls-8" cx="1196.23" cy="685.67" rx="1.79" ry="2.28" transform="translate(-63.87 125.97) rotate(-5.87)"/><ellipse class="cls-8" cx="1192.85" cy="687" rx="1.79" ry="2.28" transform="translate(-64.02 125.64) rotate(-5.87)"/><ellipse class="cls-8" cx="1189.47" cy="688.32" rx="1.79" ry="2.28" transform="translate(-64.18 125.3) rotate(-5.87)"/><ellipse class="cls-8" cx="1186.1" cy="689.65" rx="1.79" ry="2.28" transform="translate(-64.33 124.96) rotate(-5.87)"/><path class="cls-8" d="M1162.6,700.13a9.65,9.65,0,0,1-.08,7.1c-.77,1.8-1.93,3-2.65,4.86-1.69,4.43-.52,11.77,1.66,17.67s5.2,10.9,7.82,16.37c1.74,3.65,3.42,8.32,2.8,11.88a34.26,34.26,0,0,1-1.45,4.22c-1.52,5.15.9,12.89,3.21,19.23Z"/><path class="cls-8" d="M1174.16,694c-3.24,3.83-4.79,9.83-4,15.56a9.43,9.43,0,0,0,.71,2.7,7.06,7.06,0,0,0,2.4,2.69c3,2.16,6.54,2.84,9.68,4.71s6.13,5.7,5.76,10c-.34,4.06-3.57,7-3.58,11.06a9.39,9.39,0,0,0,2.62,6.25,19.42,19.42,0,0,0,5,3.53Z"/><path class="cls-8" d="M1174.4,694.47a9.73,9.73,0,0,1-.08,7.11c-.77,1.8-1.93,3-2.65,4.86-1.69,4.43-.52,11.77,1.66,17.66s5.2,10.91,7.82,16.38c1.74,3.65,3.42,8.32,2.8,11.88a32.69,32.69,0,0,1-1.46,4.22c-1.51,5.14.91,12.89,3.22,19.22Z"/><path class="cls-8" d="M1181.15,691.83a9.71,9.71,0,0,1-.07,7.1c-.78,1.8-1.94,3-2.66,4.86-1.69,4.43-.52,11.77,1.66,17.67s5.21,10.9,7.82,16.37c1.74,3.65,3.42,8.32,2.8,11.88a34.26,34.26,0,0,1-1.45,4.22c-1.51,5.15.91,12.89,3.21,19.23Z"/><path class="cls-8" d="M1208,682.09a8.25,8.25,0,0,0,3.62,5.66c1.53.89,3,1,4.57,2,3.59,2.37,6.33,9.09,7.54,15.36s1.29,12.45,1.94,18.69c.43,4.16,1.43,9.09,3.71,11.52,1,1.12,2.2,1.48,3.29,2.36,3.8,3.06,5.74,11,7.07,17.71Z"/><path class="cls-8" d="M1197.7,685.34a8.23,8.23,0,0,0,3.62,5.65c1.53.9,3,1,4.57,2,3.59,2.36,6.33,9.09,7.54,15.36s1.29,12.44,1.94,18.68c.43,4.17,1.42,9.1,3.71,11.52,1.05,1.12,2.2,1.49,3.29,2.37,3.79,3.06,5.74,11,7.07,17.71Z"/><path class="cls-8" d="M1191.14,688.71a8.29,8.29,0,0,0,3.63,5.66c1.53.89,3,1,4.57,2,3.59,2.37,6.33,9.09,7.54,15.36s1.29,12.45,1.94,18.69c.43,4.16,1.42,9.09,3.71,11.52,1,1.12,2.2,1.48,3.29,2.36,3.79,3.06,5.74,11,7.07,17.71Z"/><path class="cls-8" d="M1184.61,690.92c3.42,5.87-.32,14.34,2.11,20.92a16.72,16.72,0,0,0,3.26,5.07c4.91,5.64,11.3,10.69,12.56,18.81a52.05,52.05,0,0,1,.24,7.6,48.27,48.27,0,0,0,6.81,24.34Z"/></g><g class="cls-7"><ellipse class="cls-8" cx="661.7" cy="933.65" rx="41.29" ry="16.05"/><polygon class="cls-8" points="699.32 932.61 723.23 914.54 724.46 948.14 699.32 932.61"/></g><g class="cls-9"><path class="cls-8" d="M150.76,952.7c-3.63-11.08-14.7-17.36-24.72-14s-15.2,15-11.57,26.11Z"/><ellipse class="cls-8" cx="115.43" cy="964.65" rx="0.96" ry="1.05" transform="translate(-272.4 73.88) rotate(-16.7)"/><ellipse class="cls-8" cx="117.25" cy="964.05" rx="0.96" ry="1.05" transform="translate(-272.15 74.38) rotate(-16.7)"/><ellipse class="cls-8" cx="119.06" cy="963.45" rx="0.96" ry="1.05" transform="translate(-271.89 74.88) rotate(-16.7)"/><ellipse class="cls-8" cx="120.88" cy="962.84" rx="0.96" ry="1.05" transform="translate(-271.64 75.37) rotate(-16.7)"/><ellipse class="cls-8" cx="122.69" cy="962.24" rx="0.96" ry="1.05" transform="translate(-271.39 75.87) rotate(-16.7)"/><ellipse class="cls-8" cx="124.51" cy="961.63" rx="0.96" ry="1.05" transform="translate(-271.14 76.36) rotate(-16.7)"/><ellipse class="cls-8" cx="126.32" cy="961.03" rx="0.96" ry="1.05" transform="translate(-270.89 76.86) rotate(-16.7)"/><ellipse class="cls-8" cx="128.13" cy="960.42" rx="0.96" ry="1.05" transform="translate(-270.64 77.36) rotate(-16.7)"/><ellipse class="cls-8" cx="129.95" cy="959.82" rx="0.96" ry="1.05" transform="translate(-270.39 77.85) rotate(-16.7)"/><ellipse class="cls-8" cx="131.76" cy="959.21" rx="0.96" ry="1.05" transform="translate(-270.14 78.35) rotate(-16.7)"/><ellipse class="cls-8" cx="149.91" cy="953.17" rx="0.96" ry="1.05" transform="translate(-267.64 83.31) rotate(-16.7)"/><ellipse class="cls-8" cx="148.09" cy="953.77" rx="0.96" ry="1.05" transform="translate(-267.89 82.81) rotate(-16.7)"/><ellipse class="cls-8" cx="146.28" cy="954.38" rx="0.96" ry="1.05" transform="translate(-268.14 82.32) rotate(-16.7)"/><ellipse class="cls-8" cx="144.46" cy="954.98" rx="0.96" ry="1.05" transform="translate(-268.39 81.82) rotate(-16.7)"/><ellipse class="cls-8" cx="142.65" cy="955.59" rx="0.96" ry="1.05" transform="translate(-268.64 81.32) rotate(-16.7)"/><ellipse class="cls-8" cx="140.84" cy="956.19" rx="0.96" ry="1.05" transform="matrix(0.96, -0.29, 0.29, 0.96, -268.89, 80.83)"/><ellipse class="cls-8" cx="139.02" cy="956.8" rx="0.96" ry="1.05" transform="translate(-269.14 80.33) rotate(-16.7)"/><ellipse class="cls-8" cx="137.21" cy="957.4" rx="0.96" ry="1.05" transform="translate(-269.39 79.84) rotate(-16.7)"/><ellipse class="cls-8" cx="135.39" cy="958" rx="0.96" ry="1.05" transform="translate(-269.64 79.34) rotate(-16.7)"/><ellipse class="cls-8" cx="133.58" cy="958.61" rx="0.96" ry="1.05" transform="translate(-269.89 78.84) rotate(-16.7)"/><path class="cls-8" d="M121,963.39a3.82,3.82,0,0,1,0,3.25c-.41.82-1,1.36-1.42,2.22-.91,2-.28,5.37.88,8.06a80,80,0,0,0,4.21,7.48c.93,1.67,1.84,3.8,1.5,5.42a12.75,12.75,0,0,1-.78,1.93c-.81,2.35.49,5.89,1.73,8.78Z"/><path class="cls-8" d="M127.17,960.6a8.33,8.33,0,0,0-2.16,7.1,3.68,3.68,0,0,0,.38,1.23,3.46,3.46,0,0,0,1.29,1.23c1.63,1,3.51,1.3,5.2,2.15s3.29,2.61,3.1,4.56-1.92,3.17-1.93,5a4,4,0,0,0,1.41,2.85,10.5,10.5,0,0,0,2.71,1.61Z"/><path class="cls-8" d="M127.29,960.81a3.82,3.82,0,0,1,0,3.25c-.41.82-1,1.36-1.42,2.22-.91,2-.28,5.37.89,8.06a78.93,78.93,0,0,0,4.2,7.48c.93,1.67,1.84,3.8,1.51,5.42a13.91,13.91,0,0,1-.79,1.93c-.81,2.35.49,5.88,1.73,8.78Z"/><path class="cls-8" d="M130.92,959.6a3.82,3.82,0,0,1,0,3.25c-.42.82-1,1.36-1.43,2.22-.91,2-.27,5.37.89,8.06a80,80,0,0,0,4.21,7.48c.93,1.67,1.84,3.8,1.5,5.42a13.89,13.89,0,0,1-.78,1.93c-.81,2.35.49,5.89,1.73,8.78Z"/><path class="cls-8" d="M145.36,955.16a3.77,3.77,0,0,0,1.95,2.58c.82.41,1.64.47,2.46.93,1.92,1.08,3.4,4.15,4,7a83.39,83.39,0,0,1,1,8.53c.23,1.9.77,4.16,2,5.26a13.75,13.75,0,0,0,1.77,1.08c2,1.4,3.08,5,3.8,8.09Z"/><path class="cls-8" d="M139.81,956.64a3.75,3.75,0,0,0,1.95,2.58c.82.41,1.64.47,2.46.93,1.92,1.08,3.39,4.15,4.05,7a83.39,83.39,0,0,1,1,8.53c.23,1.91.76,4.16,2,5.26a13.75,13.75,0,0,0,1.77,1.08c2,1.4,3.08,5,3.8,8.09Z"/><path class="cls-8" d="M136.29,958.18a3.75,3.75,0,0,0,2,2.58c.82.41,1.64.47,2.46.93,1.92,1.08,3.39,4.15,4.05,7a83.39,83.39,0,0,1,1,8.53c.23,1.91.76,4.16,2,5.26a13.75,13.75,0,0,0,1.77,1.08c2,1.4,3.08,5,3.8,8.09Z"/><path class="cls-8" d="M132.78,959.19c1.84,2.68-.17,6.55,1.14,9.55a7.52,7.52,0,0,0,1.75,2.32c2.63,2.57,6.07,4.88,6.74,8.59a20,20,0,0,1,.13,3.46,19.68,19.68,0,0,0,3.66,11.12Z"/></g><path class="cls-10" d="M924.53,930q5.6,5.91,11.18,11.84"/><path class="cls-11" d="M669.68,873c-12,27.59-10.36,25.79-13,30.8-16.58,30.93-46,38.7-47.55,39.08-6.54,1.6-24.2,5.61-42.89-5.92-2.68-1.66-29.24-18.6-31.71-47.38-1.61-18.83,7.84-34,5.6-35.53-2.06-1.38-10.06,11.49-14.92,21.32A104.81,104.81,0,0,0,520.5,886c-6.21,17.55-2.21,38.24,0,47.38-2.28-.4-5.48-.88-9.33-1.19a74.93,74.93,0,0,0-15.85,0,46.11,46.11,0,0,0-16.78,4.74c-8.35,4.29-13.39,10.16-16.78,14.21-3.77,4.49-6.23,7.43-5.6,9.48.91,3,7.38,1.22,20.51,1.18A104,104,0,0,1,495.32,963c9.13,1.59,15.89,4.59,24.25,8.29,6,2.66,10.26,5,18.64,9.48,13.08,7,13.9,8.19,19.58,10.66,1.76.76,8.49,3.6,22.38,5.92a184.46,184.46,0,0,0,35.43,2.37c23.89-.58,26.73-3.54,48.49-4.74,14.83-.82,12.54.62,44.76,1.19,28.6.5,28.83-.66,54.08,0,27.49.71,27.33,2.08,41,1.18a257.84,257.84,0,0,0,43.83-7.11c14.66-3.44,25.55-7.09,32.63-9.47,14.88-5,25-8.42,38.23-15.4A165.4,165.4,0,0,0,938,953.81c3-2.14,6.2-4.58,9.52-7.41,1.81-1.53,4.16-3.5,7.14-6.36a138.86,138.86,0,0,0,12.45-13.77l1.23-1.58c7.65-9.83,13.57-17.73,16.48-28,6.2-21.91-4-44.66-15.85-71.06C960.65,807,952.47,795.94,942.88,783c-6-8.13-10.56-13.36-14.38-16.9a35.5,35.5,0,0,0-9.86-6.78c-7.66-3.52-14.16-3.53-21.45-3.56-13.63,0-17,3.47-32.63,5.93-5.47.86-15.15,1-34.5,1.18-6.28.07-5.82,0-31.7,0-32.76,0-28,.07-35.43,0s-14.94.68-22.38,0c-8.53-.77-14.13-2.19-21.45,1.18a28.53,28.53,0,0,0-2.82,1.52,26.29,26.29,0,0,0-6.5,5.59c-3.68,4.44-5.16,9.1-6.53,13-4.82,13.81-5.79,11.44-11.19,26.05Z"/><path class="cls-12" d="M658.5,735.59c0,.23,0,.44,0,.66v0c0,.47.07.94.11,1.44,1.24,15,5,36.34,17.5,45.25,7.88,5.62,16.2,4.11,19.52,3.56,57-9.58,192.44-.16,218.47-3.56a66.59,66.59,0,0,1,11.23-.68c2,0,3.62.1,4,.13,1.45.09,3.09.25,5.27.55,8,1.12,12.32,3.08,18.59,1.19,5.58-1.68,9.64-5.51,12.09-8.29Q969,757.41,972.71,739c.22-1.13.46-2.26.68-3.39-.9-2-4.09-3.93-9.26-5.73l-305.36,5.72Z"/><path class="cls-13" d="M658.5,736.77a2.81,2.81,0,0,0,.16.94c3.81,10.68,72.83,19.2,157.41,19.2,81.18,0,148-7.84,156.64-17.92.22-1.13.46-2.26.68-3.39-.9-2-4.09-3.93-9.26-5.73-22-7.72-80-13.23-148.06-13.23-83.92,0-152.51,8.39-157.3,19a2.56,2.56,0,0,0-.22.66v0A2.12,2.12,0,0,0,658.5,736.77Z"/><path class="cls-12" d="M850.06,745.74c0-67.7-15.45-122.58-34.5-122.58s-34.5,54.88-34.5,122.58Z"/><ellipse class="cls-14" cx="841.25" cy="719.01" rx="6.53" ry="8.29"/><ellipse class="cls-15" cx="815.14" cy="719.01" rx="6.53" ry="8.29"/><ellipse class="cls-8" cx="789.97" cy="719.01" rx="6.53" ry="8.29"/><ellipse cx="910.34" cy="835.66" rx="11.19" ry="14.21"/><ellipse class="cls-8" cx="913.13" cy="829.73" rx="4.66" ry="5.92"/><path class="cls-16" d="M730.85,889c-4.9,0-8.86,5-8.86,11.25s4,11.25,8.86,11.25"/><path class="cls-16" d="M751,867.41c-4.9,0-8.86,5-8.86,11.25s4,11.26,8.86,11.26"/><path class="cls-16" d="M759.94,906.44c-4.89,0-8.85,5-8.85,11.25s4,11.25,8.85,11.25"/><path class="cls-16" d="M783.35,867.81c-4.89,0-8.85,5-8.85,11.25s4,11.25,8.85,11.25"/><path class="cls-16" d="M791.46,911c-4.89,0-8.86,5-8.86,11.25s4,11.25,8.86,11.25"/><path class="cls-16" d="M764.29,838c-4.89,0-8.86,5-8.86,11.25s4,11.25,8.86,11.25"/><path class="cls-16" d="M739.47,922.06c-4.9,0-8.86,5-8.86,11.25s4,11.25,8.86,11.25"/><ellipse class="cls-17" cx="914.37" cy="840.56" rx="19.54" ry="24.58"/><ellipse cx="917.21" cy="842.04" rx="11.19" ry="14.21"/><ellipse class="cls-8" cx="920.01" cy="836.12" rx="4.66" ry="5.92"/><path class="cls-18" d="M935.61,954.54h0a3.22,3.22,0,0,1-2.25-1.66,20.54,20.54,0,0,0-8.5-8.37c-5.7-3-11.55-2.77-14.93.18-.13.11-.35-.08-.27-.23,2.59-5.13,9.83-6.37,16.84-2.66a18.83,18.83,0,0,1,9.71,12.88A5.61,5.61,0,0,0,935.61,954.54Z"/><ellipse class="cls-19" cx="1104.15" cy="796.03" rx="23.72" ry="25.1" transform="translate(25.44 1626.2) rotate(-73.37)"/><ellipse class="cls-20" cx="1117.26" cy="717.02" rx="23.72" ry="25.1" transform="translate(110.51 1582.37) rotate(-73.37)"/><ellipse class="cls-21" cx="1065.84" cy="836.57" rx="14.23" ry="15.06" transform="translate(-40.75 1618.44) rotate(-73.37)"/><image class="cls-22" width="517" height="472" transform="translate(757 170)" xlink:href="Artboard%20121.png"/><ellipse class="cls-23" cx="1008.64" cy="398.94" rx="217.61" ry="245.37" transform="translate(337.74 1251.24) rotate(-73.37)"/><ellipse class="cls-24" cx="1109.85" cy="654.15" rx="23.72" ry="25.1" transform="translate(165.45 1530.39) rotate(-73.37)"/><path class="cls-25" d="M1672.68,554.65c-2.61,10.53-4.49,12.25-7.29,21.48-6.38,21-5.87,36.08-5.87,36.08s-10.49-28.83-8.94-61.32c1.28-27.11,9.1-57.49,15.78-56.47,5.17.79,9.53,20.37,9.87,34.11C1676.49,539.28,1674.33,548,1672.68,554.65Z"/><polygon class="cls-26" points="1595.48 452.99 1586.36 444.7 1577.25 436.41 1585.58 434.98 1593.92 433.55 1594.7 443.27 1595.48 452.99"/><polygon class="cls-27" points="1612.27 450.51 1603.15 442.22 1594.04 433.93 1602.37 432.5 1610.71 431.07 1611.49 440.79 1612.27 450.51"/><polygon class="cls-28" points="1629.08 448.54 1619.97 440.25 1610.85 431.96 1619.19 430.53 1627.52 429.1 1628.3 438.82 1629.08 448.54"/><polygon class="cls-29" points="1646.74 442.39 1636.62 435.95 1626.49 429.5 1634.29 426.35 1642.09 423.2 1644.41 432.8 1646.74 442.39"/><polygon class="cls-30" points="1610.35 451.23 1619.32 452.89 1628.29 454.55 1623.52 459.53 1618.75 464.51 1614.55 457.87 1610.35 451.23"/><path class="cls-31" d="M1675.93,528.59c-4-16.91-7-22.89-8-24.81-2-3.82-5.34-10.18-11.29-15.45-14.39-12.74-29.65-6.36-36.32-18a13.82,13.82,0,0,1-2-7.31c.19-4.34,3.11-6.68,7.94-11.15,7.34-6.79,11-10.18,13.62-14.23a37.89,37.89,0,0,0,5.47-15.59c-12.58,7.58-22.25,9.73-28.92,10.22-3.81.27-8.25.13-15.49,1.45-4.64.85-7.46,1.76-12.88,2.26a80.1,80.1,0,0,1-9.86.19c-14.08-.7-32-17-59.15-36.63-11.48-8.28-16.4-11.22-17.16-16.79s4.45-11.46,14.91-22.82a141.82,141.82,0,0,1,15.62-15,117.12,117.12,0,0,1,21.85-14.7c11.89-6,21.65-7.58,38.12-10.15,14.14-2.21,22-3.44,33.26-2.9,11.58.56,22.49,3.69,44.32,9.95,24.9,7.14,33.33,11.57,41.09,17.48a95.58,95.58,0,0,1,13,12.08,75,75,0,0,1,20.38-.64c2.28.24,9.91,2,25.09,5.64,7,1.67,10.43,2.5,15.3,4,2.81.88,7.55,2.38,13.29,4.78a143.29,143.29,0,0,1,18.07,9.24c9.27,5.47,20.15,11.89,33.35,23.16,8.18,7,17.72,15.25,27.24,29.11,1.61,2.34,2.87,4.35,3.74,5.76-12.63-1.6-22.87-2.94-29.75-3.85,0,0-9.14-1.22-28.78-3.33-21.77-2.34-25.94-2.39-27.27.59-1.65,3.69,3.09,7.39,9.7,23.26,1.92,4.6,4.35,12.38,9.22,27.94,2.7,8.65,4.52,14.44,5.9,19.32,3,10.45,9.64,34.58,9.59,64.68,0,9.81-.08,19.06-2.7,30.72-2.73,12.14-6.88,20.9-14.32,34.29-16.78,30.2-32.69,34.46-30.24,48.51.93,5.35,3,3.86,11.76,20.67,5.76,11,9.43,18.07,11.52,27.95,2.3,10.88,1.47,19.43.69,27.63a114.84,114.84,0,0,1-5.48,25.49,102.86,102.86,0,0,1-18.55,33.22,120.39,120.39,0,0,1-22.23,25.64c-10.5,9-35.4,17.21-35.4,17.21s1.77-10,8.15-36.42c.5-2.06-.06.18,6.16-35.65,2.76-15.94,1.48-23.49.11-27.6-.45-1.34-1-2.63-1-2.63a35.47,35.47,0,0,0-4.34-7.32,176.89,176.89,0,0,1-21.92,16.52s-27.93,17.8-57.45,22.91a126.62,126.62,0,0,1-13.33,1.61c-9.38,1.45-14.46.16-14.46.16s4.64-23.84,9-32.25a125.93,125.93,0,0,1,18.67-27c3.27-3.61,8.4-8.09,18.65-17.07,9.43-8.27,19.81-17,23-19.64,15.29-12.8,15.46-12.53,16.59-14.47,9.37-16.07,1.58-40.43-.66-47.43-5.54-17.29-9.48-13.54-18.16-35.29-8.31-20.86-12.57-44.06-13.42-48.82C1679.11,544,1678,537.55,1675.93,528.59Z"/><path class="cls-25" d="M1757.65,492c6.3,9.52,6.61,12.4,11.88,21.21,12,20.09,23.13,29.78,23.13,29.78a149.87,149.87,0,0,1-48.72-33.2c-18.94-19.5-37-47.22-32.93-52.67,3.15-4.22,19.45,5,29.54,14C1748.45,478.08,1753.66,485.94,1757.65,492Z"/><path class="cls-17" d="M1639.35,352.13s-4.19,6.76-11,7.9-13.6-3.78-13.6-3.78,4.18-6.76,11-7.9S1639.35,352.13,1639.35,352.13Z"/><ellipse cx="1623.13" cy="354.85" rx="3.99" ry="2.98" transform="translate(-26.59 157.62) rotate(-5.51)"/><ellipse class="cls-8" cx="1621.66" cy="355.1" rx="0.5" ry="1" transform="translate(-37.95 394.75) rotate(-13.72)"/><path class="cls-12" d="M1753.93,340.47c0,.11,0,.23-.09.34h0c-.06.25-.12.49-.2.75-2.08,7.81-6.27,18.55-14.82,20.83-5.4,1.43-10.43-1-12.45-2-34.6-16.63-119.58-38.81-135.46-45.87a52.36,52.36,0,0,0-6.92-2.63c-1.22-.4-2.26-.67-2.47-.73-.91-.24-1.94-.49-3.33-.76-5-1-7.92-.82-11.65-3.11a21.78,21.78,0,0,1-6.79-6.89q-.69-10.67-1.39-21.33c0-.65-.08-1.31-.13-2,.74-.89,2.89-1.29,6.26-1.22l189.28,64.53Z"/><path class="cls-13" d="M1753.83,341.1a1.14,1.14,0,0,1-.19.47c-3.29,5-46.93-4.32-99.5-21.35-50.45-16.33-91.3-34-95.78-41.16,0-.65-.08-1.31-.13-2,.74-.89,2.89-1.29,6.26-1.22,14.38.29,50.89,9,93.17,22.68,52.16,16.89,94,35.2,96.11,41.85a1.46,1.46,0,0,1,.07.4h0A1.31,1.31,0,0,1,1753.83,341.1Z"/><path class="cls-12" d="M1634,307.38c5.92-36.43,20.31-62.84,32.16-59s16.64,36.47,10.72,72.89Z"/><ellipse class="cls-14" cx="1641.81" cy="294.77" rx="4.02" ry="4.74" transform="translate(3.59 608.85) rotate(-21.03)"/><ellipse class="cls-15" cx="1658.03" cy="300.02" rx="4.02" ry="4.74" transform="translate(2.78 615.03) rotate(-21.03)"/><ellipse class="cls-8" cx="1673.68" cy="305.09" rx="4.02" ry="4.74" transform="translate(2.01 620.98) rotate(-21.03)"/><path class="cls-32" d="M1702.85,402.24c.28,10.43-7,18.22-16.29,17.39"/><path class="cls-32" d="M1712.32,411.25c.28,10.44-7,18.23-16.29,17.39"/><path class="cls-33" d="M1265,885.2l7.42,7.28c-.12,1.08-.26,2.15-.4,3.21l-8.56-8.39-1.85-1.83-15.94-15.62h0l-1.85-1.82h0l-21.14-20.73-1.86-1.82-.27-.27,3-.63.63.63,21.14,20.73,1.86,1.82,15.93,15.63Z"/><path class="cls-34" d="M1269.61,835c.12.57.24,1.14.35,1.71a188.76,188.76,0,0,1,3.45,28.71l.12,3.73v.07c0,1.45,0,2.88,0,4.31a169.32,169.32,0,0,1-1.1,18.91c-.12,1.08-.26,2.15-.4,3.21q-.84,6.22-2.15,12.17v0l0,.1c-.46,2.17-1,4.29-1.55,6.39-.69,2.62-1.46,5.18-2.29,7.69-.3.91-.61,1.81-.92,2.7A115.15,115.15,0,0,1,1253.29,949c-.48.73-1,1.46-1.46,2.17a85,85,0,0,1-15.72,17.36c-.66.55-1.34,1.1-2,1.62a68.56,68.56,0,0,1-12.18,7.52q-2.29,1.11-4.68,2-1.8.69-3.66,1.29-1.42.45-2.88.84c-1.2.33-2.41.61-3.62.86a64.1,64.1,0,0,1-14.49,1.32c-1,0-2.06-.07-3.09-.14l-.38,0c-1.47-.1-2.95-.26-4.42-.47s-3-.47-4.45-.78l-.54-.11a76.28,76.28,0,0,1-13.45-4.27c-.81-.33-1.61-.69-2.41-1.06A99.39,99.39,0,0,1,1139.36,961c-.65-.57-1.29-1.14-1.92-1.73A130.73,130.73,0,0,1,1125,945.94c-1.58-1.94-3.13-4-4.64-6-.1-.14-.2-.27-.3-.42-.53-.72-1-1.46-1.57-2.2A163.62,163.62,0,0,1,1104,912h0l-.27-.58c-.41-.9-.81-1.8-1.21-2.71l-1-2.32a187.5,187.5,0,0,1-10.44-33.72l-.13-.59Z"/><path class="cls-33" d="M1213.57,981q-1.42.45-2.88.84l-9.89-9-1.92-1.75-16.4-15-1.91-1.75-21.76-19.87-1.92-1.75-19.11-17.46-1.91-1.74-20.19-18.44-1.91-1.74-22.67-20.71-.13-.59,2.7-.55,21.63,19.76,1.92,1.74,20.18,18.44,1.9,1.74,19.13,17.46,1.91,1.75,21.76,19.87L1184,954l16.41,15,1.91,1.75Z"/><path class="cls-33" d="M1236.11,968.56c-.66.55-1.34,1.1-2,1.62l-3.88-3.8-1.85-1.82-12.5-12.26-1.86-1.83-15.93-15.63-1.86-1.82-21.13-20.73-1.86-1.82-18.56-18.22-1.86-1.82-19.6-19.22-1.85-1.83-4.79-4.69,3-.63,3.29,3.23,1.86,1.82,19.59,19.23,1.86,1.82,18.56,18.21,1.86,1.82,21.14,20.73,1.85,1.82,15.94,15.64,1.85,1.82,12.5,12.26,1.86,1.82Z"/><path class="cls-33" d="M1253.29,949c-.48.73-1,1.46-1.46,2.17l-6.1-6-1.86-1.82-12.5-12.27-1.85-1.82-15.94-15.63-1.86-1.82-21.13-20.74-1.86-1.82-18.56-18.21-1.86-1.83-11.13-10.92,3-.62,9.64,9.45,1.85,1.83,18.57,18.21,1.86,1.82,21.13,20.73,1.86,1.82,15.93,15.63,1.86,1.82,12.5,12.27,1.85,1.82Z"/><path class="cls-33" d="M1266,922.06c-.3.91-.61,1.81-.92,2.7l-2.56-2.51h0l-1.86-1.82-12.5-12.26-1.86-1.82-15.93-15.64-1.86-1.82-21.13-20.73-1.85-1.82-15.18-14.88,3-.63,13.67,13.42,1.86,1.82,21.13,20.73,1.85,1.82,15.94,15.63,1.86,1.82,12.5,12.27,1.86,1.82Z"/><path class="cls-33" d="M1104,912h0l20,17.71,1.94,1.71,19.35,17.13,1.94,1.72,22,19.5,1.94,1.71,13.47,11.94c1.47.21,3,.37,4.42.47l-16.37-14.49-1.93-1.72-22-19.5-1.93-1.71-19.36-17.14-1.94-1.7-20.43-18.09-1.93-1.71-1.64-1.45,1,2.32c.4.91.8,1.81,1.21,2.71Z"/><polygon class="cls-33" points="1273.41 865.46 1273.53 869.19 1257.62 853.59 1255.77 851.76 1244.11 840.33 1247.15 839.7 1257.31 849.67 1259.16 851.49 1273.41 865.46"/><path class="cls-33" d="M1140,861.9l-5.29,7.21-1.54,2.1-16,21.8-1.54,2.09-10.57,14.43-1.37,1.87c-.41-.9-.81-1.8-1.21-2.71l.65-.87,10.59-14.46,1.53-2.09,16-21.89,1.53-2.09,3.38-4.61Z"/><path class="cls-33" d="M1183.51,852.89,1171.7,869l-1.53,2.09-14,19.07-1.53,2.09-15.36,20.94-1.52,2.09-10.3,14-1.52,2.09-6,8.1c-.53-.72-1-1.46-1.57-2.2l5.58-7.61,1.52-2.08,10.33-14.08,1.53-2.09,15.4-21,1.53-2.09,14-19.08,1.54-2.09,9.9-13.5Z"/><path class="cls-33" d="M1224.91,844.31l-.66.89-1.53,2.09L1209,866.07l-1.54,2.09L1192.13,889l-1.54,2.09-14,19.07-1.53,2.1-14.74,20.11-1.53,2.09-10,13.68-1.52,2.09L1139.36,961c-.65-.57-1.29-1.14-1.92-1.73l7.87-10.74,1.53-2.08,10.05-13.72,1.54-2.09,14.79-20.18,1.53-2.1,14-19.07,1.54-2.09,15.3-20.87,1.53-2.09,13.76-18.78.28-.38Z"/><path class="cls-33" d="M1269.61,835c.12.57.24,1.14.35,1.71l-10.8,14.74-1.54,2.1-10.37,14.16-1.54,2.09h0l-13.77,18.77-1.53,2.09-15.29,20.87-1.54,2.1-14,19.06-1.53,2.1L1184,954l-1.53,2.09-9.74,13.28-1.52,2.08-5,6.78c-.81-.33-1.61-.69-2.41-1.06l5.44-7.43,1.53-2.09,9.76-13.31,1.53-2.09L1196.21,933l1.54-2.1,14-19.06,1.54-2.1,15.29-20.87,1.54-2.09L1243.86,868h0l1.53-2.09,10.38-14.17,1.54-2.09,10.44-14.24Z"/><path class="cls-33" d="M1273.53,869.26c0,1.45,0,2.88,0,4.31L1265,885.2l-1.54,2.1-13.76,18.77-1.54,2.1L1232.91,929l-1.54,2.1-14,19.07-1.53,2.1-13.53,18.45-1.53,2.09-8.22,11.21c-1,0-2.06-.07-3.09-.14l9.39-12.82,1.54-2.09L1214,950.47l1.54-2.09,14-19.07,1.53-2.1,15.29-20.86,1.54-2.1,13.77-18.78,1.53-2.09Z"/><rect class="cls-35" x="1243.65" y="804.67" width="313.03" height="7.31" rx="3.66" transform="translate(-134.9 300.96) rotate(-11.71)"/><rect class="cls-36" x="1084.76" y="844.28" width="190.74" height="18.61" rx="9.3" transform="translate(-148.67 257.25) rotate(-11.71)"/><rect class="cls-37" x="1512.52" y="773.23" width="46.52" height="13.29" rx="6.65" transform="translate(-126.31 327.89) rotate(-11.71)"/><path d="M941.05,274.33a12.66,12.66,0,0,1-1,5.16,12.08,12.08,0,0,1-3.28,4.29,12,12,0,0,1-4.21,2.29,17,17,0,0,1-5.25.79,20.72,20.72,0,0,1-2.35-.14,16.47,16.47,0,0,1-2.24-.43c-.48.7-.93,1.39-1.37,2.07l-1,1.52-5.25-3.29c.23-.35.55-.8,1-1.36s.84-1.17,1.31-1.85a11.6,11.6,0,0,1-2.87-4,13,13,0,0,1,0-10,12,12,0,0,1,3-4.1,12.31,12.31,0,0,1,4.29-2.53,16.4,16.4,0,0,1,5.5-.87,19.33,19.33,0,0,1,2.48.15,15.6,15.6,0,0,1,2.12.42c.56-.88.94-1.46,1.14-1.75s.47-.72.84-1.26l5.25,3.27c-.19.26-.45.62-.76,1.07l-1.1,1.55a11.57,11.57,0,0,1,2.93,4.08A12.65,12.65,0,0,1,941.05,274.33Zm-17.47,5.32c-.29.42-.58.84-.85,1.25l-.63.94c-.25.35-.5.73-.75,1.12s-.49.75-.72,1.07l-1-.81.72-1.05c.31-.46.56-.81.73-1.07l.65-1,.84-1.28Zm7.52-5.26a7.39,7.39,0,0,0-.37-2.28,3.84,3.84,0,0,0-1.19-1.85,3.66,3.66,0,0,0-1-.59,3.52,3.52,0,0,0-1.34-.24,3.23,3.23,0,0,0-1.29.24,3.92,3.92,0,0,0-1.12.75,4.42,4.42,0,0,0-1.06,1.75,6.66,6.66,0,0,0,0,4.35,4.16,4.16,0,0,0,1.13,1.8,3.27,3.27,0,0,0,1.06.68,3.62,3.62,0,0,0,1.36.24,3.29,3.29,0,0,0,1.26-.24,3.68,3.68,0,0,0,1.07-.66,4.05,4.05,0,0,0,1.12-1.82A6.73,6.73,0,0,0,931.1,274.39Z"/><path d="M963.9,269.35q-2.68,6.31-4.19,10.13t-2.63,6.67H948c-.82-2.12-1.71-4.41-2.69-6.87s-2.34-5.77-4.09-9.93l9.11-1.92,2.33,8.28h.18l2.26-8.28Z"/><path d="M990.79,277.67v8.48c-.27,0-1.32.09-3.15.19s-3.47.15-4.93.15c-1,0-2.35-.08-4-.24a15.27,15.27,0,0,1-4-.84,6.92,6.92,0,0,1-2.89-2,4.26,4.26,0,0,1-1-2.73,4.55,4.55,0,0,1,.92-2.87,6.91,6.91,0,0,1,3.31-2,17.24,17.24,0,0,1,4-.79c1.49-.13,2.44-.2,2.85-.22a.87.87,0,0,0-.27-.66,2.85,2.85,0,0,0-1.28-.43,12.08,12.08,0,0,0-1.35-.15c-.49,0-1.1-.05-1.82-.05-.94,0-1.76,0-2.45,0l-1.81.05.71-6.06h3.48a28.37,28.37,0,0,1,6.64.62,10.43,10.43,0,0,1,4.18,2,7.06,7.06,0,0,1,2.24,3.1A12.44,12.44,0,0,1,990.79,277.67Zm-8.31,1.92v-1.91c-.13,0-.35,0-.66.07a4,4,0,0,0-1.11.39,2.47,2.47,0,0,0-.69.61,1.56,1.56,0,0,0-.35,1,1.66,1.66,0,0,0,.34,1.1,2.31,2.31,0,0,0,.79.58,2.51,2.51,0,0,0,.65.19,4.51,4.51,0,0,0,.87.07h.16v-2.12Z"/><path d="M1002.58,286.15h-8.89c0-1.72,0-3.48,0-5.27s0-4.56,0-8.27q0-2.87,0-6c0-2.12,0-4.23,0-6.33h8.89q0,3.25,0,6t0,6.09q0,3.63,0,6.45C1002.57,280.69,1002.58,283.13,1002.58,286.15Z"/><path d="M1021.54,280.35l-.76,6c-.29,0-.67,0-1.15.06h-2.42q-5.15,0-7.76-1.8a5.92,5.92,0,0,1-2.63-5.2c0-1.47,0-2.57,0-3.31s0-1.41,0-2h-2.92v-6.19h3v-5.43h8.72v5.43h5.7v6.19h-5.7c0,.28,0,.51,0,.69s0,.44,0,.81,0,.54,0,.89,0,.59,0,.72a3.08,3.08,0,0,0,.86,2.29c.58.57,2,.85,4.21.85h.79Z"/><path d="M1039.36,280.35a4,4,0,0,1-1,2.79,7.77,7.77,0,0,1-2.53,1.86,12.89,12.89,0,0,1-4,1.08,39.9,39.9,0,0,1-4.54.34h-4.91l-.83-5.93h4.4a11.15,11.15,0,0,0,1.13-.08,2.64,2.64,0,0,0,1.24-.28.48.48,0,0,0,.17-.35c0-.14-.11-.28-.32-.4s-.61-.31-1.18-.56l-1-.47c-.4-.19-.82-.42-1.26-.68a4.64,4.64,0,0,1-1.84-1.81,4.74,4.74,0,0,1-.54-2.2,4.19,4.19,0,0,1,.83-2.55,6.86,6.86,0,0,1,2.86-2,14.54,14.54,0,0,1,3.87-1.05,39.5,39.5,0,0,1,4.32-.39l2.57,0h1.56l.83,6h-2.37l-1.27,0-1.13.08a3.91,3.91,0,0,0-.88.17c-.23.08-.34.21-.34.4s.12.32.36.45.61.3,1.11.52l1.17.54a10.3,10.3,0,0,1,1.19.63,5,5,0,0,1,1.79,1.66A4.32,4.32,0,0,1,1039.36,280.35Z"/><path d="M1061.09,277.67v8.48c-.28,0-1.32.09-3.15.19s-3.47.15-4.93.15c-1,0-2.35-.08-4-.24a15.45,15.45,0,0,1-4-.84,7,7,0,0,1-2.88-2,4.21,4.21,0,0,1-1-2.73,4.55,4.55,0,0,1,.92-2.87,6.87,6.87,0,0,1,3.3-2,17.36,17.36,0,0,1,4-.79c1.49-.13,2.45-.2,2.86-.22a.84.84,0,0,0-.28-.66,2.8,2.8,0,0,0-1.28-.43,12.16,12.16,0,0,0-1.34-.15c-.49,0-1.1-.05-1.82-.05-.94,0-1.76,0-2.45,0l-1.81.05.71-6.06h3.48a28.43,28.43,0,0,1,6.64.62,10.43,10.43,0,0,1,4.18,2,7.06,7.06,0,0,1,2.24,3.1A12.44,12.44,0,0,1,1061.09,277.67Zm-3.89-13.91a4.17,4.17,0,0,1-1.68,3.32,6.22,6.22,0,0,1-4.08,1.38,6.09,6.09,0,0,1-4-1.37,4.18,4.18,0,0,1-1.66-3.33,4.14,4.14,0,0,1,1.67-3.36,6.62,6.62,0,0,1,8,0A4.16,4.16,0,0,1,1057.2,263.76Zm-4.42,15.83v-1.91c-.13,0-.35,0-.66.07a3.9,3.9,0,0,0-1.11.39,2.47,2.47,0,0,0-.69.61,1.51,1.51,0,0,0-.35,1,1.61,1.61,0,0,0,.34,1.1,2.22,2.22,0,0,0,.79.58,2.55,2.55,0,0,0,.64.19,4.69,4.69,0,0,0,.88.07h.16v-2.12Zm0-15.85a1.36,1.36,0,0,0-.36-1,1.17,1.17,0,0,0-.92-.39,1.24,1.24,0,0,0-.93.39,1.33,1.33,0,0,0-.37,1,1.4,1.4,0,0,0,.36,1,1.23,1.23,0,0,0,.94.39,1.16,1.16,0,0,0,.92-.41A1.4,1.4,0,0,0,1052.78,263.74Z"/><path d="M1074.33,262.48a76,76,0,0,1-.65,8.72q-.54,3.8-1,6.1h-7.2q-.53-2.48-1-6.12a83.71,83.71,0,0,1-.67-8.7Zm-.62,23.67h-9.39V279h9.39Z"/><path d="M1091.12,262.48a73.83,73.83,0,0,1-.65,8.72q-.54,3.8-1,6.1h-7.19q-.54-2.48-1-6.12a83.71,83.71,0,0,1-.67-8.7Zm-.62,23.67h-9.39V279h9.39Z"/><path d="M1107.91,262.48a73.83,73.83,0,0,1-.65,8.72q-.54,3.8-1,6.1H1099c-.36-1.65-.7-3.69-1-6.12a83.71,83.71,0,0,1-.67-8.7Zm-.62,23.67h-9.39V279h9.39Z"/><path d="M939.93,317.91a9.81,9.81,0,0,1-1.52,5.45,12,12,0,0,1-4,3.78,17.85,17.85,0,0,1-4.83,1.91,27.48,27.48,0,0,1-6.56.67c-1.46,0-3.19,0-5.2-.07l-3.37-.06c0-.19,0-1.29,0-3.32s0-5.15,0-9.37c0-1.4,0-3.09,0-5.06s0-3.95,0-5.92l3.32,0,4.69,0a33.54,33.54,0,0,1,7.13.66,16.35,16.35,0,0,1,5.22,2.08,10.34,10.34,0,0,1,5.09,9.3Zm-9.95-.46a4.13,4.13,0,0,0-.51-2,3.62,3.62,0,0,0-1.54-1.48,5.32,5.32,0,0,0-1.68-.58,11.51,11.51,0,0,0-1.92-.15h-.25v8.91h.16a8.89,8.89,0,0,0,1.76-.22,6.51,6.51,0,0,0,1.63-.52,4.08,4.08,0,0,0,1.91-1.79A5.17,5.17,0,0,0,930,317.45Z"/><path d="M963.51,329.59h-8.69l0-1.27,0,0a32.9,32.9,0,0,1-3.27,1.21,11.57,11.57,0,0,1-3.55.64,5.47,5.47,0,0,1-4.24-1.61,6.1,6.1,0,0,1-1.49-4.31c0-1.37,0-2.7,0-4s0-2.26,0-2.88c0-1.13,0-2.3,0-3.52s0-2,0-2.47h8.89c0,.47,0,1.25,0,2.34s0,2.09,0,3c0,.6,0,1.37,0,2.32s0,1.66,0,2.17a5.28,5.28,0,0,0,.2,1.52c.12.44.47.65,1,.65a4.06,4.06,0,0,0,1.24-.22,6,6,0,0,0,1-.39c0-2.08,0-3.58,0-4.51,0-1.17,0-2.46,0-3.88s0-2.41,0-3h8.89c0,.45,0,1.61,0,3.49s0,3.66,0,5.35,0,3.13,0,4.46S963.51,327.64,963.51,329.59Z"/><path d="M995.17,329.59h-8.89c0-.66,0-1.89,0-3.68s0-3.06,0-3.79c0-.56,0-.94,0-1.14s0-.57,0-1.13a3.41,3.41,0,0,0-.3-1.71,1,1,0,0,0-.94-.46,4.55,4.55,0,0,0-1.29.2l-1,.33,0,11.38h-8.89c0-1.36,0-2.88,0-4.53s0-4.66,0-9q0-2.87,0-6c0-2.11,0-4.23,0-6.35h8.89l0,8.78,0,0q.5-.22,2.7-.93a13.51,13.51,0,0,1,4-.7,5.45,5.45,0,0,1,4.2,1.64,6,6,0,0,1,1.52,4.28c0,1.37,0,2.44,0,3.21s0,1.47,0,2.08c0,1.13,0,2.46,0,4S995.17,328.77,995.17,329.59Z"/><path d="M1017.09,321.11v8.48c-.27,0-1.32.09-3.15.19s-3.47.15-4.93.15c-1,0-2.35-.08-4-.24a15.27,15.27,0,0,1-4-.84,6.82,6.82,0,0,1-2.88-2,4.21,4.21,0,0,1-1-2.72,4.57,4.57,0,0,1,.92-2.88,7,7,0,0,1,3.31-2,16.75,16.75,0,0,1,3.95-.78c1.49-.14,2.44-.21,2.85-.22a.87.87,0,0,0-.27-.67,2.85,2.85,0,0,0-1.28-.43,12.08,12.08,0,0,0-1.35-.15c-.49,0-1.1,0-1.82,0-.94,0-1.75,0-2.44,0l-1.82.05.71-6.06h3.48a28.31,28.31,0,0,1,6.64.62,10.37,10.37,0,0,1,4.18,2.05,7.22,7.22,0,0,1,2.25,3.1A12.74,12.74,0,0,1,1017.09,321.11Zm-8.31,1.93v-1.91a4.58,4.58,0,0,0-.66.07,3.53,3.53,0,0,0-1.11.39,2.14,2.14,0,0,0-.68.6,1.51,1.51,0,0,0-.36,1,1.61,1.61,0,0,0,.35,1.1,2.27,2.27,0,0,0,.78.58,2.63,2.63,0,0,0,.65.19,4.45,4.45,0,0,0,.87.08h.16V323Z"/><path d="M1037.22,317.91c-1.39.49-2.6.93-3.62,1.31s-2.6,1-4.74,2v3c0,1,0,2.11,0,3.17s0,1.8,0,2.2H1020c0-.54,0-1.72,0-3.53s0-3.68,0-5.59c0-1.16,0-2.45,0-3.85s0-3.16,0-5.27h8.7l-.06,2.46.07,0a26.74,26.74,0,0,1,3.17-1.94,28.83,28.83,0,0,1,2.86-1.38Z"/><path d="M1059.87,323.79l-.76,6c-.3,0-.68.05-1.15.06l-2.42,0c-3.43,0-6-.61-7.77-1.81a5.91,5.91,0,0,1-2.63-5.19c0-1.48,0-2.58,0-3.32s0-1.41,0-2h-2.92v-6.19h3v-5.43H1054v5.43h5.71v6.19H1054c0,.28,0,.51,0,.69s0,.44,0,.81,0,.54,0,.89,0,.59,0,.72a3.11,3.11,0,0,0,.86,2.29c.58.57,2,.85,4.21.85h.8Z"/><path d="M1080.17,321.11v8.48c-.27,0-1.31.09-3.14.19s-3.47.15-4.93.15c-1,0-2.35-.08-4-.24a15.45,15.45,0,0,1-4-.84,7,7,0,0,1-2.88-2,4.2,4.2,0,0,1-1-2.72,4.57,4.57,0,0,1,.92-2.88,6.87,6.87,0,0,1,3.3-2,16.85,16.85,0,0,1,4-.78c1.49-.14,2.45-.21,2.86-.22a.85.85,0,0,0-.28-.67,2.8,2.8,0,0,0-1.28-.43,12.16,12.16,0,0,0-1.34-.15c-.5,0-1.1,0-1.82,0-.94,0-1.76,0-2.45,0l-1.81.05.71-6.06h3.48a28.43,28.43,0,0,1,6.64.62,10.43,10.43,0,0,1,4.18,2.05,7.19,7.19,0,0,1,2.24,3.1A12.49,12.49,0,0,1,1080.17,321.11Zm-8.3,1.93v-1.91a4.82,4.82,0,0,0-.67.07,3.4,3.4,0,0,0-1.1.39,2.27,2.27,0,0,0-.69.6,1.51,1.51,0,0,0-.35,1,1.61,1.61,0,0,0,.34,1.1,2.22,2.22,0,0,0,.79.58,2.55,2.55,0,0,0,.64.19,4.63,4.63,0,0,0,.88.08h.16V323Z"/><path d="M1103.91,320.06a8.15,8.15,0,0,1-1.34,4.69,9.65,9.65,0,0,1-4,3.24,16,16,0,0,1-4.7,1.28,51.42,51.42,0,0,1-6.66.36l-2.51,0-1.67,0c0-.7,0-2,0-4s0-5.05,0-9.21q0-5.29,0-8.29c0-2,0-3.46,0-4.37H1092l0,7.67c1.14.1,2.19.23,3.15.41a16.43,16.43,0,0,1,2.93.83,9.4,9.4,0,0,1,4.4,3.08A7.15,7.15,0,0,1,1103.91,320.06Zm-8.85-.25a3.22,3.22,0,0,0-.31-1.4,2.6,2.6,0,0,0-.93-1.07,2.92,2.92,0,0,0-1.1-.44,6.68,6.68,0,0,0-1.09-.09h-.2v6.35a5.8,5.8,0,0,0,1.18-.14,3.29,3.29,0,0,0,1-.39,3.63,3.63,0,0,0,1.06-1A3.45,3.45,0,0,0,1095.06,319.81Z"/><path d="M1121.8,323.79l-.76,6c-.29,0-.68.05-1.15.06l-2.42,0c-3.43,0-6-.61-7.77-1.81a5.9,5.9,0,0,1-2.62-5.19c0-1.48,0-2.58,0-3.32s0-1.41,0-2h-2.91v-6.19h3v-5.43h8.71v5.43h5.71v6.19h-5.71c0,.28,0,.51,0,.69v1.7c0,.35,0,.59,0,.72a3.08,3.08,0,0,0,.87,2.29c.58.57,2,.85,4.21.85h.79Z"/><circle class="cls-38" cx="911" cy="481" r="11"/><circle class="cls-38" cx="927" cy="438" r="11"/><circle class="cls-38" cx="946" cy="412" r="11"/><circle class="cls-38" cx="983" cy="391" r="11"/><circle class="cls-38" cx="1028" cy="391" r="11"/><circle class="cls-38" cx="1064" cy="409" r="11"/><circle class="cls-38" cx="1088" cy="442" r="11"/><circle class="cls-38" cx="1099" cy="481" r="11"/><path class="cls-15" d="M899.06,500.61c0-7.29,12.53-13.47,13.61-20.38,1.13-7.19-8.83-16.93-6.67-23.6,2.24-6.91,16-8.89,19.28-15.11,3.36-6.44-2.83-18.93,1.47-24.47,4.45-5.73,18-2.72,23.35-7.32s4.6-18.64,10.82-22,17.29,5.09,24.22,3.33,12.47-14.46,19.74-14.43,12.81,12.78,19.63,14.58,18-6.58,24.24-3.15,5.23,17.29,10.66,22.06,18.89,1.73,23.3,7.49c4.26,5.58-2,18,1.28,24.48,3.2,6.24,17,8.32,19.17,15.26,2.12,6.68-7.92,16.34-6.85,23.54,1,6.93,13.5,13.2,13.47,20.48"/><path class="cls-12" d="M910,501.66C910,444.41,952.31,398,1004.5,398s94.5,46.41,94.5,103.66"/><path d="M952,459.75a5.36,5.36,0,0,1-1.22,3.56,9.52,9.52,0,0,1-3.33,2.43,16.15,16.15,0,0,1-4.77,1.22,42.06,42.06,0,0,1-5.5.38c-1.56,0-2.82,0-3.79,0s-1.69-.06-2.17-.09l-1.07-7.61c.13,0,.78,0,1.94.07s1.93,0,2.3,0H936c.61,0,1.2,0,1.78,0a3.15,3.15,0,0,0,1.49-.34.74.74,0,0,0,.32-.57.76.76,0,0,0-.4-.64,11.33,11.33,0,0,0-1.52-.66l-1.78-.73a13.47,13.47,0,0,1-1.87-.93,6.28,6.28,0,0,1-2.34-2.29,5.9,5.9,0,0,1-.72-2.89,5.15,5.15,0,0,1,.37-1.94,4.52,4.52,0,0,1,1-1.61,11.73,11.73,0,0,1,5.13-2.88,28.77,28.77,0,0,1,8.31-1q2.18,0,3.27,0l1.57.07,1.05,7.61-1.53-.07c-.49,0-1.1,0-1.82,0s-1.23,0-1.72,0-1,0-1.61.07a3.9,3.9,0,0,0-1.24.24.58.58,0,0,0-.41.54.78.78,0,0,0,.47.67,14.68,14.68,0,0,0,1.43.65l1.87.74a15,15,0,0,1,1.84.91,6.39,6.39,0,0,1,2.29,2.2A5.65,5.65,0,0,1,952,459.75Z"/><path d="M975.12,457.66a7.76,7.76,0,0,1-1.26,4.51,10,10,0,0,1-3.41,3,13.41,13.41,0,0,1-3.48,1.26,17.92,17.92,0,0,1-3.76.46l0,8.05H954.4c0-1,0-2.69,0-5s0-5.3,0-8.89c0-1.64,0-3.58,0-5.82s0-4.38,0-6.39l2.13,0,2,0c2.07,0,3.92.06,5.54.19a19.63,19.63,0,0,1,5.08,1.15,9.22,9.22,0,0,1,4.46,3.09A7.29,7.29,0,0,1,975.12,457.66Zm-8.8.58a3.22,3.22,0,0,0-.31-1.4,2.48,2.48,0,0,0-.92-1.06,2.85,2.85,0,0,0-1.09-.44,6.77,6.77,0,0,0-1.09-.09h-.2v6.33a5.63,5.63,0,0,0,1.17-.14,3.13,3.13,0,0,0,1-.39,3.51,3.51,0,0,0,1.06-1A3.31,3.31,0,0,0,966.32,458.24Z"/><path d="M986.2,446.81h-8.84v-5.62h8.84Zm0,20.15h-8.84c0-1.06,0-2.31,0-3.75s0-3.1,0-5c0-1.54,0-3.06,0-4.58s0-3.13,0-4.84h8.84c0,1.64,0,3,0,4.14s0,2.86,0,5.24c0,2.59,0,4.41,0,5.46S986.2,465.81,986.2,467Z"/><path d="M998.35,467H989.5c0-1.71,0-3.46,0-5.25s0-4.53,0-8.22q0-2.85,0-6t0-6.29h8.85q0,3.22,0,6t0,6.07q0,3.6,0,6.4T998.35,467Z"/><path d="M1017.52,446.81h-8.84v-5.62h8.84Zm0,20.15h-8.84c0-1.06,0-2.31,0-3.75s0-3.1,0-5c0-1.54,0-3.06,0-4.58s0-3.13,0-4.84h8.84c0,1.64,0,3,0,4.14s0,2.86,0,5.24c0,2.59,0,4.41,0,5.46S1017.52,465.81,1017.52,467Z"/><path d="M1040.48,448.82c0,.8,0,1.85,0,3.12s0,2.66,0,4.15c0,.87,0,2,0,3.42s0,3.16,0,5.23a9.46,9.46,0,0,1-1.19,4.79,7.76,7.76,0,0,1-3.54,3.16,22.74,22.74,0,0,1-7.35,2,45,45,0,0,1-6,.29l-.92-6.1c1.51-.05,2.91-.13,4.2-.22a26.48,26.48,0,0,0,3-.37,6.53,6.53,0,0,0,2.06-.7,1.09,1.09,0,0,0,.63-.89H1031a15.28,15.28,0,0,1-3.54-.47,11.71,11.71,0,0,1-3.23-1.2,10.1,10.1,0,0,1-3.31-3,7.89,7.89,0,0,1-1.13-4.48,7.1,7.1,0,0,1,1.42-4.34,9.54,9.54,0,0,1,4.27-3,18.48,18.48,0,0,1,4.25-1,49.77,49.77,0,0,1,6.37-.33l2.17,0Zm-8.31,8.87v-2.44h-.43a4.47,4.47,0,0,0-.82.07,3,3,0,0,0-.93.37,2.4,2.4,0,0,0-1,1,3.1,3.1,0,0,0-.39,1.55,4.45,4.45,0,0,0,.24,1.5,2.47,2.47,0,0,0,1,1.17,3.3,3.3,0,0,0,1.08.49,4.46,4.46,0,0,0,1.14.15h.16v-3.89Z"/><path d="M1063.07,458.73h-11.53a1.73,1.73,0,0,0,.7,1.3,4.87,4.87,0,0,0,2.18.93,12.12,12.12,0,0,0,2.16.29c.69,0,1.33.05,1.92.05h2.11l1.44,0-.83,5.82-1.65.1c-.66,0-1.38.06-2.18.06a28.45,28.45,0,0,1-6.14-.61,13.13,13.13,0,0,1-4.9-2.1,8.84,8.84,0,0,1-2.7-3,8.1,8.1,0,0,1-.94-3.83,9.29,9.29,0,0,1,.68-3.68,9.77,9.77,0,0,1,5.79-5,13.28,13.28,0,0,1,8-.06,8.4,8.4,0,0,1,3.06,1.75,7.79,7.79,0,0,1,2.18,3.43A15.18,15.18,0,0,1,1063.07,458.73Zm-8.12-2.88a3.25,3.25,0,0,0-.5-1.85,1.79,1.79,0,0,0-1.58-.74,1.93,1.93,0,0,0-1.59.7,3.07,3.07,0,0,0-.62,1.89Z"/><path d="M1086.29,467h-8.84c0-.43,0-1.07,0-1.95s0-2,0-3.34c0-.56,0-1.29,0-2.2s0-1.65,0-2.2a3.82,3.82,0,0,0-.27-1.62,1,1,0,0,0-1-.54,4.5,4.5,0,0,0-1.29.2c-.43.14-.75.24-1,.33,0,2.42,0,3.92,0,4.5,0,1.16,0,2.52,0,4.09s0,2.48,0,2.73h-8.84c0-.53,0-1.49,0-2.88s0-3.36,0-5.91c0-1.9,0-3.57,0-5s0-2.89,0-4.33h8.65l0,1.17,0,0c.42-.19,1.35-.52,2.78-1a13.12,13.12,0,0,1,4-.7,5.42,5.42,0,0,1,4.19,1.63,6,6,0,0,1,1.51,4.26c0,1.36,0,2.42,0,3.19s0,1.46,0,2.07c0,1.12,0,2.47,0,4.05S1086.29,466.25,1086.29,467Z"/></g></g></svg>
