<svg id="Layer_1" data-name="Layer 1" xmlns="http://www.w3.org/2000/svg" xmlns:xlink="http://www.w3.org/1999/xlink" width="1920" height="1080" viewBox="0 0 1920 1080"><defs><style>.cls-1{fill:url(#linear-gradient);}.cls-2{fill:#3f9df4;}.cls-3{fill:url(#linear-gradient-2);}.cls-4{fill:url(#linear-gradient-3);}.cls-5{fill:url(#linear-gradient-4);}.cls-6{fill:url(#linear-gradient-5);}.cls-7{fill:#0071bc;}.cls-8{fill:#eaeaea;}.cls-9{fill:#fff;}.cls-10{fill:#f7931e;}.cls-11{fill:#fbb03b;}.cls-12{fill:red;}.cls-13{fill:#006837;}.cls-14,.cls-15,.cls-17,.cls-24{fill:none;}.cls-14{stroke:#666;}.cls-14,.cls-17,.cls-24{stroke-miterlimit:10;}.cls-16{fill:#009245;}.cls-17{stroke:#b3e021;}.cls-18{fill:#ed1c24;}.cls-19{fill:#840c0c;}.cls-20{fill:#e8c600;}.cls-21{fill:#e21717;}.cls-22{fill:#4d770c;}.cls-23{fill:#050505;}.cls-24{stroke:#000;stroke-width:3px;}.cls-25{fill:#999;}.cls-26{fill:#b57c47;}.cls-27{fill:#a56c34;}.cls-28{fill:#c1272d;}.cls-29{fill:url(#radial-gradient);}.cls-30{fill:#603b20;}.cls-31{fill:url(#radial-gradient-2);}.cls-32{fill:gold;}</style><linearGradient id="linear-gradient" x1="1602.72" y1="583.11" x2="1616.55" y2="583.11" gradientTransform="translate(-619.51 759.19) rotate(-21.03)" gradientUnits="userSpaceOnUse"><stop offset="0" stop-color="#fff"/><stop offset="0.08" stop-color="#f6f6f6"/><stop offset="0.21" stop-color="#dcdcdc"/><stop offset="0.38" stop-color="#b3b3b3"/><stop offset="0.47" stop-color="#999"/><stop offset="0.87" stop-color="red"/><stop offset="0.99" stop-color="red"/></linearGradient><linearGradient id="linear-gradient-2" x1="1574.52" y1="576.37" x2="1588.35" y2="576.37" xlink:href="#linear-gradient"/><linearGradient id="linear-gradient-3" x1="1588.33" y1="579.47" x2="1602.16" y2="579.47" xlink:href="#linear-gradient"/><linearGradient id="linear-gradient-4" x1="1334.02" y1="669.95" x2="1347.86" y2="669.95" gradientTransform="translate(-388.1 850.59) rotate(-31.47)" xlink:href="#linear-gradient"/><linearGradient id="linear-gradient-5" x1="1457.57" y1="-2899.5" x2="1471.9" y2="-2899.5" gradientTransform="matrix(-0.48, 0.63, -0.64, -0.48, -71.89, -1576.15)" xlink:href="#linear-gradient"/><radialGradient id="radial-gradient" cx="143.5" cy="382.5" r="56.5" gradientUnits="userSpaceOnUse"><stop offset="0" stop-color="#cbe6ff"/><stop offset="0.01" stop-color="#b6dffa"/><stop offset="0.04" stop-color="#9bd5f5"/><stop offset="0.07" stop-color="#85cdf0"/><stop offset="0.1" stop-color="#74c7ec"/><stop offset="0.14" stop-color="#69c3ea"/><stop offset="0.19" stop-color="#62c1e8"/><stop offset="0.34" stop-color="#60c0e8"/></radialGradient><radialGradient id="radial-gradient-2" cx="471.5" cy="380.5" r="56.5" gradientUnits="userSpaceOnUse"><stop offset="0" stop-color="#ff9309"/><stop offset="0.17" stop-color="#fe9c19"/><stop offset="0.43" stop-color="#fca72c"/><stop offset="0.71" stop-color="#fbae37"/><stop offset="1" stop-color="#fbb03b"/></radialGradient></defs><title>Artboard 3</title><polygon class="cls-1" points="1097.62 733.53 1090.02 726.62 1082.41 719.7 1089.37 718.51 1096.32 717.32 1096.97 725.43 1097.62 733.53"/><path class="cls-2" d="M1133.27,822.15c-2.18,8.78-3.74,10.21-6.08,17.91-5.33,17.55-4.9,30.09-4.9,30.09s-8.74-24-7.46-51.14c1.07-22.6,7.59-48,13.17-47.09,4.31.65,7.94,17,8.23,28.45C1136.45,809.33,1134.64,816.59,1133.27,822.15Z"/><polygon class="cls-3" points="1068.88 737.37 1061.28 730.45 1053.67 723.53 1060.63 722.34 1067.58 721.15 1068.23 729.26 1068.88 737.37"/><polygon class="cls-4" points="1082.88 735.3 1075.28 728.38 1067.68 721.47 1074.63 720.27 1081.58 719.08 1082.23 727.19 1082.88 735.3"/><polygon class="cls-5" points="1111.63 728.52 1103.19 723.15 1094.75 717.77 1101.25 715.15 1107.76 712.52 1109.69 720.52 1111.63 728.52"/><polygon class="cls-6" points="1081.28 735.9 1088.76 737.28 1096.24 738.66 1092.26 742.82 1088.29 746.97 1084.78 741.43 1081.28 735.9"/><path class="cls-7" d="M1136,800.41c-3.32-14.09-5.84-19.08-6.68-20.69-1.67-3.18-4.45-8.49-9.41-12.88-12-10.63-24.73-5.3-30.29-15a11.57,11.57,0,0,1-1.71-6.09c.16-3.63,2.59-5.57,6.62-9.3,6.12-5.67,9.18-8.5,11.36-11.87a31.58,31.58,0,0,0,4.56-13c-10.49,6.33-18.55,8.12-24.12,8.52a91.18,91.18,0,0,0-12.91,1.22c-3.87.71-6.22,1.47-10.75,1.88a66.3,66.3,0,0,1-8.22.16c-11.75-.59-26.67-14.19-49.33-30.55-9.58-6.9-13.68-9.36-14.31-14s3.71-9.56,12.43-19a120.08,120.08,0,0,1,13-12.51A97.49,97.49,0,0,1,1034.47,635c9.91-5,18-6.32,31.78-8.47,11.8-1.84,18.34-2.86,27.74-2.41,9.66.46,18.76,3.07,37,8.29,20.77,6,27.81,9.65,34.28,14.58a80.15,80.15,0,0,1,10.88,10.07,63.26,63.26,0,0,1,17-.53c1.9.2,8.26,1.71,20.92,4.71,5.85,1.39,8.7,2.08,12.76,3.35,2.35.73,6.3,2,11.09,4a120.17,120.17,0,0,1,15.07,7.71,178.58,178.58,0,0,1,27.81,19.31c6.82,5.82,14.78,12.72,22.72,24.28,1.34,2,2.39,3.62,3.12,4.8-10.54-1.33-19.07-2.45-24.81-3.22,0,0-7.63-1-24-2.77-18.15-2-21.63-2-22.74.49-1.38,3.08,2.58,6.17,8.09,19.4,1.6,3.84,3.63,10.32,7.69,23.3,2.25,7.22,3.76,12,4.92,16.12a194.5,194.5,0,0,1,8,53.94c0,8.18-.07,15.9-2.26,25.62-2.27,10.13-5.73,17.43-11.94,28.6-14,25.18-27.26,28.73-25.22,40.46.78,4.46,2.5,3.21,9.81,17.23,4.81,9.22,7.86,15.08,9.6,23.32,1.92,9.06,1.24,16.2.58,23a95.4,95.4,0,0,1-4.57,21.27,85.86,85.86,0,0,1-15.47,27.7,99.91,99.91,0,0,1-18.54,21.38c-8.75,7.55-29.52,14.36-29.52,14.36s1.47-8.31,6.8-30.38c.41-1.71,0,.15,5.13-29.73,2.31-13.29,1.24-19.59.09-23-.37-1.11-.86-2.19-.86-2.19a30.05,30.05,0,0,0-3.62-6.11,147,147,0,0,1-18.28,13.78s-23.3,14.85-47.92,19.11a106.4,106.4,0,0,1-11.12,1.34c-7.82,1.22-12,.13-12,.13s3.87-19.88,7.5-26.89a105.2,105.2,0,0,1,15.56-22.49c2.73-3,7-6.74,15.56-14.23,7.87-6.89,16.52-14.15,19.18-16.38,12.75-10.67,12.89-10.45,13.84-12.07,7.81-13.4,1.31-33.72-.55-39.55-4.62-14.42-7.91-11.29-15.15-29.44-6.93-17.39-10.49-36.74-11.19-40.71C1138.63,813.26,1137.74,807.89,1136,800.41Z"/><path class="cls-2" d="M1204.13,769.87c5.25,7.93,5.51,10.34,9.91,17.69,10,16.75,19.29,24.83,19.29,24.83a125.2,125.2,0,0,1-40.64-27.69c-15.79-16.26-30.84-39.38-27.45-43.93,2.62-3.52,16.22,4.17,24.63,11.66C1196.46,758.29,1200.8,764.85,1204.13,769.87Z"/><path class="cls-8" d="M1105.47,653.25s-3.5,5.63-9.15,6.58-11.34-3.15-11.34-3.15,3.49-5.64,9.15-6.58S1105.47,653.25,1105.47,653.25Z"/><ellipse cx="1091.94" cy="655.51" rx="3.33" ry="2.49" transform="translate(-57.94 107.97) rotate(-5.51)"/><ellipse class="cls-9" cx="1090.71" cy="655.72" rx="0.41" ry="0.83" transform="translate(-124.4 277.4) rotate(-13.72)"/><path class="cls-10" d="M1201,643.52a1.57,1.57,0,0,1-.08.29h0c0,.21-.1.42-.16.63-1.73,6.51-5.23,15.47-12.37,17.37-4.49,1.2-8.7-.87-10.38-1.68-28.85-13.87-99.73-32.37-113-38.26a42.94,42.94,0,0,0-5.77-2.19c-1-.33-1.88-.56-2.06-.61-.76-.2-1.62-.41-2.78-.64-4.21-.83-6.6-.68-9.72-2.58a18.22,18.22,0,0,1-5.66-5.75q-.57-8.9-1.16-17.79c0-.54-.07-1.09-.1-1.64.61-.74,2.41-1.07,5.22-1l157.85,53.81Z"/><path class="cls-11" d="M1201,644.05a1.11,1.11,0,0,1-.16.39c-2.75,4.16-39.14-3.61-83-17.8-42.07-13.63-76.14-28.36-79.88-34.33,0-.54-.07-1.09-.1-1.64.61-.74,2.41-1.07,5.22-1,12,.23,42.44,7.49,77.7,18.91,43.5,14.08,78.44,29.36,80.15,34.9a1.06,1.06,0,0,1,.06.34h0A1,1,0,0,1,1201,644.05Z"/><path class="cls-10" d="M1101,615.92c4.94-30.37,17-52.41,26.82-49.21s13.88,30.42,9,60.79Z"/><ellipse class="cls-12" cx="1107.52" cy="605.41" rx="3.35" ry="3.95" transform="translate(-143.49 437.8) rotate(-21.03)"/><ellipse class="cls-13" cx="1121.05" cy="609.79" rx="3.35" ry="3.95" transform="translate(-144.16 442.95) rotate(-21.03)"/><ellipse class="cls-9" cx="1134.1" cy="614.01" rx="3.35" ry="3.95" transform="translate(-144.81 447.91) rotate(-21.03)"/><path class="cls-14" d="M1158.43,695c.23,8.71-5.85,15.21-13.59,14.51"/><path class="cls-14" d="M1166.33,702.55c.23,8.71-5.85,15.2-13.59,14.51"/><path class="cls-15" d="M1258.34,189.26l7.36,6.13"/><path class="cls-16" d="M1090.73,159.74c-7.9,14.29-6.82,13.35-8.59,15.95-10.9,16-30.28,20-31.28,20.24-4.3.82-15.91,2.9-28.21-3.07-1.76-.86-19.22-9.63-20.85-24.53-1.06-9.75,5.15-17.62,3.68-18.4s-6.62,5.95-9.81,11a49.72,49.72,0,0,0-3.07,5.52c-4.08,9.09-1.45,19.8,0,24.53-1.5-.2-3.6-.45-6.13-.61a62,62,0,0,0-10.43,0,36.87,36.87,0,0,0-11,2.45,34,34,0,0,0-11,7.36c-2.47,2.32-4.09,3.84-3.68,4.91.61,1.53,4.86.63,13.5.61a86.1,86.1,0,0,1,12.26.61c6,.82,10.45,2.38,16,4.3,3.93,1.37,6.75,2.57,12.26,4.9,8.6,3.64,9.14,4.25,12.88,5.52,1.15.39,5.58,1.87,14.72,3.07a153.23,153.23,0,0,0,23.31,1.22c15.71-.3,17.57-1.83,31.89-2.45,9.75-.42,8.24.32,29.43.61,18.82.27,19-.33,35.57,0,18.09.37,18,1.08,27,.62a212.91,212.91,0,0,0,28.82-3.68c9.65-1.79,16.81-3.68,21.47-4.91,9.79-2.59,16.43-4.36,25.14-8a116.93,116.93,0,0,0,12.75-6c2-1.1,4.07-2.37,6.26-3.83,1.19-.8,2.74-1.82,4.69-3.3a79.4,79.4,0,0,0,8.19-7.13l.81-.81c5-5.1,8.93-9.19,10.84-14.52,4.08-11.35-2.63-23.13-10.42-36.8-5.49-9.63-10.87-15.35-17.17-22.08a71,71,0,0,0-9.46-8.75,24.22,24.22,0,0,0-6.49-3.51c-5-1.82-9.31-1.83-14.1-1.84-9,0-11.2,1.8-21.47,3.06-3.6.45-10,.51-22.69.62-4.13,0-3.83,0-20.85,0-21.55,0-18.42,0-23.31,0s-9.82.35-14.71,0c-5.62-.4-9.3-1.14-14.11.61-.67.25-1.29.51-1.86.79a16.6,16.6,0,0,0-4.27,2.89,18.87,18.87,0,0,0-4.3,6.75c-3.17,7.15-3.8,5.92-7.36,13.49Z"/><path class="cls-10" d="M1083.37,88.6c0,.12,0,.23,0,.35h0c0,.25,0,.49.08.75.81,7.75,3.27,18.82,11.5,23.43,5.19,2.91,10.66,2.13,12.84,1.84,37.51-5,126.58-.08,143.7-1.84a56,56,0,0,1,7.39-.35c1.29,0,2.38,0,2.6.07,1,0,2,.12,3.47.28,5.24.58,8.1,1.6,12.23.62a18.28,18.28,0,0,0,7.94-4.3L1290,90.36c.14-.58.3-1.17.44-1.75-.59-1-2.69-2-6.09-3l-200.85,3Z"/><path class="cls-11" d="M1083.37,89.22a1.05,1.05,0,0,0,.11.48c2.5,5.53,47.89,9.94,103.53,9.94,53.39,0,97.35-4.06,103-9.28.14-.58.3-1.17.44-1.75-.59-1-2.69-2-6.09-3-14.5-4-52.63-6.85-97.38-6.85-55.2,0-100.31,4.34-103.47,9.81a1.7,1.7,0,0,0-.14.35h0A1.24,1.24,0,0,0,1083.37,89.22Z"/><path class="cls-10" d="M1209.36,93.86c0-35.06-10.16-63.48-22.69-63.48S1164,58.8,1164,93.86Z"/><circle class="cls-12" cx="1203.57" cy="80.02" r="4.29"/><circle class="cls-13" cx="1186.4" cy="80.02" r="4.29"/><circle class="cls-9" cx="1169.84" cy="80.02" r="4.29"/><ellipse class="cls-8" cx="1247.14" cy="139.66" rx="12.85" ry="12.73"/><circle cx="1249.01" cy="140.42" r="7.36"/><circle class="cls-9" cx="1250.85" cy="137.35" r="3.07"/><path class="cls-17" d="M1131,168a5.83,5.83,0,0,0,0,11.65"/><path class="cls-17" d="M1144.19,156.86a5.83,5.83,0,0,0,0,11.66"/><path class="cls-17" d="M1150.09,177.07a5.83,5.83,0,0,0,0,11.66"/><path class="cls-17" d="M1165.49,157.07a5.83,5.83,0,1,0,0,11.65"/><path class="cls-17" d="M1170.82,179.43a5.83,5.83,0,0,0,0,11.65"/><path class="cls-17" d="M1153,141.65a5.83,5.83,0,1,0,0,11.65"/><path class="cls-17" d="M1136.62,185.16a5.83,5.83,0,0,0,0,11.65"/><ellipse class="cls-8" cx="1251.66" cy="142.96" rx="12.85" ry="12.73"/><circle cx="1253.53" cy="143.72" r="7.36"/><circle class="cls-9" cx="1255.37" cy="140.66" r="3.07"/><path class="cls-18" d="M1260.38,188.88h0a1.34,1.34,0,0,1,0,1.45,8.64,8.64,0,0,0-1,6.13,7.6,7.6,0,0,0,6.07,6.08c.11,0,.09.17,0,.19a7.39,7.39,0,0,1-8.13-6.09,8.43,8.43,0,0,1,2.84-8C1260.26,188.69,1260.32,188.78,1260.38,188.88Z"/><ellipse class="cls-19" cx="1162.99" cy="499.43" rx="42.13" ry="16.51"/><path class="cls-19" d="M1205.12,499.43V380.75c0-30.22-19-54.95-42.13-54.95h0c-23.17,0-42.12,24.73-42.12,54.95V499.43Z"/><path class="cls-19" d="M1174.79,289.57a6.77,6.77,0,0,1-3.37.91h3.37v43.81h-27V290.48h3.37a6.77,6.77,0,0,1-3.37-.91v-2.46h27Z"/><path class="cls-20" d="M1178.16,283.74a6.58,6.58,0,0,1-2,4.75,5.78,5.78,0,0,1-1.38,1.08,6.77,6.77,0,0,1-3.37.91H1151.2a6.76,6.76,0,0,1-6.74-6.74,6.8,6.8,0,0,1,6.74-6.74h20.22A6.76,6.76,0,0,1,1178.16,283.74Z"/><polygon class="cls-20" points="1201.75 430.08 1124.05 430.08 1162.9 378.11 1201.75 430.08"/><polygon class="cls-20" points="1201.72 430.14 1162.87 482.11 1124.02 430.14 1201.72 430.14"/><path class="cls-21" d="M1183.47,430c-2.45,7.17-9,10.94-12.64,13-2.91,1.67-15.13,8.66-25.29,4.34-4.85-2.07-8.51-6.39-7.9-7.23.43-.59,2.86.77,6.32,1.45,8.41,1.65,15.87-2.13,17.39-2.89,4.47-2.27,13.19-8.19,12.64-14.45-.14-1.55-.81-2.8,0-4.33a5,5,0,0,1,1.61-1.77h0a7.57,7.57,0,0,1,1.5-.85,0,0,0,0,0,0,0,12.82,12.82,0,0,1,3.21-.24,13.19,13.19,0,0,1,1.87.18v0a4.41,4.41,0,0,1,1.73,2.28C1185.05,422.36,1184.56,426.83,1183.47,430Z"/><path class="cls-22" d="M1184,419.5a11.19,11.19,0,0,1-3.73.41c-2.63-.11-4.71-.84-4.68-1.64a.35.35,0,0,1,0-.13h0c.12-.36.68-.65,1.5-.85a0,0,0,0,0,0,0,12.82,12.82,0,0,1,3.21-.24,13.19,13.19,0,0,1,1.87.18v0A4.41,4.41,0,0,1,1184,419.5Z"/><path class="cls-22" d="M1179.45,417.85l-.09-2a5.35,5.35,0,0,1,0-1,3.78,3.78,0,0,1,3.68-3.11c.78,0,1.69.31,1.86,1l-1.62-.08a3.24,3.24,0,0,0-1.39.14,2.14,2.14,0,0,0-1.09,1.22,4.59,4.59,0,0,0-.15,3.18Z"/><rect class="cls-22" x="1147.83" y="293.85" width="26.96" height="23.59"/><path class="cls-19" d="M1178.16,292.17a1.68,1.68,0,0,1-1.68,1.68h-30.34a1.69,1.69,0,0,1,0-3.37h30.34A1.67,1.67,0,0,1,1178.16,292.17Z"/><path class="cls-23" d="M1577.42,133l-.05.1-2.81,5.95-5.33,4.8-1.92,1.74h0l-19.22,17.33-1.92,1.74-17.56,15.83-1.93,1.74-10.43,9.41c-1.65.41-3.31.75-5,1l14-12.61,1.93-1.74,17.56-15.83,1.92-1.74,19.22-17.33,1.93-1.74Z"/><path class="cls-23" d="M1577.25,109.82l5.79,8.64c-.34,1-.69,2.05-1,3.06l-6.68-10-1.45-2.16-12.42-18.54h0L1560,88.7h0l-16.49-24.59L1542.06,62l-.21-.32h3.09l.49.74L1561.92,87l1.45,2.16,12.43,18.54Z"/><path class="cls-24" d="M1591.91,61.63c0,.59,0,1.17,0,1.75a188.65,188.65,0,0,1-2.45,28.81l-.64,3.67s0,.06,0,.08c-.26,1.42-.54,2.83-.84,4.22a169.68,169.68,0,0,1-4.92,18.3c-.34,1-.69,2.05-1,3.06-1.39,3.94-2.92,7.78-4.58,11.48h0l-.05.1c-.89,2-1.83,4-2.81,5.95-1.21,2.41-2.48,4.77-3.81,7.06-.47.82-1,1.64-1.45,2.45a114.4,114.4,0,0,1-16.51,21.37c-.62.62-1.24,1.23-1.87,1.83A84.81,84.81,0,0,1,1532,185.58c-.76.4-1.54.8-2.31,1.17a69.53,69.53,0,0,1-13.45,4.9c-1.65.41-3.31.75-5,1-1.27.21-2.55.39-3.84.52q-1.48.15-3,.24c-1.23.08-2.47.11-3.72.11a63.85,63.85,0,0,1-14.45-1.65c-1-.22-2-.48-3-.76l-.37-.11c-1.42-.4-2.84-.86-4.23-1.36s-2.81-1.06-4.2-1.66l-.51-.22a77.32,77.32,0,0,1-12.31-6.91c-.72-.5-1.43-1-2.14-1.53a99.83,99.83,0,0,1-20.69-20.81c-.51-.69-1-1.38-1.52-2.09a129.12,129.12,0,0,1-9.53-15.6c-1.15-2.22-2.26-4.5-3.32-6.82l-.21-.47c-.37-.82-.74-1.65-1.09-2.48a161.78,161.78,0,0,1-9-27.72h0l-.15-.63c-.22-1-.43-1.93-.63-2.9s-.34-1.65-.5-2.47a187.82,187.82,0,0,1-3.39-35.14v-.6Z"/><path class="cls-23" d="M1507.41,193.21q-1.48.15-3,.24l-7.84-10.85-1.53-2.1-13-18-1.52-2.1-17.27-23.88-1.52-2.1-15.18-21-1.51-2.1-16-22.14-1.51-2.1-18-24.88v-.6h2.76l17.17,23.74,1.52,2.1,16,22.15,1.51,2.09,15.18,21,1.52,2.1,17.28,23.88,1.51,2.09,13,18,1.52,2.1Z"/><path class="cls-23" d="M1532,185.58c-.76.4-1.54.8-2.31,1.17l-3-4.51-1.45-2.16-9.75-14.54-1.45-2.16-12.43-18.54-1.45-2.16-16.48-24.59-1.45-2.16-14.49-21.6-1.44-2.16L1451,69.36l-1.45-2.16-3.73-5.57h3.09l2.57,3.83,1.45,2.16,15.28,22.81,1.45,2.16,14.48,21.6,1.45,2.16,16.49,24.59,1.45,2.16L1516,161.64l1.45,2.16,9.75,14.54,1.45,2.16Z"/><path class="cls-23" d="M1552.79,169.94c-.62.62-1.24,1.23-1.87,1.83l-4.75-7.1-1.45-2.16L1535,148l-1.44-2.16-12.44-18.54-1.45-2.16-16.48-24.59-1.45-2.16-14.48-21.6-1.45-2.16-8.68-13h3.09l7.52,11.22,1.45,2.16,14.48,21.6,1.45,2.16,16.49,24.59,1.45,2.16,12.43,18.54,1.44,2.16,9.75,14.55,1.45,2.16Z"/><path class="cls-23" d="M1570.75,146.12c-.47.82-1,1.64-1.45,2.45l-2-3h0l-1.45-2.16-9.76-14.55-1.45-2.16-12.43-18.54-1.44-2.16-16.49-24.58-1.45-2.16L1511,61.63h3.09l10.67,15.92,1.45,2.16,16.49,24.59,1.44,2.16L1556.59,125l1.45,2.16,9.75,14.55,1.44,2.16Z"/><path class="cls-23" d="M1414.14,103.37h0l16,21.4,1.55,2.08,15.47,20.7,1.55,2.07,17.62,23.57,1.54,2.07,10.78,14.42c1.39.5,2.81,1,4.23,1.36l-13.09-17.51-1.54-2.07-17.62-23.57-1.55-2.07-15.48-20.71-1.55-2.07-16.33-21.85-1.55-2.07-1.31-1.75c.16.82.33,1.65.5,2.47s.41,1.94.63,2.9Z"/><polygon class="cls-23" points="1589.45 92.19 1588.81 95.86 1576.41 77.36 1574.96 75.2 1565.87 61.63 1568.97 61.63 1576.89 73.46 1578.34 75.62 1589.45 92.19"/><path class="cls-23" d="M1459.57,61.63l-6.64,6L1451,69.36l-20.08,18.11L1429,89.21l-13.27,12-1.73,1.55c-.22-1-.43-1.93-.63-2.9l.81-.72,13.31-12,1.92-1.74,20.15-18.17,1.93-1.74,4.25-3.83Z"/><path class="cls-23" d="M1504,61.63,1489.15,75l-1.93,1.74-17.56,15.84-1.93,1.74-19.28,17.38-1.92,1.74-12.93,11.66-1.91,1.74-7.47,6.72c-.37-.82-.74-1.65-1.09-2.48l7-6.32,1.91-1.73,13-11.69,1.92-1.73,19.35-17.45,1.92-1.74,17.56-15.84,1.93-1.74,12.43-11.22Z"/><path class="cls-23" d="M1546.25,61.63l-.82.74-1.92,1.74-17.29,15.6-1.93,1.74-19.21,17.32-1.93,1.74-17.56,15.84-1.92,1.74-18.52,16.7-1.92,1.73-12.6,11.37-1.92,1.73-9.91,8.93c-.51-.69-1-1.38-1.52-2.09l9.88-8.91,1.92-1.73,12.63-11.4,1.92-1.73,18.59-16.76,1.92-1.74,17.56-15.84,1.93-1.74,19.21-17.32,1.93-1.74L1542.06,62l.35-.32Z"/><path class="cls-23" d="M1591.91,61.63c0,.59,0,1.17,0,1.75l-13.56,12.24-1.93,1.74-13,11.76-1.92,1.74h0l-17.3,15.6-1.93,1.73L1523,125.52l-1.94,1.74-17.55,15.84-1.93,1.74-17.66,15.92L1482,162.5l-12.23,11-1.92,1.73-6.24,5.63c-.72-.5-1.43-1-2.14-1.53l6.84-6.17,1.92-1.73,12.25-11.06,1.93-1.73,17.72-16,1.93-1.74,17.55-15.84,1.94-1.74L1540.78,106l1.93-1.73L1560,88.7h0l1.92-1.74,13-11.76,1.93-1.74L1590,61.63Z"/><path class="cls-23" d="M1588.8,95.94c-.26,1.42-.54,2.83-.84,4.22l-10.71,9.66-1.93,1.74L1558,127.15l-1.94,1.74-19.21,17.33L1535,148l-17.55,15.84-1.93,1.74-17,15.33-1.92,1.73-10.33,9.31c-1-.22-2-.48-3-.76L1495,180.5l1.93-1.73L1514,163.38l1.93-1.74,17.56-15.84,1.93-1.74,19.2-17.33,1.94-1.74,17.28-15.59,1.93-1.74Z"/><rect class="cls-25" x="1568.65" y="58.31" width="313.03" height="7.31" rx="3.66"/><rect class="cls-26" x="1405.15" y="52.33" width="190.74" height="18.61" rx="9.3"/><rect class="cls-27" x="1840.48" y="54.99" width="46.52" height="13.29" rx="6.65"/><circle class="cls-28" cx="1453" cy="374" r="11"/><circle class="cls-28" cx="1469" cy="331" r="11"/><circle class="cls-28" cx="1488" cy="305" r="11"/><circle class="cls-28" cx="1525" cy="284" r="11"/><circle class="cls-28" cx="1570" cy="284" r="11"/><circle class="cls-28" cx="1606" cy="302" r="11"/><circle class="cls-28" cx="1630" cy="335" r="11"/><circle class="cls-28" cx="1641" cy="374" r="11"/><path class="cls-13" d="M1441.06,393.61c0-7.29,12.53-13.47,13.61-20.38,1.13-7.19-8.83-16.93-6.67-23.6,2.24-6.91,16-8.89,19.28-15.11,3.36-6.44-2.83-18.93,1.47-24.47,4.45-5.73,18-2.72,23.35-7.32,5.47-4.73,4.6-18.64,10.82-22s17.29,5.09,24.22,3.33,12.47-14.46,19.74-14.43,12.81,12.78,19.63,14.58,18-6.58,24.24-3.15,5.23,17.29,10.66,22.06,18.89,1.73,23.3,7.49c4.26,5.58-2,18,1.28,24.48,3.2,6.24,17,8.32,19.17,15.26,2.12,6.68-7.92,16.34-6.85,23.54,1,6.93,13.5,13.2,13.47,20.48"/><path class="cls-10" d="M1452,394.66c0-57.25,42.31-103.66,94.5-103.66s94.5,46.41,94.5,103.66"/><rect class="cls-7" x="86" y="58" width="113" height="113"/><rect class="cls-2" x="87" y="191" width="113" height="113"/><rect class="cls-29" x="87" y="326" width="113" height="113"/><rect class="cls-28" x="699" y="190" width="113" height="113"/><rect class="cls-19" x="699" y="57" width="113" height="113"/><rect class="cls-21" x="699" y="323" width="113" height="113"/><rect class="cls-13" x="261" y="57" width="113" height="113"/><rect class="cls-16" x="262" y="190" width="113" height="113"/><rect class="cls-30" x="414" y="56" width="113" height="113"/><rect class="cls-26" x="415" y="189" width="113" height="113"/><rect class="cls-31" x="415" y="324" width="113" height="113"/><rect class="cls-32" x="555" y="57" width="113" height="113"/><rect class="cls-20" x="556" y="190" width="113" height="113"/><ellipse class="cls-19" cx="811.56" cy="845.53" rx="42.13" ry="16.51"/><path class="cls-19" d="M853.69,845.53V726.84c0-30.22-19-54.94-42.13-54.94h0c-23.17,0-42.13,24.72-42.13,54.94V845.53Z"/><path class="cls-19" d="M823.35,635.67a6.71,6.71,0,0,1-3.37.91h3.37v43.81h-27V636.58h3.37a6.77,6.77,0,0,1-3.37-.91v-2.46h27Z"/><path class="cls-20" d="M826.72,629.84a6.61,6.61,0,0,1-2,4.75,6.33,6.33,0,0,1-1.39,1.08,6.71,6.71,0,0,1-3.37.91H799.76a6.76,6.76,0,0,1-6.74-6.74,6.8,6.8,0,0,1,6.74-6.74H820A6.76,6.76,0,0,1,826.72,629.84Z"/><polygon class="cls-20" points="850.32 776.18 772.62 776.18 811.47 724.2 850.32 776.18"/><polygon class="cls-20" points="850.28 776.23 811.43 828.21 772.59 776.23 850.28 776.23"/><path class="cls-21" d="M832,776.12c-2.45,7.16-9,10.93-12.64,13-2.91,1.66-15.12,8.66-25.28,4.34-4.85-2.07-8.52-6.39-7.9-7.23.42-.59,2.86.77,6.32,1.45,8.4,1.64,15.86-2.13,17.38-2.89,4.47-2.27,13.2-8.2,12.64-14.45-.14-1.55-.8-2.81,0-4.34a5.07,5.07,0,0,1,1.61-1.76h0a7.39,7.39,0,0,1,1.5-.86h.05a13.22,13.22,0,0,1,3.21-.25,14.79,14.79,0,0,1,1.86.19l0,0a4.4,4.4,0,0,1,1.72,2.28C833.61,768.46,833.12,772.92,832,776.12Z"/><path class="cls-22" d="M832.54,765.6a11,11,0,0,1-3.73.4c-2.62-.1-4.71-.83-4.68-1.63a.61.61,0,0,1,0-.13h0c.13-.37.68-.65,1.5-.86h.05a13.22,13.22,0,0,1,3.21-.25,14.79,14.79,0,0,1,1.86.19l0,0A4.4,4.4,0,0,1,832.54,765.6Z"/><path class="cls-22" d="M828,763.94l-.1-1.94a6.41,6.41,0,0,1,0-1,3.8,3.8,0,0,1,3.68-3.12c.78,0,1.69.32,1.86,1l-1.61-.07a3.12,3.12,0,0,0-1.4.13,2.2,2.2,0,0,0-1.09,1.23,4.52,4.52,0,0,0-.14,3.18Z"/><rect class="cls-22" x="796.39" y="639.95" width="26.96" height="23.59"/><path class="cls-19" d="M826.72,638.26A1.69,1.69,0,0,1,825,640H794.71a1.69,1.69,0,0,1-1.69-1.69,1.67,1.67,0,0,1,1.69-1.68H825A1.66,1.66,0,0,1,826.72,638.26Z"/><path class="cls-19" d="M853.23,726.73c0-30.22-19-55-42.13-55h0c-23.17,0-42.13,24.73-42.13,55"/></svg>