<svg xmlns="http://www.w3.org/2000/svg" xmlns:xlink="http://www.w3.org/1999/xlink" width="1920" height="1086" viewBox="0 0 1920 1086"><defs><style>.cls-1{isolation:isolate;}.cls-2{fill:url(#radial-gradient);}.cls-3,.cls-6,.cls-8{fill:#fff;}.cls-3{opacity:0.94;}.cls-4{fill:#3f9aff;}.cls-5{fill:#629aff;}.cls-6,.cls-9{opacity:0.1;}.cls-7{opacity:0.15;}.cls-10{fill:url(#radial-gradient-2);}.cls-11{fill:url(#radial-gradient-3);}.cls-12{fill:url(#radial-gradient-4);}.cls-13{opacity:0.78;mix-blend-mode:multiply;}.cls-14{fill:url(#radial-gradient-5);}.cls-15{fill:url(#radial-gradient-6);}.cls-16{fill:#3f9df4;}.cls-17{fill:url(#linear-gradient);}.cls-18{fill:url(#linear-gradient-2);}.cls-19{fill:url(#linear-gradient-3);}.cls-20{fill:url(#linear-gradient-4);}.cls-21{fill:url(#linear-gradient-5);}.cls-22{fill:#0071bc;}.cls-23{fill:#eaeaea;}.cls-24{fill:#f7931e;}.cls-25{fill:#fbb03b;}.cls-26{fill:red;}.cls-27{fill:#006837;}.cls-28,.cls-30{fill:none;stroke-miterlimit:10;}.cls-28{stroke:#666;}.cls-29{fill:#050505;}.cls-30{stroke:#000;stroke-width:3px;}.cls-31{fill:#999;}.cls-32{fill:#b57c47;}.cls-33{fill:#a56c34;}</style><radialGradient id="radial-gradient" cx="899.84" cy="10.68" r="1328.28" gradientTransform="translate(-7.67)" gradientUnits="userSpaceOnUse"><stop offset="0" stop-color="#60bfe8"/><stop offset="0.1" stop-color="#70c5eb"/><stop offset="0.37" stop-color="#97d3f4"/><stop offset="0.62" stop-color="#b4ddfa"/><stop offset="0.84" stop-color="#c5e4fe"/><stop offset="1" stop-color="#cbe6ff"/></radialGradient><radialGradient id="radial-gradient-2" cx="20.71" cy="465.28" r="20.98" gradientTransform="matrix(0, 1.2, -1.14, 0, 1512.09, 805.18)" gradientUnits="userSpaceOnUse"><stop offset="0" stop-color="#fff"/><stop offset="0.06" stop-color="#e3f4fb"/><stop offset="0.19" stop-color="#b2e1f5"/><stop offset="0.32" stop-color="#88d0ef"/><stop offset="0.45" stop-color="#66c3ea"/><stop offset="0.58" stop-color="#4bb8e7"/><stop offset="0.72" stop-color="#38b1e4"/><stop offset="0.85" stop-color="#2dace3"/><stop offset="1" stop-color="#29abe2"/></radialGradient><radialGradient id="radial-gradient-3" cx="12.32" cy="394.99" r="20.98" gradientTransform="matrix(0, 1.2, -1.14, 0, 1445.38, 735.82)" xlink:href="#radial-gradient-2"/><radialGradient id="radial-gradient-4" cx="-0.27" cy="509.34" r="12.59" gradientTransform="matrix(0, 1.2, -1.14, 0, 1523.67, 871.19)" xlink:href="#radial-gradient-2"/><radialGradient id="radial-gradient-5" cx="-72.18" cy="268.43" r="207.21" gradientTransform="matrix(0, 1.16, -1.08, 0, 1186.35, 515.82)" gradientUnits="userSpaceOnUse"><stop offset="0" stop-color="#cbe6ff"/><stop offset="0.01" stop-color="#b6dffa"/><stop offset="0.04" stop-color="#9bd5f5"/><stop offset="0.07" stop-color="#85cdf0"/><stop offset="0.1" stop-color="#74c7ec"/><stop offset="0.14" stop-color="#69c3ea"/><stop offset="0.19" stop-color="#62c1e8"/><stop offset="0.34" stop-color="#60c0e8"/></radialGradient><radialGradient id="radial-gradient-6" cx="-8.66" cy="343.58" r="20.98" gradientTransform="matrix(0, 1.2, -1.14, 0, 1379.48, 697.84)" xlink:href="#radial-gradient-2"/><linearGradient id="linear-gradient" x1="516.06" y1="1124.61" x2="532.74" y2="1124.61" gradientTransform="translate(639.6 -417.68) rotate(-21.03)" gradientUnits="userSpaceOnUse"><stop offset="0" stop-color="#fff"/><stop offset="0.57" stop-color="#fff"/><stop offset="0.87" stop-color="red"/><stop offset="0.99" stop-color="red"/></linearGradient><linearGradient id="linear-gradient-2" x1="532.72" y1="1128.34" x2="549.4" y2="1128.34" xlink:href="#linear-gradient"/><linearGradient id="linear-gradient-3" x1="549.21" y1="1132.56" x2="565.89" y2="1132.56" xlink:href="#linear-gradient"/><linearGradient id="linear-gradient-4" x1="-561.62" y1="1415.2" x2="-544.94" y2="1415.2" gradientTransform="translate(1316.18 -1061.45) rotate(-31.47)" xlink:href="#linear-gradient"/><linearGradient id="linear-gradient-5" x1="382.13" y1="-12657.94" x2="399.41" y2="-12657.94" gradientTransform="matrix(-0.48, 0.63, -0.64, -0.48, -6410.72, -5857.9)" xlink:href="#linear-gradient"/></defs><title>Artboard 29</title><g class="cls-1"><g id="Layer_1" data-name="Layer 1"><rect class="cls-2" x="2.3" y="2.77" width="1913.7" height="1080"/><path class="cls-3" d="M1805.12,101.23l-2.68-8.08C1792,61.6,1770.81,42,1747,34.19a77,77,0,0,0-48,0c-24,7.85-45.34,27.77-55.71,59.73l-9.06,28c-26.46,81.69-125.82,85.59-157.09,6.14L1450.55,60.3a102,102,0,0,0-14.83-26.11c-33.18-42-92.37-41.51-125.27,0a102,102,0,0,0-16.3,30.13l-26.1,75.19c-13.13,37.75-42,58.33-72,61.1v2.67c-26.41-6-50.53-26.18-62.1-59.77L1118,97c-14.23-41.35-46.6-61.73-78.93-61.74-34,0-68,22.53-80.8,66.93-24.11,83.56-124.6,90.71-157.45,11.19L781.7,67.19a97.8,97.8,0,0,0-21.85-33C728.44,3.56,681,4.21,650,34.19c-10.92,10.55-19.81,24.75-25.25,42.5l-16.38,53.48c-24.56,80.15-120.33,88.53-155.16,13.58L413,57.22a101,101,0,0,0-14.59-23c-33.27-39.08-88.74-37.3-120.88,0-9.37,10.86-16.76,24.74-21,41.5l-6,23.45c-21.84,85.36-123.6,95.43-157.8,15.59L65.14,50.51a105.9,105.9,0,0,0-8.72-16.32H-17V339.43l97.05,0h14l149.75,0h10.12l166.53,0h20.75l170.82,0h10l167.23,0h24.21l138.81,0h12.12l148.95,0h11.9l70.81,0v4.34l77.84,0h11.29l177,.05h12.83l159,0h10.62l156.71,0h13.5l99.84,0V157.87C1874.14,175.05,1823.42,156.27,1805.12,101.23Z"/><path class="cls-4" d="M1808.89,164.21l-2.68-8.08c-28-84.11-131.71-83.59-159.06.77l-9.06,28c-26.47,81.7-125.83,85.61-157.1,6.16l-26.67-67.74c-30.87-78.45-128.6-75.94-156.39,4l-26.11,75.2c-13.13,37.74-42,58.32-72,61.09v2.67c-26.41-6-50.53-26.17-62.1-59.78l-16-46.54c-14.23-41.35-46.59-61.73-78.93-61.74-34,0-68,22.53-80.8,66.94-24.1,83.56-124.59,90.69-157.46,11.19l-19.09-46.16c-32.54-78.71-131.77-72.72-156.94,9.5l-16.38,53.48C587.59,273.3,491.83,281.68,457,206.73L416.75,120.2c-35.83-77.13-135.07-65.42-156.51,18.46l-6,23.45c-21.83,85.37-123.59,95.45-157.79,15.61L68.91,113.49C51.49,72.9,16.23,55.34-17,59.62V402.41l132.89,0,106,0,165.06,0,68.62,0H600.89l224,.06H847l83.09,0,205.76.05h64v4.35h62.5l228.79.05,127,0h0l226.77.05h0c-17.19-10.16-31.7-27.44-39.82-51.88l-2.69-8.09c-.34-1-.68-2-1.05-3h13.5l99.84,0V222.34C1874.82,236.85,1826.62,217.55,1808.89,164.21Z"/><path class="cls-5" d="M1914.68,407.22V276.61c-39.87,14.53-88.06-4.75-105.8-58.11l-2.68-8.07c-28-84.12-131.71-83.6-159.06.76l-9.06,28c-26.47,81.69-125.83,85.59-157.1,6.15l-26.67-67.74c-30.87-78.45-128.6-75.93-156.39,4l-26.11,75.2c-13.13,37.74-42,58.32-72,61.09v2.67c-26.41-6-50.53-26.18-62.1-59.77l-16-46.54c-14.23-41.36-46.59-61.74-78.93-61.75-34,0-68,22.53-80.8,66.93C937.9,303,837.42,310.13,804.55,230.61l-19.09-46.15c-32.54-78.7-131.77-72.71-156.94,9.49l-16.38,53.5c-.33,1-.66,2.08-1,3.11-22,65.23-92.29,80.5-134.31,39.09A97.5,97.5,0,0,1,457,261L416.74,174.5C380.91,97.37,281.67,109.07,260.23,193l-6,23.45C232.4,301.77,130.64,311.84,96.44,232L68.9,167.78C51.49,127.19,16.23,109.63-17,113.91V456.7l396.09.1,475.68.11,339.72.08h5.34v4.35l714.86.18V411.94a80.16,80.16,0,0,0,9.34-4.72Z"/><path class="cls-4" d="M-343.54,548.79c-1.55-.84-3.09-.94-4.63-1.69a6.91,6.91,0,0,1-2-1.48l-1.6-3.07a2,2,0,0,0-.06-1,1.88,1.88,0,0,0,2.31,1.27,1.82,1.82,0,0,0,1.09-2.37,1.9,1.9,0,0,0,2.33,1.26,1.82,1.82,0,0,0,1.09-2.36,1.88,1.88,0,0,0,2.32,1.26,1.82,1.82,0,0,0,1.1-2.36,1.08,1.08,0,0,0-.13-.29h0a1.89,1.89,0,0,0-2.2-1,1.84,1.84,0,0,0-1.17,2.06l-.05,0a1.85,1.85,0,0,0-2.19-1,1.8,1.8,0,0,0-1.18,2.05h0a1.87,1.87,0,0,0-2.19-1,1.83,1.83,0,0,0-1.18,2.06l-.05,0a1.82,1.82,0,0,0-2.45-.86,1.83,1.83,0,0,0-.91,2l-.05,0a1.83,1.83,0,0,0-2.45-.87,1.81,1.81,0,0,0-.91,1.94l0,0a1.84,1.84,0,0,0-2.46-.86,1.82,1.82,0,0,0-.91,1.95h-.05a1.84,1.84,0,0,0-2.46-.85,1.81,1.81,0,0,0-.91,1.93l-.05,0a1.82,1.82,0,0,0-2.45-.86,1.83,1.83,0,0,0-.91,2h0a1.83,1.83,0,0,0-2.45-.85,1.81,1.81,0,0,0-.92,1.94l-.05,0a1.84,1.84,0,0,0-2.45-.87,1.84,1.84,0,0,0-.91,1.95h-.05a1.91,1.91,0,0,0-1.92-1,1.77,1.77,0,0,0-1.44,2.12l-.06,0a1.89,1.89,0,0,0-1.91-1,1.81,1.81,0,0,0-1.45,2.13h-.06a1.86,1.86,0,0,0-1.91-1,1.78,1.78,0,0,0-1.45,2.11l-.06,0a1.89,1.89,0,0,0-1.9-1,1.78,1.78,0,0,0-1.45,2.12l-.06,0a1.86,1.86,0,0,0-1.91-1,1.79,1.79,0,0,0-1.45,2.11l-.06,0a1.87,1.87,0,0,0-1.91-1,1.77,1.77,0,0,0-1.44,2.11l0,0a1.88,1.88,0,0,0-1.92-1,1.77,1.77,0,0,0-1.44,2.12h-.06a1.86,1.86,0,0,0-2.19-1,1.79,1.79,0,0,0-1.18,2l0,0a1.89,1.89,0,0,0-2.2-1,1.83,1.83,0,0,0-1.17,2.06l0,0a1.85,1.85,0,0,0-2.19-1,1.8,1.8,0,0,0-1.18,2c0,.11,0,.21.08.32a2.08,2.08,0,0,0,.34.6h73.44C-337.39,555.85-340.08,550.66-343.54,548.79ZM1914.68,407.22V379.36c-34.73,14.75-76.93,3.09-99.84-35.14a108.56,108.56,0,0,1-9.76-21.48l-2.68-8.08c-28-84.11-131.71-83.6-159.07.76l-9.06,28c-.08.26-.17.53-.26.78-26.84,80.93-125.66,84.56-156.83,5.36l-2.12-5.4-24.55-62.34c-30.88-78.44-128.6-75.92-156.4,4l-20.22,58.26L1268,361c-7.09,20.39-18.76,35.77-32.73,46A78.31,78.31,0,0,1,1196,422.12v2.67a80.35,80.35,0,0,1-39.25-22.1c-9.6-9.69-17.53-22.27-22.84-37.68l-8.7-25.3-7.3-21.24c-14.23-41.36-46.6-61.73-78.93-61.74-34,0-68,22.53-80.8,66.93a111.94,111.94,0,0,1-5.94,16c-22.59,48.79-74.83,63.23-113.91,40.27h0c-14.29-8.39-26.81-21.77-35.49-40.31q-1.1-2.34-2.1-4.78l-6.88-16.61h0L781.66,288.7C756.8,228.57,693,217.88,653.07,252.84c-12.34,10.79-22.41,26-28.35,45.36L612,339.58l-3.7,12.1c-7,22.91-19.87,40-35.43,50.86-27,18.94-62.27,19.4-89.62,0-12-8.54-22.51-20.92-30.11-37.27l-12-25.72-7.17-15.44-21.11-45.37c-35.83-77.12-135.07-65.42-156.51,18.47l-6,23.45a111.65,111.65,0,0,1-6.62,18.84c-30.44,66.55-117.06,70.18-149.75,0-.48-1.06-1-2.13-1.43-3.22L65.1,272c-16.74-39-50-56.79-82.11-54.26V560.94l193.84,0h.33l236.71.06h0l406,.1h0l376.11.09v4.34l718.67.18V411.94a80.16,80.16,0,0,0,9.34-4.72Z"/><path class="cls-5" d="M-356.15,566.37l-2.91-5.51h6.91a29,29,0,0,1,2,5.52q.11.35.18.69c1.15,4.89,1.29,9.72,1.85,14.58ZM-14,560.94V250.33c32.08-2.51,65.34,15.21,82.09,54.26l15,34.86,12.58,29.38a97.29,97.29,0,0,0,23.25,33.61h0c30.85,28.3,75.67,27.37,105.94,0h0c12.94-11.69,23.19-28.17,28.59-49.26L257,339.5l2.48-9.74C280.89,245.88,380.13,234.18,416,311.3l11.09,23.86,2,4.38,27.12,58.3c.75,1.6,1.52,3.17,2.33,4.69,9.61,18.4,23.1,31.26,38.18,38.81,37.39,18.77,84.62,4.82,107.2-38.78h0a108.53,108.53,0,0,0,7.43-18.29l13.69-44.67,2.69-8.81c13.42-43.82,47.88-66,82.06-65.22,22.16.5,44.19,10.64,60.31,30.76h0a101.11,101.11,0,0,1,14.57,24.95l7.59,18.35,11.49,27.81c6.06,14.65,14.4,26.35,24.17,35.17h0a79.58,79.58,0,0,0,26.15,15.9c26.53,9.7,56.62,4.15,79-15.88h0c12.4-11,22.41-26.57,28.14-46.39a111,111,0,0,1,6.19-16.57c15.66-33.44,45.12-50.37,74.61-50.36,29.21,0,58.48,16.65,74.34,50.4a112.69,112.69,0,0,1,4.59,11.34l16,46.54c.61,1.73,1.22,3.43,1.9,5.09h0c11.9,29.89,34.18,48.19,58.62,54.3h0c.52.16,1,.26,1.54.39v-2.69c26.25-2.43,51.55-18.44,66.3-47.62h0A109.18,109.18,0,0,0,1271,393.6l17.18-49.5h0l8.93-25.69c27.79-80,125.51-82.46,156.39-4l11.73,29.75,14.93,38a103.63,103.63,0,0,0,14,25c33.35,43.58,94.13,42.85,127,0h0A103.1,103.1,0,0,0,1637.31,376l9.06-28c.41-1.3.86-2.58,1.29-3.82h0c28.87-79.57,127.75-79.77,156.71,0h0c.38,1,.71,2,1.05,3l2.69,8.09c8.13,24.44,22.64,41.72,39.82,51.88h0a77.11,77.11,0,0,0,69.76,4.74V598.33L1199,598.16v-4.35l-404.93-.1-348.4-.09L-14,593.52V561l-319.09-.08c.06.23.12.46.17.69a45.58,45.58,0,0,1,.86,4.82c.43,3.25.61,6.49,1,9.75l6.32,12c.29.15.59.31.87.49a12.22,12.22,0,0,1,3.85,4.8h-69.27A98.7,98.7,0,0,1-395.83,582c-2.2-4.91-3.39-11-1.68-14.7a7.72,7.72,0,0,1,.58-1,30,30,0,0,0,2.1-3,6.58,6.58,0,0,0,.69-2.32l0-.13h-9.5a1.57,1.57,0,0,1-.86.65,1.81,1.81,0,0,1-2-.65h0a2.05,2.05,0,0,1-.33-.6c0-.11-.06-.21-.08-.32a1.79,1.79,0,0,1,1.17-2,1.87,1.87,0,0,1,2.2,1l.05,0a1.81,1.81,0,0,1,1.17-2.06,1.87,1.87,0,0,1,2.19,1l0,0a1.8,1.8,0,0,1,1.19-2,1.84,1.84,0,0,1,2.18,1h.06a1.78,1.78,0,0,1,1.45-2.12,1.86,1.86,0,0,1,1.91,1l.05,0a1.78,1.78,0,0,1,1.45-2.11,1.88,1.88,0,0,1,1.91,1l.06,0a1.78,1.78,0,0,1,1.45-2.11,1.88,1.88,0,0,1,1.91,1l.06,0A1.78,1.78,0,0,1-385,551.2a1.89,1.89,0,0,1,1.9,1l.07,0a1.77,1.77,0,0,1,1.44-2.11,1.86,1.86,0,0,1,1.91,1h.06a1.81,1.81,0,0,1,1.45-2.13,1.88,1.88,0,0,1,1.91,1l.06,0a1.78,1.78,0,0,1,1.45-2.12,1.89,1.89,0,0,1,1.91,1h.05a1.82,1.82,0,0,1,.91-1.94,1.83,1.83,0,0,1,2.46.86l0,0a1.8,1.8,0,0,1,.91-1.94,1.84,1.84,0,0,1,2.46.85h.05a1.82,1.82,0,0,1,.91-2,1.83,1.83,0,0,1,2.45.86l.05,0a1.79,1.79,0,0,1,.91-1.93,1.83,1.83,0,0,1,2.45.85h.05a1.83,1.83,0,0,1,.91-1.95,1.83,1.83,0,0,1,2.46.86l.05,0a1.81,1.81,0,0,1,.91-1.94,1.83,1.83,0,0,1,2.45.87l.05,0a1.83,1.83,0,0,1,.91-2,1.84,1.84,0,0,1,2.46.86l.05,0a1.83,1.83,0,0,1,1.17-2.06,1.89,1.89,0,0,1,2.2,1h0a1.79,1.79,0,0,1,1.17-2.05,1.86,1.86,0,0,1,2.2,1l.05,0a1.82,1.82,0,0,1,1.17-2.06,1.87,1.87,0,0,1,2.19,1h0a1.17,1.17,0,0,1,.13.28,1.82,1.82,0,0,1-1.1,2.37,1.87,1.87,0,0,1-2.31-1.26,1.83,1.83,0,0,1-1.1,2.36,1.88,1.88,0,0,1-2.32-1.26,1.83,1.83,0,0,1-1.09,2.37,1.89,1.89,0,0,1-2.32-1.27,2,2,0,0,1,.06,1l1.61,3.07a6.88,6.88,0,0,0,2,1.48c1.55.75,3.09.85,4.63,1.69,3.46,1.88,6.15,7.06,7.45,12.07Z"/><path class="cls-5" d="M1916,555.62V1085H-14V555.16l193.66,0H180l236.5.06h0l405.65.1h0l375.78.1Z"/><path class="cls-6" d="M1912.79,793.72v94.85q-141.37-3.77-282.75-6.35Q1113.62,872.71,597,878.49q-96.12,1.1-192.22,2.69-17.14.29-34.29.59-51.45.9-102.89,2-51.07,1-102.13,2.25l-28.2.67q-65.48,1.61-131,3.43V843.36q48.55.35,98.68.4,20.11,0,39.82,0l9.76,0q69.4-.16,133.86-1,37.75-.43,74-1.08h0q16.6-.27,32.91-.59c73-1.44,141.82-3.38,207.7-5.64,4.48-.14,8.93-.3,13.37-.45,60.42-2.15,118.42-4.55,175.08-7.06h0l9.37-.43,6.24-.27,10.43-.48,34.41-1.6c124.2-5.79,243.53-12,369.44-17.11C1412,800.33,1643.87,794.08,1912.79,793.72Z"/><path class="cls-6" d="M1893.8,519V622.47Q1331.09,599.5,769.24,603q-145.85.9-291.64,3.58l-15.72.3h0q-15.33.29-30.64.61h0c-1.39,0-2.76,0-4.16.08l-4,.09h0c-5.23.09-10.46.21-15.7.31q-82.4,1.74-164.78,4.08-127.63,3.59-255.22,8.57V560.86c67-.87,130.57-2,191.3-3.26h.33c81.15-1.74,157.22-3.81,229.43-6.08q35.55-1.12,69.88-2.31c124.83-4.28,238.69-9.1,348.77-13.71h0c269.45-11.29,516.23-21.38,845.39-19.54C1736.55,516.33,1810.65,517.18,1893.8,519Z"/><path class="cls-6" d="M1895.73,791.92V890.1q-141.63-3.89-283.27-6.57-517.37-9.84-1035-3.86-96.29,1.13-192.57,2.78l-34.35.61q-51.54.95-103.08,2-51.17,1.08-102.32,2.33l-28.25.7q-65.59,1.65-131.19,3.55V843.3q48.65.36,98.86.42,20.16,0,39.89,0l9.78,0q69.54-.18,134.11-1,37.81-.45,74.13-1.11h0q16.64-.29,33-.62c73.15-1.49,142.08-3.49,208.09-5.83l13.39-.47c60.53-2.23,118.64-4.71,175.4-7.31h0l9.39-.44c2.08-.11,4.17-.2,6.25-.28l10.45-.5,34.47-1.66c124.43-6,244-12.42,370.12-17.71C1394.05,798.76,1626.32,792.29,1895.73,791.92Z"/><path class="cls-6" d="M1900.73,505.36V612.5Q1337,588.74,774.11,592.35q-146.11.93-292.18,3.71l-15.74.31h0q-15.36.28-30.7.63h0c-1.39,0-2.77,0-4.17.08l-4.05.09h0l-15.72.33q-82.56,1.8-165.09,4.22-127.86,3.71-255.69,8.87V548.73c67.1-.9,130.81-2,191.66-3.38h.33c81.3-1.8,157.5-3.94,229.85-6.29q35.61-1.17,70-2.39c125.05-4.43,239.12-9.42,349.41-14.19h0c269.94-11.69,517.17-22.13,846.94-20.23C1743.2,502.63,1817.43,503.51,1900.73,505.36Z"/><g class="cls-7"><path class="cls-8" d="M136.78,959.67c-3.63-11.09-14.7-17.36-24.72-14s-15.2,15-11.57,26.12Z"/><ellipse class="cls-8" cx="101.45" cy="971.62" rx="0.96" ry="1.05" transform="translate(-274.99 70.16) rotate(-16.7)"/><ellipse class="cls-8" cx="103.26" cy="971.02" rx="0.96" ry="1.05" transform="translate(-274.74 70.65) rotate(-16.7)"/><ellipse class="cls-8" cx="105.08" cy="970.41" rx="0.96" ry="1.05" transform="translate(-274.49 71.15) rotate(-16.7)"/><ellipse class="cls-8" cx="106.89" cy="969.81" rx="0.96" ry="1.05" transform="translate(-274.24 71.65) rotate(-16.7)"/><ellipse class="cls-8" cx="108.71" cy="969.2" rx="0.96" ry="1.05" transform="translate(-273.99 72.14) rotate(-16.7)"/><ellipse class="cls-8" cx="110.52" cy="968.6" rx="0.96" ry="1.05" transform="translate(-273.74 72.64) rotate(-16.7)"/><ellipse class="cls-8" cx="112.34" cy="967.99" rx="0.96" ry="1.05" transform="translate(-273.49 73.13) rotate(-16.7)"/><ellipse class="cls-8" cx="114.15" cy="967.39" rx="0.96" ry="1.05" transform="translate(-273.24 73.63) rotate(-16.7)"/><ellipse class="cls-8" cx="115.96" cy="966.79" rx="0.96" ry="1.05" transform="translate(-272.99 74.13) rotate(-16.7)"/><ellipse class="cls-8" cx="117.78" cy="966.18" rx="0.96" ry="1.05" transform="translate(-272.74 74.62) rotate(-16.7)"/><ellipse class="cls-8" cx="135.92" cy="960.14" rx="0.96" ry="1.05" transform="translate(-270.23 79.58) rotate(-16.7)"/><ellipse class="cls-8" cx="134.11" cy="960.74" rx="0.96" ry="1.05" transform="translate(-270.48 79.09) rotate(-16.7)"/><ellipse class="cls-8" cx="132.29" cy="961.35" rx="0.96" ry="1.05" transform="translate(-270.73 78.59) rotate(-16.7)"/><ellipse class="cls-8" cx="130.48" cy="961.95" rx="0.96" ry="1.05" transform="translate(-270.98 78.09) rotate(-16.7)"/><ellipse class="cls-8" cx="128.67" cy="962.55" rx="0.96" ry="1.05" transform="translate(-271.23 77.6) rotate(-16.7)"/><ellipse class="cls-8" cx="126.85" cy="963.16" rx="0.96" ry="1.05" transform="translate(-271.48 77.1) rotate(-16.7)"/><ellipse class="cls-8" cx="125.04" cy="963.76" rx="0.96" ry="1.05" transform="translate(-271.73 76.61) rotate(-16.7)"/><ellipse class="cls-8" cx="123.22" cy="964.37" rx="0.96" ry="1.05" transform="translate(-271.98 76.11) rotate(-16.7)"/><ellipse class="cls-8" cx="121.41" cy="964.97" rx="0.96" ry="1.05" transform="translate(-272.23 75.61) rotate(-16.7)"/><ellipse class="cls-8" cx="119.59" cy="965.58" rx="0.96" ry="1.05" transform="translate(-272.49 75.12) rotate(-16.7)"/><path class="cls-8" d="M107,970.36a3.86,3.86,0,0,1,0,3.25c-.42.82-1,1.36-1.43,2.21-.91,2-.28,5.38.89,8.07a83.61,83.61,0,0,0,4.2,7.48c.94,1.67,1.84,3.79,1.51,5.42a14.4,14.4,0,0,1-.78,1.93c-.81,2.35.49,5.88,1.72,8.78Z"/><path class="cls-8" d="M113.18,967.57a8.34,8.34,0,0,0-2.15,7.1,3.59,3.59,0,0,0,.38,1.23,3.39,3.39,0,0,0,1.29,1.23c1.62,1,3.51,1.3,5.2,2.15s3.29,2.6,3.09,4.55-1.92,3.18-1.92,5a4,4,0,0,0,1.41,2.85,10.48,10.48,0,0,0,2.7,1.62Z"/><path class="cls-8" d="M113.31,967.78a3.84,3.84,0,0,1,0,3.24c-.42.83-1,1.36-1.43,2.22-.91,2-.28,5.38.89,8.07a83.61,83.61,0,0,0,4.2,7.48c.94,1.66,1.84,3.79,1.51,5.42a14.4,14.4,0,0,1-.78,1.93c-.81,2.35.49,5.88,1.72,8.78Z"/><path class="cls-8" d="M116.94,966.57a3.86,3.86,0,0,1,0,3.25c-.42.82-1,1.36-1.43,2.21-.91,2-.28,5.38.89,8.07a83.61,83.61,0,0,0,4.2,7.48c.94,1.67,1.84,3.79,1.51,5.42a14.4,14.4,0,0,1-.78,1.93c-.82,2.35.48,5.88,1.72,8.78Z"/><path class="cls-8" d="M131.38,962.13a3.77,3.77,0,0,0,2,2.58c.82.41,1.64.47,2.45.93,1.93,1.07,3.4,4.14,4.05,7a80.4,80.4,0,0,1,1,8.53c.23,1.9.76,4.15,2,5.26a13.1,13.1,0,0,0,1.77,1.08c2,1.4,3.08,5,3.79,8.08Z"/><path class="cls-8" d="M125.83,963.61a3.79,3.79,0,0,0,1.94,2.58c.82.41,1.64.47,2.46.93,1.93,1.08,3.4,4.15,4.05,7a80.68,80.68,0,0,1,1,8.53c.24,1.9.77,4.15,2,5.26a13.65,13.65,0,0,0,1.76,1.08c2,1.4,3.09,5,3.8,8.09Z"/><path class="cls-8" d="M122.31,965.15a3.79,3.79,0,0,0,1.94,2.58c.82.41,1.64.47,2.46.93,1.93,1.08,3.4,4.15,4,7a80.68,80.68,0,0,1,1,8.53c.24,1.9.77,4.16,2,5.26a13.65,13.65,0,0,0,1.76,1.08c2,1.4,3.09,5,3.8,8.09Z"/><path class="cls-8" d="M118.79,966.16c1.84,2.68-.17,6.55,1.14,9.55a7.8,7.8,0,0,0,1.75,2.32c2.64,2.57,6.07,4.88,6.75,8.58a20.11,20.11,0,0,1,.13,3.47,19.53,19.53,0,0,0,3.66,11.12Z"/></g><g class="cls-9"><ellipse class="cls-8" cx="717.3" cy="782.85" rx="81.54" ry="31.7"/><polygon class="cls-8" points="791.59 780.79 838.8 745.11 841.23 811.48 791.59 780.79"/></g><g class="cls-9"><ellipse class="cls-8" cx="380.77" cy="719.78" rx="78.44" ry="30.5"/><polygon class="cls-8" points="452.24 717.8 497.65 683.47 499.99 747.32 452.24 717.8"/></g><g class="cls-9"><ellipse class="cls-8" cx="403.54" cy="961.88" rx="76.85" ry="29.88"/><polygon class="cls-8" points="473.55 959.94 518.05 926.31 520.34 988.86 473.55 959.94"/></g><g class="cls-7"><path class="cls-8" d="M1317.42,945c-6.8-24.41-27.51-38.24-46.26-30.89s-28.45,33.1-21.65,57.51Z"/><ellipse class="cls-8" cx="1251.31" cy="971.33" rx="1.8" ry="2.3" transform="translate(-92.8 133.11) rotate(-5.87)"/><ellipse class="cls-8" cx="1254.7" cy="970" rx="1.8" ry="2.3" transform="translate(-92.65 133.45) rotate(-5.87)"/><ellipse class="cls-8" cx="1258.1" cy="968.67" rx="1.8" ry="2.3" transform="translate(-92.5 133.79) rotate(-5.87)"/><ellipse class="cls-8" cx="1261.49" cy="967.34" rx="1.8" ry="2.3" transform="translate(-92.34 134.13) rotate(-5.87)"/><ellipse class="cls-8" cx="1264.89" cy="966.01" rx="1.8" ry="2.3" transform="translate(-92.19 134.47) rotate(-5.87)"/><ellipse class="cls-8" cx="1268.28" cy="964.68" rx="1.8" ry="2.3" transform="translate(-92.03 134.81) rotate(-5.87)"/><ellipse class="cls-8" cx="1271.68" cy="963.35" rx="1.8" ry="2.3" transform="translate(-91.88 135.15) rotate(-5.87)"/><ellipse class="cls-8" cx="1275.08" cy="962.01" rx="1.8" ry="2.3" transform="translate(-91.73 135.49) rotate(-5.87)"/><ellipse class="cls-8" cx="1278.47" cy="960.68" rx="1.8" ry="2.3" transform="translate(-91.57 135.83) rotate(-5.87)"/><ellipse class="cls-8" cx="1281.87" cy="959.35" rx="1.8" ry="2.3" transform="translate(-91.42 136.17) rotate(-5.87)"/><ellipse class="cls-8" cx="1315.82" cy="946.04" rx="1.8" ry="2.3" transform="translate(-89.88 139.58) rotate(-5.87)"/><ellipse class="cls-8" cx="1312.43" cy="947.37" rx="1.8" ry="2.3" transform="translate(-90.03 139.24) rotate(-5.87)"/><ellipse class="cls-8" cx="1309.03" cy="948.7" rx="1.8" ry="2.3" transform="translate(-90.19 138.9) rotate(-5.87)"/><ellipse class="cls-8" cx="1305.64" cy="950.03" rx="1.8" ry="2.3" transform="translate(-90.34 138.55) rotate(-5.87)"/><ellipse class="cls-8" cx="1302.24" cy="951.36" rx="1.8" ry="2.3" transform="translate(-90.49 138.21) rotate(-5.87)"/><ellipse class="cls-8" cx="1298.84" cy="952.7" rx="1.8" ry="2.3" transform="translate(-90.65 137.87) rotate(-5.87)"/><ellipse class="cls-8" cx="1295.45" cy="954.03" rx="1.8" ry="2.3" transform="translate(-90.8 137.53) rotate(-5.87)"/><ellipse class="cls-8" cx="1292.05" cy="955.36" rx="1.8" ry="2.3" transform="matrix(0.99, -0.1, 0.1, 0.99, -90.96, 137.19)"/><ellipse class="cls-8" cx="1288.66" cy="956.69" rx="1.8" ry="2.3" transform="translate(-91.11 136.85) rotate(-5.87)"/><ellipse class="cls-8" cx="1285.26" cy="958.02" rx="1.8" ry="2.3" transform="translate(-91.26 136.51) rotate(-5.87)"/><path class="cls-8" d="M1261.63,968.56a9.71,9.71,0,0,1-.07,7.14c-.78,1.81-2,3-2.67,4.89-1.7,4.46-.52,11.84,1.66,17.77s5.24,11,7.87,16.46c1.75,3.68,3.44,8.37,2.82,11.95a35.73,35.73,0,0,1-1.46,4.24c-1.53,5.17.91,13,3.22,19.33Z"/><path class="cls-8" d="M1273.26,962.41c-3.26,3.84-4.81,9.88-4,15.63a9.48,9.48,0,0,0,.71,2.72,7.12,7.12,0,0,0,2.41,2.7c3.05,2.18,6.58,2.86,9.74,4.74s6.16,5.74,5.79,10c-.34,4.08-3.59,7-3.6,11.12a9.39,9.39,0,0,0,2.64,6.28,19.45,19.45,0,0,0,5.06,3.56Z"/><path class="cls-8" d="M1273.5,962.88a9.76,9.76,0,0,1-.08,7.14c-.78,1.81-1.94,3-2.66,4.89-1.71,4.45-.53,11.83,1.66,17.76s5.24,11,7.86,16.47c1.76,3.67,3.45,8.36,2.82,11.94a33.14,33.14,0,0,1-1.46,4.25c-1.52,5.17.91,13,3.23,19.33Z"/><path class="cls-8" d="M1280.29,960.21a9.84,9.84,0,0,1-.07,7.15c-.78,1.81-2,3-2.67,4.88-1.71,4.46-.53,11.84,1.66,17.77s5.24,11,7.86,16.47c1.76,3.67,3.45,8.36,2.83,11.94a34.76,34.76,0,0,1-1.47,4.25c-1.52,5.17.91,13,3.23,19.33Z"/><path class="cls-8" d="M1307.32,950.43a8.26,8.26,0,0,0,3.64,5.68c1.54.9,3.07,1,4.6,2,3.6,2.38,6.36,9.14,7.58,15.45s1.3,12.51,1.95,18.78c.43,4.19,1.43,9.15,3.73,11.59,1.06,1.12,2.21,1.49,3.3,2.37,3.82,3.08,5.78,11.06,7.11,17.82Z"/><path class="cls-8" d="M1296.93,953.69a8.3,8.3,0,0,0,3.64,5.69c1.54.9,3.07,1,4.6,2,3.6,2.38,6.36,9.14,7.58,15.45s1.3,12.51,2,18.79c.43,4.19,1.43,9.15,3.73,11.58,1.06,1.13,2.21,1.49,3.3,2.38,3.82,3.08,5.78,11,7.11,17.81Z"/><path class="cls-8" d="M1290.34,957.08a8.28,8.28,0,0,0,3.64,5.69c1.54.9,3.07,1,4.6,2,3.61,2.37,6.36,9.13,7.58,15.44s1.3,12.52,1.95,18.79c.44,4.19,1.43,9.15,3.73,11.59,1.06,1.12,2.21,1.49,3.31,2.37,3.82,3.08,5.77,11.06,7.11,17.81Z"/><path class="cls-8" d="M1283.77,959.3c3.43,5.91-.33,14.43,2.12,21a16.73,16.73,0,0,0,3.28,5.1c4.94,5.67,11.36,10.75,12.63,18.91a52.64,52.64,0,0,1,.24,7.64,48.71,48.71,0,0,0,6.84,24.49Z"/></g><g class="cls-7"><path class="cls-8" d="M1240.74,685.1c-6.8-24.41-27.51-38.24-46.26-30.89s-28.45,33.11-21.65,57.52Z"/><ellipse class="cls-8" cx="1174.63" cy="711.43" rx="1.8" ry="2.3" transform="translate(-66.62 123.9) rotate(-5.87)"/><ellipse class="cls-8" cx="1178.02" cy="710.1" rx="1.8" ry="2.3" transform="translate(-66.46 124.24) rotate(-5.87)"/><ellipse class="cls-8" cx="1181.42" cy="708.77" rx="1.8" ry="2.3" transform="translate(-66.31 124.58) rotate(-5.87)"/><ellipse class="cls-8" cx="1184.81" cy="707.43" rx="1.8" ry="2.3" transform="translate(-66.16 124.92) rotate(-5.87)"/><ellipse class="cls-8" cx="1188.21" cy="706.1" rx="1.8" ry="2.3" transform="translate(-66 125.26) rotate(-5.87)"/><ellipse class="cls-8" cx="1191.61" cy="704.77" rx="1.8" ry="2.3" transform="translate(-65.85 125.6) rotate(-5.87)"/><ellipse class="cls-8" cx="1195" cy="703.44" rx="1.8" ry="2.3" transform="translate(-65.69 125.94) rotate(-5.87)"/><ellipse class="cls-8" cx="1198.4" cy="702.11" rx="1.8" ry="2.3" transform="translate(-65.54 126.28) rotate(-5.87)"/><ellipse class="cls-8" cx="1201.79" cy="700.78" rx="1.8" ry="2.3" transform="translate(-65.39 126.62) rotate(-5.87)"/><ellipse class="cls-8" cx="1205.19" cy="699.45" rx="1.8" ry="2.3" transform="translate(-65.23 126.96) rotate(-5.87)"/><ellipse class="cls-8" cx="1239.14" cy="686.13" rx="1.8" ry="2.3" transform="translate(-63.69 130.37) rotate(-5.87)"/><ellipse class="cls-8" cx="1235.75" cy="687.46" rx="1.8" ry="2.3" transform="translate(-63.85 130.03) rotate(-5.87)"/><ellipse class="cls-8" cx="1232.35" cy="688.8" rx="1.8" ry="2.3" transform="matrix(0.99, -0.1, 0.1, 0.99, -64, 129.69)"/><ellipse class="cls-8" cx="1228.96" cy="690.13" rx="1.8" ry="2.3" transform="translate(-64.15 129.35) rotate(-5.87)"/><ellipse class="cls-8" cx="1225.56" cy="691.46" rx="1.8" ry="2.3" transform="translate(-64.31 129.01) rotate(-5.87)"/><ellipse class="cls-8" cx="1222.17" cy="692.79" rx="1.8" ry="2.3" transform="translate(-64.46 128.67) rotate(-5.87)"/><ellipse class="cls-8" cx="1218.77" cy="694.12" rx="1.8" ry="2.3" transform="translate(-64.62 128.33) rotate(-5.87)"/><ellipse class="cls-8" cx="1215.37" cy="695.45" rx="1.8" ry="2.3" transform="translate(-64.77 127.99) rotate(-5.87)"/><ellipse class="cls-8" cx="1211.98" cy="696.78" rx="1.8" ry="2.3" transform="translate(-64.92 127.64) rotate(-5.87)"/><ellipse class="cls-8" cx="1208.58" cy="698.11" rx="1.8" ry="2.3" transform="translate(-65.08 127.3) rotate(-5.87)"/><path class="cls-8" d="M1185,708.65a9.78,9.78,0,0,1-.08,7.15c-.78,1.81-2,3-2.67,4.88-1.7,4.46-.52,11.84,1.67,17.77s5.23,11,7.86,16.47c1.75,3.67,3.44,8.36,2.82,11.94-.28,1.65-1,2.76-1.46,4.25-1.52,5.17.91,13,3.23,19.33Z"/><path class="cls-8" d="M1196.58,702.5c-3.26,3.84-4.81,9.88-4,15.64a9.41,9.41,0,0,0,.71,2.71,7.09,7.09,0,0,0,2.42,2.71c3,2.17,6.57,2.86,9.73,4.73s6.16,5.74,5.79,10c-.34,4.07-3.59,7-3.6,11.12a9.43,9.43,0,0,0,2.64,6.28,19.41,19.41,0,0,0,5.06,3.55Z"/><path class="cls-8" d="M1196.82,703a9.81,9.81,0,0,1-.07,7.14c-.78,1.81-2,3-2.67,4.89-1.71,4.46-.53,11.84,1.66,17.77s5.24,11,7.86,16.46c1.76,3.68,3.45,8.37,2.83,11.95a34,34,0,0,1-1.47,4.24c-1.52,5.18.91,13,3.23,19.34Z"/><path class="cls-8" d="M1203.61,700.31a9.76,9.76,0,0,1-.07,7.14c-.78,1.81-2,3-2.67,4.89-1.71,4.46-.53,11.83,1.66,17.76s5.24,11,7.87,16.47c1.75,3.67,3.44,8.36,2.82,11.94a34.76,34.76,0,0,1-1.47,4.25c-1.52,5.17.92,13,3.23,19.33Z"/><path class="cls-8" d="M1230.64,690.52a8.3,8.3,0,0,0,3.64,5.69c1.54.9,3.07,1,4.6,2,3.61,2.38,6.36,9.14,7.58,15.45s1.3,12.51,2,18.79c.43,4.19,1.43,9.15,3.73,11.58,1.06,1.13,2.21,1.49,3.31,2.38,3.81,3.08,5.77,11,7.11,17.81Z"/><path class="cls-8" d="M1220.25,693.79a8.28,8.28,0,0,0,3.64,5.68c1.54.9,3.07,1,4.6,2,3.61,2.37,6.36,9.13,7.58,15.44s1.3,12.52,2,18.79c.43,4.19,1.43,9.15,3.73,11.59,1.06,1.12,2.21,1.49,3.31,2.37,3.81,3.08,5.77,11.06,7.11,17.81Z"/><path class="cls-8" d="M1213.66,697.18a8.23,8.23,0,0,0,3.65,5.68c1.53.9,3.06,1,4.59,2,3.61,2.38,6.36,9.14,7.58,15.45s1.3,12.51,2,18.78c.44,4.19,1.44,9.15,3.73,11.59,1.06,1.12,2.21,1.49,3.31,2.37,3.82,3.08,5.77,11.06,7.11,17.82Z"/><path class="cls-8" d="M1207.09,699.4c3.43,5.9-.33,14.42,2.12,21a16.73,16.73,0,0,0,3.28,5.1c4.94,5.67,11.36,10.75,12.63,18.92a52.51,52.51,0,0,1,.24,7.63,48.62,48.62,0,0,0,6.85,24.49Z"/></g><g class="cls-9"><ellipse class="cls-8" cx="681.27" cy="943.48" rx="41.52" ry="16.14"/><polygon class="cls-8" points="719.1 942.43 743.14 924.26 744.38 958.05 719.1 942.43"/></g><ellipse class="cls-10" cx="983.18" cy="830.09" rx="23.85" ry="25.24" transform="translate(-93.55 1534.61) rotate(-73.37)"/><ellipse class="cls-11" cx="996.37" cy="750.64" rx="23.85" ry="25.24" transform="translate(-8.01 1490.53) rotate(-73.37)"/><ellipse class="cls-12" cx="944.66" cy="870.86" rx="14.31" ry="15.14" transform="translate(-160.11 1526.8) rotate(-73.37)"/><image class="cls-13" width="520" height="474" transform="translate(634.5 201)" xlink:href="Artboard%20291.png"/><ellipse class="cls-14" cx="887.14" cy="430.79" rx="218.82" ry="246.74" transform="translate(220.49 1157.55) rotate(-73.37)"/><ellipse class="cls-15" cx="988.91" cy="687.42" rx="23.85" ry="25.24" transform="translate(47.24 1438.26) rotate(-73.37)"/><path d="M819.35,350.3a12.66,12.66,0,0,1-1.05,5.16,12.21,12.21,0,0,1-7.49,6.59,17.27,17.27,0,0,1-5.25.78,18.64,18.64,0,0,1-2.35-.14,15.09,15.09,0,0,1-2.24-.42c-.47.69-.93,1.38-1.37,2.07l-1,1.52-5.25-3.29c.23-.35.55-.81.95-1.36s.84-1.17,1.31-1.86a11.64,11.64,0,0,1-2.87-4,13,13,0,0,1,0-10,12.08,12.08,0,0,1,3-4.1,12.56,12.56,0,0,1,4.29-2.53,16.66,16.66,0,0,1,5.5-.86,19.22,19.22,0,0,1,2.48.15,17.34,17.34,0,0,1,2.12.41c.56-.87.94-1.45,1.14-1.75s.47-.71.84-1.25l5.25,3.27-.76,1.07-1.1,1.54a11.69,11.69,0,0,1,2.93,4.09A12.63,12.63,0,0,1,819.35,350.3Zm-17.46,5.32c-.3.43-.59.85-.86,1.26s-.49.72-.63.94-.5.72-.75,1.12-.49.75-.72,1.07l-1-.82.72-1.05c.31-.45.56-.81.73-1.07s.37-.54.65-1,.55-.85.84-1.28Zm7.51-5.26a7.62,7.62,0,0,0-.36-2.27,3.86,3.86,0,0,0-1.2-1.85,3.21,3.21,0,0,0-1-.59,3.48,3.48,0,0,0-1.34-.24,3.3,3.3,0,0,0-1.29.24,3.73,3.73,0,0,0-1.12.75,4.54,4.54,0,0,0-1.06,1.75,6.79,6.79,0,0,0-.37,2.14,6.91,6.91,0,0,0,.36,2.21,4.22,4.22,0,0,0,1.13,1.8,3.27,3.27,0,0,0,1.06.68,3.62,3.62,0,0,0,1.36.24,3.29,3.29,0,0,0,1.26-.24,3.51,3.51,0,0,0,1.07-.67A4.12,4.12,0,0,0,809,352.5,7,7,0,0,0,809.4,350.36Z"/><path d="M842.2,345.33q-2.69,6.32-4.19,10.12t-2.63,6.68H826.3c-.82-2.12-1.71-4.41-2.69-6.87s-2.34-5.77-4.08-9.93l9.1-1.92,2.33,8.27h.18l2.26-8.27Z"/><path d="M869.09,353.64v8.49l-3.15.18c-1.82.1-3.47.15-4.93.15-1,0-2.35-.08-4-.23a15.27,15.27,0,0,1-4-.84,6.93,6.93,0,0,1-2.89-2,4.25,4.25,0,0,1-1-2.72,4.53,4.53,0,0,1,.92-2.87,6.91,6.91,0,0,1,3.31-2,17.24,17.24,0,0,1,3.95-.79c1.49-.13,2.44-.21,2.85-.22a.87.87,0,0,0-.27-.66,2.82,2.82,0,0,0-1.28-.44,12.08,12.08,0,0,0-1.35-.15c-.49,0-1.1,0-1.82,0-.94,0-1.76,0-2.44,0l-1.82,0,.71-6.06h3.48a28.4,28.4,0,0,1,6.64.61,10.63,10.63,0,0,1,4.18,2.05,7.14,7.14,0,0,1,2.24,3.11A12.38,12.38,0,0,1,869.09,353.64Zm-8.31,1.93v-1.91a4.58,4.58,0,0,0-.66.07,4.12,4.12,0,0,0-1.11.39,2.59,2.59,0,0,0-.69.6,1.78,1.78,0,0,0,0,2.12,2.21,2.21,0,0,0,.78.59,3,3,0,0,0,.65.19,4.51,4.51,0,0,0,.87.07h.16v-2.12Z"/><path d="M880.88,362.13H872c0-1.72,0-3.48,0-5.28s0-4.55,0-8.26q0-2.86,0-6c0-2.12,0-4.23,0-6.33h8.89q0,3.26,0,6t0,6.1c0,2.42,0,4.56,0,6.44S880.88,359.11,880.88,362.13Z"/><path d="M899.84,356.33l-.76,6c-.29,0-.67,0-1.14.05l-2.43,0c-3.43,0-6-.6-7.76-1.8a5.93,5.93,0,0,1-2.63-5.2c0-1.47,0-2.58,0-3.31s0-1.41,0-2h-2.92v-6.18h3v-5.43H894v5.43h5.71v6.18H894c0,.29,0,.51,0,.69s0,.45,0,.82,0,.54,0,.89,0,.58,0,.71a3.05,3.05,0,0,0,.86,2.29c.58.57,2,.86,4.21.86h.79Z"/><path d="M917.66,356.33a4,4,0,0,1-1,2.78,8,8,0,0,1-2.54,1.87,13.17,13.17,0,0,1-4,1.08,37.61,37.61,0,0,1-4.54.33l-3,0h-1.87l-.83-5.94h4.4a10.71,10.71,0,0,0,1.13-.07,2.74,2.74,0,0,0,1.25-.28.53.53,0,0,0,.16-.36c0-.14-.1-.27-.32-.39a13.05,13.05,0,0,0-1.18-.56l-1-.48c-.4-.19-.82-.41-1.26-.67a4.44,4.44,0,0,1-2.38-4,4.21,4.21,0,0,1,.83-2.56,6.93,6.93,0,0,1,2.86-2,14.2,14.2,0,0,1,3.87-1,39.72,39.72,0,0,1,4.32-.39l2.57,0h1.56l.83,6h-2.37c-.46,0-.88,0-1.27,0s-.76,0-1.13.08a3.42,3.42,0,0,0-.88.17.41.41,0,0,0-.34.39c0,.18.12.33.36.46l1.11.52,1.17.54c.42.19.82.4,1.2.62a5,5,0,0,1,1.78,1.66A4.33,4.33,0,0,1,917.66,356.33Z"/><path d="M939.39,353.64v8.49l-3.15.18c-1.83.1-3.47.15-4.93.15-1,0-2.35-.08-4-.23a15.45,15.45,0,0,1-4-.84,7,7,0,0,1-2.88-2,4.2,4.2,0,0,1-1-2.72,4.53,4.53,0,0,1,.92-2.87,6.87,6.87,0,0,1,3.3-2,17.34,17.34,0,0,1,4-.79c1.49-.13,2.44-.21,2.85-.22a.87.87,0,0,0-.27-.66,2.87,2.87,0,0,0-1.29-.44,11.89,11.89,0,0,0-1.34-.15c-.49,0-1.1,0-1.82,0-.94,0-1.76,0-2.45,0l-1.81,0,.71-6.06h3.48a28.51,28.51,0,0,1,6.64.61,10.7,10.7,0,0,1,4.18,2.05,7.14,7.14,0,0,1,2.24,3.11A12.38,12.38,0,0,1,939.39,353.64Zm-3.89-13.91a4.18,4.18,0,0,1-1.68,3.33,6.27,6.27,0,0,1-4.08,1.37,6,6,0,0,1-4-1.37,4.19,4.19,0,0,1,0-6.69,6.28,6.28,0,0,1,4-1.34,6.21,6.21,0,0,1,4,1.37A4.12,4.12,0,0,1,935.5,339.73Zm-4.42,15.84v-1.91a4.58,4.58,0,0,0-.66.07,4,4,0,0,0-1.11.39,2.59,2.59,0,0,0-.69.6,1.8,1.8,0,0,0,0,2.12,2.25,2.25,0,0,0,.79.59,3,3,0,0,0,.64.19,4.69,4.69,0,0,0,.88.07h.16v-2.12Zm0-15.86a1.36,1.36,0,0,0-.36-.95,1.17,1.17,0,0,0-.91-.39,1.24,1.24,0,0,0-.94.39,1.32,1.32,0,0,0-.37.95,1.37,1.37,0,0,0,.36,1,1.24,1.24,0,0,0,.95.39,1.14,1.14,0,0,0,.91-.4A1.43,1.43,0,0,0,931.08,339.71Z"/><path d="M952.63,338.46a75.67,75.67,0,0,1-.65,8.71q-.54,3.81-1.05,6.1h-7.2q-.53-2.47-1-6.11a83.71,83.71,0,0,1-.67-8.7ZM952,362.13h-9.39V355H952Z"/><path d="M969.42,338.46a73.48,73.48,0,0,1-.65,8.71q-.54,3.81-1,6.1h-7.19c-.36-1.65-.7-3.69-1-6.11a83.71,83.71,0,0,1-.67-8.7Zm-.62,23.67h-9.39V355h9.39Z"/><path d="M986.21,338.46a73.48,73.48,0,0,1-.65,8.71c-.35,2.54-.71,4.57-1,6.1h-7.19c-.36-1.65-.7-3.69-1-6.11a80.78,80.78,0,0,1-.68-8.7Zm-.62,23.67h-9.38V355h9.38Z"/><path d="M818.24,393.89a9.74,9.74,0,0,1-1.53,5.45,11.84,11.84,0,0,1-4,3.77,17.54,17.54,0,0,1-4.83,1.92,28.05,28.05,0,0,1-6.56.66c-1.46,0-3.19,0-5.2-.06l-3.37-.06c0-.19,0-1.3,0-3.32s0-5.15,0-9.37c0-1.4,0-3.09,0-5.07s0-3.94,0-5.91l3.33,0,4.68,0a33.54,33.54,0,0,1,7.13.66,16.12,16.12,0,0,1,5.22,2.08,10.76,10.76,0,0,1,3.84,4A11,11,0,0,1,818.24,393.89Zm-10-.46a4.1,4.1,0,0,0-.51-2,3.64,3.64,0,0,0-1.54-1.49,5.56,5.56,0,0,0-1.68-.57,11.51,11.51,0,0,0-1.92-.15h-.25v8.91h.16a9.72,9.72,0,0,0,1.76-.22,6.37,6.37,0,0,0,1.63-.52,4.08,4.08,0,0,0,1.91-1.79A5.17,5.17,0,0,0,808.28,393.43Z"/><path d="M841.82,405.57h-8.7l0-1.27,0,0a30.35,30.35,0,0,1-3.27,1.22,11.57,11.57,0,0,1-3.55.64,5.49,5.49,0,0,1-4.24-1.61,6.1,6.1,0,0,1-1.49-4.31c0-1.37,0-2.71,0-4s0-2.26,0-2.87c0-1.13,0-2.31,0-3.53s0-2,0-2.46h8.89c0,.47,0,1.25,0,2.34s0,2.08,0,3c0,.6,0,1.37,0,2.31s0,1.67,0,2.18a5.33,5.33,0,0,0,.2,1.52,1,1,0,0,0,1,.65,4.17,4.17,0,0,0,1.25-.22,6,6,0,0,0,1-.4c0-2.07,0-3.57,0-4.5,0-1.17,0-2.46,0-3.88s0-2.42,0-3h8.9c0,.45,0,1.61,0,3.49s0,3.66,0,5.35,0,3.12,0,4.46S841.82,403.61,841.82,405.57Z"/><path d="M873.47,405.57h-8.89c0-.66,0-1.89,0-3.69s0-3.06,0-3.79c0-.55,0-.93,0-1.13s0-.58,0-1.13a3.36,3.36,0,0,0-.3-1.71,1,1,0,0,0-.94-.46,4.22,4.22,0,0,0-1.29.2c-.43.13-.76.24-1,.33l0,11.38h-8.89c0-1.37,0-2.88,0-4.53s0-4.66,0-9q0-2.86,0-6c0-2.11,0-4.22,0-6.34h8.89l0,8.78,0,0a28.09,28.09,0,0,1,2.7-.93,13.19,13.19,0,0,1,4-.7,5.45,5.45,0,0,1,4.2,1.64,6,6,0,0,1,1.52,4.28c0,1.37,0,2.44,0,3.21s0,1.46,0,2.08c0,1.13,0,2.46,0,4S873.47,404.75,873.47,405.57Z"/><path d="M895.39,397.08v8.49l-3.15.18c-1.82.1-3.47.16-4.93.16-1,0-2.35-.08-4-.24a15.27,15.27,0,0,1-4-.84,6.88,6.88,0,0,1-2.88-2,4.24,4.24,0,0,1-1-2.73,4.53,4.53,0,0,1,.92-2.87,7,7,0,0,1,3.31-2,17.24,17.24,0,0,1,4-.79c1.49-.13,2.44-.21,2.85-.22a.87.87,0,0,0-.27-.66,2.72,2.72,0,0,0-1.28-.43,10.14,10.14,0,0,0-1.34-.15c-.5,0-1.11-.05-1.82-.05-1,0-1.76,0-2.45,0l-1.81,0,.7-6.06h3.48a27.78,27.78,0,0,1,6.64.62,10.37,10.37,0,0,1,4.18,2.05,7.16,7.16,0,0,1,2.25,3.1A12.64,12.64,0,0,1,895.39,397.08ZM887.08,399V397.1c-.13,0-.35,0-.66.07a4,4,0,0,0-1.1.39,2.31,2.31,0,0,0-.69.6,1.76,1.76,0,0,0,0,2.12,2.3,2.3,0,0,0,.78.59,3.15,3.15,0,0,0,.65.19,4.51,4.51,0,0,0,.87.07h.16V399Z"/><path d="M915.52,393.89l-3.62,1.3q-1.53.57-4.74,2v3c0,1.05,0,2.1,0,3.17s0,1.8,0,2.2h-8.89c0-.54,0-1.72,0-3.54s0-3.67,0-5.58c0-1.17,0-2.45,0-3.86s0-3.15,0-5.26H907l-.06,2.45.07,0a26.74,26.74,0,0,1,3.17-1.94A24.86,24.86,0,0,1,913,386.5Z"/><path d="M938.17,399.77l-.76,6c-.3,0-.68,0-1.15.05s-1.28,0-2.42,0q-5.15,0-7.77-1.8a5.92,5.92,0,0,1-2.63-5.2c0-1.47,0-2.58,0-3.31s0-1.41,0-2h-2.92v-6.18h3V381.9h8.72v5.43H938v6.18H932.3c0,.29,0,.52,0,.69s0,.45,0,.82,0,.54,0,.89,0,.59,0,.71a3.09,3.09,0,0,0,.86,2.29c.58.58,2,.86,4.21.86h.8Z"/><path d="M958.48,397.08v8.49l-3.15.18c-1.83.1-3.47.16-4.93.16-1,0-2.35-.08-4-.24a15.45,15.45,0,0,1-4-.84,7,7,0,0,1-2.88-2,4.23,4.23,0,0,1-1-2.73,4.53,4.53,0,0,1,.92-2.87,6.87,6.87,0,0,1,3.3-2,17.36,17.36,0,0,1,4-.79c1.5-.13,2.45-.21,2.86-.22a.87.87,0,0,0-.27-.66,2.78,2.78,0,0,0-1.29-.43,10,10,0,0,0-1.34-.15c-.49,0-1.1-.05-1.82-.05-.94,0-1.76,0-2.45,0l-1.81,0,.71-6.06h3.48a27.9,27.9,0,0,1,6.64.62,10.43,10.43,0,0,1,4.18,2.05,7.06,7.06,0,0,1,2.24,3.1A12.38,12.38,0,0,1,958.48,397.08ZM950.17,399V397.1c-.13,0-.35,0-.67.07a4,4,0,0,0-1.1.39,2.59,2.59,0,0,0-.69.6,1.6,1.6,0,0,0-.35,1,1.57,1.57,0,0,0,.34,1.09,2.25,2.25,0,0,0,.79.59,3,3,0,0,0,.64.19,4.69,4.69,0,0,0,.88.07h.16V399Z"/><path d="M982.21,396a8.19,8.19,0,0,1-1.34,4.7,9.43,9.43,0,0,1-4,3.23,15.74,15.74,0,0,1-4.7,1.29,51.64,51.64,0,0,1-6.66.35H963l-1.67,0c0-.71,0-2.05,0-4s0-5.06,0-9.22q0-5.28,0-8.29c0-2,0-3.46,0-4.36h8.9l0,7.67c1.14.09,2.19.23,3.15.4a18.29,18.29,0,0,1,2.93.83,9.42,9.42,0,0,1,4.4,3.09A7.13,7.13,0,0,1,982.21,396Zm-8.85-.24a3.26,3.26,0,0,0-.31-1.41,2.57,2.57,0,0,0-.93-1.06,2.79,2.79,0,0,0-1.09-.44,6.89,6.89,0,0,0-1.1-.09h-.19v6.34a5.15,5.15,0,0,0,1.17-.14,3.07,3.07,0,0,0,1-.38,3.76,3.76,0,0,0,1.06-1A3.35,3.35,0,0,0,973.36,395.79Z"/><path d="M1000.1,399.77l-.76,6c-.29,0-.67,0-1.15.05s-1.27,0-2.42,0q-5.14,0-7.77-1.8a5.91,5.91,0,0,1-2.62-5.2c0-1.47,0-2.58,0-3.31s0-1.41,0-2H982.5v-6.18h3V381.9h8.71v5.43h5.71v6.18h-5.71v.69c0,.18,0,.45,0,.82s0,.54,0,.89v.71a3.06,3.06,0,0,0,.87,2.29c.58.58,2,.86,4.21.86h.79Z"/><path class="cls-16" d="M1616.88,555.37c-2.63,10.59-4.51,12.31-7.33,21.6-6.42,21.15-5.9,36.28-5.9,36.28s-10.55-29-9-61.66c1.3-27.26,9.16-57.82,15.88-56.79,5.2.79,9.58,20.48,9.92,34.3C1620.71,539.92,1618.54,548.67,1616.88,555.37Z"/><polygon class="cls-17" points="1539.24 453.14 1530.08 444.8 1520.91 436.46 1529.3 435.03 1537.68 433.59 1538.46 443.36 1539.24 453.14"/><polygon class="cls-18" points="1556.13 450.65 1546.96 442.31 1537.8 433.97 1546.18 432.53 1554.56 431.09 1555.35 440.87 1556.13 450.65"/><polygon class="cls-19" points="1573.04 448.67 1563.87 440.33 1554.71 431.99 1563.09 430.56 1571.47 429.12 1572.25 438.89 1573.04 448.67"/><polygon class="cls-20" points="1590.79 442.48 1580.62 436 1570.44 429.52 1578.28 426.35 1586.12 423.19 1588.46 432.83 1590.79 442.48"/><polygon class="cls-21" points="1554.2 451.38 1563.22 453.04 1572.24 454.7 1567.44 459.71 1562.65 464.72 1558.42 458.05 1554.2 451.38"/><path class="cls-22" d="M1620.14,529.16c-4-17-7-23-8.05-24.95-2-3.83-5.37-10.23-11.35-15.53-14.47-12.81-29.81-6.39-36.53-18.07a14,14,0,0,1-2-7.35c.19-4.37,3.12-6.72,8-11.21,7.38-6.83,11.07-10.24,13.7-14.32a38,38,0,0,0,5.49-15.68c-12.65,7.63-22.37,9.79-29.08,10.28-3.83.28-8.29.13-15.57,1.46-4.66.86-7.5,1.78-13,2.27a79.92,79.92,0,0,1-9.92.2c-14.16-.71-32.16-17.12-59.48-36.83-11.54-8.33-16.49-11.29-17.25-16.89s4.47-11.52,15-23a142.63,142.63,0,0,1,15.71-15.09,117.41,117.41,0,0,1,22-14.78c12-6,21.77-7.62,38.33-10.21,14.22-2.23,22.11-3.46,33.45-2.91,11.64.56,22.61,3.71,44.56,10,25,7.18,33.52,11.63,41.33,17.58a96.64,96.64,0,0,1,13.12,12.14,75.78,75.78,0,0,1,20.49-.64c2.29.24,10,2.06,25.23,5.68,7,1.67,10.48,2.5,15.38,4,2.83.89,7.6,2.39,13.37,4.81a144.49,144.49,0,0,1,18.17,9.3c9.33,5.5,20.26,11.94,33.54,23.29,8.22,7,17.81,15.33,27.39,29.27,1.61,2.35,2.89,4.36,3.76,5.79-12.7-1.61-23-3-29.92-3.88,0,0-9.19-1.22-28.94-3.34-21.89-2.36-26.08-2.41-27.42.59-1.66,3.71,3.11,7.43,9.76,23.39,1.92,4.62,4.37,12.44,9.26,28.09,2.72,8.71,4.55,14.53,5.94,19.43,3,10.51,9.69,34.77,9.64,65,0,9.86-.08,19.17-2.72,30.9-2.74,12.2-6.91,21-14.39,34.48-16.87,30.36-32.88,34.64-30.41,48.78.93,5.38,3,3.87,11.83,20.78,5.79,11.11,9.47,18.17,11.57,28.11,2.32,10.93,1.49,19.54.7,27.78a115.3,115.3,0,0,1-5.51,25.63A103.71,103.71,0,0,1,1726.61,817a120.79,120.79,0,0,1-22.35,25.78c-10.56,9.09-35.6,17.3-35.6,17.3s1.77-10,8.2-36.62c.5-2.07-.07.18,6.18-35.85,2.79-16,1.49-23.62.11-27.75-.45-1.35-1-2.64-1-2.64a34.81,34.81,0,0,0-4.37-7.37,176.32,176.32,0,0,1-22,16.61s-28.09,17.91-57.78,23a126.56,126.56,0,0,1-13.4,1.62c-9.44,1.47-14.54.16-14.54.16s4.67-24,9-32.42a126.92,126.92,0,0,1,18.77-27.12c3.3-3.62,8.45-8.13,18.75-17.16,9.5-8.31,19.93-17.06,23.14-19.75,15.37-12.87,15.54-12.6,16.68-14.55,9.42-16.16,1.58-40.66-.67-47.69-5.56-17.39-9.53-13.62-18.25-35.5-8.37-21-12.65-44.29-13.5-49.08C1623.35,544.64,1622.27,538.17,1620.14,529.16Z"/><path class="cls-16" d="M1702.32,492.33c6.34,9.57,6.65,12.47,12,21.33,12.08,20.2,23.26,29.94,23.26,29.94a150.71,150.71,0,0,1-49-33.39c-19-19.6-37.19-47.48-33.1-53,3.16-4.24,19.55,5,29.7,14.05C1693.07,478.37,1698.31,486.28,1702.32,492.33Z"/><path class="cls-23" d="M1583.36,351.72s-4.21,6.79-11,7.94-13.68-3.8-13.68-3.8,4.21-6.8,11-7.94S1583.36,351.72,1583.36,351.72Z"/><ellipse cx="1567.05" cy="354.45" rx="4.02" ry="3" transform="translate(-26.81 152.23) rotate(-5.51)"/><ellipse class="cls-8" cx="1565.57" cy="354.7" rx="0.5" ry="1" transform="translate(-39.46 381.44) rotate(-13.72)"/><path class="cls-24" d="M1698.59,340c0,.12-.06.23-.1.35h0c-.06.25-.12.5-.2.76-2.09,7.85-6.3,18.65-14.91,20.95-5.42,1.44-10.48-1.06-12.51-2-34.8-16.73-120.25-39-136.22-46.14a54.26,54.26,0,0,0-7-2.64c-1.23-.4-2.27-.67-2.49-.73-.91-.24-2-.49-3.34-.77-5.08-1-8-.82-11.73-3.12a22,22,0,0,1-6.82-6.93q-.69-10.72-1.4-21.45l-.12-2c.74-.9,2.9-1.29,6.29-1.22l190.33,64.88Z"/><path class="cls-25" d="M1698.48,340.63a1.14,1.14,0,0,1-.19.47c-3.31,5-47.19-4.35-100-21.46-50.73-16.43-91.81-34.2-96.32-41.4l-.12-2c.74-.9,2.9-1.29,6.29-1.22,14.46.28,51.17,9,93.69,22.8,52.45,17,94.57,35.4,96.64,42.08a1.6,1.6,0,0,1,.07.41h0A.93.93,0,0,1,1698.48,340.63Z"/><path class="cls-24" d="M1578,306.72c6-36.63,20.43-63.2,32.34-59.34s16.73,36.67,10.78,73.3Z"/><ellipse class="cls-26" cx="1585.84" cy="294.04" rx="4.04" ry="4.76" transform="translate(0.12 588.72) rotate(-21.03)"/><ellipse class="cls-27" cx="1602.15" cy="299.32" rx="4.04" ry="4.76" transform="translate(-0.69 594.92) rotate(-21.03)"/><ellipse class="cls-8" cx="1617.88" cy="304.41" rx="4.04" ry="4.76" transform="translate(-1.47 600.91) rotate(-21.03)"/><path class="cls-28" d="M1647.22,402.1c.28,10.5-7.06,18.33-16.38,17.5"/><path class="cls-28" d="M1656.74,411.17c.29,10.49-7,18.33-16.38,17.49"/><path class="cls-29" d="M1211,871.76l7.47,7.32c-.13,1.09-.26,2.16-.41,3.23l-8.6-8.44-1.87-1.83-16-15.72h0l-1.86-1.82h0l-21.25-20.84-1.87-1.83-.27-.27,3-.63.63.62,21.26,20.85,1.87,1.83,16,15.72Z"/><path class="cls-30" d="M1215.57,821.32c.12.58.23,1.15.35,1.72a189.41,189.41,0,0,1,3.46,28.87l.12,3.75v.07c0,1.46,0,2.9,0,4.34a173.55,173.55,0,0,1-1.11,19c-.13,1.09-.26,2.16-.41,3.23-.56,4.17-1.28,8.26-2.16,12.24h0l0,.11c-.46,2.18-1,4.31-1.55,6.43q-1,3.93-2.31,7.73c-.3.91-.61,1.81-.93,2.71A115.25,115.25,0,0,1,1199.15,936c-.48.73-1,1.46-1.47,2.18a85.63,85.63,0,0,1-15.8,17.46c-.67.55-1.35,1.1-2,1.62a69.38,69.38,0,0,1-12.25,7.57q-2.31,1.11-4.71,2.05c-1.21.46-2.43.9-3.68,1.29-1,.31-1.92.59-2.9.85-1.2.33-2.42.61-3.64.87a64.74,64.74,0,0,1-14.57,1.32c-1,0-2.07-.07-3.1-.14a2.34,2.34,0,0,1-.38,0c-1.48-.1-3-.26-4.45-.48s-3-.46-4.47-.77l-.55-.12a76.59,76.59,0,0,1-13.53-4.29c-.81-.34-1.61-.7-2.42-1.07A99.71,99.71,0,0,1,1084.59,948c-.65-.57-1.3-1.15-1.93-1.74a131.29,131.29,0,0,1-12.57-13.42q-2.38-2.93-4.66-6l-.3-.41c-.53-.73-1.06-1.48-1.58-2.22A164.14,164.14,0,0,1,1049,898.7h0l-.27-.59c-.41-.9-.82-1.81-1.21-2.72s-.67-1.55-1-2.33a189.38,189.38,0,0,1-10.51-33.91l-.12-.59Z"/><path class="cls-29" d="M1159.21,968.12c-1,.31-1.92.59-2.9.85l-9.94-9.08-1.93-1.76-16.5-15.07-1.92-1.75-21.88-20-1.93-1.76L1083,902l-1.92-1.76-20.29-18.53-1.92-1.76-22.81-20.82-.12-.59,2.71-.56,21.75,19.87,1.93,1.76,20.29,18.53,1.92,1.76,19.23,17.55,1.92,1.76,21.89,20,1.92,1.75L1146,956l1.92,1.76Z"/><path class="cls-29" d="M1181.88,955.59c-.67.55-1.35,1.1-2,1.62l-3.9-3.82-1.87-1.83-12.57-12.33-1.86-1.83-16-15.72-1.86-1.83L1120.5,899l-1.86-1.83L1100,878.85,1098.1,877l-19.7-19.33-1.87-1.83-4.82-4.73,3-.63,3.31,3.25,1.87,1.83,19.7,19.33,1.87,1.83,18.67,18.32,1.87,1.83,21.25,20.85,1.87,1.83,16,15.72,1.87,1.83,12.56,12.33,1.87,1.83Z"/><path class="cls-29" d="M1199.15,936c-.48.73-1,1.46-1.47,2.18l-6.13-6-1.87-1.83L1177.11,918l-1.86-1.84-16-15.71-1.87-1.83-21.25-20.85-1.86-1.83-18.67-18.32-1.87-1.83-11.2-11,3-.63,9.69,9.51,1.87,1.84,18.67,18.31,1.87,1.83,21.25,20.85,1.87,1.83,16,15.71,1.87,1.84,12.56,12.33,1.87,1.83Z"/><path class="cls-29" d="M1212,908.83c-.3.91-.61,1.81-.93,2.71l-2.56-2.52h0l-1.86-1.83L1194,894.86l-1.87-1.84-16-15.72-1.86-1.83L1153,854.63l-1.87-1.83-15.25-15,3-.63,13.75,13.49,1.87,1.83,21.26,20.85,1.86,1.83,16,15.72,1.87,1.83,12.57,12.33,1.87,1.83Z"/><path class="cls-29" d="M1049,898.69h0l20.12,17.8,1.95,1.73,19.46,17.23,2,1.72,22.15,19.61,1.95,1.72,13.55,12c1.48.22,3,.38,4.45.48l-16.47-14.57-1.94-1.73-22.16-19.61-1.94-1.72-19.47-17.23-2-1.72-20.54-18.19-2-1.72-1.64-1.45c.33.78.66,1.55,1,2.33s.8,1.82,1.21,2.72Z"/><polygon class="cls-29" points="1219.38 851.91 1219.5 855.66 1203.51 839.97 1201.65 838.14 1189.92 826.64 1192.98 826 1203.19 836.03 1205.06 837.86 1219.38 851.91"/><path class="cls-29" d="M1085.26,848.33l-5.32,7.25-1.54,2.11-16.08,21.93-1.54,2.1-10.63,14.5-1.38,1.88c-.41-.9-.82-1.81-1.21-2.72l.64-.88L1058.86,880l1.53-2.1,16.14-22,1.54-2.11,3.4-4.64Z"/><path class="cls-29" d="M1129,839.27l-11.87,16.2-1.54,2.1-14.06,19.17-1.54,2.11-15.44,21.06L1083,902l-10.35,14.12-1.53,2.1-6,8.15c-.53-.73-1.06-1.48-1.58-2.22l5.61-7.66,1.53-2.09,10.38-14.16,1.54-2.1L1098.1,877l1.54-2.11,14.06-19.17,1.54-2.11,10-13.58Z"/><path class="cls-29" d="M1170.61,830.64l-.66.89-1.54,2.11-13.84,18.88-1.54,2.11-15.38,21-1.55,2.11-14,19.17L1120.5,899l-14.82,20.22-1.54,2.1-10.09,13.76-1.53,2.1L1084.59,948c-.65-.57-1.3-1.15-1.93-1.74l7.91-10.79,1.54-2.1,10.1-13.8,1.55-2.1,14.88-20.29,1.54-2.11,14.06-19.17,1.54-2.11,15.38-21,1.54-2.11,13.84-18.88.29-.39Z"/><path class="cls-29" d="M1215.57,821.32c.12.58.23,1.15.35,1.72l-10.86,14.82-1.55,2.11-10.43,14.24-1.55,2.1h0l-13.84,18.88-1.55,2.1-15.37,21-1.55,2.11-14,19.17-1.55,2.11L1129.49,941l-1.55,2.1-9.79,13.36-1.53,2.09-5,6.82c-.81-.34-1.61-.7-2.42-1.07l5.47-7.47,1.54-2.1,9.81-13.38,1.55-2.1,14.19-19.36,1.54-2.11,14-19.17,1.55-2.11,15.38-21,1.55-2.1,13.84-18.88h0l1.55-2.1,10.44-14.24,1.54-2.11,10.5-14.32Z"/><path class="cls-29" d="M1219.5,855.73c0,1.46,0,2.9,0,4.34L1211,871.76l-1.54,2.11-13.84,18.88-1.55,2.11-15.37,21-1.55,2.11-14,19.17-1.55,2.11-13.6,18.56-1.54,2.1-8.27,11.27c-1,0-2.07-.07-3.1-.14l9.44-12.89L1146,956l13.66-18.63,1.54-2.11,14.06-19.18,1.54-2.11,15.37-21,1.55-2.1L1207.55,872l1.55-2.11Z"/><rect class="cls-31" x="1189.46" y="790.78" width="314.78" height="7.35" rx="3.66" transform="translate(-133.2 289.85) rotate(-11.71)"/><rect class="cls-32" x="1029.68" y="830.61" width="191.81" height="18.71" rx="9.3" transform="translate(-147.04 245.9) rotate(-11.71)"/><rect class="cls-33" x="1459.83" y="759.17" width="46.78" height="13.37" rx="6.65" transform="translate(-124.55 316.93) rotate(-11.71)"/></g></g></svg>