<svg id="Layer_1" data-name="Layer 1" xmlns="http://www.w3.org/2000/svg" xmlns:xlink="http://www.w3.org/1999/xlink" width="1920" height="1080" viewBox="0 0 1920 1080"><defs><style>.cls-1{fill:url(#radial-gradient);}.cls-2{fill:#f7931e;}.cls-3{fill:gold;}.cls-4{fill:url(#radial-gradient-2);}.cls-5{fill:url(#radial-gradient-3);}.cls-6{fill:url(#radial-gradient-4);}.cls-7{fill:url(#radial-gradient-5);}.cls-8{fill:url(#radial-gradient-6);}.cls-9{fill:url(#radial-gradient-7);}.cls-10{fill:url(#radial-gradient-8);}.cls-11{fill:url(#radial-gradient-9);}.cls-12{fill:url(#radial-gradient-10);}.cls-13{fill:url(#radial-gradient-11);}.cls-14,.cls-18,.cls-25{fill:#fff;}.cls-14{opacity:0.94;}.cls-15{fill:#3f9aff;}.cls-16{fill:#629aff;}.cls-17,.cls-25{opacity:0.1;}.cls-19{opacity:0.15;}.cls-20,.cls-30{fill:none;}.cls-21{fill:#006837;}.cls-22{fill:#895633;}.cls-23{fill:#603b20;}.cls-24{fill:#070707;}.cls-26{fill:#009245;}.cls-27{fill:#fbb03b;}.cls-28{fill:red;}.cls-29{fill:#eaeaea;}.cls-30{stroke:#b3e021;stroke-miterlimit:10;}.cls-31{fill:#ed1c24;}</style><radialGradient id="radial-gradient" cx="889.84" cy="7.92" r="1328.28" gradientUnits="userSpaceOnUse"><stop offset="0" stop-color="#60bfe8"/><stop offset="0.1" stop-color="#70c5eb"/><stop offset="0.37" stop-color="#97d3f4"/><stop offset="0.62" stop-color="#b4ddfa"/><stop offset="0.84" stop-color="#c5e4fe"/><stop offset="1" stop-color="#cbe6ff"/></radialGradient><radialGradient id="radial-gradient-2" cx="922.68" cy="179.32" r="137.38" gradientUnits="userSpaceOnUse"><stop offset="0" stop-color="#cbe6ff"/><stop offset="0" stop-color="#c6e4ff"/><stop offset="0.02" stop-color="#9cd6fb"/><stop offset="0.03" stop-color="#77c9f8"/><stop offset="0.05" stop-color="#57bdf6"/><stop offset="0.08" stop-color="#3bb4f4"/><stop offset="0.1" stop-color="#25acf2"/><stop offset="0.13" stop-color="#14a6f1"/><stop offset="0.16" stop-color="#09a2f0"/><stop offset="0.21" stop-color="#02a0ef"/><stop offset="0.34" stop-color="#009fef"/></radialGradient><radialGradient id="radial-gradient-3" cx="779.08" cy="153.21" r="27.7" xlink:href="#radial-gradient-2"/><radialGradient id="radial-gradient-4" cx="815.25" cy="116.6" r="41.3" gradientTransform="translate(12.68 -68.11) rotate(4.82)" xlink:href="#radial-gradient-2"/><radialGradient id="radial-gradient-5" cx="858.75" cy="88.55" r="34.46" xlink:href="#radial-gradient-2"/><radialGradient id="radial-gradient-6" cx="922.93" cy="76.34" r="43.05" xlink:href="#radial-gradient-2"/><radialGradient id="radial-gradient-7" cx="989.61" cy="88.55" r="34.46" xlink:href="#radial-gradient-2"/><radialGradient id="radial-gradient-8" cx="1034.3" cy="109.42" r="41.3" gradientTransform="translate(12.86 -86.54) rotate(4.82)" xlink:href="#radial-gradient-2"/><radialGradient id="radial-gradient-9" cx="1063.28" cy="146.99" r="27.7" xlink:href="#radial-gradient-2"/><radialGradient id="radial-gradient-10" cx="917.2" cy="142" r="100.97" gradientTransform="translate(947.54 -785.63) rotate(83.07)" xlink:href="#radial-gradient-2"/><radialGradient id="radial-gradient-11" cx="372.24" cy="667.23" r="287.62" gradientUnits="userSpaceOnUse"><stop offset="0" stop-color="#ff9309"/><stop offset="0.17" stop-color="#fe9c19"/><stop offset="0.43" stop-color="#fca72c"/><stop offset="0.71" stop-color="#fbae37"/><stop offset="1" stop-color="#fbb03b"/></radialGradient></defs><title>Artboard 22</title><rect class="cls-1" width="1919" height="1080"/><polygon class="cls-2" points="1843.09 160.67 1800.44 187.73 1816.69 235.55 1766.27 230.82 1751.45 279.23 1712.43 246.86 1673.41 279.23 1658.59 230.82 1608.17 235.55 1624.42 187.72 1581.77 160.67 1624.42 133.62 1608.17 85.79 1658.59 90.52 1673.41 42.12 1712.43 74.48 1751.45 42.12 1766.27 90.52 1816.69 85.79 1800.44 133.62 1843.09 160.67"/><ellipse class="cls-3" cx="1712.97" cy="161.31" rx="95.69" ry="90.14"/><rect class="cls-4" x="729.39" y="159.68" width="386.59" height="39.27" rx="19.64"/><ellipse class="cls-5" cx="779.08" cy="153.21" rx="29.22" ry="26.1"/><ellipse class="cls-6" cx="815.25" cy="116.6" rx="44.63" ry="37.65" transform="translate(-6.92 68.93) rotate(-4.82)"/><ellipse class="cls-7" cx="858.75" cy="88.55" rx="36.46" ry="32.33"/><ellipse class="cls-8" cx="922.93" cy="76.34" rx="45.7" ry="40.23"/><ellipse class="cls-9" cx="989.61" cy="88.55" rx="36.46" ry="32.33"/><ellipse class="cls-10" cx="1034.3" cy="109.42" rx="44.63" ry="37.65" transform="translate(-5.54 87.32) rotate(-4.82)"/><ellipse class="cls-11" cx="1063.28" cy="146.99" rx="29.22" ry="26.1"/><ellipse class="cls-12" cx="917.2" cy="142" rx="54.01" ry="132.17" transform="translate(665.61 1035.38) rotate(-83.07)"/><path class="cls-13" d="M3,627.68c22-65,107.71-115.57,215-125.8Q237.68,500,258.19,500l3.78,0c102.33.89,190.39,38.15,231.74,91.74a264,264,0,0,1,64.56-7.87,269.1,269.1,0,0,1,40.65,3c31,4.72,59.1,14.74,82.05,28.58,20.86,12.56,37.49,28.29,48.25,46.07a95,95,0,0,1,11.79,29,86.73,86.73,0,0,1,2,18.6q0,3.24-.24,6.44a86.09,86.09,0,0,1-2,13.31,95.84,95.84,0,0,1-12.46,29.38q-1.9,3-4,6a121.79,121.79,0,0,1-10,12.13q-3.48,3.71-7.32,7.22c-27.07,24.82-67.36,42.62-113.8,48.63a273.87,273.87,0,0,1-69.6,0c-43.18-5.58-81-21.34-107.89-43.47-43.74,20.46-98.27,32.61-157.41,32.61q-6,0-11.93-.17h-.54c-59.09-1.72-113-15.56-155.41-37.59A235.47,235.47,0,0,1,51.1,758.31a182.45,182.45,0,0,1-19-17.57c-1.43-1.54-2.82-3.08-4.17-4.65q-3-3.52-5.81-7.16A131.76,131.76,0,0,1,10.44,710.8a113.92,113.92,0,0,1-7-15.82c-.15-.42-.3-.84-.44-1.27q-.85-2.51-1.57-5Z"/><path class="cls-14" d="M1.46,728.93H1087.37v2h839.8V578c-18.74-1.09-38,9.24-45.39,30.36l-8.7,24.95c-13,37.39-63.92,41.31-82.43,6.35l-21.39-40.36c-19-36-71.77-30.5-83.16,8.63l-3.18,10.94c-11.59,39.83-65.66,44.54-83.84,7.3l-14.64-30c-17.54-35.89-69.16-33.16-82.88,4.38l-6,16.55c-14.42,39.47-69.66,39.8-84.55.51l-1.43-3.77c-14.87-39.23-70-39-84.51.37l-4.81,13c-14.06,38.11-66.85,40-83.47,2.89l-14.17-31.6c-16.42-36.59-68.34-35.4-83.1,1.9l-13.86,35.08a44.51,44.51,0,0,1-38.24,28.5v1.25a44.46,44.46,0,0,1-33-27.88l-8.5-21.71a44.38,44.38,0,0,0-41.94-28.79c-18.08,0-36.13,10.52-42.93,31.24-12.8,39-66.19,42.32-83.66,5.23L867.2,601.85c-17.3-36.72-70-33.91-83.39,4.44l-8.7,25c-13,37.39-63.92,41.31-82.43,6.36l-21.39-40.36c-19-36-71.78-30.5-83.16,8.63L585,616.81c-11.59,39.82-65.66,44.53-83.84,7.29l-14.64-30c-17.54-35.89-69.16-33.17-82.88,4.37l-6,16.56c-14.42,39.46-69.67,39.8-84.55.5l-1.43-3.77c-14.87-39.23-70-39-84.51.38l-4.81,13a44.31,44.31,0,0,1-32.93,28.67c-19.29,4-40.95-4.39-50.54-25.79l-14.18-31.59c-16.41-36.59-68.33-35.41-83.09,1.89L27.64,633.5A44.43,44.43,0,0,1,1.46,659.36Z"/><path class="cls-15" d="M3.47,758.3H1089.38v2h839.8v-153c-18.74-1.1-38,9.24-45.39,30.36l-8.7,24.95c-13,37.39-63.92,41.31-82.43,6.35l-21.39-40.36c-19-36-71.78-30.5-83.16,8.63l-3.18,10.94c-11.59,39.82-65.66,44.53-83.84,7.29l-14.64-30c-17.54-35.89-69.16-33.17-82.88,4.38l-6,16.55c-14.43,39.47-69.67,39.8-84.55.51l-1.43-3.77c-14.87-39.24-70-39-84.51.37l-4.81,13c-14.06,38.11-66.85,39.94-83.47,2.89l-14.18-31.6c-16.41-36.59-68.34-35.4-83.09,1.9l-13.86,35.08a44.52,44.52,0,0,1-38.24,28.5v1.25a44.46,44.46,0,0,1-33-27.88l-8.51-21.71a44.35,44.35,0,0,0-41.94-28.79c-18.07,0-36.12,10.52-42.92,31.23-12.8,39-66.19,42.33-83.66,5.24l-10.14-21.53c-17.3-36.71-70-33.9-83.39,4.45l-8.7,25c-13,37.39-63.92,41.31-82.43,6.35L673.3,626.61c-19-36-71.78-30.5-83.16,8.63l-3.18,11c-11.59,39.82-65.66,44.53-83.84,7.29l-14.64-30c-17.54-35.89-69.16-33.16-82.88,4.38l-6.05,16.55c-14.43,39.47-69.67,39.8-84.55.51l-1.43-3.77c-14.87-39.23-70-39-84.51.38l-4.81,13a44.32,44.32,0,0,1-32.93,28.68c-19.29,4-40.95-4.39-50.54-25.79L126.6,625.9c-16.41-36.58-68.34-35.4-83.09,1.9L29.64,662.88A44.39,44.39,0,0,1,3.47,688.74Z"/><path class="cls-16" d="M3.47,783.63H1089.38v2h839.8v-153c-18.74-1.09-38,9.24-45.39,30.36l-8.7,25c-13,37.39-63.92,41.31-82.43,6.35L1771.27,654c-19-36-71.78-30.51-83.16,8.63l-3.18,10.94c-11.59,39.82-65.66,44.53-83.84,7.29l-14.64-30c-17.54-35.9-69.16-33.17-82.88,4.37l-6,16.55c-14.43,39.47-69.67,39.81-84.55.51l-1.43-3.77c-14.87-39.23-70-39-84.51.38l-4.81,13c-14.06,38.11-66.85,39.95-83.47,2.89l-14.18-31.59c-16.41-36.59-68.34-35.41-83.09,1.89l-13.86,35.08a44.53,44.53,0,0,1-38.24,28.51V720a44.42,44.42,0,0,1-33-27.88l-8.51-21.7a44.35,44.35,0,0,0-41.94-28.79c-18.07,0-36.12,10.51-42.92,31.23-12.8,39-66.19,42.32-83.66,5.23l-10.14-21.52c-17.3-36.71-70-33.91-83.39,4.45l-8.7,25c-13,37.39-63.92,41.31-82.43,6.35L673.3,651.94c-19-36-71.78-30.5-83.16,8.63L587,671.51c-11.59,39.82-65.66,44.53-83.84,7.29l-14.64-29.95c-17.54-35.89-69.16-33.17-82.88,4.38l-6.05,16.55c-14.43,39.46-69.67,39.8-84.55.5l-1.43-3.76c-14.87-39.24-70-39-84.51.37l-4.81,13.05a44.32,44.32,0,0,1-32.93,28.68c-19.29,4-40.95-4.4-50.54-25.79l-14.18-31.6c-16.41-36.59-68.34-35.4-83.09,1.89L29.64,688.2A44.44,44.44,0,0,1,3.47,714.07Z"/><path class="cls-15" d="M1.46,832.25H1087.37v2h839.8v-153c-18.74-1.1-38,9.23-45.39,30.36l-8.7,25c-13,37.39-63.92,41.31-82.43,6.35l-21.39-40.36c-19-36-71.77-30.5-83.16,8.63l-3.18,10.94c-11.59,39.82-65.66,44.53-83.84,7.29l-14.64-30c-17.54-35.89-69.16-33.17-82.88,4.38l-6,16.55c-14.42,39.47-69.66,39.8-84.55.51l-1.43-3.77c-14.87-39.24-70-39-84.51.37l-4.81,13.05c-14.06,38.11-66.85,39.94-83.47,2.89l-14.17-31.6c-16.42-36.59-68.34-35.4-83.1,1.89l-13.86,35.09a44.53,44.53,0,0,1-38.24,28.5v1.25a44.46,44.46,0,0,1-33-27.88l-8.5-21.71a44.36,44.36,0,0,0-41.94-28.79c-18.08,0-36.13,10.52-42.93,31.23-12.8,39-66.19,42.33-83.66,5.24L867.2,705.17c-17.3-36.71-70-33.9-83.39,4.45l-8.7,25c-13,37.39-63.92,41.31-82.43,6.35l-21.39-40.36c-19-36-71.78-30.5-83.16,8.63L585,720.13c-11.59,39.83-65.66,44.54-83.84,7.3l-14.64-30c-17.54-35.89-69.16-33.16-82.88,4.38l-6,16.55c-14.42,39.47-69.67,39.8-84.55.51l-1.43-3.77c-14.87-39.23-70-39-84.51.38l-4.81,13a44.32,44.32,0,0,1-32.93,28.68c-19.29,4-40.95-4.4-50.54-25.79l-14.18-31.6c-16.41-36.59-68.33-35.4-83.09,1.9L27.64,736.83A44.43,44.43,0,0,1,1.46,762.69Z"/><path class="cls-16" d="M1927.18,696.48v153H1087.37v-2H1.46V777.89c.53-.19,1-.4,1.57-.61l.44-.19a43.94,43.94,0,0,0,21.15-18.78,48,48,0,0,0,3-6.28l4.46-11.29,4.67-11.81,4.73-12c14.76-37.3,66.68-38.49,83.09-1.9l6.23,13.88,8,17.72a46.71,46.71,0,0,0,7.41,11.66,44.91,44.91,0,0,0,43.13,14.13,44.25,44.25,0,0,0,24.37-14.13,46.25,46.25,0,0,0,8.56-14.55l4.81-13c.22-.6.46-1.2.69-1.78,15.32-37.11,67.86-37.23,83.26,0,.19.46.38.93.56,1.41l1.43,3.77a44.42,44.42,0,0,0,21.18,24.2,46,46,0,0,0,42,0,44.47,44.47,0,0,0,21.36-24.71l1.71-4.67,4.34-11.88c13.72-37.54,65.34-40.27,82.88-4.38l7.95,16.26,6.69,13.7a45.66,45.66,0,0,0,12.36,15.68c16.39,13.2,40.21,12.76,56.29,0a44.94,44.94,0,0,0,15.19-23l1.86-6.4,1.32-4.54c11.38-39.13,64.11-44.6,83.16-8.63l7,13.17,14.41,27.19c.4.75.81,1.48,1.24,2.19a44.21,44.21,0,0,0,20.29,18.1c19.87,8.75,45,2.24,56.95-18.1a47.36,47.36,0,0,0,4-8.54l7.27-20.84,1.43-4.11c13.37-38.35,66.09-41.16,83.39-4.45l4,8.56,6.11,13a45.33,45.33,0,0,0,12.85,16.41c16.26,12.93,39.81,12.62,55.86,0a44.86,44.86,0,0,0,15-21.65,48,48,0,0,1,3.29-7.73,45.06,45.06,0,0,1,79.14,0,49.27,49.27,0,0,1,2.44,5.29l8.5,21.71c.32.81.65,1.6,1,2.38a44.32,44.32,0,0,0,31.15,25.32c.28.07.56.12.84.18v-1.25a44.4,44.4,0,0,0,35.22-22.23,48.57,48.57,0,0,0,3-6.28l9.12-23.09,4.74-12c14.76-37.3,66.68-38.48,83.1-1.89L1228.8,731l7.94,17.71a46.89,46.89,0,0,0,7.41,11.66c17.73,20.33,50,20,67.5,0a46.2,46.2,0,0,0,8.56-14.54l4.81-13c.22-.6.46-1.2.69-1.78,15.32-37.12,67.87-37.23,83.26,0,.2.46.38.93.56,1.4l1.43,3.77a44.46,44.46,0,0,0,21.16,24.2,46,46,0,0,0,42.05,0,44.45,44.45,0,0,0,21.34-24.7l1.71-4.67,4.34-11.89c13.72-37.54,65.34-40.26,82.88-4.37l8,16.26,6.69,13.69a45.62,45.62,0,0,0,12.35,15.68c16.38,13.21,40.21,12.78,56.3,0a44.81,44.81,0,0,0,15.19-23l1.86-6.4,1.32-4.54c11.39-39.13,64.11-44.6,83.16-8.63l7,13.17,14.41,27.19c.39.75.8,1.47,1.23,2.18,17.8,29.85,60.41,28.55,77.25,0a47.36,47.36,0,0,0,3.95-8.54l7.26-20.83,1.44-4.12A44.57,44.57,0,0,1,1923,696.43C1924.42,696.38,1925.8,696.4,1927.18,696.48Z"/><path class="cls-16" d="M1931.19,832.26V1006l-8.16-.37v74.76H3v-73.64l-1.57.08V832.26Z"/><g class="cls-17"><ellipse class="cls-18" cx="816.8" cy="939.74" rx="43.57" ry="14.39"/><polygon class="cls-18" points="856.5 938.79 881.72 922.59 883.03 952.72 856.5 938.79"/></g><g class="cls-19"><path class="cls-18" d="M279.36,775.69c-3.63-11.08-14.7-17.36-24.72-14s-15.2,15-11.56,26.11Z"/><ellipse class="cls-18" cx="244.04" cy="787.66" rx="0.96" ry="1.05" transform="translate(-216.24 103.48) rotate(-16.72)"/><ellipse class="cls-18" cx="245.85" cy="787.05" rx="0.96" ry="1.05" transform="translate(-215.99 103.97) rotate(-16.72)"/><ellipse class="cls-18" cx="247.67" cy="786.45" rx="0.96" ry="1.05" transform="translate(-215.74 104.47) rotate(-16.72)"/><ellipse class="cls-18" cx="249.48" cy="785.84" rx="0.96" ry="1.05" transform="translate(-215.49 104.97) rotate(-16.72)"/><ellipse class="cls-18" cx="251.3" cy="785.24" rx="0.96" ry="1.05" transform="translate(-215.24 105.46) rotate(-16.72)"/><ellipse class="cls-18" cx="253.11" cy="784.63" rx="0.96" ry="1.05" transform="translate(-214.99 105.96) rotate(-16.72)"/><ellipse class="cls-18" cx="254.92" cy="784.03" rx="0.96" ry="1.05" transform="translate(-214.74 106.46) rotate(-16.72)"/><ellipse class="cls-18" cx="256.74" cy="783.42" rx="0.96" ry="1.05" transform="translate(-214.49 106.95) rotate(-16.72)"/><ellipse class="cls-18" cx="258.55" cy="782.82" rx="0.96" ry="1.05" transform="translate(-214.24 107.45) rotate(-16.72)"/><ellipse class="cls-18" cx="260.37" cy="782.21" rx="0.96" ry="1.05" transform="translate(-213.99 107.94) rotate(-16.72)"/><ellipse class="cls-18" cx="278.51" cy="776.16" rx="0.96" ry="1.05" transform="translate(-211.48 112.91) rotate(-16.72)"/><ellipse class="cls-18" cx="276.7" cy="776.77" rx="0.96" ry="1.05" transform="translate(-211.73 112.41) rotate(-16.72)"/><ellipse class="cls-18" cx="274.88" cy="777.37" rx="0.96" ry="1.05" transform="translate(-211.98 111.92) rotate(-16.72)"/><ellipse class="cls-18" cx="273.07" cy="777.98" rx="0.96" ry="1.05" transform="translate(-212.23 111.42) rotate(-16.72)"/><ellipse class="cls-18" cx="271.25" cy="778.58" rx="0.96" ry="1.05" transform="translate(-212.48 110.92) rotate(-16.72)"/><ellipse class="cls-18" cx="269.44" cy="779.19" rx="0.96" ry="1.05" transform="translate(-212.73 110.43) rotate(-16.72)"/><ellipse class="cls-18" cx="267.63" cy="779.79" rx="0.96" ry="1.05" transform="translate(-212.98 109.93) rotate(-16.72)"/><ellipse class="cls-18" cx="265.81" cy="780.4" rx="0.96" ry="1.05" transform="translate(-213.23 109.43) rotate(-16.72)"/><ellipse class="cls-18" cx="264" cy="781" rx="0.96" ry="1.05" transform="translate(-213.48 108.94) rotate(-16.72)"/><ellipse class="cls-18" cx="262.18" cy="781.61" rx="0.96" ry="1.05" transform="translate(-213.73 108.44) rotate(-16.72)"/><path class="cls-18" d="M249.56,786.39a3.86,3.86,0,0,1,0,3.25c-.42.82-1,1.36-1.43,2.22-.91,2-.28,5.37.89,8.06a80,80,0,0,0,4.21,7.48c.93,1.67,1.84,3.8,1.51,5.42a13.91,13.91,0,0,1-.79,1.93c-.81,2.35.49,5.88,1.73,8.78Z"/><path class="cls-18" d="M255.77,783.6a8.35,8.35,0,0,0-2.15,7.1,3.68,3.68,0,0,0,.38,1.23,3.39,3.39,0,0,0,1.29,1.23c1.63,1,3.51,1.3,5.2,2.15s3.29,2.6,3.1,4.55-1.92,3.18-1.93,5a4,4,0,0,0,1.41,2.85,10.53,10.53,0,0,0,2.71,1.62Z"/><path class="cls-18" d="M255.9,783.81a3.86,3.86,0,0,1,0,3.25c-.42.82-1,1.36-1.43,2.22-.91,2-.28,5.37.89,8.06a81.28,81.28,0,0,0,4.21,7.48c.93,1.67,1.84,3.79,1.51,5.42a14.43,14.43,0,0,1-.79,1.93c-.81,2.35.49,5.88,1.73,8.78Z"/><path class="cls-18" d="M259.53,782.6a3.86,3.86,0,0,1,0,3.25c-.42.82-1,1.36-1.43,2.22-.91,2-.28,5.37.89,8.06a81.28,81.28,0,0,0,4.21,7.48c.93,1.67,1.84,3.79,1.5,5.42a13.19,13.19,0,0,1-.78,1.93c-.81,2.35.49,5.88,1.73,8.78Z"/><path class="cls-18" d="M274,778.16a3.79,3.79,0,0,0,1.95,2.58c.81.41,1.63.46,2.45.92,1.93,1.08,3.4,4.15,4.05,7a81,81,0,0,1,1.05,8.53c.23,1.91.76,4.16,2,5.26a13.75,13.75,0,0,0,1.77,1.08c2,1.4,3.08,5,3.8,8.09Z"/><path class="cls-18" d="M268.41,779.64a3.8,3.8,0,0,0,1.95,2.58c.82.41,1.64.47,2.46.92,1.93,1.08,3.4,4.15,4.05,7a83.08,83.08,0,0,1,1.05,8.53c.23,1.9.76,4.15,2,5.26a14.21,14.21,0,0,0,1.77,1.08c2,1.39,3.08,5,3.8,8.08Z"/><path class="cls-18" d="M264.89,781.18a3.8,3.8,0,0,0,1.95,2.58c.82.41,1.64.47,2.46.93,1.93,1.08,3.4,4.14,4.05,7a83.08,83.08,0,0,1,1,8.53c.23,1.9.76,4.15,2,5.26a13.1,13.1,0,0,0,1.77,1.08c2,1.39,3.08,5,3.8,8.08Z"/><path class="cls-18" d="M261.38,782.19c1.84,2.68-.17,6.55,1.14,9.55a7.8,7.8,0,0,0,1.75,2.32c2.64,2.57,6.07,4.88,6.75,8.58a20.11,20.11,0,0,1,.13,3.47,19.71,19.71,0,0,0,3.66,11.12Z"/></g><g class="cls-17"><ellipse class="cls-18" cx="650.01" cy="912.99" rx="42.15" ry="13.92"/><polygon class="cls-18" points="688.41 912.08 712.81 896.4 714.07 925.55 688.41 912.08"/></g><g class="cls-17"><ellipse class="cls-18" cx="662.27" cy="1023.52" rx="41.29" ry="13.64"/><polygon class="cls-18" points="699.89 1022.63 723.79 1007.27 725.03 1035.83 699.89 1022.63"/></g><line class="cls-20" x1="171.32" y1="445.01" x2="163.98" y2="457.7"/><path class="cls-21" d="M240.81,270.65c-1-.38-48.9-7.1-94.54-6.08-45.67-1.24-93.51,5.68-94.5,6.09.28.21,6.73-9,22.86-19A136.75,136.75,0,0,1,218,251.6C234.12,261.6,240.54,270.86,240.81,270.65Z"/><path class="cls-21" d="M259.43,274.93c-.17-.13-58.46,2.49-107.48,18.9-49.27,14.71-83.58,33.7-84.63,33.78-.46,1.62,11-43.81,71.88-64.22,29.59-9.81,61.56-7.43,84-1.93C246.05,266.83,259.37,275.32,259.43,274.93Z"/><path class="cls-21" d="M241.7,299.1c-.36.47-21.38-36-73.67-66.92-51.52-31.15-106.26-45.13-105.24-46-.26.56,21-6.82,50.09-5.84,28.83.45,65.42,9.27,90.36,30.07C253.66,253.17,240.5,300.62,241.7,299.1Z"/><path class="cls-22" d="M270.11,524.52H218.05V273.29h38.56a430,430,0,0,0,13.5,251.23Z"/><path class="cls-21" d="M230,282.24c.42.42,21.91-34.82,74.19-65.81,51.56-31.2,106.87-46.38,105.86-47.21.28.55-21.21-6.55-50.4-5.25-29,.76-65.63,9.92-90.6,30.71C218.61,237.44,231.23,283.72,230,282.24Z"/><path class="cls-21" d="M225.6,264.25c1.06-.39,46.38-8.87,92.16-10.22,45.73-3.59,96,1.55,97,1.95-.25.24-7.71-8.93-24.92-18.25-16.86-9.23-43.48-18.61-73.85-16.83a132.2,132.2,0,0,0-69.49,23.64C231.4,255.16,225.9,264.42,225.6,264.25Z"/><path class="cls-21" d="M214.39,271.3c.31-.24,57.26.07,105.3,14,48.2,12.08,84.18,28.74,85.29,28.84.72,1.58-13.68-43.52-75.1-60.13-29.75-8-60.57-3.86-81.8,2.58C226.5,263,214.5,271.66,214.39,271.3Z"/><path class="cls-21" d="M235.59,273.64c-.76.67,24.2,9.77,50,27.28,26.33,17.83,33.85,39,33.78,38.6-.95.62,9.68-22.1-12-46.87-10.88-12.11-29.33-18.8-44.56-20.27C247.45,270.55,235.38,273.94,235.59,273.64Z"/><path class="cls-21" d="M146.64,348.84c-.35.51,5.45-21.5,31.6-40.22,25.5-17.95,45.78-30.4,44.71-31.32.31.29-13.32-2.89-29.25.22-15.93,2.63-34.16,11.54-42.91,24.77C133.72,329.11,148,349.14,146.64,348.84Z"/><rect class="cls-21" x="214.71" y="271.29" width="40.72" height="13.36" rx="6.55"/><ellipse class="cls-23" cx="218.05" cy="280.31" rx="11.69" ry="9.35" transform="translate(-100.61 437.06) rotate(-78.31)"/><ellipse class="cls-24" cx="214.64" cy="290.17" rx="0.67" ry="0.53" transform="translate(-113 441.59) rotate(-78.31)"/><ellipse class="cls-24" cx="217.25" cy="290.72" rx="0.67" ry="0.53" transform="translate(-111.44 444.59) rotate(-78.31)"/><ellipse class="cls-24" cx="215.95" cy="289.08" rx="0.67" ry="0.53" transform="translate(-110.88 442.01) rotate(-78.31)"/><ellipse class="cls-23" cx="232.6" cy="279.61" rx="9.35" ry="11.69" transform="translate(-111.72 162.45) rotate(-31.45)"/><ellipse class="cls-24" cx="236.88" cy="289.13" rx="0.53" ry="0.67" transform="translate(-116.06 166.08) rotate(-31.45)"/><ellipse class="cls-24" cx="239.15" cy="287.73" rx="0.53" ry="0.67" transform="translate(-115 167.06) rotate(-31.45)"/><ellipse class="cls-24" cx="237.09" cy="287.43" rx="0.53" ry="0.67" transform="translate(-115.15 165.94) rotate(-31.45)"/><ellipse class="cls-23" cx="248.62" cy="280.28" rx="9.35" ry="11.69" transform="translate(-99.24 141.13) rotate(-26.62)"/><ellipse class="cls-24" cx="252.08" cy="290.13" rx="0.53" ry="0.67" transform="translate(-103.29 143.73) rotate(-26.62)"/><ellipse class="cls-24" cx="254.46" cy="288.93" rx="0.53" ry="0.67" transform="translate(-102.5 144.67) rotate(-26.62)"/><ellipse class="cls-24" cx="252.43" cy="288.45" rx="0.53" ry="0.67" transform="translate(-102.5 143.71) rotate(-26.62)"/><path d="M910.2,144.6l-.76,6c-.29,0-.67,0-1.14,0l-2.41,0q-5.11,0-7.73-1.8a5.88,5.88,0,0,1-2.61-5.17c0-1.46,0-2.56,0-3.29s0-1.4,0-2h-2.9v-6.16h3v-5.39h8.67v5.39H910v6.16h-5.68c0,.28,0,.51,0,.68s0,.45,0,.81,0,.54,0,.89,0,.58,0,.71a3.08,3.08,0,0,0,.86,2.28c.57.56,2,.85,4.18.85h.8Z"/><path d="M920.53,130.22h-8.84v-5.63h8.84Zm0,20.14h-8.84c0-1.05,0-2.3,0-3.74s0-3.1,0-5c0-1.54,0-3.07,0-4.58s0-3.14,0-4.85h8.84c0,1.64,0,3,0,4.14s0,2.87,0,5.25c0,2.59,0,4.41,0,5.46S920.53,149.22,920.53,150.36Z"/><path d="M943.49,150.36l-1.93,0-2.08,0a51.85,51.85,0,0,1-7.07-.4,15.09,15.09,0,0,1-4.43-1.25,9.73,9.73,0,0,1-3.9-3.22,8.1,8.1,0,0,1-1.32-4.63,7.29,7.29,0,0,1,1.43-4.32,9.16,9.16,0,0,1,4.44-3.13,17.52,17.52,0,0,1,3-.81,29.94,29.94,0,0,1,3.08-.42l0-7.63h8.84c0,.47,0,1.78,0,3.92s0,5,0,8.67q0,5.17,0,8.28C943.48,147.53,943.49,149.17,943.49,150.36ZM935.17,141v-2.44c-.32,0-.66,0-1,0a2.84,2.84,0,0,0-1.18.4,2.38,2.38,0,0,0-1,1,3.08,3.08,0,0,0-.39,1.55,4.39,4.39,0,0,0,.24,1.49,2.47,2.47,0,0,0,1,1.17,3.55,3.55,0,0,0,1.07.48,4.6,4.6,0,0,0,1.15.15h.15V141Z"/><path class="cls-25" d="M1931.19,954.19V1006l-8.16-.37q-302.94-13.41-606-18.24Q660.38,976.94,3,1006.77l-1.57.08V956.09l1.57.08c117,6.26,287.3,13.12,493,13.24,105.49.06,194.39-1.68,275.32-4.19,34.32-1.08,67.2-2.29,99.3-3.56l3.36-.13,24.14-1c66.86-2.75,131.1-5.7,198.88-8.13,198.06-7.1,478.71-11.6,826,1.47Z"/><path class="cls-25" d="M1916.19,837.36v42.13a25.87,25.87,0,0,1-15.16,4.92q-598-38.79-1194.2-29-12.48.2-25,.43h0c-.75,0-1.49,0-2.24,0q-49.68.89-99.34,2.14-73.63,1.83-147.25,4.42c-226.92,8-340.39,11.33-353.3,16.67-8.16,3.37-49.42,21.45-85.7,5.33-1.11-.49-3.32-1.51-6-3l-1.57-.89v-47c.52-.16,1-.3,1.57-.42a25.33,25.33,0,0,1,6-.71c80.88,1.46,217.45,3.26,387,2,127.17-.94,232.39-3.3,326.14-6.15,231.66-7,393.26-17,642.86-15.85,111.46.53,278.73,3.46,485.7,15.85q16.2,1,32.73,2,16.13,1,32.57,2.13a25.35,25.35,0,0,1,7,1,25.84,25.84,0,0,1,4.15,1.56A25.08,25.08,0,0,1,1916.19,837.36Z"/><g class="cls-19"><path class="cls-18" d="M160.32,1020.3c-3.63-11.08-14.7-17.36-24.72-14s-15.2,15-11.56,26.11Z"/><ellipse class="cls-18" cx="125" cy="1032.27" rx="0.96" ry="1.05" transform="translate(-291.63 79.58) rotate(-16.72)"/><ellipse class="cls-18" cx="126.81" cy="1031.66" rx="0.96" ry="1.05" transform="translate(-291.38 80.07) rotate(-16.72)"/><ellipse class="cls-18" cx="128.63" cy="1031.06" rx="0.96" ry="1.05" transform="translate(-291.13 80.57) rotate(-16.72)"/><ellipse class="cls-18" cx="130.44" cy="1030.45" rx="0.96" ry="1.05" transform="translate(-290.88 81.06) rotate(-16.72)"/><ellipse class="cls-18" cx="132.26" cy="1029.85" rx="0.96" ry="1.05" transform="translate(-290.63 81.56) rotate(-16.72)"/><ellipse class="cls-18" cx="134.07" cy="1029.24" rx="0.96" ry="1.05" transform="matrix(0.96, -0.29, 0.29, 0.96, -290.38, 82.06)"/><ellipse class="cls-18" cx="135.88" cy="1028.64" rx="0.96" ry="1.05" transform="translate(-290.12 82.55) rotate(-16.72)"/><ellipse class="cls-18" cx="137.7" cy="1028.03" rx="0.96" ry="1.05" transform="translate(-289.87 83.05) rotate(-16.72)"/><ellipse class="cls-18" cx="139.51" cy="1027.43" rx="0.96" ry="1.05" transform="translate(-289.62 83.55) rotate(-16.72)"/><ellipse class="cls-18" cx="141.33" cy="1026.82" rx="0.96" ry="1.05" transform="translate(-289.37 84.04) rotate(-16.72)"/><ellipse class="cls-18" cx="159.47" cy="1020.77" rx="0.96" ry="1.05" transform="translate(-286.87 89.01) rotate(-16.72)"/><ellipse class="cls-18" cx="157.66" cy="1021.38" rx="0.96" ry="1.05" transform="translate(-287.12 88.51) rotate(-16.72)"/><ellipse class="cls-18" cx="155.84" cy="1021.98" rx="0.96" ry="1.05" transform="translate(-287.37 88.01) rotate(-16.72)"/><ellipse class="cls-18" cx="154.03" cy="1022.59" rx="0.96" ry="1.05" transform="translate(-287.62 87.52) rotate(-16.72)"/><ellipse class="cls-18" cx="152.21" cy="1023.19" rx="0.96" ry="1.05" transform="translate(-287.87 87.02) rotate(-16.72)"/><ellipse class="cls-18" cx="150.4" cy="1023.8" rx="0.96" ry="1.05" transform="translate(-288.12 86.52) rotate(-16.72)"/><ellipse class="cls-18" cx="148.58" cy="1024.4" rx="0.96" ry="1.05" transform="translate(-288.37 86.03) rotate(-16.72)"/><ellipse class="cls-18" cx="146.77" cy="1025.01" rx="0.96" ry="1.05" transform="translate(-288.62 85.53) rotate(-16.72)"/><ellipse class="cls-18" cx="144.96" cy="1025.61" rx="0.96" ry="1.05" transform="translate(-288.87 85.03) rotate(-16.72)"/><ellipse class="cls-18" cx="143.14" cy="1026.22" rx="0.96" ry="1.05" transform="translate(-289.12 84.54) rotate(-16.72)"/><path class="cls-18" d="M130.52,1031a3.86,3.86,0,0,1,0,3.25c-.42.82-1,1.36-1.43,2.22-.91,2-.28,5.37.89,8.06a80,80,0,0,0,4.21,7.48c.93,1.67,1.84,3.8,1.51,5.42a13.91,13.91,0,0,1-.79,1.93c-.81,2.35.49,5.88,1.73,8.78Z"/><path class="cls-18" d="M136.73,1028.21a8.35,8.35,0,0,0-2.15,7.1,3.46,3.46,0,0,0,.38,1.23,3.39,3.39,0,0,0,1.29,1.23c1.63,1,3.51,1.3,5.2,2.15s3.29,2.6,3.1,4.55-1.92,3.18-1.93,5a4,4,0,0,0,1.41,2.85,10.53,10.53,0,0,0,2.71,1.62Z"/><path class="cls-18" d="M136.86,1028.42a3.86,3.86,0,0,1,0,3.25c-.42.82-1,1.36-1.43,2.21-.91,2-.28,5.38.89,8.07a81.28,81.28,0,0,0,4.21,7.48c.93,1.66,1.84,3.79,1.5,5.42a13.19,13.19,0,0,1-.78,1.93c-.81,2.35.49,5.88,1.73,8.78Z"/><path class="cls-18" d="M140.49,1027.21a3.86,3.86,0,0,1,0,3.25c-.42.82-1,1.36-1.43,2.22-.91,2-.28,5.37.89,8.06a83.61,83.61,0,0,0,4.2,7.48c.94,1.67,1.84,3.79,1.51,5.42a14.4,14.4,0,0,1-.78,1.93c-.81,2.35.49,5.88,1.73,8.78Z"/><path class="cls-18" d="M154.93,1022.77a3.81,3.81,0,0,0,1.94,2.58c.82.41,1.64.46,2.46.92,1.93,1.08,3.4,4.15,4,7a81,81,0,0,1,1.05,8.53c.23,1.91.76,4.16,2,5.26a13.75,13.75,0,0,0,1.77,1.08c2,1.4,3.08,5,3.8,8.09Z"/><path class="cls-18" d="M149.37,1024.25a3.8,3.8,0,0,0,1.95,2.58c.82.41,1.64.47,2.46.92,1.93,1.08,3.4,4.15,4.05,7a83.08,83.08,0,0,1,1,8.53c.23,1.9.76,4.15,2,5.26a14.21,14.21,0,0,0,1.77,1.08c2,1.39,3.08,5,3.8,8.08Z"/><path class="cls-18" d="M145.85,1025.79a3.8,3.8,0,0,0,2,2.58c.82.41,1.64.47,2.46.93,1.93,1.08,3.4,4.14,4.05,7a83.08,83.08,0,0,1,1.05,8.53c.23,1.9.76,4.15,2,5.26a13.1,13.1,0,0,0,1.77,1.08c2,1.39,3.08,5,3.8,8.08Z"/><path class="cls-18" d="M142.34,1026.8c1.84,2.68-.17,6.55,1.14,9.55a7.8,7.8,0,0,0,1.75,2.32c2.64,2.57,6.07,4.88,6.75,8.58a20.11,20.11,0,0,1,.13,3.47,19.71,19.71,0,0,0,3.66,11.12Z"/></g><g class="cls-17"><ellipse class="cls-18" cx="1520.42" cy="900.86" rx="42.15" ry="13.92"/><polygon class="cls-18" points="1558.82 899.95 1583.22 884.27 1584.48 913.42 1558.82 899.95"/></g><g class="cls-17"><ellipse class="cls-18" cx="1557.42" cy="1037.86" rx="42.15" ry="13.92"/><polygon class="cls-18" points="1595.82 1036.95 1620.22 1021.27 1621.48 1050.42 1595.82 1036.95"/></g><g class="cls-19"><path class="cls-18" d="M1137.5,1013.29c-3.63-11.08-14.7-17.36-24.72-14s-15.2,15-11.57,26.12Z"/><ellipse class="cls-18" cx="1102.18" cy="1025.25" rx="0.96" ry="1.05" transform="translate(-248.32 360.35) rotate(-16.72)"/><ellipse class="cls-18" cx="1103.99" cy="1024.65" rx="0.96" ry="1.05" transform="translate(-248.07 360.84) rotate(-16.72)"/><ellipse class="cls-18" cx="1105.8" cy="1024.04" rx="0.96" ry="1.05" transform="translate(-247.82 361.34) rotate(-16.72)"/><ellipse class="cls-18" cx="1107.62" cy="1023.44" rx="0.96" ry="1.05" transform="translate(-247.57 361.83) rotate(-16.72)"/><ellipse class="cls-18" cx="1109.43" cy="1022.83" rx="0.96" ry="1.05" transform="translate(-247.32 362.33) rotate(-16.72)"/><ellipse class="cls-18" cx="1111.25" cy="1022.23" rx="0.96" ry="1.05" transform="translate(-247.06 362.83) rotate(-16.72)"/><ellipse class="cls-18" cx="1113.06" cy="1021.63" rx="0.96" ry="1.05" transform="matrix(0.96, -0.29, 0.29, 0.96, -246.81, 363.32)"/><ellipse class="cls-18" cx="1114.88" cy="1021.02" rx="0.96" ry="1.05" transform="translate(-246.56 363.82) rotate(-16.72)"/><ellipse class="cls-18" cx="1116.69" cy="1020.42" rx="0.96" ry="1.05" transform="translate(-246.31 364.32) rotate(-16.72)"/><ellipse class="cls-18" cx="1118.5" cy="1019.81" rx="0.96" ry="1.05" transform="translate(-246.06 364.81) rotate(-16.72)"/><ellipse class="cls-18" cx="1136.65" cy="1013.76" rx="0.96" ry="1.05" transform="translate(-243.56 369.77) rotate(-16.72)"/><ellipse class="cls-18" cx="1134.83" cy="1014.37" rx="0.96" ry="1.05" transform="translate(-243.81 369.28) rotate(-16.72)"/><ellipse class="cls-18" cx="1133.02" cy="1014.97" rx="0.96" ry="1.05" transform="translate(-244.06 368.78) rotate(-16.72)"/><ellipse class="cls-18" cx="1131.21" cy="1015.58" rx="0.96" ry="1.05" transform="translate(-244.31 368.29) rotate(-16.72)"/><ellipse class="cls-18" cx="1129.39" cy="1016.18" rx="0.96" ry="1.05" transform="translate(-244.56 367.79) rotate(-16.72)"/><ellipse class="cls-18" cx="1127.58" cy="1016.79" rx="0.96" ry="1.05" transform="translate(-244.81 367.29) rotate(-16.72)"/><ellipse class="cls-18" cx="1125.76" cy="1017.39" rx="0.96" ry="1.05" transform="translate(-245.06 366.8) rotate(-16.72)"/><ellipse class="cls-18" cx="1123.95" cy="1018" rx="0.96" ry="1.05" transform="matrix(0.96, -0.29, 0.29, 0.96, -245.31, 366.3)"/><ellipse class="cls-18" cx="1122.13" cy="1018.6" rx="0.96" ry="1.05" transform="translate(-245.56 365.8) rotate(-16.72)"/><ellipse class="cls-18" cx="1120.32" cy="1019.21" rx="0.96" ry="1.05" transform="translate(-245.81 365.31) rotate(-16.72)"/><path class="cls-18" d="M1107.69,1024a3.82,3.82,0,0,1,0,3.25c-.41.82-1,1.36-1.42,2.22-.91,2-.28,5.37.89,8.06a83.61,83.61,0,0,0,4.2,7.48c.94,1.67,1.84,3.79,1.51,5.42a14.4,14.4,0,0,1-.78,1.93c-.81,2.35.49,5.88,1.73,8.78Z"/><path class="cls-18" d="M1113.91,1021.2a8.35,8.35,0,0,0-2.16,7.1,3.68,3.68,0,0,0,.38,1.23,3.54,3.54,0,0,0,1.29,1.23c1.63,1,3.52,1.3,5.21,2.15s3.29,2.6,3.09,4.55-1.92,3.18-1.92,5a4,4,0,0,0,1.41,2.85,10.65,10.65,0,0,0,2.7,1.62Z"/><path class="cls-18" d="M1114,1021.41a3.82,3.82,0,0,1,0,3.25c-.41.82-1,1.36-1.42,2.21-.91,2-.28,5.38.89,8.07a83.61,83.61,0,0,0,4.2,7.48c.94,1.66,1.84,3.79,1.51,5.42a14.4,14.4,0,0,1-.78,1.93c-.81,2.35.49,5.88,1.73,8.77Z"/><path class="cls-18" d="M1117.66,1020.2a3.82,3.82,0,0,1,0,3.25c-.41.82-1,1.36-1.42,2.21-.91,2-.28,5.38.89,8.07a83.61,83.61,0,0,0,4.2,7.48c.94,1.66,1.84,3.79,1.51,5.42a14.4,14.4,0,0,1-.78,1.93c-.81,2.35.49,5.88,1.73,8.77Z"/><path class="cls-18" d="M1132.1,1015.76a3.82,3.82,0,0,0,2,2.58c.82.41,1.64.46,2.46.92,1.93,1.08,3.4,4.15,4,7a80.68,80.68,0,0,1,1,8.53c.24,1.91.77,4.16,2,5.26a13.1,13.1,0,0,0,1.77,1.08c2,1.4,3.08,5,3.8,8.09Z"/><path class="cls-18" d="M1126.55,1017.24a3.79,3.79,0,0,0,2,2.58c.82.41,1.64.47,2.46.92,1.92,1.08,3.4,4.15,4,7a83,83,0,0,1,1,8.53c.24,1.9.77,4.15,2,5.26a13.56,13.56,0,0,0,1.76,1.07c2,1.4,3.09,5,3.81,8.09Z"/><path class="cls-18" d="M1123,1018.78a3.77,3.77,0,0,0,2,2.58c.82.41,1.64.47,2.46.92,1.92,1.08,3.4,4.15,4,7a83,83,0,0,1,1,8.53c.24,1.9.77,4.15,2,5.26a14.87,14.87,0,0,0,1.76,1.08c2,1.39,3.09,5,3.81,8.08Z"/><path class="cls-18" d="M1119.52,1019.79c1.84,2.68-.17,6.55,1.14,9.55a7.48,7.48,0,0,0,1.75,2.31c2.64,2.58,6.07,4.88,6.75,8.59a20.11,20.11,0,0,1,.13,3.47,19.65,19.65,0,0,0,3.66,11.11Z"/></g><g class="cls-19"><path class="cls-18" d="M1096.5,895.29c-3.63-11.08-14.7-17.36-24.72-14s-15.2,15-11.57,26.12Z"/><ellipse class="cls-18" cx="1061.18" cy="907.25" rx="0.96" ry="1.05" transform="translate(-216.11 343.57) rotate(-16.72)"/><ellipse class="cls-18" cx="1062.99" cy="906.65" rx="0.96" ry="1.05" transform="translate(-215.86 344.06) rotate(-16.72)"/><ellipse class="cls-18" cx="1064.8" cy="906.04" rx="0.96" ry="1.05" transform="translate(-215.61 344.56) rotate(-16.72)"/><ellipse class="cls-18" cx="1066.62" cy="905.44" rx="0.96" ry="1.05" transform="translate(-215.36 345.05) rotate(-16.72)"/><ellipse class="cls-18" cx="1068.43" cy="904.83" rx="0.96" ry="1.05" transform="translate(-215.11 345.55) rotate(-16.72)"/><ellipse class="cls-18" cx="1070.25" cy="904.23" rx="0.96" ry="1.05" transform="translate(-214.86 346.05) rotate(-16.72)"/><ellipse class="cls-18" cx="1072.06" cy="903.63" rx="0.96" ry="1.05" transform="matrix(0.96, -0.29, 0.29, 0.96, -214.61, 346.54)"/><ellipse class="cls-18" cx="1073.88" cy="903.02" rx="0.96" ry="1.05" transform="translate(-214.36 347.04) rotate(-16.72)"/><ellipse class="cls-18" cx="1075.69" cy="902.42" rx="0.96" ry="1.05" transform="translate(-214.11 347.54) rotate(-16.72)"/><ellipse class="cls-18" cx="1077.5" cy="901.81" rx="0.96" ry="1.05" transform="translate(-213.85 348.03) rotate(-16.72)"/><ellipse class="cls-18" cx="1095.65" cy="895.76" rx="0.96" ry="1.05" transform="translate(-211.35 353) rotate(-16.72)"/><ellipse class="cls-18" cx="1093.83" cy="896.37" rx="0.96" ry="1.05" transform="translate(-211.6 352.5) rotate(-16.72)"/><ellipse class="cls-18" cx="1092.02" cy="896.97" rx="0.96" ry="1.05" transform="translate(-211.85 352) rotate(-16.72)"/><ellipse class="cls-18" cx="1090.21" cy="897.58" rx="0.96" ry="1.05" transform="translate(-212.1 351.51) rotate(-16.72)"/><ellipse class="cls-18" cx="1088.39" cy="898.18" rx="0.96" ry="1.05" transform="translate(-212.35 351.01) rotate(-16.72)"/><ellipse class="cls-18" cx="1086.58" cy="898.79" rx="0.96" ry="1.05" transform="translate(-212.6 350.51) rotate(-16.72)"/><ellipse class="cls-18" cx="1084.76" cy="899.39" rx="0.96" ry="1.05" transform="translate(-212.85 350.02) rotate(-16.72)"/><ellipse class="cls-18" cx="1082.95" cy="900" rx="0.96" ry="1.05" transform="matrix(0.96, -0.29, 0.29, 0.96, -213.1, 349.52)"/><ellipse class="cls-18" cx="1081.13" cy="900.6" rx="0.96" ry="1.05" transform="translate(-213.35 349.03) rotate(-16.72)"/><ellipse class="cls-18" cx="1079.32" cy="901.21" rx="0.96" ry="1.05" transform="translate(-213.6 348.53) rotate(-16.72)"/><path class="cls-18" d="M1066.69,906a3.82,3.82,0,0,1,0,3.25c-.41.82-1,1.36-1.42,2.22-.91,2-.28,5.37.89,8.06a83.61,83.61,0,0,0,4.2,7.48c.94,1.67,1.84,3.79,1.51,5.42a14.4,14.4,0,0,1-.78,1.93c-.81,2.35.49,5.88,1.73,8.78Z"/><path class="cls-18" d="M1072.91,903.2a8.35,8.35,0,0,0-2.16,7.1,3.68,3.68,0,0,0,.38,1.23,3.54,3.54,0,0,0,1.29,1.23c1.63,1,3.52,1.3,5.21,2.15s3.29,2.6,3.09,4.55-1.92,3.18-1.92,5a4,4,0,0,0,1.41,2.85,10.65,10.65,0,0,0,2.7,1.62Z"/><path class="cls-18" d="M1073,903.41a3.82,3.82,0,0,1,0,3.25c-.41.82-1,1.36-1.42,2.21-.91,2-.28,5.38.89,8.07a83.61,83.61,0,0,0,4.2,7.48c.94,1.66,1.84,3.79,1.51,5.42a14.4,14.4,0,0,1-.78,1.93c-.81,2.35.49,5.88,1.73,8.77Z"/><path class="cls-18" d="M1076.66,902.2a3.82,3.82,0,0,1,0,3.25c-.41.82-1,1.36-1.42,2.21-.91,2-.28,5.38.89,8.07a83.61,83.61,0,0,0,4.2,7.48c.94,1.66,1.84,3.79,1.51,5.42a14.4,14.4,0,0,1-.78,1.93c-.81,2.35.49,5.88,1.73,8.77Z"/><path class="cls-18" d="M1091.1,897.76a3.82,3.82,0,0,0,2,2.58c.82.41,1.64.46,2.46.92,1.93,1.08,3.4,4.15,4,7a80.68,80.68,0,0,1,1,8.53c.24,1.91.77,4.16,2,5.26a13.1,13.1,0,0,0,1.77,1.08c2,1.4,3.08,5,3.8,8.09Z"/><path class="cls-18" d="M1085.55,899.24a3.79,3.79,0,0,0,2,2.58c.82.41,1.64.47,2.46.92,1.92,1.08,3.4,4.15,4,7a83,83,0,0,1,1,8.53c.24,1.9.77,4.15,2,5.26a13.56,13.56,0,0,0,1.76,1.07c2,1.4,3.09,5,3.81,8.09Z"/><path class="cls-18" d="M1082,900.78a3.77,3.77,0,0,0,2,2.58c.82.41,1.64.47,2.46.92,1.92,1.08,3.4,4.15,4,7a83,83,0,0,1,1,8.53c.24,1.9.77,4.15,2,5.26a14.87,14.87,0,0,0,1.76,1.08c2,1.39,3.09,5,3.81,8.08Z"/><path class="cls-18" d="M1078.52,901.79c1.84,2.68-.17,6.55,1.14,9.55a7.48,7.48,0,0,0,1.75,2.31c2.64,2.58,6.07,4.88,6.75,8.59a20.11,20.11,0,0,1,.13,3.47,19.65,19.65,0,0,0,3.66,11.11Z"/></g><path class="cls-20" d="M1321.91,942.56l-7.36,6.14"/><path class="cls-26" d="M1489.53,913.05c7.89,14.28,6.82,13.35,8.59,16,10.9,16,30.27,20,31.27,20.23,4.3.83,15.92,2.91,28.21-3.06,1.76-.86,19.23-9.63,20.86-24.53,1.06-9.75-5.16-17.62-3.68-18.4s6.61,6,9.81,11a49.72,49.72,0,0,1,3.07,5.52c4.08,9.09,1.45,19.8,0,24.53,1.49-.2,3.6-.46,6.13-.61a61.92,61.92,0,0,1,10.42,0,36.8,36.8,0,0,1,11,2.45,33.84,33.84,0,0,1,11,7.36c2.48,2.32,4.1,3.84,3.68,4.9-.6,1.54-4.85.64-13.49.62a86.17,86.17,0,0,0-12.27.61c-6,.82-10.45,2.37-15.94,4.29-3.94,1.38-6.75,2.57-12.27,4.91-8.6,3.64-9.13,4.24-12.88,5.52-1.15.39-5.58,1.86-14.71,3.07a153.28,153.28,0,0,1-23.31,1.22c-15.71-.3-17.58-1.83-31.89-2.45-9.76-.42-8.25.32-29.44.61-18.81.27-19-.33-35.57,0-18.08.37-18,1.08-27,.62a214.73,214.73,0,0,1-28.83-3.68c-9.64-1.79-16.81-3.68-21.46-4.91-9.79-2.59-16.44-4.36-25.15-8a118.78,118.78,0,0,1-12.74-6c-2-1.11-4.08-2.37-6.27-3.84-1.19-.79-2.73-1.81-4.69-3.29a81.78,81.78,0,0,1-8.19-7.13l-.81-.82c-5-5.09-8.93-9.18-10.84-14.51-4.08-11.35,2.64-23.13,10.43-36.8,5.49-9.63,10.86-15.36,17.17-22.08a70.35,70.35,0,0,1,9.46-8.75,24.34,24.34,0,0,1,6.48-3.51c5-1.83,9.32-1.83,14.11-1.84,9,0,11.2,1.79,21.46,3.06,3.6.45,10,.51,22.7.62,4.13,0,3.82,0,20.85,0,21.54,0,18.41,0,23.3,0s9.83.35,14.72,0c5.61-.4,9.29-1.14,14.11.61a19.08,19.08,0,0,1,1.85.78,16.73,16.73,0,0,1,4.28,2.9,18.69,18.69,0,0,1,4.29,6.75c3.17,7.15,3.81,5.92,7.36,13.49Z"/><path class="cls-2" d="M1496.89,841.91c0,.12,0,.23,0,.34h0c0,.25,0,.49-.07.75-.82,7.75-3.28,18.81-11.51,23.43-5.18,2.91-10.65,2.13-12.84,1.84-37.51-5-126.57-.08-143.7-1.84a54.12,54.12,0,0,0-7.38-.35c-1.29,0-2.38,0-2.61.06-1,.05-2,.13-3.46.29-5.24.58-8.1,1.6-12.23.62a18.47,18.47,0,0,1-8-4.3q-2.43-9.54-4.88-19.09l-.45-1.75c.6-1,2.69-2,6.09-3l200.85,3Z"/><path class="cls-27" d="M1496.89,842.52a1.24,1.24,0,0,1-.11.49c-2.5,5.53-47.9,9.94-103.53,9.94-53.4,0-97.36-4.06-103-9.28l-.45-1.75c.6-1,2.69-2,6.09-3,14.51-4,52.63-6.85,97.39-6.85,55.2,0,100.31,4.34,103.46,9.81a1.07,1.07,0,0,1,.14.34h0A.82.82,0,0,1,1496.89,842.52Z"/><path class="cls-2" d="M1370.89,847.17c0-35.06,10.16-63.48,22.7-63.48s22.69,28.42,22.69,63.48Z"/><circle class="cls-28" cx="1376.69" cy="833.32" r="4.29"/><circle class="cls-21" cx="1393.86" cy="833.32" r="4.29"/><circle class="cls-18" cx="1410.42" cy="833.32" r="4.29"/><ellipse class="cls-29" cx="1333.11" cy="892.96" rx="12.85" ry="12.73"/><circle cx="1331.25" cy="893.73" r="7.36"/><circle class="cls-18" cx="1329.41" cy="890.66" r="3.07"/><path class="cls-30" d="M1449.3,921.33a5.83,5.83,0,1,1,0,11.65"/><path class="cls-30" d="M1436.07,910.17a5.83,5.83,0,1,1,0,11.65"/><path class="cls-30" d="M1430.16,930.38a5.83,5.83,0,1,1,0,11.65"/><path class="cls-30" d="M1414.77,910.38a5.83,5.83,0,0,1,0,11.65"/><path class="cls-30" d="M1409.43,932.74a5.83,5.83,0,1,1,0,11.65"/><path class="cls-30" d="M1427.31,895a5.83,5.83,0,0,1,0,11.66"/><path class="cls-30" d="M1443.63,938.47a5.83,5.83,0,1,1,0,11.65"/><ellipse class="cls-29" cx="1328.59" cy="896.27" rx="12.85" ry="12.73"/><circle cx="1326.72" cy="897.03" r="7.36"/><circle class="cls-18" cx="1324.88" cy="893.97" r="3.07"/><path class="cls-31" d="M1319.88,942.19h0a1.38,1.38,0,0,0,0,1.45,8.58,8.58,0,0,1,1,6.13,7.58,7.58,0,0,1-6.06,6.08.09.09,0,0,0,0,.18,7.37,7.37,0,0,0,8.12-6.08,8.38,8.38,0,0,0-2.84-8.05Z"/></svg>