<svg id="Layer_1" data-name="Layer 1" xmlns="http://www.w3.org/2000/svg" width="260" height="240" viewBox="0 0 260 240"><defs><style>.cls-1{fill:#f7931e;}.cls-2{fill:gold;}.cls-3{fill:#090a0a;}.cls-4{fill:#666;}</style></defs><title>Artboard 34</title><polygon class="cls-1" points="260.66 120 218.01 147.06 234.26 194.88 183.84 190.15 169.02 238.56 130 206.19 90.98 238.56 76.16 190.15 25.74 194.88 41.99 147.06 -0.66 120 41.99 92.94 25.74 45.12 76.16 49.85 90.98 1.44 130 33.81 169.02 1.44 183.84 49.85 234.26 45.12 218.01 92.94 260.66 120"/><ellipse class="cls-2" cx="130.54" cy="120.64" rx="95.69" ry="90.14"/><circle class="cls-3" cx="129.1" cy="42.24" r="3.5"/><circle class="cls-3" cx="129.1" cy="200.24" r="3.5"/><circle class="cls-3" cx="201.1" cy="81.24" r="4.5"/><circle class="cls-3" cx="200.1" cy="160.24" r="3.5"/><circle class="cls-3" cx="61.1" cy="163.24" r="3.5"/><circle class="cls-3" cx="58.1" cy="82.24" r="3.5"/><circle class="cls-3" cx="173.1" cy="54.24" r="3.5"/><circle class="cls-3" cx="170.1" cy="189.24" r="3.5"/><circle class="cls-3" cx="211.1" cy="120.24" r="3.5"/><circle class="cls-3" cx="48.1" cy="124.24" r="3.5"/><circle class="cls-3" cx="93.1" cy="191.24" r="3.5"/><circle class="cls-3" cx="86.1" cy="54.24" r="3.5"/><circle class="cls-3" cx="129.1" cy="42.24" r="4.5"/><rect class="cls-4" x="127.6" y="61.74" width="5" height="55" rx="1.5"/><rect class="cls-4" x="104.42" y="90.74" width="4.33" height="47.59" rx="1.5" transform="translate(225.95 13.39) rotate(92.67)"/><circle class="cls-3" cx="130.1" cy="115.24" r="4.5"/><circle class="cls-3" cx="129.1" cy="200.24" r="4.5"/><circle class="cls-3" cx="58.1" cy="82.24" r="4.5"/><circle class="cls-3" cx="61.1" cy="163.24" r="4.5"/><circle class="cls-3" cx="200.1" cy="160.24" r="4.5"/></svg>