<svg id="Layer_1" data-name="Layer 1" xmlns="http://www.w3.org/2000/svg" width="330.86" height="184.87" viewBox="0 0 330.86 184.87"><defs><style>.cls-1,.cls-9{fill:none;}.cls-2{fill:#009245;}.cls-3{fill:#f7931e;}.cls-4{fill:#fbb03b;}.cls-5{fill:red;}.cls-6{fill:#006837;}.cls-7{fill:#fff;}.cls-8{fill:#eaeaea;}.cls-9{stroke:#b3e021;stroke-miterlimit:10;}.cls-10{fill:#ed1c24;}</style></defs><title>fisk</title><path class="cls-1" d="M297.77,149.65l7,5.82"/><path class="cls-2" d="M133.19,122.63c-7.48,13.54-6.46,12.65-8.14,15.11-10.33,15.19-28.7,19-29.64,19.19-4.08.78-15.09,2.75-26.75-2.91-1.67-.81-18.22-9.13-19.76-23.25-1-9.25,4.88-16.71,3.48-17.45s-6.27,5.64-9.3,10.47a47.22,47.22,0,0,0-2.9,5.23c-3.88,8.62-1.38,18.77,0,23.26-1.42-.2-3.42-.43-5.82-.59a60.91,60.91,0,0,0-9.88,0A35.31,35.31,0,0,0,14,154a32.1,32.1,0,0,0-10.46,7c-2.35,2.2-3.88,3.64-3.49,4.65.57,1.45,4.6.6,12.79.58a81.27,81.27,0,0,1,11.63.58c5.69.78,9.91,2.25,15.11,4.07,3.74,1.3,6.41,2.44,11.63,4.65,8.15,3.45,8.66,4,12.21,5.23a72.11,72.11,0,0,0,13.95,2.91,144.92,144.92,0,0,0,22.09,1.16c14.9-.28,16.67-1.74,30.24-2.32,9.24-.4,7.81.3,27.9.58,17.84.25,18-.32,33.72,0,17.14.35,17,1,25.58.58a201.4,201.4,0,0,0,27.32-3.49c9.15-1.69,15.94-3.48,20.35-4.65,9.28-2.46,15.58-4.13,23.84-7.56a110.61,110.61,0,0,0,12.08-5.67c1.89-1,3.86-2.24,5.94-3.63,1.13-.75,2.59-1.72,4.45-3.12a79.66,79.66,0,0,0,7.76-6.76l.77-.78c4.77-4.82,8.46-8.7,10.27-13.76,3.87-10.75-2.5-21.92-9.88-34.88-5.2-9.13-10.3-14.56-16.28-20.93a66.73,66.73,0,0,0-9-8.29,22.83,22.83,0,0,0-6.15-3.33c-4.78-1.73-8.83-1.74-13.37-1.75-8.5,0-10.62,1.71-20.35,2.91-3.41.42-9.45.48-21.51.58-3.92,0-3.63,0-19.77,0-20.42,0-17.46,0-22.09,0s-9.31.33-14,0c-5.32-.38-8.81-1.08-13.37.58a17.6,17.6,0,0,0-5.82,3.49A17.89,17.89,0,0,0,154.12,79c-3,6.78-3.61,5.62-7,12.79Z"/><path class="cls-3" d="M126.22,55.19c0,.11,0,.21,0,.32h0c0,.23,0,.47.07.71.78,7.35,3.11,17.84,10.91,22.21,4.92,2.76,10.1,2,12.17,1.75,35.56-4.71,120-.08,136.22-1.75a51.43,51.43,0,0,1,7-.33c1.23,0,2.26,0,2.47.06.9,0,1.93.12,3.29.27,5,.55,7.68,1.51,11.59.58A17.36,17.36,0,0,0,317.5,75q2.31-9,4.63-18.09l.42-1.67c-.56-1-2.55-1.93-5.77-2.81L126.39,55.19Z"/><path class="cls-4" d="M126.22,55.77a1.09,1.09,0,0,0,.1.46c2.37,5.24,45.41,9.42,98.15,9.42,50.61,0,92.28-3.85,97.66-8.79l.42-1.67c-.56-1-2.55-1.93-5.77-2.81-13.75-3.79-49.89-6.49-92.31-6.49-52.33,0-95.1,4.11-98.08,9.3a1.12,1.12,0,0,0-.14.32h0A1.07,1.07,0,0,0,126.22,55.77Z"/><path class="cls-3" d="M245.66,60.17C245.66,26.94,236,0,224.15,0s-21.52,26.94-21.52,60.17Z"/><circle class="cls-5" cx="240.16" cy="47.05" r="4.07"/><circle class="cls-6" cx="223.89" cy="47.05" r="4.07"/><circle class="cls-7" cx="208.19" cy="47.05" r="4.07"/><ellipse class="cls-8" cx="281.47" cy="103.58" rx="12.18" ry="12.07"/><circle cx="283.24" cy="104.31" r="6.98"/><circle class="cls-7" cx="284.98" cy="101.4" r="2.91"/><path class="cls-9" d="M171.33,130.47a5.53,5.53,0,0,0,0,11.05"/><path class="cls-9" d="M183.87,119.9a5.52,5.52,0,0,0,0,11"/><path class="cls-9" d="M189.47,139.05a5.53,5.53,0,0,0,0,11"/><path class="cls-9" d="M204.07,120.09a5.53,5.53,0,1,0,0,11"/><path class="cls-9" d="M209.12,141.29a5.52,5.52,0,0,0,0,11"/><path class="cls-9" d="M192.18,105.47a5.53,5.53,0,0,0,0,11"/><path class="cls-9" d="M176.7,146.72a5.53,5.53,0,0,0,0,11.05"/><path class="cls-10" d="M298.76,147.4h0a1.28,1.28,0,0,1,0,1.37,8.14,8.14,0,0,0-.92,5.81,7.18,7.18,0,0,0,5.75,5.76.09.09,0,0,1,0,.18,7,7,0,0,1-7.7-5.77,7.94,7.94,0,0,1,2.69-7.63C298.65,147.22,298.7,147.31,298.76,147.4Z"/></svg>
