<svg xmlns="http://www.w3.org/2000/svg" xmlns:xlink="http://www.w3.org/1999/xlink" width="1920" height="1080" viewBox="0 0 1920 1080"><defs><style>.cls-1{isolation:isolate;}.cls-2{fill:url(#radial-gradient);}.cls-3{opacity:0.5;}.cls-4{opacity:0.78;mix-blend-mode:multiply;}.cls-5{fill:url(#radial-gradient-2);}.cls-6{fill:url(#radial-gradient-3);}.cls-25,.cls-31,.cls-39,.cls-7{fill:none;}.cls-8{fill:#006837;}.cls-9{fill:#895633;}.cls-10{fill:#603b20;}.cls-11{fill:#070707;}.cls-12{fill:#f7931e;}.cls-13{fill:gold;}.cls-14{fill:#3f9df4;}.cls-15{fill:url(#linear-gradient);}.cls-16{fill:url(#linear-gradient-2);}.cls-17{fill:url(#linear-gradient-3);}.cls-18{fill:url(#linear-gradient-4);}.cls-19{fill:url(#linear-gradient-5);}.cls-20{fill:#0071bc;}.cls-21{fill:#eaeaea;}.cls-22,.cls-35{fill:#fff;}.cls-23{fill:#fbb03b;}.cls-24{fill:red;}.cls-25{stroke:#666;}.cls-25,.cls-31,.cls-39{stroke-miterlimit:10;}.cls-26{fill:#840c0c;}.cls-27{fill:#e8c600;}.cls-28{fill:#e21717;}.cls-29{fill:#4d770c;}.cls-30{fill:#050505;}.cls-31{stroke:#000;stroke-width:3px;}.cls-32{fill:#999;}.cls-33{fill:#b57c47;}.cls-34{fill:#a56c34;}.cls-35{opacity:0.94;}.cls-36{fill:#3f9aff;}.cls-37{fill:#629aff;}.cls-38{fill:#009245;}.cls-39{stroke:#b3e021;}.cls-40{fill:#ed1c24;}.cls-41{fill:url(#radial-gradient-4);}.cls-42{fill:url(#radial-gradient-5);}.cls-43{fill:url(#radial-gradient-6);}.cls-44{fill:#c1272d;}</style><radialGradient id="radial-gradient" cx="889.84" cy="5.92" r="1328.28" gradientUnits="userSpaceOnUse"><stop offset="0" stop-color="#60bfe8"/><stop offset="0.1" stop-color="#70c5eb"/><stop offset="0.37" stop-color="#97d3f4"/><stop offset="0.62" stop-color="#b4ddfa"/><stop offset="0.84" stop-color="#c5e4fe"/><stop offset="1" stop-color="#cbe6ff"/></radialGradient><radialGradient id="radial-gradient-2" cx="475.19" cy="350.6" r="197.52" gradientTransform="matrix(0, 0.97, -0.95, 0, 922.45, -101.37)" gradientUnits="userSpaceOnUse"><stop offset="0" stop-color="#cbe6ff"/><stop offset="0.01" stop-color="#b6dffa"/><stop offset="0.04" stop-color="#9bd5f5"/><stop offset="0.07" stop-color="#85cdf0"/><stop offset="0.1" stop-color="#74c7ec"/><stop offset="0.14" stop-color="#69c3ea"/><stop offset="0.19" stop-color="#62c1e8"/><stop offset="0.34" stop-color="#60c0e8"/></radialGradient><radialGradient id="radial-gradient-3" cx="351.34" cy="858.13" r="267.35" gradientUnits="userSpaceOnUse"><stop offset="0" stop-color="#ff9309"/><stop offset="0.17" stop-color="#fe9c19"/><stop offset="0.43" stop-color="#fca72c"/><stop offset="0.71" stop-color="#fbae37"/><stop offset="1" stop-color="#fbb03b"/></radialGradient><linearGradient id="linear-gradient" x1="1607.22" y1="711.43" x2="1619.3" y2="711.43" gradientTransform="translate(-160.5 673.99) rotate(-21.03)" gradientUnits="userSpaceOnUse"><stop offset="0" stop-color="#fff"/><stop offset="0.57" stop-color="#fff"/><stop offset="0.87" stop-color="red"/><stop offset="0.99" stop-color="red"/></linearGradient><linearGradient id="linear-gradient-2" x1="1619.28" y1="714.13" x2="1631.36" y2="714.13" xlink:href="#linear-gradient"/><linearGradient id="linear-gradient-3" x1="1631.23" y1="717.19" x2="1643.31" y2="717.19" xlink:href="#linear-gradient"/><linearGradient id="linear-gradient-4" x1="1104.83" y1="785.41" x2="1116.92" y2="785.41" gradientTransform="translate(279.7 662.41) rotate(-31.47)" xlink:href="#linear-gradient"/><linearGradient id="linear-gradient-5" x1="2375.6" y1="-5696.71" x2="2388.11" y2="-5696.71" gradientTransform="matrix(-0.48, 0.63, -0.64, -0.48, -896.57, -3468.1)" xlink:href="#linear-gradient"/><radialGradient id="radial-gradient-4" cx="707" cy="653" r="20" gradientUnits="userSpaceOnUse"><stop offset="0" stop-color="#fff"/><stop offset="0.06" stop-color="#e3f4fb"/><stop offset="0.19" stop-color="#b2e1f5"/><stop offset="0.32" stop-color="#88d0ef"/><stop offset="0.45" stop-color="#66c3ea"/><stop offset="0.58" stop-color="#4bb8e7"/><stop offset="0.72" stop-color="#38b1e4"/><stop offset="0.85" stop-color="#2dace3"/><stop offset="1" stop-color="#29abe2"/></radialGradient><radialGradient id="radial-gradient-5" cy="567" r="20" xlink:href="#radial-gradient-4"/><radialGradient id="radial-gradient-6" cx="666.81" cy="694.87" r="12" xlink:href="#radial-gradient-4"/></defs><title>forside</title><g class="cls-1"><g id="Layer_1" data-name="Layer 1"><rect class="cls-2" y="-2" width="1919" height="1080"/><g class="cls-3"><image class="cls-4" width="422" height="398" transform="translate(377 165)" xlink:href="forside1.png"/><ellipse class="cls-5" cx="581.37" cy="357.27" rx="183.48" ry="195.52" transform="translate(178.54 908.05) rotate(-85.39)"/></g><path d="M468.29,271.23H457.76v2.58H468v5.61H458.2c0,1.69,0,3.14,0,4.37s0,2.48,0,3.77h-9.65c0-1,0-2.26,0-3.89s0-4.54,0-8.73c0-1.4,0-3.08,0-5s0-3.92,0-5.88h19.7Z"/><path d="M489.72,279.12v8.44l-3.13.18c-1.82.1-3.45.15-4.9.15q-1.51,0-4-.24a14.75,14.75,0,0,1-4-.83,6.92,6.92,0,0,1-2.87-1.95,4.23,4.23,0,0,1-1-2.71,4.52,4.52,0,0,1,.92-2.86,6.84,6.84,0,0,1,3.28-2,17.75,17.75,0,0,1,3.93-.78c1.49-.13,2.43-.21,2.84-.22a.87.87,0,0,0-.27-.66,2.85,2.85,0,0,0-1.28-.43,11.7,11.7,0,0,0-1.33-.15c-.49,0-1.1,0-1.81,0-.94,0-1.75,0-2.44,0l-1.8.06.71-6h3.46a28.08,28.08,0,0,1,6.6.61,10.46,10.46,0,0,1,4.16,2,7.22,7.22,0,0,1,2.23,3.09A12.55,12.55,0,0,1,489.72,279.12ZM481.46,281v-1.9a4.58,4.58,0,0,0-.66.07,3.6,3.6,0,0,0-1.1.38,2.59,2.59,0,0,0-.69.6,1.56,1.56,0,0,0-.35,1,1.63,1.63,0,0,0,.34,1.09,2.22,2.22,0,0,0,.79.58,2.43,2.43,0,0,0,.64.19,4.51,4.51,0,0,0,.87.07h.16V281Z"/><path d="M513.75,287.56h-8.84c0-.43,0-1.07,0-1.95s0-2,0-3.34c0-.56,0-1.29,0-2.2s0-1.65,0-2.2a3.82,3.82,0,0,0-.27-1.62,1,1,0,0,0-1-.54,4.5,4.5,0,0,0-1.29.2c-.43.14-.75.24-1,.33,0,2.42,0,3.92,0,4.5,0,1.16,0,2.52,0,4.09s0,2.48,0,2.73H492.6c0-.53,0-1.49,0-2.88s0-3.36,0-5.91c0-1.9,0-3.57,0-5s0-2.89,0-4.33h8.65l0,1.17,0,0c.42-.19,1.35-.52,2.77-1a13.18,13.18,0,0,1,4-.7,5.43,5.43,0,0,1,4.19,1.63,6,6,0,0,1,1.51,4.26c0,1.36,0,2.42,0,3.19s0,1.46,0,2.07c0,1.12,0,2.47,0,4.05S513.75,286.85,513.75,287.56Z"/><path d="M536.49,269.42c0,.8,0,1.85,0,3.12s0,2.67,0,4.15c0,.87,0,2,0,3.42s0,3.16,0,5.23a9.36,9.36,0,0,1-1.19,4.79,7.78,7.78,0,0,1-3.53,3.16,22.74,22.74,0,0,1-7.35,2,45.1,45.1,0,0,1-6,.29l-.92-6.09c1.52-.06,2.92-.14,4.21-.23a26.78,26.78,0,0,0,3-.37,6.45,6.45,0,0,0,2-.7,1.08,1.08,0,0,0,.64-.88H527a15.34,15.34,0,0,1-3.54-.48,12,12,0,0,1-3.22-1.19,10.17,10.17,0,0,1-3.32-3,8,8,0,0,1-1.13-4.48,7.1,7.1,0,0,1,1.42-4.34,9.59,9.59,0,0,1,4.27-3,18.62,18.62,0,0,1,4.25-1,49.88,49.88,0,0,1,6.37-.33l2.17,0Zm-8.31,8.87v-2.44h-.42a4.57,4.57,0,0,0-.83.07,3,3,0,0,0-.93.37,2.46,2.46,0,0,0-1,1,3.2,3.2,0,0,0-.38,1.55,4.72,4.72,0,0,0,.23,1.5,2.39,2.39,0,0,0,1,1.17,3.16,3.16,0,0,0,1.07.49,4.58,4.58,0,0,0,1.14.15h.16v-3.89Z"/><path d="M561.61,267.62h-1c-.48,0-1,0-1.44.05a12,12,0,0,0-1.32.15,3.2,3.2,0,0,0-1.24.49,1,1,0,0,0-.57.81v.3h5.33v6.15h-4.83q0,2,0,6.12c0,2.74,0,4.69,0,5.87h-8.84c0-1.39,0-3.41,0-6.07s0-4.63,0-5.92h-3v-6.15h3.11V269a6.67,6.67,0,0,1,.66-2.94,6.24,6.24,0,0,1,2.19-2.43,10.08,10.08,0,0,1,3.1-1.37,19,19,0,0,1,4.78-.5h2.32Z"/><path d="M571.44,267.41H562.6v-5.62h8.84Zm0,20.15H562.6c0-1.06,0-2.31,0-3.75s0-3.1,0-5c0-1.54,0-3.06,0-4.58s0-3.13,0-4.84h8.84c0,1.64,0,3,0,4.14s0,2.86,0,5.24c0,2.59,0,4.41,0,5.46S571.44,286.41,571.44,287.56Z"/><path d="M591,281.79a4,4,0,0,1-1,2.77,7.92,7.92,0,0,1-2.52,1.85,12.83,12.83,0,0,1-4,1.08,37.14,37.14,0,0,1-4.51.33l-3,0h-1.86l-.83-5.91h4.38a10.4,10.4,0,0,0,1.12-.07,2.64,2.64,0,0,0,1.24-.28.52.52,0,0,0,.17-.35c0-.14-.11-.27-.32-.4s-.61-.3-1.17-.55l-1-.48a13.9,13.9,0,0,1-1.25-.66,4.74,4.74,0,0,1-1.83-1.81,4.66,4.66,0,0,1-.54-2.18,4.19,4.19,0,0,1,.82-2.54,6.86,6.86,0,0,1,2.85-2,13.94,13.94,0,0,1,3.85-1,39.22,39.22,0,0,1,4.29-.39l2.56,0h1.55l.83,5.92h-2.36q-.68,0-1.26,0c-.39,0-.76,0-1.13.08a4,4,0,0,0-.87.16c-.23.08-.34.21-.34.4s.12.32.36.45l1.1.52,1.17.53a13.37,13.37,0,0,1,1.19.63,4.88,4.88,0,0,1,1.77,1.65A4.26,4.26,0,0,1,591,281.79Z"/><path d="M601.78,287.56h-8.84c0-.73,0-2.07,0-4s0-5.1,0-9.43q0-2.85,0-6c0-2.11,0-4.21,0-6.29h8.84q0,3.73,0,6.26t0,6.34q0,4.22,0,8C601.77,284.92,601.78,286.64,601.78,287.56Zm13.24-.18-8,2.39q-2.73-5.13-4-7.33l-2.15-3.82v0c.38-.76,1-2,1.76-3.6s1.74-3.65,2.84-6l8.86,1.94c-.82,1.76-1.54,3.34-2.15,4.72s-1,2.24-1.12,2.58v0Q613.35,283.39,615,287.38Z"/><path d="M635.28,279.33H623.75a1.74,1.74,0,0,0,.71,1.3,4.78,4.78,0,0,0,2.17.93,12.23,12.23,0,0,0,2.17.29c.69,0,1.33,0,1.91,0h2.11l1.44,0-.82,5.82-1.65.11c-.66,0-1.39,0-2.18,0a28.61,28.61,0,0,1-6.15-.61,13,13,0,0,1-4.89-2.1,8.74,8.74,0,0,1-2.7-3,8,8,0,0,1-.94-3.82,9.1,9.1,0,0,1,6.47-8.69,13.24,13.24,0,0,1,8-.06,8.23,8.23,0,0,1,3.06,1.75,7.9,7.9,0,0,1,2.19,3.43A15.2,15.2,0,0,1,635.28,279.33Zm-8.12-2.88a3.17,3.17,0,0,0-.5-1.85,1.77,1.77,0,0,0-1.57-.74,1.93,1.93,0,0,0-1.59.7,3.14,3.14,0,0,0-.63,1.89Z"/><path d="M652.91,281.79l-.75,6c-.29,0-.68,0-1.14.05l-2.41,0q-5.11,0-7.73-1.8a5.87,5.87,0,0,1-2.61-5.16c0-1.47,0-2.57,0-3.3s0-1.4,0-2h-2.9v-6.15h3V264h8.67v5.4h5.68v6.15h-5.68c0,.28,0,.51,0,.68s0,.45,0,.81,0,.54,0,.89,0,.58,0,.71a3.08,3.08,0,0,0,.86,2.28c.57.57,2,.85,4.18.85h.79Z"/><path d="M673.11,279.12v8.44l-3.13.18c-1.81.1-3.45.15-4.9.15-1,0-2.34-.08-4-.24a14.83,14.83,0,0,1-4-.83,7,7,0,0,1-2.87-1.95,4.22,4.22,0,0,1-1-2.71,4.51,4.51,0,0,1,.91-2.86,6.83,6.83,0,0,1,3.29-2,17.52,17.52,0,0,1,3.93-.78c1.48-.13,2.42-.21,2.83-.22a.87.87,0,0,0-.27-.66,2.79,2.79,0,0,0-1.27-.43,12.16,12.16,0,0,0-1.34-.15c-.49,0-1.09,0-1.81,0q-1.41,0-2.43,0l-1.81.06.71-6h3.46a28.08,28.08,0,0,1,6.6.61,10.46,10.46,0,0,1,4.16,2,7.14,7.14,0,0,1,2.23,3.09A12.55,12.55,0,0,1,673.11,279.12ZM664.85,281v-1.9a4.58,4.58,0,0,0-.66.07,3.6,3.6,0,0,0-1.1.38,2.42,2.42,0,0,0-.68.6,1.51,1.51,0,0,0-.36,1,1.59,1.59,0,0,0,.35,1.09,2.27,2.27,0,0,0,.78.58,2.55,2.55,0,0,0,.64.19,4.51,4.51,0,0,0,.87.07h.16V281Z"/><path d="M691.8,281.07l-.95,6.77h-1a25.87,25.87,0,0,1-6.6-.7,15.73,15.73,0,0,1-4.6-2,8.3,8.3,0,0,1-2.75-2.85,7.4,7.4,0,0,1-1-3.78,7.19,7.19,0,0,1,1-3.87,8.41,8.41,0,0,1,2.75-2.72,15.11,15.11,0,0,1,4.76-2.05,26.76,26.76,0,0,1,6.42-.67h.87l.92,6.76h-.81q-.44,0-1.56.06a13.08,13.08,0,0,0-2.24.29,6.46,6.46,0,0,0-2.11.81,1.6,1.6,0,0,0-.8,1.41,1.54,1.54,0,0,0,.8,1.36,6.44,6.44,0,0,0,2.13.82,14.18,14.18,0,0,0,2.19.27l1.59.08h1Z"/><path d="M714.21,278.52a9.38,9.38,0,0,1-6.79,9,14.19,14.19,0,0,1-4,.57,13.92,13.92,0,0,1-4-.58,9.71,9.71,0,0,1-3.37-1.74,9.54,9.54,0,0,1-2.55-3.25,9.75,9.75,0,0,1-.12-7.87,9.55,9.55,0,0,1,2.36-3.12,10,10,0,0,1,3.42-2,13.4,13.4,0,0,1,4.26-.65,14.18,14.18,0,0,1,4.16.59,9.72,9.72,0,0,1,3.45,1.89,9.07,9.07,0,0,1,2.44,3.15A9.25,9.25,0,0,1,714.21,278.52Zm-8.72,0a6.91,6.91,0,0,0-.18-1.52,2.67,2.67,0,0,0-.65-1.3,1.41,1.41,0,0,0-.57-.37,2,2,0,0,0-.74-.14,2,2,0,0,0-.74.13,1.85,1.85,0,0,0-.64.49,2.71,2.71,0,0,0-.57,1.23,6.86,6.86,0,0,0-.16,1.42,7.23,7.23,0,0,0,.15,1.51,2.89,2.89,0,0,0,.62,1.22,1.5,1.5,0,0,0,.62.45,2.36,2.36,0,0,0,.75.13,1.87,1.87,0,0,0,.74-.16,1.61,1.61,0,0,0,.6-.4,3.14,3.14,0,0,0,.57-1.19A6.07,6.07,0,0,0,705.49,278.56Z"/><path d="M732.67,281.79a4,4,0,0,1-1,2.77,7.86,7.86,0,0,1-2.53,1.85,12.68,12.68,0,0,1-4,1.08,37.3,37.3,0,0,1-4.52.33l-3,0h-1.86l-.83-5.91h4.38a10.55,10.55,0,0,0,1.12-.07,2.64,2.64,0,0,0,1.24-.28.52.52,0,0,0,.17-.35c0-.14-.11-.27-.33-.4s-.6-.3-1.17-.55l-1-.48a13.9,13.9,0,0,1-1.25-.66,4.61,4.61,0,0,1-1.83-1.81,4.66,4.66,0,0,1-.54-2.18,4.19,4.19,0,0,1,.82-2.54,6.79,6.79,0,0,1,2.85-2,13.94,13.94,0,0,1,3.85-1,39.22,39.22,0,0,1,4.29-.39l2.56,0h1.55l.83,5.92h-2.36q-.69,0-1.26,0c-.39,0-.77,0-1.13.08a4.23,4.23,0,0,0-.88.16.42.42,0,0,0-.33.4q0,.26.36.45l1.1.52,1.17.53a13.17,13.17,0,0,1,1.18.63,4.84,4.84,0,0,1,1.78,1.65A4.26,4.26,0,0,1,732.67,281.79Z"/><path d="M468.94,321.72a9.42,9.42,0,0,1-.82,3.91,9.57,9.57,0,0,1-6,5.1,14.24,14.24,0,0,1-4,.57,14,14,0,0,1-4.06-.58A9.75,9.75,0,0,1,450.7,329a9.54,9.54,0,0,1-2.55-3.25,9.65,9.65,0,0,1-.12-7.87,9.51,9.51,0,0,1,2.35-3.12,10.16,10.16,0,0,1,3.42-1.95,13.49,13.49,0,0,1,4.26-.65,14.13,14.13,0,0,1,4.16.59,9.72,9.72,0,0,1,3.45,1.89,9.1,9.1,0,0,1,2.45,3.15A9.25,9.25,0,0,1,468.94,321.72Zm-8.71,0a6.75,6.75,0,0,0-.18-1.51,2.75,2.75,0,0,0-.65-1.31,1.41,1.41,0,0,0-.57-.37,2,2,0,0,0-.75-.14,2,2,0,0,0-.74.13,1.74,1.74,0,0,0-.63.49,2.61,2.61,0,0,0-.57,1.23,6.92,6.92,0,0,0-.17,1.42,6.6,6.6,0,0,0,.16,1.51,2.76,2.76,0,0,0,.61,1.22,1.53,1.53,0,0,0,.63.45,2.36,2.36,0,0,0,.75.13,1.82,1.82,0,0,0,.73-.16,1.5,1.5,0,0,0,.6-.4,2.81,2.81,0,0,0,.57-1.19A5.65,5.65,0,0,0,460.23,321.76Z"/><path d="M490.83,312.62c0,.8,0,1.85,0,3.13s0,2.66,0,4.14c0,.87,0,2,0,3.42s0,3.16,0,5.23a9.33,9.33,0,0,1-1.2,4.79,7.68,7.68,0,0,1-3.53,3.16,22.74,22.74,0,0,1-7.35,2,45.1,45.1,0,0,1-6,.29l-.91-6.09c1.51-.06,2.91-.14,4.2-.23a26.48,26.48,0,0,0,3-.37,6.53,6.53,0,0,0,2.06-.7,1.09,1.09,0,0,0,.63-.88h-.42a15.34,15.34,0,0,1-3.54-.48,12.06,12.06,0,0,1-3.23-1.19,10.13,10.13,0,0,1-3.31-3,7.89,7.89,0,0,1-1.14-4.48,7.11,7.11,0,0,1,1.43-4.34,9.54,9.54,0,0,1,4.27-3,18,18,0,0,1,4.24-1,47.92,47.92,0,0,1,6.38-.34l2.17,0Zm-8.32,8.87v-2.44h-.42a4.47,4.47,0,0,0-.82.07,3.18,3.18,0,0,0-.94.37,2.44,2.44,0,0,0-1,1,3.1,3.1,0,0,0-.39,1.55,4.45,4.45,0,0,0,.24,1.5,2.49,2.49,0,0,0,1,1.18,3.55,3.55,0,0,0,1.07.48,4.6,4.6,0,0,0,1.15.15h.15v-3.89Z"/><path d="M522.31,330.76h-8.84c0-.66,0-1.88,0-3.67s0-3,0-3.77c0-.55,0-.92,0-1.12s0-.58,0-1.13a3.34,3.34,0,0,0-.3-1.7,1,1,0,0,0-.93-.46,4.43,4.43,0,0,0-1.28.2c-.44.14-.76.24-1,.33l0,11.32h-8.85c0-1.36,0-2.87,0-4.51s0-4.63,0-9c0-1.9,0-3.89,0-6s0-4.2,0-6.31H510l0,8.73,0,0c.32-.15,1.22-.46,2.69-.92a13,13,0,0,1,3.92-.7,5.41,5.41,0,0,1,4.18,1.63,6,6,0,0,1,1.51,4.26c0,1.36,0,2.42,0,3.19s0,1.46,0,2.07c0,1.12,0,2.44,0,4S522.31,329.94,522.31,330.76Z"/><path d="M546,321.72a9.42,9.42,0,0,1-.82,3.91,9.57,9.57,0,0,1-6,5.1,14.24,14.24,0,0,1-4,.57,14,14,0,0,1-4.06-.58,9.75,9.75,0,0,1-3.36-1.74,9.54,9.54,0,0,1-2.55-3.25,9.65,9.65,0,0,1-.12-7.87,9.51,9.51,0,0,1,2.35-3.12,10.16,10.16,0,0,1,3.42-1.95,13.49,13.49,0,0,1,4.26-.65,14.13,14.13,0,0,1,4.16.59,9.72,9.72,0,0,1,3.45,1.89,9.1,9.1,0,0,1,2.45,3.15A9.25,9.25,0,0,1,546,321.72Zm-8.71,0a6.75,6.75,0,0,0-.18-1.51,2.75,2.75,0,0,0-.65-1.31,1.41,1.41,0,0,0-.57-.37,2,2,0,0,0-.75-.14,2,2,0,0,0-.74.13,1.74,1.74,0,0,0-.63.49,2.61,2.61,0,0,0-.57,1.23,6.92,6.92,0,0,0-.17,1.42,6.6,6.6,0,0,0,.16,1.51,2.76,2.76,0,0,0,.61,1.22,1.53,1.53,0,0,0,.63.45,2.36,2.36,0,0,0,.75.13,1.82,1.82,0,0,0,.73-.16,1.5,1.5,0,0,0,.6-.4,2.81,2.81,0,0,0,.57-1.19A5.65,5.65,0,0,0,537.31,321.76Z"/><path d="M563.81,325l-.75,6c-.3,0-.68,0-1.15,0l-2.4,0q-5.12,0-7.73-1.79a5.9,5.9,0,0,1-2.61-5.17c0-1.47,0-2.57,0-3.3s0-1.4,0-2h-2.9v-6.15h3v-5.4H558v5.4h5.67v6.15H558c0,.28,0,.51,0,.68s0,.45,0,.81,0,.54,0,.89,0,.58,0,.71a3,3,0,0,0,.86,2.28c.57.57,2,.85,4.18.85h.79Z"/><path d="M581.53,325a4,4,0,0,1-1,2.77,7.71,7.71,0,0,1-2.52,1.85,12.76,12.76,0,0,1-4,1.08,37.44,37.44,0,0,1-4.52.33l-3,0h-1.86l-.82-5.91h4.37a10.56,10.56,0,0,0,1.13-.07,2.68,2.68,0,0,0,1.24-.28.51.51,0,0,0,.16-.35c0-.14-.1-.27-.32-.4s-.61-.3-1.17-.55l-1-.48c-.4-.18-.81-.41-1.25-.66a4.69,4.69,0,0,1-1.82-1.8,4.62,4.62,0,0,1-.55-2.19,4.2,4.2,0,0,1,.83-2.54,6.79,6.79,0,0,1,2.85-2,13.86,13.86,0,0,1,3.84-1,39.22,39.22,0,0,1,4.29-.39l2.56,0h1.56l.82,5.92H579c-.46,0-.88,0-1.27,0s-.76,0-1.12.08a4,4,0,0,0-.88.16c-.22.08-.34.21-.34.4s.12.32.36.45l1.1.52,1.17.53a13.37,13.37,0,0,1,1.19.63,4.8,4.8,0,0,1,1.77,1.65A4.26,4.26,0,0,1,581.53,325Z"/><path d="M602.2,322.32v8.44l-3.13.18c-1.81.1-3.45.15-4.9.15-1,0-2.33-.08-4-.24a14.83,14.83,0,0,1-4-.83,7,7,0,0,1-2.87-1.95,4.22,4.22,0,0,1-1-2.71,4.51,4.51,0,0,1,.91-2.86,6.88,6.88,0,0,1,3.29-2,17.75,17.75,0,0,1,3.93-.78c1.48-.13,2.43-.21,2.84-.22a.84.84,0,0,0-.28-.66,2.79,2.79,0,0,0-1.27-.43,11.89,11.89,0,0,0-1.34-.15c-.49,0-1.09,0-1.81,0-.93,0-1.75,0-2.43,0l-1.8.06.7-6h3.46a28.08,28.08,0,0,1,6.6.61,10.4,10.4,0,0,1,4.16,2,7.06,7.06,0,0,1,2.23,3.09A12.31,12.31,0,0,1,602.2,322.32Zm-8.26,1.92v-1.9a4.58,4.58,0,0,0-.66.07,3.7,3.7,0,0,0-1.1.38,2.42,2.42,0,0,0-.68.6,1.51,1.51,0,0,0-.35,1,1.58,1.58,0,0,0,.34,1.09,2.27,2.27,0,0,0,.78.58,2.55,2.55,0,0,0,.64.19,4.65,4.65,0,0,0,.87.07h.16v-2.1Z"/><path d="M626,330.76h-8.65l0-1.27,0,0a32.61,32.61,0,0,1-3.26,1.21,11.72,11.72,0,0,1-3.53.63,5.45,5.45,0,0,1-4.22-1.6,6.07,6.07,0,0,1-1.47-4.29c0-1.36,0-2.68,0-4s0-2.25,0-2.85c0-1.13,0-2.3,0-3.51s0-2,0-2.45h8.84c0,.46,0,1.24,0,2.33s0,2.07,0,3c0,.59,0,1.36,0,2.3s0,1.66,0,2.16a5.23,5.23,0,0,0,.19,1.51.94.94,0,0,0,1,.65,4.11,4.11,0,0,0,1.24-.22,5.34,5.34,0,0,0,1-.39c0-2.06,0-3.56,0-4.48,0-1.16,0-2.45,0-3.86s0-2.4,0-3H626c0,.44,0,1.6,0,3.47s0,3.64,0,5.32,0,3.1,0,4.43S626,328.81,626,330.76Z"/><path d="M645.13,324.27l-1,6.77h-1a25.74,25.74,0,0,1-6.59-.7,15.8,15.8,0,0,1-4.61-2,8.4,8.4,0,0,1-2.75-2.85,7.4,7.4,0,0,1-1-3.78,7.28,7.28,0,0,1,1-3.87,8.51,8.51,0,0,1,2.75-2.72,15.21,15.21,0,0,1,4.76-2.05,26.87,26.87,0,0,1,6.42-.67h.88l.91,6.76h-.81q-.43,0-1.56.06a12.84,12.84,0,0,0-2.23.29,6.37,6.37,0,0,0-2.11.81,1.61,1.61,0,0,0-.81,1.41,1.54,1.54,0,0,0,.8,1.36,6.44,6.44,0,0,0,2.13.82,14.18,14.18,0,0,0,2.19.27l1.59.08h1Z"/><path d="M666.21,322.53H654.67a1.74,1.74,0,0,0,.71,1.3,4.82,4.82,0,0,0,2.18.93,12.12,12.12,0,0,0,2.16.29c.69,0,1.33.05,1.92.05h2.1l1.45,0-.83,5.82-1.65.11c-.66,0-1.39.05-2.18.05a28.61,28.61,0,0,1-6.15-.61,13.15,13.15,0,0,1-4.89-2.1,8.84,8.84,0,0,1-2.7-3,8,8,0,0,1-.94-3.82,9.31,9.31,0,0,1,.68-3.69,9.08,9.08,0,0,1,2.41-3.12,9.39,9.39,0,0,1,3.38-1.88,13.24,13.24,0,0,1,8-.06,8.23,8.23,0,0,1,3.06,1.75,7.72,7.72,0,0,1,2.19,3.43A15.18,15.18,0,0,1,666.21,322.53Zm-8.13-2.88a3.17,3.17,0,0,0-.5-1.85,1.76,1.76,0,0,0-1.57-.74,1.93,1.93,0,0,0-1.59.7,3.07,3.07,0,0,0-.62,1.89Z"/><path d="M689.43,330.76h-8.85c0-.43,0-1.07,0-1.95s0-2,0-3.34c0-.55,0-1.29,0-2.2s0-1.65,0-2.2a3.84,3.84,0,0,0-.26-1.62,1,1,0,0,0-1-.54,4.43,4.43,0,0,0-1.28.2c-.43.14-.76.24-1,.33,0,2.42,0,3.92,0,4.5,0,1.16,0,2.52,0,4.09s0,2.48,0,2.73h-8.84c0-.53,0-1.49,0-2.88s0-3.36,0-5.91c0-1.9,0-3.57,0-5s0-2.89,0-4.33h8.65l0,1.17,0,0c.42-.19,1.34-.52,2.77-1a13.18,13.18,0,0,1,4-.7,5.39,5.39,0,0,1,4.18,1.63,6,6,0,0,1,1.52,4.26c0,1.36,0,2.42,0,3.19s0,1.46,0,2.07c0,1.12,0,2.47,0,4S689.43,330.05,689.43,330.76Z"/><path d="M702.21,330.76h-9.69v-9.9h9.69Z"/><path d="M471.29,402.37A7.67,7.67,0,0,1,470,406.9a10.06,10.06,0,0,1-3.58,3.07,14.22,14.22,0,0,1-4,1.29,25.12,25.12,0,0,1-4.21.45l0,5.45h-9.65c0-1.55,0-3.21,0-5s0-4.32,0-7.64c0-1.4,0-3.08,0-5s0-3.92,0-5.88l2.4,0,2.89,0c3.15,0,5.5.08,7,.25a18.84,18.84,0,0,1,4.31,1,10,10,0,0,1,4.51,2.95A7,7,0,0,1,471.29,402.37Zm-9.85.85a3.36,3.36,0,0,0-.3-1.4,2.57,2.57,0,0,0-.93-1.06,2.73,2.73,0,0,0-1.09-.44,6.59,6.59,0,0,0-1.09-.09h-.37v6.33h.39a4.7,4.7,0,0,0,1.05-.15,2.91,2.91,0,0,0,1-.38,3.18,3.18,0,0,0,1-1A3.55,3.55,0,0,0,461.44,403.22Z"/><path d="M492.22,408.72v8.44l-3.13.18c-1.81.1-3.45.15-4.9.15-1,0-2.34-.08-4-.24a14.83,14.83,0,0,1-4-.83,6.89,6.89,0,0,1-2.87-1.95,4.22,4.22,0,0,1-1-2.71,4.51,4.51,0,0,1,.91-2.86,6.88,6.88,0,0,1,3.29-2,17.52,17.52,0,0,1,3.93-.78c1.48-.13,2.43-.21,2.84-.22a.87.87,0,0,0-.28-.66,2.79,2.79,0,0,0-1.27-.43,12.16,12.16,0,0,0-1.34-.15c-.49,0-1.09,0-1.81,0q-1.41,0-2.43,0l-1.8.06.7-6h3.46a28.08,28.08,0,0,1,6.6.61,10.4,10.4,0,0,1,4.16,2,7.14,7.14,0,0,1,2.23,3.09A12.31,12.31,0,0,1,492.22,408.72ZM484,410.64v-1.9a4.58,4.58,0,0,0-.66.07,3.6,3.6,0,0,0-1.1.38,2.42,2.42,0,0,0-.68.6,1.51,1.51,0,0,0-.35,1,1.58,1.58,0,0,0,.34,1.09,2.27,2.27,0,0,0,.78.58,2.55,2.55,0,0,0,.64.19,4.45,4.45,0,0,0,.87.08H484v-2.11Z"/><path d="M511.33,411.39a4,4,0,0,1-1,2.77A7.81,7.81,0,0,1,507.8,416a12.75,12.75,0,0,1-4,1.08,37.14,37.14,0,0,1-4.51.33l-3,0h-1.86l-.83-5.91H498a10.71,10.71,0,0,0,1.13-.07,2.62,2.62,0,0,0,1.23-.28.48.48,0,0,0,.17-.35c0-.14-.11-.27-.32-.4s-.61-.3-1.17-.55l-1-.47c-.4-.19-.81-.41-1.25-.67a4.79,4.79,0,0,1-1.83-1.8,4.73,4.73,0,0,1-.54-2.19,4.14,4.14,0,0,1,.83-2.54,6.82,6.82,0,0,1,2.84-2,14,14,0,0,1,3.85-1,39.22,39.22,0,0,1,4.29-.39l2.56,0h1.55l.83,5.92h-2.35c-.46,0-.88,0-1.27,0s-.76,0-1.13.08a4,4,0,0,0-.87.16c-.23.08-.34.21-.34.4s.12.32.36.45l1.1.52,1.17.53a13.37,13.37,0,0,1,1.19.63,4.88,4.88,0,0,1,1.77,1.65A4.26,4.26,0,0,1,511.33,411.39Z"/><path d="M541.05,407.86a7.76,7.76,0,0,1-1.26,4.51,10.1,10.1,0,0,1-3.41,3,13.41,13.41,0,0,1-3.48,1.26,17.92,17.92,0,0,1-3.76.46l0,8.06h-8.84c0-1,0-2.7,0-5s0-5.3,0-8.89c0-1.64,0-3.58,0-5.82s0-4.38,0-6.39l2.13,0,2,0c2.07,0,3.92.07,5.54.19a19.63,19.63,0,0,1,5.08,1.15,9.22,9.22,0,0,1,4.46,3.09A7.29,7.29,0,0,1,541.05,407.86Zm-8.8.58a3.22,3.22,0,0,0-.31-1.4A2.55,2.55,0,0,0,531,406a2.85,2.85,0,0,0-1.09-.44,6.77,6.77,0,0,0-1.09-.09h-.2v6.33a5.63,5.63,0,0,0,1.17-.14,2.91,2.91,0,0,0,1-.39,3.51,3.51,0,0,0,1.06-1A3.38,3.38,0,0,0,532.25,408.44Z"/><path d="M562.92,408.72v8.44l-3.13.18c-1.81.1-3.45.15-4.9.15-1,0-2.34-.08-4-.24a14.83,14.83,0,0,1-4-.83,6.89,6.89,0,0,1-2.87-1.95,4.22,4.22,0,0,1-1-2.71,4.51,4.51,0,0,1,.91-2.86,6.83,6.83,0,0,1,3.29-2,17.52,17.52,0,0,1,3.93-.78c1.48-.13,2.42-.21,2.83-.22a.87.87,0,0,0-.27-.66,2.79,2.79,0,0,0-1.27-.43,12.16,12.16,0,0,0-1.34-.15c-.49,0-1.09,0-1.81,0q-1.41,0-2.43,0l-1.81.06.71-6h3.46a28.08,28.08,0,0,1,6.6.61,10.46,10.46,0,0,1,4.16,2,7.14,7.14,0,0,1,2.23,3.09A12.55,12.55,0,0,1,562.92,408.72Zm-3.87-13.83a4.14,4.14,0,0,1-1.66,3.3,6.21,6.21,0,0,1-4.06,1.37,6,6,0,0,1-4-1.36,4.15,4.15,0,0,1-1.65-3.31,4.09,4.09,0,0,1,1.67-3.34,6.59,6.59,0,0,1,8,0A4.11,4.11,0,0,1,559.05,394.89Zm-4.39,15.75v-1.9a4.58,4.58,0,0,0-.66.07,3.6,3.6,0,0,0-1.1.38,2.42,2.42,0,0,0-.68.6,1.51,1.51,0,0,0-.36,1,1.59,1.59,0,0,0,.35,1.09,2.27,2.27,0,0,0,.78.58,2.55,2.55,0,0,0,.64.19,4.45,4.45,0,0,0,.87.08h.16v-2.11Zm0-15.77a1.38,1.38,0,0,0-.35-.95,1.19,1.19,0,0,0-.92-.39,1.24,1.24,0,0,0-.93.39,1.35,1.35,0,0,0-.37.95,1.38,1.38,0,0,0,.36,1,1.23,1.23,0,0,0,.94.39,1.17,1.17,0,0,0,.92-.41A1.42,1.42,0,0,0,554.66,394.87Z"/><path d="M592.12,417.16h-8.84c0-.66,0-1.88,0-3.67s0-3,0-3.77c0-.55,0-.92,0-1.12s0-.58,0-1.13a3.34,3.34,0,0,0-.3-1.7,1,1,0,0,0-.93-.46,4.5,4.5,0,0,0-1.29.2c-.43.14-.75.24-1,.33v11.32H571c0-1.36,0-2.87,0-4.51s0-4.63,0-9c0-1.9,0-3.89,0-6s0-4.2,0-6.31h8.84l0,8.73,0,0c.33-.15,1.23-.46,2.69-.92a13,13,0,0,1,3.92-.7,5.43,5.43,0,0,1,4.19,1.63,6,6,0,0,1,1.51,4.26c0,1.36,0,2.42,0,3.19s0,1.46,0,2.07c0,1.12,0,2.44,0,4S592.12,416.34,592.12,417.16Z"/><path d="M613.92,408.72v8.44l-3.13.18c-1.82.1-3.45.15-4.91.15-1,0-2.33-.08-4-.24a14.83,14.83,0,0,1-4-.83,6.86,6.86,0,0,1-2.86-1.95,4.17,4.17,0,0,1-1-2.71,4.51,4.51,0,0,1,.91-2.86,6.88,6.88,0,0,1,3.29-2,17.75,17.75,0,0,1,3.93-.78c1.48-.13,2.43-.21,2.84-.22a.87.87,0,0,0-.27-.66,2.9,2.9,0,0,0-1.28-.43,12,12,0,0,0-1.33-.15c-.5,0-1.1,0-1.81,0-.94,0-1.75,0-2.44,0l-1.8.06.7-6h3.46a28.23,28.23,0,0,1,6.61.61,10.42,10.42,0,0,1,4.15,2,7.17,7.17,0,0,1,2.24,3.09A12.55,12.55,0,0,1,613.92,408.72Zm-8.27,1.92v-1.9a4.71,4.71,0,0,0-.66.07,3.56,3.56,0,0,0-1.09.38,2.31,2.31,0,0,0-.69.6,1.56,1.56,0,0,0-.35,1,1.58,1.58,0,0,0,.34,1.09,2.27,2.27,0,0,0,.78.58,2.51,2.51,0,0,0,.65.19,4.45,4.45,0,0,0,.87.08h.15v-2.11Z"/><path d="M625.73,415a10.19,10.19,0,0,1-1.18,5,8.08,8.08,0,0,1-3.48,3.31,17.45,17.45,0,0,1-3.11,1.12,26.74,26.74,0,0,1-4,.71l-1.82-6.29c.63-.06,1.27-.15,1.93-.27a4.7,4.7,0,0,0,1.68-.61,3,3,0,0,0,.91-1,5.83,5.83,0,0,0,.3-2.31c0-2.79,0-6,0-9.53s0-5.6,0-6.11h8.84c0,.65,0,1.31,0,2s0,2,0,3.94,0,3.66,0,5.37S625.73,413.57,625.73,415Zm0-18h-8.84v-5.62h8.84Z"/><path d="M648.23,408.93H636.7a1.73,1.73,0,0,0,.7,1.3,4.87,4.87,0,0,0,2.18.93,12.12,12.12,0,0,0,2.16.29c.69,0,1.33.05,1.92.05h2.11l1.44,0-.83,5.82c-.44,0-1,.07-1.65.11s-1.38.05-2.18.05a28.45,28.45,0,0,1-6.14-.61,13.13,13.13,0,0,1-4.9-2.1,8.84,8.84,0,0,1-2.7-3,8.09,8.09,0,0,1-.94-3.82,9.31,9.31,0,0,1,.68-3.69,9.12,9.12,0,0,1,2.42-3.12,9.34,9.34,0,0,1,3.37-1.88,13.28,13.28,0,0,1,8-.06,8.4,8.4,0,0,1,3.06,1.75,7.84,7.84,0,0,1,2.18,3.43A15.18,15.18,0,0,1,648.23,408.93Zm-8.12-2.88a3.25,3.25,0,0,0-.5-1.85,1.79,1.79,0,0,0-1.58-.74,2,2,0,0,0-1.59.7,3.07,3.07,0,0,0-.62,1.89Z"/><path d="M671.45,417.16h-8.84c0-.42,0-1.07,0-2s0-2,0-3.34c0-.55,0-1.29,0-2.2s0-1.65,0-2.2a3.82,3.82,0,0,0-.27-1.62,1,1,0,0,0-1-.54,4.5,4.5,0,0,0-1.29.2c-.43.14-.75.24-1,.33,0,2.42,0,3.92,0,4.5,0,1.16,0,2.52,0,4.09s0,2.48,0,2.73H650.3c0-.53,0-1.49,0-2.88s0-3.36,0-5.91c0-1.9,0-3.57,0-5s0-2.89,0-4.33H659l0,1.17,0,0c.42-.19,1.35-.52,2.78-1a12.86,12.86,0,0,1,4-.71,5.43,5.43,0,0,1,4.19,1.63,6,6,0,0,1,1.51,4.26c0,1.36,0,2.42,0,3.19s0,1.46,0,2.07c0,1.12,0,2.47,0,4.05S671.45,416.45,671.45,417.16Z"/><path d="M702.19,408.12a9.08,9.08,0,0,1-3.41,7.23,9.16,9.16,0,0,1-3.37,1.78,14.26,14.26,0,0,1-4,.57,14,14,0,0,1-4.05-.58,9.42,9.42,0,0,1-3.36-1.74,9.54,9.54,0,0,1-2.55-3.25,9.16,9.16,0,0,1-.9-4,9.3,9.3,0,0,1,.77-3.86,9.69,9.69,0,0,1,2.36-3.12,10,10,0,0,1,3.42-1.95,13.45,13.45,0,0,1,4.26-.65,14.13,14.13,0,0,1,4.16.59,9.72,9.72,0,0,1,3.45,1.89,9.1,9.1,0,0,1,2.45,3.15A9.25,9.25,0,0,1,702.19,408.12Zm-8.72,0a6.72,6.72,0,0,0-.17-1.51,2.84,2.84,0,0,0-.65-1.31,1.41,1.41,0,0,0-.57-.37,2,2,0,0,0-.75-.14,2,2,0,0,0-.74.13,1.74,1.74,0,0,0-.63.49,2.66,2.66,0,0,0-.57,1.23,6.92,6.92,0,0,0-.17,1.42,6.6,6.6,0,0,0,.16,1.51,2.76,2.76,0,0,0,.61,1.22,1.53,1.53,0,0,0,.63.45,2.1,2.1,0,0,0,.74.13,1.83,1.83,0,0,0,.74-.16,1.5,1.5,0,0,0,.6-.4,2.81,2.81,0,0,0,.57-1.19A5.63,5.63,0,0,0,693.47,408.16Z"/><path d="M724.08,399c0,.81,0,1.85,0,3.13s0,2.66,0,4.14c0,.87,0,2,0,3.42s0,3.16,0,5.23a9.33,9.33,0,0,1-1.2,4.79,7.68,7.68,0,0,1-3.53,3.16,23,23,0,0,1-7.35,2,48.79,48.79,0,0,1-6,.29l-.91-6.1c1.51-.06,2.91-.14,4.2-.23a26.48,26.48,0,0,0,3-.37,6.53,6.53,0,0,0,2.06-.7,1.09,1.09,0,0,0,.63-.88h-.42a15.34,15.34,0,0,1-3.54-.48,12.06,12.06,0,0,1-3.23-1.19,10.13,10.13,0,0,1-3.31-3,7.88,7.88,0,0,1-1.14-4.47,7.12,7.12,0,0,1,1.43-4.35,9.54,9.54,0,0,1,4.27-3,18,18,0,0,1,4.24-1,47.92,47.92,0,0,1,6.38-.34l2.17,0Zm-8.32,8.87v-2.44h-.42a4.39,4.39,0,0,0-.82.07,3.18,3.18,0,0,0-.94.37,2.44,2.44,0,0,0-1,1,3.1,3.1,0,0,0-.39,1.55,4.45,4.45,0,0,0,.24,1.5,2.49,2.49,0,0,0,1,1.18,3.55,3.55,0,0,0,1.07.48,4.58,4.58,0,0,0,1.14.15h.16v-3.89Z"/><path d="M463.06,440.42h-1c-.48,0-1,0-1.44.05a12,12,0,0,0-1.32.15,3.2,3.2,0,0,0-1.24.49,1,1,0,0,0-.57.81v.3h5.33v6.15H458q0,2,0,6.12c0,2.74,0,4.69,0,5.87h-8.84c0-1.39,0-3.41,0-6.07s0-4.63,0-5.92h-3v-6.15h3.11v-.43a6.8,6.8,0,0,1,.65-2.94,6.35,6.35,0,0,1,2.2-2.43,10.08,10.08,0,0,1,3.1-1.37,19,19,0,0,1,4.78-.5h2.32Z"/><path d="M472.89,440.21h-8.84v-5.62h8.84Zm0,20.15h-8.84c0-1.06,0-2.31,0-3.75s0-3.1,0-5c0-1.54,0-3.06,0-4.58s0-3.13,0-4.84h8.84c0,1.64,0,3,0,4.14s0,2.86,0,5.24c0,2.59,0,4.41,0,5.46S472.89,459.21,472.89,460.36Z"/><path d="M492.42,454.59a4,4,0,0,1-1,2.77,7.86,7.86,0,0,1-2.53,1.85,12.68,12.68,0,0,1-4,1.08,37.3,37.3,0,0,1-4.52.33l-3,0h-1.86l-.83-5.91h4.38a10.4,10.4,0,0,0,1.12-.07,2.64,2.64,0,0,0,1.24-.28.52.52,0,0,0,.17-.35c0-.14-.11-.27-.33-.4s-.6-.3-1.16-.55l-1-.48a13.9,13.9,0,0,1-1.25-.66,4.74,4.74,0,0,1-1.83-1.81,4.66,4.66,0,0,1-.54-2.18,4.19,4.19,0,0,1,.82-2.54,6.79,6.79,0,0,1,2.85-2,13.94,13.94,0,0,1,3.85-1,39.22,39.22,0,0,1,4.29-.39l2.56,0h1.55l.83,5.92h-2.36q-.68,0-1.26,0c-.39,0-.76,0-1.13.08a4.23,4.23,0,0,0-.88.16.42.42,0,0,0-.33.4q0,.25.36.45l1.1.52,1.17.53a13.17,13.17,0,0,1,1.18.63,4.84,4.84,0,0,1,1.78,1.65A4.26,4.26,0,0,1,492.42,454.59Z"/><path d="M503.23,460.36h-8.84c0-.73,0-2.07,0-4s0-5.1,0-9.43c0-1.9,0-3.9,0-6s0-4.21,0-6.29h8.84q0,3.74,0,6.26t0,6.34q0,4.21,0,8C503.22,457.72,503.23,459.44,503.23,460.36Zm13.23-.18-8,2.39q-2.73-5.13-4-7.33l-2.16-3.82v0q.58-1.14,1.77-3.6t2.84-6l8.86,1.93q-1.23,2.65-2.15,4.73c-.61,1.38-1,2.24-1.12,2.58v0Q514.8,456.19,516.46,460.18Z"/><path d="M536.73,452.13H525.2a1.76,1.76,0,0,0,.7,1.3,4.87,4.87,0,0,0,2.18.93,12.11,12.11,0,0,0,2.17.29c.69,0,1.33.05,1.91.05h2.11l1.44,0-.82,5.82-1.66.1c-.65,0-1.38.06-2.18.06a28.58,28.58,0,0,1-6.14-.61,13,13,0,0,1-4.89-2.1,8.64,8.64,0,0,1-2.7-3,8,8,0,0,1-.94-3.82,9.31,9.31,0,0,1,.67-3.69,9.12,9.12,0,0,1,2.42-3.12,9.3,9.3,0,0,1,3.38-1.88,13.24,13.24,0,0,1,8-.06,8.23,8.23,0,0,1,3.06,1.75,7.9,7.9,0,0,1,2.19,3.43A15.52,15.52,0,0,1,536.73,452.13Zm-8.12-2.88a3.25,3.25,0,0,0-.5-1.85,1.77,1.77,0,0,0-1.57-.74,1.93,1.93,0,0,0-1.59.7,3.14,3.14,0,0,0-.63,1.89Z"/><path d="M560,460.36h-8.84c0-.43,0-1.07,0-1.95s0-2,0-3.34c0-.56,0-1.29,0-2.2s0-1.65,0-2.2a4,4,0,0,0-.26-1.62,1,1,0,0,0-1-.54,4.43,4.43,0,0,0-1.28.2c-.44.14-.76.24-1,.33,0,2.42,0,3.92,0,4.5,0,1.16,0,2.52,0,4.09s0,2.48,0,2.73h-8.84c0-.53,0-1.49,0-2.88s0-3.36,0-5.91c0-1.9,0-3.57,0-5s0-2.89,0-4.33h8.65l0,1.17,0,0c.42-.19,1.35-.52,2.78-1a13.18,13.18,0,0,1,4-.7,5.41,5.41,0,0,1,4.18,1.63,6,6,0,0,1,1.51,4.26c0,1.36,0,2.42,0,3.19s0,1.46,0,2.07c0,1.12,0,2.47,0,4.05S560,459.65,560,460.36Z"/><path d="M582.33,452.13H570.8a1.73,1.73,0,0,0,.7,1.3,4.87,4.87,0,0,0,2.18.93,12.12,12.12,0,0,0,2.16.29c.7,0,1.33.05,1.92.05h2.11l1.44,0-.83,5.82-1.65.1c-.65,0-1.38.06-2.18.06a28.52,28.52,0,0,1-6.14-.61,13.13,13.13,0,0,1-4.9-2.1,8.71,8.71,0,0,1-2.69-3,8,8,0,0,1-.95-3.82,9.31,9.31,0,0,1,.68-3.69,9.12,9.12,0,0,1,2.42-3.12,9.34,9.34,0,0,1,3.37-1.88,13.28,13.28,0,0,1,8-.06,8.4,8.4,0,0,1,3.06,1.75,7.9,7.9,0,0,1,2.19,3.43A15.52,15.52,0,0,1,582.33,452.13Zm-8.12-2.88a3.25,3.25,0,0,0-.5-1.85,1.79,1.79,0,0,0-1.58-.74,1.94,1.94,0,0,0-1.59.7,3.13,3.13,0,0,0-.62,1.89Z"/><path d="M600,454.59l-.75,6c-.3,0-.68,0-1.15.05l-2.41,0q-5.11,0-7.72-1.8a5.87,5.87,0,0,1-2.61-5.16c0-1.47,0-2.57,0-3.3s0-1.4,0-2h-2.9v-6.15h3v-5.4h8.66v5.4h5.68v6.15h-5.68v.68c0,.18,0,.45,0,.81s0,.54,0,.89v.71a3.05,3.05,0,0,0,.87,2.28c.57.57,2,.85,4.18.85H600Z"/><path d="M617,454.59l-.75,6c-.3,0-.68,0-1.15.05l-2.4,0c-3.42,0-6-.6-7.73-1.8a5.87,5.87,0,0,1-2.61-5.16c0-1.47,0-2.57,0-3.3s0-1.4,0-2h-2.9v-6.15h3v-5.4h8.67v5.4h5.67v6.15h-5.67c0,.28,0,.51,0,.68s0,.45,0,.81,0,.54,0,.89,0,.58,0,.71a3,3,0,0,0,.86,2.28c.57.57,2,.85,4.18.85H617Z"/><path d="M637.79,452.13H626.26a1.73,1.73,0,0,0,.7,1.3,4.87,4.87,0,0,0,2.18.93,12.12,12.12,0,0,0,2.16.29c.69,0,1.33.05,1.92.05h2.11l1.44,0-.83,5.82-1.65.1c-.66,0-1.38.06-2.18.06A28.52,28.52,0,0,1,626,460a13.13,13.13,0,0,1-4.9-2.1,8.84,8.84,0,0,1-2.7-3,8.09,8.09,0,0,1-.94-3.82,9.31,9.31,0,0,1,.68-3.69,9.12,9.12,0,0,1,2.42-3.12,9.34,9.34,0,0,1,3.37-1.88,13.28,13.28,0,0,1,8-.06,8.4,8.4,0,0,1,3.06,1.75,7.9,7.9,0,0,1,2.19,3.43A15.52,15.52,0,0,1,637.79,452.13Zm-8.12-2.88a3.25,3.25,0,0,0-.5-1.85,1.79,1.79,0,0,0-1.58-.74,1.93,1.93,0,0,0-1.59.7,3.07,3.07,0,0,0-.62,1.89Z"/><path d="M655.42,454.59l-.76,6c-.29,0-.67,0-1.14.05l-2.41,0q-5.11,0-7.72-1.8a5.87,5.87,0,0,1-2.61-5.16c0-1.47,0-2.57,0-3.3s0-1.4,0-2h-2.9v-6.15h3v-5.4h8.66v5.4h5.68v6.15h-5.68v.68c0,.18,0,.45,0,.81s0,.54,0,.89v.71a3.05,3.05,0,0,0,.87,2.28c.57.57,2,.85,4.18.85h.79Z"/><path d="M669.06,436.82a73.09,73.09,0,0,1-.64,8.67c-.36,2.51-.71,4.54-1,6.06h-7.15q-.53-2.46-1-6.08a82.86,82.86,0,0,1-.67-8.65Zm-.61,23.54h-9.34v-7.09h9.34Z"/><path d="M685.76,436.82a73.09,73.09,0,0,1-.64,8.67c-.36,2.51-.71,4.54-1,6.06h-7.15q-.52-2.46-1-6.08a82.86,82.86,0,0,1-.67-8.65Zm-.62,23.54h-9.33v-7.09h9.33Z"/><path d="M702.46,436.82a75.27,75.27,0,0,1-.64,8.67c-.36,2.51-.71,4.54-1.05,6.06h-7.15q-.52-2.46-1-6.08a82.86,82.86,0,0,1-.67-8.65Zm-.62,23.54h-9.33v-7.09h9.33Z"/><path class="cls-6" d="M8.14,821.36C28.6,761,108.26,713.93,208,704.43c12.17-1.16,24.63-1.76,37.31-1.76l3.52,0c95.12.82,177,35.46,215.41,85.27a245.47,245.47,0,0,1,60-7.31A249.92,249.92,0,0,1,562,783.48c28.84,4.39,54.94,13.7,76.27,26.57,19.39,11.67,34.85,26.3,44.85,42.82a88.23,88.23,0,0,1,11,27A80.34,80.34,0,0,1,696,897.12q0,3-.22,6a80.3,80.3,0,0,1-1.91,12.38,89.11,89.11,0,0,1-11.58,27.31q-1.77,2.81-3.75,5.55a112.36,112.36,0,0,1-9.33,11.27q-3.24,3.45-6.8,6.71c-25.17,23.07-62.62,39.62-105.78,45.21a255,255,0,0,1-64.7,0c-40.14-5.19-75.31-19.84-100.29-40.41-40.66,19-91.34,30.31-146.32,30.31-3.71,0-7.41-.06-11.09-.16h-.5c-54.92-1.6-105-14.46-144.46-34.94a219.2,219.2,0,0,1-36.44-23.53,169.25,169.25,0,0,1-17.66-16.34c-1.33-1.43-2.63-2.86-3.88-4.32q-2.84-3.27-5.4-6.65A122,122,0,0,1,15,898.62a106.67,106.67,0,0,1-6.48-14.7c-.14-.39-.28-.78-.41-1.18-.53-1.55-1-3.12-1.46-4.69Z"/><line class="cls-7" x1="178.58" y1="634.56" x2="171.75" y2="646.37"/><path class="cls-8" d="M243.17,472.49c-.94-.35-45.46-6.6-87.88-5.65-42.45-1.15-86.92,5.28-87.84,5.67.26.19,6.26-8.35,21.25-17.63a127.15,127.15,0,0,1,133.27-.1C237,464.07,242.91,472.69,243.17,472.49Z"/><path class="cls-8" d="M260.48,476.47c-.16-.12-54.34,2.31-99.91,17.57-45.8,13.67-77.69,31.33-78.67,31.39-.42,1.52,10.19-40.72,66.82-59.69,27.5-9.11,57.22-6.9,78.11-1.79C248,468.94,260.43,476.83,260.48,476.47Z"/><path class="cls-8" d="M244,498.94c-.33.44-19.87-33.43-68.47-62.21-47.89-29-98.78-42-97.83-42.76-.24.52,19.55-6.34,46.57-5.43,26.79.43,60.81,8.63,84,28C255.12,456.25,242.88,500.35,244,498.94Z"/><path class="cls-9" d="M270.41,708.47H222V475h35.85a399.59,399.59,0,0,0,12.55,233.52Z"/><path class="cls-8" d="M233.14,483.26c.39.4,20.36-32.36,69-61.17,47.93-29,99.34-43.11,98.41-43.88.25.52-19.73-6.08-46.86-4.88-26.92.71-61,9.22-84.21,28.54C222.54,441.63,234.26,484.64,233.14,483.26Z"/><path class="cls-8" d="M229,466.54c1-.36,43.11-8.24,85.67-9.5,42.5-3.33,89.27,1.44,90.12,1.82-.23.22-7.16-8.3-23.16-17C366,433.31,341.25,424.59,313,426.24a123,123,0,0,0-64.59,22C234.42,458.09,229.31,466.7,229,466.54Z"/><path class="cls-8" d="M218.62,473.1c.28-.23,53.21.06,97.87,13,44.81,11.24,78.25,26.73,79.28,26.82.67,1.46-12.72-40.46-69.8-55.9-27.66-7.42-56.31-3.58-76,2.4C229.86,465.35,218.71,473.42,218.62,473.1Z"/><path class="cls-8" d="M238.32,475.27c-.71.62,22.49,9.08,46.45,25.36,24.47,16.57,31.46,36.25,31.39,35.88-.87.57,9-20.54-11.18-43.57-10.11-11.26-27.26-17.47-41.42-18.84A84.09,84.09,0,0,0,238.32,475.27Z"/><path class="cls-8" d="M155.63,545.17c-.32.48,5.07-20,29.38-37.39,23.7-16.68,42.55-28.25,41.56-29.11.29.28-12.38-2.68-27.19.21-14.81,2.44-31.75,10.73-39.89,23C143.63,526.83,156.86,545.45,155.63,545.17Z"/><rect class="cls-8" x="218.91" y="473.08" width="37.85" height="12.42" rx="6.21"/><ellipse class="cls-10" cx="222.01" cy="481.47" rx="10.87" ry="8.69" transform="translate(-294.44 601.37) rotate(-78.31)"/><ellipse class="cls-11" cx="218.84" cy="490.64" rx="0.62" ry="0.5" transform="translate(-305.95 605.57) rotate(-78.31)"/><ellipse class="cls-11" cx="221.27" cy="491.15" rx="0.62" ry="0.5" transform="translate(-304.51 608.36) rotate(-78.31)"/><ellipse class="cls-11" cx="220.06" cy="489.63" rx="0.62" ry="0.5" transform="translate(-303.99 605.96) rotate(-78.31)"/><ellipse class="cls-10" cx="235.54" cy="480.82" rx="8.69" ry="10.87" transform="translate(-216.28 193.54) rotate(-31.45)"/><ellipse class="cls-11" cx="239.51" cy="489.67" rx="0.5" ry="0.62" transform="translate(-220.31 196.92) rotate(-31.45)"/><ellipse class="cls-11" cx="241.63" cy="488.37" rx="0.5" ry="0.62" transform="translate(-219.33 197.83) rotate(-31.45)"/><ellipse class="cls-11" cx="239.71" cy="488.09" rx="0.5" ry="0.62" transform="translate(-219.46 196.79) rotate(-31.45)"/><ellipse class="cls-10" cx="250.43" cy="481.44" rx="8.69" ry="10.87" transform="translate(-189.19 163.27) rotate(-26.62)"/><ellipse class="cls-11" cx="253.64" cy="490.6" rx="0.5" ry="0.62" transform="translate(-192.96 165.68) rotate(-26.62)"/><ellipse class="cls-11" cx="255.86" cy="489.48" rx="0.5" ry="0.62" transform="translate(-192.22 166.56) rotate(-26.62)"/><ellipse class="cls-11" cx="253.97" cy="489.04" rx="0.5" ry="0.62" transform="translate(-192.22 165.67) rotate(-26.62)"/><polygon class="cls-12" points="1821 175.19 1778.34 202.25 1794.6 250.07 1744.17 245.34 1729.36 293.75 1690.34 261.38 1651.32 293.75 1636.5 245.34 1586.08 250.07 1602.33 202.25 1559.67 175.19 1602.33 148.13 1586.08 100.31 1636.5 105.04 1651.32 56.63 1690.34 89 1729.36 56.63 1744.17 105.04 1794.6 100.31 1778.34 148.13 1821 175.19"/><ellipse class="cls-13" cx="1690.88" cy="175.83" rx="95.69" ry="90.14"/><path class="cls-14" d="M1661.61,839.87c-1.9,7.67-3.27,8.92-5.31,15.64-4.65,15.33-4.28,26.29-4.28,26.29s-7.64-21-6.51-44.67c.93-19.75,6.63-41.88,11.5-41.14,3.76.58,6.94,14.84,7.18,24.85A68.25,68.25,0,0,1,1661.61,839.87Z"/><polygon class="cls-15" points="1605.37 765.82 1598.73 759.78 1592.09 753.74 1598.16 752.69 1604.23 751.65 1604.8 758.74 1605.37 765.82"/><polygon class="cls-16" points="1617.6 764.01 1610.96 757.97 1604.32 751.93 1610.39 750.89 1616.46 749.85 1617.03 756.93 1617.6 764.01"/><polygon class="cls-17" points="1629.85 762.58 1623.21 756.54 1616.57 750.5 1622.64 749.46 1628.71 748.41 1629.28 755.5 1629.85 762.58"/><polygon class="cls-18" points="1642.71 758.1 1635.34 753.4 1627.96 748.71 1633.65 746.41 1639.33 744.12 1641.02 751.11 1642.71 758.1"/><polygon class="cls-19" points="1616.2 764.54 1622.74 765.74 1629.27 766.95 1625.8 770.58 1622.32 774.21 1619.26 769.37 1616.2 764.54"/><path class="cls-20" d="M1664,820.88c-2.9-12.31-5.1-16.67-5.83-18.07a37.85,37.85,0,0,0-8.22-11.25c-10.48-9.28-21.6-4.63-26.46-13.09a10,10,0,0,1-1.49-5.32c.14-3.17,2.26-4.87,5.78-8.12,5.34-4.95,8-7.42,9.92-10.37a27.46,27.46,0,0,0,4-11.36c-9.16,5.52-16.2,7.09-21.06,7.44a79.48,79.48,0,0,0-11.28,1.06,82.73,82.73,0,0,1-9.39,1.64,56.36,56.36,0,0,1-7.18.14c-10.26-.51-23.29-12.39-43.09-26.68-8.36-6-11.94-8.17-12.49-12.23s3.24-8.34,10.86-16.62a102,102,0,0,1,11.38-10.93,84.45,84.45,0,0,1,15.91-10.71c8.66-4.35,15.77-5.52,27.77-7.4,10.3-1.61,16-2.5,24.23-2.11,8.43.41,16.38,2.69,32.28,7.25,18.14,5.2,24.28,8.43,29.94,12.73a70.65,70.65,0,0,1,9.5,8.8,54.65,54.65,0,0,1,14.84-.46c1.66.17,7.23,1.49,18.28,4.11,5.11,1.21,7.6,1.81,11.14,2.92,2,.64,5.51,1.73,9.69,3.49a104.22,104.22,0,0,1,13.16,6.73,156,156,0,0,1,24.3,16.87c6,5.08,12.9,11.11,19.83,21.2,1.17,1.71,2.1,3.17,2.73,4.2-9.2-1.17-16.66-2.14-21.67-2.81,0,0-6.66-.88-21-2.42-15.85-1.71-18.89-1.74-19.86.43-1.21,2.68,2.25,5.38,7.07,16.94,1.39,3.35,3.17,9,6.71,20.35,2,6.31,3.29,10.52,4.3,14.07a169.48,169.48,0,0,1,7,47.12c0,7.14-.06,13.89-2,22.38-2,8.84-5,15.22-10.43,25-12.22,22-23.82,25.1-22,35.34.68,3.89,2.18,2.8,8.57,15,4.19,8.05,6.86,13.17,8.38,20.36,1.68,7.92,1.08,14.15.51,20.12a83.4,83.4,0,0,1-4,18.57,75.18,75.18,0,0,1-13.51,24.2,87.36,87.36,0,0,1-16.2,18.68c-7.64,6.59-25.78,12.53-25.78,12.53s1.28-7.25,5.93-26.52c.37-1.5,0,.13,4.49-26,2-11.61,1.08-17.11.08-20.11-.33-1-.76-1.91-.76-1.91a25.65,25.65,0,0,0-3.16-5.34,129.58,129.58,0,0,1-16,12s-20.35,13-41.86,16.68a92.34,92.34,0,0,1-9.71,1.18c-6.83,1.06-10.53.11-10.53.11s3.38-17.36,6.55-23.48a91.76,91.76,0,0,1,13.6-19.65c2.38-2.62,6.12-5.89,13.58-12.43,6.88-6,14.44-12.36,16.76-14.3,11.14-9.33,11.26-9.13,12.08-10.55,6.83-11.7,1.15-29.45-.48-34.54-4-12.6-6.9-9.86-13.22-25.72-6.06-15.18-9.16-32.08-9.78-35.55C1666.29,832.1,1665.51,827.41,1664,820.88Z"/><path class="cls-14" d="M1723.5,794.21c4.59,6.93,4.82,9,8.66,15.45,8.75,14.63,16.85,21.68,16.85,21.68a109.12,109.12,0,0,1-35.5-24.18c-13.79-14.2-26.94-34.39-24-38.37,2.29-3.07,14.17,3.65,21.52,10.18C1716.8,784.09,1720.6,789.82,1723.5,794.21Z"/><path class="cls-21" d="M1637.33,692.35s-3,4.92-8,5.75-9.91-2.75-9.91-2.75,3-4.93,8-5.76S1637.33,692.35,1637.33,692.35Z"/><ellipse cx="1625.52" cy="694.33" rx="2.91" ry="2.17" transform="translate(-59.2 159.42) rotate(-5.51)"/><ellipse class="cls-22" cx="1624.44" cy="694.51" rx="0.36" ry="0.73" transform="translate(-118.37 405.1) rotate(-13.72)"/><path class="cls-12" d="M1720.8,683.85c0,.08,0,.17-.07.25h0c0,.18-.09.36-.14.55-1.52,5.68-4.57,13.51-10.81,15.17-3.92,1-7.59-.77-9.06-1.47-25.21-12.12-87.11-28.27-98.68-33.42a39.5,39.5,0,0,0-5-1.92c-.89-.28-1.64-.48-1.8-.53-.66-.17-1.41-.35-2.42-.55-3.68-.73-5.77-.6-8.49-2.26a15.88,15.88,0,0,1-4.94-5l-1-15.54c0-.47-.06-1-.09-1.43.54-.65,2.11-.94,4.56-.88l137.87,47Z"/><path class="cls-23" d="M1720.72,684.31a.93.93,0,0,1-.13.35c-2.41,3.62-34.19-3.16-72.49-15.55-36.75-11.9-66.5-24.77-69.77-30,0-.47-.06-1-.09-1.43.54-.65,2.11-.94,4.56-.88,10.47.2,37.07,6.54,67.87,16.51,38,12.31,68.51,25.65,70,30.49a.79.79,0,0,1,.06.29h0A1.27,1.27,0,0,1,1720.72,684.31Z"/><path class="cls-12" d="M1633.43,659.75c4.31-26.54,14.8-45.78,23.43-43s12.12,26.57,7.81,53.1Z"/><ellipse class="cls-24" cx="1639.12" cy="650.56" rx="2.93" ry="3.45" transform="translate(-124.28 631.59) rotate(-21.03)"/><ellipse class="cls-8" cx="1650.94" cy="654.39" rx="2.93" ry="3.45" transform="translate(-124.87 636.09) rotate(-21.03)"/><ellipse class="cls-22" cx="1662.34" cy="658.08" rx="2.93" ry="3.45" transform="translate(-125.43 640.42) rotate(-21.03)"/><path class="cls-25" d="M1683.59,728.84c.2,7.61-5.11,13.28-11.87,12.68"/><path class="cls-25" d="M1690.49,735.41c.2,7.6-5.11,13.28-11.87,12.67"/><ellipse class="cls-26" cx="1379.29" cy="846.75" rx="16.51" ry="42.13" transform="translate(98.48 1836.16) rotate(-69.23)"/><path class="cls-26" d="M1418.68,861.69l42.08-111c10.72-28.25,1.76-58.1-19.9-66.31h0c-21.67-8.22-48.16,8.18-58.88,36.44l-42.08,111Z"/><path class="cls-26" d="M1464.73,654.71a6.71,6.71,0,0,1-3.47-.35l3.15,1.2-15.53,41L1423.67,687l15.53-41,3.15,1.19a6.76,6.76,0,0,1-2.83-2l.88-2.3,25.21,9.56Z"/><path class="cls-27" d="M1470,650.45a6.59,6.59,0,0,1-3.54,3.74,6.61,6.61,0,0,1-5.15.17l-18.91-7.17a6.74,6.74,0,0,1-3.91-8.69,6.78,6.78,0,0,1,8.69-3.91l18.91,7.17A6.75,6.75,0,0,1,1470,650.45Z"/><polygon class="cls-27" points="1440.12 795.65 1367.47 768.1 1422.22 733.27 1440.12 795.65"/><polygon class="cls-27" points="1440.07 795.69 1385.32 830.51 1367.42 768.14 1440.07 795.69"/><path class="cls-28" d="M1423.05,789.11c-4.83,5.83-12.32,7-16.43,7.67-3.31.53-17.21,2.73-25.18-4.91-3.81-3.65-5.7-9-4.83-9.56.61-.4,2.4,1.73,5.4,3.6,7.28,4.52,15.59,3.64,17.28,3.46,5-.54,15.24-3,16.94-9,.42-1.49.24-2.91,1.54-4.05a5,5,0,0,1,2.13-1.08h0a8,8,0,0,1,1.71-.26h0a12.88,12.88,0,0,1,3.08.91,13.84,13.84,0,0,1,1.68.84v0a4.42,4.42,0,0,1,.8,2.74C1427.24,782.51,1425.2,786.51,1423.05,789.11Z"/><path class="cls-29" d="M1427.25,779.45a10.91,10.91,0,0,1-3.63-.94c-2.42-1-4.11-2.46-3.8-3.19a.76.76,0,0,1,.08-.11h0c.25-.29.87-.36,1.71-.26h0a12.88,12.88,0,0,1,3.08.91,13.84,13.84,0,0,1,1.68.84v0A4.42,4.42,0,0,1,1427.25,779.45Z"/><path class="cls-29" d="M1423.61,776.3l.6-1.85a5.64,5.64,0,0,1,.35-.92,3.77,3.77,0,0,1,4.54-1.6c.74.26,1.47.89,1.39,1.6l-1.49-.64a3.16,3.16,0,0,0-1.35-.38,2.16,2.16,0,0,0-1.45.76,4.55,4.55,0,0,0-1.27,2.93Z"/><rect class="cls-29" x="1432.95" y="653.16" width="26.96" height="23.59" transform="translate(329.78 -469.68) rotate(20.77)"/><path class="cls-26" d="M1467,658.33a1.69,1.69,0,0,1-2.17,1l-28.36-10.76a1.69,1.69,0,1,1,1.2-3.15L1466,656.15A1.67,1.67,0,0,1,1467,658.33Z"/><path class="cls-30" d="M1477.1,498.29l7.42,7.29c-.12,1.07-.26,2.14-.4,3.2l-8.56-8.39-1.85-1.82-15.94-15.63h0l-1.85-1.81h0l-21.14-20.73-1.86-1.82-.27-.27,3-.62.63.62L1457.45,479l1.86,1.82,15.93,15.63Z"/><path class="cls-31" d="M1481.67,448.13c.12.58.24,1.14.35,1.72a188.48,188.48,0,0,1,3.45,28.7l.12,3.73v.07c0,1.45,0,2.88,0,4.31a169.5,169.5,0,0,1-1.1,18.92c-.12,1.07-.26,2.14-.4,3.2Q1483.28,515,1482,521h0l0,.11c-.46,2.16-1,4.28-1.55,6.39-.69,2.61-1.46,5.17-2.29,7.69-.3.9-.61,1.8-.92,2.69a115.15,115.15,0,0,1-11.83,24.27c-.48.73-1,1.46-1.46,2.17a84.73,84.73,0,0,1-15.72,17.36c-.66.56-1.34,1.1-2,1.62a68.56,68.56,0,0,1-12.18,7.52q-2.29,1.11-4.68,2c-1.2.46-2.42.9-3.66,1.29q-1.43.45-2.88.84c-1.2.33-2.41.61-3.62.87a64.67,64.67,0,0,1-14.49,1.32q-1.55,0-3.09-.15a2.43,2.43,0,0,1-.38,0c-1.47-.1-3-.26-4.42-.47s-3-.47-4.45-.78l-.54-.11a76.28,76.28,0,0,1-13.45-4.27c-.81-.33-1.61-.69-2.41-1.06a99.39,99.39,0,0,1-24.48-16.18c-.65-.56-1.29-1.14-1.92-1.73A130.73,130.73,0,0,1,1337,559c-1.58-1.94-3.13-3.95-4.64-6l-.3-.42c-.53-.72-1-1.46-1.57-2.2a163.62,163.62,0,0,1-14.43-25.32h0l-.27-.58c-.41-.9-.81-1.8-1.21-2.71s-.66-1.54-1-2.32a187.26,187.26,0,0,1-10.45-33.72l-.13-.58Z"/><path class="cls-30" d="M1425.63,594.12q-1.43.45-2.88.84l-9.89-9-1.92-1.75-16.4-15-1.91-1.74-21.76-19.88-1.92-1.75-19.11-17.46-1.91-1.74-20.19-18.43-1.91-1.75-22.67-20.71-.13-.58,2.7-.56,21.63,19.76,1.92,1.75,20.18,18.43,1.91,1.74,19.12,17.46,1.91,1.75,21.76,19.88,1.91,1.74,16.41,15,1.91,1.75Z"/><path class="cls-30" d="M1448.17,581.65c-.66.56-1.34,1.1-2,1.62l-3.87-3.8-1.86-1.82-12.5-12.26-1.86-1.82-15.93-15.64-1.86-1.82-21.13-20.73-1.86-1.82-18.56-18.21-1.86-1.83-19.6-19.22-1.85-1.82-4.79-4.7,3-.63,3.29,3.23,1.86,1.82,19.59,19.23,1.86,1.82,18.56,18.21,1.86,1.82L1409.81,544l1.85,1.83,15.94,15.63,1.85,1.82,12.5,12.26,1.86,1.82Z"/><path class="cls-30" d="M1465.35,562.12c-.48.73-1,1.46-1.46,2.17l-6.1-6-1.86-1.82-12.5-12.27-1.85-1.82-15.94-15.63-1.86-1.82-21.13-20.73-1.85-1.82-18.57-18.22-1.86-1.82-11.13-10.92,3-.63,9.64,9.46,1.86,1.82,18.56,18.21,1.86,1.82,21.13,20.73,1.86,1.82,15.93,15.63,1.86,1.82,12.5,12.27,1.85,1.82Z"/><path class="cls-30" d="M1478.1,535.16c-.3.9-.61,1.8-.92,2.69l-2.56-2.5h0l-1.86-1.82-12.5-12.26-1.86-1.82-15.93-15.64-1.86-1.82-21.13-20.72-1.85-1.83-15.18-14.88,3-.63,13.67,13.42,1.86,1.82,21.13,20.73,1.85,1.82,15.94,15.63,1.86,1.82,12.5,12.27,1.86,1.82Z"/><path class="cls-30" d="M1316.07,525.07h0l20,17.71,1.94,1.71,19.35,17.14,1.94,1.71,22,19.5,1.94,1.71,13.47,11.94c1.47.21,3,.37,4.42.47l-16.37-14.49-1.93-1.71-22-19.51-1.93-1.71-19.36-17.13-1.94-1.71-20.43-18.09-1.93-1.71-1.63-1.45c.32.78.65,1.55,1,2.32s.8,1.81,1.21,2.71Z"/><polygon class="cls-30" points="1485.47 478.55 1485.59 482.28 1469.68 466.68 1467.83 464.86 1456.17 453.42 1459.21 452.79 1469.37 462.76 1471.22 464.58 1485.47 478.55"/><path class="cls-30" d="M1352.09,475l-5.29,7.21-1.54,2.1-16,21.81-1.54,2.09-10.57,14.42-1.37,1.87c-.41-.9-.81-1.8-1.21-2.71l.65-.87,10.59-14.46,1.53-2.09,16.05-21.88,1.53-2.1,3.38-4.61Z"/><path class="cls-30" d="M1395.57,466l-11.8,16.11-1.54,2.09-14,19.07-1.53,2.1-15.35,20.93-1.53,2.09-10.3,14L1338,544.5l-6,8.1c-.53-.72-1-1.46-1.57-2.2l5.58-7.61,1.52-2.08,10.33-14.08,1.53-2.09,15.4-21,1.53-2.09,14-19.07,1.54-2.09,9.9-13.51Z"/><path class="cls-30" d="M1437,457.4l-.66.89-1.53,2.09L1421,479.16l-1.54,2.1-15.29,20.86-1.54,2.1-14,19.06-1.53,2.1-14.74,20.11-1.53,2.09-10,13.68-1.52,2.09-7.89,10.75c-.65-.56-1.29-1.14-1.92-1.73l7.87-10.73,1.53-2.09,10-13.72,1.54-2.09,14.79-20.18,1.53-2.1,14-19.06,1.53-2.1,15.3-20.87,1.53-2.09,13.76-18.78.28-.38Z"/><path class="cls-30" d="M1481.67,448.13c.12.58.24,1.14.35,1.72l-10.8,14.73-1.54,2.1-10.37,14.16-1.54,2.09h0L1444,501.71l-1.53,2.09-15.29,20.87-1.54,2.1-14,19.07-1.53,2.09-14.06,19.18-1.53,2.09-9.74,13.28-1.52,2.08-5,6.78c-.81-.33-1.61-.69-2.41-1.06l5.44-7.43,1.53-2.08,9.76-13.31,1.53-2.09,14.11-19.26,1.54-2.1,14-19.06,1.54-2.1L1440.61,502l1.54-2.09,13.77-18.77h0l1.53-2.09,10.38-14.16,1.54-2.1,10.44-14.24Z"/><path class="cls-30" d="M1485.59,482.35c0,1.45,0,2.88,0,4.31l-8.52,11.63-1.54,2.1-13.76,18.77-1.54,2.1L1445,542.12l-1.54,2.1-14,19.07-1.53,2.1-13.53,18.45-1.53,2.09-8.22,11.22q-1.55,0-3.09-.15l9.39-12.82,1.54-2.09,13.58-18.52,1.54-2.1,14-19.07,1.53-2.1,15.29-20.86,1.54-2.1,13.77-18.77,1.53-2.1Z"/><rect class="cls-32" x="1455.71" y="417.76" width="313.03" height="7.31" rx="3.66" transform="translate(-51.97 335.94) rotate(-11.71)"/><rect class="cls-33" x="1296.82" y="457.37" width="190.74" height="18.61" rx="9.3" transform="translate(-65.74 292.23) rotate(-11.71)"/><rect class="cls-34" x="1724.58" y="386.32" width="46.52" height="13.29" rx="6.65" transform="translate(-43.38 362.87) rotate(-11.71)"/><path class="cls-35" d="M-8.63,957.3H1077.29v2h839.8v-153c-18.74-1.1-38,9.24-45.39,30.36l-8.7,24.95C1850,899,1799.08,903,1780.56,868l-21.38-40.36c-19-36-71.78-30.5-83.16,8.63l-3.18,10.94c-11.6,39.82-65.66,44.53-83.84,7.3l-14.64-30c-17.54-35.89-69.16-33.16-82.89,4.38l-6,16.55c-14.43,39.47-69.67,39.8-84.56.51l-1.42-3.77c-14.87-39.24-70-39-84.51.37l-4.82,13c-14,38.11-66.84,39.94-83.46,2.89l-14.18-31.6c-16.41-36.59-68.34-35.4-83.09,1.9l-13.87,35.08a44.5,44.5,0,0,1-38.23,28.5v1.25a44.46,44.46,0,0,1-33-27.88l-8.51-21.71a44.35,44.35,0,0,0-41.94-28.79c-18.07,0-36.12,10.52-42.92,31.23-12.8,39-66.19,42.33-83.66,5.24l-10.15-21.53c-17.3-36.71-70-33.9-83.38,4.45l-8.7,25C752,897,701.11,900.92,682.59,866l-21.38-40.35c-19.05-36-71.78-30.51-83.16,8.63l-3.19,10.94C563.27,885,509.21,889.71,491,852.47l-14.64-30c-17.54-35.9-69.16-33.17-82.89,4.37l-6,16.55c-14.43,39.47-69.67,39.81-84.56.51l-1.42-3.77c-14.87-39.23-70-39-84.52.38l-4.81,13a44.27,44.27,0,0,1-32.93,28.68c-19.28,4-40.94-4.39-50.53-25.79L114.51,824.9c-16.41-36.59-68.34-35.41-83.1,1.89L17.55,861.87A44.41,44.41,0,0,1-8.63,887.73Z"/><path class="cls-36" d="M-6.62,986.67H1079.3v2h839.8v-153c-18.74-1.09-38,9.24-45.4,30.36L1865,891c-13,37.39-63.92,41.31-82.44,6.35L1761.19,857c-19-36-71.78-30.5-83.16,8.63l-3.19,10.94c-11.59,39.82-65.65,44.53-83.84,7.29l-14.63-30c-17.54-35.89-69.16-33.17-82.89,4.37l-6,16.56c-14.43,39.46-69.67,39.8-84.56.5l-1.42-3.76c-14.87-39.24-70-39-84.52.37l-4.81,13c-14.05,38.11-66.84,39.94-83.47,2.89l-14.17-31.6c-16.41-36.59-68.34-35.41-83.1,1.89l-13.86,35.08a44.51,44.51,0,0,1-38.23,28.51V923a44.45,44.45,0,0,1-33-27.88l-8.51-21.71a44.35,44.35,0,0,0-41.94-28.79c-18.07,0-36.12,10.51-42.92,31.23-12.8,39-66.19,42.32-83.66,5.24l-10.15-21.53c-17.3-36.71-70-33.9-83.39,4.45L767,889c-13,37.39-63.91,41.31-82.43,6.35L663.21,855c-19-36-71.77-30.5-83.15,8.63l-3.19,10.94c-11.59,39.83-65.65,44.54-83.84,7.3l-14.63-30c-17.54-35.89-69.16-33.16-82.89,4.38l-6,16.55c-14.43,39.47-69.67,39.8-84.56.51l-1.42-3.77c-14.87-39.23-70-39-84.52.37L214.16,883a44.29,44.29,0,0,1-32.93,28.68c-19.28,4-40.94-4.4-50.54-25.79l-14.17-31.6c-16.41-36.59-68.34-35.4-83.1,1.9L19.56,891.25A44.41,44.41,0,0,1-6.62,917.11Z"/><path class="cls-37" d="M-6.62,1012H1079.3v2h839.8V861c-18.74-1.09-38,9.24-45.4,30.36l-8.69,25c-13,37.39-63.92,41.31-82.44,6.35l-21.38-40.36c-19-36-71.78-30.5-83.16,8.63l-3.19,10.94c-11.59,39.83-65.65,44.54-83.84,7.3l-14.63-30c-17.54-35.89-69.16-33.16-82.89,4.38l-6,16.55c-14.43,39.47-69.67,39.8-84.56.51l-1.42-3.77c-14.87-39.23-70-39-84.52.38l-4.81,13c-14.05,38.11-66.84,39.95-83.47,2.89l-14.17-31.6c-16.41-36.59-68.34-35.4-83.1,1.9l-13.86,35.08a44.51,44.51,0,0,1-38.23,28.51v1.24a44.43,44.43,0,0,1-33-27.88l-8.51-21.71A44.36,44.36,0,0,0,995.85,870c-18.07,0-36.12,10.52-42.92,31.24-12.8,39-66.19,42.32-83.66,5.23l-10.15-21.52c-17.3-36.71-70-33.91-83.39,4.44L767,914.31c-13,37.39-63.91,41.31-82.43,6.36l-21.39-40.36c-19-36-71.77-30.5-83.15,8.63l-3.19,10.94c-11.59,39.82-65.65,44.53-83.84,7.29L478.4,877.22c-17.54-35.89-69.16-33.17-82.89,4.37l-6,16.56c-14.43,39.46-69.67,39.8-84.56.5l-1.42-3.77c-14.87-39.23-70-39-84.52.38l-4.81,13A44.31,44.31,0,0,1,181.23,937c-19.28,4-40.94-4.4-50.54-25.8L116.52,879.6c-16.41-36.59-68.34-35.41-83.1,1.89L19.56,916.57A44.45,44.45,0,0,1-6.62,942.44Z"/><path class="cls-36" d="M-8.63,1060.62H1077.29v2h839.8v-153c-18.74-1.09-38,9.24-45.39,30.36l-8.7,25c-13,37.39-63.92,41.32-82.44,6.36L1759.18,931c-19-36-71.78-30.5-83.16,8.63l-3.18,10.94c-11.6,39.82-65.66,44.53-83.84,7.29l-14.64-30c-17.54-35.89-69.16-33.17-82.89,4.37l-6,16.56c-14.43,39.46-69.67,39.8-84.56.5l-1.42-3.76c-14.87-39.24-70-39-84.51.37L1310.12,959c-14,38.11-66.84,39.94-83.46,2.88l-14.18-31.59c-16.41-36.59-68.34-35.41-83.09,1.89l-13.87,35.08a44.51,44.51,0,0,1-38.23,28.51V997a44.46,44.46,0,0,1-33-27.88l-8.51-21.71a44.35,44.35,0,0,0-41.94-28.79c-18.07,0-36.12,10.51-42.92,31.23-12.8,39-66.19,42.32-83.66,5.24l-10.15-21.53c-17.3-36.71-70-33.9-83.38,4.45l-8.7,25c-13,37.39-63.92,41.31-82.44,6.35l-21.38-40.36c-19.05-36-71.78-30.5-83.16,8.63l-3.19,10.94C563.27,988.32,509.21,993,491,955.8l-14.64-30c-17.54-35.89-69.16-33.16-82.89,4.38l-6,16.55c-14.43,39.47-69.67,39.8-84.56.51l-1.42-3.77c-14.87-39.23-70-39-84.52.37l-4.81,13a44.29,44.29,0,0,1-32.93,28.68c-19.28,4-40.94-4.4-50.53-25.79l-14.18-31.6c-16.41-36.59-68.34-35.4-83.1,1.9L17.55,965.2A44.41,44.41,0,0,1-8.63,991.06Z"/><path class="cls-37" d="M1917.1,924.85v153H1077.29v-2H-8.62v-69.56c.53-.19,1-.4,1.57-.61l.44-.19a43.94,43.94,0,0,0,21.15-18.78,48,48,0,0,0,3-6.28L22,969.11l4.67-11.81,4.73-12c14.76-37.3,66.68-38.49,83.09-1.9l6.23,13.88,8,17.72a46.71,46.71,0,0,0,7.41,11.66,44.91,44.91,0,0,0,43.13,14.13,44.25,44.25,0,0,0,24.37-14.13,46.25,46.25,0,0,0,8.56-14.55l4.81-13c.22-.6.46-1.2.69-1.78,15.32-37.11,67.86-37.23,83.26,0,.19.46.38.93.56,1.41l1.43,3.77a44.42,44.42,0,0,0,21.18,24.2,46,46,0,0,0,42,0A44.47,44.47,0,0,0,387.46,962l1.71-4.67,4.34-11.88c13.72-37.54,65.34-40.27,82.88-4.38l7.95,16.26L491,971a45.66,45.66,0,0,0,12.36,15.68c16.39,13.2,40.21,12.76,56.29,0a44.94,44.94,0,0,0,15.19-23l1.86-6.4,1.32-4.54c11.38-39.13,64.11-44.6,83.16-8.63l7,13.17,14.41,27.19c.4.75.81,1.48,1.24,2.19a44.21,44.21,0,0,0,20.29,18.1c19.87,8.75,45,2.24,57-18.1a47.36,47.36,0,0,0,3.95-8.54l7.27-20.84,1.43-4.11c13.37-38.35,66.09-41.16,83.39-4.45l4,8.56,6.11,13a45.33,45.33,0,0,0,12.85,16.41c16.26,12.93,39.81,12.62,55.86,0A44.86,44.86,0,0,0,950.92,965a48,48,0,0,1,3.29-7.73,45.06,45.06,0,0,1,79.14,0,49.27,49.27,0,0,1,2.44,5.29l8.5,21.71c.32.81.65,1.6,1,2.38a44.32,44.32,0,0,0,31.15,25.32c.28.07.56.12.84.18v-1.25a44.4,44.4,0,0,0,35.22-22.23,48.57,48.57,0,0,0,3-6.28l9.12-23.09,4.74-12c14.76-37.3,66.68-38.48,83.1-1.89l6.23,13.88,7.94,17.71a46.89,46.89,0,0,0,7.41,11.66c17.73,20.33,50,20,67.5,0a46.2,46.2,0,0,0,8.56-14.54l4.81-13c.22-.6.46-1.2.69-1.78,15.32-37.12,67.87-37.23,83.26,0,.2.46.38.93.56,1.4l1.43,3.77A44.46,44.46,0,0,0,1422,988.7a46,46,0,0,0,42,0,44.45,44.45,0,0,0,21.34-24.7l1.71-4.67,4.34-11.89c13.72-37.54,65.34-40.26,82.88-4.37l8,16.26L1589,973a45.62,45.62,0,0,0,12.35,15.68c16.38,13.21,40.21,12.78,56.3,0a44.81,44.81,0,0,0,15.19-23l1.86-6.4,1.32-4.54c11.39-39.13,64.11-44.6,83.16-8.63l7,13.17,14.41,27.19c.39.75.8,1.47,1.23,2.18,17.8,29.85,60.41,28.55,77.25,0a47.36,47.36,0,0,0,4-8.54l7.26-20.83,1.44-4.12A44.57,44.57,0,0,1,1913,924.8C1914.34,924.75,1915.72,924.77,1917.1,924.85Z"/><path class="cls-7" d="M577.91,759.9l7,5.81"/><path class="cls-38" d="M413.33,732.87c-7.48,13.54-6.46,12.66-8.14,15.12-10.33,15.18-28.7,19-29.65,19.18-4.07.79-15.08,2.76-26.74-2.9-1.67-.82-18.22-9.13-19.76-23.26-1-9.24,4.88-16.7,3.48-17.44s-6.27,5.64-9.3,10.47a45.39,45.39,0,0,0-2.9,5.23c-3.88,8.61-1.38,18.77,0,23.25-1.42-.19-3.42-.43-5.82-.58a58.7,58.7,0,0,0-9.88,0,35.31,35.31,0,0,0-10.47,2.33,32.1,32.1,0,0,0-10.46,7c-2.35,2.21-3.88,3.65-3.49,4.65.57,1.46,4.6.6,12.79.58a81.39,81.39,0,0,1,11.63.59c5.69.78,9.9,2.25,15.11,4.07,3.74,1.3,6.4,2.43,11.63,4.65,8.15,3.45,8.66,4,12.21,5.23a72.11,72.11,0,0,0,13.95,2.91,146.25,146.25,0,0,0,22.09,1.16c14.9-.29,16.67-1.74,30.23-2.33,9.25-.4,7.82.31,27.91.58,17.84.25,18-.32,33.72,0,17.14.35,17,1,25.58.59a201.4,201.4,0,0,0,27.32-3.49c9.15-1.69,15.94-3.49,20.35-4.65,9.28-2.46,15.58-4.14,23.84-7.56a112.52,112.52,0,0,0,12.08-5.67c1.89-1,3.86-2.24,5.94-3.63,1.13-.76,2.59-1.72,4.44-3.13a75.76,75.76,0,0,0,7.77-6.76l.76-.77c4.78-4.82,8.47-8.7,10.28-13.76,3.87-10.76-2.5-21.92-9.88-34.88-5.2-9.13-10.3-14.56-16.28-20.93a67.57,67.57,0,0,0-9-8.3,23.41,23.41,0,0,0-6.15-3.33c-4.78-1.72-8.83-1.73-13.38-1.74-8.49,0-10.61,1.7-20.34,2.9-3.42.43-9.45.48-21.51.59-3.92,0-3.63,0-19.77,0-20.42,0-17.46,0-22.09,0s-9.31.33-14,0c-5.32-.38-8.81-1.08-13.38.58-.63.23-1.22.48-1.76.74a15.81,15.81,0,0,0-4.05,2.75,17.89,17.89,0,0,0-4.07,6.39c-3,6.78-3.61,5.62-7,12.79Z"/><path class="cls-12" d="M406.36,665.43c0,.12,0,.22,0,.33h0c0,.23,0,.46.07.71.77,7.34,3.11,17.83,10.91,22.21,4.92,2.75,10.1,2,12.17,1.74,35.56-4.7,120-.07,136.22-1.74a53.35,53.35,0,0,1,7-.34c1.23,0,2.25,0,2.47.07.9,0,1.92.12,3.28.27,5,.55,7.68,1.51,11.6.58a17.46,17.46,0,0,0,7.53-4.07q2.31-9,4.63-18.1l.42-1.66c-.56-1-2.55-1.93-5.77-2.81l-190.39,2.8Z"/><path class="cls-23" d="M406.36,666a1.13,1.13,0,0,0,.1.46c2.37,5.24,45.41,9.42,98.15,9.42,50.61,0,92.28-3.85,97.66-8.8l.42-1.66c-.56-1-2.55-1.93-5.77-2.81-13.75-3.79-49.89-6.5-92.31-6.5-52.33,0-95.1,4.12-98.08,9.3a1,1,0,0,0-.14.33h0A1,1,0,0,0,406.36,666Z"/><path class="cls-12" d="M525.79,670.42c0-33.23-9.63-60.17-21.51-60.17s-21.51,26.94-21.51,60.17Z"/><circle class="cls-24" cx="520.3" cy="657.3" r="4.07"/><circle class="cls-8" cx="504.03" cy="657.3" r="4.07"/><circle class="cls-22" cx="488.33" cy="657.3" r="4.07"/><ellipse class="cls-21" cx="561.61" cy="713.83" rx="12.18" ry="12.07"/><circle cx="563.38" cy="714.55" r="6.98"/><circle class="cls-22" cx="565.12" cy="711.65" r="2.91"/><path class="cls-39" d="M451.47,740.72a5.52,5.52,0,1,0,0,11"/><path class="cls-39" d="M464,730.14a5.53,5.53,0,0,0,0,11.05"/><path class="cls-39" d="M469.61,749.3a5.53,5.53,0,0,0,0,11.05"/><path class="cls-39" d="M484.21,730.34a5.52,5.52,0,1,0,0,11"/><path class="cls-39" d="M489.26,751.53a5.53,5.53,0,0,0,0,11.05"/><path class="cls-39" d="M472.32,715.72a5.52,5.52,0,1,0,0,11"/><path class="cls-39" d="M456.84,757a5.52,5.52,0,1,0,0,11"/><path class="cls-40" d="M578.9,757.65h0a1.3,1.3,0,0,1,0,1.38,8.14,8.14,0,0,0-.92,5.81,7.2,7.2,0,0,0,5.75,5.76.09.09,0,0,1,0,.17,7,7,0,0,1-7.7-5.76,7.92,7.92,0,0,1,2.69-7.63A1.91,1.91,0,0,0,578.9,757.65Z"/><circle class="cls-41" cx="707" cy="653" r="20"/><circle class="cls-42" cx="707" cy="567" r="20"/><circle class="cls-43" cx="666.81" cy="694.87" r="12"/><path d="M746.32,83c-1.48,0-3.8,0-6.91.07l-6.64.07c-1.89,0-4.58.09-8,.18s-6.17.14-8.14.17c-.12,1.13-.28,2.74-.45,4.85s-.28,4.09-.37,6c2,0,4.62,0,8,0s6,0,7.8,0,4.16,0,6.69-.09l5.92-.08a133.14,133.14,0,0,0,.63,24.12c-1.41,0-3.62,0-6.6-.12S733.14,118,732,118c-1.78,0-4.17,0-7.14-.06s-5.44,0-7.4-.07A155.47,155.47,0,0,0,720,135.94a150.61,150.61,0,0,0,4,15.23l-29.62-.49c-.55-3.91-1.16-9.2-1.65-15.86s-1.23-18.57-1.12-35.71c0-5.7.17-12.56.58-20.58s1.09-16.05,2.21-24L705,54.37,722,54.13q7.77-.14,18.93-.35c7.45-.15,12.1-.25,14-.27A115.53,115.53,0,0,0,746.32,83Z"/><path d="M793.42,152.35l-29.56-.5a105.56,105.56,0,0,1-7.08-20.45,126.25,126.25,0,0,1-.73-54.17A106.58,106.58,0,0,1,764,53.35l29.57-.5a100.64,100.64,0,0,0-8,20.82A112.64,112.64,0,0,0,781.8,98.8a113.83,113.83,0,0,0,3.07,30.5A102.29,102.29,0,0,0,793.42,152.35Z"/><path d="M858.39,123.54c1,6.34.9,11.48-.48,15.49a19.82,19.82,0,0,1-6.92,9.71c-2.81,2.13-7,3.57-12.52,4.41a97.74,97.74,0,0,1-16.14,1.13q-7.17-.12-11.72-.39t-6.84-.44a107.82,107.82,0,0,1-13.83-31.35c.4.06,2.38.18,6,.38s6,.3,7.07.31l5,.06c1.88,0,3.7,0,5.46-.17,2.39-.23,3.86-.72,4.4-1.47a3.42,3.42,0,0,0,.62-2.53,4.28,4.28,0,0,0-1.61-2.85,34.52,34.52,0,0,0-5-3c-1.3-.69-3.23-1.8-5.76-3.31a41.24,41.24,0,0,1-5.94-4.17A22.56,22.56,0,0,1,793.22,95a26.76,26.76,0,0,1-.65-12.77,28.3,28.3,0,0,1,3-8.4,27.44,27.44,0,0,1,5.12-6.81c5.25-5.12,12.2-9,20.45-11.8a90.19,90.19,0,0,1,27.55-4.37c4.42-.08,7.75-.09,10,0s3.79.11,4.68.18a106.06,106.06,0,0,0-6,31.63l-4.88-.27c-1.53-.09-3.46-.12-5.77-.1-2.09,0-3.91.07-5.47.17s-3.27.23-5.14.41a10,10,0,0,0-4.11,1.1,3.19,3.19,0,0,0-1.61,2.41,3.22,3.22,0,0,0,1.11,3,31,31,0,0,0,4.26,2.92l5.72,3.4a39.34,39.34,0,0,1,5.72,4.15A30.48,30.48,0,0,1,854.62,110,50,50,0,0,1,858.39,123.54Z"/><path d="M954.9,155l-30-.46c-.7-2.36-1.66-5.84-2.66-10.73A195,195,0,0,1,919,119.72c-2.25,0-4.15,0-5.72-.07s-3.37-.06-5.42-.07c-1.73,0-3.39,0-5,0s-3.33,0-5.25,0a153.56,153.56,0,0,0,3.11,19.66,123,123,0,0,0,4.36,15l-29.81-.48A99.46,99.46,0,0,1,869.83,138a140.85,140.85,0,0,1-4.3-39.39,146.76,146.76,0,0,1,2.43-23,107.91,107.91,0,0,1,7.39-24.14L905.14,51a129.62,129.62,0,0,0-4.65,16.14,147.55,147.55,0,0,0-2.55,15.44c1.91,0,3.65,0,5.23,0s3.24,0,5,0c2.07,0,3.88,0,5.4-.08s3.41-.06,5.65-.08c.46-4.92,1.1-10.19,2-15.62A137.07,137.07,0,0,1,925,50.67l30-.47a249.66,249.66,0,0,0-3.69,27.86c-.78,9.83-1,18.24-1,24.64A308.31,308.31,0,0,0,951.94,135C953,145,954.19,151.3,954.9,155Z"/><path d="M1055.65,83.83l-11.26,0q-6.86,0-11.18,0c.08,5.21.09,10.15.07,14.75s0,10-.1,16.13c-.08,9.42-.23,17.57-.41,24.34s-.45,12.44-.76,17.08l-30.13-.41c-.12-4.21-.24-9.16-.34-14.91s-.26-14.13-.35-25.48c-.05-5.07-.07-10.2-.08-15.33s0-10.51,0-16.07c-3.9,0-8.28,0-13.12.09l-9.49.08c.39-12.45,1.19-24.28,2.22-34.24L995,49.65l22.18-.28q8.28-.1,20.1-.3l15.89-.24C1054.48,59.17,1055.26,71.21,1055.65,83.83Z"/><path d="M1137.83,148.73c-10.81,3.75-21.73,7.32-32.59,10.63.12-2.85.19-6.21.13-10.14s-.21-7.07-.33-9.25l-20.71-.07c-.36,1.26-1.23,4.32-2.76,8.9s-2.83,7.89-3.81,10.21l-28-10.83c1.26-3.34,6.31-15.87,13.3-40.74s10.9-45.19,12.65-58.81q16.88-.2,33.71-.37c8.7,16.16,16.75,38.1,22.28,62C1137.05,134.23,1137.48,146.17,1137.83,148.73Zm-35.5-34.86c-.64-4.32-1.47-9.62-2.61-15.81s-2.33-11.66-3.47-16.35l-.35-.07c-.52,4.54-1.25,10.25-2.34,17.12s-2.1,11.92-2.77,15.11a.29.29,0,0,1,0,.09h11.58S1102.34,113.9,1102.33,113.87Z"/><path d="M1206.79,121.8c-1.14,6.24-2.41,12.37-3.81,18.32s-3.07,12.32-5.09,18.94l-1.43,0h-2q-13.77-.12-23.83-3.67a37,37,0,0,1-16.8-11.87,48.45,48.45,0,0,1-8.86-17.26c-2-6.64-2.82-14.5-2.82-23.45,0-8.79.86-16.58,2.82-23.25a46.93,46.93,0,0,1,9-17.31,38.67,38.67,0,0,1,17.47-12.08,72,72,0,0,1,23-3.7h2.75c1.24,4,2.76,9.22,4.34,15.93s3.1,13.86,4.5,21.4h-3.17c-1.11,0-3.42.17-7,.53a39.55,39.55,0,0,0-9.36,2,24.14,24.14,0,0,0-9.68,5.93c-2.46,2.56-3.63,6.13-3.63,10.71,0,4.29,1.21,7.75,3.71,10.4a24.07,24.07,0,0,0,9.65,6.06,38.84,38.84,0,0,0,9.31,1.92c3.75.38,6,.57,7,.57h3.94Z"/><path d="M1285.72,102.61a116.32,116.32,0,0,1-2.3,24.27,56.93,56.93,0,0,1-8.28,20.2,30.68,30.68,0,0,1-12.1,10.63,35.28,35.28,0,0,1-15.88,3.5,34.55,34.55,0,0,1-15.27-3.46,28,28,0,0,1-11.27-10.34,58.44,58.44,0,0,1-7.41-19.71,128.69,128.69,0,0,1-2.2-25.09,131.43,131.43,0,0,1,1.91-24,59.7,59.7,0,0,1,6.69-19.06,30.19,30.19,0,0,1,11.21-11.43,32.56,32.56,0,0,1,16.11-4,36.05,36.05,0,0,1,16.13,3.46A32,32,0,0,1,1275.66,59a55.46,55.46,0,0,1,7.86,19.67A117.75,117.75,0,0,1,1285.72,102.61Zm-25.58.29a59.21,59.21,0,0,0-1-10.8,22.26,22.26,0,0,0-3.36-8.79,11.13,11.13,0,0,0-2.78-2.82,6.4,6.4,0,0,0-3.72-1.15,5.66,5.66,0,0,0-3.52,1.11A11.63,11.63,0,0,0,1242.8,84a26.13,26.13,0,0,0-2.68,8.33,58.43,58.43,0,0,0-.91,10.24,64.78,64.78,0,0,0,.86,10.53,25,25,0,0,0,2.87,8.54,9.39,9.39,0,0,0,2.81,3.21,6.33,6.33,0,0,0,7.22,0,11.38,11.38,0,0,0,3-3.16,23.82,23.82,0,0,0,3.16-8.61A53.29,53.29,0,0,0,1260.14,102.9Z"/><circle class="cls-44" cx="849.99" cy="423.83" r="14.51"/><circle class="cls-44" cx="871.09" cy="367.11" r="14.51"/><circle class="cls-44" cx="896.15" cy="332.81" r="14.51"/><circle class="cls-44" cx="944.96" cy="305.11" r="14.51"/><circle class="cls-44" cx="1004.32" cy="305.11" r="14.51"/><circle class="cls-44" cx="1051.8" cy="328.85" r="14.51"/><circle class="cls-44" cx="1083.46" cy="372.38" r="14.51"/><circle class="cls-44" cx="1097.97" cy="423.83" r="14.51"/><path class="cls-8" d="M836.15,449.7c0-9.61,12.73-18.06,14.15-27.19,1.49-9.48-7.94-21.44-5.09-30.23,3-9.13,17.64-13.21,21.92-21.41,4.43-8.5-.53-22.91,5.14-30.22,5.87-7.56,21-6.22,28-12.28,7.21-6.24,8.22-21.45,16.43-25.86s21.43,3.18,30.57.85,16.91-15.3,26.5-15.27,17.4,13.1,26.39,15.47,22.28-5.15,30.58-.62,9.07,19.68,16.24,26c7,6.11,22.13,4.88,27.94,12.48,5.62,7.36.55,21.73,4.92,30.26,4.21,8.23,18.87,12.43,21.76,21.57,2.78,8.82-6.74,20.7-5.32,30.2,1.36,9.13,14,17.68,14,27.29"/><path class="cls-12" d="M848.67,451.07c0-75.51,55.81-136.72,124.65-136.72S1098,375.56,1098,451.07"/><circle class="cls-44" cx="849.99" cy="423.83" r="14.51"/><circle class="cls-44" cx="871.09" cy="367.11" r="14.51"/><circle class="cls-44" cx="896.15" cy="332.81" r="14.51"/><circle class="cls-44" cx="944.96" cy="305.11" r="14.51"/><circle class="cls-44" cx="1004.32" cy="305.11" r="14.51"/><circle class="cls-44" cx="1051.8" cy="328.85" r="14.51"/><circle class="cls-44" cx="1083.46" cy="372.38" r="14.51"/><circle class="cls-44" cx="1097.97" cy="423.83" r="14.51"/><path class="cls-8" d="M836.15,449.7c0-9.61,12.73-18.06,14.15-27.19,1.49-9.48-7.94-21.44-5.09-30.23,3-9.13,17.64-13.21,21.92-21.41,4.43-8.5-.53-22.91,5.14-30.22,5.87-7.56,21-6.22,28-12.28,7.21-6.24,8.22-21.45,16.43-25.86s21.43,3.18,30.57.85,16.91-15.3,26.5-15.27,17.4,13.1,26.39,15.47,22.28-5.15,30.58-.62,9.07,19.68,16.24,26c7,6.11,22.13,4.88,27.94,12.48,5.62,7.36.55,21.73,4.92,30.26,4.21,8.23,18.87,12.43,21.76,21.57,2.78,8.82-6.74,20.7-5.32,30.2,1.36,9.13,14,17.68,14,27.29"/><path class="cls-12" d="M848.67,451.07c0-75.51,55.81-136.72,124.65-136.72S1098,375.56,1098,451.07"/><path d="M934.16,386.67a15.43,15.43,0,0,1-2.57,9.05,20,20,0,0,1-7.17,6.13,28,28,0,0,1-8.07,2.59,51.31,51.31,0,0,1-8.42.89l0,10.9h-19.3c0-3.09,0-6.41,0-10s0-8.63,0-15.29q0-4.19,0-10.07c0-3.93,0-7.85,0-11.76,1.29,0,2.89,0,4.8-.05s3.84-.06,5.79-.06a140.27,140.27,0,0,1,14.06.51,37.6,37.6,0,0,1,8.61,1.95,20.06,20.06,0,0,1,9,5.91A14,14,0,0,1,934.16,386.67Zm-19.69,1.68a6.53,6.53,0,0,0-.62-2.79,5.06,5.06,0,0,0-1.84-2.13,5.79,5.79,0,0,0-2.18-.88,14.66,14.66,0,0,0-2.18-.17h-.74V395h.77a9.39,9.39,0,0,0,2.11-.3,5.81,5.81,0,0,0,1.94-.75,6.43,6.43,0,0,0,2-2.08A7.1,7.1,0,0,0,914.47,388.35Z"/><path d="M956.3,416.23H938.62q0-5.13,0-10.49c0-3.58,0-9.05,0-16.44q0-5.69,0-12t0-12.59H956.3q0,6.48,0,12t0,12.13q0,7.21,0,12.81T956.3,416.23Z"/><path d="M1000.32,399.36v16.87q-.81.07-6.26.37t-9.81.3c-2,0-4.67-.16-8-.47a30.92,30.92,0,0,1-8-1.67,13.67,13.67,0,0,1-5.73-3.91,8.34,8.34,0,0,1-1.93-5.41,9,9,0,0,1,1.83-5.71c1.21-1.56,3.41-2.87,6.57-3.92a33.62,33.62,0,0,1,7.86-1.57c3-.27,4.86-.41,5.68-.44a1.74,1.74,0,0,0-.55-1.32,5.63,5.63,0,0,0-2.55-.86,24.12,24.12,0,0,0-2.67-.3c-1-.05-2.19-.08-3.62-.08-1.88,0-3.5,0-4.87.07l-3.6.1,1.4-12.06H973a56.19,56.19,0,0,1,13.2,1.23,20.76,20.76,0,0,1,8.31,4.08,14.28,14.28,0,0,1,4.47,6.17A24.89,24.89,0,0,1,1000.32,399.36Zm-16.52,3.83v-3.8a10.92,10.92,0,0,0-1.32.14,7.61,7.61,0,0,0-2.2.78,4.65,4.65,0,0,0-1.37,1.19,3.06,3.06,0,0,0-.7,2,3.15,3.15,0,0,0,.68,2.18,4.49,4.49,0,0,0,1.57,1.16,5.89,5.89,0,0,0,1.28.39,9.88,9.88,0,0,0,1.74.14h.32v-4.22Z"/><path d="M1047,382.83q-6.88,16.07-12.92,30.89t-7.54,18.58l-16.84-3.48,5.34-13.33q-.76-1.89-5.08-12.35t-8.49-20.31l18.11-3.83q1.62,5.63,2.88,9.28c.85,2.44,1.58,4.5,2.22,6.19h.35q1.2-3.48,2-6.19c.56-1.8,1.46-4.9,2.71-9.28Z"/><circle class="cls-44" cx="849.32" cy="659.27" r="14.51"/><circle class="cls-44" cx="870.43" cy="602.55" r="14.51"/><circle class="cls-44" cx="895.49" cy="568.25" r="14.51"/><circle class="cls-44" cx="944.3" cy="540.55" r="14.51"/><circle class="cls-44" cx="1003.65" cy="540.55" r="14.51"/><circle class="cls-44" cx="1051.14" cy="564.3" r="14.51"/><circle class="cls-44" cx="1082.8" cy="607.83" r="14.51"/><circle class="cls-44" cx="1097.31" cy="659.27" r="14.51"/><path class="cls-8" d="M835.48,685.14c0-9.61,12.73-18.06,14.16-27.19,1.49-9.48-7.94-21.44-5.09-30.23,3-9.12,17.64-13.21,21.92-21.41,4.43-8.5-.54-22.91,5.14-30.22,5.87-7.56,21-6.22,28-12.28,7.21-6.24,8.22-21.45,16.43-25.85s21.43,3.17,30.57.84,16.91-15.3,26.5-15.27,17.39,13.11,26.39,15.47,22.28-5.15,30.57-.62,9.08,19.69,16.24,26c7,6.11,22.13,4.88,28,12.49,5.62,7.35.55,21.72,4.92,30.25,4.21,8.24,18.86,12.43,21.75,21.57,2.79,8.82-6.73,20.71-5.31,30.2,1.36,9.13,14,17.68,13.95,27.29"/><path class="cls-12" d="M848,686.52c0-75.52,55.8-136.73,124.65-136.73S1097.31,611,1097.31,686.52"/><path d="M938.2,654.78l-18.46,3.48-4.15-21.52h-.35c-.28.87-.84,2.68-1.68,5.45s-1.87,6.25-3.06,10.44H896.57q-2-7.27-3.19-10.79l-1.69-5.1h-.35c-.38,1.8-1,4.78-1.71,8.91s-1.52,8.34-2.27,12.61l-18-3.48q3.93-18.18,6.06-29.36t2.76-14.24l18.78-1.65c.42,1.41,1.23,4.17,2.44,8.3s2.58,8.74,4.13,13.85h.35q2.11-6.25,4.52-13.61c1.6-4.9,2.55-7.74,2.83-8.54l19.65,1.65q.31,1.8,2.08,12.94T938.2,654.78Z"/><path d="M980.11,640.89H957a3.49,3.49,0,0,0,1.41,2.6,9.7,9.7,0,0,0,4.36,1.86,24.25,24.25,0,0,0,4.32.58c1.39.06,2.66.09,3.84.09,1.71,0,3.11,0,4.21,0l2.89,0-1.65,11.64c-.9.07-2,.14-3.31.21s-2.77.1-4.36.1a57.8,57.8,0,0,1-12.29-1.21,26.54,26.54,0,0,1-9.79-4.2,17.72,17.72,0,0,1-5.39-6.06,16,16,0,0,1-1.88-7.65,18.61,18.61,0,0,1,1.35-7.37,18.38,18.38,0,0,1,4.83-6.24,18.58,18.58,0,0,1,6.75-3.76,26.52,26.52,0,0,1,16-.12,16.49,16.49,0,0,1,6.12,3.5,15.7,15.7,0,0,1,4.38,6.85A30.81,30.81,0,0,1,980.11,640.89Zm-16.25-5.77a6.43,6.43,0,0,0-1-3.69,3.54,3.54,0,0,0-3.14-1.47,3.92,3.92,0,0,0-3.19,1.38,6.25,6.25,0,0,0-1.24,3.78Z"/><path d="M1026.55,657.34h-17.69c0-.84,0-2.14,0-3.88s0-4,0-6.7c0-1.1,0-2.57,0-4.39s0-3.3-.06-4.4a7.7,7.7,0,0,0-.52-3.23,2,2,0,0,0-1.94-1.09,8.53,8.53,0,0,0-2.56.4c-.87.27-1.51.49-1.94.65q0,7.27,0,9,0,3.48,0,8.19c0,3.14,0,5,0,5.45H984.25c0-1.05,0-3,0-5.75s0-6.72,0-11.83c0-3.79,0-7.14,0-10s0-5.79,0-8.67h17.3l0,2.36.07.07c.84-.38,2.69-1,5.55-2a25.75,25.75,0,0,1,8-1.41,10.87,10.87,0,0,1,8.36,3.25,12,12,0,0,1,3,8.53c0,2.72,0,4.84,0,6.38s0,2.91,0,4.13q0,3.38,0,8.1T1026.55,657.34Z"/><path d="M1074.61,657.34h-17.3l0-2.53-.07-.07a65.31,65.31,0,0,1-6.5,2.43,23.45,23.45,0,0,1-7.07,1.26c-3.65,0-6.46-1.06-8.43-3.2a12.14,12.14,0,0,1-3-8.58c0-2.71,0-5.37,0-8s0-4.49,0-5.71q0-3.37,0-7c0-2.42,0-4.06,0-4.9H1050c0,.94,0,2.49,0,4.66s0,4.14,0,5.92c0,1.2,0,2.73,0,4.61s0,3.31,0,4.32a10.63,10.63,0,0,0,.38,3,1.9,1.9,0,0,0,2.08,1.3,8.49,8.49,0,0,0,2.48-.44,13,13,0,0,0,2-.79q0-6.2,0-9,0-3.48,0-7.72c0-2.82,0-4.79,0-5.92h17.69c0,.89,0,3.21,0,6.94s0,7.29,0,10.64,0,6.22,0,8.88S1074.61,653.45,1074.61,657.34Z"/></g></g></svg>
