<svg id="Layer_1" data-name="Layer 1" xmlns="http://www.w3.org/2000/svg" xmlns:xlink="http://www.w3.org/1999/xlink" width="280" height="450" viewBox="0 0 280 450"><defs><style>.cls-1{fill:#3f9df4;}.cls-2{fill:url(#linear-gradient);}.cls-3{fill:url(#linear-gradient-2);}.cls-4{fill:url(#linear-gradient-3);}.cls-5{fill:url(#linear-gradient-4);}.cls-6{fill:url(#linear-gradient-5);}.cls-7{fill:#0071bc;}.cls-8{fill:#eaeaea;}.cls-9{fill:#fff;}.cls-10{fill:#f7931e;}.cls-11{fill:#fbb03b;}.cls-12{fill:red;}.cls-13{fill:#006837;}.cls-14{fill:none;stroke:#666;stroke-miterlimit:10;}</style><linearGradient id="linear-gradient" x1="485.26" y1="509.18" x2="497.34" y2="509.18" gradientTransform="translate(-575.75 -153.45) rotate(-21.03)" gradientUnits="userSpaceOnUse"><stop offset="0" stop-color="#fff"/><stop offset="0.57" stop-color="#fff"/><stop offset="0.87" stop-color="red"/><stop offset="0.99" stop-color="red"/></linearGradient><linearGradient id="linear-gradient-2" x1="497.32" y1="511.88" x2="509.41" y2="511.88" xlink:href="#linear-gradient"/><linearGradient id="linear-gradient-3" x1="509.27" y1="514.94" x2="521.35" y2="514.94" xlink:href="#linear-gradient"/><linearGradient id="linear-gradient-4" x1="125.52" y1="836.45" x2="137.6" y2="836.45" gradientTransform="translate(-446.77 -506.01) rotate(-31.47)" xlink:href="#linear-gradient"/><linearGradient id="linear-gradient-5" x1="-2064.23" y1="-4883.01" x2="-2051.71" y2="-4883.01" gradientTransform="matrix(-0.48, 0.63, -0.64, -0.48, -4060.14, -885.66)" xlink:href="#linear-gradient"/></defs><title>haj</title><path class="cls-1" d="M126.56,226.31c-1.91,7.66-3.27,8.92-5.31,15.64-4.65,15.33-4.28,26.28-4.28,26.28s-7.64-21-6.51-44.66c.93-19.75,6.63-41.88,11.49-41.14,3.77.58,7,14.84,7.19,24.85A68.74,68.74,0,0,1,126.56,226.31Z"/><polygon class="cls-2" points="70.32 152.25 63.68 146.21 57.04 140.17 63.11 139.13 69.18 138.09 69.75 145.17 70.32 152.25"/><polygon class="cls-3" points="82.55 150.45 75.91 144.41 69.27 138.37 75.34 137.32 81.41 136.28 81.98 143.36 82.55 150.45"/><polygon class="cls-4" points="94.8 149.01 88.16 142.97 81.52 136.93 87.59 135.89 93.66 134.85 94.23 141.93 94.8 149.01"/><polygon class="cls-5" points="107.66 144.53 100.29 139.84 92.91 135.14 98.59 132.85 104.28 130.55 105.97 137.54 107.66 144.53"/><polygon class="cls-6" points="81.15 150.97 87.69 152.18 94.22 153.38 90.74 157.01 87.27 160.64 84.21 155.81 81.15 150.97"/><path class="cls-7" d="M128.92,207.32c-2.9-12.31-5.1-16.67-5.83-18.07A37.76,37.76,0,0,0,114.86,178c-10.47-9.28-21.59-4.62-26.45-13.08a10.09,10.09,0,0,1-1.49-5.33c.13-3.16,2.26-4.86,5.78-8.12,5.34-5,8-7.42,9.92-10.37a27.41,27.41,0,0,0,4-11.36c-9.16,5.53-16.2,7.09-21.06,7.45a78,78,0,0,0-11.28,1.06,85.44,85.44,0,0,1-9.39,1.64,58.59,58.59,0,0,1-7.18.14c-10.26-.51-23.29-12.4-43.09-26.68-8.36-6-11.94-8.17-12.49-12.23S5.34,92.76,13,84.48A105.71,105.71,0,0,1,24.34,73.55a85.46,85.46,0,0,1,15.92-10.7C48.92,58.5,56,57.32,68,55.45c10.31-1.61,16-2.51,24.24-2.11,8.43.41,16.38,2.69,32.28,7.25,18.14,5.2,24.28,8.42,29.93,12.73a69,69,0,0,1,9.51,8.8,54.73,54.73,0,0,1,14.84-.47c1.66.18,7.22,1.49,18.28,4.11,5.11,1.22,7.59,1.82,11.14,2.93,2,.64,5.51,1.73,9.69,3.48a104.22,104.22,0,0,1,13.16,6.73,157.43,157.43,0,0,1,24.29,16.87c6,5.09,12.91,11.11,19.84,21.21,1.17,1.7,2.1,3.16,2.73,4.19-9.2-1.16-16.66-2.14-21.67-2.8,0,0-6.66-.89-21-2.43-15.85-1.7-18.89-1.74-19.86.43-1.21,2.69,2.25,5.39,7.07,16.94,1.39,3.35,3.16,9,6.71,20.36,2,6.3,3.29,10.52,4.3,14.07a169.48,169.48,0,0,1,7,47.12c0,7.14-.06,13.88-2,22.38-2,8.84-5,15.22-10.43,25-12.21,22-23.81,25.1-22,35.34.68,3.9,2.18,2.81,8.57,15.05,4.19,8,6.86,13.17,8.38,20.37,1.68,7.92,1.08,14.15.5,20.12a83.21,83.21,0,0,1-4,18.57A75.1,75.1,0,0,1,206,415.86a87.25,87.25,0,0,1-16.19,18.67c-7.65,6.59-25.79,12.54-25.79,12.54s1.29-7.26,5.94-26.53c.37-1.5,0,.13,4.49-26,2-11.61,1.08-17.11.08-20.1-.33-1-.76-1.92-.76-1.92a25.53,25.53,0,0,0-3.16-5.33,128.58,128.58,0,0,1-16,12s-20.34,13-41.85,16.69a90.83,90.83,0,0,1-9.71,1.17c-6.83,1.07-10.53.12-10.53.12s3.38-17.37,6.55-23.49a91.63,91.63,0,0,1,13.6-19.64c2.38-2.63,6.12-5.89,13.58-12.43,6.88-6,14.43-12.36,16.76-14.31,11.14-9.32,11.26-9.13,12.08-10.54,6.83-11.71,1.15-29.45-.48-34.55-4-12.59-6.9-9.86-13.22-25.71-6.06-15.19-9.17-32.09-9.78-35.56C131.24,218.54,130.46,213.85,128.92,207.32Z"/><path class="cls-1" d="M188.45,180.64c4.59,6.93,4.82,9,8.65,15.45,8.76,14.63,16.85,21.69,16.85,21.69a109.28,109.28,0,0,1-35.49-24.19c-13.79-14.2-26.94-34.39-24-38.36,2.29-3.08,14.17,3.64,21.52,10.18C181.75,170.53,185.54,176.26,188.45,180.64Z"/><path class="cls-8" d="M102.28,78.78s-3,4.93-8,5.75-9.9-2.75-9.9-2.75,3.05-4.92,8-5.75S102.28,78.78,102.28,78.78Z"/><ellipse cx="90.46" cy="80.76" rx="2.91" ry="2.17" transform="translate(-7.34 9.07) rotate(-5.51)"/><ellipse class="cls-9" cx="89.39" cy="80.94" rx="0.36" ry="0.73" transform="translate(-16.65 23.51) rotate(-13.72)"/><path class="cls-10" d="M185.74,70.28l-.06.26h0c-.05.18-.09.36-.15.55C184,76.78,181,84.6,174.73,86.26c-3.93,1-7.6-.76-9.06-1.47C140.46,72.68,78.56,56.52,67,51.38a39.5,39.5,0,0,0-5-1.92c-.89-.29-1.64-.49-1.8-.53-.66-.17-1.41-.35-2.42-.55-3.68-.74-5.77-.6-8.49-2.26a16.05,16.05,0,0,1-5-5q-.49-7.77-1-15.53l-.09-1.43c.54-.65,2.1-.94,4.56-.89l137.87,47Z"/><path class="cls-11" d="M185.67,70.75a.85.85,0,0,1-.14.34c-2.4,3.63-34.19-3.15-72.48-15.55-36.75-11.9-66.5-24.77-69.77-30l-.09-1.43c.54-.65,2.1-.94,4.56-.89,10.47.21,37.07,6.55,67.87,16.52,38,12.3,68.51,25.64,70,30.49a1.5,1.5,0,0,1,.06.29h0A1.48,1.48,0,0,1,185.67,70.75Z"/><path class="cls-10" d="M98.38,46.18c4.31-26.53,14.8-45.77,23.42-43s12.13,26.56,7.81,53.1Z"/><ellipse class="cls-12" cx="104.07" cy="37" rx="2.93" ry="3.45" transform="translate(-6.34 39.81) rotate(-21.03)"/><ellipse class="cls-13" cx="115.89" cy="40.82" rx="2.93" ry="3.45" transform="translate(-6.93 44.31) rotate(-21.03)"/><ellipse class="cls-9" cx="127.28" cy="44.51" rx="2.93" ry="3.45" transform="translate(-7.5 48.65) rotate(-21.03)"/><path class="cls-14" d="M148.53,115.28c.21,7.6-5.11,13.28-11.86,12.67"/><path class="cls-14" d="M155.44,121.85c.2,7.6-5.12,13.27-11.87,12.67"/></svg>
