<svg id="Layer_1" data-name="Layer 1" xmlns="http://www.w3.org/2000/svg" width="90" height="240" viewBox="0 0 90 240"><defs><style>.cls-1{fill:#840c0c;}.cls-2{fill:#e8c600;}.cls-3{fill:#e21717;}.cls-4{fill:#4d770c;}</style></defs><title>hotsauce</title><ellipse class="cls-1" cx="41.86" cy="223.06" rx="16.51" ry="42.13" transform="translate(-183.08 253.2) rotate(-87.01)"/><path class="cls-1" d="M83.92,225.26l6.21-118.52c1.57-30.18-16.07-55.87-39.2-57.08h0C27.79,48.45,7.56,72.15,6,102.33L-.21,220.86Z"/><path class="cls-1" d="M64.6,14.1a6.67,6.67,0,0,1-3.41.73l3.36.18L62.26,58.76,35.34,57.35,37.63,13.6l3.36.18a6.85,6.85,0,0,1-3.32-1.09l.13-2.46,26.93,1.41Z"/><path class="cls-2" d="M68.27,8.45A6.59,6.59,0,0,1,66,13.09a6,6,0,0,1-1.43,1,6.67,6.67,0,0,1-3.41.73L41,13.78a6.85,6.85,0,0,1-3.32-1.09,6.74,6.74,0,0,1-3.06-6,6.61,6.61,0,0,1,2.24-4.64A6.62,6.62,0,0,1,41.7.31L61.89,1.37A6.76,6.76,0,0,1,68.27,8.45Z"/><polygon class="cls-2" points="84.18 155.83 6.59 151.77 48.1 101.89 84.18 155.83"/><polygon class="cls-2" points="84.15 155.88 42.64 205.75 6.55 151.82 84.15 155.88"/><path class="cls-3" d="M65.93,154.81c-2.82,7-9.58,10.45-13.31,12.33-3,1.5-15.55,7.85-25.47,3-4.74-2.31-8.17-6.82-7.52-7.62.46-.57,2.82.91,6.24,1.77,8.31,2.08,16-1.29,17.51-2,4.59-2,13.61-7.49,13.38-13.77-.06-1.55-.66-2.84.23-4.33a5,5,0,0,1,1.7-1.67,0,0,0,0,1,0,0,7.91,7.91,0,0,1,1.54-.77h0a13.26,13.26,0,0,1,3.22-.08,16,16,0,0,1,1.85.29h0a4.36,4.36,0,0,1,1.6,2.37C67.91,147.25,67.18,151.68,65.93,154.81Z"/><path class="cls-4" d="M67,144.33a10.72,10.72,0,0,1-3.74.21c-2.62-.24-4.66-1.08-4.59-1.87a.28.28,0,0,1,0-.13,0,0,0,0,1,0,0c.14-.35.71-.61,1.54-.77h0a13.26,13.26,0,0,1,3.22-.08,16,16,0,0,1,1.85.29h0A4.36,4.36,0,0,1,67,144.33Z"/><path class="cls-4" d="M62.55,142.44v-1.95a6.5,6.5,0,0,1,0-1,3.79,3.79,0,0,1,3.84-2.91c.78,0,1.67.4,1.81,1.11l-1.62-.16a3.14,3.14,0,0,0-1.4.06,2.18,2.18,0,0,0-1.15,1.16,4.57,4.57,0,0,0-.31,3.17Z"/><rect class="cls-4" x="36.82" y="17.65" width="26.96" height="23.59" transform="translate(1.61 -2.59) rotate(2.99)"/><path class="cls-1" d="M67.83,16.87a1.69,1.69,0,0,1-1.77,1.59L35.77,16.88a1.71,1.71,0,0,1-1.6-1.77,1.67,1.67,0,0,1,1.77-1.6L66.23,15.1A1.66,1.66,0,0,1,67.83,16.87Z"/></svg>
