<svg id="Layer_1" data-name="Layer 1" xmlns="http://www.w3.org/2000/svg" width="70" height="70" viewBox="0 0 70 70"><defs><style>.cls-1{fill:#666;}.cls-2{fill:gold;}</style></defs><title>indtillinger</title><path class="cls-1" d="M48.89,61.87l-3.77-2a6.64,6.64,0,0,0-8.69,2.3l-2.29,3.61a6.62,6.62,0,0,1-12.09-2.33l-.79-4.2A6.63,6.63,0,0,0,14,53.89l-4.24.46A6.62,6.62,0,0,1,4.08,43.44l2.78-3.23a6.61,6.61,0,0,0-.3-9l-3-3a6.62,6.62,0,0,1,5-11.27l4.26.16a6.61,6.61,0,0,0,6.83-5.84L20.11,7A6.63,6.63,0,0,1,32,3.85l2.53,3.44A6.62,6.62,0,0,0,43.37,9L47,6.74a6.62,6.62,0,0,1,9.89,7.34L55.78,18.2a6.62,6.62,0,0,0,4.17,8l4,1.43A6.62,6.62,0,0,1,64.4,39.9l-3.92,1.71a6.62,6.62,0,0,0-3.62,8.22l1.39,4A6.62,6.62,0,0,1,48.89,61.87Z"/><circle class="cls-2" cx="35.33" cy="35.29" r="11"/></svg>
