<svg xmlns="http://www.w3.org/2000/svg" xmlns:xlink="http://www.w3.org/1999/xlink" width="1920" height="1080" viewBox="0 0 1920 1080"><defs><style>.cls-1{isolation:isolate;}.cls-2{fill:url(#radial-gradient);}.cls-3,.cls-7,.cls-8{fill:#fff;}.cls-3{opacity:0.94;}.cls-4{fill:#3f9aff;}.cls-5{fill:#629aff;}.cls-6,.cls-8{opacity:0.1;}.cls-9{opacity:0.15;}.cls-10,.cls-17{fill:none;}.cls-11{fill:#009245;}.cls-12{fill:#f7931e;}.cls-13{fill:#fbb03b;}.cls-14{fill:red;}.cls-15{fill:#006837;}.cls-16{fill:#eaeaea;}.cls-17{stroke:#b3e021;stroke-miterlimit:10;}.cls-18{fill:#ed1c24;}.cls-19{fill:url(#radial-gradient-2);}.cls-20{fill:url(#radial-gradient-3);}.cls-21{fill:url(#radial-gradient-4);}.cls-22{opacity:0.78;mix-blend-mode:multiply;}.cls-23{fill:url(#radial-gradient-5);}.cls-24{fill:url(#radial-gradient-6);}.cls-25{fill:#c1272d;}.cls-26{fill:#840c0c;}.cls-27{fill:#e8c600;}.cls-28{fill:#e21717;}.cls-29{fill:#4d770c;}</style><radialGradient id="radial-gradient" cx="890.84" cy="13.42" r="1328.28" gradientTransform="translate(-0.7)" gradientUnits="userSpaceOnUse"><stop offset="0" stop-color="#60bfe8"/><stop offset="0.1" stop-color="#70c5eb"/><stop offset="0.37" stop-color="#97d3f4"/><stop offset="0.62" stop-color="#b4ddfa"/><stop offset="0.84" stop-color="#c5e4fe"/><stop offset="1" stop-color="#cbe6ff"/></radialGradient><radialGradient id="radial-gradient-2" cx="608.62" cy="1069.88" r="20.87" gradientTransform="matrix(0, 1.2, -1.14, 0, 2294.64, 89.26)" gradientUnits="userSpaceOnUse"><stop offset="0" stop-color="#fff"/><stop offset="0.06" stop-color="#e3f4fb"/><stop offset="0.19" stop-color="#b2e1f5"/><stop offset="0.32" stop-color="#88d0ef"/><stop offset="0.45" stop-color="#66c3ea"/><stop offset="0.58" stop-color="#4bb8e7"/><stop offset="0.72" stop-color="#38b1e4"/><stop offset="0.85" stop-color="#2dace3"/><stop offset="1" stop-color="#29abe2"/></radialGradient><radialGradient id="radial-gradient-3" cx="600.28" cy="999.98" r="20.87" gradientTransform="matrix(0, 1.2, -1.14, 0, 2228.3, 20.29)" xlink:href="#radial-gradient-2"/><radialGradient id="radial-gradient-4" cx="587.76" cy="1113.7" r="12.52" gradientTransform="matrix(0, 1.2, -1.14, 0, 2306.15, 154.9)" xlink:href="#radial-gradient-2"/><radialGradient id="radial-gradient-5" cx="450.49" cy="905.35" r="206.06" gradientTransform="matrix(0, 1.16, -1.08, 0, 1971.42, -98.63)" gradientUnits="userSpaceOnUse"><stop offset="0" stop-color="#cbe6ff"/><stop offset="0.01" stop-color="#b6dffa"/><stop offset="0.04" stop-color="#9bd5f5"/><stop offset="0.07" stop-color="#85cdf0"/><stop offset="0.1" stop-color="#74c7ec"/><stop offset="0.14" stop-color="#69c3ea"/><stop offset="0.19" stop-color="#62c1e8"/><stop offset="0.34" stop-color="#60c0e8"/></radialGradient><radialGradient id="radial-gradient-6" cx="579.41" cy="948.86" r="20.87" gradientTransform="matrix(0, 1.2, -1.14, 0, 2162.77, -17.48)" xlink:href="#radial-gradient-2"/></defs><title>levelcomplete</title><g class="cls-1"><g id="Layer_1" data-name="Layer 1"><rect class="cls-2" x="0.3" y="5.5" width="1913.7" height="1080"/><path class="cls-3" d="M1802.66,102.57l-2.65-8c-10.35-31.14-31.22-50.52-54.69-58.2a76,76,0,0,0-47.32,0c-23.71,7.75-44.75,27.42-55,59l-8.94,27.6c-26.13,80.62-124.19,84.48-155,6.07l-26.32-66.85a101,101,0,0,0-14.64-25.78c-32.74-41.41-91.17-41-123.64,0a100.47,100.47,0,0,0-16.08,29.75l-25.76,74.21c-13,37.25-41.41,57.56-71,60.3v2.63c-26.07-5.94-49.88-25.84-61.3-59l-15.79-45.94c-14-40.81-46-60.92-77.9-60.93-33.56,0-67.1,22.23-79.74,66.05-23.8,82.47-123,89.53-155.4,11L792.58,69A96.71,96.71,0,0,0,771,36.39c-31-30.22-77.8-29.59-108.4,0-10.78,10.42-19.56,24.43-24.93,42l-16.17,52.78c-24.23,79.11-118.75,87.38-153.12,13.41L428.67,59.12a100,100,0,0,0-14.41-22.73c-32.82-38.56-87.57-36.8-119.3,0-9.25,10.73-16.54,24.42-20.76,41l-5.92,23.15c-21.55,84.25-122,94.19-155.74,15.39L85.36,52.51a104.62,104.62,0,0,0-8.61-16.12H4.29V337.66l95.78,0h13.85l147.8,0h10l164.35,0h20.49l168.59,0H635l165,0h23.89l137,0h12l147,0h11.74l69.89,0v4.29l76.82,0h11.15l174.74.05h12.65l156.89,0h10.48l154.66,0h13.33l98.54,0v-184C1870.77,175.42,1820.71,156.89,1802.66,102.57Z"/><path class="cls-4" d="M1806.38,164.72l-2.65-8c-27.61-83-130-82.51-157,.75l-8.94,27.6c-26.12,80.64-124.18,84.49-155,6.08l-26.32-66.86c-30.47-77.43-126.93-74.94-154.36,4l-25.76,74.22c-13,37.25-41.4,57.56-71,60.29v2.64c-26.06-5.94-49.87-25.83-61.28-59l-15.8-45.93c-14-40.82-46-60.93-77.89-60.94-33.57,0-67.11,22.24-79.76,66.07-23.78,82.47-123,89.51-155.4,11L796.3,131.12c-32.12-77.68-130-71.76-154.89,9.38l-16.17,52.79c-24.24,79.09-118.75,87.37-153.13,13.4l-39.72-85.4C397,45.17,299.08,56.72,277.92,139.51L272,162.65c-21.54,84.25-122,94.2-155.74,15.4L89.08,114.66C71.89,74.6,37.09,57.27,4.29,61.49V399.81l131.15,0,104.57,0,162.92,0,67.72,0h27.41l88.45,0h27.62l221.09.06H857l82,0,203.08,0h63.16v4.29h61.69l225.8,0,125.37,0h0l223.81.05h0c-17-10-31.28-27.09-39.29-51.21l-2.66-8c-.34-1-.67-2-1-3h13.33l98.54,0V222.09C1871.45,236.41,1823.88,217.37,1806.38,164.72Z"/><path class="cls-5" d="M1910.79,404.57V275.66c-39.35,14.34-86.91-4.7-104.42-57.35l-2.65-8c-27.61-83-130-82.51-157,.75l-8.94,27.6c-26.12,80.62-124.18,84.48-155,6.08l-26.32-66.86c-30.47-77.43-126.93-74.95-154.36,4L1276.3,256.1c-13,37.24-41.4,57.55-71,60.29V319c-26.06-5.94-49.87-25.84-61.28-59l-15.8-45.94c-14-40.81-46-60.92-77.89-60.93-33.57,0-67.11,22.23-79.76,66.05-23.78,82.47-123,89.53-155.4,11l-18.84-45.55c-32.12-77.68-130-71.77-154.89,9.37l-16.17,52.79c-.32,1-.65,2.06-1,3.07-21.71,64.39-91.08,79.46-132.56,38.59a96.53,96.53,0,0,1-19.57-28.26l-39.72-85.4C397,98.75,299.07,110.3,277.91,193.09L272,216.24c-21.54,84.25-122,94.19-155.74,15.4L89.07,168.25c-17.18-40.06-52-57.39-84.78-53.17V453.4l390.92.1,469.48.1,335.28.09h5.27V458l705.55.17V409.22a79.47,79.47,0,0,0,9.21-4.65Z"/><path class="cls-4" d="M-318,544.28c-1.53-.82-3-.92-4.57-1.66a6.9,6.9,0,0,1-1.95-1.46l-1.59-3a1.93,1.93,0,0,0-.06-1,1.87,1.87,0,0,0,2.29,1.24,1.8,1.8,0,0,0,1.08-2.34,1.86,1.86,0,0,0,2.29,1.25,1.8,1.8,0,0,0,1.08-2.33,1.86,1.86,0,0,0,2.29,1.25,1.81,1.81,0,0,0,1.09-2.34,1,1,0,0,0-.13-.28h0a1.85,1.85,0,0,0-2.17-1,1.8,1.8,0,0,0-1.16,2l-.05,0a1.82,1.82,0,0,0-2.16-.95,1.77,1.77,0,0,0-1.16,2h0a1.85,1.85,0,0,0-2.17-1,1.81,1.81,0,0,0-1.16,2l-.05,0a1.79,1.79,0,0,0-2.42-.85,1.79,1.79,0,0,0-.9,1.92l-.05,0a1.79,1.79,0,0,0-2.41-.85A1.77,1.77,0,0,0-333,539l0,0a1.81,1.81,0,0,0-2.43-.85,1.79,1.79,0,0,0-.9,1.92h0a1.81,1.81,0,0,0-2.42-.84,1.79,1.79,0,0,0-.9,1.91l0,0a1.81,1.81,0,0,0-2.42-.85,1.8,1.8,0,0,0-.89,1.92h-.05a1.83,1.83,0,0,0-2.43-.84,1.79,1.79,0,0,0-.9,1.92l-.05,0a1.8,1.8,0,0,0-2.42-.85,1.8,1.8,0,0,0-.9,1.92h-.05a1.86,1.86,0,0,0-1.89-1,1.75,1.75,0,0,0-1.43,2.09l-.06,0a1.84,1.84,0,0,0-1.88-1,1.77,1.77,0,0,0-1.43,2.09h-.06a1.85,1.85,0,0,0-1.89-1,1.75,1.75,0,0,0-1.42,2.08l-.06,0a1.85,1.85,0,0,0-1.88-1,1.75,1.75,0,0,0-1.43,2.09h-.06a1.85,1.85,0,0,0-1.88-1,1.76,1.76,0,0,0-1.43,2.09l-.06,0a1.86,1.86,0,0,0-1.89-1,1.76,1.76,0,0,0-1.42,2.09l-.05,0a1.86,1.86,0,0,0-1.89-1,1.75,1.75,0,0,0-1.43,2.09h-.06a1.84,1.84,0,0,0-2.15-.95,1.77,1.77,0,0,0-1.17,2l0,0a1.85,1.85,0,0,0-2.17-1,1.78,1.78,0,0,0-1.16,2l-.05,0a1.83,1.83,0,0,0-2.16-1,1.78,1.78,0,0,0-1.16,2c0,.1.05.2.08.31a2,2,0,0,0,.33.59h72.49C-311.92,551.26-314.58,546.14-318,544.28ZM1910.79,404.57V377.06c-34.28,14.56-75.93,3.06-98.54-34.68a106.17,106.17,0,0,1-9.63-21.19l-2.65-8c-27.6-83-130-82.51-157,.75L1634,341.57c-.08.26-.17.52-.26.77-26.5,79.88-124,83.46-154.79,5.3l-2.1-5.33-24.22-61.53c-30.48-77.42-126.93-74.94-154.36,4l-20,57.5-5.8,16.71c-7,20.12-18.52,35.3-32.3,45.43a77.38,77.38,0,0,1-38.74,14.87v2.64a79.27,79.27,0,0,1-38.74-21.82c-9.47-9.56-17.31-22-22.55-37.19l-8.58-25-7.21-21c-14-40.82-46-60.92-77.9-60.93-33.56,0-67.1,22.23-79.74,66.06a109.79,109.79,0,0,1-5.87,15.79c-22.29,48.16-73.85,62.41-112.42,39.75h0c-14.11-8.29-26.46-21.49-35-39.79-.72-1.53-1.41-3.11-2.07-4.71l-6.79-16.4h0l-12.06-29.15c-24.53-59.34-87.49-69.9-126.92-35.4-12.17,10.66-22.12,25.62-28,44.77L625.13,337.8l-3.66,11.94c-6.92,22.62-19.6,39.45-35,50.21-26.67,18.69-61.46,19.15-88.45,0-11.87-8.42-22.22-20.64-29.71-36.78l-11.81-25.38-7.08-15.24-20.83-44.78C393.26,201.63,295.31,213.18,274.16,296l-5.92,23.14a110,110,0,0,1-6.52,18.6c-30.05,65.68-115.54,69.26-147.8,0-.48-1-1-2.11-1.42-3.18L85.32,271.13c-16.52-38.55-49.36-56-81-53.56V556.28l191.31.05h.33l233.62.06h0l400.71.09h0l371.21.09v4.29l709.3.17V409.22a79.47,79.47,0,0,0,9.21-4.65Z"/><path class="cls-5" d="M-330.44,561.64l-2.86-5.44h6.82a29.35,29.35,0,0,1,2,5.45c.06.22.12.46.17.68,1.14,4.83,1.28,9.59,1.83,14.39ZM7.28,556.28V249.72c31.66-2.48,64.49,15,81,53.55l14.77,34.41,12.41,29a95.78,95.78,0,0,0,23,33.17h0c30.45,27.94,74.68,27,104.56,0h0c12.77-11.53,22.89-27.8,28.22-48.61l3.46-13.53,2.45-9.62c21.16-82.78,119.11-94.33,154.48-18.21l10.95,23.55,2,4.32,26.76,57.53q1.11,2.38,2.31,4.63c9.48,18.16,22.79,30.85,37.68,38.31,36.9,18.52,83.51,4.75,105.79-38.27h0a107.33,107.33,0,0,0,7.34-18.06L638,337.81l2.66-8.69c13.24-43.25,47.25-65.13,81-64.37,21.87.5,43.61,10.5,59.52,30.36h0a100.12,100.12,0,0,1,14.38,24.62L803,337.85l11.34,27.45c6,14.46,14.21,26,23.86,34.72h0A78.43,78.43,0,0,0,864,415.71c26.18,9.58,55.88,4.1,78-15.66h0c12.23-10.89,22.12-26.23,27.76-45.79a110.43,110.43,0,0,1,6.11-16.36c15.47-33,44.54-49.71,73.65-49.7,28.83,0,57.71,16.43,73.36,49.74a109.94,109.94,0,0,1,4.54,11.2l15.78,45.93c.6,1.71,1.2,3.38,1.87,5h0c11.75,29.51,33.74,47.56,57.86,53.59h0c.51.15,1,.25,1.51.38v-2.65c25.92-2.41,50.88-18.2,65.44-47h0a108.47,108.47,0,0,0,5.61-13.28l17-48.85h0l8.82-25.36c27.43-78.92,123.87-81.39,154.35-4l11.57,29.37L1482,379.78a102,102,0,0,0,13.77,24.68c32.92,43,92.9,42.29,125.37,0h0A101.33,101.33,0,0,0,1637,373.73l8.94-27.61c.41-1.27.85-2.54,1.28-3.77h0c28.49-78.52,126.08-78.73,154.67,0h0c.37,1,.7,2,1,3l2.66,8c8,24.12,22.34,41.18,39.3,51.21h0a76.13,76.13,0,0,0,68.85,4.67v184L1204.47,593v-4.29l-399.64-.1L461,588.54,7.28,588.43V556.29l-314.93-.08c.06.23.12.46.17.68a44.45,44.45,0,0,1,.85,4.76c.43,3.21.61,6.41,1,9.62l6.24,11.87a9.12,9.12,0,0,1,.85.48,12.05,12.05,0,0,1,3.81,4.73h-68.38a99,99,0,0,1-6.47-11.23c-2.17-4.84-3.34-10.86-1.65-14.5a7.68,7.68,0,0,1,.57-1,30.69,30.69,0,0,0,2.07-3,6.69,6.69,0,0,0,.68-2.29l0-.13h-9.37a1.57,1.57,0,0,1-.85.64,1.8,1.8,0,0,1-2-.64s0,0,0,0a2,2,0,0,1-.33-.59c0-.11-.06-.21-.08-.31a1.78,1.78,0,0,1,1.16-2,1.84,1.84,0,0,1,2.17,1l.05,0a1.78,1.78,0,0,1,1.16-2,1.84,1.84,0,0,1,2.16,1l0,0a1.77,1.77,0,0,1,1.17-2,1.85,1.85,0,0,1,2.16.95h.06a1.75,1.75,0,0,1,1.42-2.09,1.86,1.86,0,0,1,1.89,1l.05,0a1.77,1.77,0,0,1,1.43-2.09,1.85,1.85,0,0,1,1.88,1l.06,0a1.76,1.76,0,0,1,1.43-2.09,1.86,1.86,0,0,1,1.89,1h.06a1.75,1.75,0,0,1,1.42-2.09,1.85,1.85,0,0,1,1.88,1l.06,0a1.75,1.75,0,0,1,1.43-2.08,1.85,1.85,0,0,1,1.89,1h.05a1.77,1.77,0,0,1,1.43-2.09,1.86,1.86,0,0,1,1.89,1l.06,0a1.75,1.75,0,0,1,1.43-2.09,1.86,1.86,0,0,1,1.88,1h.05a1.8,1.8,0,0,1,.9-1.92,1.81,1.81,0,0,1,2.43.85l.05,0a1.79,1.79,0,0,1,.89-1.92,1.83,1.83,0,0,1,2.43.84h.05a1.79,1.79,0,0,1,.9-1.92,1.79,1.79,0,0,1,2.41.85l0,0a1.79,1.79,0,0,1,.9-1.91,1.82,1.82,0,0,1,2.43.84h0a1.79,1.79,0,0,1,.9-1.92A1.8,1.8,0,0,1-330,539l0,0a1.77,1.77,0,0,1,.9-1.91,1.8,1.8,0,0,1,2.42.85l.05,0a1.8,1.8,0,0,1,.89-1.92,1.81,1.81,0,0,1,2.43.85l.05,0a1.8,1.8,0,0,1,1.16-2,1.84,1.84,0,0,1,2.16,1h0a1.77,1.77,0,0,1,1.16-2,1.83,1.83,0,0,1,2.17.95l.05,0a1.8,1.8,0,0,1,1.15-2,1.85,1.85,0,0,1,2.17,1h0a1,1,0,0,1,.13.28,1.81,1.81,0,0,1-1.09,2.34,1.85,1.85,0,0,1-2.28-1.25,1.8,1.8,0,0,1-1.08,2.33,1.87,1.87,0,0,1-2.3-1.25,1.8,1.8,0,0,1-1.08,2.34,1.86,1.86,0,0,1-2.28-1.24,1.93,1.93,0,0,1,.06,1l1.59,3a6.73,6.73,0,0,0,1.94,1.46c1.53.74,3.05.84,4.57,1.66,3.42,1.86,6.07,7,7.35,11.92Z"/><path class="cls-5" d="M1910.79,561.57v523H4.29V561.12l191.31,0h.33l233.62.06h0l400.71.09h0l371.21.1Z"/><g class="cls-6"><ellipse class="cls-7" cx="700.83" cy="773.25" rx="81.09" ry="31.53"/><polygon class="cls-7" points="774.7 771.2 821.65 735.72 824.07 801.72 774.7 771.2"/></g><g class="cls-6"><ellipse class="cls-7" cx="390.44" cy="714.59" rx="78.44" ry="30.5"/><polygon class="cls-7" points="461.9 712.61 507.31 678.28 509.65 742.13 461.9 712.61"/></g><g class="cls-6"><ellipse class="cls-7" cx="413.21" cy="956.69" rx="76.85" ry="29.88"/><polygon class="cls-7" points="483.21 954.75 527.71 921.12 530 983.67 483.21 954.75"/></g><path class="cls-8" d="M1910.79,796.45V891.3Q1769.42,887.55,1628,885q-516.42-9.5-1033.08-3.73-96.11,1.1-192.21,2.69l-34.29.59q-51.45.91-102.89,2-51.07,1-102.13,2.25-14.12.33-28.2.68-65.48,1.59-131,3.43V846.09q48.55.35,98.68.4h39.81l9.77,0q69.4-.18,133.86-1,37.74-.43,74-1.07h0q16.6-.29,32.91-.6c73-1.44,141.82-3.37,207.71-5.63l13.37-.46c60.42-2.15,118.42-4.55,175.08-7.06h0l9.37-.42c2.07-.11,4.16-.2,6.24-.27l10.43-.49,34.4-1.6c124.21-5.79,243.54-12,369.45-17.11C1410,803.06,1641.87,796.81,1910.79,796.45Z"/><path class="cls-8" d="M1907.79,517.7V621.2q-562.69-23-1124.55-19.47-145.85.9-291.65,3.59-7.86.13-15.71.3h0q-15.33.27-30.64.6h0c-1.39,0-2.77,0-4.16.08l-4.05.09h0l-15.69.32q-82.41,1.74-164.79,4.07-127.62,3.59-255.22,8.57V559.59c67-.86,130.57-2,191.31-3.26h.33c81.15-1.74,157.21-3.81,229.43-6.08q35.55-1.12,69.88-2.31c124.82-4.28,238.68-9.1,348.77-13.7h0c269.45-11.3,516.22-21.38,845.39-19.55C1750.55,515.06,1824.65,515.91,1907.79,517.7Z"/><g class="cls-9"><path class="cls-7" d="M1294.53,939.64c-6.74-23.45-27.3-36.74-45.92-29.68s-28.23,31.81-21.49,55.26Z"/><ellipse class="cls-7" cx="1228.91" cy="964.93" rx="1.78" ry="2.21" transform="translate(-105.44 152.02) rotate(-6.79)"/><ellipse class="cls-7" cx="1232.28" cy="963.65" rx="1.78" ry="2.21" transform="translate(-105.26 152.41) rotate(-6.79)"/><ellipse class="cls-7" cx="1235.65" cy="962.37" rx="1.78" ry="2.21" transform="translate(-105.09 152.79) rotate(-6.79)"/><ellipse class="cls-7" cx="1239.02" cy="961.09" rx="1.78" ry="2.21" transform="translate(-104.91 153.18) rotate(-6.79)"/><ellipse class="cls-7" cx="1242.39" cy="959.81" rx="1.78" ry="2.21" transform="translate(-104.74 153.57) rotate(-6.79)"/><ellipse class="cls-7" cx="1245.76" cy="958.53" rx="1.78" ry="2.21" transform="translate(-104.56 153.96) rotate(-6.79)"/><ellipse class="cls-7" cx="1249.13" cy="957.26" rx="1.78" ry="2.21" transform="translate(-104.39 154.35) rotate(-6.79)"/><ellipse class="cls-7" cx="1252.5" cy="955.98" rx="1.78" ry="2.21" transform="translate(-104.21 154.74) rotate(-6.79)"/><ellipse class="cls-7" cx="1255.87" cy="954.7" rx="1.78" ry="2.21" transform="translate(-104.04 155.13) rotate(-6.79)"/><ellipse class="cls-7" cx="1259.24" cy="953.42" rx="1.78" ry="2.21" transform="translate(-103.86 155.52) rotate(-6.79)"/><ellipse class="cls-7" cx="1292.95" cy="940.63" rx="1.78" ry="2.21" transform="matrix(0.99, -0.12, 0.12, 0.99, -102.12, 159.41)"/><ellipse class="cls-7" cx="1289.58" cy="941.91" rx="1.78" ry="2.21" transform="translate(-102.29 159.03) rotate(-6.79)"/><ellipse class="cls-7" cx="1286.21" cy="943.19" rx="1.78" ry="2.21" transform="translate(-102.46 158.64) rotate(-6.79)"/><ellipse class="cls-7" cx="1282.84" cy="944.47" rx="1.78" ry="2.21" transform="translate(-102.64 158.25) rotate(-6.79)"/><ellipse class="cls-7" cx="1279.47" cy="945.74" rx="1.78" ry="2.21" transform="translate(-102.81 157.86) rotate(-6.79)"/><ellipse class="cls-7" cx="1276.1" cy="947.02" rx="1.78" ry="2.21" transform="translate(-102.99 157.47) rotate(-6.79)"/><ellipse class="cls-7" cx="1272.73" cy="948.3" rx="1.78" ry="2.21" transform="translate(-103.16 157.08) rotate(-6.79)"/><ellipse class="cls-7" cx="1269.35" cy="949.58" rx="1.78" ry="2.21" transform="translate(-103.34 156.69) rotate(-6.79)"/><ellipse class="cls-7" cx="1265.98" cy="950.86" rx="1.78" ry="2.21" transform="translate(-103.51 156.3) rotate(-6.79)"/><ellipse class="cls-7" cx="1262.61" cy="952.14" rx="1.78" ry="2.21" transform="translate(-103.69 155.91) rotate(-6.79)"/><path class="cls-7" d="M1239.16,962.26a9.11,9.11,0,0,1-.08,6.87c-.77,1.73-1.93,2.87-2.64,4.69-1.69,4.28-.52,11.37,1.65,17.07s5.2,10.54,7.8,15.82c1.75,3.53,3.42,8,2.8,11.47a32.09,32.09,0,0,1-1.45,4.08c-1.51,5,.91,12.45,3.21,18.57Z"/><path class="cls-7" d="M1250.7,956.35c-3.23,3.7-4.78,9.5-4,15a9.13,9.13,0,0,0,.7,2.62,7,7,0,0,0,2.4,2.59c3,2.09,6.53,2.75,9.66,4.55s6.12,5.51,5.76,9.64c-.35,3.92-3.57,6.72-3.58,10.68a8.88,8.88,0,0,0,2.62,6,18.78,18.78,0,0,0,5,3.42Z"/><path class="cls-7" d="M1250.94,956.8a9.11,9.11,0,0,1-.08,6.87c-.77,1.73-1.93,2.87-2.65,4.69-1.69,4.28-.52,11.37,1.66,17.07s5.19,10.54,7.8,15.82c1.74,3.53,3.42,8,2.8,11.47a32.09,32.09,0,0,1-1.45,4.08c-1.51,5,.9,12.45,3.2,18.57Z"/><path class="cls-7" d="M1257.68,954.25a9.08,9.08,0,0,1-.08,6.86c-.77,1.74-1.93,2.88-2.65,4.69-1.69,4.29-.51,11.37,1.66,17.07s5.2,10.54,7.8,15.82c1.74,3.53,3.42,8,2.8,11.47a31.55,31.55,0,0,1-1.45,4.08c-1.51,5,.91,12.45,3.2,18.57Z"/><path class="cls-7" d="M1284.5,944.85a8,8,0,0,0,3.62,5.46c1.53.86,3.05,1,4.57,2,3.58,2.29,6.31,8.78,7.52,14.84s1.29,12,1.94,18c.43,4,1.42,8.79,3.7,11.13,1.05,1.08,2.19,1.43,3.28,2.28,3.79,3,5.73,10.62,7.06,17.11Z"/><path class="cls-7" d="M1274.19,948a7.94,7.94,0,0,0,3.62,5.46c1.52.87,3,1,4.56,2,3.58,2.28,6.32,8.78,7.53,14.84s1.29,12,1.93,18c.43,4,1.43,8.79,3.7,11.14,1,1.08,2.2,1.43,3.29,2.28,3.79,3,5.73,10.62,7.06,17.11Z"/><path class="cls-7" d="M1267.65,951.24a7.94,7.94,0,0,0,3.62,5.46c1.52.87,3,1,4.56,2,3.58,2.28,6.32,8.78,7.53,14.84s1.29,12,1.93,18c.44,4,1.43,8.79,3.71,11.14,1,1.08,2.19,1.43,3.28,2.28,3.79,3,5.73,10.62,7.06,17.11Z"/><path class="cls-7" d="M1261.13,953.37c3.41,5.67-.32,13.86,2.11,20.21a16.06,16.06,0,0,0,3.25,4.9c4.9,5.45,11.28,10.33,12.53,18.17a49.9,49.9,0,0,1,.25,7.34,45.56,45.56,0,0,0,6.79,23.52Z"/></g><g class="cls-9"><path class="cls-7" d="M1218.42,690c-6.75-23.45-27.31-36.73-45.92-29.67s-28.24,31.8-21.49,55.25Z"/><ellipse class="cls-7" cx="1152.79" cy="715.24" rx="1.78" ry="2.21" transform="translate(-76.46 141.27) rotate(-6.79)"/><ellipse class="cls-7" cx="1156.16" cy="713.97" rx="1.78" ry="2.21" transform="translate(-76.28 141.66) rotate(-6.79)"/><ellipse class="cls-7" cx="1159.54" cy="712.69" rx="1.78" ry="2.21" transform="translate(-76.11 142.05) rotate(-6.79)"/><ellipse class="cls-7" cx="1162.91" cy="711.41" rx="1.78" ry="2.21" transform="translate(-75.93 142.44) rotate(-6.79)"/><ellipse class="cls-7" cx="1166.28" cy="710.13" rx="1.78" ry="2.21" transform="translate(-75.76 142.83) rotate(-6.79)"/><ellipse class="cls-7" cx="1169.65" cy="708.85" rx="1.78" ry="2.21" transform="translate(-75.58 143.22) rotate(-6.79)"/><ellipse class="cls-7" cx="1173.02" cy="707.57" rx="1.78" ry="2.21" transform="translate(-75.41 143.61) rotate(-6.79)"/><ellipse class="cls-7" cx="1176.39" cy="706.29" rx="1.78" ry="2.21" transform="translate(-75.23 144) rotate(-6.79)"/><ellipse class="cls-7" cx="1179.76" cy="705.01" rx="1.78" ry="2.21" transform="matrix(0.99, -0.12, 0.12, 0.99, -75.06, 144.38)"/><ellipse class="cls-7" cx="1183.13" cy="703.73" rx="1.78" ry="2.21" transform="translate(-74.89 144.77) rotate(-6.79)"/><ellipse class="cls-7" cx="1216.83" cy="690.94" rx="1.78" ry="2.21" transform="translate(-73.14 148.67) rotate(-6.79)"/><ellipse class="cls-7" cx="1213.46" cy="692.22" rx="1.78" ry="2.21" transform="translate(-73.31 148.28) rotate(-6.79)"/><ellipse class="cls-7" cx="1210.09" cy="693.5" rx="1.78" ry="2.21" transform="translate(-73.49 147.89) rotate(-6.79)"/><ellipse class="cls-7" cx="1206.72" cy="694.78" rx="1.78" ry="2.21" transform="translate(-73.66 147.5) rotate(-6.79)"/><ellipse class="cls-7" cx="1203.35" cy="696.06" rx="1.78" ry="2.21" transform="translate(-73.84 147.11) rotate(-6.79)"/><ellipse class="cls-7" cx="1199.98" cy="697.34" rx="1.78" ry="2.21" transform="translate(-74.01 146.72) rotate(-6.79)"/><ellipse class="cls-7" cx="1196.61" cy="698.62" rx="1.78" ry="2.21" transform="translate(-74.19 146.33) rotate(-6.79)"/><ellipse class="cls-7" cx="1193.24" cy="699.9" rx="1.78" ry="2.21" transform="translate(-74.36 145.94) rotate(-6.79)"/><ellipse class="cls-7" cx="1189.87" cy="701.18" rx="1.78" ry="2.21" transform="translate(-74.54 145.55) rotate(-6.79)"/><ellipse class="cls-7" cx="1186.5" cy="702.45" rx="1.78" ry="2.21" transform="translate(-74.71 145.16) rotate(-6.79)"/><path class="cls-7" d="M1163.05,712.58a9.13,9.13,0,0,1-.08,6.86c-.77,1.74-1.93,2.88-2.65,4.7-1.69,4.28-.52,11.37,1.65,17.06s5.2,10.54,7.81,15.82c1.74,3.53,3.42,8,2.8,11.48a32.65,32.65,0,0,1-1.45,4.08c-1.51,5,.9,12.45,3.2,18.57Z"/><path class="cls-7" d="M1174.59,706.67c-3.24,3.69-4.78,9.49-4,15a8.85,8.85,0,0,0,.71,2.61,6.93,6.93,0,0,0,2.4,2.6c3,2.09,6.52,2.74,9.66,4.55s6.11,5.51,5.75,9.63c-.34,3.92-3.57,6.73-3.58,10.69a9,9,0,0,0,2.62,6,19.47,19.47,0,0,0,5,3.42Z"/><path class="cls-7" d="M1174.82,707.12a9.08,9.08,0,0,1-.07,6.86c-.77,1.74-1.93,2.88-2.65,4.7-1.69,4.28-.52,11.37,1.65,17.06s5.2,10.54,7.81,15.82c1.74,3.53,3.41,8,2.8,11.48a32,32,0,0,1-1.46,4.07c-1.51,5,.91,12.46,3.21,18.58Z"/><path class="cls-7" d="M1181.57,704.56a9.13,9.13,0,0,1-.08,6.86c-.77,1.74-1.93,2.88-2.65,4.7-1.69,4.28-.52,11.37,1.65,17.07s5.2,10.53,7.81,15.81c1.74,3.53,3.41,8,2.8,11.48a32.65,32.65,0,0,1-1.45,4.08c-1.51,5,.9,12.45,3.2,18.57Z"/><path class="cls-7" d="M1208.39,695.16a7.94,7.94,0,0,0,3.62,5.46c1.52.87,3,1,4.56,2,3.58,2.28,6.32,8.78,7.53,14.84s1.29,12,1.93,18c.43,4,1.43,8.79,3.7,11.14,1,1.08,2.2,1.43,3.29,2.28,3.79,3,5.73,10.62,7,17.11Z"/><path class="cls-7" d="M1198.08,698.3a7.93,7.93,0,0,0,3.62,5.46c1.52.86,3,1,4.56,2,3.58,2.29,6.31,8.78,7.52,14.84s1.29,12,1.94,18.05c.43,4,1.42,8.79,3.7,11.13,1,1.08,2.2,1.43,3.28,2.28,3.79,3,5.73,10.62,7.06,17.11Z"/><path class="cls-7" d="M1191.54,701.56a8,8,0,0,0,3.62,5.46c1.52.86,3,1,4.56,2,3.58,2.29,6.31,8.78,7.53,14.84s1.28,12,1.93,18.05c.43,4,1.42,8.79,3.7,11.13,1,1.08,2.2,1.43,3.28,2.28,3.79,3,5.73,10.62,7.06,17.11Z"/><path class="cls-7" d="M1185,703.68c3.41,5.68-.33,13.86,2.11,20.21a16.11,16.11,0,0,0,3.25,4.91c4.9,5.44,11.27,10.32,12.53,18.16a49.94,49.94,0,0,1,.25,7.34,45.41,45.41,0,0,0,6.79,23.52Z"/></g><g class="cls-6"><ellipse class="cls-7" cx="664.99" cy="932.99" rx="41.29" ry="16.05"/><polygon class="cls-7" points="702.61 931.95 726.52 913.88 727.75 947.48 702.61 931.95"/></g><g class="cls-9"><path class="cls-7" d="M154.05,952c-3.63-11.08-14.7-17.36-24.72-14s-15.2,15-11.57,26.11Z"/><ellipse class="cls-7" cx="118.72" cy="963.99" rx="0.96" ry="1.05" transform="translate(-272.07 74.8) rotate(-16.7)"/><ellipse class="cls-7" cx="120.53" cy="963.39" rx="0.96" ry="1.05" transform="translate(-271.82 75.3) rotate(-16.7)"/><ellipse class="cls-7" cx="122.35" cy="962.78" rx="0.96" ry="1.05" transform="translate(-271.57 75.79) rotate(-16.7)"/><ellipse class="cls-7" cx="124.16" cy="962.18" rx="0.96" ry="1.05" transform="translate(-271.32 76.29) rotate(-16.7)"/><ellipse class="cls-7" cx="125.98" cy="961.58" rx="0.96" ry="1.05" transform="translate(-271.07 76.78) rotate(-16.7)"/><ellipse class="cls-7" cx="127.79" cy="960.97" rx="0.96" ry="1.05" transform="translate(-270.82 77.28) rotate(-16.7)"/><ellipse class="cls-7" cx="129.61" cy="960.37" rx="0.96" ry="1.05" transform="translate(-270.56 77.78) rotate(-16.7)"/><ellipse class="cls-7" cx="131.42" cy="959.76" rx="0.96" ry="1.05" transform="translate(-270.31 78.27) rotate(-16.7)"/><ellipse class="cls-7" cx="133.24" cy="959.16" rx="0.96" ry="1.05" transform="translate(-270.06 78.77) rotate(-16.7)"/><ellipse class="cls-7" cx="135.05" cy="958.55" rx="0.96" ry="1.05" transform="translate(-269.81 79.26) rotate(-16.7)"/><ellipse class="cls-7" cx="153.19" cy="952.51" rx="0.96" ry="1.05" transform="translate(-267.31 84.23) rotate(-16.7)"/><ellipse class="cls-7" cx="151.38" cy="953.11" rx="0.96" ry="1.05" transform="translate(-267.56 83.73) rotate(-16.7)"/><ellipse class="cls-7" cx="149.57" cy="953.72" rx="0.96" ry="1.05" transform="translate(-267.81 83.23) rotate(-16.7)"/><ellipse class="cls-7" cx="147.75" cy="954.32" rx="0.96" ry="1.05" transform="translate(-268.06 82.74) rotate(-16.7)"/><ellipse class="cls-7" cx="145.94" cy="954.93" rx="0.96" ry="1.05" transform="translate(-268.31 82.24) rotate(-16.7)"/><ellipse class="cls-7" cx="144.12" cy="955.53" rx="0.96" ry="1.05" transform="translate(-268.56 81.75) rotate(-16.7)"/><ellipse class="cls-7" cx="142.31" cy="956.14" rx="0.96" ry="1.05" transform="translate(-268.81 81.25) rotate(-16.7)"/><ellipse class="cls-7" cx="140.49" cy="956.74" rx="0.96" ry="1.05" transform="translate(-269.06 80.75) rotate(-16.7)"/><ellipse class="cls-7" cx="138.68" cy="957.34" rx="0.96" ry="1.05" transform="translate(-269.31 80.26) rotate(-16.7)"/><ellipse class="cls-7" cx="136.86" cy="957.95" rx="0.96" ry="1.05" transform="matrix(0.96, -0.29, 0.29, 0.96, -269.56, 79.76)"/><path class="cls-7" d="M124.24,962.73a3.86,3.86,0,0,1,0,3.25c-.42.82-1,1.36-1.43,2.22-.91,2-.28,5.37.89,8.06a83.61,83.61,0,0,0,4.2,7.48c.94,1.67,1.84,3.8,1.51,5.42a13.89,13.89,0,0,1-.78,1.93c-.81,2.35.49,5.88,1.72,8.78Z"/><path class="cls-7" d="M130.45,959.94a8.35,8.35,0,0,0-2.15,7.1,3.68,3.68,0,0,0,.38,1.23A3.39,3.39,0,0,0,130,969.5c1.63,1,3.51,1.3,5.2,2.15s3.29,2.61,3.09,4.56-1.92,3.17-1.92,5a4,4,0,0,0,1.41,2.86,10.44,10.44,0,0,0,2.7,1.61Z"/><path class="cls-7" d="M130.58,960.15a3.86,3.86,0,0,1,0,3.25c-.42.82-1,1.36-1.43,2.22-.91,2-.28,5.37.89,8.06a83.61,83.61,0,0,0,4.2,7.48c.94,1.67,1.84,3.8,1.51,5.42a14.4,14.4,0,0,1-.78,1.93c-.81,2.35.49,5.88,1.72,8.78Z"/><path class="cls-7" d="M134.21,958.94a3.86,3.86,0,0,1,0,3.25c-.42.82-1,1.36-1.43,2.22-.91,2-.28,5.37.89,8.06a82.24,82.24,0,0,0,4.2,7.48c.94,1.67,1.84,3.8,1.51,5.42a13.89,13.89,0,0,1-.78,1.93c-.81,2.35.49,5.88,1.72,8.78Z"/><path class="cls-7" d="M148.65,954.5a3.77,3.77,0,0,0,1.95,2.58c.82.41,1.64.47,2.45.93,1.93,1.08,3.4,4.15,4,7a80.72,80.72,0,0,1,1.05,8.53c.23,1.9.76,4.15,2,5.26a13.1,13.1,0,0,0,1.77,1.08c2,1.4,3.08,5,3.8,8.09Z"/><path class="cls-7" d="M143.1,956a3.77,3.77,0,0,0,2,2.58c.82.41,1.63.47,2.45.93,1.93,1.08,3.4,4.15,4.05,7a80.68,80.68,0,0,1,1,8.53c.24,1.9.77,4.16,2,5.26a13.65,13.65,0,0,0,1.76,1.08c2,1.4,3.09,5,3.8,8.09Z"/><path class="cls-7" d="M139.58,957.52a3.75,3.75,0,0,0,1.95,2.58c.81.41,1.63.47,2.45.93,1.93,1.08,3.4,4.15,4.05,7a80.68,80.68,0,0,1,1,8.53c.24,1.91.77,4.16,2,5.26a13.65,13.65,0,0,0,1.76,1.08c2,1.4,3.09,5,3.8,8.09Z"/><path class="cls-7" d="M136.07,958.53c1.83,2.68-.18,6.55,1.13,9.55A7.8,7.8,0,0,0,139,970.4c2.64,2.57,6.07,4.88,6.75,8.58a20.15,20.15,0,0,1,.13,3.47,19.68,19.68,0,0,0,3.66,11.12Z"/></g><path class="cls-10" d="M927.81,929.31,939,941.15"/><path class="cls-11" d="M673,872.31c-12,27.59-10.37,25.79-13.05,30.8-16.58,30.93-46,38.7-47.56,39.08-6.53,1.6-24.19,5.61-42.89-5.92-2.67-1.66-29.23-18.6-31.7-47.38-1.61-18.83,7.83-34,5.59-35.53-2.06-1.38-10.06,11.49-14.91,21.32a104.32,104.32,0,0,0-4.67,10.66c-6.21,17.55-2.21,38.24,0,47.37-2.27-.39-5.47-.87-9.32-1.18a74.94,74.94,0,0,0-15.85,0,46.11,46.11,0,0,0-16.78,4.74c-8.35,4.29-13.39,10.16-16.79,14.21-3.77,4.49-6.23,7.43-5.59,9.47.91,3,7.37,1.22,20.51,1.19a104,104,0,0,1,18.65,1.18c9.13,1.59,15.89,4.59,24.24,8.29,6,2.66,10.27,5,18.65,9.48,13.07,7,13.89,8.19,19.58,10.66,1.75.76,8.49,3.6,22.38,5.92A184.42,184.42,0,0,0,618.89,999c23.89-.58,26.72-3.54,48.49-4.74,14.83-.82,12.54.62,44.75,1.18,28.61.51,28.83-.65,54.08,0,27.5.72,27.34,2.09,41,1.19a257.69,257.69,0,0,0,43.82-7.11c14.67-3.44,25.56-7.09,32.64-9.47,14.88-5,25-8.42,38.23-15.4a164.2,164.2,0,0,0,19.37-11.55c3-2.13,6.2-4.57,9.53-7.4,1.81-1.54,4.16-3.5,7.13-6.36a137.61,137.61,0,0,0,12.45-13.77s.64-.81,1.23-1.58c7.66-9.83,13.58-17.73,16.49-28,6.2-21.91-4-44.66-15.85-71.06-8.35-18.59-16.53-29.66-26.11-42.64-6-8.13-10.57-13.36-14.38-16.9a35.5,35.5,0,0,0-9.86-6.78c-7.66-3.52-14.17-3.53-21.45-3.56-13.63,0-17,3.47-32.63,5.93-5.48.86-15.16,1-34.5,1.18-6.29.07-5.82,0-31.71,0-32.75,0-28,.07-35.43,0s-14.93.67-22.38,0c-8.53-.77-14.12-2.19-21.44,1.18a27.63,27.63,0,0,0-2.83,1.52,26.49,26.49,0,0,0-6.5,5.59c-3.67,4.44-5.15,9.1-6.52,13-4.82,13.81-5.79,11.44-11.19,26Z"/><path class="cls-12" d="M661.78,734.93c0,.22,0,.44.06.66h0c0,.48.06.95.11,1.45,1.24,15,5,36.34,17.49,45.25,7.89,5.62,16.21,4.11,19.53,3.56,57-9.59,192.44-.16,218.47-3.56a65.55,65.55,0,0,1,11.23-.68c2,0,3.62.1,4,.13,1.45.09,3.09.25,5.27.55,8,1.12,12.32,3.08,18.59,1.19,5.58-1.68,9.63-5.51,12.09-8.29q3.7-18.45,7.42-36.87c.22-1.13.45-2.26.68-3.39-.91-2-4.1-3.93-9.26-5.73l-305.37,5.72Z"/><path class="cls-13" d="M661.78,736.11a2.83,2.83,0,0,0,.17.94c3.8,10.68,72.82,19.2,157.41,19.2,81.18,0,148-7.84,156.64-17.92.22-1.13.45-2.26.68-3.39-.91-2-4.1-3.93-9.26-5.73-22-7.72-80-13.23-148.06-13.23-83.93,0-152.52,8.39-157.31,18.95a2.41,2.41,0,0,0-.21.66h0A2.29,2.29,0,0,0,661.78,736.11Z"/><path class="cls-12" d="M853.34,745.08c0-67.7-15.44-122.58-34.5-122.58s-34.5,54.88-34.5,122.58Z"/><ellipse class="cls-14" cx="844.54" cy="718.35" rx="6.53" ry="8.29"/><ellipse class="cls-15" cx="818.43" cy="718.35" rx="6.53" ry="8.29"/><ellipse class="cls-7" cx="793.25" cy="718.35" rx="6.53" ry="8.29"/><ellipse class="cls-16" cx="910.78" cy="833.52" rx="19.54" ry="24.58"/><ellipse cx="913.62" cy="835" rx="11.19" ry="14.21"/><ellipse class="cls-7" cx="916.42" cy="829.07" rx="4.66" ry="5.92"/><path class="cls-17" d="M734.13,888.29c-4.89,0-8.85,5-8.85,11.25s4,11.25,8.85,11.25"/><path class="cls-17" d="M754.25,866.75c-4.89,0-8.86,5-8.86,11.25s4,11.26,8.86,11.26"/><path class="cls-17" d="M763.23,905.78c-4.89,0-8.86,5-8.86,11.25s4,11.25,8.86,11.25"/><path class="cls-17" d="M786.64,867.15c-4.89,0-8.86,5-8.86,11.25s4,11.25,8.86,11.25"/><path class="cls-17" d="M794.75,910.33c-4.9,0-8.86,5-8.86,11.25s4,11.25,8.86,11.25"/><path class="cls-17" d="M767.58,837.37c-4.9,0-8.86,5-8.86,11.25s4,11.25,8.86,11.25"/><path class="cls-17" d="M742.75,921.4c-4.89,0-8.85,5-8.85,11.25s4,11.25,8.85,11.25"/><ellipse class="cls-16" cx="917.66" cy="839.9" rx="19.54" ry="24.58"/><ellipse cx="920.5" cy="841.38" rx="11.19" ry="14.21"/><ellipse class="cls-7" cx="923.3" cy="835.46" rx="4.66" ry="5.92"/><path class="cls-18" d="M930.91,928.58h0a3.21,3.21,0,0,1,.05,2.79,20.54,20.54,0,0,0-1.47,11.85c1.06,6.35,4.82,10.84,9.22,11.74.16,0,.14.32,0,.35-5.65,1.06-11-3.93-12.35-11.75A18.86,18.86,0,0,1,930.65,928C930.73,928.21,930.81,928.4,930.91,928.58Z"/><ellipse class="cls-19" cx="1078.43" cy="821.37" rx="23.72" ry="25.1" transform="translate(-17.2 1619.65) rotate(-73.37)"/><ellipse class="cls-20" cx="1091.55" cy="742.36" rx="23.72" ry="25.1" transform="translate(67.88 1575.82) rotate(-73.37)"/><ellipse class="cls-21" cx="1040.13" cy="861.91" rx="14.23" ry="15.06" transform="translate(-83.39 1611.89) rotate(-73.37)"/><image class="cls-22" width="518" height="471" transform="translate(731 195.5)" xlink:href="levelcomplete1.png"/><ellipse class="cls-23" cx="982.93" cy="424.28" rx="217.61" ry="245.37" transform="translate(295.11 1244.69) rotate(-73.37)"/><ellipse class="cls-24" cx="1084.13" cy="679.49" rx="23.72" ry="25.1" transform="translate(122.81 1523.84) rotate(-73.37)"/><circle class="cls-25" cx="984" cy="1017.5" r="11"/><circle class="cls-25" cx="1000" cy="974.5" r="11"/><circle class="cls-25" cx="1019" cy="948.5" r="11"/><circle class="cls-25" cx="1056" cy="927.5" r="11"/><circle class="cls-25" cx="1101" cy="927.5" r="11"/><circle class="cls-25" cx="1137" cy="945.5" r="11"/><circle class="cls-25" cx="1161" cy="978.5" r="11"/><circle class="cls-25" cx="1172" cy="1017.5" r="11"/><path class="cls-15" d="M972.06,1037.11c0-7.29,12.53-13.47,13.61-20.38,1.13-7.19-8.83-16.93-6.67-23.6,2.24-6.91,16-8.89,19.28-15.11,3.36-6.44-2.83-18.93,1.47-24.47,4.45-5.73,18-2.72,23.35-7.32s4.6-18.64,10.82-22,17.29,5.09,24.22,3.33,12.47-14.46,19.74-14.43,12.81,12.78,19.63,14.58,18-6.58,24.24-3.15,5.23,17.29,10.66,22.06,18.89,1.73,23.3,7.49c4.26,5.58-2,18,1.28,24.48,3.2,6.24,17,8.32,19.17,15.26,2.12,6.68-7.92,16.34-6.85,23.54,1,6.93,13.5,13.2,13.47,20.48"/><path class="cls-12" d="M983,1038.16c0-57.25,42.31-103.66,94.5-103.66s94.5,46.41,94.5,103.66"/><ellipse class="cls-26" cx="1307.55" cy="1043.92" rx="41.84" ry="16.03" transform="translate(-299.35 577.72) rotate(-22.42)"/><path class="cls-26" d="M1346.16,1027.8l-46.92-105.27c-12-26.81-39.1-41.49-60.34-32.62h0c-21.23,8.86-28.83,38.05-16.88,64.85L1268.94,1060Z"/><path class="cls-26" d="M1235.39,853.26a6.67,6.67,0,0,1-2.73,2.09l3.09-1.29,17.32,38.87-24.71,10.31L1211,864.38l3.09-1.29a6.79,6.79,0,0,1-3.45.48l-1-2.18,24.71-10.31Z"/><path class="cls-27" d="M1236.18,846.8a6.19,6.19,0,0,1,0,5,5.77,5.77,0,0,1-.84,1.49,6.67,6.67,0,0,1-2.73,2.09l-18.53,7.74a6.79,6.79,0,0,1-3.45.48,6.68,6.68,0,0,1-5.39-3.88,6.15,6.15,0,0,1-.06-5,6.48,6.48,0,0,1,3.57-3.59l18.53-7.73A6.84,6.84,0,0,1,1236.18,846.8Z"/><polygon class="cls-27" points="1315.65 967.58 1244.44 997.31 1259.5 936.34 1315.65 967.58"/><polygon class="cls-27" points="1315.65 967.64 1300.59 1028.61 1244.43 997.37 1315.65 967.64"/><path class="cls-28" d="M1298.87,974.52c.59,7.29-3.94,13.15-6.44,16.37-2,2.59-10.44,13.46-21.46,13.52-5.27,0-10.33-2.41-10.1-3.39.16-.68,2.92-.41,6.36-1.13,8.36-1.76,13.71-8,14.79-9.22,3.21-3.72,8.86-12.31,5.88-17.65-.74-1.32-1.85-2.18-1.71-3.85A4.73,4.73,0,0,1,1287,967s0,0,0,0a7.78,7.78,0,0,1,1-1.34s0,0,0,0a13.56,13.56,0,0,1,2.84-1.44,15,15,0,0,1,1.79-.55h0a4.4,4.4,0,0,1,2.48,1.36C1297.3,967.12,1298.61,971.27,1298.87,974.52Z"/><path class="cls-29" d="M1295.18,965a10.77,10.77,0,0,1-3.26,1.79c-2.44.91-4.65,1.06-4.93.34a.27.27,0,0,1,0-.13s0,0,0,0c0-.37.37-.84,1-1.34,0,0,0,0,0,0a13.56,13.56,0,0,1,2.84-1.44,15,15,0,0,1,1.79-.55h0A4.4,4.4,0,0,1,1295.18,965Z"/><path class="cls-29" d="M1290.38,965.26l-.86-1.69a6,6,0,0,1-.38-.87,3.62,3.62,0,0,1,2.14-4.17c.71-.31,1.67-.37,2.1.18l-1.51.55a3.26,3.26,0,0,0-1.23.66,2.07,2.07,0,0,0-.51,1.5,4.34,4.34,0,0,0,1.13,2.88Z"/><polygon class="cls-29" points="1246.41 877.98 1221.7 888.3 1212.37 867.37 1237.08 857.05 1246.41 877.98"/><path class="cls-26" d="M1239.51,854.27a1.62,1.62,0,0,1-.88,2.14l-27.8,11.6a1.7,1.7,0,0,1-2.21-.85,1.58,1.58,0,0,1,.88-2.13l27.8-11.61A1.69,1.69,0,0,1,1239.51,854.27Z"/><path d="M923.38,398.53h-6.77c0,1.06,0,2,0,2.95s0,2,0,3.2c0,1.88,0,3.56,0,5s0,2.78,0,3.94H907c0-1.07,0-2.24,0-3.51s0-3.05,0-5.32c0-1,0-2,0-3.06s0-2.09,0-3.23H900.2v-7.64h23.18Z"/><path d="M933.23,394.17H924.4v-5.44h8.83Zm0,19.46H924.4c0-1,0-2.23,0-3.62s0-3,0-4.8c0-1.49,0-3,0-4.43s0-3,0-4.68h8.83c0,1.59,0,2.92,0,4s0,2.77,0,5.07c0,2.5,0,4.26,0,5.27S933.23,412.52,933.23,413.63Z"/><path d="M945.35,413.63h-8.83c0-1.65,0-3.34,0-5.07s0-4.37,0-7.94c0-1.83,0-3.77,0-5.81s0-4.06,0-6.08h8.83c0,2.09,0,4,0,5.79s0,3.73,0,5.86c0,2.32,0,4.39,0,6.19S945.35,410.73,945.35,413.63Z"/><path d="M957.47,413.63h-8.82c0-1.65,0-3.34,0-5.07s0-4.37,0-7.94c0-1.83,0-3.77,0-5.81s0-4.06,0-6.08h8.82c0,2.09,0,4,0,5.79s0,3.73,0,5.86c0,2.32,0,4.39,0,6.19S957.47,410.73,957.47,413.63Z"/><path d="M981.18,397.5q-3.43,7.75-6.45,14.91t-3.76,9l-8.41-1.68,2.67-6.44c-.26-.61-1.1-2.6-2.54-6s-2.84-6.63-4.23-9.8l9-1.85c.54,1.81,1,3.3,1.44,4.48s.79,2.17,1.11,3h.17c.4-1.12.74-2.12,1-3s.73-2.37,1.35-4.48Z"/><path d="M990.88,413.63h-8.82c0-.7,0-2,0-3.9s0-4.93,0-9.11c0-1.83,0-3.77,0-5.81s0-4.06,0-6.08h8.82c0,2.42,0,4.43,0,6.06s0,3.66,0,6.12q0,4.08,0,7.73C990.88,411.08,990.88,412.75,990.88,413.63Zm13.21-.17-7.94,2.31q-2.73-5-4-7.09L990,405v0c.38-.74,1-1.89,1.76-3.48s1.74-3.53,2.84-5.83l8.84,1.86q-1.23,2.57-2.14,4.57c-.61,1.33-1,2.16-1.13,2.49v0Q1002.43,409.6,1004.09,413.46Z"/><path d="M1013.9,413.63h-8.82c0-.7,0-2,0-3.9s0-4.93,0-9.11c0-1.83,0-3.77,0-5.81s0-4.06,0-6.08h8.82c0,2.42,0,4.43,0,6.06s0,3.66,0,6.12q0,4.08,0,7.73C1013.9,411.08,1013.9,412.75,1013.9,413.63Zm13.21-.17-7.94,2.31c-1.82-3.31-3.13-5.67-4-7.09l-2.15-3.69v0c.39-.74,1-1.89,1.76-3.48s1.74-3.53,2.84-5.83l8.84,1.86q-1.23,2.57-2.14,4.57c-.61,1.33-1,2.16-1.13,2.49v0Q1025.45,409.6,1027.11,413.46Z"/><path d="M1047.34,405.68h-11.51a1.69,1.69,0,0,0,.71,1.26,5,5,0,0,0,2.17.9,13.06,13.06,0,0,0,2.16.28c.69,0,1.33,0,1.91,0h2.11l1.44,0-.83,5.62-1.65.1c-.65,0-1.38,0-2.17,0a29.9,29.9,0,0,1-6.14-.59,13.27,13.27,0,0,1-4.88-2,8.7,8.7,0,0,1-2.7-2.92,7.61,7.61,0,0,1-.93-3.7,8.73,8.73,0,0,1,.67-3.56,9,9,0,0,1,2.41-3,9.48,9.48,0,0,1,3.37-1.82,13.85,13.85,0,0,1,8-.06,8.41,8.41,0,0,1,3.06,1.69,7.59,7.59,0,0,1,2.18,3.31A14.28,14.28,0,0,1,1047.34,405.68Zm-8.1-2.78a3.07,3.07,0,0,0-.5-1.79,1.8,1.8,0,0,0-1.57-.71,2,2,0,0,0-1.59.67,2.93,2.93,0,0,0-.62,1.83Z"/><path d="M1076.05,413.63h-1.92c-.72,0-1.41,0-2.08,0a51.65,51.65,0,0,1-7-.39,15.43,15.43,0,0,1-4.43-1.2,9.67,9.67,0,0,1-3.89-3.12,7.61,7.61,0,0,1-1.32-4.47,7,7,0,0,1,1.42-4.17,9.15,9.15,0,0,1,4.44-3,18.35,18.35,0,0,1,3-.79c1-.18,2.06-.32,3.08-.4l0-7.37h8.83c0,.46,0,1.72,0,3.79s0,4.86,0,8.37q0,5,0,8C1076,410.89,1076.05,412.47,1076.05,413.63Zm-8.3-9.06v-2.35l-1,0a2.87,2.87,0,0,0-1.17.39,2.36,2.36,0,0,0-1,1,2.94,2.94,0,0,0-.39,1.5,4.1,4.1,0,0,0,.24,1.44,2.34,2.34,0,0,0,1,1.13,3.53,3.53,0,0,0,1.07.47,5.07,5.07,0,0,0,1.14.14h.16v-3.74Z"/><path d="M1100.25,413.63h-8.64l0-1.22,0,0a29.53,29.53,0,0,1-3.25,1.17,12,12,0,0,1-3.53.61,5.54,5.54,0,0,1-4.21-1.54,5.76,5.76,0,0,1-1.47-4.14c0-1.32,0-2.6,0-3.85s0-2.17,0-2.76c0-1.09,0-2.22,0-3.39s0-2,0-2.37H1088c0,.46,0,1.21,0,2.25s0,2,0,2.86c0,.58,0,1.32,0,2.23s0,1.6,0,2.09a5,5,0,0,0,.2,1.46.94.94,0,0,0,1,.63,4.06,4.06,0,0,0,1.24-.22,5.46,5.46,0,0,0,1-.38c0-2,0-3.43,0-4.33,0-1.12,0-2.36,0-3.73s0-2.31,0-2.86h8.83c0,.43,0,1.55,0,3.36s0,3.52,0,5.13,0,3,0,4.29S1100.25,411.75,1100.25,413.63Z"/><path d="M1131.67,413.63h-8.82c0-.64,0-1.82,0-3.54s0-2.94,0-3.64c0-.54,0-.9,0-1.09s0-.56,0-1.09a3.2,3.2,0,0,0-.3-1.65,1.05,1.05,0,0,0-.93-.44,4.43,4.43,0,0,0-1.28.2c-.44.13-.76.23-1,.31l0,10.94h-8.83c0-1.32,0-2.77,0-4.36s0-4.47,0-8.65c0-1.83,0-3.76,0-5.79s0-4.06,0-6.1h8.83l0,8.44,0,0c.33-.15,1.22-.45,2.68-.89a13.53,13.53,0,0,1,3.92-.67,5.5,5.5,0,0,1,4.17,1.57,5.66,5.66,0,0,1,1.51,4.11c0,1.32,0,2.34,0,3.09s0,1.4,0,2c0,1.09,0,2.36,0,3.83S1131.67,412.84,1131.67,413.63Z"/><path d="M1153.43,405.48v8.15l-3.12.18c-1.82.09-3.45.14-4.9.14-1,0-2.33-.08-4-.23a15.78,15.78,0,0,1-4-.8,6.94,6.94,0,0,1-2.86-1.89,4,4,0,0,1-1-2.61,4.23,4.23,0,0,1,.91-2.76,6.82,6.82,0,0,1,3.28-1.9,17.73,17.73,0,0,1,3.92-.75c1.48-.13,2.43-.2,2.84-.22a.8.8,0,0,0-.27-.63,2.8,2.8,0,0,0-1.28-.42,9.89,9.89,0,0,0-1.33-.14c-.49,0-1.09-.05-1.81-.05-.93,0-1.74,0-2.43,0l-1.8.05.71-5.83h3.45a28.68,28.68,0,0,1,6.59.6,10.59,10.59,0,0,1,4.15,2,6.89,6.89,0,0,1,2.23,3A11.76,11.76,0,0,1,1153.43,405.48Zm-8.25,1.85v-1.84c-.13,0-.35,0-.66.07a3.85,3.85,0,0,0-1.09.38,2.41,2.41,0,0,0-.69.57,1.48,1.48,0,0,0-.35,1,1.54,1.54,0,0,0,.34,1.05,2.21,2.21,0,0,0,.78.56,3,3,0,0,0,.65.19,5.44,5.44,0,0,0,.86.07h.16v-2Z"/><path d="M1173.41,402.4l-3.59,1.26q-1.53.54-4.71,1.92v2.89c0,1,0,2,0,3s0,1.73,0,2.12h-8.82c0-.52,0-1.65,0-3.4s0-3.53,0-5.36c0-1.12,0-2.36,0-3.71s0-3,0-5.06h8.63l0,2.36.07,0a33.26,33.26,0,0,1,6-3.19Z"/><path d="M922.68,439.22q-2.67,6.06-4.17,9.73c-1,2.44-1.86,4.57-2.6,6.41h-9q-1.21-3.06-2.67-6.6t-4.05-9.54l9-1.84,2.31,7.94h.18l2.24-7.94Z"/><path d="M944.58,455.36H936v-1.22l0,0a29.53,29.53,0,0,1-3.25,1.17,11.94,11.94,0,0,1-3.53.62,5.56,5.56,0,0,1-4.21-1.55,5.76,5.76,0,0,1-1.47-4.14c0-1.32,0-2.6,0-3.85s0-2.17,0-2.76c0-1.09,0-2.21,0-3.39s0-2,0-2.37h8.83c0,.46,0,1.21,0,2.25s0,2,0,2.87c0,.57,0,1.32,0,2.22s0,1.6,0,2.09a5,5,0,0,0,.19,1.46.94.94,0,0,0,1,.63,4.29,4.29,0,0,0,1.24-.21,6.13,6.13,0,0,0,1-.39c0-2,0-3.43,0-4.33,0-1.12,0-2.36,0-3.72s0-2.32,0-2.87h8.83c0,.44,0,1.55,0,3.36s0,3.52,0,5.14,0,3,0,4.28S944.58,453.48,944.58,455.36Z"/><path d="M969,455.36h-8.82c0-.41,0-1,0-1.88s0-1.92,0-3.23v-2.13c0-.88,0-1.58,0-2.12a3.52,3.52,0,0,0-.27-1.56,1,1,0,0,0-1-.53,4.43,4.43,0,0,0-1.28.2c-.43.13-.76.23-1,.31,0,2.35,0,3.8,0,4.35,0,1.12,0,2.44,0,4s0,2.39,0,2.63h-8.82c0-.51,0-1.44,0-2.78s0-3.24,0-5.71c0-1.83,0-3.45,0-4.85s0-2.79,0-4.19h8.63l0,1.14,0,0c.42-.18,1.34-.5,2.77-.95a13.06,13.06,0,0,1,4-.68,5.48,5.48,0,0,1,4.17,1.57,5.67,5.67,0,0,1,1.51,4.12c0,1.31,0,2.34,0,3.08s0,1.4,0,2c0,1.09,0,2.39,0,3.92S969,454.68,969,455.36Z"/><path d="M991.69,455.36l-1.92,0h-2.08a51.92,51.92,0,0,1-7.06-.39,15.44,15.44,0,0,1-4.42-1.2,9.66,9.66,0,0,1-3.89-3.11,7.65,7.65,0,0,1-1.32-4.47,7,7,0,0,1,1.42-4.18,9.22,9.22,0,0,1,4.44-3,18.35,18.35,0,0,1,3-.79c1-.18,2.06-.32,3.08-.4l0-7.37h8.83c0,.46,0,1.72,0,3.79s0,4.86,0,8.37q0,5,0,8C991.68,452.62,991.69,454.21,991.69,455.36Zm-8.3-9.06V444l-1,0a3,3,0,0,0-1.18.39,2.51,2.51,0,0,0-1,1,2.94,2.94,0,0,0-.39,1.5,4.1,4.1,0,0,0,.24,1.44,2.34,2.34,0,0,0,1,1.13,3.53,3.53,0,0,0,1.07.47,4.56,4.56,0,0,0,1.14.14h.16V446.3Z"/><path d="M1014.24,447.41h-11.52a1.69,1.69,0,0,0,.71,1.26,4.79,4.79,0,0,0,2.17.9,13.06,13.06,0,0,0,2.16.28c.69,0,1.33,0,1.91,0h2.11l1.44,0-.83,5.62-1.65.1c-.65,0-1.38.05-2.17.05a29.06,29.06,0,0,1-6.13-.59,13.4,13.4,0,0,1-4.89-2,8.69,8.69,0,0,1-2.69-2.93,7.51,7.51,0,0,1-.94-3.7,8.68,8.68,0,0,1,.67-3.55,8.94,8.94,0,0,1,2.41-3,9.48,9.48,0,0,1,3.37-1.82,13.59,13.59,0,0,1,4-.62,13.28,13.28,0,0,1,4,.57,8.43,8.43,0,0,1,3,1.68,7.62,7.62,0,0,1,2.18,3.32A14.16,14.16,0,0,1,1014.24,447.41Zm-8.11-2.78a3.07,3.07,0,0,0-.5-1.79,1.8,1.8,0,0,0-1.57-.71,2,2,0,0,0-1.59.67,2.93,2.93,0,0,0-.62,1.83Z"/><path d="M1031.83,449.79l-.75,5.77c-.29,0-.67,0-1.14.05l-2.4,0q-5.11,0-7.72-1.73a5.65,5.65,0,0,1-2.6-5c0-1.42,0-2.48,0-3.19s0-1.35,0-1.94h-2.89v-5.95h3v-5.21H1026v5.21h5.67v5.95H1026c0,.27,0,.49,0,.66s0,.43,0,.78,0,.53,0,.86,0,.56,0,.69a2.89,2.89,0,0,0,.86,2.2c.57.55,2,.82,4.17.82h.79Z"/><path d="M1045.45,432.62a68.07,68.07,0,0,1-.64,8.37q-.54,3.66-1,5.86h-7.14q-.52-2.37-1-5.87a77.43,77.43,0,0,1-.67-8.36Zm-.62,22.74h-9.31v-6.84h9.31Z"/><path d="M1062.12,432.62a70.1,70.1,0,0,1-.64,8.37q-.54,3.66-1,5.86h-7.14q-.52-2.37-1-5.87a77.43,77.43,0,0,1-.67-8.36Zm-.62,22.74h-9.31v-6.84h9.31Z"/><path d="M1078.79,432.62a70.1,70.1,0,0,1-.64,8.37q-.54,3.66-1.05,5.86H1070q-.53-2.37-1-5.87a77.43,77.43,0,0,1-.67-8.36Zm-.62,22.74h-9.31v-6.84h9.31Z"/><path d="M1095.46,432.62a70.1,70.1,0,0,1-.64,8.37q-.54,3.66-1,5.86h-7.14c-.35-1.58-.7-3.54-1-5.87a75,75,0,0,1-.67-8.36Zm-.62,22.74h-9.31v-6.84h9.31Z"/></g></g></svg>
