<svg id="Layer_1" data-name="Layer 1" xmlns="http://www.w3.org/2000/svg" width="230.17" height="57.25" viewBox="0 0 230.17 57.25"><defs><style>.cls-1{fill:#e21717;}.cls-2{fill:#4d770c;}</style></defs><title>livchilli</title><path class="cls-1" d="M228.15,31.88c-3.45,9.71-12.73,14.82-17.83,17.62-4.1,2.25-21.34,11.72-35.67,5.87-6.84-2.8-12-8.65-11.15-9.79.61-.8,4,1,8.92,2,11.86,2.23,22.38-2.88,24.52-3.92,6.31-3.07,18.62-11.09,17.84-19.57-.21-2.1-1.14-3.8,0-5.87a6.87,6.87,0,0,1,2.27-2.39,0,0,0,0,1,0,0,11.7,11.7,0,0,1,2.12-1.16.11.11,0,0,0,.07,0,19.48,19.48,0,0,1,4.52-.33,20.54,20.54,0,0,1,2.63.26l0,0a6,6,0,0,1,2.43,3.09C230.38,21.5,229.69,27.55,228.15,31.88Z"/><path class="cls-2" d="M228.86,17.63a16.2,16.2,0,0,1-5.26.55C219.9,18,217,17,217,16a.64.64,0,0,1,.05-.17,0,0,0,0,1,0,0c.18-.49,1-.88,2.12-1.16a.11.11,0,0,0,.07,0,19.48,19.48,0,0,1,4.52-.33,20.54,20.54,0,0,1,2.63.26l0,0A6,6,0,0,1,228.86,17.63Z"/><path class="cls-2" d="M222.48,15.39l-.13-2.64a7.39,7.39,0,0,1,0-1.33c.25-2.25,2.61-4.17,5.19-4.22,1.11,0,2.38.43,2.63,1.37l-2.28-.1a4.79,4.79,0,0,0-2,.18,3,3,0,0,0-1.54,1.66,6,6,0,0,0-.2,4.32Z"/><path class="cls-1" d="M147.74,28.68c-3.45,9.71-12.73,14.81-17.83,17.61-4.1,2.26-21.33,11.73-35.67,5.88-6.84-2.8-12-8.66-11.14-9.79.6-.8,4,1,8.91,2,11.86,2.23,22.38-2.88,24.52-3.92,6.31-3.07,18.62-11.1,17.84-19.57-.2-2.1-1.14-3.8,0-5.88a7,7,0,0,1,2.27-2.39,0,0,0,0,1,0,0,11.08,11.08,0,0,1,2.12-1.15.1.1,0,0,0,.07,0,19.48,19.48,0,0,1,4.52-.33,22.61,22.61,0,0,1,2.63.25l0,0a6.09,6.09,0,0,1,2.43,3.09C150,18.3,149.28,24.35,147.74,28.68Z"/><path class="cls-2" d="M148.46,14.42a15.73,15.73,0,0,1-5.26.55c-3.71-.13-6.65-1.13-6.6-2.21a.58.58,0,0,1,0-.18,0,0,0,0,1,0,0c.18-.48,1-.88,2.12-1.15a.1.1,0,0,0,.07,0,19.48,19.48,0,0,1,4.52-.33,22.61,22.61,0,0,1,2.63.25l0,0A6.09,6.09,0,0,1,148.46,14.42Z"/><path class="cls-2" d="M142.07,12.18l-.13-2.63a8.44,8.44,0,0,1,0-1.33C142.19,6,144.56,4,147.13,4c1.11,0,2.39.42,2.63,1.37l-2.28-.1a4.47,4.47,0,0,0-2,.18A2.94,2.94,0,0,0,144,7.1a6,6,0,0,0-.21,4.32Z"/><path class="cls-1" d="M64.74,24.68C61.29,34.39,52,39.49,46.91,42.29,42.81,44.55,25.58,54,11.24,48.17,4.4,45.37-.77,39.51.1,38.38c.6-.8,4,1,8.91,2,11.86,2.23,22.38-2.88,24.52-3.92,6.31-3.07,18.62-11.1,17.84-19.57-.2-2.1-1.14-3.8,0-5.88a7,7,0,0,1,2.27-2.39,0,0,0,0,1,0,0,11.08,11.08,0,0,1,2.12-1.15.1.1,0,0,0,.07,0,19.48,19.48,0,0,1,4.52-.33A22.61,22.61,0,0,1,63,7.31l0,0a6.09,6.09,0,0,1,2.43,3.09C67,14.3,66.28,20.35,64.74,24.68Z"/><path class="cls-2" d="M65.46,10.42A15.73,15.73,0,0,1,60.2,11c-3.71-.13-6.65-1.13-6.6-2.21a.58.58,0,0,1,0-.18,0,0,0,0,1,0,0c.18-.48,1-.88,2.12-1.15a.1.1,0,0,0,.07,0,19.48,19.48,0,0,1,4.52-.33A22.61,22.61,0,0,1,63,7.31l0,0A6.09,6.09,0,0,1,65.46,10.42Z"/><path class="cls-2" d="M59.07,8.18l-.13-2.63a8.44,8.44,0,0,1,0-1.33C59.19,2,61.56,0,64.13,0c1.11,0,2.39.42,2.63,1.37l-2.28-.1a4.47,4.47,0,0,0-2,.18A2.94,2.94,0,0,0,61,3.1a6,6,0,0,0-.21,4.32Z"/></svg>
