<svg id="Layer_1" data-name="Layer 1" xmlns="http://www.w3.org/2000/svg" width="280" height="180" viewBox="0 0 280 180"><defs><style>.cls-1{fill:#c1272d;}.cls-2{fill:#006837;}.cls-3{fill:#f7931e;}</style></defs><title>menu</title><circle class="cls-1" cx="16.01" cy="139.39" r="14.51"/><circle class="cls-1" cx="37.11" cy="82.67" r="14.51"/><circle class="cls-1" cx="62.18" cy="48.38" r="14.51"/><circle class="cls-1" cx="110.98" cy="20.68" r="14.51"/><circle class="cls-1" cx="170.34" cy="20.68" r="14.51"/><circle class="cls-1" cx="217.82" cy="44.42" r="14.51"/><circle class="cls-1" cx="249.48" cy="87.95" r="14.51"/><circle class="cls-1" cx="263.99" cy="139.39" r="14.51"/><path class="cls-2" d="M2.17,165.26c0-9.61,12.73-18.06,14.16-27.19,1.48-9.48-7.95-21.44-5.1-30.23,3-9.12,17.65-13.21,21.92-21.41,4.43-8.5-.53-22.91,5.14-30.22,5.87-7.56,21-6.21,28-12.28,7.22-6.24,8.22-21.45,16.44-25.85s21.43,3.17,30.56.84,16.91-15.3,26.51-15.26,17.39,13.1,26.38,15.46S188.5,14,196.8,18.5s9.07,19.69,16.24,26C220,50.59,235.17,49.36,241,57c5.62,7.35.55,21.72,4.92,30.25,4.21,8.24,18.87,12.43,21.76,21.57,2.79,8.82-6.73,20.71-5.32,30.2,1.36,9.13,14,17.68,14,27.29"/><path class="cls-3" d="M14.69,166.64c0-75.52,55.81-136.73,124.65-136.73S264,91.12,264,166.64"/><path d="M104.88,134.9l-18.45,3.48-4.15-21.52h-.35c-.28.87-.85,2.69-1.69,5.45s-1.86,6.25-3.06,10.44H63.26q-2-7.27-3.2-10.79c-.77-2.34-1.34-4-1.69-5.1H58q-.56,2.72-1.7,8.91t-2.27,12.61L36,134.9q3.95-18.18,6.07-29.36T44.84,91.3l18.77-1.65c.42,1.41,1.24,4.17,2.44,8.3s2.59,8.74,4.14,13.85h.35q2.1-6.26,4.51-13.61t2.83-8.54L97.54,91.3q.31,1.8,2.07,12.94T104.88,134.9Z"/><path d="M146.79,121H123.73a3.51,3.51,0,0,0,1.4,2.6,9.86,9.86,0,0,0,4.36,1.87,26.2,26.2,0,0,0,4.33.58c1.38,0,2.66.08,3.83.08h4.22c1.1,0,2.06,0,2.88-.06l-1.65,11.64q-1.33.1-3.3.21c-1.32.07-2.77.11-4.36.11a57.71,57.71,0,0,1-12.29-1.22,26.46,26.46,0,0,1-9.79-4.2,17.65,17.65,0,0,1-5.4-6.06,16.1,16.1,0,0,1-1.88-7.65A18.27,18.27,0,0,1,119,101.53a26.52,26.52,0,0,1,16-.12,16.63,16.63,0,0,1,6.12,3.5,15.77,15.77,0,0,1,4.37,6.85A30.81,30.81,0,0,1,146.79,121Zm-16.24-5.77a6.43,6.43,0,0,0-1-3.69,3.55,3.55,0,0,0-3.15-1.47,3.88,3.88,0,0,0-3.18,1.39,6.2,6.2,0,0,0-1.25,3.77Z"/><path d="M193.23,137.46H175.55c0-.84,0-2.14,0-3.88s0-4,0-6.7c0-1.1,0-2.57,0-4.39s0-3.3,0-4.4a7.68,7.68,0,0,0-.53-3.23,2,2,0,0,0-1.93-1.09,8.6,8.6,0,0,0-2.57.4c-.87.27-1.51.49-1.93.65q0,7.28,0,9,0,3.48,0,8.19c0,3.14,0,5,0,5.45H150.94c0-1.05,0-3,0-5.74s0-6.73,0-11.83q0-5.7,0-10t0-8.67h17.3l0,2.36.07.07c.85-.38,2.7-1,5.56-2a25.74,25.74,0,0,1,8-1.41,10.91,10.91,0,0,1,8.37,3.25,12.05,12.05,0,0,1,3,8.53q0,4.08,0,6.38c0,1.54,0,2.91,0,4.13q0,3.38,0,8.11T193.23,137.46Z"/><path d="M241.29,137.46H224l0-2.53-.07-.07a62.9,62.9,0,0,1-6.5,2.43,23.55,23.55,0,0,1-7.07,1.26c-3.66,0-6.47-1.06-8.44-3.2a12.13,12.13,0,0,1-2.95-8.57q0-4.08,0-8c0-2.59,0-4.49,0-5.71q0-3.37,0-7c0-2.43,0-4.06,0-4.91h17.68c0,.94,0,2.49,0,4.66s0,4.14,0,5.92c0,1.2,0,2.73,0,4.61s0,3.32,0,4.32a10.61,10.61,0,0,0,.39,3,1.89,1.89,0,0,0,2.07,1.3,8.44,8.44,0,0,0,2.48-.44,11.74,11.74,0,0,0,2-.79q0-6.2,0-9,0-3.48,0-7.71c0-2.83,0-4.8,0-5.93h17.68q0,1.33,0,6.95c0,3.73,0,7.28,0,10.63s0,6.22,0,8.88S241.29,133.57,241.29,137.46Z"/></svg>
