<svg id="Layer_1" data-name="Layer 1" xmlns="http://www.w3.org/2000/svg" width="481" height="150" viewBox="0 0 481 150"><defs><style>.cls-1{fill:#050505;}.cls-2{fill:none;stroke:#000;stroke-miterlimit:10;stroke-width:3px;}.cls-3{fill:#999;}.cls-4{fill:#b57c47;}.cls-5{fill:#a56c34;}</style></defs><title>net</title><path class="cls-1" d="M172.85,62.51l6,8.5c-.31,1-.63,2.06-1,3.08L171,64.3l-1.5-2.13L156.59,43.94h0l-1.5-2.12h0L138,17.63l-1.5-2.13-.22-.31,3.1-.08.5.73L157,40l1.5,2.12,12.87,18.23Z"/><path class="cls-2" d="M186.35,14c0,.58,0,1.16,0,1.74a189.22,189.22,0,0,1-1.77,28.86l-.54,3.69a.19.19,0,0,0,0,.07c-.23,1.43-.47,2.85-.74,4.25A170.64,170.64,0,0,1,178.84,71c-.31,1-.63,2.06-1,3.08-1.29,4-2.73,7.85-4.29,11.59h0l0,.1c-.84,2-1.73,4-2.67,6-1.15,2.45-2.36,4.83-3.64,7.16-.45.83-.92,1.66-1.39,2.48a114.54,114.54,0,0,1-16,21.76c-.6.63-1.21,1.26-1.82,1.87a85,85,0,0,1-18.58,14.26c-.75.43-1.52.84-2.28,1.23a68.91,68.91,0,0,1-13.33,5.22c-1.64.45-3.3.83-5,1.16-1.26.24-2.54.45-3.83.61-1,.13-2,.23-3,.31-1.23.11-2.47.17-3.72.2a64.19,64.19,0,0,1-14.49-1.3c-1-.2-2-.44-3-.69l-.36-.1c-1.44-.36-2.86-.79-4.27-1.26s-2.83-1-4.24-1.56l-.51-.21A76.23,76.23,0,0,1,59,136.33c-.73-.47-1.46-1-2.18-1.48a99.48,99.48,0,0,1-21.18-20.3c-.53-.68-1.06-1.36-1.58-2a129.62,129.62,0,0,1-9.89-15.37c-1.21-2.19-2.38-4.44-3.49-6.74l-.21-.46c-.4-.81-.78-1.63-1.15-2.46A162,162,0,0,1,9.63,60h0c-.06-.2-.11-.42-.16-.62-.24-1-.48-1.92-.7-2.88S8.39,54.83,8.21,54A187.56,187.56,0,0,1,4,19v-.6Z"/><path class="cls-1" d="M105,147.55c-1,.13-2,.23-3,.31l-8.11-10.65-1.57-2.07L78.91,117.46l-1.57-2.06L59.5,91.94l-1.57-2.06L42.26,69.27l-1.57-2L24.14,45.46,22.58,43.4,4,19v-.6l2.75-.06L24.45,41.62,26,43.68,42.57,65.44l1.57,2L59.81,88.1l1.57,2.06,17.85,23.46,1.56,2.06,13.46,17.68,1.56,2.07Z"/><path class="cls-1" d="M129.44,139.33c-.75.43-1.52.84-2.28,1.23L124,136.12l-1.5-2.12-10.1-14.3-1.5-2.13L98.06,99.33l-1.5-2.12L79.49,73,78,70.89,63,49.65l-1.5-2.13L45.66,25.09,44.16,23,40.3,17.49l3.09-.07,2.66,3.76,1.5,2.13L63.38,45.74l1.5,2.12,15,21.25,1.5,2.12L98.45,95.42l1.5,2.12,12.87,18.24,1.5,2.13,10.1,14.3,1.5,2.13Z"/><path class="cls-1" d="M149.84,123.2c-.6.63-1.21,1.26-1.82,1.87l-4.93-7-1.5-2.13-10.1-14.31L130,99.53,117.12,81.3l-1.5-2.13L98.55,55l-1.5-2.12-15-21.25-1.5-2.13-9-12.74,3.09-.07,7.79,11,1.5,2.13,15,21.24,1.5,2.13,17.08,24.19,1.5,2.12,12.87,18.23,1.5,2.13,10.09,14.31L145,116.3Z"/><path class="cls-1" d="M167.22,99c-.45.83-.92,1.66-1.39,2.48l-2.06-2.92h0l-1.5-2.12L152.16,82.08,150.66,80,137.79,61.72l-1.5-2.12L119.23,35.41l-1.5-2.12L105.47,15.93l3.1-.08,11,15.65,1.5,2.13,17.08,24.19,1.49,2.12,12.88,18.23,1.5,2.13,10.09,14.31,1.5,2.12Z"/><path class="cls-1" d="M9.63,60h0L26.14,81l1.6,2,16,20.33,1.6,2,18.18,23.13,1.59,2,11.12,14.16c1.41.47,2.83.9,4.27,1.26L67,128.78l-1.59-2L47.18,103.6l-1.6-2-16-20.34-1.6-2L11.15,57.75l-1.59-2L8.21,54c.18.82.37,1.64.56,2.46s.46,1.92.7,2.88Z"/><polygon class="cls-1" points="184.63 44.59 184.07 48.28 171.23 30.08 169.73 27.95 160.31 14.61 163.41 14.54 171.62 26.17 173.12 28.29 184.63 44.59"/><path class="cls-1" d="M54.05,17.16l-6.5,6.15-1.89,1.78L26,43.68l-1.89,1.78-13,12.29-1.68,1.6c-.24-1-.48-1.92-.7-2.88l.79-.75,13-12.32,1.87-1.78L44.16,23l1.89-1.79,4.15-3.93Z"/><path class="cls-1" d="M98.44,16.1,83.94,29.83l-1.89,1.78L64.88,47.86,63,49.65,44.14,67.49l-1.88,1.78-12.65,12L27.74,83l-7.3,6.91c-.4-.81-.78-1.63-1.15-2.46L26.14,81,28,79.21l12.68-12,1.88-1.78L61.49,47.52l1.89-1.78L80.55,29.48l1.89-1.78L94.6,16.19Z"/><path class="cls-1" d="M140.7,15.08l-.8.76L138,17.63l-16.91,16-1.88,1.78L100.43,53.2,98.55,55,81.37,71.23,79.49,73,61.38,90.16,59.5,91.94,47.18,103.6l-1.88,1.79-9.69,9.16c-.53-.68-1.06-1.36-1.58-2l9.67-9.15,1.88-1.77,12.35-11.7,1.88-1.78L78,70.89l1.88-1.78L97.05,52.86l1.88-1.79,18.8-17.78,1.88-1.79,16.91-16,.34-.33Z"/><path class="cls-1" d="M186.35,14c0,.58,0,1.16,0,1.74L173.12,28.29l-1.89,1.79L158.48,42.15l-1.89,1.78h0l-16.91,16-1.89,1.78L119,79.51l-1.89,1.79L100,97.54l-1.89,1.79L80.79,115.68l-1.88,1.78L67,128.78l-1.88,1.77L59,136.33c-.73-.47-1.46-1-2.18-1.48l6.69-6.33,1.88-1.78,12-11.34,1.89-1.78L96.56,97.21l1.89-1.79,17.17-16.25,1.89-1.78L136.29,59.6l1.9-1.78,16.9-16h0L157,40,169.73,28l1.89-1.78L184.44,14Z"/><path class="cls-1" d="M184.06,48.35c-.23,1.43-.47,2.85-.74,4.25l-10.47,9.91L171,64.3l-16.9,16-1.9,1.78L133.38,99.87l-1.89,1.78-17.17,16.26-1.89,1.79L95.81,135.43l-1.88,1.78-10.1,9.55c-1-.2-2-.44-3-.69l11.54-10.93,1.89-1.78,16.68-15.79,1.89-1.79L130,99.53l1.89-1.79L150.66,80l1.9-1.79,16.9-16,1.89-1.79Z"/><rect class="cls-3" x="163.06" y="7.47" width="313.03" height="7.31" rx="3.66" transform="translate(-0.17 7.67) rotate(-1.37)"/><rect class="cls-4" x="-0.38" y="6.87" width="190.74" height="18.61" rx="9.3" transform="translate(-0.36 2.28) rotate(-1.37)"/><rect class="cls-5" x="434.84" y="0.82" width="46.52" height="13.29" rx="6.65" transform="translate(-0.05 10.99) rotate(-1.37)"/></svg>
