<svg id="Layer_1" data-name="Layer 1" xmlns="http://www.w3.org/2000/svg" width="280" height="180" viewBox="0 0 280 180"><defs><style>.cls-1{fill:#c1272d;}.cls-2{fill:#006837;}.cls-3{fill:#f7931e;}</style></defs><title>play</title><circle class="cls-1" cx="16.01" cy="136.74" r="14.51"/><circle class="cls-1" cx="37.11" cy="80.02" r="14.51"/><circle class="cls-1" cx="62.18" cy="45.72" r="14.51"/><circle class="cls-1" cx="110.98" cy="18.02" r="14.51"/><circle class="cls-1" cx="170.34" cy="18.02" r="14.51"/><circle class="cls-1" cx="217.82" cy="41.77" r="14.51"/><circle class="cls-1" cx="249.48" cy="85.3" r="14.51"/><circle class="cls-1" cx="263.99" cy="136.74" r="14.51"/><path class="cls-2" d="M2.17,162.61c0-9.61,12.73-18.06,14.16-27.19,1.48-9.48-7.95-21.44-5.1-30.23,3-9.12,17.65-13.21,21.92-21.41,4.43-8.5-.53-22.91,5.14-30.22,5.87-7.56,21-6.22,28-12.28C73.55,35,74.55,19.83,82.77,15.43s21.43,3.17,30.56.84S130.24,1,139.84,1s17.39,13.1,26.38,15.46,22.28-5.15,30.58-.62,9.07,19.69,16.24,26c7,6.11,22.13,4.88,27.94,12.49,5.62,7.35.55,21.72,4.92,30.25,4.21,8.24,18.87,12.43,21.76,21.57,2.79,8.82-6.73,20.71-5.32,30.2,1.36,9.13,14,17.68,14,27.29"/><path class="cls-3" d="M14.69,164c0-75.52,55.81-136.73,124.65-136.73S264,88.47,264,164"/><circle class="cls-1" cx="16.01" cy="136.74" r="14.51"/><circle class="cls-1" cx="37.11" cy="80.02" r="14.51"/><circle class="cls-1" cx="62.18" cy="45.72" r="14.51"/><circle class="cls-1" cx="110.98" cy="18.02" r="14.51"/><circle class="cls-1" cx="170.34" cy="18.02" r="14.51"/><circle class="cls-1" cx="217.82" cy="41.77" r="14.51"/><circle class="cls-1" cx="249.48" cy="85.3" r="14.51"/><circle class="cls-1" cx="263.99" cy="136.74" r="14.51"/><path class="cls-2" d="M2.17,162.61c0-9.61,12.73-18.06,14.16-27.19,1.48-9.48-7.95-21.44-5.1-30.23,3-9.12,17.65-13.21,21.92-21.41,4.43-8.5-.53-22.91,5.14-30.22,5.87-7.56,21-6.22,28-12.28C73.55,35,74.55,19.83,82.77,15.43s21.43,3.17,30.56.84S130.24,1,139.84,1s17.39,13.1,26.38,15.46,22.28-5.15,30.58-.62,9.07,19.69,16.24,26c7,6.11,22.13,4.88,27.94,12.49,5.62,7.35.55,21.72,4.92,30.25,4.21,8.24,18.87,12.43,21.76,21.57,2.79,8.82-6.73,20.71-5.32,30.2,1.36,9.13,14,17.68,14,27.29"/><path class="cls-3" d="M14.69,164c0-75.52,55.81-136.73,124.65-136.73S264,88.47,264,164"/><path d="M100.18,99.58a15.43,15.43,0,0,1-2.57,9,20.05,20.05,0,0,1-7.17,6.14,28.05,28.05,0,0,1-8.07,2.58,52.56,52.56,0,0,1-8.42.9l0,10.89H54.68c0-3.09,0-6.41,0-9.94s0-8.64,0-15.3c0-2.79,0-6.14,0-10.07s0-7.85,0-11.76c1.29,0,2.89,0,4.8,0S63.32,82,65.27,82a140.27,140.27,0,0,1,14.06.51,37.08,37.08,0,0,1,8.61,2,20,20,0,0,1,9,5.9A14,14,0,0,1,100.18,99.58Zm-19.69,1.69a6.54,6.54,0,0,0-.62-2.8A5.06,5.06,0,0,0,78,96.34a5.89,5.89,0,0,0-2.18-.88,14.55,14.55,0,0,0-2.18-.17h-.74V108h.77a9.39,9.39,0,0,0,2.11-.3,5.79,5.79,0,0,0,1.94-.76,6.5,6.5,0,0,0,2-2.07A7.16,7.16,0,0,0,80.49,101.27Z"/><path d="M122.33,129.14H104.64q0-5.13,0-10.49t0-16.44q0-5.68,0-12t0-12.58h17.69q0,6.47,0,12t0,12.13q0,7.22,0,12.82T122.33,129.14Z"/><path d="M166.34,112.27v16.87c-.54.05-2.62.17-6.26.37s-6.9.3-9.81.3c-2,0-4.67-.16-8-.47a30.92,30.92,0,0,1-8-1.67,13.75,13.75,0,0,1-5.73-3.9,8.39,8.39,0,0,1-1.93-5.42,9,9,0,0,1,1.83-5.71q1.83-2.34,6.57-3.92a34.26,34.26,0,0,1,7.86-1.57c3-.27,4.86-.41,5.68-.44a1.7,1.7,0,0,0-.55-1.31,5.51,5.51,0,0,0-2.55-.86,21.49,21.49,0,0,0-2.67-.3c-1-.06-2.19-.09-3.62-.09-1.87,0-3.5,0-4.87.07s-2.57.08-3.6.1l1.4-12h6.93a56.19,56.19,0,0,1,13.2,1.23,21,21,0,0,1,8.32,4.07,14.39,14.39,0,0,1,4.46,6.17A24.89,24.89,0,0,1,166.34,112.27Zm-16.52,3.83v-3.8a9.6,9.6,0,0,0-1.32.15,7.65,7.65,0,0,0-2.2.77,4.78,4.78,0,0,0-1.37,1.19,3.1,3.1,0,0,0-.7,2,3.2,3.2,0,0,0,.68,2.18,4.37,4.37,0,0,0,1.57,1.16,5,5,0,0,0,1.28.39,9.88,9.88,0,0,0,1.74.14h.32V116.1Z"/><path d="M213,95.75q-6.88,16.06-12.92,30.88t-7.54,18.58l-16.84-3.48L181,128.41q-.78-1.91-5.08-12.36t-8.49-20.3l18.1-3.84q1.62,5.63,2.88,9.29c.85,2.43,1.59,4.5,2.22,6.18H191q1.2-3.48,2-6.18t2.71-9.29Z"/></svg>
