<svg id="Layer_1" data-name="Layer 1" xmlns="http://www.w3.org/2000/svg" width="210" height="140" viewBox="0 0 210 140"><defs><style>.cls-1{fill:#c1272d;}.cls-2{fill:#006837;}.cls-3{fill:#f7931e;}</style></defs><title>spiligen</title><circle class="cls-1" cx="10.93" cy="107.66" r="11.06"/><circle class="cls-1" cx="27.02" cy="64.42" r="11.06"/><circle class="cls-1" cx="46.13" cy="38.28" r="11.06"/><circle class="cls-1" cx="83.34" cy="17.16" r="11.06"/><circle class="cls-1" cx="128.59" cy="17.16" r="11.06"/><circle class="cls-1" cx="164.79" cy="35.26" r="11.06"/><circle class="cls-1" cx="188.92" cy="68.44" r="11.06"/><circle class="cls-1" cx="199.98" cy="107.66" r="11.06"/><path class="cls-2" d="M-1,127.38c0-7.33,12.53-13.55,13.62-20.5,1.14-7.23-8.82-17-6.64-23.71,2.25-7,16.07-9,19.33-15.22,3.37-6.48-2.8-19,1.53-24.57,4.47-5.77,18.08-2.79,23.43-7.41,5.5-4.76,4.66-18.69,10.92-22S78.51,19,85.48,17.21,98,2.73,105.34,2.76s12.89,12.79,19.75,14.59,18-6.55,24.35-3.1,5.29,17.33,10.76,22.13c5.31,4.66,18.94,1.78,23.38,7.58,4.28,5.6-2,18.08,1.34,24.58,3.21,6.28,17,8.4,19.22,15.37,2.12,6.72-7.91,16.42-6.83,23.66,1,7,13.5,13.27,13.48,20.6"/><path class="cls-3" d="M9.93,128.43C9.93,70.87,52.47,24.2,105,24.2s95,46.67,95,104.23"/><path d="M48.76,96.17a5.33,5.33,0,0,1-1.22,3.57,9.55,9.55,0,0,1-3.35,2.45,16.27,16.27,0,0,1-4.79,1.23,44.49,44.49,0,0,1-5.54.38c-1.56,0-2.83,0-3.81,0l-2.18-.09L26.79,96l2,.07,2.3,0h1.63c.61,0,1.21,0,1.78,0A3.22,3.22,0,0,0,36,95.73a.72.72,0,0,0,.31-.57.74.74,0,0,0-.4-.64,11,11,0,0,0-1.52-.67c-.4-.15-1-.4-1.8-.73a15.65,15.65,0,0,1-1.88-.93,6.35,6.35,0,0,1-2.35-2.31A6,6,0,0,1,27.61,87,5.24,5.24,0,0,1,28,85a5,5,0,0,1,1-1.62,11.86,11.86,0,0,1,5.16-2.89,28.83,28.83,0,0,1,8.37-1.05c1.44,0,2.54,0,3.28,0s1.27,0,1.58.07l1.06,7.65-1.55-.07c-.49,0-1.1,0-1.83,0s-1.23,0-1.72,0l-1.62.08a4.05,4.05,0,0,0-1.26.24.57.57,0,0,0-.4.54.76.76,0,0,0,.47.67,10.67,10.67,0,0,0,1.44.65l1.88.76a12.68,12.68,0,0,1,1.85.91A6.45,6.45,0,0,1,48,93.2,5.7,5.7,0,0,1,48.76,96.17Z"/><path d="M72,94.06a7.84,7.84,0,0,1-1.27,4.54,10.12,10.12,0,0,1-3.43,3,13.43,13.43,0,0,1-3.5,1.26,18.24,18.24,0,0,1-3.79.47l0,8.1H51.17c0-1,0-2.72,0-5.07s0-5.33,0-8.93c0-1.65,0-3.61,0-5.86s0-4.4,0-6.43c.53,0,1.24,0,2.14,0l2,0c2.09,0,3.94.07,5.57.2A19.83,19.83,0,0,1,66,86.48a9.34,9.34,0,0,1,4.49,3.11A7.36,7.36,0,0,1,72,94.06Zm-8.86.58a3.22,3.22,0,0,0-.31-1.4,2.47,2.47,0,0,0-.93-1.07,2.79,2.79,0,0,0-1.09-.44,6.8,6.8,0,0,0-1.1-.09h-.19V98a5.15,5.15,0,0,0,1.17-.14,2.86,2.86,0,0,0,1-.39,3.51,3.51,0,0,0,1.06-1A3.37,3.37,0,0,0,63.15,94.64Z"/><path d="M83.14,83.16H74.25V77.5h8.89Zm0,20.25H74.25c0-1.06,0-2.31,0-3.76s0-3.12,0-5c0-1.54,0-3.07,0-4.6s0-3.15,0-4.87h8.89c0,1.65,0,3,0,4.16s0,2.89,0,5.28c0,2.6,0,4.43,0,5.49S83.14,102.26,83.14,103.41Z"/><path d="M95.36,103.41H86.47c0-1.72,0-3.48,0-5.27s0-4.56,0-8.27q0-2.87,0-6c0-2.12,0-4.23,0-6.33h8.89q0,3.25,0,6t0,6.1q0,3.62,0,6.44T95.36,103.41Z"/><path d="M114.64,83.16h-8.89V77.5h8.89Zm0,20.25h-8.89c0-1.06,0-2.31,0-3.76s0-3.12,0-5c0-1.54,0-3.07,0-4.6s0-3.15,0-4.87h8.89c0,1.65,0,3,0,4.16s0,2.89,0,5.28c0,2.6,0,4.43,0,5.49S114.64,102.26,114.64,103.41Z"/><path d="M137.73,85.17c0,.81,0,1.86,0,3.15s0,2.67,0,4.17c0,.87,0,2,0,3.44s0,3.17,0,5.25a9.45,9.45,0,0,1-1.2,4.82,7.77,7.77,0,0,1-3.56,3.17,22.43,22.43,0,0,1-7.39,2,47.67,47.67,0,0,1-6.06.3l-.92-6.14c1.52-.06,2.93-.13,4.23-.23a24.6,24.6,0,0,0,3-.37A6.51,6.51,0,0,0,128,104a1.08,1.08,0,0,0,.64-.89h-.43a15.57,15.57,0,0,1-3.56-.48,12,12,0,0,1-3.24-1.2,10.23,10.23,0,0,1-3.33-3,8,8,0,0,1-1.14-4.5,7.11,7.11,0,0,1,1.43-4.37,9.58,9.58,0,0,1,4.29-3.06,18.8,18.8,0,0,1,4.27-1,50.2,50.2,0,0,1,6.41-.34l2.18,0C136.35,85.17,137.1,85.17,137.73,85.17Zm-8.36,8.93V91.64h-.43a4.57,4.57,0,0,0-.83.07,3.18,3.18,0,0,0-.94.37,2.54,2.54,0,0,0-1,1,3.11,3.11,0,0,0-.39,1.56,4.41,4.41,0,0,0,.24,1.5,2.43,2.43,0,0,0,1,1.19,3.5,3.5,0,0,0,1.08.48,4.6,4.6,0,0,0,1.15.15h.16V94.1Z"/><path d="M160.44,95.14H148.85a1.75,1.75,0,0,0,.7,1.31,4.87,4.87,0,0,0,2.19.93,12.38,12.38,0,0,0,2.18.3c.69,0,1.34,0,1.92,0H158c.55,0,1,0,1.45,0l-.84,5.86-1.66.1q-1,.06-2.19.06a28.88,28.88,0,0,1-6.18-.62,13.24,13.24,0,0,1-4.92-2.11,8.83,8.83,0,0,1-2.71-3,8,8,0,0,1-.95-3.84,8.19,8.19,0,0,1,3.11-6.84,9.12,9.12,0,0,1,3.4-1.89,13.2,13.2,0,0,1,8.06-.06A8.36,8.36,0,0,1,157.61,87a8,8,0,0,1,2.2,3.45A15.38,15.38,0,0,1,160.44,95.14Zm-8.17-2.9a3.23,3.23,0,0,0-.5-1.86,1.79,1.79,0,0,0-1.58-.74,2,2,0,0,0-1.6.7,3.19,3.19,0,0,0-.63,1.9Z"/><path d="M183.79,103.41H174.9c0-.42,0-1.07,0-2s0-2,0-3.37c0-.55,0-1.29,0-2.21s0-1.65,0-2.21a3.76,3.76,0,0,0-.27-1.62,1,1,0,0,0-1-.55,4.55,4.55,0,0,0-1.29.2l-1,.33c0,2.44,0,4,0,4.52,0,1.17,0,2.54,0,4.12s0,2.5,0,2.74h-8.89c0-.53,0-1.49,0-2.89s0-3.38,0-6c0-1.9,0-3.59,0-5s0-2.91,0-4.36h8.69v1.18l0,0c.42-.19,1.36-.52,2.79-1a13,13,0,0,1,4-.71,5.45,5.45,0,0,1,4.21,1.64,6.06,6.06,0,0,1,1.52,4.28c0,1.37,0,2.44,0,3.21s0,1.47,0,2.08c0,1.13,0,2.49,0,4.07S183.79,102.71,183.79,103.41Z"/></svg>
