<svg id="Layer_1" data-name="Layer 1" xmlns="http://www.w3.org/2000/svg" width="533.61" height="378.71" viewBox="0 0 533.61 378.71"><defs><style>.cls-1,.cls-8{fill:none;}.cls-2{fill:#009245;}.cls-3{fill:#f7931e;}.cls-4{fill:#fbb03b;}.cls-5{fill:red;}.cls-6{fill:#006837;}.cls-7{fill:#fff;}.cls-8{stroke:#b3e021;stroke-miterlimit:10;}.cls-9{fill:#eaeaea;}.cls-10{fill:#ed1c24;}</style></defs><title>sur fisk</title><path class="cls-1" d="M471.08,308.52l11.25,11.91"/><path class="cls-2" d="M214.81,251.21c-12.06,27.73-10.42,25.92-13.12,31-16.67,31.11-46.29,38.92-47.82,39.3-6.57,1.61-24.33,5.65-43.13-6-2.69-1.67-29.4-18.7-31.88-47.64-1.62-18.94,7.88-34.22,5.63-35.73-2.08-1.39-10.12,11.55-15,21.44a103.29,103.29,0,0,0-4.68,10.72c-6.25,17.65-2.23,38.45,0,47.63-2.29-.39-5.51-.88-9.38-1.19a75.79,75.79,0,0,0-15.94,0,46.53,46.53,0,0,0-16.88,4.77c-8.39,4.31-13.46,10.22-16.87,14.29-3.79,4.51-6.27,7.47-5.63,9.53.92,3,7.42,1.22,20.63,1.19a102.48,102.48,0,0,1,18.75,1.19c9.18,1.59,16,4.61,24.38,8.33,6,2.67,10.32,5,18.75,9.53,13.15,7.08,14,8.24,19.69,10.72,1.76.76,8.53,3.62,22.5,5.95a185.23,185.23,0,0,0,35.63,2.39c24-.59,26.87-3.56,48.76-4.77,14.92-.82,12.61.62,45,1.19,28.77.52,29-.65,54.39,0,27.65.72,27.49,2.1,41.25,1.19a259.14,259.14,0,0,0,44.07-7.14c14.75-3.47,25.7-7.13,32.81-9.53,15-5,25.13-8.47,38.45-15.48a166,166,0,0,0,19.48-11.61c3.05-2.15,6.24-4.6,9.58-7.45,1.82-1.54,4.18-3.51,7.17-6.39a138.24,138.24,0,0,0,12.52-13.85l1.24-1.59c7.7-9.88,13.65-17.82,16.58-28.19,6.23-22-4-44.91-15.94-71.45-8.39-18.7-16.62-29.82-26.26-42.88-6-8.18-10.62-13.43-14.45-17a35.42,35.42,0,0,0-9.92-6.82c-7.7-3.54-14.25-3.55-21.57-3.58-13.71,0-17.12,3.49-32.81,6-5.51.87-15.24,1-34.7,1.19-6.32.07-5.85,0-31.88,0-32.93,0-28.15.07-35.62,0s-15,.68-22.51,0c-8.58-.78-14.2-2.21-21.56,1.19a27.82,27.82,0,0,0-2.84,1.52,26.89,26.89,0,0,0-6.54,5.62c-3.69,4.47-5.18,9.15-6.56,13.11-4.85,13.88-5.82,11.5-11.25,26.2Z"/><path class="cls-3" d="M203.56,113.06c0,.22,0,.44.06.66v0c0,.47.06,1,.11,1.45,1.25,15.05,5,36.54,17.59,45.5,7.93,5.65,16.3,4.14,19.63,3.58,57.35-9.64,193.52-.16,219.7-3.58a67.47,67.47,0,0,1,11.29-.69c2,0,3.63.11,4,.13,1.45.1,3.1.25,5.3.56,8,1.12,12.38,3.1,18.69,1.19,5.61-1.69,9.69-5.53,12.16-8.33q3.72-18.54,7.46-37.08c.22-1.13.46-2.27.68-3.4-.91-2-4.11-4-9.31-5.77l-307.07,5.76Z"/><path class="cls-4" d="M203.56,114.25a2.83,2.83,0,0,0,.17.94c3.83,10.74,73.23,19.3,158.29,19.3,81.63,0,148.84-7.88,157.51-18,.22-1.13.46-2.27.68-3.4-.91-2-4.11-4-9.31-5.77C488.73,99.54,430.44,94,362,94c-84.4,0-153.37,8.43-158.19,19.06a2.81,2.81,0,0,0-.21.66v0A2.16,2.16,0,0,0,203.56,114.25Z"/><path class="cls-3" d="M396.19,123.26C396.19,55.19,380.66,0,361.5,0s-34.69,55.19-34.69,123.26Z"/><ellipse class="cls-5" cx="387.33" cy="96.38" rx="6.56" ry="8.34"/><ellipse class="cls-6" cx="361.08" cy="96.38" rx="6.56" ry="8.34"/><ellipse class="cls-7" cx="335.77" cy="96.38" rx="6.56" ry="8.34"/><ellipse cx="456.81" cy="213.68" rx="11.25" ry="14.29"/><ellipse class="cls-7" cx="459.62" cy="207.73" rx="4.69" ry="5.95"/><path class="cls-8" d="M276.32,267.27c-4.92,0-8.91,5.07-8.91,11.32s4,11.31,8.91,11.31"/><path class="cls-8" d="M296.55,245.61c-4.92,0-8.91,5.07-8.91,11.32s4,11.31,8.91,11.31"/><path class="cls-8" d="M305.58,284.86c-4.92,0-8.91,5.07-8.91,11.31s4,11.32,8.91,11.32"/><path class="cls-8" d="M329.12,246c-4.92,0-8.91,5.07-8.91,11.32s4,11.31,8.91,11.31"/><path class="cls-8" d="M337.27,289.43c-4.92,0-8.91,5.07-8.91,11.32s4,11.31,8.91,11.31"/><path class="cls-8" d="M310,216.06c-4.92,0-8.91,5.07-8.91,11.32s4,11.31,8.91,11.31"/><path class="cls-8" d="M285,300.57c-4.92,0-8.91,5.06-8.91,11.31s4,11.31,8.91,11.31"/><ellipse class="cls-9" cx="460.86" cy="218.61" rx="19.65" ry="24.72"/><ellipse cx="463.72" cy="220.1" rx="11.25" ry="14.29"/><ellipse class="cls-7" cx="466.53" cy="214.14" rx="4.69" ry="5.95"/><path class="cls-10" d="M482.22,333.22h0a3.23,3.23,0,0,1-2.26-1.68,20.7,20.7,0,0,0-8.55-8.41c-5.73-3-11.61-2.78-15,.18-.13.11-.35-.08-.27-.23,2.6-5.16,9.88-6.41,16.93-2.68a19,19,0,0,1,9.77,13Z"/></svg>