<svg id="Layer_1" data-name="Layer 1" xmlns="http://www.w3.org/2000/svg" width="210.94" height="125.01" viewBox="0 0 210.94 125.01"><defs><style>.cls-1{fill:#c1272d;}.cls-2{fill:#006837;}.cls-3{fill:#f7931e;}</style></defs><title>taco</title><ellipse class="cls-1" cx="11.94" cy="103.81" rx="11" ry="10.85"/><ellipse class="cls-1" cx="27.94" cy="61.39" rx="11" ry="10.85"/><ellipse class="cls-1" cx="46.94" cy="35.75" rx="11" ry="10.85"/><ellipse class="cls-1" cx="83.94" cy="15.03" rx="11" ry="10.85"/><ellipse class="cls-1" cx="128.94" cy="15.03" rx="11" ry="10.85"/><ellipse class="cls-1" cx="164.94" cy="32.79" rx="11" ry="10.85"/><ellipse class="cls-1" cx="188.94" cy="65.34" rx="11" ry="10.85"/><ellipse class="cls-1" cx="199.94" cy="103.81" rx="11" ry="10.85"/><path class="cls-2" d="M0,123.15c0-7.23,12.54-13.34,13.63-20.2C14.77,95.82,4.84,86.09,7,79.49c2.26-6.85,16-8.68,19.32-14.82,3.39-6.37-2.73-18.86,1.6-24.32,4.47-5.64,18-2.46,23.32-7S56,14.87,62.16,11.6s17.16,5.28,24,3.56S98.61.77,105.82.79s12.74,12.77,19.51,14.51,17.81-6.73,24.07-3.38,5.31,17.19,10.74,21.86S179,35.25,183.4,40.92c4.28,5.49-1.92,17.94,1.41,24.33,3.23,6.17,17,8.1,19.22,15,2.13,6.63-7.87,16.28-6.79,23.41,1,6.87,13.51,13.07,13.48,20.3"/><path class="cls-3" d="M10.94,124.18c0-56.47,42.31-102.24,94.5-102.24s94.5,45.77,94.5,102.24"/></svg>
