<svg id="Layer_1" data-name="Layer 1" xmlns="http://www.w3.org/2000/svg" width="261.32" height="237.11" viewBox="0 0 261.32 237.11"><defs><style>.cls-1{fill:#f7931e;}.cls-2{fill:gold;}.cls-3{fill:#090a0a;}.cls-4{fill:#666;}</style></defs><title>ur</title><polygon class="cls-1" points="261.32 118.56 218.67 145.61 234.92 193.43 184.5 188.71 169.68 237.11 130.66 204.75 91.64 237.11 76.83 188.71 26.4 193.43 42.66 145.61 0 118.56 42.66 91.5 26.4 43.68 76.83 48.41 91.64 0 130.66 32.37 169.68 0 184.5 48.41 234.92 43.68 218.67 91.5 261.32 118.56"/><ellipse class="cls-2" cx="131.2" cy="119.19" rx="95.69" ry="90.14"/><circle class="cls-3" cx="129.76" cy="40.79" r="3.5"/><circle class="cls-3" cx="129.76" cy="198.79" r="3.5"/><circle class="cls-3" cx="201.76" cy="79.79" r="4.5"/><circle class="cls-3" cx="200.76" cy="158.79" r="3.5"/><circle class="cls-3" cx="61.76" cy="161.79" r="3.5"/><circle class="cls-3" cx="58.76" cy="80.79" r="3.5"/><circle class="cls-3" cx="173.76" cy="52.79" r="3.5"/><circle class="cls-3" cx="170.76" cy="187.79" r="3.5"/><circle class="cls-3" cx="211.76" cy="118.79" r="3.5"/><circle class="cls-3" cx="48.76" cy="122.79" r="3.5"/><circle class="cls-3" cx="93.76" cy="189.79" r="3.5"/><circle class="cls-3" cx="86.76" cy="52.79" r="3.5"/><circle class="cls-3" cx="129.76" cy="40.79" r="4.5"/><rect class="cls-4" x="128.26" y="60.29" width="5" height="55" rx="1.5"/><rect class="cls-4" x="105.08" y="89.29" width="4.33" height="47.59" rx="1.5" transform="translate(225.2 11.21) rotate(92.67)"/><circle class="cls-3" cx="130.76" cy="113.79" r="4.5"/><circle class="cls-3" cx="129.76" cy="198.79" r="4.5"/><circle class="cls-3" cx="58.76" cy="80.79" r="4.5"/><circle class="cls-3" cx="61.76" cy="161.79" r="4.5"/><circle class="cls-3" cx="200.76" cy="158.79" r="4.5"/></svg>
