<svg id="Layer_1" data-name="Layer 1" xmlns="http://www.w3.org/2000/svg" width="1920" height="1080" viewBox="0 0 1920 1080"><defs><style>.cls-1{fill:#f97070;}.cls-2{fill:#fff;}.cls-3{fill:#1f2531;}.cls-4{fill:#600972;}.cls-5{fill:#640c76;}.cls-6{fill:#68077c;}.cls-7{fill:#621372;}.cls-8{fill:#48154e;}.cls-9{fill:#5f1c6d;}.cls-10{fill:#9d42b2;}.cls-11{fill:#733480;}.cls-12{fill:#591860;}.cls-13{fill:#6b2c78;}.cls-14{fill:#692977;}.cls-15{fill:#7d2a8c;}.cls-16{fill:#4b1c51;}.cls-17{fill:#71357e;}.cls-18{fill:#ae56c3;}.cls-19{fill:#662874;}.cls-20{fill:#6a2b76;}.cls-21{fill:#5e2369;}.cls-22{fill:#6a2d77;}.cls-23{fill:#9e45b3;}.cls-24{fill:#4a1550;}.cls-25{fill:#4c1652;}.cls-26{fill:#b075bd;}.cls-27{fill:#76018e;}.cls-28{fill:#72237f;}.cls-29{fill:#77198c;}.cls-30{fill:#a86bb4;}.cls-31{fill:#9a50a7;}.cls-32{fill:#781789;}.cls-33{fill:#a060ab;}.cls-34{fill:#812c8f;}.cls-35{fill:#8c4098;}.cls-36{fill:#8a3996;}.cls-37{fill:#541459;}.cls-38{fill:#6e0783;}.cls-39{fill:#a968b6;}.cls-40{fill:#661f70;}.cls-41{fill:#9e55ab;}.cls-42{fill:#7e218e;}.cls-43{fill:#691a7a;}.cls-44{fill:#92499d;}.cls-45{fill:#5e1866;}.cls-46{fill:#8b3a98;}.cls-47{fill:#9651a0;}.cls-48{fill:#843490;}.cls-49{fill:#7f2b8d;}.cls-50{fill:#6b257b;}.cls-51{fill:#4f1355;}.cls-52{fill:#783985;}.cls-53{fill:#782d88;}.cls-54{fill:#7a288a;}.cls-55{fill:#b36fc2;}.cls-56{fill:#82049c;}.cls-57{fill:#8f19a8;}.cls-58{fill:#aa56bc;}.cls-59{fill:#ae58c1;}.cls-60{fill:#a758b7;}.cls-61{fill:#a63fba;}.cls-62{fill:#9d3caf;}.cls-63{fill:#963da6;}.cls-64{fill:#87159c;}.cls-65{fill:#8a2e9a;}.cls-66{fill:#9136a1;}.cls-67{fill:#8906a2;}.cls-68{fill:#78278a;}.cls-69{fill:#8910a4;}.cls-70{fill:#702182;}.cls-71{fill:#9c4aab;}.cls-72{fill:#88189d;}.cls-73{fill:#9c3dae;}.cls-74{fill:#9132a2;}.cls-75{fill:#8f4a9d;}.cls-76{fill:#873c98;}.cls-77{fill:#9a2fb1;}.cls-78{fill:#8e16a5;}.cls-79{fill:#9424a8;}.cls-80{fill:#a23cb7;}.cls-81{fill:#a03ab5;}.cls-82{fill:#9a33ae;}.cls-83{fill:#952ba8;}.cls-84{fill:#8e24a2;}.cls-85{fill:#9121aa;}.cls-86{fill:#9729ad;}.cls-87{fill:#9e35b3;}.cls-88{fill:#934ca2;}.cls-89{fill:#993baf;}.cls-90{fill:#ab62bb;}.cls-91{fill:#2b0635;}.cls-92{fill:#1e0125;}.cls-93{fill:#9929ae;}.cls-94{fill:#9a2eae;}.cls-95{fill:#26062e;}.cls-96{fill:#210228;}.cls-97{fill:#aa66b9;}.cls-98{fill:#a855bb;}.cls-99{fill:#c277d2;}.cls-100{fill:#be79cd;}.cls-101{fill:#ab67ba;}.cls-102{fill:#bc67cf;}.cls-103{fill:#380348;}.cls-104{fill:#2c0f33;}.cls-105{fill:#db9be9;}.cls-106{fill:#390448;}.cls-107{fill:#bf79ce;}.cls-108{fill:#b869ca;}.cls-109{fill:#c984d8;}.cls-110{fill:#ce8cdc;}.cls-111{fill:#250030;}.cls-112{fill:#b168c0;}.cls-113{fill:#cf87de;}.cls-114{fill:#2e0e35;}.cls-115{fill:#25022f;}.cls-116{fill:#2f0f37;}.cls-117{fill:#dfa3eb;}.cls-118{fill:#d99ce6;}.cls-119{fill:#cf8edd;}.cls-120{fill:#270034;}.cls-121{fill:#e8aaf5;}.cls-122{fill:#320d3b;}.cls-123{fill:#d99ce5;}.cls-124{fill:#cf91dc;}.cls-125{fill:#37163f;}.cls-126{fill:#d697e3;}.cls-127{fill:#3a0848;}.cls-128{fill:#1c0122;}.cls-129{fill:#d47807;}.cls-130{fill:#fd9f09;}.cls-131{fill:#fdb817;}.cls-132{fill:#feae0a;}.cls-133{fill:#feae09;}.cls-134{fill:#f18203;}.cls-135{fill:#f5910d;}.cls-136{fill:#fb950d;}.cls-137{fill:#fc9f0c;}.cls-138{fill:#fdaf0d;}.cls-139{fill:#f8aa20;}.cls-140{fill:#bf650a;}.cls-141{fill:#da7f12;}.cls-142{fill:#c56604;}.cls-143{fill:#e28927;}.cls-144{fill:#e6930e;}.cls-145{fill:#d57b09;}.cls-146{fill:#d57908;}.cls-147{fill:#f7a813;}.cls-148{fill:#feb521;}.cls-149{fill:#febf2c;}.cls-150{fill:#fed241;}.cls-151{fill:#ec9c12;}.cls-152{fill:#fefcdb;}.cls-153{fill:#fed41c;}.cls-154{fill:#fdc517;}.cls-155{fill:#febf16;}.cls-156{fill:#fcdb55;}.cls-157{fill:#fedb64;}.cls-158{fill:#fed045;}.cls-159{fill:#fea60b;}.cls-160{fill:#f6de7d;}.cls-161{fill:#fec73a;}.cls-162{fill:#fdd955;}.cls-163{fill:#fbee99;}.cls-164{fill:#fedb65;}.cls-165{fill:#f3d877;}.cls-166{fill:#fbdd70;}.cls-167{fill:#f09b0e;}.cls-168{fill:#ee9e12;}.cls-169{fill:#fdb828;}.cls-170{fill:#f3b429;}.cls-171{fill:#fcad18;}.cls-172{fill:#955a09;}.cls-173{fill:#f0ad21;}.cls-174{fill:#fbb72c;}.cls-175{fill:#febf30;}.cls-176{fill:#804707;}.cls-177{fill:#854a03;}.cls-178{fill:#fec52d;}.cls-179{fill:#fcd130;}.cls-180{fill:#fed73c;}.cls-181{fill:#fdf9cc;}.cls-182{fill:#fefbc6;}.cls-183{fill:#eddf91;}.cls-184{fill:#fcee59;}.cls-185{fill:#fed935;}.cls-186{fill:#764107;}.cls-187{fill:#fed339;}.cls-188{fill:#fdf46d;}.cls-189{fill:#622c01;}.cls-190{fill:#f7aa13;}.cls-191{fill:#fdb520;}.cls-192{fill:#febd2c;}.cls-193{fill:#784109;}.cls-194{fill:#fec533;}.cls-195{fill:#733f08;}.cls-196{fill:#511d00;}.cls-197{fill:#fef9b7;}.cls-198{fill:#78420a;}.cls-199{fill:#602b01;}.cls-200{fill:#602900;}.cls-201{fill:#78440d;}.cls-202{fill:#f4f085;}.cls-203{fill:#8c5108;}.cls-204{fill:#ecac25;}.cls-205{fill:#9d620c;}.cls-206{fill:#a56607;}.cls-207{fill:#fec136;}.cls-208{fill:#fec933;}.cls-209{fill:#8c5107;}.cls-210{fill:#fbc62a;}.cls-211{fill:#f5d83c;}.cls-212{fill:#864f08;}.cls-213{fill:#622b02;}.cls-214{fill:#7d4608;}.cls-215{fill:#fee535;}.cls-216{fill:#724009;}.cls-217{fill:#713e08;}.cls-218{fill:#fefe58;}.cls-219{fill:#663002;}.cls-220{fill:#fdc42a;}.cls-221{fill:#885109;}.cls-222{fill:#7d4606;}.cls-223{fill:#faf498;}.cls-224{fill:#fefe91;}.cls-225{fill:#fcae18;}.cls-226{fill:#fdb92c;}.cls-227{fill:#fdbf37;}.cls-228{fill:#814807;}.cls-229{fill:#fec234;}.cls-230{fill:#5f2a00;}.cls-231{fill:#632d02;}.cls-232{fill:#7a4206;}.cls-233{fill:#7b4306;}.cls-234{fill:#fcc735;}.cls-235{fill:#fdcd34;}.cls-236{fill:#fed132;}.cls-237{fill:#fed231;}.cls-238{fill:#885008;}.cls-239{fill:#fbdc2f;}.cls-240{fill:#895108;}.cls-241{fill:#9d5f07;}.cls-242{fill:#fdfc52;}.cls-243{fill:#fcda30;}.cls-244{fill:#fefd50;}.cls-245{fill:#fec932;}.cls-246{fill:#9c5e07;}.cls-247{fill:#fed430;}.cls-248{fill:#f7e53d;}.cls-249{fill:#fdc636;}.cls-250{fill:#fdcc34;}.cls-251{fill:#fed633;}.cls-252{fill:#f4e13d;}.cls-253{fill:#612b02;}.cls-254{fill:#7d4808;}.cls-255{fill:#7d4a0a;}.cls-256{fill:#885108;}.cls-257{fill:#1f2532;}.cls-258{fill:#fe9107;}.cls-259{fill:#fefefe;}.cls-260{fill:#fdfdfd;}.cls-261{fill:#fefefd;}.cls-262{fill:#222835;}.cls-263{fill:#232835;}.cls-264{fill:#fe930b;}.cls-265{fill:#3b3b3b;}.cls-266{fill:#3d3d3d;}.cls-267{fill:#9f9f9f;}.cls-268{fill:#404040;}.cls-269{fill:#3e3e3e;}.cls-270{fill:#464646;}.cls-271{fill:#3f3f3f;}</style></defs><title>darligstil2</title><rect class="cls-1" x="-0.07" y="-0.24" width="1920" height="1080"/><path d="M711,469c-.05-.83-.07-1.62-.07-2.35q0-6.66,2.2-10.11T722,453.2c1,0,2,0,3.07.14a34,34,0,0,1,16.56,6.3,51.12,51.12,0,0,1,12.41,13,68.32,68.32,0,0,1,8,16l.29,1a92,92,0,0,1,4,23.29c.1,1.51.15,3,.15,4.54A79.73,79.73,0,0,1,764.07,537a53.4,53.4,0,0,1-10.18,20.7A42.32,42.32,0,0,1,734.34,571a26.59,26.59,0,0,1-8.13,1.39,17.57,17.57,0,0,1-7.69-1.68q-6.75-3.3-7.47-13.48c0-1.31-.08-2.66-.08-4,0-2.73.08-5.59.22-8.56q.07-3.45.15-6.6.07-10.62.07-21.24Q711.41,492.9,711,469Zm31.57,5.12q-6.15-6.58-9.08-6.59a3.18,3.18,0,0,0-.66.07c-1.91.59-3,2.69-3.3,6.3-.14,2-.22,4-.22,6.08,0,1.76.05,3.54.15,5.35q.08,2.26.15,4.17v2.42q.21,11.65.22,23.29,0,16-.44,32c-.05.83-.08,1.64-.08,2.42a35.62,35.62,0,0,0,.3,4.68q.43,3.38,2.49,4.54a2.84,2.84,0,0,0,1.31.3c1.42,0,3.27-.71,5.57-2.13a34.32,34.32,0,0,0,12.38-15.12,58.85,58.85,0,0,0,4.61-20c.1-1.76.15-3.49.15-5.2A79.05,79.05,0,0,0,754.77,502,65.56,65.56,0,0,0,742.54,474.14Z"/><path d="M799.52,541.53q-1.39,8.26-2.42,16.62A14,14,0,0,1,794,566q-2.56,3-7.76,3c-3.57-.14-5.91-1.29-7-3.44a11.53,11.53,0,0,1-1.17-5.35,19.69,19.69,0,0,1,.22-2.78q1.61-12.3,4.43-30.25t6.81-35.27q4-17.31,9.12-27.86,3.58-6.37,9.09-7.25a12.07,12.07,0,0,1,1.9-.15q4.62,0,9.15,3.81,4.26,4,8.06,15.16a223.74,223.74,0,0,1,6.89,25.52q3.07,14.4,5.27,28.24t3.37,24.75a20.39,20.39,0,0,1,.22,3.08,24.5,24.5,0,0,1-.44,4.47A6.66,6.66,0,0,1,837,567a8.77,8.77,0,0,1-1.1.08,4.14,4.14,0,0,1-3.66-1.83,10.44,10.44,0,0,1-1.83-5.06q-1.17-11.49-2.49-21.53Zm9.74-112.72a5.33,5.33,0,0,1,.88-.08,5.56,5.56,0,0,1,1.54.22q7.17,1.17,10.25,5.35a8.55,8.55,0,0,1,1.69,5.13,11.94,11.94,0,0,1-1,4.46q-3.45,7-8.43,7.84a10.85,10.85,0,0,1-2.19.22,13.06,13.06,0,0,1-7.33-2.34,18.16,18.16,0,0,1-6.66-7.55,9.92,9.92,0,0,1-1-4.25,8.07,8.07,0,0,1,1.17-4.17Q800.56,429.76,809.26,428.81Zm-8,102.1,25.12-2.49a3.88,3.88,0,0,1-.14-.74c-.25-1.61-.71-4.56-1.4-8.86s-1.5-9.12-2.45-14.46-2-10.45-3.08-15.31A76.83,76.83,0,0,0,816,477.59c-.78-2.1-1.54-3.15-2.27-3.15a1,1,0,0,0-.66.36q-1.47,2.35-4,14.21t-4.76,24.39q-2.28,12.52-3,17.07Zm8.86-94c-2.15.14-3.32.61-3.51,1.39a1.32,1.32,0,0,0-.08.44,3.08,3.08,0,0,0,1.1,2.05,8.42,8.42,0,0,0,3.08,2,3.4,3.4,0,0,0,1.24.3,1.79,1.79,0,0,0,1.32-.51,1.49,1.49,0,0,0,.37-1.1,9.14,9.14,0,0,0-.73-2.93,2.53,2.53,0,0,0-1-1.17A4,4,0,0,0,810.14,436.94Z"/><path d="M906,573.24a6.86,6.86,0,0,1-5-1.9q-3.6-3.45-6.16-12.82l-4.17-13q-4.77-15.6-11.28-31.27a6.76,6.76,0,0,1-.59-2.2,5.49,5.49,0,0,1,3.3-5.05q10.47-5.41,14.87-14.28a20.49,20.49,0,0,0,2.19-8.94q0-14.94-21.09-20.43L878,509.52q0,39.56.37,50a20.64,20.64,0,0,1-1.46,7.84q-1.7,4.11-7.84,4.25-8.71-.51-9.38-10.69l-.07-3.74q0-2.41.15-4.83.36-28,.36-44.17,0-14.94-.36-44.09c0-3.57.75-6.32,2.27-8.28q2.78-3.51,9.15-3.51a41.57,41.57,0,0,1,11.43,1.61,45.18,45.18,0,0,1,16.29,8,28.59,28.59,0,0,1,9.64,13.36,23.58,23.58,0,0,1,1.17,7.48,33.59,33.59,0,0,1-1.83,10.47q-4.4,12.6-17.21,20.73,5.63,13.18,11.05,26.36l7.91,18.75q2.35,5.28,2.35,8.57a7.45,7.45,0,0,1-.37,2.42C911,572,909.14,573,906,573.24Z"/><path d="M930.33,475a11,11,0,0,0,.08-1.25,48.79,48.79,0,0,1,.65-7.94,10.6,10.6,0,0,1,3.08-6.19,7.3,7.3,0,0,1,5-1.54,19.24,19.24,0,0,1,2.78.22q4.54.94,6.16,4.1a15.6,15.6,0,0,1,1.54,7v.37a65.09,65.09,0,0,1-.66,8.2c-.2,1.61-.35,3.08-.44,4.4q-1,16.26-1,30.39,0,10.26.52,20.51v1.46c.09,2.5.33,5.39.69,8.68a36.23,36.23,0,0,0,2.16,9.09,9.24,9.24,0,0,0,5,5.53,16.88,16.88,0,0,0,4.62.58c.49,0,1,0,1.54-.07h1.17A20.43,20.43,0,0,1,968,559a4.56,4.56,0,0,1,3.44,3.74,8.55,8.55,0,0,1,.07,1.1,3.91,3.91,0,0,1-1.9,3.58,13.21,13.21,0,0,1-5.86,1.76c-1.86.15-3.51.22-5,.22h-3.3q-11.26,0-16.18-3.95Q934,561.22,931.65,549a149.88,149.88,0,0,1-2.56-28.86v-.88q0-16.26.8-33.62C930.09,481.88,930.23,478.32,930.33,475Z"/><path d="M985.12,557a66.45,66.45,0,0,1-1.69-16.19q.23-14.06.22-28.12,0-22.12.15-42.78v-.07l-3.37.15q-3.23-1.39-3.22-3.81v-.59q0-5,7.32-5.86l16.7-1.17q5,.88,5,4.1v1.76c0,2.35-2.22,4-6.66,4.91.19.63.36,1.32.51,2.05a71.7,71.7,0,0,1,1.17,9.12q.22,4.06.22,6.7v17.36c-.05,3.86-.07,7.71-.07,11.57q0,12.09.22,24.1a71.87,71.87,0,0,1-1.76,16.48q6.38.28,6.37,5-.15,5.26-5.93,5.27H989.51q-3.66,0-7.1.29-5.79,0-5.79-5,.07-5.26,7.91-5.27Z"/><path d="M1024.38,536.47a117.46,117.46,0,0,1-2.5-16.55c-.24-3.08-.36-6.37-.36-9.89,0-2.64.07-5.39.22-8.27a100.15,100.15,0,0,1,3-20,46,46,0,0,1,8.16-17.1,26.33,26.33,0,0,1,15.24-9.53,36.74,36.74,0,0,1,7.91-.88,34.74,34.74,0,0,1,8.06,1,20.16,20.16,0,0,1,12.37,9.3,34.82,34.82,0,0,1,3.67,10.14,69.9,69.9,0,0,1,1.31,10.73l.08,1.25c.09,1.9.14,3.78.14,5.64a5.39,5.39,0,0,1-1.75,3.59,5.26,5.26,0,0,1-3.52,1.24h-.22a5.4,5.4,0,0,1-3.59-1.76,5.23,5.23,0,0,1-1.24-3.51v-.95a82,82,0,0,0-.81-10.63,26.65,26.65,0,0,0-3.88-11.35,8.72,8.72,0,0,0-7.84-4.1,11.77,11.77,0,0,0-1.83.15q-6.74,1.32-10.36,8.05a47.8,47.8,0,0,0-5,16,115.29,115.29,0,0,0-1.31,17.14V507a135.81,135.81,0,0,0,.58,14.13q.3,3.38,1.58,10.84a103.55,103.55,0,0,0,3.8,15.09q2.53,7.62,6.49,11.43a6.09,6.09,0,0,0,4.32,1.9,9.21,9.21,0,0,0,5.2-2,23,23,0,0,0,7.29-13.59,112.56,112.56,0,0,0,1.64-15.86c0-.88.08-1.68.08-2.42,0-2.88-.52-5-1.54-6.37-1.37-1.71-3.79-2.85-7.25-3.44a12.9,12.9,0,0,1-4.69-1.54,3.66,3.66,0,0,1-1.76-3.44,6.64,6.64,0,0,1,.08-1,5.17,5.17,0,0,1,4.39-4.1,27.56,27.56,0,0,1,5.93-.66h2.57c.63-.05,1.27-.08,1.9-.08q5.87,0,8.35,2.13,2.79,2.42,2.93,10.33c0,1.46.07,3,.07,4.54,0,4.24-.19,8.79-.58,13.62a65.73,65.73,0,0,1-3.81,17.5q-5.49,14-20.29,16.7a32.54,32.54,0,0,1-5.57.52q-13.19,0-20.28-12.68a61.5,61.5,0,0,1-4.51-10.8Q1025.54,542.12,1024.38,536.47Z"/><path d="M1155.33,471.36a18.42,18.42,0,0,0-2.49,5.42c0,.68-.07,1.34-.07,2a26.7,26.7,0,0,0,2.64,11.57,78,78,0,0,0,7,12.08,146,146,0,0,0,9.44,12.24,119.71,119.71,0,0,1,9.93,13.11,31.88,31.88,0,0,1,5.09,14.2,19.18,19.18,0,0,1,.15,2.42q0,6.68-4,14.8-4.85,7-11.14,8.93a42.1,42.1,0,0,1-12.08,1.61c-.68,0-1.39,0-2.12-.07a37.48,37.48,0,0,1-6.12-.73,30.3,30.3,0,0,1-5.9-2,15.2,15.2,0,0,1-6.22-4.91,6.85,6.85,0,0,1-1.54-4.32,8.77,8.77,0,0,1,.59-3.07q1.17-2.35,2.85-2.49a2.2,2.2,0,0,1,.52-.08,5.22,5.22,0,0,1,2.85,1,19.18,19.18,0,0,1,3.15,2.26q4.83,4.19,8.57,4.18h.51q4-.36,9-5.2l.59-.88a17.87,17.87,0,0,0,2.42-8.64,14.83,14.83,0,0,0-.59-4.1,33,33,0,0,0-6.15-11.72q-2.49-3.23-4.91-6.3-6.81-8.5-12.52-17.17a81.65,81.65,0,0,1-9.31-19.75,35.42,35.42,0,0,1-.8-7.25,21.56,21.56,0,0,1,3.59-12.45,22.46,22.46,0,0,1,14.72-9.66,22.15,22.15,0,0,1,4.47-.44,29.35,29.35,0,0,1,14.86,4.46,25.34,25.34,0,0,1,4.18,3.34,17.65,17.65,0,0,1,3.66,4.87,6.11,6.11,0,0,1,.66,2.63,5.37,5.37,0,0,1-.59,2.42,3.56,3.56,0,0,1-3,2,3.67,3.67,0,0,1-1.17-.22,22.55,22.55,0,0,1-5.64-3.08,24.55,24.55,0,0,0-7.62-3.88,5.64,5.64,0,0,0-1.76-.29Q1158,468.14,1155.33,471.36Z"/><path d="M1202.72,482.05c0-.48,0-1.07.07-1.76,0-.92.08-1.85.08-2.78s0-1.88-.08-2.85c-.1-2-.63-3.3-1.61-3.89a11.36,11.36,0,0,0-2.85-.36,15,15,0,0,0-2.86.29,16.58,16.58,0,0,1-2.64.22,13.42,13.42,0,0,1-2.85-.29c-1.62-.34-2.69-1.69-3.23-4a8.66,8.66,0,0,1-.07-1.1,4.11,4.11,0,0,1,1.24-3.15,6.74,6.74,0,0,1,4.18-1.76q5.06-.51,10-.95l5.79-.59c.78,0,2-.17,3.59-.36l8-.81q4.47-.44,8.13-.73c1.42-.1,2.54-.15,3.37-.15a10.88,10.88,0,0,1,1.47.08,5.86,5.86,0,0,1,4.1,2.85,4.62,4.62,0,0,1,.44,1.91,4.53,4.53,0,0,1-.74,2.42q-1.38,2.19-5.42,2.93-2.11.36-3.66.51a13.94,13.94,0,0,0-4.5.95,3.17,3.17,0,0,0-1.58,2.78,30.53,30.53,0,0,0-.22,4.11c0,.92,0,1.92.08,3l.07,1.68q.08,11.36.07,22.78v11.35q0,18.67.22,37.36v1.68a56.23,56.23,0,0,1-.36,6.23,12.79,12.79,0,0,1-2.71,6.74q-1.9,2.19-5.79,2.19c-.54,0-1.07,0-1.61-.07-3.22-.49-5.45-2-6.67-4.47a20.89,20.89,0,0,1-2-8.72V552.8c0-2.44.09-4.8.29-7.1.1-1.71.17-3.22.22-4.54q.08-6.45.07-12.89t-.07-13q-.08-7.6-.07-15.23v-1Q1202.65,490.55,1202.72,482.05Z"/><path d="M1253.7,557a66.45,66.45,0,0,1-1.69-16.19q.23-14.06.22-28.12,0-22.12.15-42.78v-.07L1249,470q-3.23-1.39-3.22-3.81v-.59q0-5,7.32-5.86l16.7-1.17q5,.88,5,4.1v1.76c0,2.35-2.22,4-6.67,4.91a20.4,20.4,0,0,1,.52,2.05,71.7,71.7,0,0,1,1.17,9.12q.23,4.06.22,6.7v17.36c0,3.86-.07,7.71-.07,11.57q0,12.09.22,24.1a71.87,71.87,0,0,1-1.76,16.48q6.38.28,6.37,5-.15,5.26-5.93,5.27h-10.77q-3.66,0-7.1.29-5.79,0-5.79-5,.08-5.26,7.91-5.27Z"/><path d="M1294.49,475a11,11,0,0,0,.08-1.25,48.79,48.79,0,0,1,.65-7.94,10.6,10.6,0,0,1,3.08-6.19,7.3,7.3,0,0,1,5-1.54,19.24,19.24,0,0,1,2.78.22q4.55.94,6.16,4.1a15.6,15.6,0,0,1,1.53,7v.37a63.28,63.28,0,0,1-.65,8.2c-.2,1.61-.35,3.08-.44,4.4q-1,16.26-1,30.39,0,10.26.52,20.51v1.46c.09,2.5.33,5.39.69,8.68a36.23,36.23,0,0,0,2.16,9.09,9.24,9.24,0,0,0,5,5.53,16.88,16.88,0,0,0,4.62.58c.49,0,1,0,1.54-.07h1.17a20.43,20.43,0,0,1,4.76.51,4.56,4.56,0,0,1,3.44,3.74,8.55,8.55,0,0,1,.07,1.1,3.91,3.91,0,0,1-1.9,3.58,13.21,13.21,0,0,1-5.86,1.76c-1.86.15-3.51.22-5,.22h-3.3q-11.28,0-16.18-3.95-5.28-4.26-7.62-16.48a149.88,149.88,0,0,1-2.56-28.86v-.88q0-16.26.8-33.62C1294.25,481.88,1294.39,478.32,1294.49,475Z"/><path d="M1346.64,468.43v-.95a49.18,49.18,0,0,1,.37-5.94,13.41,13.41,0,0,1,2.3-6.22c1.25-1.76,3.26-2.73,6-2.93q5.72,0,8.05,3.81a17.13,17.13,0,0,1,2.42,8.93c0,4.16-.12,8.35-.37,12.6-.14,3.57-.24,7.15-.29,10.77q.07,14.65.51,29.29-.15,5.72-2.78,16.89t-7,11.17q-5.79-.51-7.33-17.43T1347,499.56q0-8.51-.15-17v-1q-.08-3-.07-6Q1346.72,472,1346.64,468.43Zm.88,89.72a9,9,0,0,1,6.66-4.69,9.85,9.85,0,0,1,1.62-.14,10.64,10.64,0,0,1,6.22,2,9.36,9.36,0,0,1,3.66,6.74,5.14,5.14,0,0,1,.08.88,8.59,8.59,0,0,1-2.71,6.22q-2.41,2.49-7.25,2.49a17.77,17.77,0,0,1-2.27-.15c-3.33-.63-5.4-2.29-6.23-5a12.38,12.38,0,0,1-.59-3.8A14.06,14.06,0,0,1,1347.52,558.15Z"/><rect x="63.87" y="30.38" width="155.79" height="97.8" rx="12"/><rect x="75.2" y="192.74" width="137.66" height="101.64" rx="12"/><rect x="20.25" y="114.75" width="247" height="88.85" rx="12"/><path class="cls-2" d="M104.6,52.49c.27-3,.5-5.92.66-8.85a8.3,8.3,0,0,1,1-3.7,2.26,2.26,0,0,1,2.12-1.36,2.93,2.93,0,0,1,2.9,3.14c0,.43,0,.89,0,1.35a17.86,17.86,0,0,1-.25,3c0,.47-.11.89-.16,1.27-.09.87-.16,1.74-.21,2.62q-1,11.65-2.49,23.92t-3.9,23.36a2.66,2.66,0,0,0-.08.33,60.21,60.21,0,0,1-2.06,7.35,12.09,12.09,0,0,1-3.92,5.9,7.42,7.42,0,0,1-3.9,1.27,5.43,5.43,0,0,1-2.41-.57,9.14,9.14,0,0,1-4.56-5.1,84.78,84.78,0,0,1-3.82-13q-1.74-7.82-2.69-13.57-1.62-10.17-3-20.47-.75-5.61-1.54-11.19a15.27,15.27,0,0,1-.24-2.57,7.38,7.38,0,0,1,.54-3c.6-1.4,2.08-2.17,4.43-2.29h.13a4.63,4.63,0,0,1,4.11,2.06,13.79,13.79,0,0,1,1.91,5.15,58,58,0,0,1,.74,5.9c.06.81.13,1.54.21,2.2A362.94,362.94,0,0,0,95,96.31c.64,2.59,1.17,4,1.58,4.31a.43.43,0,0,0,.25.09c.33,0,.64-.44.91-1.31a36.31,36.31,0,0,0,.92-4c.1-.56.22-1.11.33-1.64q2.07-10.22,3.36-20.55T104.6,52.49Z"/><path class="cls-2" d="M144.64,91.91l-15.81,1.78c-.53,3.52-1,7.07-1.37,10.62a9.59,9.59,0,0,1-1.74,5,5.17,5.17,0,0,1-4.4,1.92q-3-.13-4-2.2a8,8,0,0,1-.67-3.42,12.31,12.31,0,0,1,.13-1.77q.92-7.87,2.51-19.34T123.17,62a93.43,93.43,0,0,1,5.16-17.82c1.36-2.71,3.07-4.26,5.15-4.63a6.57,6.57,0,0,1,1.08-.1,7.57,7.57,0,0,1,5.18,2.44q2.41,2.56,4.57,9.69c.11.34.22.7.33,1.07,0-.9.05-1.79.08-2.66,0-.44,0-.86,0-1.27a14.88,14.88,0,0,1,1-6.13,3.81,3.81,0,0,1,3-2.15,19.47,19.47,0,0,1,3-.19c.75,0,1.56,0,2.45.09a2.73,2.73,0,0,0,.5,0h3.07c1.63,0,3.25,0,4.87,0a14.63,14.63,0,0,1,3.22.28,3.46,3.46,0,0,1,2.24,2.2,2.86,2.86,0,0,1,.12.79,3,3,0,0,1-.83,2c-.77.87-2.2,1.32-4.27,1.35h-1.45A10.86,10.86,0,0,0,160.2,47a7.59,7.59,0,0,0-3.32.66q-1.83.89-2,5.15v.93q0,6.33-.29,12.55c0,.91-.07,1.83-.13,2.76,0,2,.35,3.16,1,3.56a4.19,4.19,0,0,0,2,.38c.33,0,.71,0,1.12,0a13.84,13.84,0,0,1,1.66-.1c.28,0,.61,0,1,0s1-.05,1.57-.05,1.12,0,1.7.05a4.71,4.71,0,0,1,2.62.79A3.42,3.42,0,0,1,168.21,76a4.46,4.46,0,0,1-.13,1,3.14,3.14,0,0,1-3,2.35h-.66c-.47,0-1,0-1.74,0q-1.34-.09-2.7-.09l-1.33,0a5.89,5.89,0,0,0-2.78.47,5.81,5.81,0,0,0-1.37,3.56c0,.4,0,.81,0,1.22a21,21,0,0,0,.21,2.9c.08.66.14,1.29.16,1.92a5.12,5.12,0,0,1,0,.7,53.15,53.15,0,0,0,.56,5.5,14.06,14.06,0,0,0,1.7,5.06,5.64,5.64,0,0,0,3.88,2.74c.94.09,1.88.14,2.82.14s1.88,0,2.82-.14l2.41-.19a3.36,3.36,0,0,1,3,1.69,3.12,3.12,0,0,1,.46,1.59,3.71,3.71,0,0,1-.46,1.73q-.94,1.68-4.35,2c-1.58.1-3.36.14-5.35.14h-2.45a25.68,25.68,0,0,1-7.55-1,8.74,8.74,0,0,1-5.09-5,32.91,32.91,0,0,1-2-7.63C145.05,95.14,144.83,93.53,144.64,91.91Zm-14.81-5,14.23-1.6a2.82,2.82,0,0,1-.09-.46c-.13-1-.4-2.92-.78-5.67s-.85-5.83-1.39-9.24-1.12-6.68-1.75-9.79a55.7,55.7,0,0,0-1.88-7.33q-.67-2-1.29-2a.55.55,0,0,0-.37.23c-.56,1-1.3,4-2.24,9.09s-1.84,10.25-2.7,15.59-1.43,9-1.7,10.91Z"/><path class="cls-2" d="M205.18,114a3.69,3.69,0,0,1-2.83-1.22q-2-2.2-3.48-8.19l-2.37-8.29q-2.69-10-6.39-20a5,5,0,0,1-.33-1.4,3.57,3.57,0,0,1,1.87-3.24,19.67,19.67,0,0,0,8.42-9.13,14.37,14.37,0,0,0,1.25-5.71q0-9.54-11.95-13.06l-.09,29.5q0,25.27.21,32a14.47,14.47,0,0,1-.83,5q-.94,2.63-4.44,2.72-4.93-.33-5.31-6.84l0-2.38c0-1,0-2.07.08-3.09q.21-17.9.21-28.24,0-9.54-.21-28.18a9.25,9.25,0,0,1,1.29-5.29q1.57-2.25,5.19-2.25a20.89,20.89,0,0,1,6.47,1,24.49,24.49,0,0,1,9.23,5.13,18.41,18.41,0,0,1,5.46,8.54,16.88,16.88,0,0,1,.66,4.78,24,24,0,0,1-1,6.69,25.11,25.11,0,0,1-9.75,13.25q3.19,8.43,6.27,16.86l4.48,12a16,16,0,0,1,1.33,5.48,5.43,5.43,0,0,1-.21,1.55Q207.83,113.76,205.18,114Z"/><path class="cls-2" d="M29.73,133.57c0-.44,0-.86,0-1.27a14.85,14.85,0,0,1,1-6.13,3.85,3.85,0,0,1,3-2.16,20.85,20.85,0,0,1,2.94-.18c.75,0,1.57,0,2.45.09a2.83,2.83,0,0,0,.5,0h3.07c1.63,0,3.26,0,4.87,0a16,16,0,0,1,3.22.28A3.47,3.47,0,0,1,53,126.5a3.06,3.06,0,0,1,.13.84,2.92,2.92,0,0,1-.83,2c-.78.88-2.2,1.33-4.28,1.36H46.58a10.86,10.86,0,0,0-1.37-.09,7.74,7.74,0,0,0-3.32.65q-1.83.9-2,5.16v.93q0,6.33-.29,12.55c0,.9-.07,1.82-.13,2.76,0,2,.35,3.15,1,3.56a4.37,4.37,0,0,0,1.95.37c.36,0,.73,0,1.12,0a13.84,13.84,0,0,1,1.66-.1c.28,0,.61,0,1,0s1-.05,1.57-.05,1.12,0,1.71.05a4.62,4.62,0,0,1,2.61.79,3.56,3.56,0,0,1,1.08,2.53,3.83,3.83,0,0,1-.13,1,3.12,3.12,0,0,1-3,2.34h-.62c-.5,0-1.09,0-1.78,0-.89,0-1.77-.05-2.66-.05H43.63a5.92,5.92,0,0,0-2.78.47A5.87,5.87,0,0,0,39.48,167c0,.4,0,.81,0,1.21a21,21,0,0,0,.21,2.91c.08.65.14,1.29.17,1.92,0,.22,0,.45,0,.7a53.15,53.15,0,0,0,.56,5.5,14.13,14.13,0,0,0,1.7,5.06A5.66,5.66,0,0,0,46,187c.94.09,1.88.14,2.82.14s1.88,0,2.82-.14l2.41-.19a3.4,3.4,0,0,1,3,1.68,3.33,3.33,0,0,1,.45,1.64,3.79,3.79,0,0,1-.45,1.69q-1,1.68-4.36,2c-1.58.13-3.36.19-5.35.19-.78,0-1.59,0-2.45,0a25.68,25.68,0,0,1-7.55-1,8.72,8.72,0,0,1-5.08-5,32.42,32.42,0,0,1-2-7.63,121.07,121.07,0,0,1-1.37-18.64v-.56q0-10.24.5-20.08Q29.61,137.18,29.73,133.57Z"/><path class="cls-2" d="M99,190.17c-.63,2.31-1.43,3.46-2.4,3.46a2,2,0,0,1-.42,0Q94.42,193,92.51,190A54,54,0,0,1,89,183.43C88,181.09,87.2,179.29,86.7,178c-.11-.31-.2-.56-.29-.75q-2.16-6.56-4.19-11.79-1.12-3-2.28-5.9-.25-.71-.54-1.41c-.44-1.12-.87-2.26-1.29-3.41-.91-2.44-1.84-4.84-2.78-7.22l-.12-.28c-.22-.53-.36-.79-.42-.79v1.59q-.08,5.38-.08,10.81,0,12.6.42,25.24c0,.62,0,1.25,0,1.87a31.14,31.14,0,0,1-.17,3.19,7.93,7.93,0,0,1-1.58,4.14Q72.14,195,69.19,195a4.18,4.18,0,0,1-3.57-1.85,9.17,9.17,0,0,1-1.2-4.19c0-.85-.08-1.67-.08-2.49s0-1.6.08-2.38c0-.63,0-1.2,0-1.74q.09-5.85.09-11.75,0-7.35-.13-14.7l-.08-11.52v-8a27.13,27.13,0,0,1,.25-3.66,8.56,8.56,0,0,1,1.51-3.91,4.22,4.22,0,0,1,3.63-1.61,5.6,5.6,0,0,1,4,1.82,14.21,14.21,0,0,1,2.63,4.29q1,2.55,1.79,5.08.45,1.46.87,2.67c.11.34.29.84.54,1.49.74,2.1,1.83,5.12,3.25,9.09s2.94,8.09,4.55,12.38,3,8.21,4.33,11.75,2.15,5.49,2.6,5.83h.08c.14,0,.25-.2.33-.61a14,14,0,0,0,.17-1.75c0-.7,0-1.4,0-2.09s0-1.21,0-1.59v-.33q-.26-14.74-1.66-27.67-.87-8.9-1.41-18v-.24c0-.43,0-.87,0-1.31s0-.93,0-1.4a4.52,4.52,0,0,1,1-2.6,4,4,0,0,1,3.27-1.1,2.27,2.27,0,0,1,2.22,1.33,8.61,8.61,0,0,1,.77,3.21c.06.9.08,1.79.08,2.67v2.57q.17,4.88.38,9.88.38,9.56.58,19.2c0,1.71,0,3.43,0,5.15q0,8.43-.33,15.21A42.74,42.74,0,0,1,99,190.17Z"/><path class="cls-2" d="M133.13,174.06a85.35,85.35,0,0,1-1.41-10.58q-.21-2.94-.21-6.32c0-1.68.05-3.45.13-5.29a72.11,72.11,0,0,1,1.72-12.76A31.42,31.42,0,0,1,138,128.18a14.75,14.75,0,0,1,8.63-6.08,18.1,18.1,0,0,1,4.48-.57,17.87,17.87,0,0,1,4.56.61,11.7,11.7,0,0,1,7,6,24.11,24.11,0,0,1,2.07,6.48,50.78,50.78,0,0,1,.75,6.86l0,.8c.05,1.22.08,2.42.08,3.6a3.63,3.63,0,0,1-1,2.3,2.79,2.79,0,0,1-2,.79h-.12a2.92,2.92,0,0,1-2-1.12,3.64,3.64,0,0,1-.71-2.25v-.61a58.05,58.05,0,0,0-.46-6.79,18.38,18.38,0,0,0-2.19-7.25,4.81,4.81,0,0,0-4.44-2.62,6.27,6.27,0,0,0-1,.09c-2.55.56-4.5,2.28-5.87,5.15a33.14,33.14,0,0,0-2.8,10.2,82.87,82.87,0,0,0-.75,11v.56q0,5.63.33,9,.16,2.15.89,6.93a74.73,74.73,0,0,0,2.16,9.64,18.58,18.58,0,0,0,3.67,7.31,3.31,3.31,0,0,0,2.45,1.21,4.86,4.86,0,0,0,2.95-1.26,15.3,15.3,0,0,0,4.13-8.69,80.63,80.63,0,0,0,.93-10.13c0-.56,0-1.08,0-1.55a7.48,7.48,0,0,0-.87-4.07,6.21,6.21,0,0,0-4.11-2.2,6.8,6.8,0,0,1-2.65-1,2.43,2.43,0,0,1-1-2.2,4.45,4.45,0,0,1,0-.61,3.15,3.15,0,0,1,2.49-2.63,14.58,14.58,0,0,1,3.36-.42h1.45c.36,0,.72,0,1.08,0,2.22,0,3.79.45,4.73,1.36s1.61,3.23,1.66,6.6c0,.93.05,1.9.05,2.9,0,2.71-.12,5.62-.34,8.71a46.8,46.8,0,0,1-2.15,11.19Q160.39,194.29,152,196a16.15,16.15,0,0,1-3.15.33q-7.47,0-11.49-8.1a41.93,41.93,0,0,1-2.56-6.91C134.14,178.89,133.58,176.47,133.13,174.06Z"/><path class="cls-2" d="M197.74,121.91a12.42,12.42,0,0,1,8.15,4.19,24.36,24.36,0,0,1,4.65,8.45,59.67,59.67,0,0,1,2.3,9.74,95.56,95.56,0,0,1-.83,32.4,43.85,43.85,0,0,1-3.82,10.53,19.21,19.21,0,0,1-6.68,7.54,12.54,12.54,0,0,1-6.8,1.82,19.49,19.49,0,0,1-3.4-.32,11.85,11.85,0,0,1-6.46-3.68,21.45,21.45,0,0,1-3.92-6.58,60.33,60.33,0,0,1-2.36-7.63,91,91,0,0,1-2.24-15.92c-.09-1.71-.13-3.41-.13-5.1a90.89,90.89,0,0,1,.87-12.59,41.08,41.08,0,0,1,4.86-14.94,16.41,16.41,0,0,1,6.76-6.55,15.41,15.41,0,0,1,6.85-1.5A16.56,16.56,0,0,1,197.74,121.91ZM205.45,179A78.34,78.34,0,0,0,207,167.7q.47-5.3.46-11c0-1.52,0-3.07-.09-4.63a64.09,64.09,0,0,0-2-14.75q-1.74-6.47-5.56-8.47a5.4,5.4,0,0,0-2.24-.52,4.6,4.6,0,0,0-2.61.84,11.79,11.79,0,0,0-3.74,4,22.41,22.41,0,0,0-2.24,5A68.3,68.3,0,0,0,187,153c-.06,1.34-.08,2.68-.08,4a100.39,100.39,0,0,0,.83,13,50.26,50.26,0,0,0,3.69,14.28q2.28,4.74,4.89,5.11a5.12,5.12,0,0,0,.67,0,5.83,5.83,0,0,0,4.27-2.2,18.37,18.37,0,0,0,3.7-6.46C205.11,180.18,205.29,179.62,205.45,179Z"/><path class="cls-2" d="M225.83,130.94c0-.53,0-1,0-1.49A13.44,13.44,0,0,1,227,123q1.25-2.15,5-2.15c.55,0,1.14,0,1.74.09a18,18,0,0,1,9.38,4,31.27,31.27,0,0,1,7,8.29,46.3,46.3,0,0,1,4.55,10.25l.16.61A66.31,66.31,0,0,1,257.2,159c.05,1,.08,1.93.08,2.9a57.34,57.34,0,0,1-1.37,12.5,36.26,36.26,0,0,1-5.77,13.23,24.16,24.16,0,0,1-11.08,8.54,13.54,13.54,0,0,1-4.6.89A9,9,0,0,1,230.1,196q-3.81-2.1-4.23-8.61c0-.84,0-1.7,0-2.57,0-1.75,0-3.58.12-5.48,0-1.47.06-2.87.08-4.22q0-6.78.05-13.57Q226.08,146.2,225.83,130.94Zm17.88,3.28c-2.32-2.81-4-4.21-5.14-4.21a1.48,1.48,0,0,0-.38,0c-1.08.38-1.7,1.72-1.86,4-.09,1.25-.13,2.54-.13,3.89,0,1.12,0,2.26.08,3.41q0,1.45.09,2.67v1.55q.12,7.44.12,14.89,0,10.24-.25,20.46c0,.53,0,1,0,1.54a26.6,26.6,0,0,0,.17,3,3.72,3.72,0,0,0,1.41,2.9,1.43,1.43,0,0,0,.74.19,6.17,6.17,0,0,0,3.16-1.36,21.57,21.57,0,0,0,7-9.67,41.6,41.6,0,0,0,2.61-12.8c.06-1.13.09-2.23.09-3.33a56.69,56.69,0,0,0-.75-9.41A44.82,44.82,0,0,0,243.71,134.22Z"/><path class="cls-2" d="M111.53,228.51c.27-3,.5-5.91.66-8.85a8.33,8.33,0,0,1,1-3.7,2.27,2.27,0,0,1,2.12-1.35,2.81,2.81,0,0,1,.87.14,3.17,3.17,0,0,1,2,3c0,.44,0,.89,0,1.36a17.86,17.86,0,0,1-.25,3c-.05.47-.11.89-.16,1.26-.09.88-.16,1.75-.21,2.62q-1,11.67-2.49,23.93t-3.9,23.36a2,2,0,0,0-.08.33,60.21,60.21,0,0,1-2.06,7.35,12.09,12.09,0,0,1-3.92,5.9,7.4,7.4,0,0,1-3.9,1.26,5.56,5.56,0,0,1-2.41-.56,9.17,9.17,0,0,1-4.56-5.1,85.12,85.12,0,0,1-3.82-13q-1.74-7.82-2.69-13.58-1.62-10.16-3-20.46-.75-5.61-1.54-11.19a15.36,15.36,0,0,1-.24-2.57,7.38,7.38,0,0,1,.54-3q.9-2.1,4.43-2.3h.13a4.6,4.6,0,0,1,4.11,2.07,13.79,13.79,0,0,1,1.91,5.15,57.79,57.79,0,0,1,.74,5.89c.06.82.13,1.55.21,2.21a362.76,362.76,0,0,0,6.76,40.63c.64,2.6,1.17,4,1.58,4.31a.37.37,0,0,0,.25.09c.33,0,.64-.43.91-1.31a35.55,35.55,0,0,0,.92-4c.11-.57.22-1.11.33-1.64q2.07-10.21,3.36-20.56T111.53,228.51Z"/><path class="cls-2" d="M127.46,226c0-.43,0-.86,0-1.26a14.85,14.85,0,0,1,1-6.13,3.85,3.85,0,0,1,3-2.16,21,21,0,0,1,2.95-.18c.75,0,1.56,0,2.45.09a2.74,2.74,0,0,0,.5,0h3.07c1.63,0,3.25,0,4.87.05a15.31,15.31,0,0,1,3.22.28,3.5,3.5,0,0,1,2.24,2.2,3.17,3.17,0,0,1,.12.85,2.89,2.89,0,0,1-.83,2c-.77.88-2.2,1.33-4.27,1.36h-1.45a10.86,10.86,0,0,0-1.37-.09,7.74,7.74,0,0,0-3.32.65c-1.22.6-1.88,2.31-2,5.15v.94q0,6.32-.29,12.55c0,.9-.07,1.82-.13,2.76,0,2,.35,3.15,1,3.56a4.37,4.37,0,0,0,1.95.37,10.85,10.85,0,0,0,1.12-.05,14,14,0,0,1,1.66-.09c.28,0,.61,0,1,0s1.05,0,1.57,0,1.12,0,1.7,0a4.63,4.63,0,0,1,2.62.79,3.56,3.56,0,0,1,1.08,2.53,4.33,4.33,0,0,1-.13,1,3.13,3.13,0,0,1-3,2.34h-.62c-.5,0-1.09,0-1.78-.05-.89,0-1.77,0-2.66,0h-1.37a5.89,5.89,0,0,0-2.78.47,5.79,5.79,0,0,0-1.37,3.56c0,.4,0,.81,0,1.21a21,21,0,0,0,.21,2.91c.08.65.14,1.29.16,1.91a5.27,5.27,0,0,1,.05.71,53.15,53.15,0,0,0,.56,5.5,14,14,0,0,0,1.7,5.05,5.58,5.58,0,0,0,3.88,2.74,28.47,28.47,0,0,0,5.64,0l2.41-.18a3.4,3.4,0,0,1,3,1.68,3.3,3.3,0,0,1,.45,1.64,3.79,3.79,0,0,1-.45,1.69q-1,1.68-4.36,2c-1.58.12-3.36.19-5.35.19-.78,0-1.6,0-2.45-.05a25.68,25.68,0,0,1-7.55-1,8.74,8.74,0,0,1-5.09-5,33,33,0,0,1-2-7.63,121.07,121.07,0,0,1-1.37-18.64v-.56q0-10.26.5-20.09C127.28,230.88,127.38,228.39,127.46,226Z"/><path class="cls-2" d="M196.71,282.59c-.63,2.31-1.44,3.46-2.4,3.46a2,2,0,0,1-.42,0q-1.74-.57-3.65-3.61a55.5,55.5,0,0,1-3.49-6.55c-1.05-2.35-1.82-4.14-2.32-5.39-.11-.31-.21-.56-.29-.75q-2.16-6.56-4.19-11.8c-.75-2-1.51-3.93-2.28-5.89q-.25-.71-.54-1.41-.66-1.68-1.29-3.42-1.36-3.65-2.78-7.21l-.12-.28c-.22-.53-.36-.79-.42-.79v1.59q-.08,5.38-.08,10.81,0,12.6.41,25.24c0,.62.05,1.25.05,1.87a30.8,30.8,0,0,1-.17,3.18,7.93,7.93,0,0,1-1.58,4.15c-.85,1.07-2.26,1.61-4.23,1.61a4.11,4.11,0,0,1-3.57-1.85,9.1,9.1,0,0,1-1.2-4.19c-.06-.84-.08-1.67-.08-2.48s0-1.61.08-2.38,0-1.21,0-1.74c.06-3.9.08-7.82.08-11.75q0-7.35-.12-14.7l-.08-11.52v-8a27.09,27.09,0,0,1,.25-3.65,8.56,8.56,0,0,1,1.51-3.91,4.19,4.19,0,0,1,3.63-1.61,5.6,5.6,0,0,1,4,1.82,14.21,14.21,0,0,1,2.63,4.29q1,2.55,1.79,5.08c.3,1,.59,1.85.87,2.66q.16.53.54,1.5,1.11,3.14,3.25,9.08t4.55,12.39q2.4,6.44,4.33,11.75c1.29,3.54,2.15,5.49,2.6,5.83h.08c.14,0,.25-.2.33-.61a14.18,14.18,0,0,0,.17-1.76c0-.7,0-1.39,0-2.08s0-1.21,0-1.59v-.33Q192.4,252.91,191,240q-.87-8.89-1.41-18v-.23c0-.44-.05-.87-.05-1.31s0-.94.05-1.41a4.51,4.51,0,0,1,1-2.59,4.06,4.06,0,0,1,3.28-1.1,2.27,2.27,0,0,1,2.22,1.33,8.61,8.61,0,0,1,.77,3.21c.05.9.08,1.79.08,2.67v2.57q.16,4.88.38,9.88.36,9.55.58,19.19c0,1.72,0,3.44,0,5.16,0,5.61-.11,10.69-.33,15.21A42.83,42.83,0,0,1,196.71,282.59Z"/><path class="cls-3" d="M1149.34,244.78a22,22,0,0,1-5.73,13.89,12.53,12.53,0,0,1-3,3.86c-2.21,2.06-6.91,4.62-14.42,7.12-38.16.41-76,1.69-114.15,2.09l2.65,14.34L1017.3,298l2.63,11.94,2.57,7.16.06,4.78.14,12,.11,9.58.11,9.58-2.37,9.6-7.24,19.23L1006,398.71l-12.39,4.92-9.95.11-10-7.08L973,344,968,334.47l-12.7-21.42L945.11,296.4,935,279.75l-15.15-19-15.13-16.6-6.23-2.91a25,25,0,0,1-.5,3.69,26.09,26.09,0,0,1-3.58,8.58,28.82,28.82,0,0,1-24.37,13l-66.24-.19c-15.66,0-28.43-12.29-28.39-27.21l.36-128.89c0-14.93,12.89-27.1,28.55-27.06l66.24.19c14,0,25.7,9.87,28,22.64l2.08-.69,14.82-9.74L1098.8,95l7.49,2.32,2.22,2.3a21.68,21.68,0,0,1,10.18,14.44c1.79,9.5-3.24,18.69-11.78,23.21l5.59,1.72,5,2.34,2.74,2.57a20.27,20.27,0,0,1,12.25,14.77c2,10.52-5.12,20.64-16,23.3V182l1.52,0,1.48.93c10.1.46,18.85,7.33,20.68,17.05,1.63,8.64-2.68,17-10.17,21.48C1141.4,223.79,1149.78,233.48,1149.34,244.78Z"/><path class="cls-1" d="M517,520.26c0-18.15.06-36.31-.06-54.47,0-2.47.56-3,3-3q55,.14,109.93,0c2.48,0,3,.56,3,3q-.15,55,0,109.93c0,2.48-.56,3-3,3q-55-.13-109.93,0c-2.47,0-3.05-.56-3-3C517.05,557.24,517,538.75,517,520.26Z"/><path class="cls-4" d="M591.34,479.38a9.63,9.63,0,0,0,5.9,2.2c1.79.65,3.76.89,5.2,2.32a36.47,36.47,0,0,0,3.06,2.3,24.6,24.6,0,0,1,2.48,3,42.16,42.16,0,0,1,6.44,8.42,3.56,3.56,0,0,1,.6,1.9c4,9.41,6.2,19.08,4,29.34-.24,1.11-.68,2.18-1,3.27-2,.94-3.9,1.66-5.61-.47a9.6,9.6,0,0,1-.24-5.59c1-4,.31-8,.53-12a15.91,15.91,0,0,0-1.19-7.83A35,35,0,0,0,609.6,502c-.37-.74-.72-1.5-1.1-2.24a10.63,10.63,0,0,0-2.08-2.9c-1.16-1.18-2-2.6-3.25-3.73a24.37,24.37,0,0,0-4.58-3.58,69,69,0,0,0-6.06-4.28,4.79,4.79,0,0,1-1.3-1.72C590.77,482.14,590,480.73,591.34,479.38Z"/><path class="cls-5" d="M553.63,481.55l6-1.83c1.36,1.35.55,2.9.39,4.39-.56,1.37-1.83,1.87-3,2.47-2.53,1.31-4.41,3.45-6.6,5.19-.66.49-1.38.89-2,1.43-.87.86-1.41,2-2.22,2.88a16.36,16.36,0,0,0-2.62,3.35c-.39.7-.77,1.42-1.13,2.14s-.72,1.47-1.07,2.21-.72,1.57-1.09,2.36a26.31,26.31,0,0,0-1.79,5.33c-.85,4.81.84,9.84-1.24,14.54a1.52,1.52,0,0,1-1.55.42c-2.12-1.33-2-3.53-2.21-5.63-.61-7.14,1.48-13.84,3.32-20.57a6.15,6.15,0,0,1,1-3.66c2.06-2.66,4.11-5.34,6.11-8.05a14.79,14.79,0,0,1,1.32-1.42,20.23,20.23,0,0,1,2.37-2.06,20.85,20.85,0,0,0,2.43-1.76,10,10,0,0,1,1.42-1.08A5.28,5.28,0,0,1,553.63,481.55Z"/><path class="cls-6" d="M559.71,483.67c-1.27-1.28.37-2.65-.13-3.95,10.54-4.73,21.13-4.65,31.76-.34.27,1.5.55,3,.82,4.5-1.63.88-3.19.17-4.74-.23-7.88-2.07-15.74-2.72-23.56.27C562.47,484.45,561,484.83,559.71,483.67Z"/><path class="cls-7" d="M537.79,499.47c-1.9,7.06-3.52,14.14-3,21.55.12,1.8.06,3.58,1,5.19,2,3.22,1.72,7.06,2.75,10.55a5.51,5.51,0,0,1,.1,1.62c-.31,1-.49,2.23-2.07,1.8-6.05-11.17-6.1-22.75-2.38-34.59.64-2,1.24-4.07,1.86-6.1A1.07,1.07,0,0,1,537.79,499.47Z"/><path class="cls-8" d="M537.79,499.47l-1.72,0c-4.74-4.54-8-9.81-8.34-16.58-.6-1.85-.24-3.75-.28-5.63.73-1.66,1.66-.62,2.56-.21a12.23,12.23,0,0,1,2.58,3.81c.83,2.3.22,4.79,1,7.1a10.43,10.43,0,0,0,1.89,4.21c.6,1.84,3.49,1.92,3.36,4.32Z"/><path class="cls-9" d="M613.07,532.14c1.64.34,3.26-1.08,4.9,0-1.55,7.82-6.11,13.77-11.8,19-1.24-1.28-.44-2.56,0-3.84a11.56,11.56,0,0,1,.59-1.23c1.91-3.54,4.26-6.92,4.26-11.2A3.12,3.12,0,0,1,613.07,532.14Z"/><path class="cls-10" d="M602.16,484.64c-1.6-1.07-3.67-1.41-4.92-3.06A58.52,58.52,0,0,0,618,473.85a2,2,0,0,1,.37,2.11C613.85,480.48,609.61,485.56,602.16,484.64Z"/><path class="cls-11" d="M570.49,563.79c-8.13-.26-15.06-3.46-21.18-8.65a2.45,2.45,0,0,1,1.59-1.72,4,4,0,0,1,3.21.81,33.73,33.73,0,0,0,21.09,6.35,6,6,0,0,1,4.18,1,1.25,1.25,0,0,1-.07,1.5C576.4,563.83,573.36,562.68,570.49,563.79Z"/><path class="cls-12" d="M607.12,489.55l-2-2.92c3.91-3.4,8.93-5.38,12.23-9.56,2.21-1,2.11-4.93,5.55-4.34l.12,2.84-.15.67c-2.71,4.24-7.12,7.1-9.07,12.08C612.74,491.08,609.51,489.77,607.12,489.55Z"/><path class="cls-13" d="M600.29,556.94a22,22,0,0,1-7.94,4c-1.18.58-2.32.91-3.27-.4a2.38,2.38,0,0,1,1.45-2.35c5.22-2.94,9.06-7.37,12.85-11.86,1.2-.78,2.26-2,3.93-1.33a1.75,1.75,0,0,1-.19,2h0C605.41,550.71,602.08,553.3,600.29,556.94Z"/><path class="cls-14" d="M550.66,553.94l-1.35,1.2c-6-3.52-9.62-9-12.72-15a2.12,2.12,0,0,0,1.21-2.09c2.16-.59,2.61,1.36,3.64,2.44,2,2.86,3,6.34,5.7,8.74C548.35,550.8,550.21,551.84,550.66,553.94Z"/><path class="cls-15" d="M550.72,483.72a3.45,3.45,0,0,1-3,1.94,1.49,1.49,0,0,1-1.19.35c-2-.63-3.82-1.95-6-2.29-2.77-.52-4.33-2.88-6.53-4.27a5.23,5.23,0,0,1-.92-1c-.66-2-3.05-3.38-2.12-5.94A5.63,5.63,0,0,1,534,474.4a10.93,10.93,0,0,0,4.63,3.48,6.39,6.39,0,0,1,1.12.74C543.05,481.14,547.21,481.73,550.72,483.72Z"/><path class="cls-16" d="M615,499.51l-1-1a3.64,3.64,0,0,1,.62-2.35c4.61-5.11,6.42-11.34,7.25-18a5.84,5.84,0,0,1,1-2.26l.19-.33c2.54,6.39,0,12-2.88,17.47A19.65,19.65,0,0,1,615,499.51Z"/><path class="cls-17" d="M589.29,559.88c.74,1.18,2,.93,3.06,1a14.4,14.4,0,0,1-11,2.88c-.51-.62-1.5-.23-2-.94,0-.33,0-.65,0-1C582.37,559.6,585.53,558.27,589.29,559.88Z"/><path class="cls-18" d="M553.63,481.55a2,2,0,0,1-1.81,1.19c-5.11,1.07-9-1.88-13-4.07h0c-.59-.56-1.61-.94-.94-2.08A84.22,84.22,0,0,0,553.63,481.55Z"/><path class="cls-19" d="M600.29,556.94c-.74-.15-2-.26-1.13-1.32,2.53-3,5.29-5.76,8-8.62-.32,1.38-.63,2.76-1,4.14C604.81,553.68,602.61,555.37,600.29,556.94Z"/><path class="cls-20" d="M622.92,472.73c-2.46.83-2.64,3.93-4.92,4.93a1.4,1.4,0,0,1,0-2l0-1.79C619.58,473.16,620.68,470.45,622.92,472.73Z"/><path class="cls-21" d="M531,472.55c.76,2.13,2.85,3.64,2.85,6.13-3.35.14-3.81-2.73-5-4.81a5.4,5.4,0,0,0-.72-1.13C528.91,471.09,529.92,471.61,531,472.55Z"/><path class="cls-22" d="M579.38,562.84a2.07,2.07,0,0,1,2,.94,32.45,32.45,0,0,1-10.86,0C573.28,561.89,576.43,563.28,579.38,562.84Z"/><path class="cls-21" d="M528.1,476.76q-.18,3.08-.37,6.15a15.27,15.27,0,0,1,.06-9.36A2.27,2.27,0,0,1,528.1,476.76Z"/><path class="cls-23" d="M537.83,476.59l.94,2.08A5.79,5.79,0,0,1,534,474.4Z"/><path class="cls-24" d="M528.1,476.76c-.1-1.07-.2-2.14-.31-3.21a.63.63,0,0,1,.25-.81,7.46,7.46,0,0,0,.81.1c.42,1.59,2.06,2.93,1,4.84Z"/><path class="cls-25" d="M622.85,475.9A28.18,28.18,0,0,1,614,498.49l-6.91-8.94c5,.08,6.75-3.61,9-7.25A18.34,18.34,0,0,1,622.85,475.9Z"/><path class="cls-26" d="M559.71,483.67c8.15-2.73,16.39-4.42,24.95-2.08,2.52.69,5,1.52,7.5,2.29l1,.93c-.44,2.4-2.4,1.76-3.94,2-3.25-.5-6.3-1.77-9.53-2.41-5.55-1.09-10.76,0-15.83,2.22-2.38-.18-5.07,2.54-7.11-.75Z"/><path class="cls-27" d="M614,513.32c-.54,4.28,1.18,8.73-1,12.88-1.35.36-2.13-.35-2.74-1.42-.66-4.91-2.55-9.74-.94-14.8C613.3,507.77,612.78,511.79,614,513.32Z"/><path class="cls-28" d="M618,475.64c0,.68,0,1.35,0,2-3.51,4.1-7.43,7.62-12.86,9a3.15,3.15,0,0,1-3-2C608.53,483.56,613.14,479.39,618,475.64Z"/><path class="cls-29" d="M611.07,525.2l2,1c0,2,0,4,0,5.94-.33,1-.66,2-1,3-.84.54-.23,2.73-2.23,2-1.23-1.8-1.51-4-2.36-5.93a7.83,7.83,0,0,1,1-5C609.19,525.39,609.9,524.71,611.07,525.2Z"/><path class="cls-30" d="M589.29,485.6c1.31-.14,2.76.44,3.85-.79,2.55.42,4.14,2.34,6,3.87,0,1.91-1.43,1.65-2.61,1.81-1.66-.2-3.26-.68-4.92-.86a7.2,7.2,0,0,1-1.37-.33c-1.24-.56-2.77-.75-3.15-2.42C587.42,485.78,588.74,486.36,589.29,485.6Z"/><path class="cls-31" d="M604,492.77c1.54.81,2.22,2.35,3.13,3.68.4.92-.2,1.19-.9,1.41-1.85-.06-3.52-.86-5.26-1.37a13.16,13.16,0,0,1-4.73-2.68,2.09,2.09,0,0,1-.31-1.32,3,3,0,0,1,2-1.66C600.4,490.25,601.92,492.42,604,492.77Z"/><path class="cls-32" d="M614,513.32c-1.45-1.18-2-3.26-3.95-3.94a2.3,2.3,0,0,1-.7-1.11,2.51,2.51,0,0,1,.41-1.85c1.07.33,1.74-.24,2.31-1.05C614,507.73,614.16,510.48,614,513.32Z"/><path class="cls-33" d="M604,492.77c-2.32,1.38-3.71-1.59-5.81-1.23-.65-.67-2.52-.13-2-2,1-.05,2.18.21,2.9-.88C601.34,489.34,602.63,491.11,604,492.77Z"/><path class="cls-34" d="M612.11,505.37c0,1.69-.89,1.59-2,1-1.38.33-1.58-.69-1.87-1.61a4.16,4.16,0,0,1,.27-2.15,2.3,2.3,0,0,1,1.67-1.28A6.3,6.3,0,0,1,612.11,505.37Z"/><path class="cls-35" d="M606.12,497.48l1-1a3.38,3.38,0,0,1,2,2.95c.15,2.44-1.34.94-2.21.93a2.42,2.42,0,0,1-1.27-1.59A1.85,1.85,0,0,1,606.12,497.48Z"/><path class="cls-36" d="M607.11,499.47c.68.11,1.39,1.09,2-.07l1,2-1.06,1.08c-1.6.54-2.11-.5-2.52-1.71A1.75,1.75,0,0,1,607.11,499.47Z"/><path class="cls-37" d="M529.87,477.68l-1-4.84c2.08,1.58,2.2,4.83,5,5.84h0a23.42,23.42,0,0,1,4.58,4.48c1.75,2.24,4.48,3.32,6.33,5.42a26.59,26.59,0,0,1-5.93,7.94c-1.19-1.46-4.21-1.09-4-4-.92-1.36-1.65-3-.93-4.45,1.13-2.31,0-3.93-1.08-5.67a7,7,0,0,0-1-1.76A3,3,0,0,1,529.87,477.68Z"/><path class="cls-38" d="M536.79,526.2c.55-5.27-1.11-10.67,1-15.84,1.32-.19,2.83-1.19,3.58.89-.14,3.62-.36,7.23-.42,10.84a8.26,8.26,0,0,1-.28,1.4,5.3,5.3,0,0,1-1.06,1.78,4.72,4.72,0,0,1-1.6,1.2A1.47,1.47,0,0,1,536.79,526.2Z"/><path class="cls-39" d="M556.73,485.84c2.33,1.72,4.51-1.14,6.81-.24a1.81,1.81,0,0,1,1.18,2.3,3.37,3.37,0,0,1-1.6,1.45c-2.34.72-4.7,1.37-7,2.16-2.23.1-4.47,1.57-6.69,0C551.47,489.1,553.57,486.77,556.73,485.84Z"/><path class="cls-40" d="M537.79,483.62c-1.11-1.82-3.45-2.65-4-4.95,3.08,0,3.84,4,6.91,4,1.77,1.42,3.91,2.1,6,3,.32,0,.65,0,1,.05l-2,1.92C542.21,488,540.33,485.16,537.79,483.62Z"/><path class="cls-41" d="M549.41,491.48c2.4-.32,4.71-1.31,7.2-.93a1.86,1.86,0,0,1,.11,2.25,9.56,9.56,0,0,1-6.94,1.82c-1-.33-2.25-.41-2-2Z"/><path class="cls-23" d="M538.78,478.67c4.35,1.33,8.35,3.8,13,4.07l-1.1,1A15.33,15.33,0,0,1,538.78,478.67Z"/><path class="cls-42" d="M540.75,510.34c-1,.27-2,1.6-3,0a5.88,5.88,0,0,1,2-5c1-.38,2-.91,3.08-.15.68,1.68-.37,2.93-1.08,4.27A2.79,2.79,0,0,1,540.75,510.34Z"/><path class="cls-43" d="M536.79,526.2l1,0c2.08,2.27,1.14,5.06,1.32,7.66a4.19,4.19,0,0,1-1.32,3.22c-1.71-3.44-2-7.13-2-10.89Z"/><path class="cls-44" d="M542.73,499.45c.07-2,1.51-3,2.88-4.08a11.24,11.24,0,0,1,3.22.33,2.93,2.93,0,0,1,1.1.77,2.12,2.12,0,0,1-.06,1.34,4.71,4.71,0,0,1-2.89,1.81C545.57,499.39,544,502.07,542.73,499.45Z"/><path class="cls-45" d="M537.79,483.62l7.93,4-1,1A9.57,9.57,0,0,1,537.79,483.62Z"/><path class="cls-46" d="M542.73,499.45c1.69,1.19,2.41-1.6,4-1,.66,2.22-.47,3.55-2.26,4.56-1.31.12-2.78.5-2.74-1.65A2.13,2.13,0,0,1,542.73,499.45Z"/><path class="cls-47" d="M548.68,496.49c-1.15,0-2.36.13-3.07-1.12l2.16-2.74a2,2,0,0,0,1.91.9C550.78,495,549.8,495.77,548.68,496.49Z"/><path class="cls-48" d="M541.7,501.39c.72,1.19,1.89,1,3,1a1.4,1.4,0,0,1,.13,1.34,2.51,2.51,0,0,1-2.48,1.13c-.89-.13-2.09.07-1.64-1.51A2.26,2.26,0,0,1,541.7,501.39Z"/><path class="cls-49" d="M540.72,503.39a2.12,2.12,0,0,0,2,1,.62.62,0,0,1,.22.66c-.07.22-.15.33-.23.33-1-.33-2,1.16-3,0A2.21,2.21,0,0,1,540.72,503.39Z"/><path class="cls-50" d="M537.78,537.1v-3a1.24,1.24,0,0,1,1.33-.18,7.23,7.23,0,0,1,2.38,5.89,2.52,2.52,0,0,1-.74,1.23l-3-3C537.79,537.76,537.79,537.43,537.78,537.1Z"/><path class="cls-51" d="M532.84,481.64c2.18,2,5.23,3.63,1.74,7.17-.58.59.13,2.45.24,3.72-1.8-.75-2.07-2.26-2-4A10.88,10.88,0,0,1,532.84,481.64Z"/><path class="cls-24" d="M532.84,481.64v6.93c-2-2.43-.56-5.29-1-7.92Z"/><path class="cls-19" d="M610.08,537.1l2-2c.2,4.73-2.33,8.31-5,11.86v-2C605.93,541.57,608.62,539.56,610.08,537.1Z"/><path class="cls-52" d="M589.29,559.88l-9.9,2c-10.63,1.16-20-2.15-28.73-7.92a10.25,10.25,0,0,1-4-4,37.67,37.67,0,0,1-5.4-9.75,5.89,5.89,0,0,1,.14-2.05c2.38-.8,2.62,1.36,3.34,2.58,1.23,2.09,2.17,4.35,3.88,6.14a9.12,9.12,0,0,1,.79,1.06,11.2,11.2,0,0,0,5.21,4.76,36.56,36.56,0,0,0,29.63,4.94c6.45-1.54,10.8-5.84,15.27-10.23,1.36-1.34,2.1-3.94,4.87-3.28a2.43,2.43,0,0,1-.29,2.86C600,552.27,595.68,557.25,589.29,559.88Z"/><path class="cls-53" d="M604.14,547v-3c-1.28-3.76,1.66-6.78,1.78-10.3a6.86,6.86,0,0,1,.51-1.37,2.43,2.43,0,0,1,1.72-1.24c1.85,1.6,2,3.74,1.93,6,.55,3.22-2.59,5-3,7.92Z"/><path class="cls-11" d="M541.75,540.08l5,9.9c-3.53-1.94-4-5.9-5.94-8.92v-1C541.1,539.61,541.43,539.63,541.75,540.08Z"/><path class="cls-54" d="M546.71,485.61c-2.47,0-4.61-.72-6-3A10.82,10.82,0,0,1,546.71,485.61Z"/><path class="cls-55" d="M564.53,487.57l-1-2c8.58-5.21,17.17-2.74,25.75,0a2,2,0,0,1-2,1c-1.55,1.64-3.62,1.54-5.56,1.47C576,487.83,570.24,488.86,564.53,487.57Z"/><path class="cls-56" d="M610.07,508.38c0,.33,0,.66,0,1-.67,5.33,1.37,10.5,1,15.82l-2,1c-1.76-2.12-2.2-5-3.85-7.13-1.2-3.42-3.46-6.68-1.6-10.56C605.76,506.58,607.9,506.31,610.07,508.38Z"/><path class="cls-57" d="M606.12,519.27c2.68,1.58,3,4.16,3,6.92l-1,4.94-1,1c-1.88-5.18-3.55-10.43-5.77-15.48a3.21,3.21,0,0,1,.48-2.18C605.62,514,604.44,517.89,606.12,519.27Z"/><path class="cls-58" d="M556.6,492.53c0-.66,0-1.32,0-2a10,10,0,0,1,6.93-2c8.91,1.47,17.82-.5,26.74,0h1c2.39,2.17,1.1,3.61-1,4.91-10.41,1.16-20.83.51-31.25.3A3.7,3.7,0,0,1,556.6,492.53Z"/><path class="cls-59" d="M590.28,488.57a67.55,67.55,0,0,1-21.84,1.9,7.31,7.31,0,0,1-4.9-1.9l1-1c7.52-2.13,15.2-.43,22.78-1Z"/><path class="cls-60" d="M591.27,492.52c0-1.31,1-2.63,0-3.95a8.13,8.13,0,0,1,5,1l2,2-2,1C594.56,493.91,592.91,494,591.27,492.52Z"/><path class="cls-61" d="M591.27,492.52h5v1l-.56.61c-11.2,4.55-22.49,7-34.19,1.7a6.58,6.58,0,0,1-2.88-1.75,1.32,1.32,0,0,1,0-1.55Z"/><path class="cls-62" d="M596.22,493.53l4.95,2a1.66,1.66,0,0,1,0,2.28c-3.12,1.57-6.45,1.09-9.74,1a2.39,2.39,0,0,1-.68-2.89c1.43-1.69,3.78-1.23,5.45-2.36Z"/><path class="cls-63" d="M601.17,497.48v-2c1.75.42,3.57.63,5,2v1a3.76,3.76,0,0,1-3.51,1,3.47,3.47,0,0,1-1.38-.63A.94.94,0,0,1,601.17,497.48Z"/><path class="cls-64" d="M610.07,508.38c-2-.83-4,.06-5.92,0-1.15-1.62-.31-2.91.69-4.18a3.45,3.45,0,0,1,2.95-.58,4.3,4.3,0,0,1,1.3.81,2,2,0,0,0,1,2Z"/><path class="cls-65" d="M609.09,504.42h-1c-1.37-1.14-3.45-1.33-4.26-3.22a1.41,1.41,0,0,1,.62-1.19,2.48,2.48,0,0,1,2.66.46,3.44,3.44,0,0,0,2,2Z"/><path class="cls-66" d="M607.11,500.46h-3c-1.65.33-2.29-.34-2-2h4l1,1Z"/><path class="cls-67" d="M540.75,510.34c0-.33,0-.65,0-1,4.65-3.87,5.17-3.89,8.37-.36.72,4.48-2.08,7.53-4.4,10.77-1.79.94-2.44,3.54-5,3.45C539.85,518.9,539.3,514.55,540.75,510.34Z"/><path class="cls-68" d="M541.75,540.08l-1,0-2-5.93a17.62,17.62,0,0,1,0-8.89l1-1a5.29,5.29,0,0,1,1.94,2,6.28,6.28,0,0,1,1.09,3.38c-.49,2.82,1.19,5.91-1,8.53Z"/><path class="cls-69" d="M540.79,526.19a2,2,0,0,1-1-2c0-.34,0-.67,0-1,1.43-1.2,2-3.27,3.94-3.94C544.69,522.4,543.88,524.78,540.79,526.19Z"/><path class="cls-70" d="M538.78,525.24v8.89h-1c0-2.63,0-5.27,0-7.9Z"/><path class="cls-71" d="M558.59,492.54v1a2.56,2.56,0,0,1-1.29,1.73c-2.5.69-4.78,2.78-7.63,1.23h-1c.33-1,.67-2,1-3l6.92-1Z"/><path class="cls-72" d="M548.69,509.36c-2.64-3.91-5.27-.54-7.9,0,.65-1.31,1.3-2.63,1.94-3.95,0-.33,0-.66,0-1l2-1a3.26,3.26,0,0,1,1.51-.69C551.05,504.66,551.7,506.42,548.69,509.36Z"/><path class="cls-73" d="M549.68,496.49c2.72-.32,5.08-2.11,7.91-2,1.69.39,4,.16,3.18,3.11-1.93,1.65-4.45.81-6.6,1.56a6.43,6.43,0,0,1-2.27.12,2.62,2.62,0,0,1-2.23-1.82Z"/><path class="cls-74" d="M549.67,497.49l2,1c.51,1.66-.94,2.31-1.7,3.32-1.13,1.27-3,.72-4.24,1.62h-1c0-.33,0-.65,0-1l2-3.95Z"/><path class="cls-75" d="M607.09,533.16c0,3.88-2,7.25-3,10.88-8.62,11.71-19.79,17.9-34.66,15.81a29.67,29.67,0,0,1-15.85-6.9,18.4,18.4,0,0,1-5-5h0a1.59,1.59,0,0,1-.13-2.07c2.17-.53,3.28,1.13,4.57,2.3,12.55,11.36,26.57,11.68,39.71,3.36,5.07-3.21,7.64-8.45,9.9-13.79.7-1.65.92-3.52,2.25-4.88A1.75,1.75,0,0,1,607.09,533.16Z"/><path class="cls-76" d="M548.68,546v2c-4-2.09-3.94-7.07-6.92-9.9q0-4.46,0-8.9a1.72,1.72,0,0,1,1.36-.52,1.79,1.79,0,0,1,1.2.82,11.73,11.73,0,0,1,.77,4.34C545.23,538.2,548.15,541.76,548.68,546Z"/><path class="cls-76" d="M548.68,548a15,15,0,0,1,5,5A5.87,5.87,0,0,1,548.68,548Z"/><path class="cls-77" d="M607.09,533.16h-2a2.84,2.84,0,0,1-2.54-1.17c-1.32-5.27-4.59-10-4.81-15.57a6.72,6.72,0,0,1,.51-1.38,3.34,3.34,0,0,1,1-1.08c2.2-.76,2.16,1.28,2.9,2.33,2.44,5,5.64,9.81,5,15.81C607.11,532.46,607.1,532.81,607.09,533.16Z"/><path class="cls-78" d="M605.13,504.42c-.33,1.31-.66,2.63-1,3.95-.91,3.92,1.7,7.2,2,10.9-2.49-.71-1.46-4.24-4-4.95-4.89-4.25-4.87-7.7.07-11.67C603.6,502.58,605.05,502.37,605.13,504.42Z"/><path class="cls-79" d="M602.16,503.42c-4.14,3.64-2.1,7.27,0,10.9v2c-1-.61-1.43-2.14-3-2-1,.26-1.29-.36-1.48-1.13-.1-3.64-3-7-1-10.87,1.74-1.75,3.5-3.4,6-1.11A2.32,2.32,0,0,1,602.16,503.42Z"/><path class="cls-80" d="M560.57,497.48c.18-2.16-2.29-1.67-3-3l1-1c6.42,1.85,12.59,4.52,19.6,4.09,4.37-.27,8.08-2.36,12.23-3.06,1.92-.33,3.74-1.3,5.77-1a5.68,5.68,0,0,1-4.93,2c-2.64,2.51-4.54,7.09-4.28,10.29a3.23,3.23,0,0,1-2.85-.06c-7.41-4.06-13.78-1.17-20.16,2.68-2.15,1.3-3.9,3.62-6.84,3.4-1-.45-.88-1.21-.52-2a8.85,8.85,0,0,1,3.38-3.38C566.6,501.93,566.6,501.92,560.57,497.48Z"/><path class="cls-81" d="M587.31,505.41c-.68-.68-1.32-1.4-2-2-2.92-2.57-2.62-4.54,1-6,1.66-.67,3.35-1.27,5-1.89v3c-.28,2.57-1.33,5.3,1.47,7.24,1.38,1.53,3,2.89,4.27,4.48a2.85,2.85,0,0,1,.36,3.37,2.35,2.35,0,0,1-2.08.21C592.48,511.12,588.61,509.49,587.31,505.41Z"/><path class="cls-82" d="M592.26,506.39c-3.8-2.2-3.8-4.88-1-7.92,3.16-1.74,6.59-.7,9.9-1v1c.09,2.42-1.93,1.65-3.15,2.09C594,500.37,593.08,503.36,592.26,506.39Z"/><path class="cls-83" d="M597.21,499.47c1.37-.15,2.92.45,4-1h1a3.35,3.35,0,0,0,2,2v1a1.39,1.39,0,0,1-2,0c-1.9-.94-3.35.41-4.95,1a2.25,2.25,0,0,1-.69-1.14A2.09,2.09,0,0,1,597.21,499.47Z"/><path class="cls-84" d="M602.16,501.45h2c2,.08,3.08,1.38,3.94,3h-3c-.71-1.17-1.88-1-3-1Z"/><path class="cls-85" d="M542.74,529.15l-1,0-1-3a23.34,23.34,0,0,0,3-6.91c2.29-3,4.28-6.12,5-9.92,2.25-3.59.09-5-3-5.94a5.45,5.45,0,0,1,4-2c4.2-.74,6.39,1.2,5.5,5a20.94,20.94,0,0,1-3.2,6.6C548.56,518.25,545.07,523.36,542.74,529.15Z"/><path class="cls-86" d="M542.74,529.15c-.76-4.21,2.09-7.08,3.93-10.29,2.13-3.69,4.64-7.18,6.65-10.94,2.23-4.18,1.43-5.38-3.64-6.48-.17-1.53,1.37-1.94,2-3h2c2.38.1,5-.54,6.17,2.61,1,2.87,0,5.08-2,7.05a13.4,13.4,0,0,0-2.95,5,8.18,8.18,0,0,1-1.56,2.41,12.78,12.78,0,0,1-1,1c-4.1,3.39-5.76,8.42-8.57,12.68Z"/><path class="cls-87" d="M553.65,513.42c-.08-2,1.44-3.31,2.43-4.73,4.64-6.68,4.49-7.54-2.44-10.22,2.09-1.9,4.63-.6,6.93-1a4,4,0,0,1,1.47.09c1.82.9,4.74,1.21,4.93,3.27.2,2.24-2,4.13-4,5.27-2.47,1.38-5,2.6-6.36,5.24a2.5,2.5,0,0,1-1.08,2.36A1.68,1.68,0,0,1,553.65,513.42Z"/><path class="cls-88" d="M603.17,532.17a1.93,1.93,0,0,1,2,1c-2.23,13.59-12,22.78-25.46,24.83-11.16,1.71-20.12-2-28-9.48-.95-.89-2-1.67-3-2.51-3-3.39-4-7.63-4.93-11.88a2.45,2.45,0,0,1,2.81-.45c2.87,3.58,2.88,8.82,6.85,11.75,6.69,7.45,15,10.69,25,9.64,3.22-.78,6.53-1.24,9.5-2.86a25.87,25.87,0,0,0,12.8-16.1C601.11,534.58,601.25,532.79,603.17,532.17Z"/><path class="cls-89" d="M546.68,534.13h-2.93c0-1.65,0-3.3,0-5,.57-5.83,4.31-9.82,8-13.85.31.35.61.71.89,1.08a2.15,2.15,0,0,1,.06,2.31C549,523.22,547.68,528.6,546.68,534.13Z"/><path class="cls-90" d="M603.17,532.17c-2,7.82-5.07,15-12.28,19.62a19,19,0,0,1-2.6,1.15c-.08-.22-.17-.45-.27-.67a4.34,4.34,0,0,1,.55-2.06c3.77-4,8.23-7.6,8.33-13.82,0-3.94.36-7.93-1.5-11.63-.94-2.79-3.33-5.61.11-8.34a2.9,2.9,0,0,1,3.62-.34c-.32,1.21-1,2.28,0,3.66C601.82,523.4,602.41,527.83,603.17,532.17Z"/><path class="cls-91" d="M599.13,516.08c-1,.36-2.34-.2-3,1.15-3.13,1.52-6.69,2.07-9.56,4.21a3.14,3.14,0,0,1-3.37-1,2,2,0,0,1-.08-1.47c2.13-2.9,4.39-5.6,8.49-5.4,2.39.81,5.11.2,7.36,1.67A6.83,6.83,0,0,1,599.13,516.08Z"/><path class="cls-92" d="M599,515.29c-2.57-.34-5.31.87-7.74-.83a1.93,1.93,0,0,1,.9-.84,5.29,5.29,0,0,1,3.1-.16l1.91-.28a.59.59,0,0,1,.92.2l1.08.94C599.13,514.64,599.07,515,599,515.29Z"/><path class="cls-93" d="M598.11,513.38a4.2,4.2,0,0,1-.92-.2l-1-2.82c-.84-1.42-2.1-2.6-2.64-4.17-1-3,.2-4.49,3.63-4.75v1c-.1,2.77-.1,5.5,1.47,8A2,2,0,0,1,598.11,513.38Z"/><path class="cls-61" d="M595.28,513.46c-.79,1.29-2,.84-3.07.69-3.12-.92-6.15-2.1-9.22-3.2-8-2.86-15.15-.18-22,3.87a5.32,5.32,0,0,1-1.5.46c-1.7.08-3.26-.11-3.87-2.07a1.88,1.88,0,0,1,1-1.86c3-1.83,6-3.74,9.12-5.46,5.86-3.26,11.83-5.45,18.32-1.47a13.73,13.73,0,0,0,3.26,1C589.92,508.14,593.6,509.8,595.28,513.46Z"/><path class="cls-94" d="M597.21,501.44c-2.84.33-3.35,2.09-2.64,4.46.45,1.52,1.09,3,1.65,4.46a10.15,10.15,0,0,1-4-4c-1.49-4.55.59-6.55,5-6.92Z"/><path class="cls-95" d="M559.55,514.38l1.06-.25c.72-.22,1.06.24,1.37.75.88,1.36,2.45,1.1,3.71,1.58a6.56,6.56,0,0,1,2.31,1.32c1,1,2,2,1.72,3.59-1.41,2.16-2.6.37-3.86-.23a4.49,4.49,0,0,1-4,3.71,3,3,0,0,1-1.31-.34,2.36,2.36,0,0,1-.54-1.23c-.22-1.15,1.59-2.11.27-3.34a13.62,13.62,0,0,0-2.15-1c-1.2-.43-2.48-.58-3.69-1a9.09,9.09,0,0,1-2.73-1.85,1.85,1.85,0,0,0,0-.74l.85-.05C554.69,513.39,557.35,515.65,559.55,514.38Z"/><path class="cls-96" d="M559.55,514.38c-2.13,1.8-4.65.58-7,.9l1.08-1.86,2-.21C556.73,514.27,558.22,514.07,559.55,514.38Z"/><path class="cls-97" d="M578.4,555.91c-8.85,2.05-16.17-1.28-22.88-6.58a23,23,0,0,1-2.88-3.32c-1.52-3.14-5-5.63-3.21-9.85,2.31-.56,2.27,1.6,3.14,2.7,4.33,9.36,11.75,13.77,22,13.8,2.26,0,4.64-.43,6.72,1C582.07,556.61,579,554.64,578.4,555.91Z"/><path class="cls-98" d="M549.68,536.11c-.69,3.8,2.53,6.43,3,9.9-4.11-2.9-5.18-7.32-6-11.88-1.32-5.3.68-9.75,3.67-13.89.93-1.3,2.37-2.29,1.35-4.17,1,.3,2.33-.19,2.95,1.12,1.36.91,1.57,2.21.59,3.32-3.44,3.88-4.58,8.45-4.49,13.48A3,3,0,0,1,549.68,536.11Z"/><path class="cls-90" d="M578.4,555.91l3-2a5.87,5.87,0,0,1,3.3-1.82,3.66,3.66,0,0,1,3.61.82h0C585.45,555.46,581.91,555.62,578.4,555.91Z"/><path class="cls-99" d="M586.59,521.17c2.06-4.07,6.07-3.42,9.59-3.95-3.37,2.37.18,4.68.05,7,1.23,3.49,1,7.11.94,10.71,0,2.83-1.07,5.12-3.84,6.31-3.16-.88-1.33-3.06-1-4.62.62-3.19,1.34-6.3-.89-9.19a2.22,2.22,0,0,1-.94-.71c-.84-1.19-1.17-2.67-2.29-3.67A5,5,0,0,1,586.59,521.17Z"/><path class="cls-100" d="M592.26,541.06c3.31-1.86,4.11-4.88,4-8.41-.1-2.8,0-5.61,0-8.41,3,3.92,1.66,8.52,2,12.86-1.35,3.53-3,6.93-5.75,9.55-1.41,1.34-2.75,3.61-5.36,1.92A3,3,0,0,1,586,546C587.57,543.73,588.79,541,592.26,541.06Z"/><path class="cls-101" d="M587.46,548c4.36.35,5.5-3.58,7.72-6,1.28-1.38,1.42-3.61,3-4.89-.66,6.11-4.72,10-8.91,13.86a1.1,1.1,0,0,1-1.21.29,2.67,2.67,0,0,1-1.28-1.52A1.59,1.59,0,0,1,587.46,548Z"/><path class="cls-97" d="M588.3,551h1l-1,2-3.95,0C584.69,550.35,586.21,550.1,588.3,551Z"/><path class="cls-102" d="M567.5,518.27l-1.92-1c-1.28-.74-2.91-.78-3.94-2l-1-1.14c8.5-7.39,23.9-7.37,31.6,0a6.76,6.76,0,0,0-.93.31c-4-.45-5.1,3.71-8,5l-.68-.19C577.77,516.23,572.53,518.78,567.5,518.27Z"/><path class="cls-103" d="M586.59,521.17c.78-.09,1.51-.07,1.76.88,1.06,1.17,1.24,2.81,2.17,4.05a27.74,27.74,0,0,1,1.2,4.51,4.69,4.69,0,0,1,0,1.4,5,5,0,0,1-3.73,4,5.81,5.81,0,0,1-3.63-.37,3.39,3.39,0,0,1-1.71-3c.37-2.56,1.09-5.15-.51-7.59a5.26,5.26,0,0,1-.45-1.28,3.59,3.59,0,0,1,1.64-3.54Z"/><path class="cls-104" d="M583.35,520.28c-.32,1.31-.65,2.62-1,3.93a1.33,1.33,0,0,1-1.5,0c-1.68-3.67-1.21-4.63,2.51-5.14l-.09.42C583.32,519.75,583.34,520,583.35,520.28Z"/><path class="cls-105" d="M583.39,519.07c-2.27,1.06-3.92,2.37-2,5.08,1,3.41-1.07,3.87-3.38,2.85a9.31,9.31,0,0,0-7.14-.11,4.21,4.21,0,0,1-1.41-.19c-1.3-.72-2.29-1.65-2.23-3.29.51-.95,2.13-.75,2.23-2.13l-2-3C572.9,516.4,578.3,514.54,583.39,519.07Z"/><path class="cls-106" d="M569.46,521.28c1.07,1.86,1,1.88-1.74,2-1.17,1.73.9,2.2,1.3,3.33a5,5,0,0,1,.65,2.84c-.51,4-2,7.15-6.73,7.26a4.59,4.59,0,0,1-2.91-2.6,5.06,5.06,0,0,1-.18-2.38c.82-2.44-.32-5.34,1.74-7.49.57-.31,1.4-.48,1.66-1C564.7,520.55,566.75,520,569.46,521.28Z"/><path class="cls-107" d="M558.61,518.2c.77.11,1.71-.15,2,.94.77,1.56-.54,2.4-1.24,3.41-5.44,7.87-5,13.44,1.52,20.59a15.65,15.65,0,0,1,2.42,3.08,3.72,3.72,0,0,1,.45,2.89c-.83,1-1.68,1.35-2.87.4-3.42-2.72-6.86-5.42-8.24-9.85C549.5,530.41,551.18,524.34,558.61,518.2Z"/><path class="cls-108" d="M558.61,518.2c-.26.75-.3,1.77-.83,2.21-6.54,5.49-5.78,12.47-4.15,19.66-1.14.63-1.42-.45-2-1l-2-3c-.39-6.18-.2-12.17,5.11-16.63.74-.62,0-1.52-.14-2.29C556,517.38,557.63,516.54,558.61,518.2Z"/><path class="cls-109" d="M562.58,547.1a20.44,20.44,0,0,0-2.84-3.34c-6.86-5.32-7-17.39-.55-22.66a9.92,9.92,0,0,0,1.44-2c6.26,1.74-1.1,2.68-.24,4.1-3.54,7.57-3.86,14.57,3.52,20.25a3.81,3.81,0,0,1,1.15,1.91C565,547,564.35,547.91,562.58,547.1Z"/><path class="cls-110" d="M563.54,544c-6.38-3-10.36-12.91-3.15-20.79l.34,1c0,1.89-.2,3.76-.31,5.64-1.58,3.43-.76,6.48,1.49,9.3a12.61,12.61,0,0,1,1.18,1.64C563.58,541.83,564.17,542.85,563.54,544Z"/><path class="cls-111" d="M559.44,530.2c.34-2-.38-4.25,1.29-6l.86,0c-.54,2.63,1,5.57-1.14,8C558.79,532.2,559.05,531.23,559.44,530.2Z"/><path class="cls-96" d="M561.64,515.27a6.44,6.44,0,0,1,3.94,2C564.07,517,562,517.88,561.64,515.27Z"/><path class="cls-112" d="M551.65,539.08l2,1c2.41,4,4.71,8.18,10.06,8.87a3.9,3.9,0,0,1,4.17-1.54c4.93,2.13,10,1.1,15,.45a5,5,0,0,1,4.12,1.93L588.3,551a5.48,5.48,0,0,0-4,2c-.71,1.16-1.88.95-3,1-8.4.36-16.63.41-23.57-5.73C554.87,545.61,552.66,542.83,551.65,539.08Z"/><path class="cls-113" d="M592.26,541.06q-3,2.46-5.89,4.94c-.94.36-1.22-.18-1.33-1,3-4.23,5.82-8.56,6.42-13.9l-.43,0c-.17-1.35-.76-2.75.43-4l1.23-2C595.14,530.56,594.24,535.82,592.26,541.06Z"/><path class="cls-114" d="M590.25,526.21a5.31,5.31,0,0,1-1.9-4.15c2.48.34,2.34,2.45,2.81,4.15C590.85,526.68,590.55,526.68,590.25,526.21Z"/><path class="cls-115" d="M590.25,526.21h.91l.3,1c-.14,1.32-.29,2.64-.43,4C589.76,529.67,590.47,527.87,590.25,526.21Z"/><path class="cls-116" d="M585.58,545l.79,1,1.09,2c-.17.6-.33,1.21-.5,1.81l-3.51-.82a2.59,2.59,0,0,1-.8-1c-.19-2.55-3.37-3.22-3.59-5.76a2.25,2.25,0,0,1,1.27-1.47c1.75-.17,2.93,1,4.27,1.82A2.47,2.47,0,0,1,585.58,545Z"/><path class="cls-117" d="M562.57,536c4-.48,5.78-3,6.13-6.76,2-.15.18-2.59,1.77-3,2.58-1.59,5-2.62,7.87-.17,1.87,1.59,2.86.11,3-1.89l1,.06h.06c1.4,2.51.8,5.26,1,7.92-.36,1.19.56,2,1,2.9,1,4.73-2.5,5.16-5.61,6-3.5-1.1-6.8.72-10.23.75C566.31,540.1,563.37,539.13,562.57,536Z"/><path class="cls-118" d="M578.36,540.09c3.37-.06,5.27-1.86,6-5.05l3.92.23c1.3,4.22.18,6.3-4.27,8l-3.67-2C579.22,541.65,578.3,541.77,578.36,540.09Z"/><path class="cls-119" d="M584,543.22c2.07-2.3,4.8-4.25,4.27-8,1.06-1.38,2.11-2.76,3.17-4.13.58,5.69-1.19,10.38-5.88,13.83Z"/><path class="cls-120" d="M583.41,532.14c-1.82-2.46-.66-5.28-1-7.92C585.28,526.55,584.75,529.3,583.41,532.14Z"/><path class="cls-121" d="M570.47,526.21l-.37,4-1.4-1-.08-2.94c.18-.46.43-.52.75-.11Z"/><path class="cls-122" d="M569.37,526.16l-.75.11c-2-.48-3-1.29-.9-3Z"/><path class="cls-123" d="M562.57,536a19.29,19.29,0,0,1,6,5.14,1.3,1.3,0,0,1,.06,1.28,2.79,2.79,0,0,1-2.32,1.22c-1.73-.16-2.66-1.51-3.8-2.55l-1-1c-.72-2-2.81-3.72-.94-6.09Z"/><path class="cls-124" d="M560.62,534q.46,3,.94,6.09c-3.39-2.71-3.83-6.06-2.12-9.87.27.7,0,1.68,1,2C560.5,532.8,560.56,533.39,560.62,534Z"/><path class="cls-125" d="M567.57,548.14c-1.49-.69-2.45,1.17-3.88.8l-1.11-1.84a2.56,2.56,0,0,0,2.17-2,1,1,0,0,1,1.09-.19c1,.71,2.22,1.11,2.9,2.22C568.68,547.89,568.39,548.34,567.57,548.14Z"/><path class="cls-124" d="M565.48,544.92a2.29,2.29,0,0,1-.73.22L563.54,544l-1-3c1.76-.14,2.64,1.51,4.07,2C566.92,544.11,566.41,544.65,565.48,544.92Z"/><path class="cls-126" d="M567.57,548.14l1.09-1.07c4.94-3.49,9.38-3.16,14.61,1.08a1.91,1.91,0,0,0,.18.81C578.11,549.52,572.69,551.77,567.57,548.14Z"/><path class="cls-127" d="M583.27,548.15c-4.76-1.93-9.59-2.76-14.61-1.08-1.51-.06-3.06,0-3.18-2.15l1.14-1.84,1.75-1.07c3.68-.76,7.37-3.49,11,.09C580,544.59,585.17,544.07,583.27,548.15Z"/><path class="cls-128" d="M579.37,542.1c-3.65-2.35-7.34.56-11-.09q.14-.45.24-.9c3.16-1.19,6.31-2.47,9.75-1l2,1.09Z"/><path class="cls-129" d="M1485.5,558.62a45.65,45.65,0,0,1-41.6-49.48,33.16,33.16,0,0,1,1.1-4.74c2,.15,1.8,1.75,2.11,3-.18,7.24,1.58,14.12,3.89,20.89,5.69,14.59,16.54,23.06,31.64,26.13,14.5,2.94,27.61-.69,38.69-10.3,5.3-4.6,10-10.07,11.42-17.45.77-3.36,1.26-6.81,3.27-9.76a1.9,1.9,0,0,1,2.29.44,8.54,8.54,0,0,1-.17,4.23,42.71,42.71,0,0,1-13.25,24.08c-6.49,5.9-13.81,10.35-22.57,12.07-2-1.19-3.85.36-5.78.55C1492.86,558.5,1489.16,558,1485.5,558.62Z"/><path class="cls-130" d="M1524.29,483.1a23.23,23.23,0,0,1,8.84,11,33.55,33.55,0,0,1,3.11,11.91,6.28,6.28,0,0,1-.69,4,1.35,1.35,0,0,1-1.34.59c-1.85-1.4-1.12-3.68-1.85-5.46-.3-.87-.64-1.74-1-2.6-.39-1.09-.75-2.19-1.12-3.28a11.26,11.26,0,0,1-.34-1.39c-.51-3.86-2.43-7.05-4.75-10.07C1524.13,486.4,1522.51,485,1524.29,483.1Z"/><path class="cls-131" d="M1476.56,471.8c2.55-.81,5.11-1.59,7.84-1.15a54.32,54.32,0,0,1,15.8.06c3.83,2.16,8.73.78,12.33,3.7a2,2,0,0,1-1.18,1.55,17,17,0,0,0-4.56.91,4.29,4.29,0,0,1-2.57-1.25c-6.49-4-13.55-2.69-20.51-2.09a43.05,43.05,0,0,0-4.79,1,3.79,3.79,0,0,1-2.32-.56A1.59,1.59,0,0,1,1476.56,471.8Z"/><path class="cls-132" d="M1456.64,485.12c2-4.34,6-6.51,9.93-8.73a1.89,1.89,0,0,1,.66,1.86c-.87,2.44-3.28,3.69-4.52,5.84-1,1.48-2.26,2.7-3.33,4.1-1.37,2-2.45,4.18-3.77,6.21-.43.78-.84,1.57-1.26,2.36a3.79,3.79,0,0,1-1.87,2,1.42,1.42,0,0,1-1.18-.65c-1-3.46,1.78-5.85,2.47-8.83C1454.33,487.6,1456,486.72,1456.64,485.12Z"/><path class="cls-133" d="M1524.29,483.1c-.44,2.41,1.72,3.34,2.74,4.94,2,3.18,4.33,6.29,4,10.39-1.89.34-1.8-1.4-2.49-2.32a9.36,9.36,0,0,0-1.29-2,18,18,0,0,1-1.78-3,14.55,14.55,0,0,0-1.91-2.17c-.71-.71-1.44-1.42-2.17-2.12a27.11,27.11,0,0,1-3.37-3.89c-.77-1.95-4-2.78-2.61-5.7,3.58.39,5.51,3.34,8.12,5.23Z"/><path class="cls-134" d="M1535,506.34c.87-4.31-2-8-1.91-12.25,4,3.05,2.75,8.27,4.93,12.08.81,1.66.26,3.43.41,5.14a4.54,4.54,0,0,1-.29,1.5c-.61,1.27.45,4.05-2.73,3C1533.4,512.75,1536.85,509.43,1535,506.34Z"/><path class="cls-135" d="M1445.88,507.36c-.07-1.05.16-2.2-.88-3a27.36,27.36,0,0,1,4.72-11.14c1.16.84,1.07,2.05,1,3.25a8,8,0,0,1-.26,1.38,15.85,15.85,0,0,0-.45,4.8,13.39,13.39,0,0,1-.38,2.89c-.73,1.86-.18,4.07-1.6,5.74C1445,511.23,1447.24,508.33,1445.88,507.36Z"/><path class="cls-136" d="M1449.82,497.42c0-1.38-.07-2.77-.1-4.16,1.64-3.28,2.87-6.9,6.92-8.14.4,1.9-1.21,2.94-1.88,4.38C1452.67,491.87,1452.44,495.39,1449.82,497.42Z"/><path class="cls-137" d="M1523.56,482.47c-3.28-.78-5-4.21-8.35-4.85-2.16,1-3.6.58-4-2l1.29-1.23C1516.32,476.94,1521.57,477.48,1523.56,482.47Z"/><path class="cls-138" d="M1466.66,478.61l-.09-2.22c3.24-1.72,6.36-3.72,10-4.59v1.86A11.91,11.91,0,0,1,1466.66,478.61Z"/><path class="cls-139" d="M1500.2,470.71l-15.8-.06A24.37,24.37,0,0,1,1500.2,470.71Z"/><path class="cls-140" d="M1485.5,558.62c3.87-1.63,7.92-.4,11.87-.77.22.18.3.36.22.54s-.15.27-.22.27A41.05,41.05,0,0,1,1485.5,558.62Z"/><path class="cls-141" d="M1538.14,521.61c-.05-1.46-.1-2.91-.16-4.37a5.89,5.89,0,0,1,0-5l0,0c.31-.43.6-.4.88,0C1539.09,515.43,1539.48,518.59,1538.14,521.61Z"/><path class="cls-142" d="M1497.37,558.66v-.81a3.4,3.4,0,0,1,5-.09C1500.66,558,1499.15,559.07,1497.37,558.66Z"/><path class="cls-143" d="M1538.89,512.29l-.89,0,.06-6.08C1539.22,508.09,1539.07,510.19,1538.89,512.29Z"/><path class="cls-144" d="M1445.88,507.36c1.57.86.35,3.09,1.94,3.94,2.51,4.44,2.13,9.84,4.74,14.25,6.54,13.55,16.63,22.41,32,24.22,1.23.09,2.39.55,3.61.71,2.22.17,4.44.09,6.66.11,16.24-.19,32.8-13.44,37.14-29.74a14.11,14.11,0,0,1,.37-1.42c1.27-2.92.67-6.39,2.63-9.12,0-1.32,0-2.64,0-4,2,3.14.53,6.62,1,9.91.34.21.46.43.35.65s-.22.33-.33.33c.44,3.53-2.09,6.45-2,9.9-13.54,31-49.4,36.53-70.83,18.77a51.81,51.81,0,0,1-13.39-16.79C1447.6,522,1445.38,514.93,1445.88,507.36Z"/><path class="cls-145" d="M1449.81,529.11c3.87,4.19,6.66,9.16,10.66,13.35,16.72,17.51,47.75,15.93,62-.1A171.41,171.41,0,0,0,1534,527.13c-2.55,9.53-8.82,16.34-16.69,21.65a45.92,45.92,0,0,1-56.13-3.36C1456.32,541.1,1451.37,536.1,1449.81,529.11Z"/><path class="cls-146" d="M1536,517.23c0-.32,0-.65,0-1,1.6-.86.38-3.11,2-4,0,1.65,0,3.3,0,5Z"/><path class="cls-147" d="M1533.06,504.35c1.77,1.75.66,4,1,5.95,1,3.43-.7,6.6-1,9.9h0c-4.56,14.23-14,23.68-28,28.83-1.24.46-2.44,1.07-3.74.19a2.25,2.25,0,0,1-.49-2.14,3.58,3.58,0,0,1,1.5-1.67c17.09-6.82,27.77-18.65,29.4-37.57C1531.86,506.56,1532,505.27,1533.06,504.35Z"/><path class="cls-148" d="M1533.06,504.35l0,4c-1.76,3.05-1.61,6.61-2.67,9.87A35.06,35.06,0,0,1,1515,538c-3.71,2.26-7.07,5.26-11.47,6.29a2.15,2.15,0,0,1-.87-1.2,3.66,3.66,0,0,1,1.18-3.4c5.18-3.05,10.61-5.74,15-9.93a17.4,17.4,0,0,0,4.25-5.89,33.19,33.19,0,0,1,1.47-3.14c3-4.29,2.67-9.78,5-14.32.74-1.43.91-3.18,2.51-4.08A2.14,2.14,0,0,1,1533.06,504.35Z"/><path class="cls-149" d="M1532.08,502.35c-1.37,5-3.61,9.72-4.53,14.87-.28,1.51-.56,3.31-2.43,4a3,3,0,0,1-2.39-3.23c.85-6.25,4.89-11.19,7-16.92a3.43,3.43,0,0,1,1.32-1.66C1532.21,500.11,1532,501.27,1532.08,502.35Z"/><path class="cls-150" d="M1531.08,499.39l0,2c-1.84,1-2.57,3.39-4.89,3.73a4.89,4.89,0,0,1-1.43,0c-1.81-.75-3.64-1.49-4-3.76,1.94-3.19,6-3.41,8.41-5.91l2,3C1531.07,498.75,1531.07,499.07,1531.08,499.39Z"/><path class="cls-151" d="M1533.05,520.2c-.4-3.37.48-6.61,1-9.9h1C1535.12,513.76,1534.93,517.15,1533.05,520.2Z"/><path class="cls-152" d="M1505.33,475.49l2,1c0,.29,0,.57.08.85-9.76,6-19.73,6.28-29.88,1.06a1.77,1.77,0,0,1-1.08-2c6.38-5,13.84-3.89,21.06-3.4C1500.14,473.22,1503,473.7,1505.33,475.49Z"/><path class="cls-153" d="M1505.33,475.49c-7.4-.88-14.7-2.87-22.29-1-2.24.56-4.31,1.43-6.46,2.16a1.57,1.57,0,0,1-2,.16c0-2.77,2.73-2,4-3.18,7.62-2.88,15.37-2.57,23.17-.94C1503.32,473.06,1505,473.46,1505.33,475.49Z"/><path class="cls-154" d="M1478.55,473.66c-.9,1.56-3.21,1.38-3.91,3.17a1.86,1.86,0,0,1-.87,1.75c-2.43,1.63-5.29,2.56-7.52,4.53a5,5,0,0,1-3.19,1.23,2.56,2.56,0,0,1-1.26-.55c1-2.34,2.86-3.81,4.86-5.18l9.9-4.95Z"/><path class="cls-155" d="M1511.24,475.64a5.53,5.53,0,0,0,4,2c.82,2.08,3.35,2.9,3.85,5.22-1.18.66-2.17.08-3.17-.48a41.74,41.74,0,0,0-5.15-2.76c-1.37-.7-2.78-1.35-3.6-2.75l.17-.33C1508,473.33,1509.76,475.17,1511.24,475.64Z"/><path class="cls-156" d="M1453.73,496.4a2.19,2.19,0,0,1,1-2c2.79-.67,5.35.37,8,1.09,1.67.82,3.91.32,5.13,2.18-.74,2-4,2.73-3,5.68a2.3,2.3,0,0,1-1.26.54,4,4,0,0,1-2.49-1.21c-1.22-1.44-3-1.93-4.56-2.88C1455.28,499,1453.28,498.67,1453.73,496.4Z"/><path class="cls-157" d="M1462.68,496.44c-2.67-.55-5.5-.48-7.93-2a15.52,15.52,0,0,1,4.07-6.67,3.65,3.65,0,0,1,2.24,2,2.48,2.48,0,0,1-.21,1.21c-.71,1.08-.33,1.66.82,2a3,3,0,0,1,2.3,2.12A1.55,1.55,0,0,1,1462.68,496.44Z"/><path class="cls-158" d="M1453.73,496.4c1.81,3.12,6.73,2.1,8,6-1.31,1.38-3,1.25-4.62,1-2.34-.9-4.63-1.86-4.33-5A2.19,2.19,0,0,1,1453.73,496.4Z"/><path class="cls-159" d="M1449.82,497.42c2-2.39,1.84-6.18,4.94-7.92-.27,3.22-3.32,5.53-3,9a2.33,2.33,0,0,1,.58,1.87,33.46,33.46,0,0,1-.9,3.26c-.48,1.3-.54,2.76-1.53,3.86a1.51,1.51,0,0,1-1.37-.07,1.8,1.8,0,0,1,.22-2v-3c1.21-1.47-.17-3.46,1-4.94Z"/><path class="cls-160" d="M1460.56,489.51a1.6,1.6,0,0,1-1.74-1.74l3-4a3.78,3.78,0,0,1,1,0c1.65,1.32,3.32-.85,5,0a2.59,2.59,0,0,1,1.1.77,1.73,1.73,0,0,1-.89,1.72C1465.38,487.11,1463.47,489.46,1460.56,489.51Z"/><path class="cls-161" d="M1451.78,500.38l0-1.92.94-.08a10.3,10.3,0,0,0,4,4,1.58,1.58,0,0,1,.17,2c-2.26.68-3.87-.45-5.35-1.93A1.94,1.94,0,0,1,1451.78,500.38Z"/><path class="cls-162" d="M1529.11,495.4c-.79,4.47-5.57,3.64-7.95,6a1.63,1.63,0,0,1-1.87.42,7.07,7.07,0,0,1-2-1.89,2.41,2.41,0,0,1-.5-1.95c.82-1.73,2.67-1.62,4.07-2.32a32.91,32.91,0,0,1,7.16-2A1.81,1.81,0,0,1,1529.11,495.4Z"/><path class="cls-163" d="M1516.24,481.53l2.82,1.31c1,1.22,2.11,2.43,3.16,3.64-.6,2.41-2.35,1-3.64,1.1a7.66,7.66,0,0,1-1.27-.34,23.94,23.94,0,0,0-4.7-1.82c-.41-.11-.81-.23-1.21-.36a9.62,9.62,0,0,0-6.24.39c-1.12.21-2.32,1.09-3.23-.39-.19-2.07,1.31-2.73,2.82-3.38C1508.57,480.75,1512.4,481.3,1516.24,481.53Z"/><path class="cls-164" d="M1528,493.61c-1.55,2.73-4.66,1.68-6.86,2.83-1.07.52-1.67-.13-2.24-.89-.21-2.32,1.86-2.71,3.16-3.76a5.19,5.19,0,0,1,1.06-.65c1-.28,2-.36,2.94-.57Z"/><path class="cls-165" d="M1518.08,486.57c1.37-.64,2.79,1,4.14-.09l2,1.95c.5,1.07-.06,1.75-.87,2.33a2.19,2.19,0,0,1-1.36.11C1520.29,489.77,1517.92,489.3,1518.08,486.57Z"/><path class="cls-166" d="M1523.08,490.57l1.09-2.14c.64.71,1.28,1.42,1.91,2.14-.26,2.59-1.71,1.4-2.94.91-.23-.19-.32-.38-.26-.59S1523,490.57,1523.08,490.57Z"/><path class="cls-167" d="M1448.81,505.35l0,2c2.51,4.94,3,10.42,4.11,15.73a3.77,3.77,0,0,1-1.15,3.08c-2.86-4.54-3.85-9.58-4-14.85C1448.15,509.31,1447,507.09,1448.81,505.35Z"/><path class="cls-136" d="M1449.81,497.44c-.24,1.66.65,3.55-1,4.94C1449.06,500.71,1448.15,498.82,1449.81,497.44Z"/><path class="cls-168" d="M1451.79,526.15v-3c2.36-.18,2.24,2,3,3.25,6.12,9.73,13.57,17.69,25.54,19.87a9.85,9.85,0,0,1,4.34,1.66,2.33,2.33,0,0,1,1.07,1.59c-.13.72-.83.93-1.28,1.36C1472,551.1,1455.74,538.37,1451.79,526.15Z"/><path class="cls-151" d="M1501.33,548.93c14.91-3.47,24.45-13.09,30.57-26.63.33-.72.76-1.4,1.14-2.09-.93,8.12-5.52,14.18-11.18,19.56-7.42,7.06-15.93,11.85-26.49,12.12a.84.84,0,0,1-.32-.7c0-.27.06-.4.12-.4a19.24,19.24,0,0,1,2.53-1.84,3.27,3.27,0,0,1,1.16-.51A3.22,3.22,0,0,1,1501.33,548.93Z"/><path class="cls-169" d="M1495.4,550.91c0,.33,0,.65,0,1l-7.89,0c-.21-1,.41-1.41,1.16-1.77a10.71,10.71,0,0,1,4.71-.29A3.24,3.24,0,0,1,1495.4,550.91Z"/><path class="cls-170" d="M1488.57,550.85l-1.09,1-3-.94,1-1a2.22,2.22,0,0,1,2.75-.32A1,1,0,0,1,1488.57,550.85Z"/><path class="cls-171" d="M1503.46,544c5.54-4.75,12.76-7,17.93-12.44a35.9,35.9,0,0,0,9.64-18.9c.3-1.66.65-3.19,2-4.31-1.46,17-10.86,28.51-25.39,36.46a8.42,8.42,0,0,1-5.18,1.13l-.31-.59A1.62,1.62,0,0,1,1503.46,544Z"/><path class="cls-172" d="M1488.23,550l-2.7-.16-1-1.05a1.5,1.5,0,0,1-.13-2,21.16,21.16,0,0,0,15.39-2.27,2.63,2.63,0,0,1,2.35,1.43l.38-.09-1.12,1.07c-.61,1.25-1.86,1.5-3,1.94h0c-1.48,1.51-3.36,1.58-5.29,1.49C1491.46,550.24,1489.8,550.75,1488.23,550Z"/><path class="cls-173" d="M1498.35,548.92l3-1.94c0,.65,0,1.3,0,1.95A2.66,2.66,0,0,1,1498.35,548.92Z"/><path class="cls-174" d="M1524.13,524.17c-4,8.48-11.65,12.36-19.65,15.84-1-.85-.58-1.69,0-2.54,4.43-3.75,9.77-6.29,14-10.34C1520.56,526.5,1521,522.77,1524.13,524.17Z"/><path class="cls-175" d="M1524.13,524.17c-2.54.21-2.71,3.39-5,4-1.27-1.26-1.27-2.85-1.2-4.46a6.82,6.82,0,0,1,1.35-3.6c1-1.08,2-2.39,3.82-1.84l2,3Z"/><path class="cls-176" d="M1504.9,538a1.92,1.92,0,0,0-.42,2.06l-1.35,3a1,1,0,0,1-1.38-.44c-1.06-2.38-.78-4.84-.47-7.31a4.65,4.65,0,0,1,2.24-3.36C1506,533.44,1506.84,535.38,1504.9,538Z"/><path class="cls-177" d="M1502.31,543h.82l.33,1c-.46.67-.91,1.35-1.37,2l-1.75-1C1500.06,543.38,1500.71,542.71,1502.31,543Z"/><path class="cls-178" d="M1523.14,518.23l-3,2a2.74,2.74,0,0,1-1-1.8,5.54,5.54,0,0,1,0-1.35c.58-2.46,2.88-4.38,2.24-7.22.13-3,3-3.71,4.68-5.48,1.83-.7,2.66-3.06,5-3Q1527.09,509.81,1523.14,518.23Z"/><path class="cls-179" d="M1526.1,504.36c.3,3.06-4.25,2.89-4,5.94-1.46,1.64-3.07,3-5.47,2.72a7.17,7.17,0,0,1-2-.78c-1.42-.9-2.94-1.68-3.79-3.25-.19-2.89,2-2.82,3.89-3.15,3.64.83,6.7-2.37,10.34-1.48Z"/><path class="cls-180" d="M1525.11,504.36c-2.3,1.44-5.23,1.27-7.44,3.1-1.21,1-2-.16-2.53-1.29-.3-2,1.38-2.89,2.46-4.11a2.67,2.67,0,0,1,1.74-.68h1.82Z"/><path class="cls-181" d="M1507.14,476.85l4,2c-2.93,3.06-7.15,2.3-10.71,3.53a30.79,30.79,0,0,1-21.68-.64c-2-.79-4.59-1.09-5.12-3.92l1-.95,1.94-.15C1486.74,482.48,1496.93,481.5,1507.14,476.85Z"/><path class="cls-182" d="M1473.66,477.78c9.28,5.63,19.07,6,29.18,2.74a28,28,0,0,1,8.33-1.71c1.79.72,3.69,1.23,5.07,2.72-3.81,2.2-8,.42-11.91,1.06-7.4,3.88-15.19,3.88-23.13,2.34a16,16,0,0,1-3.09-.37c-2.71-.81-5.42-1.21-8.11.1a1.65,1.65,0,0,1-1.34-.13,1.69,1.69,0,0,0-.83-.16c-.78-.6-2.65.14-2.29-1.86C1467.65,479.91,1470.77,479.05,1473.66,477.78Z"/><path class="cls-183" d="M1465.54,482.51l2.29,1.86c-1.61-.87-3.76,2.7-5.08-.61Z"/><path class="cls-184" d="M1519.17,495.45l2,1c-.85,1.61-3.06.37-4,1.87a12,12,0,0,1-2.22,2.4,16.23,16.23,0,0,0-1.28,1.47,10.47,10.47,0,0,1-1.67,2.13c-3.28,2.07-6,1.15-8.29-1.64-1.62-2.1-3.24-4-4.92,0a4.88,4.88,0,0,1-1,1c-3.69,1.6-7.47,1.16-11.27.59-1.62-.24-1-2.45-2.46-2.83-1.62-1.7-3.35-1.94-5.22-.42-3,2.87-6.15,3.07-9.38.34-1-.57-2-1.22-2-2.58-.76-2.5-3.76-.4-4.81-2.33l1-1a3.7,3.7,0,0,1,3.66-.92c6.54,1.62,13.38.38,19.92,2.2a14.13,14.13,0,0,0,7.33,0c6.7-1.87,13.71-.57,20.42-2.19A4.16,4.16,0,0,1,1519.17,495.45Z"/><path class="cls-185" d="M1463.66,503.41l1.15-.08a2.52,2.52,0,0,1,2.5.72c1.31,1.3,2.88,2.44,2.86,4.57a3.6,3.6,0,0,1-2.32,2.57c-2.86,1-5.26.64-6.69-2.39C1461.19,506.64,1460.44,504.1,1463.66,503.41Z"/><path class="cls-186" d="M1466.64,504.44l-1.83-1.11c-.5-1.3-2.41-2.38-1.11-3.94a2.61,2.61,0,0,1,3.79-.62l1.84,1.76a7.64,7.64,0,0,1,4.61,4.9c-.76,2.24-2.14,1.36-3.45.66S1468.34,504,1466.64,504.44Z"/><path class="cls-187" d="M1463.66,503.41c-1.94,1.12-.79,3.48-2,4.91-1,.55-1.72,0-2.52-.41-1.13-1-3-1.41-2.44-3.55v-2h5Z"/><path class="cls-188" d="M1519.17,495.45c-9.1,1-18.2,2.76-27.3,2.75-9.39,0-18.79-1.76-28.18-2.75a4.36,4.36,0,0,0-2.82-1.71c-.82-.2-2,.48-2.09-1.14,0-1.41.7-2.05,2-2.16a1.28,1.28,0,0,1,1.19-.23c2.29,1,4.22-.59,6.35-.86,5.78-.49,11.23,1.66,17,2a98.18,98.18,0,0,0,21.89-1.44,41.64,41.64,0,0,1,8.76-.73,10.18,10.18,0,0,1,1.57.15,5.85,5.85,0,0,1,1.43.47c1.32,1,2.87,1.63,4.16,2.69C1522.14,493.92,1519.68,493.38,1519.17,495.45Z"/><path class="cls-189" d="M1461.69,490.68a3.45,3.45,0,0,0-.89-.24,3.74,3.74,0,0,0-.24-.93c2.19-1.63,3.91-4.09,7.07-4,1.08,1.17.48,2.28-.1,3.39a4.86,4.86,0,0,1-1.72,1.36C1464.47,490.77,1463.18,491.71,1461.69,490.68Z"/><path class="cls-190" d="M1480.58,546.82c-2.28,1.44-4.33.12-6.26-.75-10.48-4.67-17.61-12.71-22.53-22.89-.84-5.31-3-10.37-3-15.84h1c2.23.84,2.67,2.94,2.89,4.82.5,4.34,2.37,8.19,3.89,12.17a19,19,0,0,0,6.09,9.36c5,4.41,10.18,8.72,16.72,10.83A2,2,0,0,1,1480.58,546.82Z"/><path class="cls-191" d="M1455.76,525.16c-3.55-5.43-3.47-12.06-6-17.83.14-1.37-.44-2.92,1-4,4.13,5,4.76,11.29,6.64,17.12,2.8,7.93,9.37,12,16.13,16a2.27,2.27,0,0,0,2.76-.27,1.18,1.18,0,0,1,1.81.3,7.27,7.27,0,0,1,.34,5.11c-.5,1.26-1.2,1.83-2.61,1C1468,538.14,1460.21,533.55,1455.76,525.16Z"/><path class="cls-192" d="M1456.74,521.2q-3-8.93-6-17.84c0-1.09-.14-2.25,1-3,0,.67,0,1.33,0,2a15.5,15.5,0,0,1,3.8,4.07c1.2,4.87,4.09,9,6,13.58a7.49,7.49,0,0,1-1.49,4.07C1457.58,524.7,1458,522,1456.74,521.2Z"/><path class="cls-193" d="M1466.69,488.62c.32-1,.63-2.06.94-3.09l1-1,1-.15.76-.08a18.55,18.55,0,0,1,9.67,1.76c.64.67,1,1.34,0,2C1475.65,489.16,1471.21,489.81,1466.69,488.62Z"/><path class="cls-194" d="M1454.76,506.34c-1.78-.72-2.15-2.51-3-4l4.94,2,3,3C1457.67,509,1456.09,508.27,1454.76,506.34Z"/><path class="cls-195" d="M1519.34,501.38l-1,1.06a1.48,1.48,0,0,1-2.45-.58c-.27-1.77,1-2,2.26-2.31C1519.31,499.63,1519.09,500.66,1519.34,501.38Z"/><path class="cls-196" d="M1518.11,499.55l-1.94,1.74a.81.81,0,0,1-1,.44,2.57,2.57,0,0,1-.93-.77c-.06-.2-.12-.39-.19-.59.72-1.18,1.51-2.25,3.13-2.06C1517.5,498.72,1517.8,499.14,1518.11,499.55Z"/><path class="cls-197" d="M1480.45,483.62c8,1.83,16,.26,23.88-1-.58,1-2.11,1.28-2,2.76a2.94,2.94,0,0,1-1,2.42c-6.36,2.11-12.8,1.47-19.24.5A4.61,4.61,0,0,1,1480.45,483.62Z"/><path class="cls-198" d="M1518.21,490.32l-.46.15h-.48a43.38,43.38,0,0,0-10.39-1.63c-1.8-.08-4,.37-4.77-2.2a20,20,0,0,1,10.18-2.13c1.93,0,3.71.35,5,2C1517,487.91,1519.74,488.59,1518.21,490.32Z"/><path class="cls-199" d="M1512.29,484.51c-3.16,1.67-6.6,1.95-10.07,2.1-.35.36-.63.3-.83-.16l.91-1.1,2.69-.93a14.71,14.71,0,0,1,7.28.09Z"/><path class="cls-200" d="M1518.21,490.32a3.84,3.84,0,0,0-1.67-2.69c-1.41-1.24.31-.84.72-1.13l.82.07c.92,1.89,3.6,1.84,4.32,3.95-1,2.45-2.1,1.3-3.24.17Z"/><path class="cls-201" d="M1512.27,484.51l-7.28-.09A7.9,7.9,0,0,1,1512.27,484.51Z"/><path class="cls-202" d="M1519.16,490.69c1.08,0,2.26,1.89,3.24-.17l.68.05.06.91c0,.34,0,.67,0,1C1521.62,492.28,1519.62,493.17,1519.16,490.69Z"/><path class="cls-203" d="M1480.58,546.82l-1.22-1.82a2.21,2.21,0,0,1-1.18-2.93c.33-.86.51-1.82,1.47-2.28,2.92,1.5,3.44,4.63,4.83,7.17v1.85Z"/><path class="cls-204" d="M1493.53,550l4.83-1.06c-.07,2-1.51,2-3,2l-2.15-.1C1493,550.42,1493.08,550.13,1493.53,550Z"/><path class="cls-205" d="M1493.53,550c-.1.28-.2.56-.28.84l-4.68,0a5.37,5.37,0,0,0-.34-.83Z"/><path class="cls-206" d="M1484.48,547c-3.07-1.31-3.26-4.66-4.93-7-1.18-1-.92-2.35-1-3.62a4.58,4.58,0,0,1,.88-3.59c1.56-1.47,3.17-2.91,4.74-4.38a14.07,14.07,0,0,1,4.57-2.1,8.62,8.62,0,0,1,4.34,0,14.23,14.23,0,0,1,4.56,2.06c2.08,1.87,4.23,3.71,4.66,6.72,0,2.63,0,5.27,0,7.9l-2,2C1495.4,548.41,1490.33,550.72,1484.48,547Z"/><path class="cls-207" d="M1504.9,538c-.42-2-.21-4.21-1.53-6a1.49,1.49,0,0,1-.23-1.9c5.79-.36,10-3.76,14.08-7.37a2,2,0,0,1,2,.51v5A78,78,0,0,1,1504.9,538Z"/><path class="cls-208" d="M1519.17,523.18h-2c-2.83,1.55-4.5,5.41-8.64,4.33-1.19-3.77,3.16-4.72,3.82-7.55a2.9,2.9,0,0,1,1.56-1.26c2.11.4,4.11-.87,6.23-.48v2Z"/><path class="cls-209" d="M1503.06,530.15c.1.6.2,1.19.31,1.79l-1.07,3.14-5-5.9a3,3,0,0,1,2.15-1.48C1501.14,527.82,1502.62,528.22,1503.06,530.15Z"/><path class="cls-210" d="M1516.36,512.27c2.35.59,3.4-2.64,5.78-2,2.15,3.11-1.81,4.47-2,6.92-.74.4-1.26,0-1.77-.46C1517.57,515.33,1515.43,514.49,1516.36,512.27Z"/><path class="cls-211" d="M1519.21,516.33l1,.89c0,.34,0,.67,0,1-1.82,1.3-3.6,2.82-5.94,1a7.76,7.76,0,0,1-2.74-1.74c-.76-1-2-1.88-1.16-3.45,2.5-1.15,3.73,1.77,5.85,1.83C1517.19,516,1518.27,515.67,1519.21,516.33Z"/><path class="cls-212" d="M1515.23,501.29h.94a2.2,2.2,0,0,0,2.13,1.15c-1,1.24-2.1,2.49-3.16,3.73-.88,1.49-3.8.39-3.79,3l-.53.36a5.79,5.79,0,0,0-4.19.31,2.79,2.79,0,0,1-1.25-.12,14.61,14.61,0,0,1-2.38-2.07,10.43,10.43,0,0,1-.8-1,5.65,5.65,0,0,0-3-2c-.73-.59-1.25-1.26-.87-2.26l.46.07c1.51-1.95,3.5-1.43,5.46-1.07,2,3.18,4.57,3.91,7.83,1.94.82-.42.61-1.43,1.17-2l.86-1,.41.06A1.8,1.8,0,0,0,1515.23,501.29Z"/><path class="cls-213" d="M1519.21,516.33c-1,.08-1.75,1.41-3,.81-1.13-1.06-2.41-2-2.57-3.73a2,2,0,0,1,1.56-2l1.14.82Z"/><path class="cls-214" d="M1515.22,511.45l-1,1.82c-2.24.52-2.65-1.25-3.34-2.68a1.38,1.38,0,0,1,.37-1.25l.1-.17C1513.16,509.05,1513.86,510.8,1515.22,511.45Z"/><path class="cls-160" d="M1480.45,483.62a5.3,5.3,0,0,1,1.08,3.9.72.72,0,0,1-1-.06c.09-.55-.08-.93-.69-1-1-1.13-3.56-.56-3.46-3a1.18,1.18,0,0,1,1.33-.06Z"/><path class="cls-183" d="M1477.73,483.4l-1.41.27c-2,1.48-4.48.67-6.71,1.08l0-.37C1472,480.93,1474.9,482.64,1477.73,483.4Z"/><path class="cls-215" d="M1498.29,502.39l1.12,1.46c.87,1.29,2.55,1.39,3.57,2.46a1.55,1.55,0,0,1,.4.89c1,3.58-1.79,4.35-4,4.64-4.44.56-8.87,2.66-13.45.58-.32-.14-.91.29-1.39.42-3.38,0-5.14-1.72-5.57-5,.45-1.81,1.81-2.89,3.18-4,1.06-.56,2.11-1.24,3.38-.56C1489.75,503,1494.14,504.33,1498.29,502.39Z"/><path class="cls-156" d="M1473.57,505.37q-2.11-2.43-4.24-4.84c3.13,1.55,6.25,2.28,9.31-.16.95-.09,1.2.44,1.11,1.27C1478.29,503.89,1476.74,506,1473.57,505.37Z"/><path class="cls-216" d="M1504.21,501.39l-5.46,1.07c-1.22-1.71-.74-3.32.94-4.06C1502.43,497.18,1502.44,500.75,1504.21,501.39Z"/><path class="cls-217" d="M1479.28,501.32l-.64-.95c2.49-2.62,4.76-4,5.92,1a2.36,2.36,0,0,1-2.22,1.6A3.55,3.55,0,0,1,1479.28,501.32Z"/><path class="cls-218" d="M1482.81,502.56l1.75-1.16,1.61-.13-.68,2.08-3,1a1.66,1.66,0,0,1-.5-1.09A.72.72,0,0,1,1482.81,502.56Z"/><path class="cls-219" d="M1513.21,501.33c-.06.86-.16,1.69-1.17,2Z"/><path class="cls-220" d="M1454.76,506.34a8.13,8.13,0,0,0,5,1l2,1c1.34,2.91,3.87,2.33,6.27,2.12-.19,2.86-3.22,4.25-3.59,7a6.87,6.87,0,0,1-1.68,3.07,1.66,1.66,0,0,1-2-.33C1458.14,515.83,1455.18,511.63,1454.76,506.34Z"/><path class="cls-221" d="M1482.81,502.56l-.26,1c-1.15,1.46-2.56,2.69-3.76,4.11a6.41,6.41,0,0,1-2.49,1.82,10.27,10.27,0,0,0-4.8-.36,2.18,2.18,0,0,1-1.71-.76l-3.15-3.9c.36-2.56,1.43-1.74,2.86-.75,1.19.83,1.74,3.54,4.07,1.68l5.71-4.05Z"/><path class="cls-222" d="M1469.79,508.34l1.8,0c.87.78.73,2,1.29,2.91.24,1.42-.68,2.42-1.26,3.56a10.49,10.49,0,0,1-.73,1.1c-1.41,1.47-2.59,3.21-4.65,3.9-1.72.06-2.74-.67-2.82-2.47-.13-3.38,3.07-4.56,4.55-6.88Z"/><path class="cls-223" d="M1480.55,487.46a5.32,5.32,0,0,0,1,.06c5.09,0,10.19,0,15.28,0,1.57,0,3.34.53,4.58-1.05l.83.16c4.91,1.72,10.67.1,15,3.86-7.9-.1-15.52,2.54-23.37,2.59a104.84,104.84,0,0,1-17.52-1.32c-3.23-.53-6.38-1.43-9.7-1.22-1,.51-1.12,0-1-.86l1-1A62.61,62.61,0,0,1,1480.55,487.46Z"/><path class="cls-224" d="M1465.69,489.66l1,.86c-1.65.57-3.22,3.32-5,.16Z"/><path class="cls-225" d="M1478.38,542.11c.33,1,.65,1.93,1,2.89-4.83,1.67-6.77-3-9.95-4.77-6.15-3.4-11.41-8-13.65-15.07,5.86,7.42,13.33,12.76,21.83,16.76C1477.93,541.65,1478.19,541.71,1478.38,542.11Z"/><path class="cls-226" d="M1456.74,521.2l3,3c2.22.57,3.49,2.6,5.46,3.56,3.14,3.88,8.71,4.8,11.35,9.29,0,1.43-.82,1.65-1.92,1.1C1466.92,534.32,1459.65,530.06,1456.74,521.2Z"/><path class="cls-227" d="M1476.53,537c-3.93-3-9.09-4.35-11.86-8.89,2.6-2.09,4.71,1,7.15.67a19.1,19.1,0,0,1,6.61,1.86c1.22,1.15.42,2.37.13,3.58a2.27,2.27,0,0,1-1.23,1.81Z"/><path class="cls-228" d="M1477.33,536.05l.38-1.94c1.81-.49,1,1.54,1.82,1.94,0,1.32,0,2.63,0,4a2.17,2.17,0,0,1-1.17,2.11c-.27-.05-.53-.12-.79-.19Q1477.46,539,1477.33,536.05Z"/><path class="cls-229" d="M1471.61,530.11c-2.67.59-4.27-2.57-6.94-2-2.51-.24-3.72-2.12-5-4a6.61,6.61,0,0,1,1-4h2c1.52.43,2.31,1.86,3.58,2.63C1468.28,525.09,1471,526.86,1471.61,530.11Z"/><path class="cls-230" d="M1469.61,484.75c2.1-1.2,4.47-.77,6.71-1.08,1.22.87,3.44.49,3.53,2.79Z"/><path class="cls-231" d="M1515.23,501.29l-.75-.86Z"/><path class="cls-232" d="M1479.53,536.05l-1.82-1.94c.27-1,.54-2,.82-3a4.25,4.25,0,0,1,.59-2.85,15.74,15.74,0,0,1,8.64-4.3,42.71,42.71,0,0,1,6.88.07,7.77,7.77,0,0,1,4.65,2.41,1.57,1.57,0,0,1,.22,1.44,2.35,2.35,0,0,1-2.19,1.31l-3.93-2a4.84,4.84,0,0,0-4.93,0l-4,1.94a11.43,11.43,0,0,0-4,4C1479.4,533.8,1479.62,535,1479.53,536.05Z"/><path class="cls-228" d="M1480.53,533.07a4.13,4.13,0,0,1,4-4A10.23,10.23,0,0,1,1480.53,533.07Z"/><path class="cls-233" d="M1488.46,527.18c1.66-1.5,3.3-1.55,4.93,0Z"/><path class="cls-234" d="M1499.51,527.87c0-.28-.09-.55-.12-.82-.27-.88.27-1.21,1-1.44a3.28,3.28,0,0,1,1.32.14c1.93,1.73,4.59,0,6.6,1.39,3.54,0,5.76-3,8.92-4-3.51,4.75-7.48,8.57-14.13,7Z"/><path class="cls-235" d="M1508.27,527.14c-2.39.23-5.08,2.57-6.93-1,3.11-3.67,6.33-7.14,11.89-5.94C1513,523.5,1509.4,524.46,1508.27,527.14Z"/><path class="cls-236" d="M1513.23,520.21c-4.74.43-7.84,4.14-11.89,5.94h-1c-1-.52-2.5-.48-2.41-2.2a2.84,2.84,0,0,1,2-1.89c4.27-1.17,7.76-4.31,12.28-4.82a3.45,3.45,0,0,1,2,2Z"/><path class="cls-237" d="M1512.24,517.23a39.85,39.85,0,0,1-11.89,5.95c-.69-1.21,0-2.22.48-3.25,1.92-2.59,4.55-4.53,6.44-7.14a3.67,3.67,0,0,1,1.09-.83,2,2,0,0,1,1.32.26,1.84,1.84,0,0,1,.64,1.83Z"/><path class="cls-238" d="M1510.32,514.05l-1.17-1.72c.22-1.17.35-2.43,2.1-2l3,3c.55,1.35,2.12,2.18,2,3.87C1513.61,517.35,1512.88,514,1510.32,514.05Z"/><path class="cls-239" d="M1484.49,512.28c.13-.81.6-2.13,1.25-1.71,4,2.53,7.76.7,11.79.21a9.79,9.79,0,0,0,5.43-2.21c.31-.25.28-.9.42-1.37,1.14.18,2,.62,1.65,2a2.17,2.17,0,0,1-.56,1.74,7.48,7.48,0,0,1-2.47,2,17.38,17.38,0,0,1-1.88.65c-3.23,1.93-6.53,3.77-10.47,3C1487.2,516.23,1484.35,515.92,1484.49,512.28Z"/><path class="cls-240" d="M1503.94,510.08l1.09-.86,1.26.09c.79.85,2.4,1.14,1.9,2.85l.14.29c-1.94,1.79-3.11,4.47-6,5.09a2.64,2.64,0,0,1-1.53-2.18,3,3,0,0,1,1.89-2.61C1503.53,512.08,1504.31,511.36,1503.94,510.08Z"/><path class="cls-241" d="M1508.19,512.16c-.62-1-2.07-1.36-1.9-2.85,1.67-2.32,3.32-2.28,5,0q0,.48,0,1l-2.1,2A4.39,4.39,0,0,1,1508.19,512.16Z"/><path class="cls-242" d="M1503,506.31c-1.85.13-3.22-.41-3.57-2.46A3.59,3.59,0,0,1,1503,506.31Z"/><path class="cls-243" d="M1484.49,512.28c3.42,4,8.29,4.7,12.54,1.76,1.07-.75,1.92-1.81,3.4-1.72.58,2-1.88,3-1.69,4.88a3.69,3.69,0,0,1-.82,1.17c-4.5,2.79-8.94,2.76-13.33-.24a18.72,18.72,0,0,0-5.77-6,8.21,8.21,0,0,1-1.93-2.37l-.15-.59c-.27-1.39.47-1.86,1.72-1.88.37-.41.73-.38,1.07.05A5.88,5.88,0,0,0,1484.49,512.28Z"/><path class="cls-244" d="M1479.53,507.36l-1.07-.05a12.54,12.54,0,0,1,4.09-3.78c0,.27,0,.53,0,.8A6.14,6.14,0,0,1,1479.53,507.36Z"/><path class="cls-245" d="M1465.66,523.18c-1.94,0-2.25-1.71-3-3,0-1-.19-2.1.73-2.89.8,1,1.6,2.06,3.13,1.86a2.53,2.53,0,0,1,3.58.33c.94,1.84,2.32,3.56,1.52,5.85C1468.76,527.09,1467.63,524,1465.66,523.18Z"/><path class="cls-246" d="M1472.7,511.32c-2.66-.15-.78-2-1.11-3,2-1.53,3.63-.62,5.15.87l0,0c.58,1.32,0,2.31-.88,3.22C1474.46,513,1473.52,512.33,1472.7,511.32Z"/><path class="cls-236" d="M1469.63,520.21c-.75-1.19-2-1-3.08-1,1.33-1.35,2.67-2.7,4-4.06,3.55,1.55,6.47,4.38,10.39,5.19,1.61,1,3.73,1.56,3.78,4-4,3-6.32,3.08-10.53.29C1472.38,523.44,1471.22,521.61,1469.63,520.21Z"/><path class="cls-247" d="M1480.53,521.2c-4-.91-7.65-2.42-10-6.08a3.28,3.28,0,0,1,.21-.86c4.42-2,5.51-1.46,10.25,4.9A2,2,0,0,1,1480.53,521.2Z"/><path class="cls-248" d="M1480.52,519.23c-3.28-1.61-4.71-6.83-9.76-5,.64-1,1.29-2,1.94-2.94l2.84,1a3,3,0,0,1,1.85.77c1.8,2.34,4.82,3.27,6.58,5.67C1483.17,521.63,1481.91,520.92,1480.52,519.23Z"/><path class="cls-249" d="M1465.66,523.18c2.2,0,3.54,2.58,5.95,2a10,10,0,0,1,7.82,3.93,1.84,1.84,0,0,1-.9,2l-6.92-1C1469.11,528.24,1467.53,525.58,1465.66,523.18Z"/><path class="cls-250" d="M1479.43,529.09c-2.72-1.09-5.53-2-7.82-3.93l-2-4.95c2.06,0,2.95,1.76,4.33,2.79,3.26,2.45,6.68,3.92,10.53,1.16,3.26-3.64,7-2.69,10.79-1.1a1,1,0,0,1-.15,1.44c-2.65.49-5.4-.34-8,.54C1484.1,525.55,1481.92,527.62,1479.43,529.09Z"/><path class="cls-233" d="M1487.11,525c2.57-1.61,5.35-.7,8.05-.66.43.08.54.33.4.72Z"/><path class="cls-235" d="M1495.56,525.1a3.13,3.13,0,0,1-.39-.72l.26-.27a2,2,0,0,1,2.93.06l2,2-.95.91Z"/><path class="cls-251" d="M1498.36,524.17l-2.93-.06c-3.65-1.64-7.3-1.32-10.94,0l-4-3c0-.66,0-1.31,0-2,1.22.46,2.65,1.65,3-.88a1.18,1.18,0,0,1,1.17-1.11c4.47,2.5,8.94,2.65,13.41,0a2,2,0,0,1,1.59.62,8.94,8.94,0,0,1,1.67,2.36l-1,3A2.05,2.05,0,0,0,1498.36,524.17Z"/><path class="cls-252" d="M1501.34,520.22a1.76,1.76,0,0,1-2-1.77,2.42,2.42,0,0,1,2.91-1.48c2.53-.83,3.39-3.89,6.07-4.52C1507.07,516,1504,518,1501.34,520.22Z"/><path class="cls-253" d="M1498.29,516.28c-.75-2.11,1.78-2.45,2.14-4l1.59-.26c1.08-.3,1.38.21,1.24,1.19l-2,2C1500.65,516.57,1499.76,517.25,1498.29,516.28Z"/><path class="cls-254" d="M1503.26,513.25l-1.24-1.19,1.92-2C1506.22,511.67,1504.63,512.44,1503.26,513.25Z"/><path class="cls-254" d="M1498.29,516.28l3-1.06,1,1.75c-.85.73-1.59,1.68-2.91,1.48l-1.27-1.21A7.82,7.82,0,0,1,1498.29,516.28Z"/><path class="cls-255" d="M1484.67,517.24l-1.17,1.11c-3.67.2-5-2.81-7-5-.19-1.73.5-2.54,2.3-2.18C1481.73,512.27,1484.42,513.58,1484.67,517.24Z"/><path class="cls-256" d="M1478.84,511.14a3.84,3.84,0,0,0-2.3,2.18l-1-1,1.16-3.18A1.87,1.87,0,0,1,1478.84,511.14Z"/><path class="cls-257" d="M1895.69,896.39v65.93c-.75,3.44-3.14,5.12-6.37,5.9a52.46,52.46,0,0,1-8.77.29c-51.68,0-103.36.18-155-.15-8.63-.05-16.18,1.11-22.43,7.33-3.61,2.45-6.67,5.63-10.37,8-1.6,1-3.29,2.42-5.2,1.41s-1.84-3.16-1.9-5.08c-.08-2.48,0-5-.07-7.46,0-2.74-1.39-3.78-4.06-4-12.91-1.11-13-1.26-13-14.11q0-27,0-54c0-7.61,1.26-8.85,9-8.85q104.9,0,209.81,0C1891.09,891.53,1894.73,891.56,1895.69,896.39Z"/><path class="cls-258" d="M1702.19,974.48c5.41-5.5,11.43-8.15,19.68-8.09,56.15.42,112.3.24,168.46.26,3.59-.69,4.5,1.85,5.36,4.46V1037c-.9,4.33-4,5.81-8,6.09-2,.14-4.09.09-6.14.09-39.79,0-79.58,0-119.36-.07a18.33,18.33,0,0,0-11.69,3.87c-6.18,4.59-11.75,10.15-19.19,12.87h-.88c-2.74-2.79-1.69-6.33-1.77-9.59-.16-6.93-.17-7-7.19-7.06-3.65,0-7.3.15-10.94-.09-6.5-.43-9.91-3.85-10-10.36-.16-17.66-.06-35.33-.06-53A8.68,8.68,0,0,1,1702.19,974.48Z"/><path class="cls-1" d="M1702.19,974.48q.07,28.69.13,57.39c0,7.26,2.15,9.43,9.33,9.45,5,0,9.94.24,14.89-.08,3.45-.23,4.17,1.06,4,4.21-.26,4.8-.08,9.63-.09,14.44H1668q0-82.64-.08-165.26c0-3,.59-3.61,3.6-3.6q109.43.16,218.86,0c4.51,0,6.26.9,5.27,5.41-2.25-3.61-5.53-4.47-9.66-4.47q-103.71.15-207.41.07c-7.66,0-9.69,2-9.69,9.5q0,27.9,0,55.81c0,7.06,2.16,9.26,9.07,9.3,9.52.06,9.52.06,9.52,9.47V985Z"/><path class="cls-1" d="M1731.33,1059.89c7.09-6.75,15.44-11.87,23.06-17.94,1.49-1.19,3.4-.61,5.12-.61q63.18,0,126.38.05c4.1,0,7.43-.87,9.8-4.35,0,6.43-.18,12.87.08,19.29.12,2.9-.42,3.66-3.53,3.65Q1811.78,1059.8,1731.33,1059.89Z"/><path class="cls-1" d="M1895.69,971.11c-1.59-1.73-3-3.68-5.36-4.46,2.25-.87,3.76-2.65,5.36-4.33Z"/><path class="cls-259" d="M1750.1,934l10.7,14.42c-12.2,4.65-13.94-6.55-19.47-12.82A33.5,33.5,0,0,0,1741,946c.31,4-2.29,3.25-4.47,3.15-2-.1-4.73,1.25-4.64-2.94.23-10.81.14-21.63,0-32.45,0-2.5.72-3.35,3.22-3.2,3.21.2,6.43,0,9.65,0,6.19.08,11.68,4.19,12.85,9.58C1759,926.55,1756.92,930.53,1750.1,934Z"/><path class="cls-259" d="M1813.3,949.13c3-7.65,5.92-14.93,8.82-22.2,1.94-4.87,4.11-9.66,5.76-14.63.9-2.71,2.8-1.73,4.24-1.64s3.64-1.34,4.72,1.55c4.39,11.73,9,23.37,13.56,35a12.64,12.64,0,0,1,.4,1.87,39.34,39.34,0,0,0-5,0c-2.73.36-4.56-.45-5-3.31-.58-3.49-2.71-4.35-5.92-3.91a18.89,18.89,0,0,1-4.81,0c-3.51-.44-6,.48-6.55,4.37-.39,2.65-2.18,3-4.46,2.83C1817.29,949,1815.54,949.13,1813.3,949.13Z"/><path class="cls-259" d="M1699.42,929.86c0-5.27.11-10.54-.05-15.8-.07-2.52.41-3.77,3.32-3.56,3.79.27,7.6.1,11.41.12,5.71,0,12.86,6.35,12.26,13.75-.56,7-4.67,11.31-11.75,11.57-6.24.23-6.24.23-6.24,6.55v.87c0,5.71-1.94,7.11-7.52,5.81-1.81-.43-1.4-1.58-1.41-2.63C1699.4,941,1699.42,935.42,1699.42,929.86Z"/><path class="cls-260" d="M1799.76,935.25c3.18-7.87,6-14.84,8.79-21.83.88-2.22,7.86-4.28,9.45-2.63.77.79.33,1.91-.07,2.84-4.81,11.28-9.69,22.52-14.41,33.84-.9,2.18-2.49,1.57-4,1.64s-2.72.21-3.51-1.68c-4.73-11.3-9.62-22.53-14.45-33.79-1.08-2.51-.14-3,2.43-3.19,4.25-.28,6.73.58,8.08,5.28C1793.92,922.08,1796.88,928.1,1799.76,935.25Z"/><path class="cls-260" d="M1857.63,933.91c0-3.8-.2-7.62.06-11.4.2-3-.9-3.76-3.73-3.65a5,5,0,0,1-4.41-7.48c.56-1,1.46-.81,2.3-.81,6.72,0,13.45.13,20.17-.08,3.27-.1,2.75,2,2.51,3.73s1.61,5.18-2.38,4.61c-5.2-.74-5.91,1.58-5.67,6,.38,6.85-.22,13.76.22,20.61.29,4.53-2.43,3.47-4.91,3.69-3,.27-4.61-.23-4.24-3.86S1857.63,937.71,1857.63,933.91Z"/><path class="cls-260" d="M1766.22,929.82c0-5.39.21-10.8-.07-16.18-.21-4.09,2.5-3,4.61-3.06s4.6-.82,4.5,3.18c-.26,10.79-.24,21.59,0,32.38.1,4.64-3.07,2.68-5.07,2.94-2.16.29-4.28.57-4-3.07C1766.48,940.63,1766.22,935.22,1766.22,929.82Z"/><path class="cls-261" d="M1768.14,998.28c0,7.62-.24,14.06.09,20.47.22,4.33-2.56,3.19-4.84,3.35-2.51.18-4.39.21-4.3-3.45.25-10.08,0-20.18.13-30.27,0-1.59-1-4.22,1.1-4.59,2.63-.45,5.77-1.45,8.07,1.49,4.94,6.31,10,12.54,15,18.79.82,1,1.7,2,2.83,3.3,1.41-3,.64-5.9.74-8.65.15-4.09.18-8.19,0-12.28s2.82-2.76,4.82-2.88,4.42-.81,4.36,2.92c-.18,10.24,0,20.48-.13,30.71,0,1.62,1.38,4.42-1.41,4.72s-5.69,1.29-8-1.69c-4.71-6-9.69-11.71-14.57-17.54C1771,1001.48,1769.93,1000.32,1768.14,998.28Z"/><path class="cls-259" d="M1849.88,1006.8c0,4.56-.11,8.66,0,12.74.13,3.68-2.55,2.57-4.25,2.46s-4.76,1.61-4.75-2.4q.06-16.7,0-33.4c0-4.24,3.15-2.36,5.07-2.63s4.15-.46,4,2.88c-.23,4-.06,8.09-.06,13.12,3.42-3.69,6.08-6.69,7.95-10.27,3.23-6.17,8.54-6.57,15.14-5.41-4.23,5.3-8.11,10.49-12.37,15.34-2,2.35-2.17,3.82,0,6.2,4.6,5.1,8.86,10.51,13.28,15.83-6.46,2.18-10.44,1.15-14.35-3.64-2.78-3.41-5.55-6.81-8.35-10.2C1851,1007.23,1850.69,1007.18,1849.88,1006.8Z"/><path class="cls-259" d="M1836.91,1022.09a43,43,0,0,0-4.73,0c-3,.36-5.12-.43-5.68-3.72-.48-2.78-2.09-3.88-4.92-3.48a18.89,18.89,0,0,1-4.81,0c-4-.49-6.85.38-7.55,4.89-.36,2.3-2.12,2.39-4,2.29s-3.48,0-5.21,0c-.71-1.37.08-2.33.48-3.34,4.2-10.72,8.56-21.38,12.51-32.19,1.19-3.23,3.28-2.95,5.77-3.1s3.91.64,4.83,3.15C1827.89,998.34,1832.36,1010,1836.91,1022.09Z"/><path class="cls-261" d="M1739.25,1023a15.47,15.47,0,0,1-8.76-2.35c-4.55-2.78-4.57-3.24-1.35-7.48,1.22-1.62,2-2.12,3.7-.53a8.44,8.44,0,0,0,6.8,2.48c2.23-.21,4-1.08,4.41-3.49s-1-3.57-2.83-4.38-4.1-1.52-6.13-2.32c-5.31-2.1-7.48-5.22-7.16-10.24.39-6.14,3.21-9.88,8.46-11.43a16.69,16.69,0,0,1,9.5.21c6,1.72,6.82,4.42,2.76,9.07-1.32,1.51-2.24.24-2.85-.41a5.71,5.71,0,0,0-5-1.93c-2.22.19-2.83,1.92-3.38,3.49-.63,1.75.24,3.11,2,3.81,2,.81,4.09,1.58,6.11,2.4,6.31,2.58,8.43,5.93,7.68,12.08a11.94,11.94,0,0,1-10.45,10.78C1741.6,1023,1740.42,1023,1739.25,1023Z"/><path class="cls-262" d="M1740.61,923.36c1.32-1.53-1.86-5.23,2.7-5,3.16.18,5.79,1.29,5.69,5.15s-2.66,5-5.85,5C1738.85,928.57,1741.88,925,1740.61,923.36Z"/><path class="cls-263" d="M1836.82,935.07H1828l4.37-12Z"/><path class="cls-262" d="M1709.82,918.65c4.84-.13,7.35,1.79,7.44,4.93s-2.24,5.13-6.11,5.39c-2.45.17-3.23-.88-2.75-3C1709,923.47,1706.6,920,1709.82,918.65Z"/><path class="cls-264" d="M1818.41,996.28l4.17,11.5a30.8,30.8,0,0,1-8.4.2A64.29,64.29,0,0,1,1818.41,996.28Z"/><path class="cls-1" d="M1653.29,111.12c0-27.29,0-54.59-.06-81.88,0-2.58.21-3.51,3.3-3.5q117.72.18,235.45,0c3.21,0,3.24,1.09,3.24,3.55q-.09,58.46,0,116.9h-5.71c-.92-1.67.47-2.37,1.35-3.34,1.79-2,1.79-4,.09-6.08a4.57,4.57,0,0,0-6.29-1.19,33.81,33.81,0,0,0-4.83,3.76,30.34,30.34,0,0,1-4.92,3.61c-4.65,2.37-7.38.55-7.31-4.47-2.79,3.13,3.66,4.46,1.91,7.71H1842.8c-.78-1.46.07-2.37,1.09-3.22,4-3.33,3.85-7.28,1.68-11.5-5.56-10.82-9.93-22.25-16.07-32.74-5.16-8.83-6.7-16.71-.8-26.26,4.85-7.83,8.41-16.6,12.48-25a51.82,51.82,0,0,0,3.4-8.33c1.17-4.1,0-7.26-3.08-8.44s-6.33,0-8.29,3.63c-3.24,6-6.41,12-9,18.25a98.47,98.47,0,0,1-4.37,8.94c-.94,1.72-2.08,3.25-4.36,3.06-2-.17-2.84-1.66-3.69-3.27-4-7.7-7.44-15.7-11.28-23.49a30.89,30.89,0,0,0-2.27-4.15c-2.15-3.06-5.29-4.09-8.24-2.61-3.39,1.71-4.08,4.59-3.21,8a19.94,19.94,0,0,0,1.65,3.93c14.2,28.22,27.11,57.06,41.38,85.25,2.55,5,3.94,10.71,8.2,14.84a2.34,2.34,0,0,1,.07,3.07h-45.71a2.18,2.18,0,0,1,.49-3c7.38-7.39,9.61-17.54,14.2-26.41a5.75,5.75,0,0,0-2.72-8,6,6,0,0,0-8.2,2.5,154.38,154.38,0,0,0-11.22,23.37,6.63,6.63,0,0,0,1.45,7c1.18,1.32,2.49,2.55,1.23,4.5h-20a2,2,0,0,1-.42-1.53c.33-1.27,1.35-2.11,2-3.19,3.34-5.47,1.13-10.18-5.35-10.74-6.8-.58-13.64,0-20.46-.26-6.52-.2-7.51-1.08-7.59-7.48q-.24-19.42,0-38.84c.08-6.47,1-7.29,7.55-7.53,3.49-.13,7,.16,10.47-.23,4.34-.5,7-3,7.12-6.31s-2.51-6.09-6.9-6.49a132.75,132.75,0,0,0-22.82,0c-5.2.42-7.64,3.4-7.84,9-.27,7.58-.08,15.16-.09,22.74,0,11.37.15,22.74-.07,34.11-.11,5.72.53,11,4.74,15.28a1.92,1.92,0,0,1-.36,1.54h-39c-.86-2.43,1.11-3.14,2.62-3.72,19.54-7.55,19.56-31.7,9.73-43.88-6.25-7.75-13-15.07-19.24-22.82A83.78,83.78,0,0,1,1671,59.58c-2.39-5-2-9.63,1.61-13.65,3.11-3.52,7.22-5.17,12-3.73,5.23,1.57,8.11,5.25,9,10.54a20,20,0,0,0,1,5.08c1.35,3,3.55,5,7.05,4.38s5.19-3.19,5.12-6.47c-.39-19.16-14.15-28.83-29.64-26.11-17.14,3-25.35,20.79-17.22,37.08,4.11,8.24,10,15.29,15.89,22.37,5.51,6.7,11.93,12.68,16.46,20.17,4.37,7.21,2.6,16.3-3.83,20.09-7.51,4.42-16,1.36-18.94-6.86a35.16,35.16,0,0,1-1.47-6.93c-.78-5.64-4.61-7.7-10-5.53C1656.54,110.63,1655.25,112.33,1653.29,111.12Z"/><path class="cls-265" d="M1653.29,111.12c2.09-2.09,3.88-4.48,7.28-4.75,5.93-.47,9.75,2.75,10.13,9.19.24,4.06.76,7.92,4,10.78a10.29,10.29,0,0,0,13.53.5c4-3,5.42-9.45,3.08-14.63s-6.47-8.92-10-13.13c-8.78-10.36-18.19-20.27-24.12-32.69-7.67-16.07.43-34.84,17.42-38.81,22.23-5.2,35.76,11.7,34.69,30.55-.23,4-4,7.06-8.14,7.33a8.77,8.77,0,0,1-8.84-6.47c-.54-2.12-.5-4.38-1-6.51-1.47-6.46-7-9.77-12.82-7.82-5.45,1.82-8.08,7.78-5.56,13.54,3.91,9,10.56,16,16.72,23.44,3.65,4.36,7.33,8.7,11.17,12.88,14.69,16,12.56,44.07-12.24,51.66h-15.23c-3.91-1.42-8-1.71-11.58-4.74-5.45-4.65-7.24-10.58-8.42-17Z"/><path class="cls-265" d="M1838,146.18c-7.87-6.79-10.19-16.81-14.61-25.52-10.2-20.1-19.69-40.57-29.48-60.88-2.94-6.11-6-12.16-8.92-18.28-2.68-5.61-1.25-10.86,3.41-13,5.17-2.4,9.8-.29,12.63,5.6,4.71,9.79,9.51,19.54,14.73,30.24,4.23-8.7,8.13-16.69,12-24.68,1.17-2.41,2.25-4.88,3.51-7.24A9.06,9.06,0,0,1,1843,28a8.83,8.83,0,0,1,4.34,11.64c-3,6.78-6.3,13.41-9.52,20.09-3.37,6.95-6.61,14-10.28,20.77-1.63,3-1.43,5.48,0,8.37q10.2,20.82,20.21,41.74c3.93,8.19,2.92,11.22-4.91,15.56Z"/><path class="cls-265" d="M1787.56,146.18c-7.14-6.51-7.41-7.76-3.08-17q4.44-9.41,9.11-18.71c2.45-4.86,7.28-6.56,11.92-4.39s6.28,6.93,3.91,12c-3.48,7.42-7.32,14.68-10.68,22.15-1.37,3-4.26,4-6.41,5.9Z"/><path class="cls-266" d="M1869.46,146.18c-2.41-2.06-4.65-4.11-3.93-7.84.65-3.34,2.88-4.69,5.87-5.19a2.17,2.17,0,0,1,2.56,1.61c.27,1.1-.54,1.81-1.52,2-2.31.47-4.23,1.51-2.86,4,1.45,2.69,3.61,1,5.21-.13,2.21-1.5,4.19-3.32,6.28-5,4.5-3.56,9.16-3.6,11.66-.13s1.55,7-3.27,10.59h-3.81c-1.79-.92-2.37-2.33-1.36-5.06-3.44,3.37-7.31,4-11,5.06Z"/><path class="cls-1" d="M1653.29,124.39c2.78,5.2,4.71,10.82,9.33,15,3.23,2.93,7.39,4.1,10.67,6.77-5.88,0-11.75-.11-17.62.07-2.05.06-2.5-.39-2.44-2.44C1653.4,137.34,1653.29,130.86,1653.29,124.39Z"/><path class="cls-1" d="M1873.27,146.18a70.6,70.6,0,0,0,10.88-8c1.17-1,2.57-2,4.27-1.06,1,.54,1.95,1.27,1.86,2.52-.14,1.91-1.51,2.52-3.22,2.8-2.59.43-2.45,2-1.41,3.78Z"/><path class="cls-267" d="M1727.57,146.18a4.89,4.89,0,0,0-.08-.85c1.08-2.33,3.3-2.26,5.32-2.31q14.73-.35,29.48,0c2,0,4.23,0,5.33,2.29a2.33,2.33,0,0,0,0,.87Z"/><path class="cls-265" d="M1767.62,145.31l-40.13,0c-4.6-1.29-6.61-4.3-6.59-9.06.08-21.79,0-43.59,0-65.38,0-5.73,3.12-9.45,8.75-9.61,8.56-.26,17.15-.27,25.71,0,5.6.2,9.15,4.22,8.88,9.13s-4,8.27-9.6,8.32c-4.29,0-8.57.1-12.86,0-2.4-.07-3.43.75-3.42,3.24q.11,21.56,0,43.12c0,2.58,1.2,3.16,3.51,3.13,7.3-.09,14.6-.05,21.9,0,5.47,0,9.12,2.49,10.09,6.75S1772.53,143,1767.62,145.31Z"/><path class="cls-265" d="M1746,45.18c-6.17,0-12.35.06-18.52,0-5-.07-8.3-2.88-8.88-7.38s2.19-8.49,7.08-9.61a19.33,19.33,0,0,1,4.23-.41q16.39,0,32.77,0a19.4,19.4,0,0,1,5.16.62,8.64,8.64,0,0,1,6.15,9.45,8.12,8.12,0,0,1-8,7.28c-6.65.16-13.3,0-20,0Z"/><path class="cls-266" d="M1876.27,99.66c.61.16,1.24.29,1.83.5,1.93.69,4.35,1.11,4.39,3.66,0,2.72-2.62,2.71-4.44,3.45a2.52,2.52,0,0,0-1.61,1.58c4.43,0,8.85,0,13.28,0,1.47,0,3.65-.49,3.72,1.78s-2,2.08-3.56,2.09c-6.66,0-13.32,0-20,0-2,0-4-.29-4.25-2.78-.24-2.23,1.54-2.9,3.22-3.5,2.17-.77,4.37-1.47,7.77-2.61l-8.15-2.91c-1.8-.64-3.15-1.69-2.81-3.79s2-2.31,3.61-2.32c7.14,0,14.28,0,21.41,0,2,0,3.52.61,2.67,3.12-4.81.85-9.65.12-14.47.43C1878,98.43,1876.22,97.4,1876.27,99.66Z"/><path class="cls-266" d="M1877.51,56.33h12.76c1.48,0,3.09.13,3.22,2,.17,2.25-1.74,1.84-3,1.85-7,0-14,0-20.94,0-1.57,0-3.37.08-3.78-2-.45-2.27,1.29-3,3-3.61a70.91,70.91,0,0,0,13-6c-4.16,0-8.32,0-12.48,0-1.59,0-3.53-.05-3.4-2.28s2.09-1.52,3.37-1.53c6.83-.06,13.65,0,20.47,0,1.59,0,3.4-.16,3.9,1.83.54,2.16-1,3.1-2.75,3.75q-6.65,2.47-13.28,5Z"/><path class="cls-268" d="M1878.79,63.68c3.17,0,6.33-.08,9.49,0,3.77.13,5.71,2.14,6,5.92s-.81,7.52-5,7.87c-7.06.58-14.21.22-21.32.19-1.15,0-2.31-.44-2.16-1.91.16-1.67,1.59-1.8,2.85-1.81,5.69-.06,11.39-.06,17.08,0,2.3,0,4.78,0,4.93-3s-2.21-3.77-4.82-3.78c-5.54,0-11.07,0-16.61,0-1.3,0-3.28.45-3.4-1.55-.16-2.57,2.13-1.76,3.5-1.81C1872.46,63.59,1875.63,63.68,1878.79,63.68Z"/><path class="cls-269" d="M1890.79,115.13c1.39-.06,2.38,0,2.71,1.14.37,1.33-.3,2.1-1.56,2.41-1.84.46-3.69.88-5.53,1.3s-2.5,1.49-2.51,3.38.65,2.9,2.54,3.27,3.69.84,5.51,1.36c1.17.33,2,1.07,1.57,2.43a1.77,1.77,0,0,1-2.3,1.14c-7.85-1.8-15.69-3.61-23.51-5.51a2.66,2.66,0,0,1-2.12-2.78c0-1.24.39-2.25,1.64-2.55C1875.2,118.8,1883.19,116.92,1890.79,115.13Z"/><path class="cls-265" d="M1879.48,41.27c-2.22,0-4.44.09-6.65,0-3.45-.16-7.84,1.63-7.4-5,.49-7.47,1.21-8.85,7.77-8.92,4.59,0,9.18-.06,13.77,0,5.17.09,6.65,1.65,6.74,6.9,0,1.26-.09,2.53,0,3.78.21,2.48-.91,3.38-3.33,3.31C1886.76,41.19,1883.12,41.27,1879.48,41.27Z"/><path class="cls-270" d="M1873.27,86.91c.13-1.39-.5-3.69,1.82-4s2.06,1.89,2.1,3.39c0,2.16,1.56,2,3,2,3.63,0,7.26,0,10.89,0,1.14,0,2.41,0,2.53,1.47.14,1.7-1.16,2-2.53,2-4.89,0-9.78,0-14.67,0C1873.15,91.82,1873.23,89.43,1873.27,86.91Z"/><path class="cls-271" d="M1865.37,85.55c1-2.12-1.42-6.14,2.07-6.18s1.81,3.94,1.86,6.08,1.56,6.17-1.82,6.2C1863.9,91.67,1866.36,87.62,1865.37,85.55Z"/><path class="cls-266" d="M1876.27,99.66c-.28-1.54-.28-1.63,1.27-1.65,5.28-.06,10.55-.05,15.83-.07-3.23,2-6.78.51-10.16,1C1880.9,99.19,1878.46,98.26,1876.27,99.66Z"/><path class="cls-1" d="M1873.87,122.77c2.78,0,4.51-2.17,6.59-.42a2.28,2.28,0,0,1-.1,2.1C1878.2,125.51,1876.36,124.57,1873.87,122.77Z"/><path class="cls-1" d="M1879.4,38c-2.21,0-4.42,0-6.62,0-1.87,0-4.1.36-3.88-2.63.18-2.43.55-4.78,3.9-4.75,4.57.05,9.15,0,13.72,0,3.11,0,3.85,2,3.88,4.74,0,3.07-2.08,2.57-3.9,2.61C1884.14,38.06,1881.77,38,1879.4,38Z"/></svg>
