<svg id="Layer_1" data-name="Layer 1" xmlns="http://www.w3.org/2000/svg" viewBox="0 0 1920 1080"><defs><style>.cls-1{fill:#e4d1e8;}.cls-2{fill:#ffe000;}.cls-3{fill:#c7b299;}.cls-4{fill:#eab2db;}.cls-5{fill:#00a828;}.cls-6{fill:#846447;}.cls-7{fill:#ed1c24;}.cls-8{fill:#ec9121;}.cls-9{fill:#e5cfbe;}.cls-10{fill:#613568;}.cls-11{fill:#ede683;}.cls-12{fill:#d12200;}.cls-13{fill:#ea7657;}.cls-14{fill:#fffbfa;}.cls-15{fill:#000503;}</style></defs><title>gamescreen</title><rect class="cls-1" width="1920" height="1080"/><polygon class="cls-2" points="105 1080 142.87 679.63 282.97 679.63 254.57 1080 105 1080"/><path class="cls-3" d="M149,680q-13.49-45.62-27-91.24l-13.25-94.67,11.36-89a19.62,19.62,0,0,1,9.46,0,23.55,23.55,0,0,1,9.47,5.68c6.17,6,10,18.65,9.47,34.08L158,499.77l5.68,18.93V422.14L177,359.66c2.05-7.71,7-13.87,13.25-15.14,4.68-1,10.79-.5,15.15,3.78A16.09,16.09,0,0,1,209,365l-7.44,36.32v96.56l73.84-87.1,32.19-22.72a17.4,17.4,0,0,1,13.25-1.89c8.05,2.29,10.89,10.07,11.36,11.36a20,20,0,0,1,0,13.25l-37.87,53-39.76,54.9,20.83-13.25,41.65-56.8c.55-.6,9.26-9.9,20.83-7.57,1.62.32,9.56,1.92,13.25,9.46,3.51,7.17.46,14.15,0,15.15l-41.65,56.8L283,566l39.76-45.44a21.88,21.88,0,0,1,11.36-9.47c2.12-.74,7.52-2.63,13.26,0a15.07,15.07,0,0,1,7.57,7.57c2.28,5.45.76,12.13-3.79,17L322.73,585l-24.61,28.4-3.79,20.83L283,666.38l-4,13.26Z"/><polygon class="cls-4" points="187.15 450.97 190.93 432.04 190.93 420.68 187.15 416.15 182.31 450.97 187.15 450.97"/><polygon class="cls-5" points="516.93 1080.23 528.29 800.02 670.29 800.02 670.29 1080.23 516.93 1080.23"/><path class="cls-6" d="M663,800q16.9-42.59,33.8-85.18l13.25-90.88-7.57-89a12.88,12.88,0,0,0-9.47-3.79c-5.09.3-9.66,4.06-11.36,9.47l-17,70.05,1.89,13.25-7.57,9.47-3.79-107.92-3.78-37.87c-2.41-10.52-10.16-18.07-18.94-18.93a20.21,20.21,0,0,0-13.25,3.79l-3.79,5.68v18.93l5.68,100.35v30.29L526.4,514.13c-1.67-1.6-8.83-8.08-18.93-7.57-2.72.13-7.53.26-11.36,3.78-6.46,5.94-4.27,16-4.11,16.66q4.89,10.61,9.79,21.21l45.43,70L560.48,641l-58.69-70.05-9.47-9.47a20.22,20.22,0,0,0-13.25,1.9,15.93,15.93,0,0,0-7.58,7.57c-3.13,7.26,1.43,14.44,1.9,15.15l22.72,39.76,22.72,37.86-22.72-17-17-17a16.57,16.57,0,0,0-20.83,13.26s13.25,28.4,15.15,32.18,28.4,64.38,28.4,64.38l28.39,51.11L528.29,800Z"/><path class="cls-7" d="M698.69,565.25c-.56-2.42-1.25-5.64-1.89-9.47-1.6-9.55-1-11.7,0-13.25.71-1.08,2.3-2.86,6-3.81l2.75,32.38-5,1.72"/><polygon class="cls-8" points="867.38 1080.23 867.38 979.89 1005.6 976.1 1016.96 1080.23 867.38 1080.23"/><path class="cls-9" d="M1005.6,970.42l83.3-136.32c1.07-7.51-1-14.24-5.68-17-4-2.37-8.56-1.2-13.25,0a39.63,39.63,0,0,0-17,9.47l-22.72,34.08-24.61,17,51.12-70.06L1087,767.83c1-8.54-3-16.21-9.47-18.93a15.9,15.9,0,0,0-11.36,0q-11.36,6.63-22.72,13.25L1017,788.66l-17,34.08-9.47,5.68,5.68-28.4,39.76-51.12,28.4-26.5c5.39-5.24,7.66-12.57,5.68-18.94a17,17,0,0,0-7.57-9.46c-.66-.36-2.63-1.36-9.47-1.9a86.09,86.09,0,0,0-13.25,0L1011.28,711l-24.62,26.5-26.5,32.19-3.79-115.49a10.25,10.25,0,0,0,0-7.58c-2.77-6-12-5.71-13.25-5.68-6.59.19-11.12,3.92-13.26,5.68a29.25,29.25,0,0,0-9.46,15.15s1.89,30.29,0,30.29-9.47,87.09-9.47,87.09L909,786.77l-7.58-13.26-13.25-58.69-5.68-11.36c-3.18-5.08-8.82-7.27-13.25-5.68a10.48,10.48,0,0,0-5.68,5.68l-5.68,56.8-5.68,24.61v56.8l-3.79,37.87,23.32,100.23,133.83-3.67v-3.79"/><path class="cls-3" d="M871.28,725.29c-1.37,7.74-1.58,10-3.79,11.36-2.5,1.58-5.68.91-7.49.35q2-17,4-34c1.76-.27,4.82-.43,7.28,1.46C871.28,704.46,871.61,704.72,871.28,725.29Z"/><polygon class="cls-10" points="1238.74 1086.23 1225.49 860.93 1365.6 847.67 1390.21 1086.23 1238.74 1086.23"/><path class="cls-11" d="M1359.91,842l22.72-53,39.76-100.34a20.75,20.75,0,0,0-5.68-11.36c-1.4-1.42-5.41-5.47-11.36-5.68s-11.8,3.53-15.14,9.46l-18.94,39.76-17,28.4,36-89c3.8-10.39,6.71-18,8.79-23.24a37.24,37.24,0,0,0,3-13c.14-3.84.31-8.78-3-12-2.79-2.72-6.63-2.82-8.79-2.88-8.76-.25-15.13,5.65-17,7.57l-9.47,15.15-34.08,60.58,41.65-92.77,13.26-32.19c-.24-1.31-1.66-8.28-7.58-11.36-4.35-2.26-8.72-1.15-13.25,0a39.59,39.59,0,0,0-17,9.47l-28.4,49.23-36,62.48-20.83-130.64c.15-1.16,1.13-10.29-5.68-17a20.15,20.15,0,0,0-13.25-5.68c-9.89-.44-16.2,6.6-17,7.57v15.15l9.47,106-9.47,34.08-11.36-15.14a89,89,0,0,0,0-43.55,86.52,86.52,0,0,0-9.47-22.72l-20.82-15.15-11.36,1.9V683l18.93,92.77,39.78,84.66,128.72-12.72Z"/><path class="cls-3" d="M1172,597a18.2,18.2,0,0,1,11.47,10.33,37.38,37.38,0,0,1-1.9,17,36.24,36.24,0,0,1-3.78,7.57L1172,635Z"/><polygon class="cls-12" points="1613.85 1080.23 1587.34 661.81 1729.34 646.66 1770.99 1080.23 1613.85 1080.23"/><path class="cls-4" d="M1729.34,646.66l20.83-71.94,15.14-89-7.57-85.2a15.71,15.71,0,0,0-9.47-5.68c-7.26-1.05-15.3,4.19-18.93,13.25l-13.25,62.48-9.47,20.83V351.3c-2.76-10.19-11.51-17.1-20.83-17-10.25.08-16.41,8.57-17,9.47l-3.78,56.8q-2.85,38.82-5.68,77.63-39.76-47.34-79.52-94.67c-6.84-8-16.36-11.77-24.62-9.47-1.5.42-9,2.52-11.36,9.47-1.9,5.65.31,12.42,5.68,17l24.62,30.29,30.29,47.34-43.55-37.87c-.27-.61-5.61-12.13-17-13.25-5-.49-13.78.74-17,7.57-2.32,4.88-.54,9.95,0,11.36l22.72,45.44,39.76,53-1.89,18.94-36-51.12c-1.44-9.95-8.2-16.8-15.15-17a13.79,13.79,0,0,0-9.47,3.78c-4.19,4.29-5,11.52-1.75,18,1.85,6.77,4.87,17,9.33,29.32,3.49,9.6,34.08,73.84,34.08,73.84h0l18.93,32.18v9.47Z"/><path class="cls-13" d="M1750.17,400.53c-4.59,3.33-4.12,10.52-3.79,15.15a34.06,34.06,0,0,0,3.79,13.25l11.36,11.36q-1.27-18.65-2.53-37.29c-.33-1.33-.67-2.67-1-4C1756.2,398.75,1752.86,398.57,1750.17,400.53Z"/><path class="cls-14" d="M1611.51,323.31l125.39,30a18.87,18.87,0,0,1,10.49,15.53l-61.88,258.62a18.43,18.43,0,0,1-4.54,6.6,18.7,18.7,0,0,1-6.24,3.84l-131-31.34a15.41,15.41,0,0,1-9.43-7.59,14.93,14.93,0,0,1-1.35-9.2l60.94-254.7c.23-.86,2.45-8.66,9.79-11.26A14.67,14.67,0,0,1,1611.51,323.31Z"/><rect class="cls-15" x="1573.24" y="366" width="134.69" height="225.63" transform="translate(156.45 -368.61) rotate(13.46)"/><rect class="cls-15" x="1636.68" y="353.26" width="70.8" height="5.18" rx="1.24" transform="translate(128.7 -379.31) rotate(13.46)"/><circle class="cls-15" cx="1610.32" cy="605.32" r="4.6"/><path class="cls-14" d="M1193.27,552,1315,509.34a18.91,18.91,0,0,1,17.22,7.38l87.93,251a18.55,18.55,0,0,1-3.42,14.62l-127.11,44.53a15.4,15.4,0,0,1-12-1.27,14.93,14.93,0,0,1-6.11-7l-86.59-247.16c-.27-.84-2.63-8.6,2.14-14.77A14.81,14.81,0,0,1,1193.27,552Z"/><rect class="cls-15" x="1234.53" y="554.19" width="134.69" height="225.63" transform="translate(-147.32 467.98) rotate(-19.31)"/><rect class="cls-15" x="1226.42" y="543.97" width="70.8" height="5.18" rx="1.24" transform="translate(-109.75 447.96) rotate(-19.31)"/><circle class="cls-15" cx="1344.89" cy="789.76" r="4.6"/><path class="cls-14" d="M911.22,658.55l128.7-7.67a18.89,18.89,0,0,1,14.54,11.82l15.81,265.45a18.41,18.41,0,0,1-7.29,13.12l-134.44,8a15.45,15.45,0,0,1-11.23-4.52,14.94,14.94,0,0,1-4-8.42L897.78,674.92c0-.89-.17-9,6.11-13.63A14.78,14.78,0,0,1,911.22,658.55Z"/><rect class="cls-15" x="916.82" y="686.12" width="134.69" height="225.63" transform="matrix(1, -0.06, 0.06, 1, -45.76, 59.92)"/><rect class="cls-15" x="943.23" y="669.53" width="70.8" height="5.18" rx="1.24" transform="translate(-38.23 59.37) rotate(-3.41)"/><circle class="cls-15" cx="991.89" cy="928.78" r="4.6"/><path class="cls-14" d="M552.33,466.4,675,506.07a18.88,18.88,0,0,1,6.43,6.31,19.1,19.1,0,0,1,2.82,10l-81.81,253A18.44,18.44,0,0,1,590.89,785L462.73,743.52a15.41,15.41,0,0,1-8.81-8.29,14.9,14.9,0,0,1-.63-9.28l80.57-249.19c.3-.84,3.12-8.44,10.65-10.47A14.7,14.7,0,0,1,552.33,466.4Z"/><rect class="cls-15" x="501.88" y="510.88" width="134.69" height="225.63" transform="translate(219.49 -144.87) rotate(17.92)"/><rect class="cls-15" x="574.79" y="500.97" width="70.8" height="5.18" rx="1.24" transform="translate(184.51 -163.3) rotate(17.92)"/><circle class="cls-15" cx="529.21" cy="747.47" r="4.6"/><path class="cls-14" d="M162.34,362.46l128.14-14.27a18.86,18.86,0,0,1,15.13,11.05L335,623.53A18.58,18.58,0,0,1,328.43,637l-133.86,14.9A15.43,15.43,0,0,1,183.13,648a14.94,14.94,0,0,1-4.39-8.2l-29-260.28c-.07-.89-.63-9,5.4-13.92A14.66,14.66,0,0,1,162.34,362.46Z"/><rect class="cls-15" x="175.06" y="386.09" width="134.69" height="225.63" transform="translate(-53.72 29.89) rotate(-6.35)"/><rect class="cls-15" x="194.96" y="369.96" width="70.8" height="5.18" rx="1.24" transform="translate(-39.81 27.78) rotate(-6.35)"/><circle class="cls-15" cx="256.79" cy="628.19" r="4.6"/><polygon class="cls-4" points="120.32 447 125 423.6 125 409.55 120.32 403.96 114.34 447 120.32 447"/></svg>
