<svg id="Layer_1" data-name="Layer 1" xmlns="http://www.w3.org/2000/svg" viewBox="0 0 136 227">
  <defs>
    <style>
      .cls-1 {
        fill: #f3d8eb;
      }

      .cls-2 {
        fill: #bfb1a3;
      }

      .cls-2, .cls-3, .cls-6 {
        stroke: #000;
        stroke-miterlimit: 10;
        stroke-width: 0.25px;
      }

      .cls-3 {
        fill: none;
      }

      .cls-4 {
        fill: #bc7266;
      }

      .cls-5, .cls-6 {
        fill: #cda18a;
      }
    </style>
  </defs>
  <title>naked_3</title>
  <rect class="cls-1" y="-0.5" width="136" height="227"/>
  <polyline class="cls-2" points="24.74 63.73 27.69 74.55 27.69 90.81 33.55 112.33 41.65 128.81 41.65 162.69 33.55 182.16 67.6 190.63 76.59 166.66 76.59 166.65 78.36 161.97 78.91 160.52 79.36 162.15 79.36 162.15 79.74 163.49 79.99 164.44 79.99 164.44 80.42 166.12 87.97 194.98 112.53 199.79 112.53 167.04 109.18 150.79 106.67 140.49 106.67 60.13 103.6 54.18 98.85 51.2 97.02 50.88 92.16 50.06 87.13 46.39 80.99 42.96 75.13 42.73 75.66 41.51 76.09 39 47.91 39 38.41 41.97 23.62 46.32 15.53 51.36 15.53 85.25 19.71 99.9 26.97 115.46 39.25 126.69 41.76 128.74"/>
  <polyline class="cls-3" points="94.11 79.81 94.11 120.57 97.74 132.7 106.11 146.66"/>
  <line class="cls-3" x1="71.5" y1="57.61" x2="82.39" y2="59.21"/>
  <ellipse class="cls-4" cx="48.9" cy="83.02" rx="2.37" ry="1.95"/>
  <ellipse class="cls-4" cx="80.16" cy="83.26" rx="2.37" ry="1.95"/>
  <path class="cls-3" d="M65.34,121.9c.69-.78,3,.31,3,.78s-2.33,1.62-3.11.78"/>
  <path class="cls-5" d="M84.38,153.58a9.33,9.33,0,0,1,0,2.69c-.2,1.63-.34,2.79-1.4,3.84a6.85,6.85,0,0,1-2.78,1.56c-1,.36-3.32,1.13-5.25.38-1.39-.53-1.9-1.55-2.79-3.46a9.86,9.86,0,0,1-1-5c.07-1,.24-3,1.75-3.84l.89-.45c1.9-.93,2-1,2.25-1.09a5.66,5.66,0,0,1,3.5,0h0c1,.4,2.06.77,3.12,1.13A10,10,0,0,1,84.38,153.58Z"/>
  <path class="cls-6" d="M79.32,149h.05l4,7.17c1.89,2.27-2.34,6.16-4,3.89L73,150.24"/>
  <line class="cls-3" x1="78.08" y1="158.04" x2="83.5" y2="156.15"/>
  <path class="cls-3" d="M71.79,152.05l.47.08"/>
  <path class="cls-3" d="M73.32,152.19l.39.13"/>
  <path class="cls-3" d="M72.31,153.76l.38.13"/>
  <path class="cls-3" d="M76,158l.46.08"/>
  <path class="cls-3" d="M73.36,154.66l.39.12"/>
  <path class="cls-3" d="M77.55,161.82l.39.13"/>
  <path class="cls-3" d="M77.2,160.09l.39.13"/>
  <path class="cls-3" d="M74.64,160.86l.46.08"/>
  <path class="cls-3" d="M71.92,152.77l.39.12"/>
  <path class="cls-3" d="M72.15,157.19l.38.13"/>
  <path class="cls-3" d="M73.89,156l.39.12"/>
  <path class="cls-3" d="M74,153.52l.39.13"/>
  <path class="cls-3" d="M72.27,155.54l.39.13"/>
  <path class="cls-3" d="M73.67,157.27l.39.13"/>
  <path class="cls-3" d="M75.07,156.11l.39.14"/>
  <path class="cls-3" d="M75.07,159l.39.14"/>
  <path class="cls-3" d="M82.44,151.83l.39.13"/>
  <path class="cls-3" d="M83,153.42l.38.13"/>
  <path class="cls-3" d="M83.55,155.1l.38.13"/>
  <line class="cls-3" x1="38.04" y1="59.29" x2="48.92" y2="57.67"/>
</svg>
