<svg id="Layer_1" data-name="Layer 1" xmlns="http://www.w3.org/2000/svg" viewBox="0 0 136 227">
  <defs>
    <style>
      .cls-1 {
        fill: #ec9121;
      }

      .cls-2 {
        fill: #f7dac2;
      }

      .cls-3 {
        fill: #84525b;
      }

      .cls-4 {
        fill: none;
        stroke: #ad936d;
        stroke-miterlimit: 10;
      }

      .cls-5 {
        fill: #efe7ab;
      }

      .cls-6 {
        fill: #ad936d;
      }

      .cls-7 {
        fill: #c9a1c4;
      }
    </style>
  </defs>
  <title>naked_5</title>
  <rect class="cls-1" x="-0.5" width="136" height="227"/>
  <path class="cls-2" d="M63.39,33.69v.14a4.68,4.68,0,0,1,0,.53c0,2-2,4.13-2,4.13A9.45,9.45,0,0,1,59,40.4c-2,1.11-3.32.79-5.75,1.44A15.93,15.93,0,0,0,49,43.76a16.77,16.77,0,0,0-5.51,5.51c-1.82,3.11-1.88,6.16-1.92,9.1-.08,9.23-.13,13.84,0,17.74.48,14.08-.34,13.12.49,18.68.94,6.37,2,7.55,2.39,13.9.37,6.1.56,9.15.48,10.57-.12,2.09-.43,5.28,1,8.14a6.6,6.6,0,0,0,2.4,2.88c1.08.68,1.61.45,2.39,1,1.57,1,1.66,3.28,1.92,5.74.54,5,.82,1.53,1.44,8.16.69,7.49.73,16.22,1,22,.5,12.86.75,19.29,2.87,24.92,1.68,4.46,2.07,7.13,2.88,12.47a13,13,0,0,1,0,5.28s-.37,1.55-3.36,6.7l1.92,2.4h2.87a19,19,0,0,0,3.36.48h3.36a12.22,12.22,0,0,0,2.87-.48c1.59-.47,1.86-.88,2.87-1,1.77-.08,2.25,1.2,3.36,1,1.46-.31,2.64-3,2.39-5.28-.25-2.14-1.59-2.39-2.87-5.75a16.8,16.8,0,0,1-1-3.83A15,15,0,0,1,78,196.39c.53-1.29,1.48-5.17,3.35-12.94,1.46-6,.41-6.22,1.44-23.47.72-11.91,1.1-9.73,1-12.94-.18-4.23-1-11.6,1.44-15.35a14.68,14.68,0,0,1,1.92-2.39c1.76-1.76,2.87-1.76,3.83-2.88,1.08-1.29.92-2.75,1-5.28,0-3.21.64-6.39,1-9.59.4-4.16.88-5.81,1.43-9.58.48-3.09.88-6.36,1.44-16.78.52-8.68,1.38-26.55-1.89-35.92A11.41,11.41,0,0,0,90.46,44c-1.18-1-1.92-1.11-6.71-2.88s-5.86-2.29-7.19-3.36c-1-.78-3.15-2.5-2.88-4.31.15-1,.94-1.37,1.92-2.39a12.72,12.72,0,0,0,2.88-5.76c.64-2.26,1.57-5.57,0-8.14-1.31-2.12-3.11-1.76-4.32-4.32-.8-1.69-.57-3-1.44-3.35-.38-.14-.79,0-2.87,1.44a54.92,54.92,0,0,1-4.8,3.35c-.49.27-1,.5-1.92,1a19.4,19.4,0,0,1-3.35,1.43c-1.85.49-2.38,0-2.87.49-.73.76.13,2.24,1,5.28,1.23,4.46.31,4.81,1.45,6.71C60.93,31.84,63,31.58,63.39,33.69Z"/>
  <path class="cls-3" d="M56.44,62.68h0a2.9,2.9,0,0,0-1.44,1,1.68,1.68,0,0,0-.48,1.44A1.41,1.41,0,0,0,56,66c.5-.09.49-.57,1.44-1.44.62-.58,1-.68,1-1s-.25-.56-1.44-1"/>
  <path class="cls-3" d="M80.4,62.21a1.93,1.93,0,0,0-.73,2.63,1.87,1.87,0,0,0,.73.72,2,2,0,0,0,1.92-.48c.24-.18,1-.73,1-1.44C83.25,62.65,81.54,61.65,80.4,62.21Z"/>
  <path class="cls-4" d="M69.38,91.44h0a.88.88,0,0,0-.48,1,.72.72,0,0,0,.48.48.89.89,0,0,0,1-.48c.17-.3.24-.79,0-1a.51.51,0,0,0-.48,0"/>
  <path class="cls-4" d="M65.55,117.32a15.13,15.13,0,0,0,2.87,3.82,7.51,7.51,0,0,1,1,.88c.23.26.43.52.43.52h0c1.19,1.63,0,5.28,0,5.28v20.12c-.23,3.67-.53,3.89-1.44,11.51-.59,4.91-.88,7.38-1,9.11-.21,5.16.35,6.38.48,15.33,0,3.19.07,4.78,0,5.75-.44,6.1-2,8.3-1,12.47.27,1,.51,1.47,1,3.35a39.88,39.88,0,0,1,1,5.75,37,37,0,0,1,0,8.15,31.48,31.48,0,0,1,.48-10.56c.42-2.09.72-2.49,1-4.32a22.38,22.38,0,0,0-.48-8.15c-.29-1.29-.76-9-1.67-24.52-.88-15.85-.21-29.33.71-46.88.07-1.38.4-8.16.48-8.15s-.79,26.94-1.67,51.06"/>
  <path class="cls-4" d="M73.21,117.8a21.75,21.75,0,0,1-1.4,1.91,19.43,19.43,0,0,1-2.4,2.4"/>
  <path class="cls-4" d="M72.73,164.27c.37.8,1.2,2.32,2.39,2.4a2.89,2.89,0,0,0,1.45-.49c1.09-.53,2.21-1,3.35-1.43"/>
  <path class="cls-4" d="M58.36,163.81a6,6,0,0,0,1.91,1.43,3.16,3.16,0,0,0,1.91.48c.76-.1,1-.52,1.92-.95a5.38,5.38,0,0,1,1.92-.48"/>
  <path class="cls-4" d="M49.24,57.89a37.75,37.75,0,0,0,0,11c.47,2.94,1.17,4.73,1,8.15,0,.12-.08.81-.17,1.81-.14,1.5-.26,2.91-.3,3.45-.17,2.16.05,3,0,5.28-.1,4-.52,4.61-.49,7.67,0,2.64.36,2.28.49,5.28a46.84,46.84,0,0,1-.49,11,6.58,6.58,0,0,0,0,3.83c.46,1.14,1.17,1.5,1.45,2.88.19,1-.12.92,0,2.39.14,1.88.66,2.08.47,3.36a16.12,16.12,0,0,1-.47,1.91c-.63,1-.64,1.54-.49,1.92.29.94,1.92,1.44,1.92,1.44l1,1.92"/>
  <path class="cls-4" d="M48.29,120.67c.42,1.08.88,2.2,1.44,3.36.32.67.63,1.31,1,1.92"/>
  <path class="cls-4" d="M88.07,56.45a76.64,76.64,0,0,0-.48,8.15c0,2.43.1,3,0,5.28-.09,1.93-.22,2.45-.48,6.24a17.49,17.49,0,0,0,0,4.78,8.6,8.6,0,0,0,.25,1c.45,1.53.58,1.76.71,2.33a10.4,10.4,0,0,1,.2,2.23,15.81,15.81,0,0,1-.2,2.57c-.33,2.07.09,3.67,0,7.18-.12,4.48-.45,4.4-.48,8.62,0,3.27,0,4.9,0,5.29a9,9,0,0,1,0,3.35,25.35,25.35,0,0,1-1,2.36c-.37,1.13-.21,1.39-.48,4.31-.23,2.64-.47,3.52,0,3.83s1.07-.15,1.44-.47c1.42-1.26.82-3.83,1-3.84s1.46,4.61-.48,6.23c-.28.23-.43.24-1.44,1-1.66,1.18-1.86,1.58-1.92,1.92a1.87,1.87,0,0,0,.48,1.43"/>
  <path class="cls-4" d="M87.11,80.9c-.09.22-.21.51-.33.88a21.29,21.29,0,0,0-1.11,4.86,22.27,22.27,0,0,0,0,4.32,104.24,104.24,0,0,0,1.44,10.56"/>
  <path class="cls-4" d="M50.68,97.19a8.17,8.17,0,0,1,0-3.34c.36-1.67,1-1.88,1.43-3.35.37-1.25.09-2.76-.47-5.75-.2-1.07-.51-2.55-1-4.31"/>
  <path class="cls-1" d="M67.46,194.48a27.18,27.18,0,0,0-.48,3.36,16.35,16.35,0,0,0,0,3.83c.2,1.42.49,1.5,1.2,4.07.65,2.33.69,3.35,1,3.35.51,0,.88-3.52,1-3.82a29.58,29.58,0,0,0,0-6.24c-.15-1.52-.23-1.33-.49-3.35-.26-2.17-.26-3.08-.47-6.23-.38-5.53-.51-4.69-.49-6.23a50,50,0,0,0,0-6.24c0-.6-.18-2.37-.47-2.39s-.34,1-.48,1c-.38-.05,0-7.83,0-8.63v-1s.37,1.76.48,2.4A20.18,20.18,0,0,1,67.7,176"/>
  <path class="cls-1" d="M70.1,124.75c0-.78.14-1,0-1.44-.2-.58-.74-1.06-1-1s-.1.26,0,1.91a10.87,10.87,0,0,1-.13,2.48,4.62,4.62,0,0,0-.11.63,12.31,12.31,0,0,0,0,1.92,12,12,0,0,0-.25,1.68v1.91a10.7,10.7,0,0,1,0,2.4,11.46,11.46,0,0,1-.47,2.4c0,1.72,0,2.73,0,3.35v5.28c0,2.38-.28,2.68-.48,5.74a38.76,38.76,0,0,0,0,5.28,12.69,12.69,0,0,0,.48,3.36c.16,0,.06-2.07.47-5.28.18-1.32.33-2,.49-2.87.38-2.19.46-4,.47-12.47v-4.31c.11-3.25.49-7.68.49-9.59A11.37,11.37,0,0,1,70.1,124.75Z"/>
  <path class="cls-1" d="M50,80.17c.15,0,.32.26.48.49.4.61.21,1.1.48,1.92a5.33,5.33,0,0,0,.47,1c.34.65.41,1.21.49,3.35a20.82,20.82,0,0,1,0,3.35,25,25,0,0,1-1,2.4A11.9,11.9,0,0,0,50.45,96a38.81,38.81,0,0,1-.48,5.28,50.26,50.26,0,0,1-.48-7.19C49.38,90.8,49,80.27,50,80.17Z"/>
  <path class="cls-1" d="M86.15,85.21a18.23,18.23,0,0,0-.48,1.92,13.41,13.41,0,0,0,0,3.35c.08.88.14,1,.48,3.36.32,2.13.48,3.18.48,3.35,0,1.51-.22,2.72.48,3.84.06.09.33.52.48.47s0-.75,0-1.43c-.1-1.53.32-1.82.48-3.84a19.06,19.06,0,0,0,0-2.39,26.62,26.62,0,0,1-.24-3.6c0-.54.14-1,.18-2a9.42,9.42,0,0,1,.06-1.06c.13-1,.41-1.23.24-1.68s-.4-.47-.48-1a1.29,1.29,0,0,1,0-.48c.09-.88-.4-2.16-.72-2.16S86.81,82.64,86.15,85.21Z"/>
  <path class="cls-5" d="M75.85,5c2.06.27,3.18,2.52,3.83,3.83a16.59,16.59,0,0,1,.93,2.87c1.24,3.86,2.64,3.91,2.9,6.23.09.66.09,1.26-1.43,8.14-.74,3.34-1,4.23-1,5.76,0,2.43,1.76,4.11,1,5.28-.46.63-1,.34-1.44,1-.88,1.32,1.44,3,1,5.28-.4,1.89-2.36,2.08-2.39,3.84,0,1.47,1.33,2.16,1,2.87s-2.53.94-3.35,0,.59-2.31.47-5.28c-.09-2.42-1.2-4.72-2.39-7.2a17,17,0,0,1-1-2.39,5.83,5.83,0,0,1-.48-1.92c.17-1.24,1.55-1.47,2.88-2.88a9.31,9.31,0,0,0,1.91-3.83c.7-2,1.3-3.8,1-5.75-.56-3.18-3-3.42-5.28-8.15a25.41,25.41,0,0,1-1.44-3.35,10.34,10.34,0,0,0-1.07-3A6.15,6.15,0,0,0,69.65,4.5c-2.34-1.63-5.59-1.58-7.18-1.44-2.13.18-8.74.75-10.57,4.79-1.43,3.21,1.84,4.8,1,9.59S48.24,22.92,48.53,27c.19,2.64,1.82,2.94,1.92,6.24.07,2.78-1.06,3.52-.48,5.74s2.13,2.13,2.87,4.32c1.18,3.46-1.92,5.9-.48,8.15a3.62,3.62,0,0,0,3.84,1.43c1.23-.4,1.76-2,2.88-5.28a27.67,27.67,0,0,0,1.43-5.28c.24-1.67.18-2.64,1-3.83.55-.83,1-1,1.44-1.92a5.19,5.19,0,0,0,.48-2.88c-.42-2.13-2.83-1.95-4.31-4.31-1-1.61-.14-2.07-1-5.75s-2.23-5.28-1.45-6.23c.56-.66,1.48-.21,3.36-.47,1.41-.21,2.72-.95,5.28-2.41,4.21-2.4,6.32-3.63,6.72-5.28.28-1.21-.2-1.9.47-2.88A3.66,3.66,0,0,1,75.85,5Z"/>
  <path class="cls-6" d="M63.63,22.55a1.32,1.32,0,1,0-1.32-1.32,1.32,1.32,0,0,0,1.32,1.32Z"/>
  <path class="cls-6" d="M72.69,22.12a1.32,1.32,0,1,0-1.32-1.32A1.33,1.33,0,0,0,72.69,22.12Z"/>
  <path class="cls-7" d="M75.63,27c3.39,0,3.39-5.28,0-5.28S72.22,27,75.63,27Z"/>
  <path class="cls-7" d="M61.24,27.61c3.4,0,3.41-5.28,0-5.28S57.84,27.61,61.24,27.61Z"/>
  <path class="cls-4" d="M64.34,28.9a8.08,8.08,0,0,0,4.82,1.43,7.87,7.87,0,0,0,2.4-.47"/>
  <path class="cls-4" d="M64.59,28.18a2.15,2.15,0,0,0-.49,1,2.58,2.58,0,0,0,0,1"/>
</svg>
