<svg id="Layer_1" data-name="Layer 1" xmlns="http://www.w3.org/2000/svg" viewBox="0 0 136 227">
  <defs>
    <style>
      .cls-1 {
        fill: #ede683;
      }

      .cls-2 {
        fill: #ad8c73;
      }

      .cls-3, .cls-5 {
        fill: none;
        stroke-miterlimit: 10;
      }

      .cls-3 {
        stroke: #725437;
      }

      .cls-4 {
        fill: #c19272;
      }

      .cls-5 {
        stroke: #967660;
      }
    </style>
  </defs>
  <title>naked_10</title>
  <rect class="cls-1" x="-0.5" y="-0.5" width="136" height="227"/>
  <path class="cls-2" d="M23.86,19.11c-4.56,1-6.2,1.45-8.13,2.48a19.27,19.27,0,0,0-5.86,4.48,21.1,21.1,0,0,0-4.51,9c-1,4.15-.68,7.7,1.34,16.92,2.07,9.42,3,11.58,5,19.91,2.76,11.53,3.55,18,4.51,17.91.22,0,.34-.33.41-.5,1.52-3.73,1.36-8.34,1.4-11,0-.07.31-2.86.89-8.46.55-5.17.74-7,1.77-7.45s1.94,1.32,5,2c1.54.34,1.58-.09,4.51,0,2.61.08,4.36.13,6.32,1,2.45,1.08,2.51,2.24,4.07,2.49,2.46.39,4.53-2.17,6.32-4,.29-.31,4.43-2.86,12.63-8C80.15,43.15,70.3,50.49,74,48c1.14-.8,2.45-1.77,4.06-1.49,2.59.44,2.94,3.55,6.77,7a19.24,19.24,0,0,0,5.86,3.48c3.15,1.28,5.9,2.4,8.58,1a8.22,8.22,0,0,0,3.61-4.48,10.53,10.53,0,0,0-.45-7.47,13,13,0,0,0-3.61-5c-2.66-2.38,8.4,7.28-11.28-12.41C80,21.07,76.29,17.32,75.76,17.11c-8.67-3.44-15.37,2.56-19.4-2-2.53-2.85-.48-6-3.16-9C48.66,1.19,37,3.87,35.59,8.66c-.72,2.53,1.84,4.18.89,6.46C35.7,17.08,33.35,17.05,23.86,19.11Z"/>
  <path class="cls-2" d="M24.54,140.26c-1.78.59-2.34,3.4-2.94,6.21a16.08,16.08,0,0,0-.43,3.09c-.05,1.15.08,1.71,0,2.88a12.28,12.28,0,0,1-.46,2.49v2.49c0,2.66-.23,5.77,0,8.46a6.62,6.62,0,0,0,1.43,3.66c.74,1.08.71,1.88,1.29,4.8.43,2.21.56,2.29.88,4A64,64,0,0,1,25.44,189a73.85,73.85,0,0,0,4.06,11.45c.57,1.22,2.33,4.12,5.87,9.95a54.12,54.12,0,0,0,3.16,5c4.28,4.49,12.41,5.6,14.44,2.49,1.36-2.06-1.12-4.18-3.15-12.94-.94-4-1.53-8.81-2.72-18.41h0c-.47-3.6-.8-6.21-2-8.7-.17-.36,0,0-2.25-3.49a21.61,21.61,0,0,0-1.77-2.49c-.55-.65-.67-.69-.89-1-.89-1.17-.76-2.51-.89-4.48a50.13,50.13,0,0,0-1.34-7c-.39-1.68-.4-1.46-.69-2.73-1-4.59-.31-5.39-1.12-7.22-1.16-2.6-3-4-6.55-6.71C27,140.82,25.7,139.86,24.54,140.26Z"/>
  <path class="cls-2" d="M96.75,167.63c-1.46.52.72,10.43.89,11.31.37,1.69,1.77,7.63,2.91,11.62a25,25,0,0,1,.72,3.31,25.33,25.33,0,0,1,.24,3.48c.14,4.62,1.83,5.27,1.95,9.69.06,2.41-.39,4.77,0,4.85s.78-1.35,1.14-1.25.19.65.26.77c1,2.22,3.13,2.86,10.82,5,7.1,2,8.11,2.18,8.59,1.5,1-1.49-2.46-4.27-5-11.45-2.33-6.66-1.18-9.51-4.07-14.93a23.89,23.89,0,0,0-4.51-6,99.34,99.34,0,0,1-7.67-9.46C98.82,170.14,97.57,167.34,96.75,167.63Z"/>
  <path class="cls-3" d="M28.6,40.73l4.56,3a6.81,6.81,0,0,0,4.43,2c2.17,0,3.63-1.48,5-2.5s2.16-1.31,10.84-3.48C59.13,38.33,64,37.19,67.87,36.3"/>
  <path class="cls-3" d="M66.51,27.81a71,71,0,0,0,5,9.46,66,66,0,0,0,5.42,7.46"/>
  <path class="cls-3" d="M13.25,55.18l4.07,5"/>
  <polyline class="cls-3" points="24.54 26.82 31.76 24.82 38.98 21.85"/>
  <polyline class="cls-3" points="55.91 20.84 62.22 21.34 69.45 21.34"/>
  <path class="cls-3" d="M39.43,175.59,39,168.12"/>
  <path class="cls-4" d="M6.25,174.84c-2.66-4.49-5.16-8.62-4.06-12.93,1-3.91,4.54-6.37,5-12.42.07-1,0-.77,0-3A74.39,74.39,0,0,1,8,136.06c2.12-14.19,1.24-18.47,3.61-27.86.36-1.4,1.92-5.48,3.62-11.45.67-2.4,1.25-3.3,1.35-5a8.63,8.63,0,0,1,.45-3,5.57,5.57,0,0,0,.45-1.49c.09-.7-.06-.77,0-1.49.08-.89.33-1.09.45-2v-5.5c0-1.11-.12-1.19,0-1.49a3.15,3.15,0,0,0,.46-1,4.34,4.34,0,0,0,0-.51V72.84c.05-.72.35-.72.45-1.49v-2a15.88,15.88,0,0,1,.45-3c.06-.34.2-1.32.45-2.48a2.07,2.07,0,0,1,.45-1,1.64,1.64,0,0,1,.88-.49c.7-.12,1.17.51,1.78,1a6.09,6.09,0,0,0,2.7,1,12.57,12.57,0,0,0,4.06,0,13.59,13.59,0,0,1,5.42,1c1.94.68,3.41,1.59,5.42,2a3.64,3.64,0,0,0,2.26,0,7.38,7.38,0,0,0,1.35-1,17.58,17.58,0,0,0,1.77-1.49,17.23,17.23,0,0,0,1.47-1.49c1.29-1.54,2.4-1.45,5.86-3.49,1.56-.88,1.37-.94,3.17-2,1.56-.89,1.92-1,3.61-2s2.84-1.77,3.16-2c1.38-.95,1.49-1.13,2.71-2a28.37,28.37,0,0,1,5-3c2.25-1,2.19-.51,4-1.5,1.09-.56,1.7-1,2.66-1a4,4,0,0,1,2.26,1A8.64,8.64,0,0,1,81.53,50a21,21,0,0,0,2.26,3c1,1.1,2.17,1.78,4.51,3a19.15,19.15,0,0,0,4.51,2,17,17,0,0,0,3.16.49c.42,0,1.45.07,2.71,0a7.61,7.61,0,0,1,1.35,0,7.37,7.37,0,0,1,1.78.5c1.49.69,2.18,3.3,2.93,5.22.83,2.14,1.25,2.12,3.38,5.72,2.32,3.92,3.73,7.18,6.55,13.69,2.13,4.93,3.61,8.77,4.06,9.95,5.63,14.71,4.51,15.88,9.94,31.85,1.64,4.83,4.94,14.18,4.51,21.39a36.45,36.45,0,0,1-.89,6,35.68,35.68,0,0,1-3.16,8c-1.82,3.67-2.22,4.27-5.86,11.44-3.31,6.5-3.09,6.5-4.52,9a60,60,0,0,0-3.16,6c-.58,1.22-.51,1.78-.89,2-2.34,1.25-10.64-6.3-9.48-10.45a9.88,9.88,0,0,1,.45-1,17.76,17.76,0,0,0,1.35-6c.34-3.47,1.62-3,3.61-9.45,1.05-3.39,1-4.53,2.26-7s2.22-2.4,2.66-4c.79-2.48-.76-4.19-3.16-10a88.06,88.06,0,0,1-3.86-12c-1-3.89-1.18-5.95-1.78-6-.82,0-1.14,3.48-3.15,10-1.43,4.58-1.78,4.31-3.16,9-1.1,3.54-1.64,6-2.71,10.94-1.4,6.44-1.41,7.89-1.35,9,0,.59.13,1.56.44,5.48.13,1.5.15,1.88.23,2.74.35,3.83.45,3.33.46,4.47a17.1,17.1,0,0,0,.22,4.23c0,.22,0,.14.2.79.23.95.43,1.94,1.61,7.18s1,4.37,1.35,6c.23,1.15.46,2.32.89,4,.41,1.49.53,1.68.89,3a34.5,34.5,0,0,1,1.35,7,12.2,12.2,0,0,1,0,4c-.65,2.1-3.54,4.21-15.8,4.47-10.31.23-15-2.77-20.76-1.49-.26.06-5.32,1.18-8.35,1.78-1.51.27-1.68.25-2.66.49-2,.46-2.23.71-2.71.5-.94-.42-1-1.83-1.78-5-.64-2.5-.73-2.12-1.35-4.44a55.53,55.53,0,0,1-1.49-7.54c-1.68-12.2-1.78-9.58-2.26-14.43a18.15,18.15,0,0,0-1.29-6.47,34.78,34.78,0,0,0-2.26-4,20.54,20.54,0,0,0-1.58-2.24,16.52,16.52,0,0,1-1.58-1.77,6.9,6.9,0,0,1-.89-3.49c-.15-1.92-.39-3.44-.88-6.46S37.62,158,37,154.4a21.52,21.52,0,0,0-.68-3.73,15.55,15.55,0,0,0-2.93-4.73c-1.77-2.15-1.82-1.67-2.48-2.73-.5-.79-1.28-2.26-1.36-9.45,0-3.39,0-4.85-.45-5s-1.41,1.65-1.77,2.48c-1,2-.72,3.16-1.78,6.47a17.68,17.68,0,0,1-.88,2c-1.48,3.07-1.85,3-2.49,4.72a14.91,14.91,0,0,0-.88,4.48v1.49a37.56,37.56,0,0,1-.45,4c-.08.59-.11.76-.15,1.12-.06.71-.09,1.41-.08,2.12a39.35,39.35,0,0,0,.46,9c.46,2.43.71,2,1.77,6.46.13.55.74,3.07,1.36,6.47,0,0,.53,3,.88,6,1.36,10.94,2.41,19.51.45,20.4S20.67,199.21,6.25,174.84Z"/>
  <path class="cls-5" d="M66.74,94.24a21.4,21.4,0,0,1-1.78,10,30.89,30.89,0,0,1-2.71,4.43c-2,3-3,4.53-4.51,5.47a10.46,10.46,0,0,1-5.87,1.5,11.71,11.71,0,0,1-3.16-.5"/>
  <path class="cls-5" d="M86.83,100.45a30,30,0,0,0,.89,5.48,28.27,28.27,0,0,0,1.77,5"/>
  <path class="cls-5" d="M78.25,130.81c-.47,1.77-1.26,4.77-2.26,8.46-2.61,9.64-3.22,11.42-3.61,15a52.73,52.73,0,0,0,0,10.95c.55,6.85,1.68,8.56,2.26,14.92a64.39,64.39,0,0,1,0,11.45"/>
  <path class="cls-5" d="M90.89,182.56l-.89,8"/>
  <path class="cls-5" d="M114.36,130.81a40.82,40.82,0,0,1,2.66,6.46,41.77,41.77,0,0,1,1.36,5.48"/>
  <path class="cls-5" d="M36.27,101c-1.4,3.7-2.8,7.86-4.06,12.42-1.17,4.24-2,8.25-2.71,11.94"/>
</svg>
