<svg id="Layer_1" data-name="Layer 1" xmlns="http://www.w3.org/2000/svg" viewBox="0 0 248 256"><defs><style>.cls-1{fill:#fff;}.cls-2{fill:#ea7657;}</style></defs><title>replay 2</title><ellipse class="cls-1" cx="120.5" cy="133" rx="84.5" ry="79"/><path class="cls-2" d="M124,.41C55.52.41,0,57.63,0,128.2S55.52,256,124,256s124-57.22,124-127.8S192.48.41,124,.41ZM55.68,110.66c7.53-31.77,35-55.74,68.23-56.49,39.61-.9,72.55,31.58,73.42,72.41s-30.65,74.76-70.27,75.66a70.17,70.17,0,0,1-47.68-17.31l10.84-20.37a49,49,0,0,0,36.37,15.08c27.51-.63,49.41-24.2,48.8-52.56s-23.48-50.92-51-50.3c-21,.47-38.65,14.28-45.62,33.36l17.16-.39-28.75,54-31-52.68Z"/></svg>
