<svg id="Layer_1" data-name="Layer 1" xmlns="http://www.w3.org/2000/svg" width="1920" height="1080" viewBox="0 0 1920 1080"><defs><style>.cls-1{fill:#7fc7e1;}.cls-2{fill:#fff;}</style></defs><title>Artboard 3</title><rect class="cls-1" y="-1.58" width="1920" height="1080"/><path d="M865.43,38.52H1078c5.6,0,10.2,4.1,10.2,9.1v98.2c0,5-4.6,9.1-10.2,9.1H865.43c-5.6,0-10.2-4.1-10.2-9.1V47.62C855.23,42.52,859.83,38.52,865.43,38.52Z"/><path d="M882.33,231.82h185.5c5.6,0,10.2,4.1,10.2,9.1v102.8c0,5-4.6,9.1-10.2,9.1H882.33c-5.6,0-10.2-4.1-10.2-9.1V240.92C872.13,235.92,876.73,231.82,882.33,231.82Z"/><path d="M800.13,138.92h349c5.6,0,10.2,4.1,10.2,9.1v87.5c0,5-4.6,9.1-10.2,9.1h-349c-5.6,0-10.2-4.1-10.2-9.1V148C790,143,794.53,138.92,800.13,138.92Z"/><path class="cls-2" d="M916.13,64.82c.4-3.5.7-7,1-10.5a7.88,7.88,0,0,1,1.6-4.4,3.43,3.43,0,0,1,3.2-1.6,5.85,5.85,0,0,1,1.3.2,3.8,3.8,0,0,1,3,3.6c0,.5.1,1.1.1,1.6a14.72,14.72,0,0,1-.4,3.6c-.1.5-.2,1.1-.3,1.5-.1,1-.2,2.1-.3,3.1-1,9.3-2.3,18.8-3.7,28.5a240.74,240.74,0,0,1-5.8,27.8c0,.1-.1.3-.1.4a52.94,52.94,0,0,1-3.1,8.7,14.28,14.28,0,0,1-5.9,7,13.16,13.16,0,0,1-5.8,1.5,8.89,8.89,0,0,1-3.6-.7,12.07,12.07,0,0,1-6.8-6.1,89.42,89.42,0,0,1-5.7-15.4c-1.7-6.2-3.1-11.6-4-16.2-1.6-8.1-3.1-16.2-4.4-24.4-.7-4.5-1.5-8.9-2.3-13.3-.2-1-.3-2-.4-3a9,9,0,0,1,.8-3.6q1.35-2.55,6.6-2.7h.2c2.7,0,4.8.8,6.1,2.5a14.16,14.16,0,0,1,2.8,6.1,56.53,56.53,0,0,1,1.1,7c.1,1,.2,1.8.3,2.6a349.68,349.68,0,0,0,10.1,48.4q1.35,4.65,2.4,5.1c.1.1.2.1.4.1.5,0,.9-.5,1.4-1.5a36.44,36.44,0,0,0,1.4-4.7c.2-.7.3-1.3.5-2,2.1-8.1,3.7-16.3,5-24.5S915.23,73.12,916.13,64.82Z"/><path class="cls-2" d="M976,111.72l-23.6,2.1c-.8,4.2-1.5,8.4-2,12.7a10.5,10.5,0,0,1-2.6,6c-1.4,1.5-3.6,2.3-6.6,2.3s-5-1-5.9-2.6a8.57,8.57,0,0,1-1-4.1,14.92,14.92,0,0,1,.2-2.1c.9-6.2,2.2-13.9,3.8-23s3.5-18.1,5.7-26.8,4.8-15.9,7.7-21.2c2-3.2,4.6-5.1,7.7-5.5a8.6,8.6,0,0,1,1.6-.1,13.25,13.25,0,0,1,7.8,2.9c2.4,2,4.7,5.9,6.8,11.5.2.4.3.8.5,1.3.1-1.1.1-2.1.1-3.2a7.57,7.57,0,0,1,.1-1.5c.1-3.4.5-5.9,1.5-7.3a5.82,5.82,0,0,1,4.4-2.6,32.4,32.4,0,0,1,4.4-.2c1.1,0,2.3,0,3.7.1.2,0,.5.1.7.1h4.6c2.4,0,4.9,0,7.3.1a38.66,38.66,0,0,1,4.8.3,4.8,4.8,0,0,1,3.4,2.6,1.64,1.64,0,0,1,.1,1,3.3,3.3,0,0,1-1.2,2.4c-1.2,1-3.3,1.6-6.4,1.6h-2.2a14.08,14.08,0,0,0-2-.1,12.22,12.22,0,0,0-5,.8c-1.8.7-2.8,2.7-3,6.1v1.1c0,5-.1,10-.4,14.9,0,1.1-.1,2.2-.2,3.3,0,2.3.5,3.8,1.6,4.2a7,7,0,0,0,2.9.4,10.28,10.28,0,0,0,1.7-.1h2.5a7.57,7.57,0,0,0,1.5-.1c.7,0,1.5-.1,2.4-.1a20.9,20.9,0,0,1,2.5.1,8.6,8.6,0,0,1,3.9.9,3.62,3.62,0,0,1,1.6,2.9,5,5,0,0,1-.2,1.2c-.6,1.6-2.1,2.6-4.5,2.8h-1a25.35,25.35,0,0,1-2.6-.1c-1.3-.1-2.7-.1-4-.1l-2,.1a10.21,10.21,0,0,0-4.2.6,5.8,5.8,0,0,0-2,4.2c0,.5-.1,1-.1,1.4a20.68,20.68,0,0,0,.3,3.5,17.85,17.85,0,0,1,.2,2.3c0,.3.1.6.1.8a46.18,46.18,0,0,0,.8,6.5,15.06,15.06,0,0,0,2.5,6,8.38,8.38,0,0,0,5.8,3.3c1.4.1,2.8.2,4.2.2s2.8-.1,4.2-.2l3.6-.2c2.1.1,3.6.7,4.5,2a3.41,3.41,0,0,1,.7,1.9,4.37,4.37,0,0,1-.7,2.1c-.9,1.3-3.1,2.1-6.5,2.4-2.4.1-5,.2-8,.2h-3.7a53.55,53.55,0,0,1-11.3-1.2c-3.7-1.2-6.2-3.2-7.6-5.9a33.28,33.28,0,0,1-2.9-9.1C976.63,115.62,976.33,113.72,976,111.72Zm-22.2-5.9,21.3-1.9a1.27,1.27,0,0,1-.1-.6c-.2-1.2-.6-3.5-1.2-6.7s-1.3-6.9-2.1-11-1.7-8-2.6-11.7a51.93,51.93,0,0,0-2.8-8.7c-.7-1.6-1.3-2.4-1.9-2.4a.86.86,0,0,0-.6.3c-.8,1.2-2,4.8-3.4,10.8s-2.8,12.2-4,18.6-2.1,10.7-2.5,13Z"/><path class="cls-2" d="M1066.53,138a6.64,6.64,0,0,1-4.2-1.4c-2-1.8-3.8-5-5.2-9.8l-3.5-9.9a236.87,236.87,0,0,0-9.6-23.8,4.8,4.8,0,0,1-.5-1.7,4.05,4.05,0,0,1,2.8-3.8q8.85-4.05,12.6-10.8a14.79,14.79,0,0,0,1.9-6.8c0-7.6-6-12.8-17.9-15.6l-.1,35.1q0,30.15.3,38.1a15.67,15.67,0,0,1-1.2,6c-.9,2.1-3.2,3.2-6.6,3.2-4.9-.3-7.6-3-7.9-8.1l-.1-2.8c0-1.2,0-2.5.1-3.7q.3-21.3.3-33.6,0-11.4-.3-33.6a9.3,9.3,0,0,1,1.9-6.3c1.6-1.8,4.1-2.7,7.8-2.7a42.58,42.58,0,0,1,23.5,7.3,22,22,0,0,1,8.2,10.2,15.93,15.93,0,0,1,1,5.7,22.37,22.37,0,0,1-1.6,8c-2.5,6.4-7.4,11.7-14.6,15.8,3.2,6.7,6.3,13.4,9.4,20.1l6.7,14.3c1.3,2.7,2,4.8,2,6.5a5.66,5.66,0,0,1-.3,1.8C1070.73,137.12,1069.13,137.82,1066.53,138Z"/><path class="cls-2" d="M804.23,161.32a7.57,7.57,0,0,1,.1-1.5c0-3.4.5-5.9,1.5-7.3a6.12,6.12,0,0,1,4.4-2.6,32.4,32.4,0,0,1,4.4-.2c1.1,0,2.3,0,3.7.1.2,0,.5.1.7.1h4.6c2.4,0,4.9,0,7.3.1a38.66,38.66,0,0,1,4.8.3,4.8,4.8,0,0,1,3.4,2.6,2.76,2.76,0,0,1-1.1,3.3c-1.2,1-3.3,1.5-6.4,1.6h-2.2a14.08,14.08,0,0,0-2-.1,12.22,12.22,0,0,0-5,.8c-1.8.7-2.8,2.7-3,6.1v1.1c0,5-.1,10-.4,14.9,0,1.1-.1,2.2-.2,3.3,0,2.3.5,3.8,1.6,4.2a7,7,0,0,0,2.9.4,9.7,9.7,0,0,0,1.7-.1,20.9,20.9,0,0,1,2.5-.1,7.57,7.57,0,0,0,1.5-.1c.8,0,1.6-.1,2.4-.1a20.9,20.9,0,0,1,2.5.1,7.56,7.56,0,0,1,3.9,1,3.66,3.66,0,0,1,1.6,3,5,5,0,0,1-.2,1.2c-.5,1.6-2,2.6-4.5,2.8h-.9c-.7,0-1.6,0-2.7-.1-1.3,0-2.7-.1-4-.1h-2.2a10.21,10.21,0,0,0-4.2.6,6.2,6.2,0,0,0-2,4.3c0,.5-.1,1-.1,1.5a20.68,20.68,0,0,0,.3,3.5,17.85,17.85,0,0,1,.2,2.3c0,.3.1.6.1.8a49.53,49.53,0,0,0,.8,6.6,15.06,15.06,0,0,0,2.5,6,8.38,8.38,0,0,0,5.8,3.3c1.4.1,2.8.2,4.2.2s2.8-.1,4.2-.2l3.6-.2c2.1.1,3.6.7,4.5,2a3.06,3.06,0,0,1,0,3.9c-.9,1.3-3.1,2.1-6.5,2.4-2.4.2-5,.2-8,.2-1.2,0-2.4,0-3.7-.1a53.55,53.55,0,0,1-11.3-1.2c-3.7-1.2-6.2-3.2-7.6-5.9a33.28,33.28,0,0,1-2.9-9.1,118.39,118.39,0,0,1-2.1-22.2v-.6c0-8.1.3-16.1.7-23.9C803.93,167.22,804,164.22,804.23,161.32Z"/><path class="cls-2" d="M907.73,228.72c-1,2.8-2.2,4.1-3.6,4.1a1.27,1.27,0,0,1-.6-.1c-1.7-.5-3.6-1.9-5.5-4.3a66.09,66.09,0,0,1-5.2-7.8c-1.6-2.8-2.7-4.9-3.5-6.4-.2-.4-.3-.7-.4-.9-2.1-5.2-4.2-9.9-6.3-14-1.1-2.3-2.3-4.7-3.4-7a13,13,0,0,0-.8-1.7c-.7-1.3-1.3-2.7-1.9-4.1-1.4-2.9-2.7-5.8-4.2-8.6l-.2-.3q-.45-.9-.6-.9v1.9c-.1,4.3-.1,8.6-.1,12.9q0,15,.6,30c0,.8.1,1.5.1,2.2a24.33,24.33,0,0,1-.3,3.8,7.89,7.89,0,0,1-2.4,4.9q-1.95,1.8-6.3,1.8c-2.5-.1-4.3-.8-5.3-2.2a9.22,9.22,0,0,1-1.8-5c-.1-1-.1-2-.1-3a25.28,25.28,0,0,1,.1-2.8,14.08,14.08,0,0,1,.1-2.1c.1-4.7.1-9.3.1-14,0-5.8-.1-11.7-.2-17.5l-.1-13.7v-9.5a21.83,21.83,0,0,1,.4-4.4,9.88,9.88,0,0,1,2.3-4.7c1.2-1.3,3-1.9,5.4-1.9a9,9,0,0,1,6,2.2,15.8,15.8,0,0,1,3.9,5.1,66.45,66.45,0,0,1,2.7,6.1c.5,1.1.8,2.2,1.3,3.2.2.4.4,1,.8,1.8,1.1,2.5,2.8,6.1,4.9,10.8s4.4,9.6,6.8,14.8,4.6,9.8,6.5,14,3.2,6.5,3.9,6.9h.1c.2,0,.4-.2.5-.7a14.92,14.92,0,0,0,.2-2.1,20.85,20.85,0,0,0,0-2.5,11.88,11.88,0,0,1,0-1.9v-.4a281.88,281.88,0,0,0-2.5-33c-.9-7.1-1.6-14.2-2.1-21.4V156c0-.5-.1-1-.1-1.5a10.28,10.28,0,0,1,.1-1.7,4.94,4.94,0,0,1,1.6-3.1c.9-.9,2.5-1.3,4.9-1.3a3.4,3.4,0,0,1,3.3,1.6,7.58,7.58,0,0,1,1.1,3.8c.1,1.1.1,2.1.1,3.2v3c.2,3.9.4,7.8.6,11.8.4,7.6.7,15.2.8,22.8,0,2,.1,4.1.1,6.1,0,6.7-.2,12.7-.5,18.1A34.86,34.86,0,0,1,907.73,228.72Z"/><path class="cls-2" d="M958.83,209.62a92,92,0,0,1-2.1-12.6q-.3-3.45-.3-7.5c0-2,.1-4.1.2-6.3a72,72,0,0,1,2.5-15.2,33.4,33.4,0,0,1,6.9-13,22.21,22.21,0,0,1,12.9-7.2,37.13,37.13,0,0,1,6.7-.7,30.78,30.78,0,0,1,6.8.7,17.09,17.09,0,0,1,10.5,7.1,24.43,24.43,0,0,1,3.1,7.7,44.93,44.93,0,0,1,1.1,8.2l.1.9c.1,1.5.1,2.9.1,4.3a3.92,3.92,0,0,1-1.5,2.7,5.14,5.14,0,0,1-3,1h-.2a4.88,4.88,0,0,1-3-1.3,3.86,3.86,0,0,1-1.1-2.7V175a55.36,55.36,0,0,0-.7-8.1,18.2,18.2,0,0,0-3.3-8.6,7.32,7.32,0,0,0-6.6-3.1,9.15,9.15,0,0,0-1.6.1,12.59,12.59,0,0,0-8.8,6.1,33.43,33.43,0,0,0-4.2,12.2,81.47,81.47,0,0,0-1.1,13v.7a97.59,97.59,0,0,0,.5,10.8c.2,1.7.6,4.5,1.3,8.3a75.31,75.31,0,0,0,3.2,11.5,20.4,20.4,0,0,0,5.5,8.7,6.13,6.13,0,0,0,3.7,1.5,8.59,8.59,0,0,0,4.4-1.5,17.45,17.45,0,0,0,6.2-10.3,81.52,81.52,0,0,0,1.4-12.1c0-.7.1-1.3.1-1.8,0-2.2-.4-3.8-1.3-4.8-1.2-1.3-3.2-2.2-6.1-2.6a14.19,14.19,0,0,1-4-1.2,2.82,2.82,0,0,1-1.5-2.6,2.2,2.2,0,0,1,.1-.8,4.31,4.31,0,0,1,3.7-3.1,27.34,27.34,0,0,1,5-.5h2.2c.5,0,1.1-.1,1.6-.1,3.3,0,5.7.5,7.1,1.6,1.6,1.2,2.4,3.8,2.5,7.9,0,1.1.1,2.3.1,3.5,0,3.2-.2,6.7-.5,10.4a47.67,47.67,0,0,1-3.2,13.4c-3.1,7.1-8.8,11.3-17.2,12.7a37.25,37.25,0,0,1-4.7.4,19.21,19.21,0,0,1-17.2-9.6,43.44,43.44,0,0,1-3.8-8.2C960.33,215.32,959.43,212.42,958.83,209.62Z"/><path class="cls-2" d="M1055.43,147.42a20.56,20.56,0,0,1,12.2,5,26.45,26.45,0,0,1,6.9,10.1,59.57,59.57,0,0,1,3.5,11.6,93.07,93.07,0,0,1-1.2,38.6,46.11,46.11,0,0,1-5.7,12.6,25.42,25.42,0,0,1-10,8.9,23.38,23.38,0,0,1-10.2,2.2,29.22,29.22,0,0,1-5.1-.4,19.31,19.31,0,0,1-9.6-4.4,25.17,25.17,0,0,1-5.9-7.9,59,59,0,0,1-3.5-9.1,88.13,88.13,0,0,1-3.4-19c-.1-2-.2-4.1-.2-6.1a84.44,84.44,0,0,1,1.3-15,42.62,42.62,0,0,1,7.3-17.8,23.8,23.8,0,0,1,10.1-7.8,29.21,29.21,0,0,1,10.2-1.8Zm11.5,68.1a76.33,76.33,0,0,0,2.4-13.5,111.4,111.4,0,0,0,.7-13.1c0-1.8,0-3.7-.1-5.5a59.11,59.11,0,0,0-3-17.6c-1.7-5.1-4.5-8.5-8.3-10.1a9.6,9.6,0,0,0-3.3-.6,7.56,7.56,0,0,0-3.9,1,15.42,15.42,0,0,0-5.6,4.8,23.21,23.21,0,0,0-3.4,5.9,66.41,66.41,0,0,0-3.1,17.6c-.1,1.6-.1,3.2-.1,4.8a98.91,98.91,0,0,0,1.2,15.4,51.5,51.5,0,0,0,5.5,17c2.3,3.8,4.7,5.8,7.3,6.1.3,0,.7.1,1,.1a9.93,9.93,0,0,0,6.4-2.6,21.83,21.83,0,0,0,5.5-7.7A16.67,16.67,0,0,0,1066.93,215.52Z"/><path class="cls-2" d="M1097.43,158.22c0-.6-.1-1.2-.1-1.8,0-3.4.6-5.9,1.9-7.7s3.7-2.6,7.5-2.6a22.6,22.6,0,0,1,2.6.1,29.67,29.67,0,0,1,14,4.8,41.34,41.34,0,0,1,10.5,9.9,54.22,54.22,0,0,1,6.8,12.2l.2.8a63.75,63.75,0,0,1,3.4,17.7c.1,1.2.1,2.3.1,3.5a54,54,0,0,1-2,14.9,39.09,39.09,0,0,1-8.6,15.7,36.43,36.43,0,0,1-16.6,10.2,26.19,26.19,0,0,1-6.9,1.1,15.73,15.73,0,0,1-6.5-1.3c-3.8-1.7-5.9-5.1-6.3-10.3,0-1-.1-2-.1-3,0-2.1.1-4.3.2-6.5,0-1.8.1-3.4.1-5,0-5.4.1-10.8.1-16.2C1097.83,182.52,1097.63,170.32,1097.43,158.22Zm26.7,3.9c-3.5-3.3-6-5-7.7-5a1.27,1.27,0,0,0-.6.1c-1.6.4-2.5,2-2.8,4.8-.1,1.5-.2,3-.2,4.6,0,1.3,0,2.7.1,4.1,0,1.2.1,2.2.1,3.2v1.8c.1,5.9.2,11.8.2,17.7,0,8.1-.1,16.2-.4,24.4,0,.6-.1,1.2-.1,1.8,0,1.2.1,2.4.2,3.6a4.63,4.63,0,0,0,2.1,3.5,4.25,4.25,0,0,0,1.1.2,10,10,0,0,0,4.7-1.6,26.43,26.43,0,0,0,10.5-11.5,40.68,40.68,0,0,0,3.9-15.2c.1-1.3.1-2.7.1-4a59.89,59.89,0,0,0-1.1-11.2,43.88,43.88,0,0,0-10.1-21.3Z"/><path class="cls-2" d="M926.53,274.42c.4-3.6.8-7.1,1-10.5a7.88,7.88,0,0,1,1.6-4.4,3.53,3.53,0,0,1,3.2-1.6,5.85,5.85,0,0,1,1.3.2,3.8,3.8,0,0,1,3,3.6c0,.5.1,1.1.1,1.6a14.72,14.72,0,0,1-.4,3.6,10.4,10.4,0,0,0-.2,1.5c-.1,1-.2,2.1-.3,3.1-1,9.3-2.3,18.8-3.7,28.5a240.74,240.74,0,0,1-5.8,27.8c0,.1-.1.2-.1.4a57.57,57.57,0,0,1-3.1,8.8,14.28,14.28,0,0,1-5.9,7,13.16,13.16,0,0,1-5.8,1.5,8.89,8.89,0,0,1-3.6-.7,12.07,12.07,0,0,1-6.8-6.1,89.42,89.42,0,0,1-5.7-15.4c-1.7-6.2-3.1-11.6-4-16.2-1.6-8.1-3.1-16.2-4.4-24.4-.7-4.5-1.5-8.9-2.3-13.3a15.44,15.44,0,0,1-.4-3,9,9,0,0,1,.8-3.6q1.35-2.55,6.6-2.7h.1c2.7,0,4.8.8,6.1,2.5a15.63,15.63,0,0,1,2.9,6.1,56.53,56.53,0,0,1,1.1,7c.1,1,.2,1.8.3,2.6a349.68,349.68,0,0,0,10.1,48.4q1.35,4.65,2.4,5.1c.1.1.2.1.4.1.5,0,1-.5,1.4-1.6a36.44,36.44,0,0,0,1.4-4.7c.2-.7.3-1.3.5-1.9,2.1-8.1,3.7-16.3,5-24.5C924.43,290.92,925.53,282.72,926.53,274.42Z"/><path class="cls-2" d="M950.33,271.42a7.57,7.57,0,0,1,.1-1.5c.1-3.4.5-5.9,1.5-7.3a5.82,5.82,0,0,1,4.4-2.6,32.4,32.4,0,0,1,4.4-.2c1.1,0,2.3,0,3.7.1.2,0,.5.1.7.1h4.6c2.4,0,4.9,0,7.3.1a38.66,38.66,0,0,1,4.8.3,4.8,4.8,0,0,1,3.4,2.6,3.55,3.55,0,0,1,.2,1,3.1,3.1,0,0,1-1.2,2.3c-1.2,1-3.3,1.6-6.4,1.6h-2.2a17,17,0,0,0-7,.7c-1.8.7-2.8,2.7-3,6.1v1.1c0,5-.1,10-.4,14.9,0,1.1-.1,2.2-.2,3.3,0,2.3.5,3.8,1.6,4.2a7,7,0,0,0,2.9.4,9.7,9.7,0,0,0,1.7-.1,20.9,20.9,0,0,1,2.5-.1,7.57,7.57,0,0,0,1.5-.1c.8,0,1.6-.1,2.4-.1a20.9,20.9,0,0,1,2.5.1,8.6,8.6,0,0,1,3.9.9,4,4,0,0,1,1.6,3,5,5,0,0,1-.2,1.2c-.6,1.6-2.1,2.6-4.5,2.8h-1c-.7,0-1.6,0-2.7-.1-1.3,0-2.6-.1-4-.1h-2a10.21,10.21,0,0,0-4.2.6,5.8,5.8,0,0,0-2,4.2c0,.5-.1,1-.1,1.5a20.68,20.68,0,0,0,.3,3.5,17.85,17.85,0,0,1,.2,2.3c0,.3.1.6.1.8a46.18,46.18,0,0,0,.8,6.5,15.06,15.06,0,0,0,2.5,6,8.38,8.38,0,0,0,5.8,3.3c1.4.1,2.8.2,4.2.2s2.8-.1,4.2-.2l3.6-.2a5.34,5.34,0,0,1,4.5,2,3.21,3.21,0,0,1,0,4c-.9,1.3-3.1,2.1-6.5,2.4-2.4.2-5,.2-8,.2-1.2,0-2.4,0-3.7-.1a53.55,53.55,0,0,1-11.3-1.2c-3.7-1.2-6.2-3.2-7.6-5.9a33.28,33.28,0,0,1-2.9-9.1,110.48,110.48,0,0,1-2-22.2v-.7c.1-8.1.3-16.1.7-23.9C950,277.22,950.23,274.32,950.33,271.42Z"/><path class="cls-2" d="M1053.83,338.82c-1,2.7-2.2,4.1-3.6,4.1a1.27,1.27,0,0,1-.6-.1c-1.7-.5-3.6-1.9-5.5-4.3a66.09,66.09,0,0,1-5.2-7.8c-1.6-2.8-2.7-4.9-3.5-6.4-.2-.4-.3-.7-.4-.9-2.2-5.2-4.2-9.9-6.3-14.1-1.1-2.3-2.3-4.7-3.4-7-.3-.6-.5-1.1-.8-1.7-.7-1.3-1.3-2.7-1.9-4.1-1.4-2.9-2.7-5.8-4.2-8.6l-.2-.3q-.45-.9-.6-.9v1.9c-.1,4.3-.1,8.6-.1,12.9,0,10,.2,20,.6,30.1,0,.8.1,1.5.1,2.2,0,1.3-.1,2.5-.2,3.8a8.15,8.15,0,0,1-2.4,4.9c-1.3,1.3-3.4,1.9-6.3,1.9-2.5-.1-4.3-.9-5.3-2.2a9.22,9.22,0,0,1-1.8-5c-.1-1-.1-2-.1-3a26.2,26.2,0,0,1,.1-2.8,14.08,14.08,0,0,1,.1-2.1c.1-4.6.1-9.3.1-14,0-5.8-.1-11.7-.2-17.5l-.1-13.7v-9.5a20.24,20.24,0,0,1,.4-4.3,9.88,9.88,0,0,1,2.3-4.7c1.2-1.3,3-1.9,5.4-1.9a9,9,0,0,1,6,2.2,15.8,15.8,0,0,1,3.9,5.1q1.5,3,2.7,6c.5,1.2.8,2.2,1.3,3.2.2.4.4,1,.8,1.8l4.8,10.8c2.1,4.7,4.4,9.6,6.8,14.7s4.5,9.8,6.5,14,3.2,6.5,3.9,6.9h.1c.2,0,.4-.2.5-.8l.3-2.1V323a11.75,11.75,0,0,1,0-1.9v-.4a281.88,281.88,0,0,0-2.5-33c-.9-7.1-1.6-14.2-2.1-21.4v.1c0-.5-.1-1-.1-1.6a9.7,9.7,0,0,1,.1-1.7,4.7,4.7,0,0,1,1.6-3.1c.9-.9,2.5-1.3,4.9-1.3a3.4,3.4,0,0,1,3.3,1.6,8.9,8.9,0,0,1,1.2,3.8c.1,1.1.1,2.1.1,3.2v3c.2,3.9.4,7.8.6,11.8.4,7.6.7,15.2.8,22.8,0,2,.1,4.1.1,6.1,0,6.7-.2,12.7-.5,18.1A51.62,51.62,0,0,1,1053.83,338.82Z"/></svg>
