<svg id="Layer_1" data-name="Layer 1" xmlns="http://www.w3.org/2000/svg" width="1920" height="1080" viewBox="0 0 1920 1080"><defs><style>.cls-1{fill:#7fc7e1;}.cls-2{fill:#fff;}</style></defs><title>Artboard 1</title><rect class="cls-1" width="1920" height="1080"/><path d="M861.47,40.05h212.62c5.61,0,10.16,4.09,10.16,9.14v98.2c0,5-4.55,9.13-10.16,9.13H861.47c-5.61,0-10.16-4.09-10.16-9.13V49.19C851.31,44.14,855.86,40.05,861.47,40.05Z"/><path d="M878.41,233.41h185.51c5.62,0,10.17,4.09,10.17,9.13V345.31c0,5-4.55,9.13-10.17,9.13H878.41c-5.61,0-10.16-4.09-10.16-9.13V242.54C868.25,237.5,872.8,233.41,878.41,233.41Z"/><path d="M796.25,140.54h349c5.62,0,10.17,4.09,10.17,9.13v87.54c0,5-4.55,9.14-10.17,9.14h-349c-5.62,0-10.17-4.09-10.17-9.14V149.67C786.08,144.63,790.63,140.54,796.25,140.54Z"/><path class="cls-2" d="M912.23,66.36c.4-3.52.74-7,1-10.53a8.6,8.6,0,0,1,1.55-4.4,3.52,3.52,0,0,1,3.16-1.61,5.15,5.15,0,0,1,1.3.17,3.9,3.9,0,0,1,3,3.57c0,.52.06,1.06.06,1.61a16.45,16.45,0,0,1-.36,3.57c-.09.55-.17,1.06-.25,1.53-.12,1-.23,2.07-.31,3.12q-1.54,13.88-3.73,28.49a230.88,230.88,0,0,1-5.82,27.81,2.67,2.67,0,0,1-.13.4,61.42,61.42,0,0,1-3.08,8.75,14.61,14.61,0,0,1-5.86,7,13,13,0,0,1-5.83,1.52,9.83,9.83,0,0,1-3.6-.67,12.31,12.31,0,0,1-6.82-6.08,86.46,86.46,0,0,1-5.7-15.45q-2.62-9.34-4.05-16.2-2.4-12.09-4.4-24.36-1.11-6.69-2.3-13.32a15.58,15.58,0,0,1-.36-3,7.21,7.21,0,0,1,.85-3.57q1.36-2.5,6.63-2.74h.19c2.73,0,4.77.82,6.15,2.46a14.36,14.36,0,0,1,2.84,6.09,50.91,50.91,0,0,1,1.12,7c.08,1,.19,1.84.31,2.62a353.53,353.53,0,0,0,10.1,48.42c1,3.08,1.73,4.79,2.36,5.13a.79.79,0,0,0,.37.1c.5,0,1-.51,1.36-1.52a34.47,34.47,0,0,0,1.37-4.73c.17-.67.33-1.33.5-2q3.09-12.18,5-24.47T912.23,66.36Z"/><path class="cls-2" d="M972.07,113.32l-23.64,2.13q-1.18,6.3-2,12.65a10.06,10.06,0,0,1-2.6,6q-2.16,2.28-6.58,2.28c-3-.11-5-1-5.93-2.62a8.22,8.22,0,0,1-1-4.07,13.69,13.69,0,0,1,.19-2.12q1.37-9.36,3.75-23T940,77.67q3.39-13.19,7.73-21.21,3-4.85,7.69-5.52a10.84,10.84,0,0,1,1.62-.11,12.81,12.81,0,0,1,7.75,2.9q3.6,3,6.83,11.54c.16.41.33.83.49,1.28,0-1.09.09-2.14.12-3.18a12.79,12.79,0,0,1,.06-1.52q.07-5.15,1.47-7.3A5.8,5.8,0,0,1,978.15,52a38,38,0,0,1,4.4-.23q1.69,0,3.66.12a6.3,6.3,0,0,0,.75.05h4.59c2.44,0,4.87,0,7.29.06a26.72,26.72,0,0,1,4.81.34,4.76,4.76,0,0,1,3.38,2.62,2.41,2.41,0,0,1,.14,1,3.18,3.18,0,0,1-1.25,2.39q-1.73,1.58-6.38,1.62h-2.17a20.11,20.11,0,0,0-2-.11,13.81,13.81,0,0,0-5,.76c-1.83.7-2.82,2.75-3,6.09v1.12q0,7.53-.44,14.94c0,1.08-.1,2.17-.19,3.29q0,3.51,1.56,4.23a7.58,7.58,0,0,0,2.92.45c.49,0,1,0,1.69-.05a20.52,20.52,0,0,1,2.48,0c.49,0,1,0,1.49,0,.74,0,1.53-.06,2.35-.06s1.7,0,2.54.06a8.18,8.18,0,0,1,3.91.94,3.66,3.66,0,0,1,1.62,2.92,4.31,4.31,0,0,1-.18,1.23c-.56,1.63-2.08,2.56-4.53,2.79h-1c-.7,0-1.57,0-2.6-.07-1.33-.06-2.67-.1-4-.1l-2,0a10.67,10.67,0,0,0-4.16.56,6.19,6.19,0,0,0-2.05,4.24c0,.48-.06,1-.06,1.44a20.27,20.27,0,0,0,.32,3.47c.11.76.2,1.52.24,2.28a4,4,0,0,1,.06.84,53.43,53.43,0,0,0,.85,6.54,14.73,14.73,0,0,0,2.54,6,8.62,8.62,0,0,0,5.8,3.26c1.41.11,2.81.17,4.24.17s2.81-.06,4.23-.17l3.6-.23q3.18.12,4.53,2a3.2,3.2,0,0,1,.68,1.9,3.78,3.78,0,0,1-.68,2.06c-.94,1.34-3.12,2.14-6.51,2.4q-3.54.17-8,.17H995a48.68,48.68,0,0,1-11.3-1.23q-5.5-1.79-7.62-5.91a32.8,32.8,0,0,1-2.95-9.09C972.7,117.17,972.37,115.26,972.07,113.32Zm-22.15-6,21.28-1.89a2.8,2.8,0,0,1-.12-.56c-.21-1.23-.61-3.48-1.18-6.75s-1.27-6.94-2.08-11-1.69-8-2.61-11.65a53.09,53.09,0,0,0-2.82-8.72q-1-2.4-1.92-2.4a.88.88,0,0,0-.56.27q-1.24,1.78-3.39,10.82t-4,18.57q-1.92,9.52-2.54,13Z"/><path class="cls-2" d="M1062.59,139.58a6.25,6.25,0,0,1-4.23-1.44q-3-2.62-5.21-9.76l-3.53-9.9a245.28,245.28,0,0,0-9.56-23.8,4.8,4.8,0,0,1-.5-1.67,4.21,4.21,0,0,1,2.8-3.85q8.87-4.09,12.6-10.85a14.32,14.32,0,0,0,1.86-6.8q0-11.37-17.87-15.55l-.12,35.12q0,30.11.31,38.06a14.25,14.25,0,0,1-1.25,6q-1.42,3.1-6.63,3.23c-4.91-.25-7.56-3-7.94-8.13l-.06-2.84c0-1.23,0-2.45.13-3.67q.3-21.32.31-33.63,0-11.37-.31-33.56a9.38,9.38,0,0,1,1.92-6.3c1.57-1.78,4.15-2.67,7.76-2.67a38.43,38.43,0,0,1,9.68,1.2,39.91,39.91,0,0,1,13.8,6.09A22,22,0,0,1,1064.71,65a15.81,15.81,0,0,1,1,5.68,23,23,0,0,1-1.55,8q-3.72,9.66-14.63,15.82,4.79,10,9.37,20.07l6.73,14.27a15.39,15.39,0,0,1,2,6.52,5.33,5.33,0,0,1-.31,1.85C1066.81,138.68,1065.24,139.44,1062.59,139.58Z"/><path class="cls-2" d="M800.26,162.92a13,13,0,0,1,.06-1.52c0-3.42.52-5.85,1.46-7.3a5.83,5.83,0,0,1,4.44-2.56,35.92,35.92,0,0,1,4.4-.22c1.12,0,2.34,0,3.66.1a4.71,4.71,0,0,0,.74.06h4.6c2.44,0,4.86,0,7.28.06a27.66,27.66,0,0,1,4.81.33,4.78,4.78,0,0,1,3.39,2.62,2.86,2.86,0,0,1-1.06,3.35c-1.15,1-3.28,1.52-6.39,1.61h-2.21a19.61,19.61,0,0,0-2-.11,13.66,13.66,0,0,0-5,.76c-1.82.71-2.81,2.75-3,6.14v1.11q0,7.52-.44,14.94c0,1.08-.1,2.18-.18,3.29,0,2.34.52,3.75,1.55,4.24a8.2,8.2,0,0,0,2.91.44c.57,0,1.13,0,1.7,0a20.49,20.49,0,0,1,2.48-.12A14.84,14.84,0,0,0,825,190c.78,0,1.57,0,2.35,0s1.7,0,2.55,0a8.22,8.22,0,0,1,3.91,1,3.84,3.84,0,0,1,1.61,3,3.63,3.63,0,0,1-.19,1.17q-.78,2.45-4.52,2.79h-.93c-.75,0-1.64,0-2.67-.06-1.33,0-2.65-.05-4-.05H821a10.78,10.78,0,0,0-4.15.55,6.17,6.17,0,0,0-2,4.28c0,.49-.06,1-.06,1.46a21.07,21.07,0,0,0,.31,3.45,17.6,17.6,0,0,1,.24,2.29,4.57,4.57,0,0,1,.07.83,50.1,50.1,0,0,0,.85,6.56,14.74,14.74,0,0,0,2.54,6,8.65,8.65,0,0,0,5.8,3.26c1.41.11,2.81.16,4.24.16s2.81-.05,4.23-.16l3.6-.22q3.18.1,4.53,2a3.18,3.18,0,0,1,.68,1.94,3.76,3.76,0,0,1-.68,2q-1.43,2-6.52,2.39c-2.35.16-5,.23-8,.23-1.16,0-2.38,0-3.66-.06a48,48,0,0,1-11.29-1.22q-5.52-1.78-7.63-5.91a33.14,33.14,0,0,1-3-9.11,116.87,116.87,0,0,1-2.1-22.22v-.62q.06-12.18.74-23.92C800,168.77,800.14,165.8,800.26,162.92Z"/><path class="cls-2" d="M903.83,230.34q-1.44,4.13-3.61,4.12a4.18,4.18,0,0,1-.61-.05q-2.61-.69-5.47-4.29a62.59,62.59,0,0,1-5.22-7.82c-1.58-2.79-2.73-4.93-3.48-6.42-.17-.38-.31-.68-.43-.89q-3.19-7.8-6.27-14l-3.39-7a15.34,15.34,0,0,0-.84-1.67c-.66-1.34-1.3-2.7-1.93-4.07q-2-4.36-4.15-8.59l-.19-.33c-.33-.63-.53-1-.62-1v1.9q-.12,6.41-.13,12.88,0,15,.62,30c0,.77.07,1.53.07,2.23a30.22,30.22,0,0,1-.25,3.81,8.43,8.43,0,0,1-2.36,4.94c-1.26,1.23-3.37,1.85-6.31,1.85-2.54-.11-4.3-.84-5.34-2.2a9.48,9.48,0,0,1-1.77-5c-.08-1-.12-2-.12-3s0-1.91.12-2.84c0-.76,0-1.43.06-2.07q.13-7,.13-14,0-8.76-.19-17.51l-.12-13.7v-9.49a27.56,27.56,0,0,1,.37-4.35,9.19,9.19,0,0,1,2.26-4.65c1.19-1.29,3-1.93,5.43-1.93a9.31,9.31,0,0,1,6,2.18,16.54,16.54,0,0,1,3.94,5.1,57,57,0,0,1,2.67,6.05c.45,1.15.84,2.21,1.3,3.17a17.92,17.92,0,0,0,.85,1.78q1.7,3.75,4.87,10.82t6.77,14.75q3.6,7.67,6.49,14t3.87,6.95H897c.21,0,.37-.25.5-.73a13.4,13.4,0,0,0,.25-2.09c0-.84.05-1.66,0-2.48s0-1.45,0-1.9v-.38a288.71,288.71,0,0,0-2.49-33Q894,169,893.18,158.2v-.29c0-.51-.06-1-.06-1.52a16.2,16.2,0,0,1,.06-1.67,4.9,4.9,0,0,1,1.55-3.09c.9-.89,2.54-1.32,4.9-1.31A3.55,3.55,0,0,1,903,151.9a8.66,8.66,0,0,1,1.15,3.81q.12,1.62.12,3.18v3q.25,5.81.56,11.77.56,11.37.85,22.84c0,2,.07,4.09.07,6.09q0,10-.5,18.12A41.56,41.56,0,0,1,903.83,230.34Z"/><path class="cls-2" d="M954.87,211.16a83.06,83.06,0,0,1-2.11-12.6q-.32-3.51-.31-7.52c0-2,.07-4.14.18-6.31a69.2,69.2,0,0,1,2.55-15.22,33.47,33.47,0,0,1,6.92-13,22.72,22.72,0,0,1,12.9-7.25,34,34,0,0,1,6.69-.67,32.61,32.61,0,0,1,6.83.73A17,17,0,0,1,999,156.38a24.63,24.63,0,0,1,3.1,7.72,45.34,45.34,0,0,1,1.11,8.17l.07.95c.09,1.45.13,2.88.13,4.29a3.94,3.94,0,0,1-1.49,2.73,4.82,4.82,0,0,1-3,.95h-.19a4.78,4.78,0,0,1-3-1.34,3.76,3.76,0,0,1-1.05-2.68v-.72a54.73,54.73,0,0,0-.69-8.08,18.91,18.91,0,0,0-3.28-8.64,7.58,7.58,0,0,0-6.65-3.12,11.63,11.63,0,0,0-1.55.1,12.36,12.36,0,0,0-8.77,6.14A33.64,33.64,0,0,0,969.53,175a80,80,0,0,0-1.08,13v.67a94.46,94.46,0,0,0,.49,10.77q.25,2.57,1.34,8.25a71.73,71.73,0,0,0,3.23,11.52A20.58,20.58,0,0,0,979,228a5.5,5.5,0,0,0,3.66,1.45,8.23,8.23,0,0,0,4.4-1.52,17,17,0,0,0,6.18-10.35,79,79,0,0,0,1.39-12.06c0-.67.06-1.29.06-1.84a7.46,7.46,0,0,0-1.3-4.85c-1.16-1.3-3.2-2.18-6.14-2.63a12,12,0,0,1-4-1.16,2.77,2.77,0,0,1-1.49-2.63,6.51,6.51,0,0,1,.07-.76,4.24,4.24,0,0,1,3.72-3.12,24.85,24.85,0,0,1,5-.5h2.17c.53,0,1.08-.06,1.61-.06q5,0,7.07,1.62c1.58,1.21,2.41,3.84,2.49,7.86,0,1.11.05,2.28.05,3.46,0,3.23-.16,6.69-.49,10.36a45.07,45.07,0,0,1-3.22,13.36q-4.65,10.66-17.18,12.72a32.28,32.28,0,0,1-4.71.38q-11.18,0-17.19-9.64a44.68,44.68,0,0,1-3.82-8.22C956.38,216.9,955.54,214,954.87,211.16Z"/><path class="cls-2" d="M1051.46,149.05q7.63.75,12.2,5a27.69,27.69,0,0,1,6.95,10.06,58.83,58.83,0,0,1,3.48,11.6,91.31,91.31,0,0,1-1.25,38.58,45.42,45.42,0,0,1-5.74,12.59,25.77,25.77,0,0,1-9.95,8.93A22.55,22.55,0,0,1,1047,238a36,36,0,0,1-5.08-.4,19.09,19.09,0,0,1-9.65-4.37,25.37,25.37,0,0,1-5.93-7.87,62,62,0,0,1-3.53-9.08,88.48,88.48,0,0,1-3.39-19c-.12-2-.18-4.06-.18-6.09a85.93,85.93,0,0,1,1.3-15,42.59,42.59,0,0,1,7.26-17.79,23,23,0,0,1,10.11-7.8,28,28,0,0,1,10.24-1.78A30.85,30.85,0,0,1,1051.46,149.05Zm11.55,68a75.65,75.65,0,0,0,2.35-13.48,120.7,120.7,0,0,0,.69-13.11c0-1.82,0-3.66-.13-5.52a61.24,61.24,0,0,0-3-17.56q-2.6-7.69-8.31-10.1a10.5,10.5,0,0,0-3.34-.61,8.14,8.14,0,0,0-3.92,1,15.76,15.76,0,0,0-5.58,4.76,24.43,24.43,0,0,0-3.39,5.94,66.34,66.34,0,0,0-3.1,17.62c-.08,1.6-.12,3.19-.12,4.79a97.65,97.65,0,0,0,1.24,15.45,50.81,50.81,0,0,0,5.52,17c2.27,3.76,4.72,5.78,7.32,6.09a8.22,8.22,0,0,0,1,.06,9.68,9.68,0,0,0,6.4-2.62,21.4,21.4,0,0,0,5.52-7.69A18.86,18.86,0,0,0,1063,217.08Z"/><path class="cls-2" d="M1093.5,159.81c0-.63,0-1.23,0-1.78,0-3.39.61-5.95,1.85-7.7s3.74-2.56,7.51-2.56a20.48,20.48,0,0,1,2.6.11,30.57,30.57,0,0,1,14,4.8,40.72,40.72,0,0,1,10.52,9.89,49.83,49.83,0,0,1,6.78,12.18l.25.76a64,64,0,0,1,3.39,17.73c.08,1.16.12,2.29.12,3.46a54.23,54.23,0,0,1-2,14.85,39.3,39.3,0,0,1-8.62,15.75,36.3,36.3,0,0,1-16.57,10.18,25.33,25.33,0,0,1-6.89,1.06,16.55,16.55,0,0,1-6.51-1.29q-5.72-2.49-6.33-10.25c0-1-.06-2-.06-3.05,0-2.08.07-4.25.19-6.52,0-1.75.08-3.42.13-5q0-8.08.05-16.17Q1093.86,178,1093.5,159.81Zm26.75,3.87q-5.22-5-7.7-5a2,2,0,0,0-.55.05c-1.62.44-2.54,2.05-2.8,4.8-.13,1.48-.19,3-.19,4.63,0,1.33,0,2.69.13,4.06,0,1.16.08,2.22.12,3.18v1.84q.2,8.86.19,17.73,0,12.18-.38,24.36c0,.63-.06,1.25-.06,1.85a28.56,28.56,0,0,0,.25,3.57,4.27,4.27,0,0,0,2.11,3.45,2.83,2.83,0,0,0,1.12.22,10.64,10.64,0,0,0,4.72-1.61,27,27,0,0,0,10.48-11.52,40.94,40.94,0,0,0,3.91-15.22c.08-1.34.13-2.66.13-4a54.24,54.24,0,0,0-1.12-11.21,47.44,47.44,0,0,0-10.4-21.21Z"/><path class="cls-2" d="M922.56,276q.65-5.33,1-10.54a8.48,8.48,0,0,1,1.55-4.4,3.48,3.48,0,0,1,3.17-1.62,5.29,5.29,0,0,1,1.31.17,3.9,3.9,0,0,1,3,3.57c0,.51.06,1.06.06,1.61a17.17,17.17,0,0,1-.37,3.57c-.08.56-.17,1.06-.24,1.52-.13,1.05-.23,2.08-.32,3.12q-1.54,13.89-3.73,28.5a231.29,231.29,0,0,1-5.82,27.81,2,2,0,0,1-.13.4,61.38,61.38,0,0,1-3.07,8.75,14.84,14.84,0,0,1-5.86,7,13.29,13.29,0,0,1-5.83,1.52,10.05,10.05,0,0,1-3.61-.67,12.22,12.22,0,0,1-6.77-6.09,85.36,85.36,0,0,1-5.71-15.44q-2.6-9.31-4-16.17-2.41-12.09-4.41-24.36-1.11-6.69-2.29-13.33a14.22,14.22,0,0,1-.38-3.05,7.48,7.48,0,0,1,.85-3.57c.91-1.66,3.13-2.58,6.64-2.72h.12q4.1,0,6.14,2.45a14.49,14.49,0,0,1,2.86,6.13,55.83,55.83,0,0,1,1.1,7c.07,1,.18,1.84.3,2.63a354,354,0,0,0,10.1,48.37q1.42,4.62,2.35,5.13a.76.76,0,0,0,.38.11c.5,0,.95-.52,1.36-1.56a33.11,33.11,0,0,0,1.37-4.73c.16-.67.33-1.32.49-1.95q3.11-12.18,5-24.48T922.56,276Z"/><path class="cls-2" d="M946.38,273a11,11,0,0,1,.07-1.52c0-3.43.53-5.86,1.46-7.3a5.79,5.79,0,0,1,4.44-2.57,35.92,35.92,0,0,1,4.4-.22c1.11,0,2.33,0,3.66.11l.75.06h4.59q3.66,0,7.28.05a26.65,26.65,0,0,1,4.81.34,4.75,4.75,0,0,1,3.39,2.61,2.74,2.74,0,0,1,.19,1,3.17,3.17,0,0,1-1.24,2.34q-1.74,1.56-6.39,1.62h-2.2a17.49,17.49,0,0,0-2.05-.12,14.34,14.34,0,0,0-5,.76c-1.81.71-2.81,2.74-3,6.09v1.12q0,7.53-.43,14.95c0,1.08-.11,2.17-.18,3.29,0,2.34.51,3.75,1.55,4.24a8.2,8.2,0,0,0,2.91.44c.57,0,1.13,0,1.69-.06a23,23,0,0,1,2.49-.11,14.64,14.64,0,0,0,1.48-.05c.79,0,1.57-.06,2.36-.06s1.7,0,2.54.06a8.07,8.07,0,0,1,3.91.94,3.89,3.89,0,0,1,1.62,3,3.64,3.64,0,0,1-.19,1.18c-.56,1.63-2.07,2.55-4.53,2.78h-1c-.74,0-1.64,0-2.67-.05-1.32,0-2.64-.06-4-.06h-2.05a10.6,10.6,0,0,0-4.15.56,6.19,6.19,0,0,0-2,4.23c0,.49-.06,1-.06,1.46a19.94,19.94,0,0,0,.31,3.45,22.56,22.56,0,0,1,.25,2.29,4.75,4.75,0,0,1,.06.84,53.43,53.43,0,0,0,.85,6.54,15,15,0,0,0,2.54,6,8.63,8.63,0,0,0,5.79,3.31c1.39.11,2.8.16,4.23.16s2.81-.05,4.24-.16l3.59-.22a5.51,5.51,0,0,1,4.53,2,3.29,3.29,0,0,1,.69,1.95,3.8,3.8,0,0,1-.69,2q-1.42,2-6.51,2.39c-2.36.16-5,.23-8,.23-1.16,0-2.38,0-3.66-.06a48.11,48.11,0,0,1-11.29-1.22q-5.52-1.79-7.62-5.91a33,33,0,0,1-2.95-9.09,115.7,115.7,0,0,1-2.05-22.19v-.67q.08-12.18.75-23.92Q946.19,277.29,946.38,273Z"/><path class="cls-2" d="M1049.94,340.4c-1,2.75-2.15,4.13-3.6,4.13l-.63,0q-2.6-.69-5.45-4.3a59.94,59.94,0,0,1-5.21-7.81q-2.37-4.17-3.48-6.41c-.17-.37-.31-.67-.44-.89q-3.23-7.8-6.26-14.05-1.69-3.51-3.38-7a18.62,18.62,0,0,0-.85-1.66q-1-2-1.93-4.08c-1.36-2.9-2.75-5.77-4.15-8.58l-.19-.34c-.33-.63-.54-.94-.62-.94v1.89q-.12,6.42-.13,12.88,0,15,.62,30c0,.76.06,1.52.06,2.23a27.08,27.08,0,0,1-.24,3.81,8.43,8.43,0,0,1-2.36,4.93q-1.94,1.94-6.33,1.92-3.78-.18-5.33-2.2a9.4,9.4,0,0,1-1.81-5c-.07-1-.12-2-.12-3a22.41,22.41,0,0,1,.12-2.84,19,19,0,0,1,.07-2.06c.09-4.65.12-9.32.12-14q0-8.74-.19-17.51l-.12-13.7v-9.5a26.44,26.44,0,0,1,.38-4.35,9.07,9.07,0,0,1,2.26-4.65q1.77-2,5.43-1.93a9.31,9.31,0,0,1,6.05,2.18,16.54,16.54,0,0,1,3.94,5.1,55.67,55.67,0,0,1,2.66,6c.46,1.16.85,2.22,1.31,3.19a16.77,16.77,0,0,0,.85,1.78l4.82,10.8q3.2,7.08,6.77,14.74t6.48,14c1.93,4.22,3.23,6.53,3.88,6.95h.13c.2,0,.37-.25.49-.77a12.06,12.06,0,0,0,.25-2.08,20.52,20.52,0,0,0,0-2.48c0-.82,0-1.46,0-1.9v-.39a286.44,286.44,0,0,0-2.48-32.95q-1.29-10.59-2.11-21.41V268q-.06-.78-.06-1.56a15.44,15.44,0,0,1,.06-1.67,4.9,4.9,0,0,1,1.55-3.09c.92-.88,2.54-1.32,4.9-1.32a3.56,3.56,0,0,1,3.32,1.59,8.41,8.41,0,0,1,1.15,3.81c.09,1.08.12,2.14.12,3.17V272c.17,3.86.36,7.79.56,11.76q.56,11.39.85,22.84c0,2,.06,4.09.06,6.13q0,10-.49,18.12A41.56,41.56,0,0,1,1049.94,340.4Z"/><path d="M485.36,434.65a11,11,0,0,0,6.05-1.42,5.07,5.07,0,0,0,2.16-4.59,6.25,6.25,0,0,0-.7-3.06,6.55,6.55,0,0,0-1.85-2.07,11.63,11.63,0,0,0-2.64-1.43l-3.12-1.27a33.91,33.91,0,0,1-3.69-1.67,12.79,12.79,0,0,1-2.79-1.94,7.18,7.18,0,0,1-1.75-2.47,8.24,8.24,0,0,1-.6-3.26,7.7,7.7,0,0,1,2.83-6.48q2.83-2.21,7.87-2.21a17.94,17.94,0,0,1,2.64.19,20.17,20.17,0,0,1,2.43.51,18.44,18.44,0,0,1,2.06.69,8.29,8.29,0,0,1,1.56.82l-1.15,2.73a11.72,11.72,0,0,0-3.38-1.53,15.27,15.27,0,0,0-4.3-.58,12.82,12.82,0,0,0-2.9.31,6.38,6.38,0,0,0-2.28,1,5.22,5.22,0,0,0-1.52,1.75,5.61,5.61,0,0,0-.55,2.55,5.29,5.29,0,0,0,.58,2.59,5.63,5.63,0,0,0,1.61,1.82,11.91,11.91,0,0,0,2.42,1.4c.93.41,1.94.84,3,1.29,1.32.55,2.56,1.09,3.72,1.63a13.63,13.63,0,0,1,3.05,1.92,8.26,8.26,0,0,1,2.07,2.69,9,9,0,0,1,.76,3.89,7.79,7.79,0,0,1-3.14,6.77q-3.15,2.25-8.52,2.25a23,23,0,0,1-6.34-.84,17.59,17.59,0,0,1-2.11-.74,14,14,0,0,1-1.34-.67l1.05-2.83c.32.19.76.41,1.3.67a18.56,18.56,0,0,0,1.92.74,18.13,18.13,0,0,0,5.57.84Z"/><path d="M509.12,437.2a11.23,11.23,0,0,1-2.76-.41,4.93,4.93,0,0,1-2-1.11,4.6,4.6,0,0,1-1.2-1.92,9.22,9.22,0,0,1-.41-3V400.09l3.12-.57v31.2a6,6,0,0,0,.22,1.84,2.41,2.41,0,0,0,.65,1.11,2.55,2.55,0,0,0,1.12.6,11.89,11.89,0,0,0,1.66.33Z"/><path d="M513.58,424.33a15.74,15.74,0,0,1,.94-5.69,12.58,12.58,0,0,1,2.45-4,9.5,9.5,0,0,1,3.45-2.43,10.56,10.56,0,0,1,4-.79,9.33,9.33,0,0,1,7.27,3q2.71,3,2.71,9.17v.76a2.42,2.42,0,0,1-.07.72H516.89q.15,4.56,2.26,7c1.41,1.63,3.65,2.44,6.72,2.45a13.5,13.5,0,0,0,4-.48,16.54,16.54,0,0,0,2.16-.82l.58,2.69a12.65,12.65,0,0,1-2.52.91,15.58,15.58,0,0,1-4.35.53,14.3,14.3,0,0,1-5.56-1,9.82,9.82,0,0,1-3.8-2.69,10.65,10.65,0,0,1-2.16-4.1A18.88,18.88,0,0,1,513.58,424.33Zm17.62-2a9.83,9.83,0,0,0-1.83-6,5.9,5.9,0,0,0-4.89-2.16,6.49,6.49,0,0,0-3,.67,7.79,7.79,0,0,0-2.31,1.8,8.27,8.27,0,0,0-1.53,2.61,10.71,10.71,0,0,0-.65,3.12Z"/><path d="M544.3,412h9.89v2.64H544.3v13.2a13.21,13.21,0,0,0,.36,3.43,4.73,4.73,0,0,0,1,2,3.26,3.26,0,0,0,1.64,1,8.33,8.33,0,0,0,2.11.24,8.94,8.94,0,0,0,3.16-.46,12.67,12.67,0,0,0,1.88-.84l.77,2.6a12,12,0,0,1-2.36,1,11.57,11.57,0,0,1-3.64.55,10.81,10.81,0,0,1-3.87-.6,5.57,5.57,0,0,1-2.49-1.82,7.52,7.52,0,0,1-1.33-3,21.56,21.56,0,0,1-.38-4.32v-23l3.12-.57Z"/><path d="M570.89,412.81c.93-.25,2.14-.54,3.63-.86a28,28,0,0,1,5.78-.48q4.71,0,6.82,2.73c.16-.12.47-.34.93-.64a12.8,12.8,0,0,1,1.75-.94,14.41,14.41,0,0,1,2.48-.82,13.79,13.79,0,0,1,3.14-.33,10.6,10.6,0,0,1,4.58.84,6.39,6.39,0,0,1,2.72,2.35,9.59,9.59,0,0,1,1.29,3.62,28.45,28.45,0,0,1,.34,4.61v13.87h-3.12V423.9a35.48,35.48,0,0,0-.22-4.25,8,8,0,0,0-.86-3,4.24,4.24,0,0,0-1.85-1.78,7,7,0,0,0-3.12-.6,12.13,12.13,0,0,0-2.62.26,13,13,0,0,0-2,.65,8.78,8.78,0,0,0-1.41.77c-.37.26-.63.45-.79.58a15,15,0,0,1,.64,2.8,22.64,22.64,0,0,1,.22,3.29v14.11H586.1V423.9a35.48,35.48,0,0,0-.22-4.25,7.88,7.88,0,0,0-.88-3,4.25,4.25,0,0,0-1.9-1.78,7.5,7.5,0,0,0-3.24-.6,27.12,27.12,0,0,0-3.82.24,9.77,9.77,0,0,0-2,.43v21.79h-3.12Z"/><path d="M616.16,404.46a2.3,2.3,0,0,1-.68,1.75,2.36,2.36,0,0,1-3.26,0,2.63,2.63,0,0,1,0-3.5,2.36,2.36,0,0,1,3.26,0A2.3,2.3,0,0,1,616.16,404.46Zm-.72,32.3h-3.12V412h3.12Z"/><path d="M623.69,412.81c.93-.25,2.18-.54,3.75-.86a29.29,29.29,0,0,1,5.76-.48,12.07,12.07,0,0,1,4.72.81,7.3,7.3,0,0,1,3,2.33,9.65,9.65,0,0,1,1.61,3.63,21.41,21.41,0,0,1,.48,4.65v13.87h-3.12V423.9a23.83,23.83,0,0,0-.36-4.46,7.55,7.55,0,0,0-1.2-3,4.68,4.68,0,0,0-2.21-1.66,10.26,10.26,0,0,0-3.43-.5,27.12,27.12,0,0,0-3.82.24,11.4,11.4,0,0,0-2.09.43v21.79h-3.12Z"/><path d="M670.73,436a26.71,26.71,0,0,1-9,1.34,13.33,13.33,0,0,1-5-.89,10.73,10.73,0,0,1-3.84-2.57,11.92,11.92,0,0,1-2.5-4.08,15.64,15.64,0,0,1-.88-5.42,17.37,17.37,0,0,1,.74-5.21,11.84,11.84,0,0,1,2.18-4.1,10,10,0,0,1,3.53-2.69,11.24,11.24,0,0,1,4.78-1,11.6,11.6,0,0,1,4.25.7,10.68,10.68,0,0,1,2.61,1.32V400.09l3.12-.57Zm-3.12-19.54a12.66,12.66,0,0,0-1.08-.72A9.8,9.8,0,0,0,665,415a12.15,12.15,0,0,0-1.87-.55,10,10,0,0,0-2.11-.22,8.2,8.2,0,0,0-3.87.82,7,7,0,0,0-2.52,2.18,9.06,9.06,0,0,0-1.39,3.22,17.1,17.1,0,0,0-.43,3.91c0,3.26.81,5.77,2.45,7.51a8.41,8.41,0,0,0,6.48,2.62,24.37,24.37,0,0,0,3.72-.22,13,13,0,0,0,2.13-.45Z"/><path d="M684.08,434.56a9.84,9.84,0,0,0,4.44-.89,3.11,3.11,0,0,0,1.75-3,4.45,4.45,0,0,0-.31-1.73,3.55,3.55,0,0,0-1-1.3,9.15,9.15,0,0,0-1.89-1.1c-.79-.35-1.75-.77-2.91-1.25q-1.39-.57-2.64-1.17a10.94,10.94,0,0,1-2.2-1.4,5.55,5.55,0,0,1-2.12-4.58,6,6,0,0,1,2.28-4.9,9.66,9.66,0,0,1,6.27-1.87,17.47,17.47,0,0,1,4.2.43,14.45,14.45,0,0,1,2.33.77l-.72,2.79a19.26,19.26,0,0,0-1.95-.77,12.87,12.87,0,0,0-4-.48,9.64,9.64,0,0,0-2,.21A5.28,5.28,0,0,0,682,415a3.54,3.54,0,0,0-1.16,1.15,3.3,3.3,0,0,0-.43,1.71,3.57,3.57,0,0,0,.39,1.73,3.93,3.93,0,0,0,1.12,1.28,9.85,9.85,0,0,0,1.83,1c.72.31,1.54.67,2.47,1.05s1.88.77,2.76,1.17a10.17,10.17,0,0,1,2.33,1.44,6.83,6.83,0,0,1,1.63,2,6.39,6.39,0,0,1,.62,3,5.79,5.79,0,0,1-2.52,5.09,12,12,0,0,1-6.88,1.73,17.22,17.22,0,0,1-5-.55,19.19,19.19,0,0,1-2.3-.84l.82-2.83c.2.11.41.22.62.31s.75.3,1.3.48a13,13,0,0,0,1.94.45A15.87,15.87,0,0,0,684.08,434.56Z"/><path d="M702.46,412h9.89v2.64h-9.89v13.2a13.21,13.21,0,0,0,.36,3.43,4.73,4.73,0,0,0,1,2,3.23,3.23,0,0,0,1.63,1,8.41,8.41,0,0,0,2.12.24,8.94,8.94,0,0,0,3.16-.46,12.67,12.67,0,0,0,1.88-.84l.76,2.6a11.86,11.86,0,0,1-2.35,1,11.58,11.58,0,0,1-3.65.55,10.79,10.79,0,0,1-3.86-.6,5.6,5.6,0,0,1-2.5-1.82,7.71,7.71,0,0,1-1.32-3,21.56,21.56,0,0,1-.38-4.32v-23l3.12-.57Z"/><path d="M730,410.32a21.57,21.57,0,0,0,5.15-2.57,22.29,22.29,0,0,0,4.48-4.25h2.21v33.26h-3.12V408.25a9.73,9.73,0,0,1-1.37,1.2,18.25,18.25,0,0,1-1.91,1.23c-.7.4-1.44.78-2.21,1.15a16.19,16.19,0,0,1-2.31.89Z"/><path d="M754.83,420.16q0-8.46,2.78-12.92a9.24,9.24,0,0,1,15.82,0q2.8,4.47,2.8,12.92T773.43,433a9.23,9.23,0,0,1-15.8,0Q754.83,428.54,754.83,420.16Zm18,0a38.88,38.88,0,0,0-.36-5.5,17.7,17.7,0,0,0-1.23-4.63,8.62,8.62,0,0,0-2.25-3.22,5.65,5.65,0,0,0-7,0,8.33,8.33,0,0,0-2.24,3.22,18.57,18.57,0,0,0-1.2,4.63,42.19,42.19,0,0,0,0,11,18.42,18.42,0,0,0,1.2,4.61,8.41,8.41,0,0,0,2.24,3.19,5.65,5.65,0,0,0,7,0,8.75,8.75,0,0,0,2.25-3.19,17.46,17.46,0,0,0,1.23-4.61A38.88,38.88,0,0,0,772.83,420.16Z"/><path d="M794.14,436.76V400.09l3.12-.57v13.15a19.84,19.84,0,0,1,3.12-.89,16.07,16.07,0,0,1,3.17-.31,12.47,12.47,0,0,1,4.8.81,7.43,7.43,0,0,1,3.07,2.33,9.07,9.07,0,0,1,1.61,3.63,22.7,22.7,0,0,1,.45,4.65v13.87h-3.12V423.9a23.83,23.83,0,0,0-.36-4.46,7.55,7.55,0,0,0-1.2-3,4.66,4.66,0,0,0-2.23-1.66,10.63,10.63,0,0,0-3.5-.5,12.92,12.92,0,0,0-1.76.14c-.62.1-1.2.2-1.75.32s-1,.23-1.46.36a5.91,5.91,0,0,0-.84.28v21.36Z"/><path d="M829.42,437.29a16.7,16.7,0,0,1-3.92-.43,8.59,8.59,0,0,1-3.09-1.37,6.54,6.54,0,0,1-2-2.4,7.72,7.72,0,0,1-.74-3.57,7.26,7.26,0,0,1,.76-3.46,6.76,6.76,0,0,1,2.16-2.38,9.55,9.55,0,0,1,3.32-1.36,18.88,18.88,0,0,1,4.17-.44,8.76,8.76,0,0,1,1.42.08c.5.08,1,.11,1.44.19s.86.16,1.2.24a3.94,3.94,0,0,1,.69.21v-1.53a16.35,16.35,0,0,0-.19-2.52,5.67,5.67,0,0,0-.84-2.21,4.63,4.63,0,0,0-1.82-1.58,6.87,6.87,0,0,0-3.1-.6,15.94,15.94,0,0,0-6.06,1l-.39-2.69a11.25,11.25,0,0,1,2.55-.72,20.69,20.69,0,0,1,4.08-.34,9.73,9.73,0,0,1,5.35,1.27,7,7,0,0,1,2.76,3.44,10.52,10.52,0,0,1,3.79-3.53,9.64,9.64,0,0,1,4.61-1.18,9.33,9.33,0,0,1,7.27,3c1.81,2,2.72,5.06,2.71,9.17v.76a2.42,2.42,0,0,1-.07.72H838q.15,4.56,2.26,7c1.41,1.63,3.65,2.44,6.72,2.45a13.5,13.5,0,0,0,4-.48,16.54,16.54,0,0,0,2.16-.82l.58,2.69a12.65,12.65,0,0,1-2.52.91,15.58,15.58,0,0,1-4.35.53,15.92,15.92,0,0,1-4.85-.67,9.12,9.12,0,0,1-3.69-2.21c-.36.29-.8.6-1.32.94a11.14,11.14,0,0,1-1.9.93,15.22,15.22,0,0,1-5.66,1Zm5.42-12a9.2,9.2,0,0,0-1.7-.5,15.51,15.51,0,0,0-3.19-.27,17.64,17.64,0,0,0-2.41.17,6.71,6.71,0,0,0-2.3.72,4.93,4.93,0,0,0-1.73,1.51,4.33,4.33,0,0,0-.67,2.55,5.3,5.3,0,0,0,.48,2.35,3.82,3.82,0,0,0,1.37,1.53,6.12,6.12,0,0,0,2.09.84,13.87,13.87,0,0,0,7.34-.52,9.55,9.55,0,0,0,2.4-1.42,10.83,10.83,0,0,1-1.2-2.95,18,18,0,0,1-.48-4Zm17.43-3a9.9,9.9,0,0,0-1.83-6,5.9,5.9,0,0,0-4.9-2.16,6.49,6.49,0,0,0-3,.67,7.88,7.88,0,0,0-2.3,1.8,8.08,8.08,0,0,0-1.53,2.61,10.71,10.71,0,0,0-.65,3.12Z"/><path d="M870,433.4c.68-1.37,1.37-2.95,2.07-4.72s1.39-3.62,2-5.52,1.27-3.83,1.83-5.76,1-3.76,1.42-5.45h3.12q-.87,3.41-1.93,6.72t-2.25,6.48q-1.18,3.17-2.46,6.09t-2.49,5.52h-3c-.83-1.72-1.66-3.56-2.51-5.52s-1.66-4-2.44-6.09-1.54-4.27-2.25-6.48-1.35-4.45-1.93-6.72h3.31c.39,1.69.86,3.5,1.42,5.45s1.17,3.87,1.83,5.76,1.33,3.74,2,5.52S869.28,432,870,433.4Z"/><path d="M885.48,412.81c.93-.25,2.18-.54,3.74-.86a29.29,29.29,0,0,1,5.76-.48,12.15,12.15,0,0,1,4.73.81,7.3,7.3,0,0,1,3,2.33,9.48,9.48,0,0,1,1.6,3.63,21.41,21.41,0,0,1,.48,4.65v13.87H901.7V423.9a23.83,23.83,0,0,0-.36-4.46,7.55,7.55,0,0,0-1.2-3,4.71,4.71,0,0,0-2.2-1.66,10.28,10.28,0,0,0-3.44-.5,27,27,0,0,0-3.81.24,11.4,11.4,0,0,0-2.09.43v21.79h-3.12Z"/><path d="M915.91,445.64h-3.12V412.81a26.71,26.71,0,0,1,9-1.34,13.13,13.13,0,0,1,5,.89,10.7,10.7,0,0,1,3.84,2.56,11.54,11.54,0,0,1,2.5,4.08,15.43,15.43,0,0,1,.89,5.43,17.38,17.38,0,0,1-.75,5.21,11.59,11.59,0,0,1-2.18,4.08,10.14,10.14,0,0,1-3.53,2.66,11.23,11.23,0,0,1-4.77,1,11.6,11.6,0,0,1-4.25-.7,11.11,11.11,0,0,1-2.62-1.32Zm0-13.34a11.23,11.23,0,0,0,1.09.7,10.45,10.45,0,0,0,1.51.72,12.27,12.27,0,0,0,1.88.55,10,10,0,0,0,2.11.22,8.57,8.57,0,0,0,3.86-.79,6.74,6.74,0,0,0,2.52-2.16,9.06,9.06,0,0,0,1.39-3.22,16.57,16.57,0,0,0,.44-3.91q0-4.91-2.45-7.51a8.41,8.41,0,0,0-6.48-2.62,24.37,24.37,0,0,0-3.72.22,13.14,13.14,0,0,0-2.14.45Z"/><path d="M961.94,424.38a16.11,16.11,0,0,1-.84,5.33,11.82,11.82,0,0,1-2.35,4.08,10.7,10.7,0,0,1-3.57,2.61,11.56,11.56,0,0,1-9.12,0,10.74,10.74,0,0,1-3.58-2.61,11.82,11.82,0,0,1-2.35-4.08,17.33,17.33,0,0,1,0-10.66,11.91,11.91,0,0,1,2.35-4.1,10.36,10.36,0,0,1,3.58-2.64,11.56,11.56,0,0,1,9.12,0,10.68,10.68,0,0,1,3.57,2.64,11.91,11.91,0,0,1,2.35,4.1A16.11,16.11,0,0,1,961.94,424.38Zm-3.31,0a11.7,11.7,0,0,0-2.16-7.42,7.6,7.6,0,0,0-10.68-1,7.71,7.71,0,0,0-1,1,13.77,13.77,0,0,0,0,14.81,7.64,7.64,0,0,0,10.75,1,7.26,7.26,0,0,0,1-1A11.62,11.62,0,0,0,958.63,424.38Z"/><path d="M977.16,411.47a17.64,17.64,0,0,1,2.9.24,8.82,8.82,0,0,1,1.9.48l-.63,2.69a6.45,6.45,0,0,0-1.55-.41,16.9,16.9,0,0,0-3.1-.22,14.69,14.69,0,0,0-3.24.29,9,9,0,0,0-1.61.48v21.74h-3.12V413.1A22.69,22.69,0,0,1,972,412,20.8,20.8,0,0,1,977.16,411.47Z"/><path d="M986.66,412.81c.93-.25,2.18-.54,3.75-.86a29.29,29.29,0,0,1,5.76-.48,12.15,12.15,0,0,1,4.73.81,7.3,7.3,0,0,1,3,2.33,9.65,9.65,0,0,1,1.61,3.63,21.41,21.41,0,0,1,.48,4.65v13.87h-3.12V423.9a23.83,23.83,0,0,0-.36-4.46,7.55,7.55,0,0,0-1.2-3,4.68,4.68,0,0,0-2.21-1.66,10.26,10.26,0,0,0-3.43-.5,27.12,27.12,0,0,0-3.82.24,11.4,11.4,0,0,0-2.09.43v21.79h-3.12Z"/><path d="M1035.14,424.38a16.11,16.11,0,0,1-.84,5.33,11.82,11.82,0,0,1-2.35,4.08,10.7,10.7,0,0,1-3.57,2.61,11.58,11.58,0,0,1-9.13,0,10.7,10.7,0,0,1-3.57-2.61,11.82,11.82,0,0,1-2.35-4.08,17.33,17.33,0,0,1,0-10.66,11.91,11.91,0,0,1,2.35-4.1,10.68,10.68,0,0,1,3.57-2.64,11.58,11.58,0,0,1,9.13,0A10.43,10.43,0,0,1,1032,415a11.91,11.91,0,0,1,2.35,4.1A16,16,0,0,1,1035.14,424.38Zm-3.31,0a11.7,11.7,0,0,0-2.16-7.42,7.6,7.6,0,0,0-10.68-1,7.71,7.71,0,0,0-1,1,13.77,13.77,0,0,0,0,14.81,7.64,7.64,0,0,0,10.75,1,7.26,7.26,0,0,0,1-1A11.62,11.62,0,0,0,1031.83,424.38Z"/><path d="M1045,413.44a10.74,10.74,0,0,1,2.62-1.32,11.59,11.59,0,0,1,4.24-.7,11.24,11.24,0,0,1,4.78,1,10,10,0,0,1,3.53,2.69,11.84,11.84,0,0,1,2.18,4.1,17.38,17.38,0,0,1,.75,5.21,15.38,15.38,0,0,1-.89,5.42,11.54,11.54,0,0,1-2.5,4.08,10.73,10.73,0,0,1-3.84,2.57,13.33,13.33,0,0,1-5,.89,26.71,26.71,0,0,1-9-1.34v-36l3.12-.57Zm0,20.4a13.14,13.14,0,0,0,2.14.45,24.37,24.37,0,0,0,3.72.22,8.45,8.45,0,0,0,6.48-2.62c1.63-1.74,2.44-4.25,2.44-7.51a17.1,17.1,0,0,0-.43-3.91,9.24,9.24,0,0,0-1.39-3.22,7,7,0,0,0-2.52-2.18,8.19,8.19,0,0,0-3.86-.82,10.11,10.11,0,0,0-2.12.22,12.15,12.15,0,0,0-1.87.55,10.45,10.45,0,0,0-1.51.72,12.66,12.66,0,0,0-1.08.72Z"/><path d="M1073.73,404.46a2.29,2.29,0,0,1-.67,1.75,2.36,2.36,0,0,1-3.26,0,2.63,2.63,0,0,1,0-3.5,2.36,2.36,0,0,1,3.26,0A2.29,2.29,0,0,1,1073.73,404.46Zm-.72,32.3h-3.12V412H1073Z"/><path d="M1087.56,437.2a11.23,11.23,0,0,1-2.76-.41,4.93,4.93,0,0,1-2-1.11,4.6,4.6,0,0,1-1.2-1.92,9.22,9.22,0,0,1-.41-3V400.09l3.12-.57v31.2a6,6,0,0,0,.22,1.84,2.41,2.41,0,0,0,.65,1.11,2.55,2.55,0,0,0,1.12.6,11.89,11.89,0,0,0,1.66.33Z"/><path d="M1099.8,437.2a11.23,11.23,0,0,1-2.76-.41,4.93,4.93,0,0,1-2-1.11,4.6,4.6,0,0,1-1.2-1.92,9.22,9.22,0,0,1-.41-3V400.09l3.12-.57v31.2a6,6,0,0,0,.22,1.84,2.41,2.41,0,0,0,.65,1.11,2.55,2.55,0,0,0,1.12.6,11.89,11.89,0,0,0,1.66.33Z"/><path d="M1104.26,424.33a15.74,15.74,0,0,1,.94-5.69,12.66,12.66,0,0,1,2.44-4,9.54,9.54,0,0,1,3.46-2.43,10.56,10.56,0,0,1,4-.79,9.33,9.33,0,0,1,7.27,3q2.72,3,2.71,9.17v.76a2.42,2.42,0,0,1-.07.72h-17.43q.15,4.56,2.26,7c1.41,1.63,3.65,2.44,6.72,2.45a13.5,13.5,0,0,0,4-.48,16.54,16.54,0,0,0,2.16-.82l.58,2.69a12.65,12.65,0,0,1-2.52.91,15.58,15.58,0,0,1-4.35.53,14.35,14.35,0,0,1-5.57-1,9.89,9.89,0,0,1-3.79-2.69,10.65,10.65,0,0,1-2.16-4.1A18.8,18.8,0,0,1,1104.26,424.33Zm17.62-2a9.9,9.9,0,0,0-1.83-6,5.9,5.9,0,0,0-4.89-2.16,6.49,6.49,0,0,0-3,.67,7.79,7.79,0,0,0-2.31,1.8,8.27,8.27,0,0,0-1.53,2.61,10.71,10.71,0,0,0-.65,3.12Z"/><path d="M1151.78,436a26.71,26.71,0,0,1-9,1.34,13.33,13.33,0,0,1-5-.89,10.73,10.73,0,0,1-3.84-2.57,11.54,11.54,0,0,1-2.5-4.08,15.38,15.38,0,0,1-.89-5.42,17.38,17.38,0,0,1,.75-5.21,11.84,11.84,0,0,1,2.18-4.1,10,10,0,0,1,3.53-2.69,11.24,11.24,0,0,1,4.78-1,11.59,11.59,0,0,1,4.24.7,10.74,10.74,0,0,1,2.62,1.32V400.09l3.12-.57Zm-3.12-19.54a12.66,12.66,0,0,0-1.08-.72,10.45,10.45,0,0,0-1.51-.72,12.15,12.15,0,0,0-1.87-.55,10.11,10.11,0,0,0-2.12-.22,8.19,8.19,0,0,0-3.86.82,7,7,0,0,0-2.52,2.18,9.24,9.24,0,0,0-1.39,3.22,17.1,17.1,0,0,0-.43,3.91c0,3.26.81,5.77,2.44,7.51a8.45,8.45,0,0,0,6.48,2.62,24.37,24.37,0,0,0,3.72-.22,13.14,13.14,0,0,0,2.14-.45Z"/><path d="M1158.55,424.33a16,16,0,0,1,.93-5.69,12.69,12.69,0,0,1,2.45-4,9.54,9.54,0,0,1,3.46-2.43,10.56,10.56,0,0,1,4-.79,9.33,9.33,0,0,1,7.27,3c1.8,2,2.71,5,2.71,9.17v.76a2.13,2.13,0,0,1-.08.72h-17.42q.15,4.56,2.26,7c1.41,1.63,3.64,2.44,6.71,2.45a13.5,13.5,0,0,0,4-.48,16.54,16.54,0,0,0,2.16-.82l.57,2.69a12.65,12.65,0,0,1-2.52.91,15.51,15.51,0,0,1-4.34.53,14.35,14.35,0,0,1-5.57-1,9.79,9.79,0,0,1-3.79-2.69,10.65,10.65,0,0,1-2.16-4.1A18.88,18.88,0,0,1,1158.55,424.33Zm17.61-2a9.76,9.76,0,0,0-1.82-6,5.9,5.9,0,0,0-4.9-2.16,6.49,6.49,0,0,0-3,.67,7.63,7.63,0,0,0-2.3,1.8,8.3,8.3,0,0,0-1.54,2.61,11,11,0,0,0-.64,3.12Z"/><path d="M1194.79,411.47a17.64,17.64,0,0,1,2.9.24,8.82,8.82,0,0,1,1.9.48l-.63,2.69a6.41,6.41,0,0,0-1.56-.41,16.85,16.85,0,0,0-3.09-.22,14.69,14.69,0,0,0-3.24.29,9,9,0,0,0-1.61.48v21.74h-3.12V413.1a24.14,24.14,0,0,1,3.31-1.08A20.66,20.66,0,0,1,1194.79,411.47Z"/><path d="M1224.35,399.52a14,14,0,0,1,3.29.31,7,7,0,0,1,1.66.55l-.63,2.69a9.86,9.86,0,0,0-4.17-.77q-3.32,0-4.73,1.68c-.94,1.12-1.42,2.91-1.42,5.38V412h10v2.64h-10v22.17h-3.12v-27.5c0-3.23.75-5.67,2.24-7.3S1221.25,399.52,1224.35,399.52Z"/><path d="M1254.45,424.38a16.11,16.11,0,0,1-.84,5.33,11.82,11.82,0,0,1-2.35,4.08,10.74,10.74,0,0,1-3.58,2.61,11.56,11.56,0,0,1-9.12,0,10.6,10.6,0,0,1-3.57-2.61,12,12,0,0,1-2.36-4.08,17.33,17.33,0,0,1,0-10.66A12.07,12.07,0,0,1,1235,415a10.32,10.32,0,0,1,3.57-2.64,11.56,11.56,0,0,1,9.12,0,10.36,10.36,0,0,1,3.58,2.64,11.91,11.91,0,0,1,2.35,4.1A16.07,16.07,0,0,1,1254.45,424.38Zm-3.31,0A11.71,11.71,0,0,0,1249,417a7.6,7.6,0,0,0-10.68-1,7.71,7.71,0,0,0-1,1,13.77,13.77,0,0,0,0,14.81,7.64,7.64,0,0,0,10.75,1,7.26,7.26,0,0,0,1-1,11.6,11.6,0,0,0,2.14-7.43Z"/><path d="M1269.67,411.47a17.64,17.64,0,0,1,2.9.24,8.74,8.74,0,0,1,1.89.48l-.62,2.69a6.53,6.53,0,0,0-1.56-.41,16.9,16.9,0,0,0-3.1-.22,14.6,14.6,0,0,0-3.23.29,9,9,0,0,0-1.61.48v21.74h-3.12V413.1a24.14,24.14,0,0,1,3.31-1.08A20.66,20.66,0,0,1,1269.67,411.47Z"/><path d="M1297.65,411.37a10.86,10.86,0,0,1,4.15.7,7.1,7.1,0,0,1,2.76,1.92,7.46,7.46,0,0,1,1.54,2.9,13.26,13.26,0,0,1,.48,3.65v15.65c-.32.09-.79.2-1.4.31l-2.11.36c-.8.13-1.69.23-2.66.31s-2,.12-3,.12a14.36,14.36,0,0,1-3.63-.43,8,8,0,0,1-2.88-1.37,6.59,6.59,0,0,1-1.92-2.4,8.24,8.24,0,0,1-.69-3.57,7.16,7.16,0,0,1,.77-3.46,6.5,6.5,0,0,1,2.16-2.38,9.51,9.51,0,0,1,3.31-1.36,18.88,18.88,0,0,1,4.17-.44,8.76,8.76,0,0,1,1.42.08c.5.08,1,.11,1.44.19s.86.16,1.2.24a4.33,4.33,0,0,1,.7.21v-1.53a16.36,16.36,0,0,0-.2-2.52,5.32,5.32,0,0,0-.84-2.21,4.63,4.63,0,0,0-1.82-1.58,6.87,6.87,0,0,0-3.1-.6,16,16,0,0,0-4.08.38c-.89.26-1.55.46-2,.62l-.44-2.73a11.15,11.15,0,0,1,2.52-.72A21.4,21.4,0,0,1,1297.65,411.37Zm.29,23.14a25.79,25.79,0,0,0,3.19-.12c.91-.12,1.69-.19,2.33-.31v-8.74a9,9,0,0,0-1.68-.5,14.05,14.05,0,0,0-3.17-.27,17.61,17.61,0,0,0-2.4.17,6.91,6.91,0,0,0-2.31.72,4.63,4.63,0,0,0-1.72,1.51,4.34,4.34,0,0,0-.68,2.55,5.57,5.57,0,0,0,.46,2.35,3.71,3.71,0,0,0,1.3,1.53,5.53,5.53,0,0,0,2,.84,12.07,12.07,0,0,0,2.68.27Z"/><path d="M1317.47,412h9.89v2.64h-9.89v13.2a13.21,13.21,0,0,0,.36,3.43,4.84,4.84,0,0,0,1,2,3.3,3.3,0,0,0,1.64,1,8.33,8.33,0,0,0,2.11.24,9,9,0,0,0,3.17-.46,13,13,0,0,0,1.87-.84l.77,2.6a12,12,0,0,1-2.36,1,11.57,11.57,0,0,1-3.64.55,10.81,10.81,0,0,1-3.87-.6,5.57,5.57,0,0,1-2.49-1.82,7.36,7.36,0,0,1-1.32-3,20.86,20.86,0,0,1-.39-4.32v-23l3.12-.57Z"/><path d="M1351.58,433.4c.67-1.37,1.36-2.95,2.07-4.72s1.38-3.62,2-5.52,1.27-3.83,1.83-5.76,1-3.76,1.42-5.45H1362q-.87,3.41-1.93,6.72c-.71,2.21-1.45,4.37-2.24,6.48s-1.62,4.14-2.47,6.09-1.68,3.79-2.49,5.52H1350q-1.26-2.58-2.52-5.52c-.83-2-1.65-4-2.44-6.09s-1.53-4.27-2.24-6.48-1.36-4.45-1.93-6.72h3.31c.38,1.69.86,3.51,1.42,5.45s1.17,3.85,1.83,5.76,1.34,3.74,2,5.52A50.94,50.94,0,0,0,1351.58,433.4Z"/><path d="M1370.94,404.46a2.29,2.29,0,0,1-.67,1.75,2.36,2.36,0,0,1-3.26,0,2.63,2.63,0,0,1,0-3.5,2.36,2.36,0,0,1,3.26,0A2.29,2.29,0,0,1,1370.94,404.46Zm-.72,32.3h-3.12V412h3.12Z"/><path d="M1378.48,412.81c.93-.25,2.18-.54,3.74-.86a29.29,29.29,0,0,1,5.76-.48,12.15,12.15,0,0,1,4.73.81,7.3,7.3,0,0,1,3,2.33,9.48,9.48,0,0,1,1.6,3.63,21.41,21.41,0,0,1,.48,4.65v13.87h-3.12V423.9a23.83,23.83,0,0,0-.36-4.46,7.55,7.55,0,0,0-1.2-3,4.71,4.71,0,0,0-2.2-1.66,10.28,10.28,0,0,0-3.44-.5,27,27,0,0,0-3.81.24,11.4,11.4,0,0,0-2.09.43v21.79h-3.12Z"/><path d="M1425.52,436a26.71,26.71,0,0,1-9,1.34,13.33,13.33,0,0,1-5-.89,10.73,10.73,0,0,1-3.84-2.57,11.54,11.54,0,0,1-2.5-4.08,15.38,15.38,0,0,1-.89-5.42,17.38,17.38,0,0,1,.75-5.21,11.84,11.84,0,0,1,2.18-4.1,10,10,0,0,1,3.53-2.69,11.24,11.24,0,0,1,4.78-1,11.59,11.59,0,0,1,4.24.7,11.11,11.11,0,0,1,2.62,1.32V400.09l3.12-.57Zm-3.12-19.54a12.66,12.66,0,0,0-1.08-.72,10.45,10.45,0,0,0-1.51-.72,12.15,12.15,0,0,0-1.87-.55,10.11,10.11,0,0,0-2.12-.22,8.19,8.19,0,0,0-3.86.82,7,7,0,0,0-2.52,2.18,9.06,9.06,0,0,0-1.39,3.22,17.1,17.1,0,0,0-.43,3.91c0,3.26.81,5.77,2.44,7.51a8.45,8.45,0,0,0,6.48,2.62,24.37,24.37,0,0,0,3.72-.22,13.14,13.14,0,0,0,2.14-.45Z"/><path d="M1432.29,424.33a16,16,0,0,1,.93-5.69,12.69,12.69,0,0,1,2.45-4,9.54,9.54,0,0,1,3.46-2.43,10.56,10.56,0,0,1,4-.79,9.37,9.37,0,0,1,7.28,3c1.8,2,2.71,5,2.71,9.17v.76a2.42,2.42,0,0,1-.07.72H1435.6a11,11,0,0,0,2.25,7c1.41,1.63,3.65,2.44,6.72,2.45a13.5,13.5,0,0,0,4-.48,16.54,16.54,0,0,0,2.16-.82l.57,2.69a12.65,12.65,0,0,1-2.52.91,15.51,15.51,0,0,1-4.34.53,14.35,14.35,0,0,1-5.57-1,9.79,9.79,0,0,1-3.79-2.69,10.65,10.65,0,0,1-2.16-4.1A19.26,19.26,0,0,1,1432.29,424.33Zm17.61-2a9.76,9.76,0,0,0-1.82-6,5.94,5.94,0,0,0-4.9-2.16,6.49,6.49,0,0,0-3,.67,7.63,7.63,0,0,0-2.3,1.8,8.3,8.3,0,0,0-1.54,2.61,10.71,10.71,0,0,0-.65,3.12Z"/><path d="M1464.49,434.7a2.68,2.68,0,0,1-.69,1.87,2.7,2.7,0,1,1,0-3.74A2.68,2.68,0,0,1,1464.49,434.7Z"/><path d="M312.8,491.53v2.83H293.89V461.1h3.26v30.43Z"/><path d="M325.33,469a10.86,10.86,0,0,1,4.15.7,7.1,7.1,0,0,1,2.76,1.92,7.46,7.46,0,0,1,1.54,2.9,13.26,13.26,0,0,1,.48,3.65v15.65c-.32.09-.79.2-1.4.31l-2.11.36c-.8.13-1.69.23-2.66.31s-2,.12-3,.12a14.36,14.36,0,0,1-3.63-.43,8.14,8.14,0,0,1-2.88-1.37,6.59,6.59,0,0,1-1.92-2.4,8.24,8.24,0,0,1-.69-3.57,7.16,7.16,0,0,1,.77-3.46,6.5,6.5,0,0,1,2.16-2.38,9.51,9.51,0,0,1,3.31-1.36,18.88,18.88,0,0,1,4.17-.44,8.76,8.76,0,0,1,1.42.08c.5.08,1,.11,1.44.19s.86.16,1.2.24a4.33,4.33,0,0,1,.7.21V478.7a16.36,16.36,0,0,0-.2-2.52,5.32,5.32,0,0,0-.84-2.21,4.63,4.63,0,0,0-1.82-1.58,6.88,6.88,0,0,0-3.1-.61,15.57,15.57,0,0,0-4.08.39c-.89.26-1.55.46-2,.62l-.4-2.79a11,11,0,0,1,2.52-.72A21,21,0,0,1,325.33,469Zm.29,23.14a25.79,25.79,0,0,0,3.19-.12,20.38,20.38,0,0,0,2.33-.32V483a9,9,0,0,0-1.68-.5,14.05,14.05,0,0,0-3.17-.27,17.61,17.61,0,0,0-2.4.17,6.91,6.91,0,0,0-2.31.72,4.63,4.63,0,0,0-1.72,1.51,4.34,4.34,0,0,0-.68,2.55,5.57,5.57,0,0,0,.46,2.35,3.71,3.71,0,0,0,1.3,1.53,5.53,5.53,0,0,0,2,.84,12,12,0,0,0,2.68.24Z"/><path d="M362,493.6a28.87,28.87,0,0,1-3.55.91,29.53,29.53,0,0,1-5.47.43,13.33,13.33,0,0,1-5-.89,10.73,10.73,0,0,1-3.84-2.57,11.92,11.92,0,0,1-2.5-4.08,15.64,15.64,0,0,1-.88-5.42,17.37,17.37,0,0,1,.74-5.21,11.84,11.84,0,0,1,2.18-4.1,10,10,0,0,1,3.53-2.69,11.24,11.24,0,0,1,4.78-1,11.81,11.81,0,0,1,4.25.69,10.71,10.71,0,0,1,2.61,1.33V457.69l3.12-.57Zm-3.12-19.54a12.66,12.66,0,0,0-1.08-.72,8.7,8.7,0,0,0-1.51-.72,12.15,12.15,0,0,0-1.87-.55,10,10,0,0,0-2.11-.22,8.2,8.2,0,0,0-3.87.82,7,7,0,0,0-2.52,2.18,9.06,9.06,0,0,0-1.39,3.22,17.1,17.1,0,0,0-.43,3.91c0,3.26.81,5.77,2.45,7.51a8.41,8.41,0,0,0,6.48,2.62,24.37,24.37,0,0,0,3.72-.22,13,13,0,0,0,2.13-.45Z"/><path d="M381.15,470.41c.93-.25,2.18-.54,3.75-.86a29.19,29.19,0,0,1,5.75-.48,12.12,12.12,0,0,1,4.73.81,7.3,7.3,0,0,1,3,2.33,9.68,9.68,0,0,1,1.61,3.62,21.43,21.43,0,0,1,.48,4.66v13.87h-3.12V481.5A24.24,24.24,0,0,0,397,477a7.57,7.57,0,0,0-1.21-3,4.71,4.71,0,0,0-2.2-1.66,10.28,10.28,0,0,0-3.44-.5,27,27,0,0,0-3.81.24,11.4,11.4,0,0,0-2.09.43V494.3h-3.12Z"/><path d="M427.52,493.5c-.93.26-2.18.54-3.75.86a29.29,29.29,0,0,1-5.76.48,11.73,11.73,0,0,1-4.65-.81,7.56,7.56,0,0,1-3-2.31,9.45,9.45,0,0,1-1.65-3.6,20.21,20.21,0,0,1-.51-4.65V469.55h3.12v12.91a22.22,22.22,0,0,0,.39,4.46,7.17,7.17,0,0,0,1.25,3,4.9,4.9,0,0,0,2.23,1.63,9.65,9.65,0,0,0,3.33.5,27.41,27.41,0,0,0,3.84-.24,10.43,10.43,0,0,0,2.07-.43V469.55h3.12Z"/><path d="M454.23,491c.67-1.37,1.36-3,2.07-4.72s1.39-3.62,2.05-5.53,1.26-3.82,1.83-5.75,1-3.76,1.42-5.45h3.12c-.58,2.27-1.23,4.51-1.93,6.72s-1.46,4.37-2.25,6.48-1.61,4.14-2.46,6.09-1.69,3.8-2.49,5.52h-2.91q-1.26-2.58-2.51-5.52c-.83-2-1.65-4-2.44-6.09s-1.54-4.27-2.25-6.48-1.35-4.45-1.93-6.72h3.31q.58,2.54,1.42,5.45t1.83,5.75c.67,1.91,1.35,3.76,2.05,5.53S453.56,489.63,454.23,491Z"/><path d="M477.73,494.89a16.7,16.7,0,0,1-3.92-.43,8.76,8.76,0,0,1-3.09-1.37,6.46,6.46,0,0,1-2-2.4,7.72,7.72,0,0,1-.75-3.57,7.27,7.27,0,0,1,.77-3.46,6.5,6.5,0,0,1,2.16-2.38,9.51,9.51,0,0,1,3.31-1.36,18.9,18.9,0,0,1,4.18-.44,8.76,8.76,0,0,1,1.42.08c.5.08,1,.11,1.44.19s.86.16,1.19.24a4.33,4.33,0,0,1,.7.21v-1.53a16.35,16.35,0,0,0-.19-2.52,5.67,5.67,0,0,0-.84-2.21,4.63,4.63,0,0,0-1.82-1.58,6.88,6.88,0,0,0-3.1-.61,17.33,17.33,0,0,0-4,.37,20.46,20.46,0,0,0-2.07.59l-.38-2.68a11.17,11.17,0,0,1,2.54-.72,20.69,20.69,0,0,1,4.08-.34,9.76,9.76,0,0,1,5.36,1.27,7,7,0,0,1,2.75,3.43,10.6,10.6,0,0,1,3.8-3.52,9.6,9.6,0,0,1,4.6-1.18,9.37,9.37,0,0,1,7.28,3c1.8,2,2.71,5,2.71,9.17v.76a2.13,2.13,0,0,1-.08.72H486.27a11,11,0,0,0,2.25,7c1.41,1.63,3.66,2.45,6.73,2.45a13.5,13.5,0,0,0,4-.48,16.54,16.54,0,0,0,2.16-.82l.57,2.69a12.65,12.65,0,0,1-2.52.91,18,18,0,0,1-9.19-.14,9.27,9.27,0,0,1-3.7-2.21,13.7,13.7,0,0,1-1.32.94,11,11,0,0,1-1.89.93,15,15,0,0,1-5.63,1Zm5.42-11.95a9.08,9.08,0,0,0-1.71-.5,14.23,14.23,0,0,0-3.19-.27,17.61,17.61,0,0,0-2.4.17,6.71,6.71,0,0,0-2.3.72,4.66,4.66,0,0,0-1.73,1.51,4.33,4.33,0,0,0-.67,2.55,5.3,5.3,0,0,0,.48,2.35A3.75,3.75,0,0,0,473,491a6,6,0,0,0,2.08.84,11.8,11.8,0,0,0,2.65.27,11.64,11.64,0,0,0,4.7-.79,9.55,9.55,0,0,0,2.4-1.42,10.83,10.83,0,0,1-1.2-2.95,18,18,0,0,1-.48-4Zm17.42-3a9.76,9.76,0,0,0-1.82-6,5.92,5.92,0,0,0-4.9-2.17,6.5,6.5,0,0,0-3,.68,7.63,7.63,0,0,0-2.3,1.8,8.3,8.3,0,0,0-1.54,2.61,10.71,10.71,0,0,0-.65,3.12Z"/><path d="M519.2,469.07a17.64,17.64,0,0,1,2.9.24,8.82,8.82,0,0,1,1.9.48l-.63,2.69a6.41,6.41,0,0,0-1.56-.41,16.85,16.85,0,0,0-3.09-.22,14.69,14.69,0,0,0-3.24.29,9,9,0,0,0-1.61.48v21.74h-3.12V470.7a24.14,24.14,0,0,1,3.31-1.08A20.66,20.66,0,0,1,519.2,469.07Z"/><path d="M527.21,481.93a15.74,15.74,0,0,1,.94-5.69,12.58,12.58,0,0,1,2.45-4,9.5,9.5,0,0,1,3.45-2.43,10.56,10.56,0,0,1,4-.79,9.33,9.33,0,0,1,7.27,3q2.71,3,2.71,9.17V482a2.42,2.42,0,0,1-.07.72H530.52q.15,4.56,2.26,7c1.41,1.63,3.65,2.44,6.72,2.45a13.5,13.5,0,0,0,4-.48,16.54,16.54,0,0,0,2.16-.82l.58,2.69a12.65,12.65,0,0,1-2.52.91,16,16,0,0,1-4.35.53,14.3,14.3,0,0,1-5.56-1,10,10,0,0,1-3.8-2.69,10.65,10.65,0,0,1-2.16-4.1A19.27,19.27,0,0,1,527.21,481.93Zm17.62-2a9.83,9.83,0,0,0-1.83-6,5.91,5.91,0,0,0-4.89-2.17,6.5,6.5,0,0,0-3,.68,7.79,7.79,0,0,0-2.31,1.8,8.58,8.58,0,0,0-1.53,2.61,10.71,10.71,0,0,0-.65,3.12Z"/><path d="M566,470.41c.92-.25,2.13-.54,3.62-.86a28,28,0,0,1,5.78-.48q4.71,0,6.82,2.73c.16-.12.47-.34.94-.64a11.79,11.79,0,0,1,1.75-.94,14.31,14.31,0,0,1,2.47-.82,13.79,13.79,0,0,1,3.14-.33,10.79,10.79,0,0,1,4.59.84,6.37,6.37,0,0,1,2.71,2.35,9.61,9.61,0,0,1,1.3,3.62,29.7,29.7,0,0,1,.33,4.61v13.87h-3.12V481.5a37.68,37.68,0,0,0-.21-4.25,8.3,8.3,0,0,0-.87-3,4.24,4.24,0,0,0-1.85-1.78,7,7,0,0,0-3.12-.6,12,12,0,0,0-2.61.26,10.87,10.87,0,0,0-2,.65,8.47,8.47,0,0,0-1.42.77c-.37.26-.63.45-.79.58A14.1,14.1,0,0,1,584,477a25.84,25.84,0,0,1,.21,3.29V494.4h-3.12V481.5a37.68,37.68,0,0,0-.21-4.25,7.89,7.89,0,0,0-.89-3,4.25,4.25,0,0,0-1.9-1.78,7.31,7.31,0,0,0-3.23-.6,24.43,24.43,0,0,0-3.82.24,9.77,9.77,0,0,0-2,.43v21.79h-3Z"/><path d="M605.88,481.93a15.74,15.74,0,0,1,.94-5.69,12.58,12.58,0,0,1,2.45-4,9.5,9.5,0,0,1,3.45-2.43,10.56,10.56,0,0,1,4-.79,9.33,9.33,0,0,1,7.27,3q2.71,3,2.71,9.17V482a2.42,2.42,0,0,1-.07.72H609.19q.15,4.56,2.26,7c1.41,1.63,3.65,2.44,6.72,2.45a13.5,13.5,0,0,0,4-.48,16.54,16.54,0,0,0,2.16-.82l.58,2.69a12.65,12.65,0,0,1-2.52.91A16,16,0,0,1,618,495a14.3,14.3,0,0,1-5.56-1,10,10,0,0,1-3.8-2.69,10.65,10.65,0,0,1-2.16-4.1A19.27,19.27,0,0,1,605.88,481.93Zm17.62-2a9.83,9.83,0,0,0-1.83-6,5.91,5.91,0,0,0-4.89-2.17,6.5,6.5,0,0,0-3,.68,7.79,7.79,0,0,0-2.31,1.8,8.58,8.58,0,0,0-1.53,2.61,10.71,10.71,0,0,0-.65,3.12Z"/><path d="M653.4,493.6a28.87,28.87,0,0,1-3.55.91,29.53,29.53,0,0,1-5.47.43,13.33,13.33,0,0,1-5-.89,10.73,10.73,0,0,1-3.84-2.57,11.92,11.92,0,0,1-2.5-4.08,15.64,15.64,0,0,1-.88-5.42,17.37,17.37,0,0,1,.74-5.21,11.84,11.84,0,0,1,2.18-4.1,10,10,0,0,1,3.53-2.69,11.24,11.24,0,0,1,4.78-1,11.81,11.81,0,0,1,4.25.69,10.71,10.71,0,0,1,2.61,1.33V457.69l3.12-.57Zm-3.12-19.54a12.66,12.66,0,0,0-1.08-.72,8.7,8.7,0,0,0-1.51-.72,12.15,12.15,0,0,0-1.87-.55,10,10,0,0,0-2.11-.22,8.2,8.2,0,0,0-3.87.82,7,7,0,0,0-2.52,2.18,9.06,9.06,0,0,0-1.39,3.22,17.1,17.1,0,0,0-.43,3.91c0,3.26.81,5.77,2.45,7.51a8.41,8.41,0,0,0,6.48,2.62,24.37,24.37,0,0,0,3.72-.22,13,13,0,0,0,2.13-.45Z"/><path d="M680.14,469a10.86,10.86,0,0,1,4.15.7,7.1,7.1,0,0,1,2.76,1.92,7.44,7.44,0,0,1,1.53,2.9,13.26,13.26,0,0,1,.48,3.65v15.65c-.31.09-.78.2-1.39.31l-2.11.36c-.8.13-1.69.23-2.66.31s-2,.12-3,.12a14.36,14.36,0,0,1-3.63-.43,8.14,8.14,0,0,1-2.88-1.37,6.59,6.59,0,0,1-1.92-2.4,8.24,8.24,0,0,1-.69-3.57,7.26,7.26,0,0,1,.76-3.46,6.61,6.61,0,0,1,2.17-2.38A9.51,9.51,0,0,1,677,480a18.88,18.88,0,0,1,4.17-.44,8.76,8.76,0,0,1,1.42.08c.5.08,1,.11,1.44.19s.86.16,1.2.24a4.33,4.33,0,0,1,.7.21V478.7a16.36,16.36,0,0,0-.2-2.52,5.32,5.32,0,0,0-.84-2.21,4.63,4.63,0,0,0-1.82-1.58,6.88,6.88,0,0,0-3.1-.61,15.57,15.57,0,0,0-4.08.39c-.89.26-1.55.46-2,.62l-.44-2.73a11,11,0,0,1,2.52-.72A21.4,21.4,0,0,1,680.14,469Zm.29,23.14a25.79,25.79,0,0,0,3.19-.12,20.38,20.38,0,0,0,2.33-.32V483a9,9,0,0,0-1.68-.5,14.05,14.05,0,0,0-3.17-.27,17.61,17.61,0,0,0-2.4.17,6.69,6.69,0,0,0-2.31.72,4.63,4.63,0,0,0-1.72,1.51,4.34,4.34,0,0,0-.68,2.55,5.28,5.28,0,0,0,.46,2.35,3.79,3.79,0,0,0,1.3,1.53,5.37,5.37,0,0,0,2,.84,12,12,0,0,0,2.68.24Z"/><path d="M700,469.55h9.89v2.64H700v13.2a13.21,13.21,0,0,0,.36,3.43,4.73,4.73,0,0,0,1,2,3.23,3.23,0,0,0,1.63,1,8.41,8.41,0,0,0,2.12.24,8.94,8.94,0,0,0,3.16-.46,12.67,12.67,0,0,0,1.88-.84l.76,2.6a12.39,12.39,0,0,1-6,1.55,10.79,10.79,0,0,1-3.86-.6,5.6,5.6,0,0,1-2.5-1.82,7.63,7.63,0,0,1-1.32-3.05,21.56,21.56,0,0,1-.38-4.32V462.25l3.12-.58Z"/><path d="M731.64,492.16a9.84,9.84,0,0,0,4.44-.89,3.1,3.1,0,0,0,1.75-3,4.28,4.28,0,0,0-.31-1.73,3.45,3.45,0,0,0-1-1.3,9.22,9.22,0,0,0-1.9-1.1c-.78-.35-1.75-.77-2.9-1.25-.93-.38-1.81-.77-2.64-1.18a10.81,10.81,0,0,1-2.21-1.39,6.25,6.25,0,0,1-1.54-1.89,5.82,5.82,0,0,1-.57-2.69,6,6,0,0,1,2.28-4.9A9.62,9.62,0,0,1,733.3,469a17.47,17.47,0,0,1,4.2.43,13.53,13.53,0,0,1,2.33.77l-.72,2.79a17,17,0,0,0-1.94-.77,12.87,12.87,0,0,0-4-.48,9.64,9.64,0,0,0-2,.21,5.24,5.24,0,0,0-1.66.68,3.51,3.51,0,0,0-1.15,1.15,3.2,3.2,0,0,0-.43,1.71,3.59,3.59,0,0,0,.38,1.73,3.86,3.86,0,0,0,1.13,1.28,9.76,9.76,0,0,0,1.82,1c.72.31,1.55.67,2.47,1s1.88.77,2.76,1.17a10.17,10.17,0,0,1,2.33,1.44,6.58,6.58,0,0,1,1.63,2,6.21,6.21,0,0,1,.63,3,5.79,5.79,0,0,1-2.52,5.09,12,12,0,0,1-6.89,1.73,17.57,17.57,0,0,1-5-.55,20.52,20.52,0,0,1-2.31-.84l.82-2.84a5.2,5.2,0,0,0,.62.32c.32.14.76.3,1.3.48a13.71,13.71,0,0,0,1.9.53A15.54,15.54,0,0,0,731.64,492.16Z"/><path d="M753.38,494.79a10.77,10.77,0,0,1-2.76-.4,4.82,4.82,0,0,1-2-1.11,4.6,4.6,0,0,1-1.2-1.92,8.71,8.71,0,0,1-.41-3V457.69l3.12-.57v31.2a6.35,6.35,0,0,0,.21,1.84,2.55,2.55,0,0,0,.65,1.11,2.69,2.69,0,0,0,1.13.6,11.89,11.89,0,0,0,1.66.33Z"/><path d="M757.85,481.93a16,16,0,0,1,.93-5.69,12.69,12.69,0,0,1,2.45-4,9.54,9.54,0,0,1,3.46-2.43,10.56,10.56,0,0,1,4-.79,9.33,9.33,0,0,1,7.27,3c1.8,2,2.71,5,2.71,9.17V482a2.13,2.13,0,0,1-.08.72H761.16a11,11,0,0,0,2.26,7c1.41,1.62,3.64,2.45,6.71,2.45a13.5,13.5,0,0,0,4-.48,16.54,16.54,0,0,0,2.16-.82l.57,2.69a12.65,12.65,0,0,1-2.52.91A16.33,16.33,0,0,1,770,495a14.35,14.35,0,0,1-5.57-1,9.79,9.79,0,0,1-3.79-2.69,10.65,10.65,0,0,1-2.16-4.1A19.26,19.26,0,0,1,757.85,481.93Zm17.61-2a9.76,9.76,0,0,0-1.82-6,5.92,5.92,0,0,0-4.9-2.17,6.5,6.5,0,0,0-3,.68,7.63,7.63,0,0,0-2.3,1.8,8.3,8.3,0,0,0-1.54,2.61,11.41,11.41,0,0,0-.65,3.12Z"/><path d="M788.57,469.55h9.89v2.64h-9.89v13.2a13.21,13.21,0,0,0,.36,3.43,4.73,4.73,0,0,0,1,2,3.23,3.23,0,0,0,1.63,1,8.33,8.33,0,0,0,2.11.24,9,9,0,0,0,3.17-.46,13,13,0,0,0,1.87-.84l.77,2.6a11.86,11.86,0,0,1-2.35,1,11.58,11.58,0,0,1-3.65.55,10.79,10.79,0,0,1-3.86-.6,5.6,5.6,0,0,1-2.5-1.82,7.63,7.63,0,0,1-1.32-3.05,20.85,20.85,0,0,1-.38-4.32V462.25l3.12-.58Z"/><path d="M807.14,469.55H817v2.64h-9.89v13.2a13.21,13.21,0,0,0,.36,3.43,4.73,4.73,0,0,0,1,2,3.3,3.3,0,0,0,1.64,1,8.33,8.33,0,0,0,2.11.24,9,9,0,0,0,3.17-.46,13,13,0,0,0,1.87-.84l.77,2.6a12,12,0,0,1-2.36,1,11.57,11.57,0,0,1-3.64.55,10.81,10.81,0,0,1-3.87-.6,5.57,5.57,0,0,1-2.49-1.82,7.3,7.3,0,0,1-1.32-3.05,20.86,20.86,0,0,1-.39-4.32V462.25l3.12-.58Z"/><path d="M821.3,481.93a15.74,15.74,0,0,1,.94-5.69,12.58,12.58,0,0,1,2.45-4,9.5,9.5,0,0,1,3.45-2.43,10.56,10.56,0,0,1,4-.79,9.33,9.33,0,0,1,7.27,3c1.81,2,2.72,5.06,2.71,9.17V482a2.42,2.42,0,0,1-.07.72H824.61q.15,4.56,2.26,7c1.41,1.63,3.65,2.44,6.72,2.45a13.5,13.5,0,0,0,4-.48,16.54,16.54,0,0,0,2.16-.82l.58,2.69a12.65,12.65,0,0,1-2.52.91,16,16,0,0,1-4.35.53,14.3,14.3,0,0,1-5.56-1,10,10,0,0,1-3.8-2.69,10.65,10.65,0,0,1-2.16-4.1A19.27,19.27,0,0,1,821.3,481.93Zm17.62-2a9.83,9.83,0,0,0-1.83-6,5.91,5.91,0,0,0-4.89-2.17,6.5,6.5,0,0,0-3,.68,7.79,7.79,0,0,0-2.31,1.8,8.58,8.58,0,0,0-1.53,2.61,10.71,10.71,0,0,0-.65,3.12Z"/><path d="M863.16,471a10.71,10.71,0,0,1,2.61-1.33A11.94,11.94,0,0,1,870,469a11.24,11.24,0,0,1,4.78,1,10,10,0,0,1,3.53,2.69,11.84,11.84,0,0,1,2.18,4.1,17.37,17.37,0,0,1,.74,5.21,15.64,15.64,0,0,1-.88,5.42,11.92,11.92,0,0,1-2.5,4.08,10.73,10.73,0,0,1-3.84,2.57,13.33,13.33,0,0,1-5,.89,29.53,29.53,0,0,1-5.47-.43,28.87,28.87,0,0,1-3.55-.91V457.69l3.12-.57Zm0,20.4a13,13,0,0,0,2.13.45,24.37,24.37,0,0,0,3.72.22,8.41,8.41,0,0,0,6.48-2.62c1.64-1.74,2.45-4.25,2.45-7.51a17.1,17.1,0,0,0-.43-3.91,9.06,9.06,0,0,0-1.39-3.22,7,7,0,0,0-2.52-2.18,8.2,8.2,0,0,0-3.87-.82,10,10,0,0,0-2.11.22,12.15,12.15,0,0,0-1.87.55,8.7,8.7,0,0,0-1.51.72,12.66,12.66,0,0,0-1.08.72Z"/><path d="M891.86,462.06a2.29,2.29,0,0,1-.67,1.75,2.36,2.36,0,0,1-3.26,0,2.58,2.58,0,0,1,0-3.5,2.36,2.36,0,0,1,3.26,0A2.29,2.29,0,0,1,891.86,462.06Zm-.72,32.3H888V469.55h3.12Z"/><path d="M905.69,494.79a10.35,10.35,0,0,1-2.76-.4,4.93,4.93,0,0,1-2-1.11,4.6,4.6,0,0,1-1.2-1.92,9.22,9.22,0,0,1-.41-3V457.69l3.12-.57v31.2a6,6,0,0,0,.22,1.84,2.44,2.44,0,0,0,.64,1.11,2.69,2.69,0,0,0,1.13.6,11.89,11.89,0,0,0,1.66.33Z"/><path d="M917.92,494.79a10.22,10.22,0,0,1-2.75-.4,4.71,4.71,0,0,1-2-1.11,4.6,4.6,0,0,1-1.2-1.92,8.71,8.71,0,0,1-.41-3V457.69l3.12-.57v31.2a6.35,6.35,0,0,0,.21,1.84,2.55,2.55,0,0,0,.65,1.11,2.69,2.69,0,0,0,1.13.6,11.89,11.89,0,0,0,1.66.33Z"/><path d="M922.39,481.93a16,16,0,0,1,.93-5.69,12.69,12.69,0,0,1,2.45-4,9.54,9.54,0,0,1,3.46-2.43,10.56,10.56,0,0,1,4-.79,9.33,9.33,0,0,1,7.27,3c1.81,2,2.72,5.06,2.71,9.17V482a5.87,5.87,0,0,1-.08.72H925.7q.15,4.56,2.26,7c1.41,1.63,3.65,2.44,6.72,2.45a13.5,13.5,0,0,0,4-.48,16.54,16.54,0,0,0,2.16-.82l.57,2.69a12.43,12.43,0,0,1-2.52.91,16.33,16.33,0,0,1-4.34.53,14.35,14.35,0,0,1-5.57-1,9.89,9.89,0,0,1-3.79-2.69,10.65,10.65,0,0,1-2.16-4.1A18.88,18.88,0,0,1,922.39,481.93ZM940,480a9.76,9.76,0,0,0-1.82-6,5.92,5.92,0,0,0-4.9-2.17,6.5,6.5,0,0,0-3,.68,7.88,7.88,0,0,0-2.3,1.8,8.3,8.3,0,0,0-1.54,2.61,11,11,0,0,0-.64,3.12Z"/><path d="M969.91,493.6a28.87,28.87,0,0,1-3.55.91,29.57,29.57,0,0,1-5.48.43,13.33,13.33,0,0,1-5-.89,10.73,10.73,0,0,1-3.84-2.57,11.54,11.54,0,0,1-2.5-4.08,15.38,15.38,0,0,1-.89-5.42,17.38,17.38,0,0,1,.75-5.21,11.84,11.84,0,0,1,2.18-4.1,10,10,0,0,1,3.53-2.69,11.23,11.23,0,0,1,4.77-1,11.81,11.81,0,0,1,4.25.69,11.14,11.14,0,0,1,2.62,1.33V457.69l3.12-.57Zm-3.12-19.54a12.66,12.66,0,0,0-1.08-.72,10.45,10.45,0,0,0-1.51-.72,12.27,12.27,0,0,0-1.88-.55,10,10,0,0,0-2.11-.22,8.19,8.19,0,0,0-3.86.82,7,7,0,0,0-2.52,2.18,9.06,9.06,0,0,0-1.39,3.22A16.8,16.8,0,0,0,952,482c0,3.26.82,5.77,2.45,7.51a8.41,8.41,0,0,0,6.48,2.62,24.37,24.37,0,0,0,3.72-.22,13.14,13.14,0,0,0,2.14-.45Z"/><path d="M976.67,481.93a15.74,15.74,0,0,1,.94-5.69,12.69,12.69,0,0,1,2.45-4,9.54,9.54,0,0,1,3.46-2.43,10.56,10.56,0,0,1,4-.79,9.33,9.33,0,0,1,7.27,3q2.72,3,2.72,9.17V482a2.42,2.42,0,0,1-.07.72H980q.13,4.56,2.25,7c1.41,1.63,3.65,2.44,6.72,2.45a13.5,13.5,0,0,0,4-.48,16.54,16.54,0,0,0,2.16-.82l.57,2.69a12.65,12.65,0,0,1-2.52.91,16.33,16.33,0,0,1-4.34.53,14.35,14.35,0,0,1-5.57-1,9.79,9.79,0,0,1-3.79-2.69,10.39,10.39,0,0,1-2.16-4.1A18.8,18.8,0,0,1,976.67,481.93Zm17.62-2a9.76,9.76,0,0,0-1.82-6,5.92,5.92,0,0,0-4.9-2.17,6.5,6.5,0,0,0-3,.68,7.63,7.63,0,0,0-2.3,1.8,8.3,8.3,0,0,0-1.54,2.61,10.71,10.71,0,0,0-.65,3.12Z"/><path d="M1012.92,469.07a17.64,17.64,0,0,1,2.9.24,8.74,8.74,0,0,1,1.89.48l-.62,2.69a6.53,6.53,0,0,0-1.56-.41,16.9,16.9,0,0,0-3.1-.22,14.6,14.6,0,0,0-3.23.29,9,9,0,0,0-1.61.48v21.74h-3.12V470.7a24.14,24.14,0,0,1,3.31-1.08A20.66,20.66,0,0,1,1012.92,469.07Z"/><path d="M1040.9,469a10.86,10.86,0,0,1,4.15.7,7.1,7.1,0,0,1,2.76,1.92,7.46,7.46,0,0,1,1.54,2.9,13.26,13.26,0,0,1,.48,3.65v15.65c-.32.09-.79.2-1.4.31l-2.11.36c-.8.13-1.69.23-2.66.31s-2,.12-3,.12a14.36,14.36,0,0,1-3.63-.43,8.14,8.14,0,0,1-2.88-1.37,6.59,6.59,0,0,1-1.92-2.4,8.24,8.24,0,0,1-.69-3.57,7.16,7.16,0,0,1,.77-3.46,6.5,6.5,0,0,1,2.16-2.38,9.51,9.51,0,0,1,3.31-1.36,18.88,18.88,0,0,1,4.17-.44,8.76,8.76,0,0,1,1.42.08c.5.08,1,.11,1.44.19s.86.16,1.2.24a4.33,4.33,0,0,1,.7.21V478.7a16.36,16.36,0,0,0-.2-2.52,5.32,5.32,0,0,0-.84-2.21,4.63,4.63,0,0,0-1.82-1.58,6.88,6.88,0,0,0-3.1-.61,15.57,15.57,0,0,0-4.08.39c-.89.26-1.55.46-2,.62l-.44-2.73a11.15,11.15,0,0,1,2.52-.72A21.4,21.4,0,0,1,1040.9,469Zm.29,23.14a25.79,25.79,0,0,0,3.19-.12,20.38,20.38,0,0,0,2.33-.32V483a9,9,0,0,0-1.68-.5,14.05,14.05,0,0,0-3.17-.27,17.61,17.61,0,0,0-2.4.17,6.91,6.91,0,0,0-2.31.72,4.63,4.63,0,0,0-1.72,1.51,4.34,4.34,0,0,0-.68,2.55,5.57,5.57,0,0,0,.46,2.35,3.71,3.71,0,0,0,1.3,1.53,5.53,5.53,0,0,0,2,.84,12,12,0,0,0,2.68.24Z"/><path d="M1066.91,457.12a14,14,0,0,1,3.29.31,7,7,0,0,1,1.66.55l-.63,2.69a9.86,9.86,0,0,0-4.17-.77q-3.32,0-4.73,1.68c-.94,1.12-1.42,2.91-1.42,5.38v2.59h10v2.64h-10v22.17h-3.12v-27.5c0-3.23.75-5.67,2.24-7.3S1063.81,457.12,1066.91,457.12Z"/><path d="M1106.51,493.6a28.87,28.87,0,0,1-3.55.91,29.53,29.53,0,0,1-5.47.43,13.53,13.53,0,0,1-5-.89,10.73,10.73,0,0,1-3.84-2.57,11.66,11.66,0,0,1-2.49-4.08,15.38,15.38,0,0,1-.89-5.42,17.37,17.37,0,0,1,.74-5.21,11.86,11.86,0,0,1,2.19-4.1,10,10,0,0,1,3.52-2.69,11.24,11.24,0,0,1,4.78-1,11.81,11.81,0,0,1,4.25.69,10.71,10.71,0,0,1,2.61,1.33V457.69l3.12-.57Zm-3.12-19.54a10.13,10.13,0,0,0-1.08-.72,8.7,8.7,0,0,0-1.51-.72,12.15,12.15,0,0,0-1.87-.55,10,10,0,0,0-2.11-.22,8.2,8.2,0,0,0-3.87.82,7,7,0,0,0-2.52,2.18,9.24,9.24,0,0,0-1.39,3.22,17.1,17.1,0,0,0-.43,3.91c0,3.26.82,5.77,2.45,7.51a8.41,8.41,0,0,0,6.48,2.62,24.37,24.37,0,0,0,3.72-.22,13,13,0,0,0,2.13-.45Z"/><path d="M1118.61,462.06a2.29,2.29,0,0,1-.67,1.75,2.25,2.25,0,0,1-1.63.65,2.29,2.29,0,0,1-1.64-.65,2.63,2.63,0,0,1,0-3.5,2.29,2.29,0,0,1,1.64-.65,2.25,2.25,0,0,1,1.63.65A2.29,2.29,0,0,1,1118.61,462.06Zm-.72,32.3h-3.12V469.55h3.12Z"/><path d="M1126.15,470.41c.92-.25,2.17-.54,3.74-.86a29.29,29.29,0,0,1,5.76-.48,12.12,12.12,0,0,1,4.73.81,7.3,7.3,0,0,1,3,2.33,9.61,9.61,0,0,1,1.61,3.62,21.43,21.43,0,0,1,.48,4.66v13.87h-3.12V481.5a23.42,23.42,0,0,0-.35-4.5,7.55,7.55,0,0,0-1.2-3,4.68,4.68,0,0,0-2.21-1.66,10.26,10.26,0,0,0-3.43-.5,27.12,27.12,0,0,0-3.82.24,11.3,11.3,0,0,0-2.08.43V494.3h-3.12Z"/><path d="M1152,481.93a15.74,15.74,0,0,1,.94-5.69,12.37,12.37,0,0,1,2.44-4,9.54,9.54,0,0,1,3.46-2.43,10.56,10.56,0,0,1,4-.79,9.33,9.33,0,0,1,7.27,3c1.81,2,2.72,5.06,2.71,9.17V482a2.42,2.42,0,0,1-.07.72h-17.43q.15,4.56,2.26,7c1.41,1.63,3.65,2.44,6.72,2.45a13.5,13.5,0,0,0,4-.48,16.54,16.54,0,0,0,2.16-.82l.58,2.69a12.74,12.74,0,0,1-2.53.91,16.33,16.33,0,0,1-4.34.53,14.35,14.35,0,0,1-5.57-1,9.89,9.89,0,0,1-3.79-2.69,10.65,10.65,0,0,1-2.16-4.1A18.8,18.8,0,0,1,1152,481.93Zm17.61-2a9.76,9.76,0,0,0-1.82-6,5.91,5.91,0,0,0-4.89-2.17,6.5,6.5,0,0,0-3,.68,7.79,7.79,0,0,0-2.31,1.8,8.27,8.27,0,0,0-1.53,2.61,10.71,10.71,0,0,0-.65,3.12Z"/><path d="M1198.22,491c.67-1.37,1.36-3,2.07-4.72s1.38-3.62,2-5.53,1.27-3.82,1.83-5.75,1-3.76,1.42-5.45h3.12q-.87,3.4-1.93,6.72c-.71,2.21-1.45,4.37-2.24,6.48s-1.61,4.14-2.47,6.09-1.69,3.79-2.48,5.52h-2.91q-1.26-2.58-2.52-5.52c-.83-2-1.65-4-2.44-6.09s-1.53-4.27-2.24-6.48-1.35-4.45-1.93-6.72h3.31c.38,1.69.86,3.51,1.42,5.45s1.17,3.85,1.83,5.75,1.34,3.75,2,5.53S1197.54,489.63,1198.22,491Z"/><path d="M1212.26,481.93a16,16,0,0,1,.93-5.69,12.69,12.69,0,0,1,2.45-4,9.54,9.54,0,0,1,3.46-2.43,10.56,10.56,0,0,1,4-.79,9.37,9.37,0,0,1,7.28,3c1.8,2,2.71,5,2.71,9.17V482a2.42,2.42,0,0,1-.07.72H1215.6a11,11,0,0,0,2.25,7q2.12,2.44,6.72,2.45a13.5,13.5,0,0,0,4-.48,16.54,16.54,0,0,0,2.16-.82l.57,2.69a12.65,12.65,0,0,1-2.52.91,16.33,16.33,0,0,1-4.34.53,14.35,14.35,0,0,1-5.57-1,9.79,9.79,0,0,1-3.79-2.69,10.65,10.65,0,0,1-2.16-4.1A19.19,19.19,0,0,1,1212.26,481.93Zm17.61-2a9.76,9.76,0,0,0-1.82-6,5.92,5.92,0,0,0-4.9-2.17,6.5,6.5,0,0,0-3,.68,7.63,7.63,0,0,0-2.3,1.8,8.3,8.3,0,0,0-1.54,2.61,10.71,10.71,0,0,0-.65,3.12Z"/><path d="M1240.05,470.41c.93-.25,2.17-.54,3.74-.86a29.29,29.29,0,0,1,5.76-.48,12.12,12.12,0,0,1,4.73.81,7.3,7.3,0,0,1,3,2.33,9.31,9.31,0,0,1,1.61,3.62,21.43,21.43,0,0,1,.48,4.66v13.87h-3.12V481.5a23.83,23.83,0,0,0-.36-4.46,7.55,7.55,0,0,0-1.2-3,4.68,4.68,0,0,0-2.21-1.66,10.26,10.26,0,0,0-3.43-.5,27,27,0,0,0-3.81.24,11.4,11.4,0,0,0-2.09.43v21.79H1240Z"/><path d="M1267.36,470.41c.93-.25,2.18-.54,3.74-.86a29.29,29.29,0,0,1,5.76-.48,12.15,12.15,0,0,1,4.73.81,7.3,7.3,0,0,1,3,2.33,9.66,9.66,0,0,1,1.6,3.62,21.43,21.43,0,0,1,.48,4.66v13.87h-3.12V481.5a23.83,23.83,0,0,0-.36-4.46,7.55,7.55,0,0,0-1.2-3,4.71,4.71,0,0,0-2.2-1.66,10.28,10.28,0,0,0-3.44-.5,27,27,0,0,0-3.81.24,11.4,11.4,0,0,0-2.09.43v21.79h-3.12Z"/><path d="M1293.18,481.93a15.74,15.74,0,0,1,.94-5.69,12.58,12.58,0,0,1,2.45-4,9.84,9.84,0,0,1,3.45-2.43,10.56,10.56,0,0,1,4-.79,9.33,9.33,0,0,1,7.27,3q2.71,3,2.71,9.17V482a2.42,2.42,0,0,1-.07.72H1296.5q.13,4.56,2.25,7c1.41,1.63,3.65,2.44,6.72,2.45a13.5,13.5,0,0,0,4-.48,16.54,16.54,0,0,0,2.16-.82l.58,2.69a12.65,12.65,0,0,1-2.52.91,16.33,16.33,0,0,1-4.34.53,14.35,14.35,0,0,1-5.57-1,10,10,0,0,1-3.8-2.69,10.65,10.65,0,0,1-2.16-4.1A19.27,19.27,0,0,1,1293.18,481.93Zm17.62-2a9.83,9.83,0,0,0-1.83-6,5.91,5.91,0,0,0-4.89-2.17,6.5,6.5,0,0,0-3,.68,7.63,7.63,0,0,0-2.3,1.8,8.3,8.3,0,0,0-1.54,2.61,10.71,10.71,0,0,0-.65,3.12Z"/><path d="M1329.42,469.07a17.67,17.67,0,0,1,2.91.24,8.74,8.74,0,0,1,1.89.48l-.62,2.69a6.53,6.53,0,0,0-1.56-.41,16.9,16.9,0,0,0-3.1-.22,14.69,14.69,0,0,0-3.24.29,9,9,0,0,0-1.61.48v21.74H1321V470.7a24.27,24.27,0,0,1,3.32-1.08A20.34,20.34,0,0,1,1329.42,469.07Z"/><path d="M1359,457.12a14,14,0,0,1,3.29.31,6.81,6.81,0,0,1,1.65.55l-.62,2.69a9.87,9.87,0,0,0-4.18-.77c-2.2,0-3.78.56-4.72,1.68S1353,464.49,1353,467v2.59h10v2.64h-10V494.4h-3.12V466.9c0-3.23.74-5.67,2.23-7.3S1355.89,457.14,1359,457.12Z"/><path d="M1389.09,482a16.11,16.11,0,0,1-.84,5.33,12,12,0,0,1-2.36,4.08,10.6,10.6,0,0,1-3.57,2.61,11.56,11.56,0,0,1-9.12,0,10.74,10.74,0,0,1-3.58-2.61,11.82,11.82,0,0,1-2.35-4.08,17.33,17.33,0,0,1,0-10.66,11.91,11.91,0,0,1,2.35-4.1,10.36,10.36,0,0,1,3.58-2.64,11.56,11.56,0,0,1,9.12,0,10.32,10.32,0,0,1,3.57,2.64,12.1,12.1,0,0,1,2.36,4.1A16.11,16.11,0,0,1,1389.09,482Zm-3.32,0a11.7,11.7,0,0,0-2.16-7.42,7.6,7.6,0,0,0-10.68-1,7.71,7.71,0,0,0-1,1,13.77,13.77,0,0,0,0,14.81,7.64,7.64,0,0,0,10.75,1,7.26,7.26,0,0,0,1-1A11.62,11.62,0,0,0,1385.77,482Z"/><path d="M1404.3,469.07a17.67,17.67,0,0,1,2.91.24,8.74,8.74,0,0,1,1.89.48l-.62,2.69a6.53,6.53,0,0,0-1.56-.41,16.9,16.9,0,0,0-3.1-.22,14.69,14.69,0,0,0-3.24.29,9,9,0,0,0-1.61.48v21.74h-3.12V470.7a24.27,24.27,0,0,1,3.32-1.08A20.58,20.58,0,0,1,1404.3,469.07Z"/><path d="M1433.53,493.6a28.87,28.87,0,0,1-3.55.91,29.53,29.53,0,0,1-5.47.43,13.53,13.53,0,0,1-5-.89,10.73,10.73,0,0,1-3.84-2.57,11.66,11.66,0,0,1-2.49-4.08,15.38,15.38,0,0,1-.89-5.42,17.37,17.37,0,0,1,.74-5.21,11.86,11.86,0,0,1,2.19-4.1,10,10,0,0,1,3.52-2.69,11.24,11.24,0,0,1,4.78-1,11.81,11.81,0,0,1,4.25.69,10.71,10.71,0,0,1,2.61,1.33V457.69l3.12-.57Zm-3.12-19.54a10.13,10.13,0,0,0-1.08-.72,8.7,8.7,0,0,0-1.51-.72,12.15,12.15,0,0,0-1.87-.55,10,10,0,0,0-2.11-.22,8.2,8.2,0,0,0-3.87.82,7,7,0,0,0-2.52,2.18,9.24,9.24,0,0,0-1.39,3.22,17.1,17.1,0,0,0-.43,3.91c0,3.26.82,5.77,2.45,7.51a8.41,8.41,0,0,0,6.48,2.62,24.37,24.37,0,0,0,3.72-.22,13,13,0,0,0,2.13-.45Z"/><path d="M1445.63,462.06a2.33,2.33,0,0,1-2.26,2.4,2.36,2.36,0,0,1-1.68-.65,2.63,2.63,0,0,1,0-3.5,2.31,2.31,0,0,1,3.94,1.75Zm-.72,32.3h-3.12V469.55h3.12Z"/><path d="M1469.2,492.16a9.84,9.84,0,0,0,4.44-.89,3.11,3.11,0,0,0,1.75-3,4.45,4.45,0,0,0-.31-1.73,3.55,3.55,0,0,0-1-1.3,9.15,9.15,0,0,0-1.89-1.1c-.79-.35-1.75-.77-2.91-1.25-.92-.38-1.8-.77-2.64-1.18a10.48,10.48,0,0,1-2.2-1.39,6,6,0,0,1-1.54-1.89,5.83,5.83,0,0,1-.58-2.69,6,6,0,0,1,2.28-4.9,9.66,9.66,0,0,1,6.27-1.87,17.47,17.47,0,0,1,4.2.43,14.45,14.45,0,0,1,2.33.77l-.72,2.79a17.94,17.94,0,0,0-2-.77,12.87,12.87,0,0,0-4-.48,9.64,9.64,0,0,0-2,.21,5.28,5.28,0,0,0-1.65.68,3.54,3.54,0,0,0-1.16,1.15,3.2,3.2,0,0,0-.43,1.71,3.57,3.57,0,0,0,.39,1.73,3.93,3.93,0,0,0,1.12,1.28,10.46,10.46,0,0,0,1.83,1c.72.31,1.54.67,2.47,1s1.88.77,2.76,1.17a10.17,10.17,0,0,1,2.33,1.44,6.83,6.83,0,0,1,1.63,2,6.21,6.21,0,0,1,.62,3,5.79,5.79,0,0,1-2.52,5.09,12,12,0,0,1-6.88,1.73,17.57,17.57,0,0,1-5-.55,19.19,19.19,0,0,1-2.3-.84l.82-2.84a4.54,4.54,0,0,0,.62.32c.32.14.75.3,1.3.48a12.71,12.71,0,0,0,1.94.45A15.5,15.5,0,0,0,1469.2,492.16Z"/><path d="M1492.19,469a10.86,10.86,0,0,1,4.15.7,7.1,7.1,0,0,1,2.76,1.92,7.46,7.46,0,0,1,1.54,2.9,13.26,13.26,0,0,1,.48,3.65v15.65c-.32.09-.79.2-1.4.31l-2.11.36c-.8.13-1.69.23-2.66.31s-2,.12-3,.12a14.36,14.36,0,0,1-3.63-.43,8.14,8.14,0,0,1-2.88-1.37,6.59,6.59,0,0,1-1.92-2.4,8.24,8.24,0,0,1-.69-3.57,7.16,7.16,0,0,1,.77-3.46,6.5,6.5,0,0,1,2.16-2.38,9.51,9.51,0,0,1,3.31-1.36,18.88,18.88,0,0,1,4.17-.44,8.76,8.76,0,0,1,1.42.08c.5.08,1,.11,1.44.19s.86.16,1.2.24a4.33,4.33,0,0,1,.7.21V478.7a16.36,16.36,0,0,0-.2-2.52A5.32,5.32,0,0,0,1497,474a4.63,4.63,0,0,0-1.82-1.58,6.88,6.88,0,0,0-3.1-.61,15.57,15.57,0,0,0-4.08.39c-.89.26-1.55.46-2,.62l-.44-2.73a11.15,11.15,0,0,1,2.52-.72A21.4,21.4,0,0,1,1492.19,469Zm.29,23.14a25.79,25.79,0,0,0,3.19-.12,20.38,20.38,0,0,0,2.33-.32V483a9,9,0,0,0-1.68-.5,14.05,14.05,0,0,0-3.17-.27,17.61,17.61,0,0,0-2.4.17,6.91,6.91,0,0,0-2.31.72,4.63,4.63,0,0,0-1.72,1.51,4.34,4.34,0,0,0-.68,2.55,5.57,5.57,0,0,0,.46,2.35,3.71,3.71,0,0,0,1.3,1.53,5.53,5.53,0,0,0,2,.84,12,12,0,0,0,2.68.24Zm5.13-30.19a4.71,4.71,0,0,1-.36,1.89,4.34,4.34,0,0,1-1,1.44,4.85,4.85,0,0,1-1.47.94,4.77,4.77,0,0,1-1.75.33,4.63,4.63,0,0,1-3.24-1.24,4.38,4.38,0,0,1-1.37-3.36,4.29,4.29,0,0,1,1.37-3.32,4.63,4.63,0,0,1,3.24-1.24,4.77,4.77,0,0,1,1.75.33,4.85,4.85,0,0,1,1.47.94,4.34,4.34,0,0,1,1,1.44,4.76,4.76,0,0,1,.36,1.82Zm-1.82,0a2.64,2.64,0,0,0-2.43-2.83h-.31a3,3,0,0,0-2.72,3.16,2.92,2.92,0,0,0,.78,1.79,3,3,0,0,0,3.89,0,2.75,2.75,0,0,0,.79-2.14Z"/><path d="M1520,470.41c.93-.25,2.13-.54,3.62-.86a28.13,28.13,0,0,1,5.79-.48q4.69,0,6.81,2.73c.16-.12.47-.34.94-.64a12.8,12.8,0,0,1,1.75-.94,13.29,13.29,0,0,1,5.62-1.15,10.75,10.75,0,0,1,4.58.84,6.37,6.37,0,0,1,2.71,2.35,9.61,9.61,0,0,1,1.3,3.62,29.7,29.7,0,0,1,.33,4.61v13.87h-3.12V481.5a37.68,37.68,0,0,0-.21-4.25,8,8,0,0,0-.87-3,4.17,4.17,0,0,0-1.84-1.78,7,7,0,0,0-3.12-.6,12.13,12.13,0,0,0-2.62.26,13,13,0,0,0-2,.65,8.47,8.47,0,0,0-1.42.77c-.36.26-.63.45-.79.58a14.22,14.22,0,0,1,.65,2.8,24.14,24.14,0,0,1,.22,3.29v14.11h-3.12V481.5a37.69,37.69,0,0,0-.22-4.25,7.72,7.72,0,0,0-.89-3,4.34,4.34,0,0,0-1.89-1.78,7.5,7.5,0,0,0-3.24-.6,24.43,24.43,0,0,0-3.82.24,9.77,9.77,0,0,0-2,.43v21.79H1520Z"/><path d="M1565.29,462.06a2.29,2.29,0,0,1-.67,1.75,2.36,2.36,0,0,1-3.26,0,2.58,2.58,0,0,1,0-3.5,2.36,2.36,0,0,1,3.26,0A2.29,2.29,0,0,1,1565.29,462.06Zm-.72,32.3h-3.12V469.55h3.12Z"/><path d="M1577.92,492.16a9.84,9.84,0,0,0,4.44-.89,3.11,3.11,0,0,0,1.75-3,4.45,4.45,0,0,0-.31-1.73,3.55,3.55,0,0,0-1-1.3,9.15,9.15,0,0,0-1.89-1.1c-.79-.35-1.75-.77-2.91-1.25-.92-.38-1.8-.77-2.64-1.18a10.48,10.48,0,0,1-2.2-1.39,6.21,6.21,0,0,1,.16-9.48,9.66,9.66,0,0,1,6.27-1.87,17.47,17.47,0,0,1,4.2.43,14.45,14.45,0,0,1,2.33.77l-.72,2.79a19.26,19.26,0,0,0-2-.77,12.87,12.87,0,0,0-4-.48,9.64,9.64,0,0,0-2,.21,5.28,5.28,0,0,0-1.65.68,3.54,3.54,0,0,0-1.16,1.15,3.2,3.2,0,0,0-.43,1.71,3.57,3.57,0,0,0,.39,1.73,3.93,3.93,0,0,0,1.12,1.28,10.46,10.46,0,0,0,1.83,1c.72.31,1.54.67,2.47,1s1.88.77,2.76,1.17a10.17,10.17,0,0,1,2.33,1.44,6.83,6.83,0,0,1,1.63,2,6.21,6.21,0,0,1,.62,3,5.79,5.79,0,0,1-2.52,5.09,12,12,0,0,1-6.88,1.73,17.57,17.57,0,0,1-5-.55,19.19,19.19,0,0,1-2.3-.84l.82-2.84a4.54,4.54,0,0,0,.62.32c.32.14.75.3,1.3.48a12.71,12.71,0,0,0,1.94.45A15.87,15.87,0,0,0,1577.92,492.16Z"/><path d="M1596.3,469.55h9.89v2.64h-9.89v13.2a13.21,13.21,0,0,0,.36,3.43,4.73,4.73,0,0,0,1,2,3.23,3.23,0,0,0,1.63,1,8.41,8.41,0,0,0,2.12.24,8.94,8.94,0,0,0,3.16-.46,12.67,12.67,0,0,0,1.88-.84l.76,2.6a12.39,12.39,0,0,1-6,1.55,10.79,10.79,0,0,1-3.86-.6,5.6,5.6,0,0,1-2.5-1.82,7.63,7.63,0,0,1-1.32-3.05,21.56,21.56,0,0,1-.38-4.32V462.25l3.12-.58Z"/><path d="M1610.46,481.93a15.74,15.74,0,0,1,.94-5.69,12.66,12.66,0,0,1,2.44-4,9.54,9.54,0,0,1,3.46-2.43,10.56,10.56,0,0,1,4-.79,9.33,9.33,0,0,1,7.27,3c1.81,2,2.72,5.06,2.71,9.17V482a2.42,2.42,0,0,1-.07.72h-17.43q.15,4.56,2.26,7c1.41,1.63,3.65,2.44,6.72,2.45a13.5,13.5,0,0,0,4-.48,16.54,16.54,0,0,0,2.16-.82l.58,2.69a12.65,12.65,0,0,1-2.52.91,16,16,0,0,1-4.35.53,14.35,14.35,0,0,1-5.57-1,9.89,9.89,0,0,1-3.79-2.69,10.65,10.65,0,0,1-2.16-4.1A18.8,18.8,0,0,1,1610.46,481.93Zm17.62-2a9.9,9.9,0,0,0-1.83-6,5.91,5.91,0,0,0-4.89-2.17,6.5,6.5,0,0,0-3,.68,7.79,7.79,0,0,0-2.31,1.8,8.27,8.27,0,0,0-1.53,2.61,10.71,10.71,0,0,0-.65,3.12Z"/><path d="M1646.7,469.07a17.64,17.64,0,0,1,2.9.24,8.82,8.82,0,0,1,1.9.48l-.62,2.69a6.53,6.53,0,0,0-1.56-.41,16.9,16.9,0,0,0-3.1-.22,14.69,14.69,0,0,0-3.24.29,9,9,0,0,0-1.61.48v21.74h-3.12V470.7a24.14,24.14,0,0,1,3.31-1.08A20.66,20.66,0,0,1,1646.7,469.07Z"/><path d="M710,551.2a28.87,28.87,0,0,1-3.55.91,29.53,29.53,0,0,1-5.47.43,13.33,13.33,0,0,1-5-.89,10.73,10.73,0,0,1-3.84-2.57,11.92,11.92,0,0,1-2.5-4.08,15.64,15.64,0,0,1-.88-5.42,17.37,17.37,0,0,1,.74-5.21,11.84,11.84,0,0,1,2.18-4.1,10,10,0,0,1,3.53-2.69,11.24,11.24,0,0,1,4.78-1,11.81,11.81,0,0,1,4.25.69,11.64,11.64,0,0,1,2.61,1.32v-13.3l3.12-.58Zm-3.12-19.54a12.66,12.66,0,0,0-1.08-.72,9.49,9.49,0,0,0-1.51-.72,12.15,12.15,0,0,0-1.87-.55,10,10,0,0,0-2.11-.22,8.2,8.2,0,0,0-3.87.82,7,7,0,0,0-2.52,2.18,9.06,9.06,0,0,0-1.39,3.22,17.1,17.1,0,0,0-.43,3.91c0,3.26.81,5.77,2.45,7.51a8.45,8.45,0,0,0,6.48,2.62,27.21,27.21,0,0,0,3.72-.22,13,13,0,0,0,2.13-.45Z"/><path d="M737.35,551.1c-.92.26-2.17.54-3.74.86a29.29,29.29,0,0,1-5.76.48,11.78,11.78,0,0,1-4.66-.81,7.66,7.66,0,0,1-3-2.31,9.47,9.47,0,0,1-1.66-3.6,20.83,20.83,0,0,1-.5-4.65V527.15h3.12v12.91a23,23,0,0,0,.38,4.46,7.3,7.3,0,0,0,1.25,3,4.87,4.87,0,0,0,2.23,1.64,9.75,9.75,0,0,0,3.34.5,27.41,27.41,0,0,0,3.84-.24,9.68,9.68,0,0,0,2.06-.43V527.15h3.12Z"/><path d="M764.06,548.6c.68-1.37,1.37-3,2.07-4.72s1.39-3.62,2-5.53,1.27-3.82,1.83-5.76,1-3.75,1.42-5.44h3.12q-.87,3.4-1.93,6.72c-.71,2.21-1.45,4.37-2.24,6.48s-1.61,4.14-2.47,6.09L765.42,552h-2.9q-1.26-2.58-2.52-5.52c-.83-2-1.65-4-2.44-6.09s-1.53-4.27-2.24-6.48-1.36-4.45-1.93-6.72h3.31c.38,1.69.86,3.51,1.42,5.44s1.17,3.86,1.83,5.76,1.34,3.75,2,5.53A49.34,49.34,0,0,0,764.06,548.6Z"/><path d="M778.1,539.53a15.74,15.74,0,0,1,.94-5.69,12.63,12.63,0,0,1,2.45-4.05,9.54,9.54,0,0,1,3.46-2.43,10.56,10.56,0,0,1,4-.79,9.33,9.33,0,0,1,7.27,3c1.81,2,2.72,5,2.72,9.16v.77a2.42,2.42,0,0,1-.07.72H781.42q.14,4.56,2.25,7c1.41,1.63,3.65,2.44,6.72,2.45a13.5,13.5,0,0,0,4-.48,15.23,15.23,0,0,0,2.16-.82l.58,2.69a12.65,12.65,0,0,1-2.52.91,16.33,16.33,0,0,1-4.34.53,14.35,14.35,0,0,1-5.57-1,9.79,9.79,0,0,1-3.79-2.69,10.39,10.39,0,0,1-2.16-4.1A19.26,19.26,0,0,1,778.1,539.53Zm17.62-2a9.91,9.91,0,0,0-1.82-6,6,6,0,0,0-4.9-2.16,6.5,6.5,0,0,0-3,.68,7.63,7.63,0,0,0-2.3,1.8,8.3,8.3,0,0,0-1.54,2.61,10.71,10.71,0,0,0-.65,3.12Z"/><path d="M805.9,528c.92-.26,2.17-.54,3.74-.86a29.29,29.29,0,0,1,5.76-.48,12.15,12.15,0,0,1,4.73.81,7.3,7.3,0,0,1,3,2.33,9.61,9.61,0,0,1,1.61,3.62,21.43,21.43,0,0,1,.48,4.66V552H822.1V539.1a23.93,23.93,0,0,0-.36-4.47,7.55,7.55,0,0,0-1.2-3,4.68,4.68,0,0,0-2.21-1.66,10.26,10.26,0,0,0-3.43-.5,27.12,27.12,0,0,0-3.82.24,11.3,11.3,0,0,0-2.08.43V552h-3.1Z"/><path d="M833.21,528c.93-.26,2.17-.54,3.74-.86a29.29,29.29,0,0,1,5.76-.48,12.12,12.12,0,0,1,4.73.81,7.3,7.3,0,0,1,3,2.33,9.31,9.31,0,0,1,1.61,3.62,21.43,21.43,0,0,1,.48,4.66V552h-3.12V539.1a23.93,23.93,0,0,0-.36-4.47,7.55,7.55,0,0,0-1.2-3,4.68,4.68,0,0,0-2.21-1.66,10.26,10.26,0,0,0-3.43-.5,27,27,0,0,0-3.81.24,11.4,11.4,0,0,0-2.09.43V552h-3.12Z"/><path d="M859,539.53a15.74,15.74,0,0,1,.94-5.69,12.45,12.45,0,0,1,2.45-4.05,9.5,9.5,0,0,1,3.45-2.43,10.56,10.56,0,0,1,4-.79,9.33,9.33,0,0,1,7.27,3c1.81,2,2.71,5,2.71,9.16v.77a2.42,2.42,0,0,1-.07.72H862.34q.15,4.56,2.26,7c1.41,1.63,3.65,2.44,6.72,2.45a13.5,13.5,0,0,0,4-.48,16.54,16.54,0,0,0,2.16-.82l.58,2.69a12.65,12.65,0,0,1-2.52.91,16,16,0,0,1-4.35.53,14.3,14.3,0,0,1-5.56-1,10,10,0,0,1-3.8-2.69,10.65,10.65,0,0,1-2.16-4.1A18.89,18.89,0,0,1,859,539.53Zm17.62-2a9.83,9.83,0,0,0-1.83-6,5.9,5.9,0,0,0-4.89-2.16,6.5,6.5,0,0,0-3,.68,7.79,7.79,0,0,0-2.31,1.8,8.58,8.58,0,0,0-1.53,2.61,10.71,10.71,0,0,0-.65,3.12Z"/><path d="M895.27,526.67a17.67,17.67,0,0,1,2.91.24,8.74,8.74,0,0,1,1.89.48l-.62,2.69a6.53,6.53,0,0,0-1.56-.41,16.9,16.9,0,0,0-3.1-.22,14.69,14.69,0,0,0-3.24.29,9,9,0,0,0-1.61.48V552h-3.12V528.3a24.27,24.27,0,0,1,3.32-1.08A20.58,20.58,0,0,1,895.27,526.67Z"/><path d="M906.31,547.4c0,.29.05.55.05.77v.58a19.4,19.4,0,0,1-.84,5.71,22,22,0,0,1-2.33,5.13l-2.3-1.05a16.64,16.64,0,0,0,1.56-4.44,26.07,26.07,0,0,0,.45-4.83v-1a4.26,4.26,0,0,0-.07-.91Z"/><path d="M946.58,539.58a16.11,16.11,0,0,1-.84,5.33,11.82,11.82,0,0,1-2.35,4.08,10.7,10.7,0,0,1-3.57,2.61,11.56,11.56,0,0,1-9.12,0,10.74,10.74,0,0,1-3.58-2.61,11.82,11.82,0,0,1-2.35-4.08,17.33,17.33,0,0,1,0-10.66,11.91,11.91,0,0,1,2.35-4.1,10.36,10.36,0,0,1,3.58-2.64,11.56,11.56,0,0,1,9.12,0,10.68,10.68,0,0,1,3.57,2.64,11.91,11.91,0,0,1,2.35,4.1A16.11,16.11,0,0,1,946.58,539.58Zm-3.31,0a11.7,11.7,0,0,0-2.16-7.42,7.6,7.6,0,0,0-10.68-1,7.71,7.71,0,0,0-1,1,11.7,11.7,0,0,0-2.16,7.42A11.57,11.57,0,0,0,929.4,547a7.64,7.64,0,0,0,10.75,1,7.26,7.26,0,0,0,1-1A11.57,11.57,0,0,0,943.27,539.58Z"/><path d="M969.53,549.08a4.91,4.91,0,0,1-.87.55,12.79,12.79,0,0,1-1.41.65,9.8,9.8,0,0,1-1.92.55,11.63,11.63,0,0,1-2.43.22,12.82,12.82,0,0,1-4.17-.67,9.22,9.22,0,0,1-3.53-2.11,10.35,10.35,0,0,1-2.43-3.72,15,15,0,0,1-.91-5.55,14,14,0,0,1,.82-4.89A11.25,11.25,0,0,1,955,530.2a10.63,10.63,0,0,1,3.69-2.6,12.37,12.37,0,0,1,4.92-.93,27.18,27.18,0,0,1,5.55.45c1.39.31,2.53.6,3.43.89v22.66q0,5.57-2.88,7.94T961,561a24.29,24.29,0,0,1-4.34-.36,24,24,0,0,1-3.34-.84L954,557a14.38,14.38,0,0,0,3.15.91,21.51,21.51,0,0,0,4,.38c2.94,0,5.08-.57,6.4-1.7s2-3.08,2-5.84Zm0-18.91a21.41,21.41,0,0,0-2.11-.46,25.43,25.43,0,0,0-3.7-.21,8.63,8.63,0,0,0-3.58.7,7.69,7.69,0,0,0-2.66,2,8.56,8.56,0,0,0-1.68,3,12.33,12.33,0,0,0-.58,3.86,11.79,11.79,0,0,0,.68,4.2,8.27,8.27,0,0,0,1.75,2.86,6.51,6.51,0,0,0,2.47,1.6,8,8,0,0,0,2.83.51,11.3,11.3,0,0,0,3.87-.63,8.71,8.71,0,0,0,2.71-1.43Z"/><path d="M994.73,527.15h9.88v2.64h-9.88V543a13.21,13.21,0,0,0,.36,3.43,4.73,4.73,0,0,0,1,2,3.23,3.23,0,0,0,1.63,1,8.33,8.33,0,0,0,2.11.24,9,9,0,0,0,3.17-.46,13,13,0,0,0,1.87-.84l.77,2.6a11.86,11.86,0,0,1-2.35,1,11.58,11.58,0,0,1-3.65.55,10.79,10.79,0,0,1-3.86-.6,5.6,5.6,0,0,1-2.5-1.82A7.63,7.63,0,0,1,992,547a20.85,20.85,0,0,1-.38-4.32V519.85l3.12-.58Z"/><path d="M1017.91,526.57a10.86,10.86,0,0,1,4.15.7,7.1,7.1,0,0,1,2.76,1.92,7.46,7.46,0,0,1,1.54,2.9,13.26,13.26,0,0,1,.48,3.65v15.65c-.32.09-.79.2-1.39.31l-2.12.36c-.8.13-1.68.23-2.66.31s-2,.12-3,.12a14.23,14.23,0,0,1-3.62-.43,8,8,0,0,1-2.88-1.37,6.24,6.24,0,0,1-1.92-2.4,8.18,8.18,0,0,1-.7-3.58,7.23,7.23,0,0,1,.77-3.45,6.5,6.5,0,0,1,2.16-2.38,9.72,9.72,0,0,1,3.31-1.37,19.58,19.58,0,0,1,4.18-.43,13.33,13.33,0,0,1,1.41.08,8.08,8.08,0,0,1,1.44.19c.44.08.87.16,1.2.24a4.33,4.33,0,0,1,.7.21v-1.53a16.35,16.35,0,0,0-.19-2.52,5.67,5.67,0,0,0-.84-2.21,4.66,4.66,0,0,0-1.83-1.58,6.61,6.61,0,0,0-3.09-.61,15.57,15.57,0,0,0-4.08.39c-.9.26-1.56.46-2,.62l-.43-2.73a11,11,0,0,1,2.52-.72A21.19,21.19,0,0,1,1017.91,526.57Zm.29,23.14a25.79,25.79,0,0,0,3.19-.12,20.38,20.38,0,0,0,2.33-.32v-8.73a9,9,0,0,0-1.68-.5,14.05,14.05,0,0,0-3.17-.27,17.61,17.61,0,0,0-2.4.17,6.71,6.71,0,0,0-2.3.72,4.66,4.66,0,0,0-1.73,1.51,4.37,4.37,0,0,0-.67,2.54,5.61,5.61,0,0,0,.45,2.36,3.79,3.79,0,0,0,1.3,1.53,5.53,5.53,0,0,0,2,.84,12.07,12.07,0,0,0,2.68.27Z"/><path d="M1037.93,528.63a11.64,11.64,0,0,1,2.61-1.32,11.81,11.81,0,0,1,4.25-.69,11.24,11.24,0,0,1,4.78,1,10,10,0,0,1,3.52,2.69,11.86,11.86,0,0,1,2.19,4.1,17.37,17.37,0,0,1,.74,5.21,15.38,15.38,0,0,1-.89,5.42,11.66,11.66,0,0,1-2.49,4.08,10.73,10.73,0,0,1-3.84,2.57,13.53,13.53,0,0,1-5,.89,29.53,29.53,0,0,1-5.47-.43,28.87,28.87,0,0,1-3.55-.91v-36l3.12-.58Zm0,20.41a13,13,0,0,0,2.13.45,25.71,25.71,0,0,0,3.72.22,8.45,8.45,0,0,0,6.48-2.62c1.63-1.74,2.45-4.25,2.45-7.51a17.1,17.1,0,0,0-.43-3.91,9.24,9.24,0,0,0-1.39-3.22,7,7,0,0,0-2.52-2.18,8.2,8.2,0,0,0-3.87-.82,10,10,0,0,0-2.11.22,12.15,12.15,0,0,0-1.87.55,8.7,8.7,0,0,0-1.51.72,10.13,10.13,0,0,0-1.08.72Z"/><path d="M1061.3,539.53a15.74,15.74,0,0,1,.94-5.69,12.45,12.45,0,0,1,2.45-4.05,9.42,9.42,0,0,1,3.45-2.43,10.56,10.56,0,0,1,4-.79,9.33,9.33,0,0,1,7.27,3c1.81,2,2.71,5,2.71,9.16v.77a2.42,2.42,0,0,1-.07.72h-17.43q.15,4.56,2.26,7c1.41,1.63,3.65,2.44,6.72,2.45a13.5,13.5,0,0,0,4-.48,16.54,16.54,0,0,0,2.16-.82l.58,2.69a12.65,12.65,0,0,1-2.52.91,16,16,0,0,1-4.35.53,14.35,14.35,0,0,1-5.57-1,10,10,0,0,1-3.79-2.69,10.65,10.65,0,0,1-2.16-4.1A19.26,19.26,0,0,1,1061.3,539.53Zm17.62-2a9.83,9.83,0,0,0-1.83-6,5.9,5.9,0,0,0-4.89-2.16,6.5,6.5,0,0,0-3,.68,7.79,7.79,0,0,0-2.31,1.8,8.27,8.27,0,0,0-1.53,2.61,10.71,10.71,0,0,0-.65,3.12Z"/><path d="M1097.54,526.67a17.67,17.67,0,0,1,2.91.24,8.74,8.74,0,0,1,1.89.48l-.62,2.69a6.53,6.53,0,0,0-1.56-.41,16.9,16.9,0,0,0-3.1-.22,14.69,14.69,0,0,0-3.24.29,9,9,0,0,0-1.61.48V552h-3.12V528.3a24.27,24.27,0,0,1,3.32-1.08A20.58,20.58,0,0,1,1097.54,526.67Z"/><path d="M1123.08,549.75a9.83,9.83,0,0,0,4.44-.88,3.11,3.11,0,0,0,1.75-3,4.45,4.45,0,0,0-.31-1.73,3.55,3.55,0,0,0-1-1.3,9.15,9.15,0,0,0-1.89-1.1c-.79-.35-1.75-.77-2.91-1.25-.92-.38-1.8-.77-2.64-1.18a10.48,10.48,0,0,1-2.2-1.39,6.21,6.21,0,0,1,.16-9.48,9.66,9.66,0,0,1,6.27-1.87,17,17,0,0,1,4.2.43,14.45,14.45,0,0,1,2.33.77l-.72,2.78a20.07,20.07,0,0,0-2-.76,12.87,12.87,0,0,0-4-.48,9.64,9.64,0,0,0-2,.21,5.28,5.28,0,0,0-1.65.68,3.54,3.54,0,0,0-1.16,1.15,3.2,3.2,0,0,0-.43,1.71,3.57,3.57,0,0,0,.39,1.73,3.93,3.93,0,0,0,1.12,1.28,10.46,10.46,0,0,0,1.83,1l2.47,1q1.44.57,2.76,1.17a10.13,10.13,0,0,1,2.33,1.43,7,7,0,0,1,1.63,2,6.32,6.32,0,0,1,.62,3,5.79,5.79,0,0,1-2.52,5.09,12,12,0,0,1-6.88,1.73,17.57,17.57,0,0,1-5-.55,19.19,19.19,0,0,1-2.3-.84l.82-2.84a4.54,4.54,0,0,0,.62.32c.32.14.75.3,1.3.48a12.71,12.71,0,0,0,1.94.45A16.59,16.59,0,0,0,1123.08,549.75Z"/><path d="M1141.65,560.84h-3.12V528a26.71,26.71,0,0,1,9-1.34,13.32,13.32,0,0,1,5,.88,10.86,10.86,0,0,1,3.84,2.57,11.54,11.54,0,0,1,2.5,4.08,15.43,15.43,0,0,1,.89,5.43,17,17,0,0,1-.75,5.2,11.39,11.39,0,0,1-2.18,4.09,10.14,10.14,0,0,1-3.53,2.66,11.23,11.23,0,0,1-4.77,1,11.6,11.6,0,0,1-4.25-.7,11.11,11.11,0,0,1-2.62-1.32Zm0-13.34a12.66,12.66,0,0,0,1.08.72,10.45,10.45,0,0,0,1.51.72,12.27,12.27,0,0,0,1.88.55,10,10,0,0,0,2.11.22,8.57,8.57,0,0,0,3.86-.79,6.77,6.77,0,0,0,2.52-2.17,9,9,0,0,0,1.39-3.21,16.57,16.57,0,0,0,.44-3.91q0-4.9-2.45-7.51a8.41,8.41,0,0,0-6.48-2.62,25.7,25.7,0,0,0-3.72.21,14.31,14.31,0,0,0-2.14.46Z"/><path d="M1170.35,519.66a2.29,2.29,0,0,1-.67,1.75,2.36,2.36,0,0,1-3.26,0,2.63,2.63,0,0,1,0-3.5,2.36,2.36,0,0,1,3.26,0A2.29,2.29,0,0,1,1170.35,519.66Zm-.72,32.3h-3.12V527.15h3.12Z"/><path d="M1184.18,552.39a10.35,10.35,0,0,1-2.76-.4,4.93,4.93,0,0,1-2-1.11,4.6,4.6,0,0,1-1.2-1.92,9.22,9.22,0,0,1-.41-3V515.29l3.12-.58v31.21a6.72,6.72,0,0,0,.22,1.84,2.41,2.41,0,0,0,.65,1.11,2.58,2.58,0,0,0,1.13.6,15.05,15.05,0,0,0,1.65.33Z"/><path d="M1196.42,552.39a10.35,10.35,0,0,1-2.76-.4,4.93,4.93,0,0,1-2-1.11,4.6,4.6,0,0,1-1.2-1.92,9.22,9.22,0,0,1-.41-3V515.29l3.12-.58v31.21a6,6,0,0,0,.22,1.84,2.41,2.41,0,0,0,.65,1.11,2.55,2.55,0,0,0,1.12.6,15.72,15.72,0,0,0,1.66.33Z"/><path d="M1200.88,539.53a15.74,15.74,0,0,1,.94-5.69,12.45,12.45,0,0,1,2.45-4.05,9.42,9.42,0,0,1,3.45-2.43,10.56,10.56,0,0,1,4-.79,9.33,9.33,0,0,1,7.27,3c1.81,2,2.71,5,2.71,9.16v.77a2.42,2.42,0,0,1-.07.72H1204.2q.15,4.56,2.26,7c1.41,1.63,3.65,2.44,6.72,2.45a13.5,13.5,0,0,0,4-.48,16.54,16.54,0,0,0,2.16-.82l.58,2.69a12.65,12.65,0,0,1-2.52.91,16,16,0,0,1-4.35.53,14.35,14.35,0,0,1-5.57-1,10,10,0,0,1-3.79-2.69,10.65,10.65,0,0,1-2.16-4.1A19.26,19.26,0,0,1,1200.88,539.53Zm17.62-2a9.83,9.83,0,0,0-1.83-6,5.9,5.9,0,0,0-4.89-2.16,6.5,6.5,0,0,0-3,.68,7.79,7.79,0,0,0-2.31,1.8,8.27,8.27,0,0,0-1.53,2.61,10.71,10.71,0,0,0-.65,3.12Z"/><path d="M1231.6,527.15h9.89v2.64h-9.89V543a13.21,13.21,0,0,0,.36,3.43,4.73,4.73,0,0,0,1,2,3.26,3.26,0,0,0,1.64,1,8.33,8.33,0,0,0,2.11.24,9,9,0,0,0,3.17-.46,13,13,0,0,0,1.87-.84l.76,2.6a12.39,12.39,0,0,1-6,1.55,10.79,10.79,0,0,1-3.86-.6,5.6,5.6,0,0,1-2.5-1.82,7.47,7.47,0,0,1-1.31-3.05,20.86,20.86,0,0,1-.39-4.32V519.85l3.12-.58Z"/><path d="M1252.19,549.9a2.68,2.68,0,0,1-.69,1.87,2.54,2.54,0,0,1-2,.77,2.48,2.48,0,0,1-1.94-.77,2.86,2.86,0,0,1,0-3.74,2.48,2.48,0,0,1,1.94-.77,2.54,2.54,0,0,1,2,.77A2.68,2.68,0,0,1,1252.19,549.9Z"/><path d="M701,648.16a53.78,53.78,0,0,0-3.68-4.95A58.37,58.37,0,0,0,693,638.6a53.85,53.85,0,0,0-4.59-3.94,37.22,37.22,0,0,0-4.48-3v16.49h-3.27V614.9H684v15.48c1.21-1.09,2.55-2.35,4-3.76s3-2.85,4.42-4.29,2.83-2.81,4.11-4.12,2.31-2.42,3.08-3.31h3.93c-.93,1-2,2.17-3.36,3.52s-2.71,2.76-4.18,4.2-2.94,2.85-4.4,4.24-2.76,2.61-3.91,3.66a33.31,33.31,0,0,1,3,2.14c1.07.85,2.15,1.78,3.26,2.79s2.2,2.07,3.27,3.17,2.07,2.23,3,3.34a37.6,37.6,0,0,1,2.55,3.27,28.76,28.76,0,0,1,1.84,2.93Z"/><path d="M730,635.78a16.11,16.11,0,0,1-.84,5.33,11.82,11.82,0,0,1-2.35,4.08,10.74,10.74,0,0,1-3.58,2.61,11.56,11.56,0,0,1-9.12,0,10.6,10.6,0,0,1-3.57-2.61,12,12,0,0,1-2.36-4.08,17.33,17.33,0,0,1,0-10.66,12.1,12.1,0,0,1,2.36-4.1,10.32,10.32,0,0,1,3.57-2.64,11.56,11.56,0,0,1,9.12,0,10.36,10.36,0,0,1,3.58,2.64,11.91,11.91,0,0,1,2.35,4.1A16.11,16.11,0,0,1,730,635.78Zm-3.31,0a11.7,11.7,0,0,0-2.16-7.42,7.6,7.6,0,0,0-10.68-1,7.71,7.71,0,0,0-1,1,13.77,13.77,0,0,0,0,14.81,7.64,7.64,0,0,0,10.75,1,7.26,7.26,0,0,0,1-1,11.6,11.6,0,0,0,2.12-7.39Z"/><path d="M736.73,624.21c.93-.25,2.13-.54,3.62-.86a28.13,28.13,0,0,1,5.79-.48q4.7,0,6.81,2.73c.16-.12.47-.34.94-.64a12.8,12.8,0,0,1,1.75-.94,14.31,14.31,0,0,1,2.47-.82,13.87,13.87,0,0,1,3.15-.33,10.75,10.75,0,0,1,4.58.84,6.37,6.37,0,0,1,2.71,2.35,9.61,9.61,0,0,1,1.3,3.62,29.7,29.7,0,0,1,.33,4.61v13.87h-3.12V635.3a37.68,37.68,0,0,0-.21-4.25,8,8,0,0,0-.87-3,4.17,4.17,0,0,0-1.84-1.78,7.12,7.12,0,0,0-3.12-.6,12.13,12.13,0,0,0-2.62.26,13,13,0,0,0-2,.65,8.47,8.47,0,0,0-1.42.77c-.36.26-.63.45-.79.58a14.22,14.22,0,0,1,.65,2.8,24.14,24.14,0,0,1,.22,3.29v14.11H751.9V635.3a37.69,37.69,0,0,0-.22-4.25,7.72,7.72,0,0,0-.89-3,4.34,4.34,0,0,0-1.89-1.78,7.5,7.5,0,0,0-3.24-.6,24.43,24.43,0,0,0-3.82.24,9.77,9.77,0,0,0-2,.43v21.79h-3.12Z"/><path d="M794.18,646a9.71,9.71,0,0,0,4.44-.89,3.1,3.1,0,0,0,1.76-3,4.46,4.46,0,0,0-.32-1.73,3.28,3.28,0,0,0-1-1.3,9.15,9.15,0,0,0-1.89-1.1c-.79-.35-1.76-.77-2.91-1.25-.93-.38-1.81-.77-2.64-1.18a10.81,10.81,0,0,1-2.21-1.39,6.1,6.1,0,0,1-1.53-1.89,5.7,5.7,0,0,1-.58-2.69,6,6,0,0,1,2.28-4.9,9.66,9.66,0,0,1,6.27-1.87,17.47,17.47,0,0,1,4.2.43,13.72,13.72,0,0,1,2.32.77l-.72,2.78a19,19,0,0,0-1.94-.76,12.87,12.87,0,0,0-4-.48,9.64,9.64,0,0,0-2,.21,5.24,5.24,0,0,0-1.66.68,3.51,3.51,0,0,0-1.15,1.15,3.2,3.2,0,0,0-.43,1.71,3.83,3.83,0,0,0,.38,1.73,4.08,4.08,0,0,0,1.13,1.28,10.46,10.46,0,0,0,1.83,1l2.47,1.05q1.44.57,2.76,1.17a10.53,10.53,0,0,1,2.33,1.44,6.83,6.83,0,0,1,1.63,2,6.39,6.39,0,0,1,.62,2.95A5.79,5.79,0,0,1,801.1,647a12,12,0,0,1-6.89,1.73,17.57,17.57,0,0,1-5-.55,19.19,19.19,0,0,1-2.3-.84l.81-2.84a4.65,4.65,0,0,0,.63.32q.48.21,1.29.48a13.47,13.47,0,0,0,2,.45A15.49,15.49,0,0,0,794.18,646Z"/><path d="M817.18,622.77a10.86,10.86,0,0,1,4.15.7,7.1,7.1,0,0,1,2.76,1.92,7.44,7.44,0,0,1,1.53,2.9,13.26,13.26,0,0,1,.48,3.65v15.65c-.32.09-.78.2-1.39.31l-2.11.36c-.8.13-1.69.23-2.66.31s-2,.12-3,.12a14.36,14.36,0,0,1-3.63-.43,8.14,8.14,0,0,1-2.88-1.37,6.59,6.59,0,0,1-1.92-2.4,8.24,8.24,0,0,1-.69-3.57,7.26,7.26,0,0,1,.76-3.46,6.76,6.76,0,0,1,2.16-2.38,9.77,9.77,0,0,1,3.32-1.37,19.49,19.49,0,0,1,4.17-.43,8.76,8.76,0,0,1,1.42.08c.5.08,1,.11,1.44.19s.86.16,1.2.24a3.94,3.94,0,0,1,.69.21v-1.53a16.35,16.35,0,0,0-.19-2.52,5.67,5.67,0,0,0-.84-2.21,4.63,4.63,0,0,0-1.82-1.58,6.62,6.62,0,0,0-3.1-.61,15.57,15.57,0,0,0-4.08.39c-.89.26-1.55.46-2,.62l-.43-2.73a11,11,0,0,1,2.52-.72A21.3,21.3,0,0,1,817.18,622.77Zm.28,23.14a26,26,0,0,0,3.2-.12,20.21,20.21,0,0,0,2.32-.32v-8.73a8.79,8.79,0,0,0-1.68-.5,14,14,0,0,0-3.16-.27,17.61,17.61,0,0,0-2.4.17,6.69,6.69,0,0,0-2.31.72,4.93,4.93,0,0,0-1.73,1.51,4.33,4.33,0,0,0-.67,2.55,5.28,5.28,0,0,0,.46,2.35,3.69,3.69,0,0,0,1.29,1.53,5.61,5.61,0,0,0,2,.84,12.07,12.07,0,0,0,2.68.27Zm5.14-30.2a4.76,4.76,0,0,1-.36,1.9,4.34,4.34,0,0,1-1,1.44,4.85,4.85,0,0,1-1.47.94,4.77,4.77,0,0,1-1.75.33,4.63,4.63,0,0,1-3.24-1.24,4.33,4.33,0,0,1-1.37-3.37,4.27,4.27,0,0,1,1.37-3.31,4.63,4.63,0,0,1,3.24-1.24,4.77,4.77,0,0,1,1.75.33,4.85,4.85,0,0,1,1.47.94,4.34,4.34,0,0,1,1,1.44,4.64,4.64,0,0,1,.36,1.84Zm-1.82,0a2.75,2.75,0,1,0-4.68,2.12,3,3,0,0,0,3.88,0A2.75,2.75,0,0,0,820.78,615.71Z"/><path d="M842.23,632.75h10.85v3H842.23Z"/><path d="M869.5,614.9c1,2.85,1.88,5.54,2.78,8.09s1.79,5,2.66,7.38,1.74,4.72,2.63,7,1.85,4.61,2.89,6.94c1-2.29,1.95-4.59,2.85-6.88s1.8-4.63,2.69-7,1.77-4.85,2.66-7.41,1.81-5.26,2.77-8.12h3.46q-2.21,6.32-4,11.05c-1.19,3.15-2.28,6-3.27,8.59s-2,4.94-2.87,7.09-1.86,4.33-2.85,6.53h-3.07c-1-2.21-1.92-4.39-2.85-6.56s-1.9-4.52-2.92-7.07-2.11-5.42-3.28-8.59-2.5-6.83-4-11Z"/><path d="M914.23,648.16V639h-13.8c-.82,1.54-1.64,3-2.46,4.55s-1.61,3-2.36,4.57h-3.36q2.6-5.13,5.15-9.65t5.11-8.57q2.55-4,5.09-7.77t5.13-7.27h20v2.83H917.5V629.3H931v2.78H917.5v13.25H934v2.83Zm0-30.57q-3.33,4.45-6.35,9.08T902,636.26h12.22Z"/><path d="M962.38,624.88a8.44,8.44,0,0,1-2,5.91,11.16,11.16,0,0,1-5.19,3.12c.51.64,1.18,1.5,2,2.59s1.66,2.28,2.53,3.58,1.71,2.64,2.54,4a43.59,43.59,0,0,1,2.11,4h-3.5c-.68-1.28-1.4-2.56-2.19-3.84s-1.58-2.52-2.4-3.72-1.6-2.31-2.37-3.33l-2-2.69c-1,.09-2,.14-3.07.14h-5.38v13.44H940.2V615.52a22.62,22.62,0,0,1,4-.69c1.56-.15,3-.22,4.3-.22q6.87,0,10.34,2.59C961.21,618.93,962.38,621.49,962.38,624.88Zm-13.45-7.44a25.87,25.87,0,0,0-3.19.12l-2.28.22v14.16H948a38.22,38.22,0,0,0,4.28-.22,10.19,10.19,0,0,0,3.5-1,5.62,5.62,0,0,0,2.35-2.13,7.1,7.1,0,0,0,.87-3.8,6.91,6.91,0,0,0-.87-3.64,6.55,6.55,0,0,0-2.25-2.28,9.27,9.27,0,0,0-3.19-1.16A23.61,23.61,0,0,0,948.93,617.44Z"/><path d="M980.81,648.16V614.9H1000v2.83H984.07V629.3h14.21v2.78H984.07v13.25h17.18v2.83Z"/><path d="M1030.1,648.16c-.61-1.11-1.39-2.42-2.32-3.94s-2-3.11-3.11-4.81-2.33-3.46-3.57-5.27-2.47-3.58-3.7-5.29-2.43-3.32-3.61-4.82-2.21-2.8-3.13-3.89v28h-3.21V614.9H1010q2.44,2.73,5.25,6.32c1.87,2.38,3.69,4.82,5.49,7.3s3.47,4.9,5,7.27,2.83,4.42,3.82,6.18V614.9h3.22v33.26Z"/><path d="M1073.16,632.42h3.26v14.83a25.89,25.89,0,0,1-3.57,1,30.75,30.75,0,0,1-6.56.59,15.4,15.4,0,0,1-6-1.15,13.68,13.68,0,0,1-4.83-3.33,15.52,15.52,0,0,1-3.19-5.43,22.21,22.21,0,0,1-1.15-7.41,20.39,20.39,0,0,1,1.25-7.42,15.62,15.62,0,0,1,3.38-5.42,14.45,14.45,0,0,1,5-3.34,15.81,15.81,0,0,1,6-1.15,19.61,19.61,0,0,1,6.09.79,16,16,0,0,1,3.51,1.51l-1.11,2.79a10.84,10.84,0,0,0-3.65-1.56,20,20,0,0,0-5-.6,12.22,12.22,0,0,0-4.7.91,10.55,10.55,0,0,0-3.84,2.73,13.2,13.2,0,0,0-2.57,4.52,18.87,18.87,0,0,0-.94,6.24,21.3,21.3,0,0,0,.77,6,12.5,12.5,0,0,0,2.33,4.56,10.34,10.34,0,0,0,3.86,2.91,13.16,13.16,0,0,0,5.33,1,25.65,25.65,0,0,0,4.11-.27,11.25,11.25,0,0,0,2.23-.5Z"/><path d="M1113.86,631.51a20.76,20.76,0,0,1-1.25,7.53,15.65,15.65,0,0,1-3.38,5.45,13.83,13.83,0,0,1-5,3.29,16.88,16.88,0,0,1-12,0,14,14,0,0,1-5-3.29,15.65,15.65,0,0,1-3.38-5.45,23.21,23.21,0,0,1,0-15,15.66,15.66,0,0,1,3.38-5.43,14.18,14.18,0,0,1,5-3.29,16.88,16.88,0,0,1,12,0,14.18,14.18,0,0,1,5,3.29,15.66,15.66,0,0,1,3.38,5.43A20.65,20.65,0,0,1,1113.86,631.51Zm-3.45,0a19.37,19.37,0,0,0-.87-6,13,13,0,0,0-2.45-4.53,10.53,10.53,0,0,0-3.81-2.86,13.31,13.31,0,0,0-10,0,10.56,10.56,0,0,0-3.82,2.86,13.3,13.3,0,0,0-2.45,4.53,21.48,21.48,0,0,0,0,12,13.17,13.17,0,0,0,2.45,4.54,10.7,10.7,0,0,0,3.82,2.88,13,13,0,0,0,10,0,10.58,10.58,0,0,0,3.81-2.88,13.17,13.17,0,0,0,2.45-4.54A19.37,19.37,0,0,0,1110.41,631.51Z"/><path d="M1147.56,631.51a18.74,18.74,0,0,1-1.35,7.44,14.33,14.33,0,0,1-3.76,5.28,16.08,16.08,0,0,1-5.79,3.17,24.69,24.69,0,0,1-7.39,1.05c-1.34,0-2.75-.07-4.22-.21a27,27,0,0,1-3.89-.65V615.52a21.28,21.28,0,0,1,3.89-.69c1.4-.14,2.81-.22,4.22-.22a24.34,24.34,0,0,1,7.39,1.06,16.06,16.06,0,0,1,5.79,3.16,14.28,14.28,0,0,1,3.76,5.29A18.7,18.7,0,0,1,1147.56,631.51Zm-23.14,13.77c.19,0,.68.1,1.47.19a33.67,33.67,0,0,0,3.76.15,18.18,18.18,0,0,0,6.29-1,12.24,12.24,0,0,0,4.51-2.8,11.5,11.5,0,0,0,2.74-4.44,19.39,19.39,0,0,0,0-11.74,11.39,11.39,0,0,0-2.74-4.41,12.05,12.05,0,0,0-4.51-2.81,18.18,18.18,0,0,0-6.29-1,33.67,33.67,0,0,0-3.76.15c-.79.09-1.28.16-1.47.19Z"/><path d="M1165.6,614.9c1,2.85,1.89,5.54,2.79,8.09s1.79,5,2.65,7.38,1.75,4.72,2.64,7,1.85,4.61,2.89,6.94c1-2.29,1.94-4.59,2.85-6.88s1.8-4.63,2.69-7,1.77-4.85,2.66-7.41,1.81-5.26,2.77-8.12H1191q-2.2,6.32-4,11.05l-3.27,8.59c-1,2.57-2,4.93-2.86,7.09S1179,646,1178,648.16h-3c-1-2.21-1.92-4.39-2.85-6.56s-1.91-4.52-2.92-7.07-2.12-5.42-3.28-8.59-2.5-6.85-4-11Z"/><path d="M1195.75,648.16V614.9H1215v2.83h-16V629.3h14.21v2.78H1199v13.25h17.19v2.83Z"/><path d="M1245,648.16c-.61-1.11-1.39-2.42-2.32-3.94s-2-3.11-3.11-4.81-2.33-3.46-3.57-5.27-2.47-3.58-3.7-5.29-2.43-3.32-3.6-4.82-2.22-2.8-3.14-3.89v28h-3.21V614.9H1225q2.45,2.73,5.25,6.32t5.49,7.3q2.68,3.72,5,7.27c1.55,2.36,2.83,4.42,3.82,6.18V614.9h3.22v33.26Z"/><path d="M1261.32,646.1a2.69,2.69,0,0,1-.7,1.87,2.83,2.83,0,0,1-3.89,0,2.88,2.88,0,0,1,0-3.74,2.83,2.83,0,0,1,3.89,0A2.69,2.69,0,0,1,1261.32,646.1Zm-1-21.94c0,1.38,0,2.67-.08,3.87s-.12,2.36-.21,3.48-.2,2.2-.31,3.26l-.36,3.17H1258c-.29-2.14-.52-4.29-.7-6.43s-.26-4.59-.26-7.35V614.9h3.36Z"/></svg>
