<svg id="Layer_1" data-name="Layer 1" xmlns="http://www.w3.org/2000/svg" viewBox="0 0 136 227">
  <defs>
    <style>
      .cls-1 {
        fill: #eab2db;
      }

      .cls-2, .cls-8 {
        fill: #42210b;
      }

      .cls-3 {
        fill: #846447;
      }

      .cls-4 {
        fill: #e2b9a8;
      }

      .cls-5 {
        fill: #1b1464;
      }

      .cls-6 {
        fill: #fcfcfc;
      }

      .cls-7 {
        fill: #ea7b65;
        opacity: 0.5;
      }

      .cls-8 {
        stroke: #42210b;
        stroke-miterlimit: 10;
      }

      .cls-9 {
        fill: #fff;
      }
    </style>
  </defs>
  <title>venner_9</title>
  <rect class="cls-1" x="-0.51" y="-0.03" width="136" height="227"/>
  <path class="cls-2" d="M72.73,27.24c3.78-3.18,9.57-2.77,13.72-.45a10.67,10.67,0,0,1,1.6,1.05C97.31,35.36,98.7,54.12,98.7,54.12c2.36,33.51,21,49.24,11.79,59.76-6.28,7.14-21.6,7.5-30,1.07-8.13-6.23-4-14.41-8.19-50.16C69.9,44.25,67.29,31.81,72.73,27.24Z"/>
  <path class="cls-3" d="M50.93,98.33a9.12,9.12,0,0,1,0,6.18c5.75,2,10.71,5.81,16.92,6.83a20,20,0,0,0,10.55-1.51s0,0,0,0l0-.06S70.42,92.58,77.4,79c3.71-7.23,7.67-5.79,9.42-10.95C91,55.72,74.09,32.26,57.46,33.08,42,33.84,33.69,56.33,32.39,59.87s-7.59,20.84.06,28.64C38.05,94.21,48.32,92,50.93,98.33Z"/>
  <path class="cls-4" d="M80,123.84c5-1.67,9.3-6,11.88-10.88l-.19-.09c-3.74-1.42-11.09-2.33-13.65-7.81a19.91,19.91,0,0,1-10.55,1.5c-6.21-1-11.17-4.78-16.91-6.82a11.84,11.84,0,0,1-.92,2.73c-1.88,3.87-5.78,5.19-11.23,7.45C48,123.17,64,126.88,80,123.84Z"/>
  <path class="cls-5" d="M91.89,113C89.31,117.83,85,122.17,80,123.84c-16,3-32-.67-41.57-13.92l-.52.21c-11,4.61-16.51,6.91-19.71,10.23-4.72,4.9-4,10.52-4.06,32.47-.13,27.85-1.39,27.64.07,30.87,9.57,21.1,66,35.69,89.44,6.47C124,164.82,108.91,119.73,91.89,113Z"/>
  <polygon class="cls-6" points="64.92 105.65 50.95 98.42 46.72 104.92 60.34 114.9 64.92 105.65"/>
  <polygon class="cls-6" points="80.98 108.2 78.21 101.46 64.05 105.69 66.65 115.03 80.98 108.2"/>
  <path class="cls-2" d="M40.34,45c1.34,3.71,13-1.07,22.89,6.55A21.91,21.91,0,0,1,70.9,62.64,17.42,17.42,0,0,1,71.27,66c0,2-.51,3.57-.36,3.61s1-4.69,3.18-5.1c1.26-.24,2.61,1.11,3.18,2.22a5.05,5.05,0,0,1-1.57,6c-1.18.8-2.07.49-2.23,1-.45,1.39,6.46,7.07,11.93,5.17,2.23-.77,3.38-2.51,5-5a30.25,30.25,0,0,0,5-15.58,32.75,32.75,0,0,0-4.19-16.61,25.79,25.79,0,0,0-9.38-10.37c-6.31-3.76-12.67-3.32-15.59-3.08C51.77,29.47,38.84,40.79,40.34,45Z"/>
  <path d="M36.16,61.08a1.13,1.13,0,0,0,0-2.25,1.13,1.13,0,0,0,0,2.25Z"/>
  <path d="M54.25,62.72a1.13,1.13,0,0,0,0-2.25,1.13,1.13,0,0,0,0,2.25Z"/>
  <ellipse class="cls-7" cx="31.79" cy="73.23" rx="2.71" ry="2.75" transform="translate(-0.17 0.08) rotate(-0.14)"/>
  <ellipse class="cls-7" cx="57.8" cy="72.47" rx="2.7" ry="2.75" transform="translate(-0.17 0.14) rotate(-0.14)"/>
  <path class="cls-2" d="M36.62,55.22c.12-.17-.06.06,0,0l.1-.12a2.39,2.39,0,0,1,.23-.22s.15-.13.07-.07l.08-.06.28-.17.28-.14c.13-.07,0,0,0,0l.16,0a4.14,4.14,0,0,1,.63-.15c-.17,0,.13,0,.19,0H39a3.16,3.16,0,0,1,.32,0h0l.15,0a1.58,1.58,0,0,1,.31.09l.16,0c.19.06-.08,0,0,0a3.53,3.53,0,0,1,.59.35.75.75,0,0,0,1-.27.77.77,0,0,0-.27-1,4.29,4.29,0,0,0-3.21-.69,4.24,4.24,0,0,0-2.78,1.73.74.74,0,0,0,.27,1,.77.77,0,0,0,1-.27Z"/>
  <path class="cls-2" d="M52.58,56.2a15.26,15.26,0,0,1,1.65-.4,4.74,4.74,0,0,1,.75-.06l.42,0h.06l.19,0a2.43,2.43,0,0,1,1,.43,1.63,1.63,0,0,1,.55.78.75.75,0,0,0,1.45-.4A3.42,3.42,0,0,0,56.2,54.4a7.56,7.56,0,0,0-4,.35.76.76,0,0,0-.52.93.75.75,0,0,0,.92.52Z"/>
  <path class="cls-2" d="M45,56.47a20.13,20.13,0,0,1-.5,7.42A13,13,0,0,1,41,69.4c-.36.33.18.86.53.53a13.76,13.76,0,0,0,3.63-5.64,20.39,20.39,0,0,0,.59-7.82c0-.48-.78-.48-.75,0Z"/>
  <path class="cls-8" d="M38.62,78.15c.56-1.3,5.75-1.15,6.28,0,.32.71-1.18,1.76-1.3,1.84a3.43,3.43,0,0,1-2.63.7C39.48,80.39,38.29,78.91,38.62,78.15Z"/>
  <path class="cls-9" d="M38.59,77.59c0-.43,2.09-.87,4-.71.69.06,2.08.25,2.13.6s-1.33.76-2.55.85C40.5,78.45,38.62,78,38.59,77.59Z"/>
</svg>
