<svg id="Layer_1" data-name="Layer 1" xmlns="http://www.w3.org/2000/svg" viewBox="0 0 136 227">
  <defs>
    <style>
      .cls-1 {
        fill: #ede683;
      }

      .cls-2 {
        fill: #846447;
      }

      .cls-3 {
        fill: #e2dedc;
      }

      .cls-4 {
        fill: #fcfcfc;
      }

      .cls-5 {
        fill: #ea7b65;
        opacity: 0.5;
      }

      .cls-6, .cls-7 {
        fill: #42210b;
      }

      .cls-7 {
        stroke: #42210b;
        stroke-miterlimit: 10;
      }

      .cls-8 {
        fill: #fff;
      }

      .cls-9 {
        fill: gray;
      }
    </style>
  </defs>
  <title>venner_5</title>
  <rect class="cls-1" y="0.5" width="136" height="227"/>
  <path class="cls-2" d="M85.41,96.72a.37.37,0,0,1,0-.11c-1.73-3.86,0-7.88,1.53-12.25,3.46-9.68,6.49-21.75,6.74-27.87C94.24,41.57,80,22.12,65.45,22.8c-14.93.7-22.94,22.33-24.2,25.73s-7.34,20,0,27.56c5.38,5.5,15.27,3.36,17.77,9.5a8.8,8.8,0,0,1,0,6c5.53,2,10.29,5.61,16.27,6.61A19.27,19.27,0,0,0,85.41,96.72Z"/>
  <path class="cls-3" d="M98.22,99.68c-3.6-1.38-10.67-2.27-13.12-7.55a19.17,19.17,0,0,1-10.16,1.42c-6-1-10.74-4.62-16.26-6.6a11.07,11.07,0,0,1-.89,2.62c-1.87,3.84-5.82,5.06-11.33,7.35-10.6,4.41-15.9,6.61-19,9.8-4.55,4.71-3.83,10.11-4,31.24-.19,26.81-1.4,26.6,0,29.71,9.16,20.33,63.42,34.5,86.06,6.43C129.27,149.65,114.66,106,98.22,99.68Z"/>
  <polygon class="cls-4" points="59.03 85.68 72.47 92.67 68.03 101.56 54.95 91.92 59.03 85.68"/>
  <polygon class="cls-4" points="85.26 88.66 71.62 92.7 74.11 101.7 87.91 95.16 85.26 88.66"/>
  <path class="cls-4" d="M69.65,95.17a435.53,435.53,0,0,1-1,73.39q-1,10.27-2.54,20.5c-.28,1.89,2.61,2.71,2.89.8a437.36,437.36,0,0,0,4.66-73.65q-.23-10.53-1-21c-.14-1.92-3.14-1.93-3,0Z"/>
  <path class="cls-2" d="M65.86,107.63a.75.75,0,0,0,0-1.5.75.75,0,0,0,0,1.5Z"/>
  <path class="cls-2" d="M66.34,124.87a.75.75,0,0,0,0-1.5.75.75,0,0,0,0,1.5Z"/>
  <path class="cls-2" d="M66.58,144.56a.75.75,0,0,0,0-1.5.75.75,0,0,0,0,1.5Z"/>
  <path class="cls-2" d="M65.14,162.5a.75.75,0,0,0,0-1.5.75.75,0,0,0,0,1.5Z"/>
  <path class="cls-2" d="M63,177.83a.75.75,0,0,0,0-1.5.75.75,0,0,0,0,1.5Z"/>
  <path d="M44.62,32c1.57,4.69,15.88.27,26.34,8.58a21.32,21.32,0,0,1,7.35,10.72,16,16,0,0,1,.35,3.26c0,1.94-.5,3.43-.35,3.47s1-4.51,3.07-4.9c1.21-.22,2.51,1.07,3.06,2.15a4.86,4.86,0,0,1-1.53,5.82c-1,.71-2.07.5-2.15.92-.13.68,2.8,1.2,4.9,2.75,4.32,3.2,3.2,9.33,4.6,9.5,1.89.23,6.75-10.65,5.82-23a34.4,34.4,0,0,0-4.9-16.24,34.26,34.26,0,0,0-15-12.86c-4.39-2.08-9.7-4.59-16.23-3.37C51.21,20.45,43.34,28.18,44.62,32Z"/>
  <path d="M44.88,49.75a1.13,1.13,0,0,0,0-2.25,1.13,1.13,0,0,0,0,2.25Z"/>
  <path d="M62.29,51.37a1.13,1.13,0,0,0,0-2.25,1.13,1.13,0,0,0,0,2.25Z"/>
  <ellipse class="cls-5" cx="40.65" cy="61.39" rx="2.61" ry="2.64"/>
  <ellipse class="cls-5" cx="65.68" cy="60.71" rx="2.6" ry="2.64"/>
  <path class="cls-6" d="M45.36,44.08c.11-.16-.06.06,0,0l.1-.12c.07-.07.14-.15.22-.22l.07-.06c-.08.07,0,0,.07,0a2.26,2.26,0,0,1,.26-.16l.28-.14c-.09,0-.05,0,0,0l.15,0a4.18,4.18,0,0,1,.61-.15c-.07,0-.1,0,0,0l.19,0h.31a1.55,1.55,0,0,1,.31,0l.14,0,.3.08.15.05c.17.07-.08,0,0,0a5.58,5.58,0,0,1,.56.34.75.75,0,0,0,1-.27.77.77,0,0,0-.27-1,4.12,4.12,0,0,0-3.11-.67,4.17,4.17,0,0,0-2.7,1.66.76.76,0,0,0,.27,1,.77.77,0,0,0,1-.27Z"/>
  <path class="cls-6" d="M60.7,45.07a14.87,14.87,0,0,1,1.6-.38,5.52,5.52,0,0,1,.71,0l.4,0s.15,0,.05,0l.19,0,.29.08.14,0c.12.05-.08,0,0,0a3.71,3.71,0,0,1,.47.27l.07.06.1.1a.52.52,0,0,1,.1.11c.08.09,0-.08,0,0a1.58,1.58,0,0,1,.15.24s.06.14,0,.08,0,.13,0,.12a.78.78,0,0,0,.93.53.77.77,0,0,0,.52-.93,3.3,3.3,0,0,0-2.35-2.16,7.24,7.24,0,0,0-3.88.34.75.75,0,0,0,.39,1.44Z"/>
  <path class="cls-6" d="M53,45.29a19.17,19.17,0,0,1-.48,7,12.07,12.07,0,0,1-3.28,5.11c-.71.66.35,1.72,1.06,1.06a13.59,13.59,0,0,0,3.6-5.58,19.81,19.81,0,0,0,.6-7.63c0-1-1.55-1-1.5,0Z"/>
  <path class="cls-7" d="M47.21,66.14c.54-1.25,5.54-1.09,6,0,.32.68-1.13,1.68-1.25,1.77a3.34,3.34,0,0,1-2.53.66C48,68.3,46.9,66.87,47.21,66.14Z"/>
  <path class="cls-8" d="M47.19,65.6c0-.41,2-.83,3.81-.68.67.06,2,.26,2,.58s-1.28.74-2.45.82C49,66.43,47.21,66,47.19,65.6Z"/>
  <path class="cls-9" d="M82.6,128.34a59.21,59.21,0,0,0,13.23-.77l-.48-.36a55.12,55.12,0,0,1,.26,7.38c-.12,2.32-.93,4.23-3.1,5.3a18.53,18.53,0,0,1-7,1.51c-.69,0-1.54.2-2-.46a7.65,7.65,0,0,1-.64-1.69,18.85,18.85,0,0,1-.78-3.56,19.33,19.33,0,0,1,.66-7.82.38.38,0,0,0-.73-.2,20,20,0,0,0,.13,11.78c.27.85.58,2.35,1.56,2.66a5.28,5.28,0,0,0,1.9,0q1.09-.06,2.16-.21a19.63,19.63,0,0,0,3.86-.88,6.31,6.31,0,0,0,4.44-4.41,16.42,16.42,0,0,0,.28-4.2c0-1.75-.12-3.49-.27-5.23a.38.38,0,0,0-.47-.36,58.6,58.6,0,0,1-13,.74c-.48,0-.48.73,0,.75Z"/>
</svg>
