<svg id="Layer_1" data-name="Layer 1" xmlns="http://www.w3.org/2000/svg" viewBox="0 0 136 227">
  <defs>
    <style>
      .cls-1 {
        fill: #aad6e5;
      }

      .cls-2 {
        fill: #e8e0c8;
      }

      .cls-3, .cls-5 {
        fill: #846447;
      }

      .cls-4 {
        fill: #ea7b65;
        opacity: 0.5;
      }

      .cls-5, .cls-7, .cls-9 {
        stroke: #846447;
        stroke-miterlimit: 10;
      }

      .cls-5, .cls-7 {
        stroke-width: 0.25px;
      }

      .cls-6 {
        fill: #fff;
      }

      .cls-7, .cls-9 {
        fill: none;
      }

      .cls-8 {
        fill: #ec9121;
      }

      .cls-9 {
        stroke-width: 0.5px;
      }
    </style>
  </defs>
  <title>venner_6</title>
  <rect class="cls-1" x="0.5" y="0.5" width="136" height="227"/>
  <path class="cls-2" d="M84.5,118.5c.27-1,3.38-.52,4-2,.45-1.08-.67-2.63-2-4a48.61,48.61,0,0,0,2.82-8.34c.64-2.64,5.88-25.85-6-35-6.08-4.67-15.62-5.68-21.52.6-6.68,7.11-6.17,20.8-2.51,28.35,2,4.17,4.37,5.17,6,10.86.67,2.32,2.49,8.62,0,13.27l-.14.24c8.35,4.07,18.91,5.09,27.13,1.23C86,120.77,84.28,119.27,84.5,118.5Z"/>
  <path class="cls-2" d="M44.56,69.21c-.37-8.88.34-16.63,5-20.73,1-.92,4.23-3.38,5.25-7.56.74-3,.28-6.54-1-6.9-2-.56-5.59,6.92-6.25,6.58-.46-.25,1.88-3.72,1.65-8.22-.18-3.43-1.87-8-4.61-8.55-3.21-.6-6.69,4.64-8.21,7.89-3,6.4-2,12.72-1.65,15.12,1.49,10.26.28,13.36-.44,20.81A21.43,21.43,0,0,0,44.56,69.21Z"/>
  <path class="cls-2" d="M109,81.64c1.07-8.82,1-16.6-3.3-21.06-1-1-4-3.71-4.64-8-.49-3,.25-6.54,1.54-6.8,2-.4,5,7.35,5.7,7.06.48-.21-1.57-3.86-1-8.33.45-3.4,2.5-7.86,5.27-8.15,3.25-.34,6.3,5.16,7.56,8.52,2.48,6.62,1,12.84.43,15.21-2.31,10.1-1.34,13.29-1.23,20.77A21.39,21.39,0,0,1,109,81.64Z"/>
  <path class="cls-3" d="M65.5,83.5c4.28-3.31,10.1,1.9,14.6-1.49s2.24-11.31,3.61-11.5c1.78-.25,7.7,15.91,4.28,32.87-.61,3-.85,2.76-1.49,6.12-1.78,9.33-.63,14.8,0,25,1.06,17.24-1.12,19.7,2,23,4.25,4.49,13.64,5.58,19,2,17.24-11.51,6.55-80.43-26.75-93.92-7.1-2.88-19-4.77-25,1-6.39,6.19.42,15.1-2.63,32.22C49.42,119.68,35.35,123,36.5,138.5c.87,11.79,9.74,23.61,16,23,9.6-.94,13.71-31.18,16-48a17,17,0,0,0,0-5c-.65-4.26-2.67-6.17-4-9C62.09,94.37,61.91,86.28,65.5,83.5Z"/>
  <ellipse class="cls-4" cx="70.1" cy="98.43" rx="2.61" ry="2.64"/>
  <ellipse class="cls-4" cx="86.14" cy="96.75" rx="2.6" ry="2.64"/>
  <path class="cls-5" d="M73.69,99.61c.52-1.56,8.56-2.37,9.67-1.2.69.74-1.35,2.19-1.52,2.31A6.43,6.43,0,0,1,78,102C75.6,102,73.39,100.53,73.69,99.61Z"/>
  <path class="cls-6" d="M73.51,99c-.15-.48,3-1.36,5.91-1.55,1.08-.06,3.28-.1,3.44.27s-1.84,1.11-3.7,1.43C76.67,99.59,73.64,99.44,73.51,99Z"/>
  <circle class="cls-7" cx="70.27" cy="88.27" r="4.23"/>
  <circle class="cls-7" cx="83.53" cy="86.39" r="4.23"/>
  <path class="cls-3" d="M75,88.1a2.87,2.87,0,0,1,4.19-.5c.36.34.89-.19.54-.53a3.63,3.63,0,0,0-5.37.65c-.27.41.38.78.64.38Z"/>
  <path class="cls-3" d="M78,90.05c-.14,1.68.73,3.16,1.26,4.69.16.45.88.26.72-.2-.5-1.46-1.36-2.89-1.23-4.49,0-.48-.72-.48-.75,0Z"/>
  <path class="cls-8" d="M45.25,79.38c-.28-3.46-.56-6.89-.69-10.17a21.43,21.43,0,0,1-10.27-1.56c-.46,4.8-.71,11.41.11,22.91,1,13.21,1.47,20,4.28,27.94a52.6,52.6,0,0,0,2,5.08c2.77-5.52,6.53-10.46,9.72-15.84C47,100.73,46.21,91.11,45.25,79.38Z"/>
  <path class="cls-8" d="M106.07,123.76s-3.34-5-4.61-5.91c0,0-.25-.06-.31-.22s0-.1,0-.11c-.08-.25-16.7,9.63-28.59,5.91-4.69-1.46-13.66-6.6-14.76-7.31l-.37-.25a20.27,20.27,0,0,1-7-8.13c-3.19,5.38-7,10.32-9.72,15.84,1.42,3,2.53,4.5,3.42,6.76a21.28,21.28,0,0,1,1.1,3.94c2.29,10.9,7.44,22.41,7.23,32.87-.32,15.91-12.85,20.48-9.53,26.63,4.39,8.12,25.94-.47,48.65,1.64,1.46.14,3.61.28,5.26-1,4.56-3.49-.77-12.45.66-25.31a19.77,19.77,0,0,1,.77-4,28.25,28.25,0,0,1,2.45-5.63c1.35-2.29,3.67-7.61,8-20.66a11.08,11.08,0,0,1-.33-2.63c0-3.32,1.4-4.35,1.31-6.57C109.62,128.1,108.89,128.8,106.07,123.76Z"/>
  <path class="cls-8" d="M107.46,91.7c.56-3.43,1.11-6.83,1.51-10.09a21.39,21.39,0,0,0,10.35-.73c.08,4.82-.2,11.43-1.94,22.83-1.59,10.38-4,18.72-6.5,27.51-1.48,5.22-2.84,9.55-3.83,12.59a39.93,39.93,0,0,0-7-24.27C104,112.83,105.57,103.31,107.46,91.7Z"/>
  <path class="cls-9" d="M73,88.85a3.39,3.39,0,0,0-2.29-.53,3.46,3.46,0,0,0-2,1"/>
  <path class="cls-9" d="M85.56,87.36a3.4,3.4,0,0,0-4.27.44"/>
</svg>
