<?xml version="1.0" standalone="no"?>
<!DOCTYPE svg PUBLIC "-//W3C//DTD SVG 20010904//EN"
 "http://www.w3.org/TR/2001/REC-SVG-20010904/DTD/svg10.dtd">
<svg version="1.0" xmlns="http://www.w3.org/2000/svg"
 width="260.000000pt" height="260.000000pt" viewBox="0 0 260.000000 260.000000"
 preserveAspectRatio="xMidYMid meet">
<metadata>
Created by potrace 1.11, written by Peter Selinger 2001-2013
</metadata>
<g transform="translate(0.000000,260.000000) scale(0.100000,-0.100000)"
fill="#000000" stroke="none">
<path d="M1175 1583 c-16 -8 -52 -29 -79 -46 -52 -33 -151 -54 -172 -36 -13
10 -145 7 -241 -6 l-53 -8 0 -278 0 -279 33 0 c17 0 40 7 50 15 16 11 26 11
74 -6 31 -10 71 -19 89 -19 44 0 92 29 104 64 8 22 14 27 27 20 30 -13 241
-17 287 -5 36 9 51 8 82 -5 26 -11 58 -15 102 -12 58 4 67 7 98 41 20 20 41
37 48 37 23 0 46 36 46 73 0 33 3 37 25 37 14 0 41 7 60 14 34 15 35 17 35 70
0 45 -4 57 -20 66 -14 8 -20 21 -20 46 0 26 -5 37 -22 45 -17 7 -8 7 32 2 57
-7 113 -8 165 -3 17 2 62 -3 100 -10 61 -11 75 -11 108 3 28 12 37 22 37 40 0
14 -6 29 -12 34 -17 12 -172 70 -223 82 -163 40 -698 57 -760 24z m-192 -109
c3 -4 -14 -30 -38 -58 -55 -65 -65 -91 -65 -172 0 -79 16 -149 43 -187 l19
-28 -28 -30 c-19 -20 -37 -29 -60 -29 -27 0 -32 4 -38 31 -3 17 -6 71 -6 120
0 101 24 178 86 280 40 66 69 90 87 73z"/>
</g>
</svg>
