<svg id="Layer_1" data-name="Layer 1" xmlns="http://www.w3.org/2000/svg" width="230" height="210" viewBox="0 0 230 210"><defs><style>.cls-1{fill:#1f2531;}.cls-2{fill:#c0e2ef;}</style></defs><title>ven</title><path class="cls-1" d="M227.09,105c0,57.95-50.18,104.93-112.09,104.93S2.91,163,2.91,105,53.09.07,115,.07,227.09,47.05,227.09,105Z"/><path class="cls-2" d="M140.48,101.7c10.3-7.26,17-18.8,17-31.76,0-21.91-19-39.74-42.45-39.74S72.55,48,72.55,69.94c0,13,6.67,24.5,17,31.76C62,111.38,42.27,136.31,42.27,165.46H55.41c0-30.76,26.73-55.79,59.59-55.79s59.59,25,59.59,55.79h13.14C187.73,136.31,168.05,111.38,140.48,101.7ZM85.69,69.94C85.69,54.8,98.84,42.5,115,42.5s29.31,12.3,29.31,27.44S131.16,97.38,115,97.38,85.69,85.07,85.69,69.94Z"/></svg>
