<svg id="Layer_1" data-name="Layer 1" xmlns="http://www.w3.org/2000/svg" width="240" height="200" viewBox="0 0 240 200"><defs><style>.cls-1{fill:#c0e2ef;}.cls-2{fill:#1f2531;}</style></defs><title>ven2</title><path class="cls-1" d="M85.6,155.56,51.11,171.48a31.79,31.79,0,0,0-5.54,3.33c20.11,14.35,46.07,23,74.43,23,28.16,0,53.95-8.52,74-22.67a31.53,31.53,0,0,0-6.08-3.45L151,156.06c-4.77-2-7.79-6.14-7.79-10.66V133.14a48.32,48.32,0,0,0,3.5-3.8,68.28,68.28,0,0,0,11.48-19.58c4.73-1.23,8.22-4.94,8.22-9.34V87.34a9.21,9.21,0,0,0-3.86-7.26V61.16S167.13,31.72,120,31.72,77.48,61.16,77.48,61.16V80.08a9.19,9.19,0,0,0-3.87,7.26v13.08A9.59,9.59,0,0,0,79,108.66c3.87,14.24,14,24.48,14,24.48v12C92.94,149.46,90.12,153.47,85.6,155.56Z"/><path class="cls-2" d="M122,2.2C58.15,1.28,5.52,44.32,4.43,98.33,3.81,129,19.94,156.48,45.62,174.78a31.46,31.46,0,0,1,5.49-3.3L85.6,155.56c4.52-2.09,7.34-6.1,7.34-10.46v-12s-10.13-10.25-14-24.48a9.59,9.59,0,0,1-5.34-8.24V87.33a9.19,9.19,0,0,1,3.86-7.25V61.16S72.88,31.71,120,31.71s42.53,29.45,42.53,29.45V80.08a9.16,9.16,0,0,1,3.86,7.25v13.09c0,4.4-3.49,8.1-8.22,9.34a68.41,68.41,0,0,1-11.48,19.58,50.19,50.19,0,0,1-3.5,3.8V145.4c0,4.51,3,8.65,7.79,10.66l36.93,15.63a31.19,31.19,0,0,1,6.07,3.44c24.9-17.58,41-43.86,41.59-73.46C236.67,47.66,185.81,3.12,122,2.2Z"/></svg>
