<svg id="Layer_1" data-name="Layer 1" xmlns="http://www.w3.org/2000/svg" viewBox="0 0 136 227">
  <defs>
    <style>
      .cls-1 {
        fill: #7fc7e1;
      }

      .cls-2 {
        fill: #cbb5ac;
      }

      .cls-3, .cls-5, .cls-6 {
        fill: none;
      }

      .cls-3 {
        stroke: #b29b93;
      }

      .cls-3, .cls-5, .cls-6, .cls-8 {
        stroke-miterlimit: 10;
      }

      .cls-4 {
        fill: #f7e3d0;
      }

      .cls-5 {
        stroke: #c6c4c2;
      }

      .cls-6 {
        stroke: #e2dfde;
      }

      .cls-7 {
        fill: #c49a88;
      }

      .cls-8 {
        fill: #c18778;
        stroke: #a57053;
      }
    </style>
  </defs>
  <title>naked_8</title>
  <rect class="cls-1" x="-45.53" y="46.32" width="226.48" height="135.13" transform="translate(-46.43 181.16) rotate(-89.78)"/>
  <path class="cls-2" d="M28.42,189.73a4.68,4.68,0,0,1,1.52-3.53c.32-4,.44-7.31.5-9.59.1-3.94.06-7.35,0-12.11-.09-7.74-.23-7.56,0-8.58.94-4.07,3-6.44,2-9.59a4.94,4.94,0,0,0-1.51-2.5c-1.05-.83-2-.7-3-1-2.45-.73-4.17-3.77-4.54-6-.62-3.62,2.05-5.54,1.51-9.08a6.19,6.19,0,0,1,0-2.5,17.43,17.43,0,0,1,1-2.5c2.12-.42,2.31-.45,2.5-.51,2.08-.54,2.08-2.75,4.54-5.54s4-2.27,5.55-5c.39-.67.2-.54,1.51-3.53,1.73-4,1.81-3.65,2-4.55.59-2.5,0-4.92-.51-7.06s-1.13-3.28-.5-4.54c.39-.84,1.26-1.67,2-1.52s1.27,1.38,1.52,2c.12.3,1.59,2.39,4.54,6.56a27.54,27.54,0,0,0,7.06,7.57,21.56,21.56,0,0,0,7.06,3c5.17,1.4,7.63.65,20.19,0,8.84-.45,9.23-.15,11.11-1a38.07,38.07,0,0,0,11.1-8.58c1.42-1.57,2.83-3.33,3.53-3,.41.2.53,1.09,0,4-.93,5.15-2.13,7-3,10.6-1.12,4.51.17,4-1,9.08a75.42,75.42,0,0,1-3,9c-1,2.76-1.37,3.42-2,5.55-1,3.33-.75,3.6-1.51,5-1.4,2.64-2.84,2.8-3.53,5-.5,1.62.09,2.18,0,4-.18,3.47-2.29,5-3.34,7.3-2,4.29,1,8.33,2.5,14.16,1.91,7.18,1.14,15.52-1,19.68C92.82,191.18,38.09,261.7,28.42,189.73Z"/>
  <path class="cls-3" d="M58.2,140.27a14,14,0,0,0,2.42,6,5.06,5.06,0,0,0,3.09,2"/>
  <path class="cls-2" d="M96.05,31.27c0,.19-.64.41-3.53.51-.36.27-1.67,1.35-1.52,2.5.09.57.52,1,2,2s2.59,1.74,3,2c3.33,2.17,3.8,3.79,5,3.53.94-.19,1.46-1.32,2-2.5a4.91,4.91,0,0,0,.51-4c-.54-1.27-2-1.17-2-2s1.5-1.12,2-2.5-.5-1.81-1-4.54.25-3.05-.5-4.54-2-1.79-2-3c0-1.07.83-1.31,1-2.5.19-1.45-.84-2.69-1.52-3.53-1-1.25-1.77-1.49-5-3.53-3.12-2-2.86-2-4.07-2.58A15.54,15.54,0,0,0,84.91,5a16.22,16.22,0,0,0-5,.5c-3.53.84-5.36,2-8.57,3.54-4.64,2.19-4.17,1.32-9.09,3.53-6.4,2.9-5.64,3.71-10.6,5.55a27.9,27.9,0,0,0-6.56,3,14.61,14.61,0,0,0-3.53,3A13.27,13.27,0,0,0,39,29.75c-1.67,7.31-1.1,15.68-2.5,20.69a6.46,6.46,0,0,1-2,3.54A23.72,23.72,0,0,1,32,55.49c-2.28-1.11-2.5-1-2.5-1-.83.35-.18,2.24-1,5.56a29.17,29.17,0,0,0-1.07,3.56c-.33,1.84-.49,2.75,0,3.53s2,2.16,2,2.5a1,1,0,0,1,0,.24c0,.11,0,.23,0,.35-.06.33-.38,1.17-.45,1.42-.29,1.16,1.61,2.69,1.62,2.68l-.1-.15c2.89-.57,3-1,3-1,.17-.61-1.13-1-2-2.5-.12-.22-1.3-2.37-.5-4,.71-1.47,2.38-1.38,2.5-2.5s-1.12-1.43-1-2.5,1.24-1.71,2-2c1.3-.5,2.23,0,5.05.5,1.61.3,3,.47,3.53.5,3.55.26,4.93-2.88,10.09-6,4.87-3,6.28-1.82,10.6-5.05,1-.75,1.62-1.32,5.05-5,8-8.78,11.19-9.68,13.54-12.79a13.36,13.36,0,0,1,3.13-2.92,3.76,3.76,0,0,1,2-1c1.16-.07,1.84.74,3,1.52C93.32,31.11,96.08,30.87,96.05,31.27Z"/>
  <path class="cls-4" d="M104.12,39.85c.4.67,0,1.39,0,2-.06,1.17.88,1.34,2.5,3.54a8.54,8.54,0,0,1,1.51,4.53,16.24,16.24,0,0,0,.25,2.78c.2.9.38,1.19.51,2a9.51,9.51,0,0,1,0,2.5c-.45,4.8.22,5.06-.51,7.07-.32.91-.62,1.31-.5,2,.21,1.23,1.32,1.26,2,2.5,1,1.83-.55,3.16.5,5.05.53.93.9.56,2,2a5.43,5.43,0,0,1,1.52,3.53c-.06.9-.44.93-.51,2a5.27,5.27,0,0,0,.51,2.5c.56,1.21,1.16,1.35,1.51,2,1.25,2.33-2.71,7.24-6.06,10.1-1.6,1.36-2,1.15-3.53,2.49-2.23,2-2.14,3-4.29,4.79-.94.78-.58.28-4,2.5a13.86,13.86,0,0,1-3.53,2,13.61,13.61,0,0,1-3.53.5,43,43,0,0,1-4.54,0c-5.43-.37-8.4,1.16-15.64,1a40.94,40.94,0,0,1-6.06-.5,17.8,17.8,0,0,1-5.55-1.51,15.63,15.63,0,0,1-4-2.94c-2.14-2-1.8-2.28-6-7.56-2.58-3.21-3.33-3.88-3.53-5a3.37,3.37,0,0,0-1-2,1.94,1.94,0,0,0-1-.5c-1.38-.15-2.45,1.88-2.5,2a5.16,5.16,0,0,0-.51,2.5c0,1.39.45,1.71,1,4a14.77,14.77,0,0,1,.5,3,11.38,11.38,0,0,1-.5,3.53c-.29,1-.44,1-.51,1-.46.07-1-1.42-2-4C37.06,97.7,37,98.08,36,95.3a45.44,45.44,0,0,1-1.52-4.53,38.61,38.61,0,0,1-1-5.52c-.83-6.3.28-6.1-.51-8.58-.1-.31-.65-2,0-2.5.32-.25.77-.13,1-.5a1.19,1.19,0,0,0,0-1c-.2-.5-.59-.69-1-1a4.74,4.74,0,0,1-1.51-2,3.26,3.26,0,0,1,0-2.49c.48-1,1.25-.77,2-2A2.73,2.73,0,0,0,34,63.6a2.31,2.31,0,0,0-.5-1.51c-.27-.32-.46-.3-.51-.51-.11-.48.69-1.22,1.52-1.51a3.44,3.44,0,0,1,2,0c1.5.32,3.86.84,5.56,1a7.68,7.68,0,0,0,3,0c1.49-.39,2.09-1.24,3.54-2.5A28.54,28.54,0,0,1,55.68,54c1.84-.83,3.53-1.51,3.53-1.51,1.3-.51,1.72-.62,2.5-1a15.5,15.5,0,0,0,3.05-2.08c2.82-2.38,6.18-6.24,9.08-9.08,3.63-3.56,5.83-4.82,8.58-7.57l4-4c.07-.07.19-.39.5-.51s.78.07,1.52.51c.93.57,1,.7,1.51,1,1.11.66,1.21.31,2.5,1a3.39,3.39,0,0,0,1.51.51,2.18,2.18,0,0,0,.51,0,3,3,0,0,0-2.5,0c-.38.24-.59.67-1,1.52a3.28,3.28,0,0,0-.54,1.51A2.48,2.48,0,0,0,91,35.81a3.12,3.12,0,0,0,1.51,1c1,.46.54.46,3,2a19.72,19.72,0,0,1,3,2,5.75,5.75,0,0,0,1.08,1,2.24,2.24,0,0,0,1,.5,2.13,2.13,0,0,0,1.51-.5,4.18,4.18,0,0,0,1.45-2.21.06.06,0,0,1,0-.06c0-.19,0-.24,0-.26S104,39.58,104.12,39.85Z"/>
  <path class="cls-5" d="M34.48,80.25A7.63,7.63,0,0,1,37,83.79c.31,1,.08,1.12.5,2.49A36.89,36.89,0,0,0,39,89.82h1"/>
  <path class="cls-5" d="M103.62,53l4.54,5.55"/>
  <path class="cls-6" d="M106.64,51l1,2"/>
  <path class="cls-5" d="M34,75.68a5.12,5.12,0,0,1,1.52.5c2.66,1.44,2.5,4.8,5,9.6a26.27,26.27,0,0,0,1.52,2.49"/>
  <path class="cls-5" d="M36.49,73.16H35"/>
  <path class="cls-3" d="M42.55,45.9c1.33-.94,3-2.14,5.05-3.53,3.55-2.45,6.66-4.48,9.08-6,4.36-2.82,6.53-4.22,8.08-5.05,6-3.2,5-1.59,10.6-4.54,1-.51,2.61-1.62,3.53-1,.7.47.42,1.55,1,3a6.72,6.72,0,0,0,2.5,3"/>
  <path class="cls-3" d="M45.58,50.44,47.1,56"/>
  <path class="cls-3" d="M78.89,7.55l-2.5,11.61"/>
  <path class="cls-3" d="M76.87,8.06l-1.51,6.56"/>
  <polyline class="cls-3" points="95.54 12.1 94.53 13.11 95.54 14.62 92.01 14.62 89.99 15.63 91 17.14 96.55 18.15 100.08 19.16 88.48 17.64 87.47 19.16 87.47 21.68 88.98 23.2 96.55 24.21 100.08 25.71 88.98 24.21 88.48 26.73 88.48 28.24 92.52 30.76 94.06 30.92 97.56 31.27 100.08 32.79"/>
  <line class="cls-3" x1="95.04" y1="20.68" x2="94.02" y2="22.18"/>
  <polyline class="cls-3" points="94.53 25.54 94.02 28.24 95.98 25.54"/>
  <polyline class="cls-3" points="42.05 50.95 38.01 52.97 36.49 60.04"/>
  <polyline class="cls-3" points="28.67 63.31 31.2 61.8 33.21 61.8 32.58 65.12 31.2 70.88 29.18 70.38"/>
  <polyline class="cls-3" points="31.91 67.89 32.14 66.96 30.81 64.62 29.94 63.06 31.95 64.07 32.45 63.57"/>
  <polyline class="cls-3" points="32.96 56 33.97 57.52 33.47 59.02"/>
  <path class="cls-7" d="M69.8,125.64a4.21,4.21,0,0,0-2,1.52,5.08,5.08,0,0,0-.51,4c.22,1.15.45,2.4,1.51,3a3.57,3.57,0,0,0,3,0,5.43,5.43,0,0,0,3-3.53,4.76,4.76,0,0,0,0-3,3.66,3.66,0,0,0-1.52-2A4,4,0,0,0,69.8,125.64Z"/>
  <path class="cls-8" d="M71.3,128.16a2,2,0,0,0-2,2v0c.09.37.45.62,1,1a2.29,2.29,0,0,0,1,.5,1.64,1.64,0,0,0,1.52-.5,1.67,1.67,0,0,0,0-1.51C72.77,129.5,72.33,128.28,71.3,128.16Z"/>
  <path class="cls-7" d="M28.67,122.36l.51,3-.51,2-1,1-1.52.51-.5-1-.11-.51c0-.06-.39-2-.4-2l1-2Z"/>
  <path class="cls-8" d="M27.09,123.27c-.52-.47-1.86.48-2.21,1.31a2.15,2.15,0,0,0,0,1.28,1.27,1.27,0,0,0,.25.84.79.79,0,0,0,1.09,0,3.25,3.25,0,0,0,.83-1.45C27.11,125,27.56,123.71,27.09,123.27Z"/>
  <path class="cls-3" d="M86.64,162.71l2.77-3.28"/>
  <path class="cls-3" d="M85.63,157.66q2.27-2.91,4.54-6a28.13,28.13,0,0,0,2.5-3.53,21.47,21.47,0,0,0,1-2"/>
  <path class="cls-3" d="M50.39,184.07c-.57.31-.65,1.66,0,2.5,1,1.22,3.1.66,3.33,0C54,185.69,51.31,183.53,50.39,184.07Z"/>
</svg>
