<svg id="Layer_1" data-name="Layer 1" xmlns="http://www.w3.org/2000/svg" viewBox="0 0 136 227">
  <defs>
    <style>
      .cls-1 {
        fill: #ec9121;
      }

      .cls-2 {
        fill: #dbb0a9;
      }

      .cls-3, .cls-7 {
        fill: none;
        stroke-miterlimit: 10;
      }

      .cls-3 {
        stroke: #c69185;
      }

      .cls-4 {
        fill: #cc4d2f;
      }

      .cls-5 {
        fill: #d8cfa9;
      }

      .cls-6 {
        fill: #c69185;
      }

      .cls-7 {
        stroke: #896876;
      }

      .cls-8 {
        fill: #ba758b;
      }

      .cls-9 {
        fill: #b7867e;
      }

      .cls-10 {
        fill: #998987;
      }

      .cls-11 {
        fill: #ad936d;
      }

      .cls-12 {
        fill: #967672;
      }
    </style>
  </defs>
  <title>Artboard 29</title>
  <rect class="cls-1" x="0.01" y="0.01" width="135.97" height="226.99"/>
  <path class="cls-2" d="M89.76,35.52c-.61-.53-1.18-1-1.79-.9-.33.06-.42.21-1.37.9a6.17,6.17,0,0,1-1.36.9c-.76.16-1.11-.51-2.69-1.36a5.75,5.75,0,0,0-2.56-.9h-.17a8.1,8.1,0,0,0-2.27.45c-1.68.4-1.47.42-1.79.45-1.9.21-2.57-.94-3.64-.45-.44.2-.74.74-1.36,1.79a4.83,4.83,0,0,0-.9,2.28c0,1.08.66,1.38.46,2.27-.15.63-.5.53-.9,1.36A5.82,5.82,0,0,0,69,45c-1.08.7-1.59.57-1.79.45-.57-.29-.7-1.26-.9-3.18-.16-1.44-.08-1.79-.45-2.27a2,2,0,0,0-2.28-.46c-.9.62-.74,2.69,0,4.1s1.53,1.3,2.73,3.18a6.75,6.75,0,0,1,.9,1.8c.39,1.29,0,1.79,0,4.1,0,2,.24,2.14,0,3.18a7.36,7.36,0,0,1-1.36,2.69,12.85,12.85,0,0,1-3.19,3.18c-2,1.4-4,1.71-7.72,2.28-4.08.61-4.49.18-7.29.9a16.19,16.19,0,0,0-5.56,2.36,15.27,15.27,0,0,0-4.55,5c-1.37,2.22-1.79,4.25-2.74,8.17-1.06,4.66-.83,6-2.17,11.6-.24,1-.38,1.54-.55,2.51a35.09,35.09,0,0,0-.46,7.73,28.3,28.3,0,0,1,.23,4.13,5.4,5.4,0,0,1-.23.9c-.9,3.06-.22,7.95-.22,7.95,1,6.87-2.69,10.37-1.14,19.33C31,139,31.78,139,32,142.42c.38,4.93-1.4,6.43,0,10,.58,1.46,1.05,1.68,1.36,3.19s.06,2.34,0,5.91v2.27c-.08,3.79-2.92,6.77-4.54,9.1-1.93,2.78-2.65,6.4-4.09,13.64a117.92,117.92,0,0,0-1.36,12.28c-.4,4.58-.47,6.83.89,9.09a10,10,0,0,0,4.09,3.64c.25.13,5.38,2.69,9.1.46.69-.41.43-.44,3.59-3.18,1.3-1.11,1.9-1.58,2.74-2.28a73.83,73.83,0,0,0,5.45-5c3.31-3.47,1.93-5.38,5-10.45,3.59-6,6.2-4.56,8.64-10,1.31-2.89,1.51-5.38,4.09-8.18,1.74-1.87,3.09-2.26,4.1-2.27a5,5,0,0,1,2.69.89A8.5,8.5,0,0,1,77,175.58c6.16,15.36.43-1.79,5.45,13.18,3.37,10,3.59,10.86,5,11.83,2.1,1.47,4.62,1.8,6.37,4.55.9,1.44.5,1.79,1.36,3.18,2.22,3.59,6.79,4.38,7.74,4.55.78.14,5.27.89,8.63-1.37,7-4.62,4.49-18.93,3.65-23.64-1.44-8.13-4.39-14-7.29-19.56-7.5-14.52-12.15-14.74-12.73-22.73-.53-7.26-1.79-15-1.79-15-.11-2.13-.07-2.69-.24-5.23-.4-6.27-1-7.64-.68-11.14s1.21-6.4,1.37-6.37-.25,2.34-.45,6.37a41.45,41.45,0,0,0,0,5.46c.28,4.23,1,5.13,1.36,5.45.56.58.6.28,2.69,1.79a6.55,6.55,0,0,0,2.28,1.37,4.84,4.84,0,0,0,2.27,0,5.56,5.56,0,0,0,3.18-1.8c.9-1.12.51-1.79,1.36-3.64a18,18,0,0,1,1.8-2.69c1.36-2.26.08-3.75,0-9.1,0-2.81.29-3.91.22-5.46a10.81,10.81,0,0,0-.22-1.79s-.42-2.6-1.37-10c-1.18-9.33,2.08-11.42-.45-16.37a14,14,0,0,0-4.55-5c-1.55-1.05-1.79-.73-6.82-2.69-5.9-2.34-4.55-2.37-7.28-3.18-1.65-.49-2.86-.69-3.64-1.79a4.64,4.64,0,0,1-.44-3.64c.42-1.47,1.24-1.46,2.69-3.64a16.64,16.64,0,0,0,1.79-3.64,25.71,25.71,0,0,0,.9-4.09c.27-1.6.43-3,.45-3.18.31-2.73.11-2.82.46-3.64.5-1.21,1.11-1.43,1.36-2.69a4.2,4.2,0,0,0,.08-1.17A5,5,0,0,0,89.76,35.52Z"/>
  <path class="cls-1" d="M45.63,101c-.48,0-.15,3.65-1.79,8.63a23.23,23.23,0,0,0-1.36,4.1,14.69,14.69,0,0,0,.46,6.39c.49,2.07.26,2.58-.45,20.46a12.89,12.89,0,0,0,.9,4.55c.36,1,.59,1.26.9,1.36,1.05.35,2.75-1.5,3.64-3.18,1.11-2.09,1-4,.89-7.27,0,0-.13-3.88-.23-8.87s-.14-7.68,0-10.92a19.92,19.92,0,0,0-.22-5.23c-.33-1.72-.7-2-1.37-4.55C46.05,102.81,46,101,45.63,101Z"/>
  <path class="cls-3" d="M57.93,67.35a7.76,7.76,0,0,0,2.69,2.27c1.79.9,3,.54,5,1.37a9.32,9.32,0,0,1,3.18,2.27"/>
  <path class="cls-3" d="M73.43,74.63a5.81,5.81,0,0,1,2.69-1.8c1.39-.39,2.13,0,3.64,0,2.3,0,3-1,5.46-1.79a14.45,14.45,0,0,1,6.37-.45"/>
  <path class="cls-3" d="M45.63,99.63a40.91,40.91,0,0,0,1.37-5A13.54,13.54,0,0,0,47.44,91a9.55,9.55,0,0,0-2.26-5.46"/>
  <path class="cls-3" d="M60.65,94.64a1.72,1.72,0,0,1,1.37,0c.06,0,1.36.47,1.36,1.36a1.27,1.27,0,0,1-.45.9,2.27,2.27,0,0,1-2.69,0,1.44,1.44,0,0,1-.45-.9A1.5,1.5,0,0,1,60.65,94.64Z"/>
  <path class="cls-3" d="M106.61,111c-2.4-1-3.06-2-3.19-2.69-.19-1.23.9-2.07.46-3.18-.39-.9-1.33-.76-1.79-1.79a3.28,3.28,0,0,1,0-2.27c.42-1.62,1.3-1.87,1.79-3.18.2-.52.2-.8,0-3.64-.22-3.26-.29-4.08-.46-5.91-.23-2.69,0-3.11-.44-3.64-.85-1-1.86-.37-4.56-1.37-1.72-.63-2.12-1.18-2.69-.89-1.22.55-1.34,3.58-.46,4.09.43.23.85-.38,1.8-.45,1.74-.14,3.32,1.57,3.18,1.79S97,86.36,92.06,85.59c-1.23-.19-2.44-.29-3.18.46a2.18,2.18,0,0,0-.45,2.28c.5,1.15,2.16,1.31,2.69,1.36,1.79.16,2.11-.73,3.64-.46A4.48,4.48,0,0,1,97.45,91c.08.12.9,1.36.46,1.79s-1.53-.31-3.64-.9c-1.62-.45-4.36-1.23-6.37,0-.68.42-1.52,1.22-1.36,1.8,0,.13.19.51,1.79.89a31.16,31.16,0,0,0,3.59.45c1.39.23,2.93.49,3.18,1.36a1.94,1.94,0,0,1-.89,1.8,2.3,2.3,0,0,1-1.95.39c-.43-.15-.54-.37-.7-.31-.35.15-.06,1.22,0,3.18a17,17,0,0,0,0,1.79,6.08,6.08,0,0,0,.9,3.19,4.9,4.9,0,0,0,3.18,1.79"/>
  <path class="cls-3" d="M87.48,143.29a11.15,11.15,0,0,0-3.59.9,9.53,9.53,0,0,0-2.27,1.37,9.34,9.34,0,0,0-2.28,2.69,10.33,10.33,0,0,0-.9,2.27"/>
  <path class="cls-3" d="M52.92,143.29c1.37.62,2.47,1.08,3.19,1.37,1.79.73,2.69,1,3.18,1.79a3.3,3.3,0,0,1,.46,1.79"/>
  <path class="cls-3" d="M45.42,148.52a10.81,10.81,0,0,1,3.64,2.28c.89.84.67,1,2.27,2.69.89,1,1.23,1.23,1.37,1.79.2.9-.35,1.2-.46,2.69v2.28c1.18,2.56,1.07,3.51.68,3.86s-.64.16-.89.46c-.49.54,0,1.73.44,2.69l-.3.34c-.25.27-.7.72-1.52,1.48-1.26-1.3-1.67-1.46-1.79-1.37s.37,1,0,1.79a1.67,1.67,0,0,1-1.37.9c-1.51,0-2.69-3.22-4.09-4.1l-1.09-.44c-.6-.32-.67-.36-.76-.32-.49.18.12,1.87-.45,2.27s-1.31-.42-3.59-1.79c-.7-.43-1-.43-1.31-.76-.9-.82-.79-1.79-1.43-2-.25-.08-.67-.07-1.36.46"/>
  <path class="cls-3" d="M43.84,156.48A17.76,17.76,0,0,0,52,164.67"/>
  <path class="cls-3" d="M46.1,151a6.41,6.41,0,0,1,2.28,2.29,9.18,9.18,0,0,1,.89,5c-.1,1.41-.45,2.07,0,2.69a2.84,2.84,0,0,0,2.28.9"/>
  <path class="cls-3" d="M40.19,158.3c.73.9,1.49,1.8,2.28,2.69,2.12,2.48,4.26,4.75,6.36,6.82"/>
  <path class="cls-4" d="M65.2,37.34A24.13,24.13,0,0,1,72,34.16c2.1-.61,4.49-.72,9.09-.9,7.06-.29,8.23.13,9.11.9,2,1.79,1.61,4.56,2.26,4.54s2.1-4,.9-7.72c-.82-2.6-2.55-4.14-4.55-5.92A17.21,17.21,0,0,0,82,21a12.76,12.76,0,0,0-6.37-.46,14,14,0,0,0-5,2.28,15,15,0,0,0-5.44,5A8.93,8.93,0,0,0,63.84,31c-.59,3,1.08,3.81.45,5.91s-2.69,1.89-4.1,5a4.7,4.7,0,0,0-.44,3.63,4.47,4.47,0,0,0,5.91,2.28c.26-.14.41-.28.45-.46.09-.35-.28-.72-.45-.89-1.9-1.9-2-1.92-2.28-2.28a4.78,4.78,0,0,1-.9-3.19,1.8,1.8,0,0,1,.46-1.36,2.28,2.28,0,0,1,1-.45h.33a1.62,1.62,0,0,0,.9-1.36,1.69,1.69,0,0,0,0-.45"/>
  <path class="cls-5" d="M91.8,38.93c-.36-.19-.22-.68-.45-1.36A6.19,6.19,0,0,0,90.22,36a5.11,5.11,0,0,0-.9-.9,1.79,1.79,0,0,0-.9-.45,2.51,2.51,0,0,0-1.14.23l-.68.68a7.27,7.27,0,0,1-.68.68,1.78,1.78,0,0,1-1.08.22,2.11,2.11,0,0,1-.74-.22c-1-.49-1.52-1-2.28-1.36a4.24,4.24,0,0,0-2-.68,5.36,5.36,0,0,0-1.59.22c-.54.15-.67.27-1.37.46a4.91,4.91,0,0,1-1.13.22,3.64,3.64,0,0,1-1.6-.22,1.83,1.83,0,0,0-.68-.23h-.9a2,2,0,0,0-1.14.68l-.19.24a7.84,7.84,0,0,0-.49.9A11.75,11.75,0,0,1,70,37.57a1.72,1.72,0,0,0-.23.52,3.21,3.21,0,0,0,0,.62v.45h0a2.34,2.34,0,0,0,.23.69,2.48,2.48,0,0,1,.23.68A1.79,1.79,0,0,1,70,41.66a23.86,23.86,0,0,0-.89,2.28c-.22.81-.13,1.1-.45,1.36a1.59,1.59,0,0,1-1.14.23,1.29,1.29,0,0,1-.68-.23c-.32-.25-.38-.65-.46-1.36s-.19-1.69-.22-2c-.18-1.5-.34-1.72-.46-1.8-.45-.42-1-.33-1.14-.68s.17-.24.46-.89a2.74,2.74,0,0,1,.46-.9,1.2,1.2,0,0,1,.22-.23,3.88,3.88,0,0,1,1.14-.68c.63-.25,1.21-.62,1.79-.89,1.6-.78,1.34-.72,1.8-.9a23.64,23.64,0,0,1,2.5-.68,15.66,15.66,0,0,1,1.79-.46,17.35,17.35,0,0,1,2.28,0,18.13,18.13,0,0,0,2.5-.22c1.38-.15,2.07-.21,2.5-.24,1.23-.07,1.18,0,3.19,0,2.22,0,2.69-.13,3.4.24a6.85,6.85,0,0,1,1.37.89,8.4,8.4,0,0,1,.89.9,5.41,5.41,0,0,1,.9,1.37c.33.72.11.67.46,1.8,0,.11.1.34,0,.45A.46.46,0,0,1,91.8,38.93Z"/>
  <path class="cls-5" d="M78.16,30.29h0a30.18,30.18,0,0,1,6.37.45c2.94.54,4.59,1.32,5.45.46s.56-2.26,0-3.18c-.42-.71-1.19-1.08-2.69-1.8a8.83,8.83,0,0,0-6.36-.89,5.86,5.86,0,0,0-1.8.44,3.36,3.36,0,0,0-1.79,1.8,3,3,0,0,0,0,1.79"/>
  <path class="cls-6" d="M73.79,161.51a7.68,7.68,0,0,1,1,2.05c.31.82.2.78.68,2.37a9.17,9.17,0,0,1,.68,2.69c0,.53-.09.46-.13,1.42v3.31a24.64,24.64,0,0,1-.42,2.69,3.12,3.12,0,0,1-.4,1.58c-.1.13-.35.47-.68.47s-.73-.44-1.1-1c-.13-.18-.11-.18-.41-.62s-.46-.69-.54-.79a2.94,2.94,0,0,1-.3-.53,7.49,7.49,0,0,1-.53-1.53,16.74,16.74,0,0,0-.82-1.9,16.1,16.1,0,0,1-.54-3.15,28.19,28.19,0,0,0-.68-3.16,16.45,16.45,0,0,0-.77-2c-.64-.63-.76-1.08-.7-1.39C68.33,160.7,72.29,159.73,73.79,161.51Z"/>
  <path class="cls-7" d="M73.13,172.65a3.92,3.92,0,0,0,1-.31,1,1,0,0,1,.55-.16.87.87,0,0,1,.55.32"/>
  <path class="cls-7" d="M73.27,173.13a1.29,1.29,0,0,1,.41-.16,1.28,1.28,0,0,1,.55,0"/>
  <path class="cls-7" d="M74.77,173.6H75"/>
  <path class="cls-7" d="M74.5,174.08a.32.32,0,0,1,.27,0,.49.49,0,0,1,.27.31"/>
  <path class="cls-7" d="M73.82,176.13a.35.35,0,0,0-.41.3h0c0,.18.23.29.28.32s.3.15.4,0,0-.33,0-.44A.36.36,0,0,0,73.82,176.13Z"/>
  <path class="cls-7" d="M74.23,176.13a.47.47,0,0,0,.13.15.59.59,0,0,0,.41.16"/>
  <path class="cls-8" d="M73.82,176.28a.23.23,0,0,0-.28.14v0c0,.12.35.26.41.16A.26.26,0,0,0,73.82,176.28Z"/>
  <path class="cls-9" d="M67.71,162.22a1.39,1.39,0,0,0-.82.79,10.36,10.36,0,0,0-.82,3c-.44,2.69-.22,2-.41,2.84a3.87,3.87,0,0,0-.14,2.05c.06.2.14.35.28.79s.17.74.27,1.1a5.31,5.31,0,0,0,.55,1.27A3.94,3.94,0,0,0,68,175.32a2.67,2.67,0,0,0,1.64.63,1.63,1.63,0,0,0,1-.31,1.12,1.12,0,0,1,.41-.32c.18,0,.29.13.68.16h.41v-.16c0-.09-.1-.08-.13-.16s0-.08,0-.16a.78.78,0,0,0-.14-.31c0-.11-.1-.21-.14-.32a2.52,2.52,0,0,1-.13-.47,5.8,5.8,0,0,0-.28-1c-.13-.33-.21-.27-.4-.63a4.07,4.07,0,0,1-.42-1.26c-.09-.44,0-.42-.13-1.11s-.14-.73-.28-1.58c-.09-.55-.06-.53-.13-1a13.57,13.57,0,0,0-.42-1.89c-.25-.84-.29-.61-.68-1.73-.29-.9-.43-1.47-.81-1.58A.66.66,0,0,0,67.71,162.22Z"/>
  <path class="cls-7" d="M70.4,174.83c0-.08.09-.19.13-.31a2.9,2.9,0,0,0,.14-.48,3.48,3.48,0,0,0,0-.79c0-.57,0-.75-.14-.95a.47.47,0,0,0-.13-.15"/>
  <path class="cls-3" d="M81.36,94.51a1.78,1.78,0,0,1,1.36,0c.06,0,1.36.48,1.36,1.37a1.25,1.25,0,0,1-.45.89,2.27,2.27,0,0,1-2.69,0,1.38,1.38,0,0,1-.44-.89A1.52,1.52,0,0,1,81.36,94.51Z"/>
  <path class="cls-10" d="M82.93,74.63a3,3,0,0,1,.46-.9c.66-.62,1.65,0,4.55,0h.46c4.27,0,5.67-.75,6.36,0,.24.27,0,.35,0,3.18,0,1.21.06,2.42,0,3.59A1.65,1.65,0,0,0,95,81.67c.28.39.66.43.68.69s-.37.26-.68.68a3.75,3.75,0,0,0-.46,2.27c0,.35.06.39,0,.46-.33.44-2-.66-4.31-.68a2.24,2.24,0,0,0-1.14.22A2.47,2.47,0,0,0,87.9,86.9a2,2,0,0,0,.23,1.6l.45.45.46.45a2.39,2.39,0,0,0,1.36.46,6.76,6.76,0,0,0,.9,0,9.84,9.84,0,0,0,2.1-.21c.63-.17.76-.29,1.13-.24a2.41,2.41,0,0,1,.9.46c.46.28.92.57,1.36.9a2.46,2.46,0,0,1,.9,1.37c0,.24.06.37,0,.45-.35.46-2.14-.79-5-1.37A7.2,7.2,0,0,0,90.19,91a7,7,0,0,0-2,.68,3.48,3.48,0,0,0-1.37.9c-.12.16-.63.81-.45,1.36s.61.64,1.79.9a37,37,0,0,0,4.32.68c1.79.2,2.32.27,2.5.68.24.56-.39,1.29-.46,1.36a2.1,2.1,0,0,1-1.58.68,3.35,3.35,0,0,1-1.37-.44c-.7-.29-1.24-.2-2.69,0-3.1.39-4.64.7-5.45,0-.62-.56-.74-1.47-.89-2.74a8.63,8.63,0,0,1,0-2.27,54.18,54.18,0,0,0,0-8.64,76.09,76.09,0,0,1,0-7.73A7.22,7.22,0,0,1,82.93,74.63Z"/>
  <path class="cls-3" d="M74.33,52.57a13.12,13.12,0,0,0,6.5,1.53,12.81,12.81,0,0,0,3.25-.51"/>
  <path class="cls-11" d="M76.62,45.71a1.35,1.35,0,1,0-1.34-1.35A1.35,1.35,0,0,0,76.62,45.71Z"/>
  <path class="cls-11" d="M85.62,46.6a1.35,1.35,0,1,0-1.35-1.34A1.34,1.34,0,0,0,85.62,46.6Z"/>
  <path class="cls-3" d="M74.91,52c-.26.57-.52,1.14-.77,1.71"/>
  <path class="cls-3" d="M81.8,46.21c-.16,1.21-.3,2.42-.45,3.59"/>
  <path class="cls-3" d="M74.52,40.33a3.65,3.65,0,0,1,2.27.45c.63.4.9.9,1.37.9a2.14,2.14,0,0,0,1.37-.9"/>
  <path class="cls-3" d="M89.08,42.12a6.19,6.19,0,0,1-1.8.46c-.69.06-1.92.17-2.27-.46a1.09,1.09,0,0,1,0-.9"/>
  <path class="cls-6" d="M71.28,136.19c3.46,0,3.47-5.38,0-5.38S67.81,136.19,71.28,136.19Z"/>
  <path class="cls-12" d="M68.26,161.12a.35.35,0,0,0,.29-.39.29.29,0,1,0-.57.11A.35.35,0,0,0,68.26,161.12Z"/>
  <path class="cls-12" d="M71.11,161.05a.35.35,0,0,0,.28-.39.34.34,0,0,0-.28-.28.33.33,0,0,0-.28.39A.34.34,0,0,0,71.11,161.05Z"/>
  <path class="cls-12" d="M71.82,159.84a.35.35,0,0,0,.29-.39.29.29,0,1,0-.57.11A.37.37,0,0,0,71.82,159.84Z"/>
  <path class="cls-12" d="M71.82,159.84a.35.35,0,0,0,.29-.39.29.29,0,1,0-.57.11A.37.37,0,0,0,71.82,159.84Z"/>
  <path class="cls-12" d="M73.31,161.76a.35.35,0,0,0,0-.68.35.35,0,0,0-.28.4A.37.37,0,0,0,73.31,161.76Z"/>
  <path class="cls-12" d="M73.31,161.76a.35.35,0,0,0,0-.68.35.35,0,0,0-.28.4A.37.37,0,0,0,73.31,161.76Z"/>
  <path class="cls-12" d="M75.73,160.34A.35.35,0,0,0,76,160a.29.29,0,1,0-.57.11A.35.35,0,0,0,75.73,160.34Z"/>
  <path class="cls-12" d="M74.67,163a.35.35,0,0,0,.28-.39.36.36,0,0,0-.28-.29.34.34,0,0,0-.28.4A.34.34,0,0,0,74.67,163Z"/>
  <path class="cls-12" d="M69.33,160.05a.33.33,0,0,0,.28-.39.33.33,0,0,0-.28-.28.35.35,0,0,0-.28.39A.33.33,0,0,0,69.33,160.05Z"/>
  <path class="cls-12" d="M69.4,162.33a.33.33,0,0,0,.28-.39.32.32,0,0,0-.28-.28.34.34,0,0,0-.28.39A.35.35,0,0,0,69.4,162.33Z"/>
  <path class="cls-12" d="M66.06,162.47a.34.34,0,1,0-.28-.28A.32.32,0,0,0,66.06,162.47Z"/>
  <path class="cls-12" d="M67.63,162.62a.35.35,0,0,0,.28-.39.29.29,0,1,0-.56.11A.34.34,0,0,0,67.63,162.62Z"/>
  <path class="cls-12" d="M66.84,160.2a.35.35,0,0,0,0-.68.34.34,0,0,0-.28.4A.34.34,0,0,0,66.84,160.2Z"/>
  <path class="cls-12" d="M67.48,165.46a.35.35,0,0,0,.29-.39.29.29,0,1,0-.57.11A.35.35,0,0,0,67.48,165.46Z"/>
  <path class="cls-12" d="M65.63,165.46a.35.35,0,0,0,.28-.39.33.33,0,0,0-.28-.28.33.33,0,0,0-.28.39A.33.33,0,0,0,65.63,165.46Z"/>
  <path class="cls-12" d="M66.84,164.07a.35.35,0,0,0,.28-.39.33.33,0,0,0-.28-.28.33.33,0,0,0-.28.39A.33.33,0,0,0,66.84,164.07Z"/>
  <path class="cls-12" d="M69.12,163.83a.35.35,0,0,0,.28-.39.34.34,0,0,0-.28-.28.33.33,0,0,0-.28.39A.34.34,0,0,0,69.12,163.83Z"/>
  <path class="cls-12" d="M70.54,162.47a.33.33,0,0,0,.28-.39.33.33,0,0,0-.28-.28.35.35,0,0,0-.28.39A.33.33,0,0,0,70.54,162.47Z"/>
  <path class="cls-12" d="M70.54,162.47a.33.33,0,0,0,.28-.39.33.33,0,0,0-.28-.28.35.35,0,0,0-.28.39A.33.33,0,0,0,70.54,162.47Z"/>
  <path class="cls-12" d="M72.6,162.9a.36.36,0,0,0,.29-.4.36.36,0,0,0-.29-.28.35.35,0,0,0-.28.39A.36.36,0,0,0,72.6,162.9Z"/>
  <path class="cls-12" d="M73.6,160.2a.34.34,0,0,0,.28-.4.35.35,0,0,0-.28-.28.34.34,0,0,0-.28.4A.35.35,0,0,0,73.6,160.2Z"/>
  <path class="cls-12" d="M73.31,159.27a.33.33,0,0,0,.28-.39.33.33,0,0,0-.28-.28A.35.35,0,0,0,73,159,.34.34,0,0,0,73.31,159.27Z"/>
  <path class="cls-12" d="M69.26,158.21a.34.34,0,0,0,.28-.4.35.35,0,0,0-.28-.28.34.34,0,0,0-.28.39A.35.35,0,0,0,69.26,158.21Z"/>
  <path class="cls-12" d="M68.26,159.13a.35.35,0,0,0,.29-.39.29.29,0,1,0-.57.11A.35.35,0,0,0,68.26,159.13Z"/>
  <path class="cls-12" d="M68.83,160.34a.34.34,0,0,0,.28-.39.33.33,0,0,0-.28-.28.33.33,0,0,0-.28.39A.34.34,0,0,0,68.83,160.34Z"/>
  <path class="cls-12" d="M71.54,158a.35.35,0,0,0,.28-.39.33.33,0,0,0-.28-.28.33.33,0,0,0-.28.39A.33.33,0,0,0,71.54,158Z"/>
  <path class="cls-12" d="M70.54,162a.33.33,0,0,0,.28-.39.33.33,0,0,0-.28-.28.34.34,0,0,0,0,.67Z"/>
  <path class="cls-12" d="M73.89,163.11a.35.35,0,0,0,.28-.39.34.34,0,0,0-.28-.28.33.33,0,0,0-.28.39A.33.33,0,0,0,73.89,163.11Z"/>
  <path class="cls-12" d="M75.38,161.26a.34.34,0,0,0,.28-.39.35.35,0,0,0-.28-.28.35.35,0,0,0-.29.39A.34.34,0,0,0,75.38,161.26Z"/>
  <path class="cls-12" d="M75.38,161.26a.34.34,0,0,0,.28-.39.35.35,0,0,0-.28-.28.35.35,0,0,0-.29.39A.34.34,0,0,0,75.38,161.26Z"/>
  <path class="cls-12" d="M74.81,158.69a.34.34,0,0,0,.28-.39.32.32,0,0,0-.28-.28.34.34,0,0,0,0,.67Z"/>
  <path class="cls-12" d="M72.25,160.9a.34.34,0,0,0,.28-.39.37.37,0,0,0-.28-.28.33.33,0,0,0-.28.39A.32.32,0,0,0,72.25,160.9Z"/>
  <path class="cls-12" d="M69.76,159.84a.34.34,0,0,0,.28-.39.32.32,0,0,0-.28-.28.34.34,0,0,0-.28.39A.35.35,0,0,0,69.76,159.84Z"/>
  <path class="cls-12" d="M70.47,161.05a.34.34,0,0,0,.28-.39.32.32,0,0,0-.28-.28.34.34,0,0,0-.28.39A.35.35,0,0,0,70.47,161.05Z"/>
  <path class="cls-12" d="M66.84,162.28a.35.35,0,0,0,.28-.39.35.35,0,0,0-.28-.29.34.34,0,0,0-.28.4A.34.34,0,0,0,66.84,162.28Z"/>
  <path class="cls-12" d="M66.42,160.9a.34.34,0,0,0,.28-.39.35.35,0,0,0-.28-.28.34.34,0,0,0-.28.39A.32.32,0,0,0,66.42,160.9Z"/>
  <path class="cls-12" d="M64.92,163.17a.33.33,0,0,0,.28-.39.29.29,0,1,0-.56.11A.33.33,0,0,0,64.92,163.17Z"/>
  <path class="cls-12" d="M65.92,164.61a.35.35,0,0,0,.28-.39.29.29,0,1,0-.57.11A.36.36,0,0,0,65.92,164.61Z"/>
  <path class="cls-12" d="M75.57,163.24a.33.33,0,0,0,.28-.39.34.34,0,0,0-.28-.28.35.35,0,0,0-.28.39A.34.34,0,0,0,75.57,163.24Z"/>
  <path class="cls-12" d="M75.79,162.62a.35.35,0,0,0,.28-.39.29.29,0,1,0-.56.11A.34.34,0,0,0,75.79,162.62Z"/>
  <path class="cls-12" d="M74.68,162.2a.35.35,0,0,0,.28-.4.37.37,0,0,0-.28-.28.33.33,0,0,0-.28.39A.34.34,0,0,0,74.68,162.2Z"/>
  <path class="cls-12" d="M75.47,159.77a.35.35,0,0,0,.28-.4.37.37,0,0,0-.28-.28.35.35,0,0,0-.29.39A.36.36,0,0,0,75.47,159.77Z"/>
  <path class="cls-12" d="M73.43,159.24a.34.34,0,0,0,.28-.39.35.35,0,0,0-.28-.29.34.34,0,0,0-.28.4A.35.35,0,0,0,73.43,159.24Z"/>
  <path class="cls-12" d="M71.78,159.59a.34.34,0,0,0,.28-.39.35.35,0,0,0-.28-.29.34.34,0,0,0-.28.4A.35.35,0,0,0,71.78,159.59Z"/>
  <path class="cls-12" d="M70.52,161.38a.35.35,0,0,0,.28-.39.29.29,0,1,0-.57.11A.35.35,0,0,0,70.52,161.38Z"/>
  <path class="cls-12" d="M68.19,162a.33.33,0,0,0,.28-.39.32.32,0,0,0-.28-.28.34.34,0,0,0-.28.39A.35.35,0,0,0,68.19,162Z"/>
  <path class="cls-12" d="M67,161.45a.34.34,0,0,0,.28-.39.35.35,0,0,0-.28-.28.34.34,0,0,0,0,.67Z"/>
  <path class="cls-12" d="M69.72,160.92a.34.34,0,1,0-.28-.28A.32.32,0,0,0,69.72,160.92Z"/>
  <path class="cls-12" d="M70.67,158.24a.34.34,0,0,0,0-.67.33.33,0,0,0-.28.39A.33.33,0,0,0,70.67,158.24Z"/>
  <path class="cls-12" d="M70.83,160.48a.33.33,0,0,0,.28-.39.29.29,0,1,0-.56.11A.33.33,0,0,0,70.83,160.48Z"/>
  <path class="cls-12" d="M65.24,162.09a.34.34,0,0,0,.28-.39.32.32,0,0,0-.28-.28.34.34,0,0,0-.28.39A.37.37,0,0,0,65.24,162.09Z"/>
  <path class="cls-12" d="M65.77,163.51a.33.33,0,0,0,.28-.39.34.34,0,0,0-.28-.28.35.35,0,0,0-.28.39A.33.33,0,0,0,65.77,163.51Z"/>
  <path class="cls-12" d="M67.61,163.88a.33.33,0,0,0,.28-.39.34.34,0,0,0-.28-.28.33.33,0,0,0-.28.39A.34.34,0,0,0,67.61,163.88Z"/>
  <path class="cls-12" d="M69.35,163.17a.33.33,0,0,0,.28-.39.29.29,0,1,0-.56.11A.33.33,0,0,0,69.35,163.17Z"/>
  <path class="cls-12" d="M70.19,163.56a.34.34,0,0,0,.28-.39.32.32,0,0,0-.28-.28.34.34,0,0,0-.28.39A.35.35,0,0,0,70.19,163.56Z"/>
  <path class="cls-12" d="M72,163.17a.34.34,0,0,0,.28-.39.35.35,0,0,0-.28-.28.35.35,0,0,0-.29.39A.34.34,0,0,0,72,163.17Z"/>
  <path class="cls-12" d="M71.78,162.28a.34.34,0,0,0,.28-.39.35.35,0,0,0-.28-.29.34.34,0,0,0-.28.4A.35.35,0,0,0,71.78,162.28Z"/>
  <path class="cls-12" d="M71.78,162.28a.34.34,0,0,0,.28-.39.35.35,0,0,0-.28-.29.34.34,0,0,0-.28.4A.35.35,0,0,0,71.78,162.28Z"/>
  <path class="cls-12" d="M73.1,162.28a.35.35,0,0,0,.28-.39.35.35,0,0,0-.28-.29.34.34,0,0,0-.28.4A.34.34,0,0,0,73.1,162.28Z"/>
  <path class="cls-12" d="M73.63,162.35a.35.35,0,0,0,.28-.39.34.34,0,0,0-.28-.28.33.33,0,0,0-.28.39A.34.34,0,0,0,73.63,162.35Z"/>
  <path class="cls-12" d="M72.46,161.19a.33.33,0,0,0,.28-.39.33.33,0,0,0-.28-.28.34.34,0,0,0,0,.67Z"/>
  <path class="cls-12" d="M74.33,160.48a.34.34,0,0,0,.28-.39.35.35,0,0,0-.28-.28.33.33,0,0,0-.28.39A.32.32,0,0,0,74.33,160.48Z"/>
  <path class="cls-12" d="M74.47,161.38a.34.34,0,0,0,.28-.39.33.33,0,0,0-.28-.28.33.33,0,0,0-.28.39A.34.34,0,0,0,74.47,161.38Z"/>
  <path class="cls-12" d="M72.94,160.66a.34.34,0,0,0,.28-.39.35.35,0,0,0-.28-.28.34.34,0,0,0-.28.39A.32.32,0,0,0,72.94,160.66Z"/>
  <path class="cls-12" d="M75.57,161.56a.34.34,0,0,0,.28-.39.32.32,0,0,0-.28-.28.34.34,0,0,0-.28.39A.35.35,0,0,0,75.57,161.56Z"/>
  <path class="cls-12" d="M70.94,159.82a.35.35,0,0,0,.28-.39.34.34,0,0,0-.28-.28.33.33,0,0,0-.28.39A.33.33,0,0,0,70.94,159.82Z"/>
  <path class="cls-12" d="M70.35,159.08a.34.34,0,0,0,.29-.39.36.36,0,0,0-.29-.28.35.35,0,0,0-.28.39A.34.34,0,0,0,70.35,159.08Z"/>
  <path class="cls-12" d="M72.31,158.69a.35.35,0,0,0,.28-.39.33.33,0,0,0-.28-.28.33.33,0,0,0-.28.39A.33.33,0,0,0,72.31,158.69Z"/>
  <path class="cls-12" d="M73.94,158.29a.34.34,0,0,0,.28-.4.34.34,0,0,0-.28-.28.35.35,0,0,0,0,.68Z"/>
  <path class="cls-12" d="M74.68,159.51a.35.35,0,0,0,.28-.4.37.37,0,0,0-.28-.28.33.33,0,0,0-.28.39A.34.34,0,0,0,74.68,159.51Z"/>
  <path class="cls-12" d="M72.53,158a.33.33,0,0,0,.28-.39.33.33,0,0,0-.28-.28.35.35,0,0,0-.28.39A.34.34,0,0,0,72.53,158Z"/>
  <path class="cls-12" d="M69.46,159.34a.34.34,0,0,0,.28-.39.35.35,0,0,0-.28-.28.34.34,0,0,0-.28.39A.32.32,0,0,0,69.46,159.34Z"/>
  <path class="cls-12" d="M67.77,160.24a.33.33,0,0,0,.28-.39.33.33,0,0,0-.28-.28.34.34,0,0,0,0,.67Z"/>
  <path class="cls-12" d="M66.66,159.24a.34.34,0,0,0,.28-.39.35.35,0,0,0-.28-.29.34.34,0,0,0-.28.4A.35.35,0,0,0,66.66,159.24Z"/>
  <path class="cls-12" d="M65.56,160.72a.35.35,0,0,0,.28-.4.37.37,0,0,0-.28-.28.34.34,0,0,0-.28.4A.34.34,0,0,0,65.56,160.72Z"/>
  <path class="cls-12" d="M65.92,161.93a.35.35,0,0,0,.29-.39.36.36,0,0,0-.29-.29.35.35,0,0,0-.28.4A.37.37,0,0,0,65.92,161.93Z"/>
  <path class="cls-12" d="M66,160a.33.33,0,0,0,.28-.39.33.33,0,0,0-.28-.28.34.34,0,0,0,0,.67Z"/>
  <path class="cls-12" d="M67.61,159.59a.34.34,0,0,0,.28-.39.35.35,0,0,0-.28-.29.34.34,0,0,0-.28.4A.35.35,0,0,0,67.61,159.59Z"/>
  <path class="cls-12" d="M64.66,162.51a.34.34,0,0,0,.28-.39.33.33,0,0,0-.28-.28.33.33,0,0,0-.28.39A.34.34,0,0,0,64.66,162.51Z"/>
  <path class="cls-12" d="M66.93,163.17a.34.34,0,1,0-.28-.28A.32.32,0,0,0,66.93,163.17Z"/>
  <path class="cls-12" d="M69.51,161.51a.35.35,0,0,0,.28-.4.34.34,0,0,0-.28-.28.35.35,0,0,0-.28.39A.35.35,0,0,0,69.51,161.51Z"/>
  <path class="cls-12" d="M68.51,163.17a.34.34,0,0,0,.28-.39.35.35,0,0,0-.28-.28.34.34,0,0,0-.28.39A.32.32,0,0,0,68.51,163.17Z"/>
  <path class="cls-12" d="M71.09,163.3a.34.34,0,0,0,.28-.39.33.33,0,0,0-.28-.28.33.33,0,0,0-.28.39A.34.34,0,0,0,71.09,163.3Z"/>
  <path class="cls-12" d="M71.3,158.69a.35.35,0,0,0,.29-.39.29.29,0,1,0-.57.11A.35.35,0,0,0,71.3,158.69Z"/>
</svg>
