<svg id="Layer_1" data-name="Layer 1" xmlns="http://www.w3.org/2000/svg" viewBox="0 0 136 227">
  <defs>
    <style>
      .cls-1 {
        fill: #ea7657;
      }

      .cls-2 {
        fill: #f7dac2;
      }

      .cls-3 {
        fill: #84525b;
      }

      .cls-4, .cls-8 {
        fill: none;
        stroke-miterlimit: 10;
      }

      .cls-4 {
        stroke: #ad936d;
      }

      .cls-5 {
        fill: #ad936d;
      }

      .cls-6 {
        fill: #c9a1c4;
      }

      .cls-7 {
        fill: #c69185;
      }

      .cls-8 {
        stroke: #896876;
      }

      .cls-9 {
        fill: #ba758b;
      }

      .cls-10 {
        fill: #b7867e;
      }

      .cls-11 {
        fill: #82654d;
      }
    </style>
  </defs>
  <title>naked_6</title>
  <rect class="cls-1" x="-45.53" y="46.06" width="226.48" height="135.13" transform="translate(-46.06 181.1) rotate(-89.88)"/>
  <path class="cls-2" d="M61.28,32.75v.67c0,2-1.93,4.2-1.93,4.2a9.27,9.27,0,0,1-2.42,1.94c-2,1.12-3.33.79-5.79,1.44a15.68,15.68,0,0,0-4.34,1.94,16.93,16.93,0,0,0-5.56,5.51c-1.84,3.15-1.91,6.21-1.93,9.19-.09,9.3-.14,14,0,17.88.48,14.2-.35,13.22.48,18.84.91,6.43,2,7.6,2.41,14,.38,6.15.56,9.19.49,10.64-.12,2.1-.44,5.33.92,8.2A6.72,6.72,0,0,0,46,130.11c1.09.68,1.61.45,2.41.91,1.57,1,1.67,3.31,1.93,5.8.54,5.08.83,1.53,1.44,8.21.71,7.55.74,16.35,1,22.22.5,13,.76,19.44,2.89,25.13,1.69,4.49,2.1,7.17,2.9,12.55a12.84,12.84,0,0,1,0,5.31s-.37,1.57-3.38,6.76l1.94,2.42h3a19.51,19.51,0,0,0,3.39.49h3.38a12.31,12.31,0,0,0,2.89-.49c1.6-.47,1.89-.92,2.91-1,1.77-.09,2.26,1.2,3.38,1,1.47-.31,2.69-3,2.42-5.31-.26-2.16-1.61-2.41-2.91-5.8a17,17,0,0,1-.92-3.86,15,15,0,0,1,1.45-7.73c.55-1.31,1.49-5.22,3.39-13.05,1.47-6.07.4-6.26,1.44-23.66.73-12,1.1-9.81,1-13-.18-4.25-1-11.68,1.45-15.46a15.93,15.93,0,0,1,1.93-2.41c1.83-1.73,2.89-1.74,3.87-2.9s.91-2.76.91-5.31c0-3.24.66-6.43,1-9.66.41-4.2.86-5.86,1.45-9.67.48-3.1.86-6.43,1.45-16.91.49-8.76,1.35-26.78-1.94-36.22a11.31,11.31,0,0,0-3.39-5.29c-1.17-1-1.93-1.12-6.75-2.9s-5.91-2.31-7.25-3.37c-1-.8-3.18-2.54-2.9-4.36.15-1,.92-1.38,1.93-2.41a12.75,12.75,0,0,0,2.9-5.8c.65-2.28,1.6-5.62,0-8.21-1.32-2.13-3.14-1.77-4.35-4.35-.8-1.71-.57-3.06-1.44-3.38-.39-.14-.81,0-2.91,1.45A55.71,55.71,0,0,1,63,13.18c-.5.28-1,.51-1.93,1a20.9,20.9,0,0,1-3.39,1.41c-1.84.48-2.41,0-2.9.48-.73.77.14,2.26.92,5.31,1.23,4.51.32,4.86,1.46,6.77C58.8,30.88,60.91,30.62,61.28,32.75Z"/>
  <path class="cls-3" d="M57.6,61.6h0a1.28,1.28,0,0,0-.69.52,1,1,0,0,0-.23.78.65.65,0,0,0,.69.52c.25,0,.24-.3.7-.78.32-.31.47-.36.47-.52s-.12-.3-.7-.52"/>
  <path class="cls-3" d="M77.29,61.18A.78.78,0,0,0,77,62.24a.71.71,0,0,0,.29.28.79.79,0,0,0,.76-.19c.1-.07.41-.29.39-.57A.92.92,0,0,0,77.29,61.18Z"/>
  <path class="cls-4" d="M67.33,90.92h0a.87.87,0,0,0-.49.92.73.73,0,0,0,.49.49.93.93,0,0,0,.92-.49c.17-.3.24-.8,0-.92a.6.6,0,0,0-.49,0"/>
  <path class="cls-4" d="M70.71,164.38c.37.81,1.19,2.34,2.41,2.42a2.89,2.89,0,0,0,1.45-.49c1.1-.54,2.23-1,3.38-1.45"/>
  <path class="cls-4" d="M56.22,163.9a6.13,6.13,0,0,0,1.93,1.45,3.35,3.35,0,0,0,1.93.48c.76-.1,1-.53,1.93-.92a5.88,5.88,0,0,1,1.94-.48"/>
  <path class="cls-4" d="M47,57.14a36.31,36.31,0,0,0,0,11.11c.46,3,1.16,4.78,1,8.22,0,.12-.08.81-.17,1.83-.15,1.51-.27,2.94-.32,3.49-.15,2.16.06,3,0,5.31-.09,4-.51,4.59-.47,7.73,0,2.67.35,2.29.47,5.32A47.49,47.49,0,0,1,47,111.26a6.36,6.36,0,0,0,0,3.86c.46,1.15,1.16,1.51,1.45,2.89.19,1-.12.92,0,2.42.15,1.89.67,2.09.48,3.38a16.16,16.16,0,0,1-.48,1.94c-.64.92-.65,1.54-.49,1.93.29.92,1.93,1.44,1.93,1.44l1,1.93"/>
  <path class="cls-4" d="M46.07,120.42c.41,1.08.92,2.21,1.44,3.38.33.67.65,1.32,1,1.94"/>
  <path class="cls-4" d="M86.17,55.7a72.47,72.47,0,0,0-.49,8.2c0,2.45.11,3,0,5.31-.09,2-.22,2.48-.49,6.29a18.52,18.52,0,0,0,0,4.82,8.49,8.49,0,0,0,.26,1.05c.46,1.53.58,1.78.72,2.34A10,10,0,0,1,86.36,86a17.13,17.13,0,0,1-.19,2.58c-.33,2.1.09,3.68,0,7.24-.13,4.52-.45,4.49-.49,8.7v5.32a8.74,8.74,0,0,1,0,3.38,23.59,23.59,0,0,1-.92,2.42c-.38,1.13-.22,1.4-.49,4.34-.24,2.67-.47,3.6,0,3.86s1.08-.15,1.46-.48c1.44-1.27.82-3.86.91-3.87s1.47,4.66-.47,6.29c-.29.23-.44.24-1.46,1-1.67,1.18-1.83,1.59-1.93,1.93a1.88,1.88,0,0,0,.48,1.45"/>
  <path class="cls-4" d="M85.19,80.32c-.08.23-.2.53-.33.92a21.3,21.3,0,0,0-1.11,4.91,22.58,22.58,0,0,0,0,4.35,106.73,106.73,0,0,0,1.44,10.63"/>
  <path class="cls-4" d="M48.49,96.76a8.07,8.07,0,0,1,0-3.39c.37-1.69,1-1.9,1.44-3.38.37-1.26.09-2.75-.48-5.8-.21-1.07-.51-2.57-1-4.34"/>
  <path class="cls-1" d="M65.39,194.81a27.77,27.77,0,0,0-.48,3.38,15.66,15.66,0,0,0,0,3.87c.2,1.44.48,1.51,1.2,4.11.66,2.34.69,3.37.92,3.38.52,0,.92-3.52,1-3.87a29.87,29.87,0,0,0,0-6.27c-.15-1.54-.23-1.35-.48-3.39s-.27-3.1-.49-6.28c-.37-5.57-.51-4.73-.47-6.28a59.61,59.61,0,0,0,0-6.27c0-.61-.2-2.41-.49-2.42s-.35,1-.48.92c-.39,0,0-7.9,0-8.7v-1a24.65,24.65,0,0,1,.48,2.42,20.1,20.1,0,0,1-.48,7.72"/>
  <path class="cls-1" d="M68,124.53a3.23,3.23,0,0,0,0-1.45c-.19-.58-.73-1.07-1-1s-.09.27,0,1.94a11.52,11.52,0,0,1-.12,2.49,3.6,3.6,0,0,0-.12.64,12.43,12.43,0,0,0,0,1.93,12.28,12.28,0,0,0-.24,1.69v1.94a12.23,12.23,0,0,1,0,2.42,11.72,11.72,0,0,1-.49,2.41c.06,1.73,0,2.76,0,3.38v5.32c0,2.4-.28,2.7-.47,5.79a36.33,36.33,0,0,0,0,5.32,13.18,13.18,0,0,0,.47,3.37c.17,0,.07-2.08.49-5.31.18-1.33.32-2,.48-2.89.38-2.21.48-4,.49-12.56v-4.35c.1-3.28.47-7.75.47-9.66C68,125.36,68,125.16,68,124.53Z"/>
  <path class="cls-1" d="M47.76,79.61c.15,0,.32.25.48.48.4.61.22,1.11.49,1.93a4.36,4.36,0,0,0,.47.91c.35.68.42,1.24.49,3.39a19.08,19.08,0,0,1,0,3.38,23.59,23.59,0,0,1-.92,2.42,11.83,11.83,0,0,0-.53,3.4,39.54,39.54,0,0,1-.48,5.31,51.91,51.91,0,0,1-.49-7.24C47.16,90.3,46.82,79.7,47.76,79.61Z"/>
  <path class="cls-1" d="M84.23,84.67a18.56,18.56,0,0,0-.48,1.94,13.65,13.65,0,0,0,0,3.38c.08.92.14,1.06.48,3.38.32,2.15.48,3.21.48,3.39,0,1.52-.22,2.75.48,3.86.07.1.34.53.49.48s0-.76,0-1.45c-.1-1.54.33-1.84.49-3.87a19.38,19.38,0,0,0,0-2.41,27.49,27.49,0,0,1-.25-3.67c0-.54.14-1,.19-2.07a9.59,9.59,0,0,1,.06-1.07c.12-1,.4-1.24.24-1.69S86,84.4,85.92,84a1.29,1.29,0,0,1,0-.48c.1-.86-.4-2.18-.73-2.17S84.91,82.08,84.23,84.67Z"/>
  <path class="cls-5" d="M61.53,21.54a1.38,1.38,0,0,0,0-2.76h0a1.38,1.38,0,0,0,0,2.76Z"/>
  <path class="cls-5" d="M70.63,21.13a1.38,1.38,0,1,0-1.38-1.38A1.37,1.37,0,0,0,70.63,21.13Z"/>
  <path class="cls-6" d="M73.62,26c3.55,0,3.55-5.51,0-5.51S70.07,26,73.62,26Z"/>
  <path class="cls-6" d="M59.08,26.72c3.55,0,3.56-5.51,0-5.51S55.53,26.72,59.08,26.72Z"/>
  <path class="cls-7" d="M70.32,120.1a4.3,4.3,0,0,1,.53,1.15c.16.45.1.43.36,1.3a4.73,4.73,0,0,1,.37,1.48,3.9,3.9,0,0,1-.07.78v1.83a9.6,9.6,0,0,1-.22,1.48,1.72,1.72,0,0,1-.22.86c-.06.08-.19.26-.37.27s-.4-.25-.6-.52c-.07-.1-.06-.11-.22-.35s-.26-.37-.29-.43-.12-.2-.17-.3a4.27,4.27,0,0,1-.28-.83c-.13-.51-.28-.56-.44-1a8.24,8.24,0,0,1-.33-1.77,17.23,17.23,0,0,0-.38-1.73,6.67,6.67,0,0,0-.41-1.11c-.35-.36-.42-.6-.39-.78C67.36,119.66,69.51,119.12,70.32,120.1Z"/>
  <path class="cls-8" d="M70,126.24a2,2,0,0,0,.53-.18.6.6,0,0,1,.29-.08.51.51,0,0,1,.3.17"/>
  <path class="cls-8" d="M70,126.5a.92.92,0,0,1,.23-.09.71.71,0,0,1,.29,0"/>
  <path class="cls-8" d="M70.86,126.76H71"/>
  <path class="cls-8" d="M70.71,127h.15a.29.29,0,0,1,.14.17"/>
  <path class="cls-8" d="M70.34,128.15a.21.21,0,0,0-.23.17c0,.1.13.17.16.18s.15.08.22,0a.25.25,0,0,0,0-.24A.21.21,0,0,0,70.34,128.15Z"/>
  <path class="cls-8" d="M70.56,128.15l.08.09a.33.33,0,0,0,.22.08"/>
  <path class="cls-9" d="M70.34,128.24a.12.12,0,0,0-.15.08c0,.08.19.14.22.1A.14.14,0,0,0,70.34,128.24Z"/>
  <path class="cls-10" d="M67,120.49c-.18,0-.32.21-.44.44a5.52,5.52,0,0,0-.44,1.65c-.25,1.48-.12,1.07-.23,1.56a2.29,2.29,0,0,0-.07,1.13l.15.43c.09.3.09.42.15.62a2.23,2.23,0,0,0,.3.69,2,2,0,0,0,.73.7,1.4,1.4,0,0,0,.92.35.82.82,0,0,0,.52-.18c.09-.07.12-.14.22-.17s.16.07.37.08h.22v-.08s0,0-.07-.09a.14.14,0,0,1,0-.09.2.2,0,0,0-.07-.17l-.08-.18a2.33,2.33,0,0,1-.07-.25,3.21,3.21,0,0,0-.15-.53c-.07-.17-.11-.14-.22-.35a2.06,2.06,0,0,1-.22-.69,4.22,4.22,0,0,1-.07-.61c-.06-.35-.09-.41-.16-.87a1.17,1.17,0,0,0-.07-.52,7.4,7.4,0,0,0-.22-1c-.14-.47-.16-.34-.37-.92s-.24-.81-.45-.86A.27.27,0,0,0,67,120.49Z"/>
  <path class="cls-8" d="M68.48,127.46l.08-.18a1.11,1.11,0,0,0,.07-.26,1.55,1.55,0,0,0,0-.43c0-.32,0-.42-.07-.53l-.08-.08"/>
  <path class="cls-10" d="M65.41,27c.28-.35,1.27.6,2.88.33,1.24-.22,1.7-1,2-.75.52.37.07,2.8-1.33,3.25a2.05,2.05,0,0,1-1.44-.16C66.05,29.1,65.08,27.43,65.41,27Z"/>
  <path class="cls-11" d="M57.58,7a11.52,11.52,0,0,0-3.87,3.86,11.88,11.88,0,0,0-1.44,5.31c-.21,3,.79,3,.47,5.81-.25,2.25-1,3.39-.47,5.31.16.59.34,1.84,1,1.94s1.14-2,1.93-1.94c.39,0,.58.56.92.49a.73.73,0,0,0,.49-.49c.57-1.19-.49-3.38-.49-3.38a69.35,69.35,0,0,0-.92-7.73v-.48h0a7.47,7.47,0,0,0,1.45.48c.79.12,1.35-.33,2.42-1,1.38-.81,1.06-.42,2.89-1.45,4.39-2.44,4.6-3.78,6.39-3.76A5.5,5.5,0,0,1,72,11.89c.51.56.38.67.92,1.45,1.4,1.84,2.39,1.54,3.38,2.9a6.61,6.61,0,0,1,.92,4.34,7.19,7.19,0,0,1-.36,2.34,12,12,0,0,0-1,2.41,2.28,2.28,0,0,0,0,1.46,2,2,0,0,0,1.94.91c1.66-.22,2.84-3.07,2.89-5.31v-.48c.08-2.62,1.28-3.08,1-4.35-.21-.86-.92-1.14-1-2.42v-.48a5.9,5.9,0,0,0-1.45-3.38C77.6,9,78.18,8.05,76.9,6.45c-1.84-2.33-5-2.67-7.25-2.9A18,18,0,0,0,57.58,7Z"/>
</svg>
