<svg id="Layer_1" data-name="Layer 1" xmlns="http://www.w3.org/2000/svg" viewBox="0 0 136 227">
  <defs>
    <style>
      .cls-1 {
        fill: #f3d8eb;
      }

      .cls-2 {
        fill: #f4c79b;
      }

      .cls-3 {
        fill: #f3baae;
      }

      .cls-3, .cls-5 {
        stroke: #000;
      }

      .cls-10, .cls-13, .cls-3, .cls-4, .cls-5 {
        stroke-miterlimit: 10;
      }

      .cls-13, .cls-3 {
        stroke-width: 0.25px;
      }

      .cls-13, .cls-4, .cls-5 {
        fill: none;
      }

      .cls-4 {
        stroke: #534741;
      }

      .cls-4, .cls-5 {
        stroke-width: 0.5px;
      }

      .cls-6 {
        fill: #c49a8a;
      }

      .cls-7 {
        fill: #aa755e;
      }

      .cls-8 {
        opacity: 0.66;
        isolation: isolate;
      }

      .cls-9 {
        fill: #c0e2ef;
      }

      .cls-10, .cls-12 {
        fill: #42210b;
      }

      .cls-10, .cls-13 {
        stroke: #42210b;
      }

      .cls-11 {
        fill: #fff;
      }
    </style>
  </defs>
  <title>naked_2</title>
  <rect class="cls-1" x="-0.34" y="-0.29" width="136" height="227"/>
  <path class="cls-2" d="M102,127.93l-.08.15,8.08,2.07-2.4-13.24-2.4-16.27-3.6-19L98.77,65.87,95.64,52c0-1.46-.25-5.52-3.84-6.7-1.15-.38-2.19-.32-5.28-.16-2.24.11-5.77.28-10.32.48l-3.6-9.1c1.19-2.85,2.21-5.53,3.12-8,2.15-5.83,2.37-7.21,1.2-8.61-1.87-2.27-6.13-3-7.92-3.35a15.27,15.27,0,0,0-7.2,0C60.43,17,59,17.83,57,21c-2.23,3.58-4.3,6.88-3.59,11.48A15.46,15.46,0,0,0,57,40v5.91H51c-2.18.13-5.75.59-8.41,2.39-1.48,1-2.29,2.19-4.07,7.18C37.82,57.4,37,59.94,36.11,63L34,71.09,29.61,88.2,26,104.31V120.9a21.31,21.31,0,0,0-1.92,4.31c-2.41,7.65.27,15.45,2.16,15.47.93,0,2.21-1.87,3.84-9.73q3,2.4,4.07,2.07,1.88-.56-1.44-8.77L44.56,76.39l4.32-3.66L48,76.39l.24,86,2.4,40.52c-2.66,5-7.74,15.66-2.88,17.76,1.87.78,4.56,0,5.76-.32,6.75-1.93,10.56-8.11,10.28-15.63l3.9-81.7.17-3.65,1.17.3h.14l1.82.47,2.13.54h.15L94,126v-.31l1.61-10.88L93.21,98.08l-1.37-3.51L88,84.53,88.68,67l4.53,31.1,1.23,3.2,5,16.59,2.63,9.88h0Z"/>
  <path class="cls-2" d="M94,125.71V126l-3.87,26.3-2.16,14-3.61,35.9-.47,5.26c-.3,1.53-2.63,12.74-11,14.51a6.19,6.19,0,0,1-3.36,0c-4.4-1.6-.56-10.76-.25-11.48L72.17,201l1.07-78.09v-2.23Z"/>
  <path class="cls-2" d="M107.89,145.63c-.94,0-2.23-1.87-3.84-9.73-2,1.6-3.34,2.29-4.09,2.06-1.24-.36-.76-3.29,1.44-8.76l.56-1.12.08-.15,8,2.22C112.46,137.8,109.76,145.61,107.89,145.63Z"/>
  <path class="cls-3" d="M57.24,113.44l1.65,2.26,2.62,2,3.94,2.24,1,2a2.18,2.18,0,0,0,1.11.87,1.92,1.92,0,0,0,1.45,0,1.06,1.06,0,0,0,.46-.77v-2.8c.13-.31.14-.58,0-.66s-.34,0-.59.17a3.26,3.26,0,0,0-.66.43"/>
  <path class="cls-3" d="M71.16,118.93l-.65-.27a1,1,0,0,0-.47-.12.8.8,0,0,0-.33.17c0,.68-.06,1.26-.06,1.69,0,.94.09,1.24.32,1.53a2.56,2.56,0,0,0,.73.54,2,2,0,0,0,.94.27,1.77,1.77,0,0,0,1-.38,1.58,1.58,0,0,0,.58-1.31v-1.41a1.51,1.51,0,0,1,.39-.71,3.27,3.27,0,0,1,1.25-.66,4.73,4.73,0,0,0,1.64-1.08l1.23-1.07,1.87-1.57,1.32-2"/>
  <path class="cls-4" d="M59.16,112.92c0,.62-.76,1.12-1.68,1.12-.75,0-1.35-.4-1.35-.93s.48-.71,1.08-.71.86.25.86.57-.31.45-.69.45-.55-.16-.55-.36.2-.3.44-.3.35.11.35.24"/>
  <path class="cls-4" d="M60.36,113.32c0,.62-.76,1.11-1.68,1.11-.75,0-1.35-.4-1.35-.93s.48-.72,1.07-.72.86.26.86.57-.3.46-.69.46-.55-.16-.55-.37.21-.29.45-.29.35.11.35.24"/>
  <path class="cls-4" d="M62.32,114.41c0,.62-.75,1.13-1.68,1.13-.74,0-1.35-.41-1.35-.94s.49-.71,1.08-.71.86.25.86.57-.3.46-.69.46-.55-.17-.55-.37.2-.29.44-.29.36.11.36.23"/>
  <path class="cls-4" d="M61.39,114c0,.62-.75,1.12-1.69,1.12-.73,0-1.34-.4-1.34-.93s.48-.72,1.08-.72.86.26.86.58-.31.46-.69.46-.55-.17-.55-.38.2-.29.44-.29.35.11.35.24"/>
  <path class="cls-4" d="M62.6,114.39c0,.61-.75,1.12-1.68,1.12-.74,0-1.35-.4-1.35-.94s.49-.71,1.08-.71.87.26.87.57-.31.46-.69.46-.56-.17-.56-.36.2-.3.44-.3.36.11.36.24"/>
  <path class="cls-4" d="M64.52,115.51c0,.61-.75,1.11-1.68,1.11-.74,0-1.34-.39-1.34-.93S62,115,62.57,115s.86.26.86.57-.31.45-.69.45-.55-.16-.55-.36.2-.29.45-.29.34.1.34.23"/>
  <path class="cls-4" d="M64.53,115.55c0,.62-.74,1.13-1.68,1.13-.74,0-1.33-.41-1.33-.94S62,115,62.59,115s.86.25.86.57-.31.46-.69.46-.55-.17-.55-.37.19-.29.44-.29.35.1.35.23"/>
  <path class="cls-4" d="M65.73,115.94c0,.61-.75,1.11-1.68,1.11-.74,0-1.34-.4-1.34-.93s.48-.72,1.08-.72.86.26.86.57-.31.46-.69.46-.56-.16-.56-.36.2-.29.44-.29.36.1.36.23"/>
  <path class="cls-4" d="M67.66,117.06c0,.62-.76,1.12-1.69,1.12-.74,0-1.34-.4-1.34-.93s.48-.72,1.07-.72.86.26.86.58-.31.45-.69.45-.54-.16-.54-.37.2-.29.44-.29.34.1.34.23"/>
  <path class="cls-4" d="M67.18,116.36c0,.61-.76,1.11-1.68,1.11-.74,0-1.35-.4-1.35-.93s.49-.71,1.08-.71.86.25.86.57-.31.45-.69.45-.55-.16-.55-.36.2-.29.44-.29.36.1.36.23"/>
  <path class="cls-4" d="M68.38,116.73c0,.62-.76,1.11-1.69,1.11-.74,0-1.34-.39-1.34-.93s.48-.72,1.07-.72.86.26.86.57-.31.46-.68.46-.55-.16-.55-.37.2-.29.44-.29.34.11.34.24"/>
  <path class="cls-4" d="M70.29,117.84c0,.62-.75,1.13-1.68,1.13-.74,0-1.34-.41-1.34-.94s.48-.71,1.08-.71.86.25.86.57-.31.46-.69.46-.59-.13-.59-.36.19-.3.44-.3.35.12.35.25"/>
  <path class="cls-4" d="M60.94,112.53c0,.61-.76,1.11-1.68,1.11-.74,0-1.35-.39-1.35-.94S58.4,112,59,112s.86.27.86.57-.3.46-.68.46-.55-.16-.55-.36.2-.29.44-.29.35.1.35.23"/>
  <path class="cls-4" d="M62.13,112.9c0,.62-.75,1.12-1.68,1.12-.74,0-1.34-.4-1.34-.93s.48-.71,1.07-.71.86.25.86.57-.31.45-.68.45-.55-.16-.55-.36.19-.3.44-.3.35.1.35.24"/>
  <path class="cls-4" d="M64.05,114c0,.62-.75,1.11-1.67,1.11-.75,0-1.35-.4-1.35-.93s.48-.72,1.08-.72.86.26.86.57-.31.46-.7.46-.55-.16-.55-.37.2-.29.44-.29.36.11.36.24"/>
  <path class="cls-4" d="M65.74,114.26c0,.61-.76,1.11-1.68,1.11-.75,0-1.35-.4-1.35-.94s.49-.71,1.08-.71.86.26.86.57-.31.46-.69.46-.55-.16-.55-.36.2-.29.44-.29.35.1.35.23"/>
  <path class="cls-4" d="M66.94,114.66c0,.61-.76,1.11-1.69,1.11-.74,0-1.34-.39-1.34-.94s.48-.71,1.07-.71.86.26.86.57-.31.46-.69.46-.54-.17-.54-.37.2-.29.44-.29.34.1.34.23"/>
  <path class="cls-4" d="M68.86,115.77c0,.62-.75,1.12-1.68,1.12-.74,0-1.35-.4-1.35-.93s.49-.71,1.09-.71.86.25.86.57-.31.45-.69.45-.56-.16-.56-.36.2-.29.44-.29.36.1.36.23"/>
  <path class="cls-4" d="M69.1,115.87c0,.62-.75,1.12-1.69,1.12-.74,0-1.33-.4-1.33-.93s.47-.71,1.07-.71.86.25.86.57-.31.46-.69.46-.55-.17-.55-.37.19-.3.44-.3.35.12.35.24"/>
  <path class="cls-4" d="M70.29,116.26c0,.61-.75,1.11-1.68,1.11-.74,0-1.34-.4-1.34-.94s.48-.72,1.08-.72.86.26.86.57-.31.46-.69.46-.56-.16-.56-.36.2-.29.44-.29.36.1.36.23"/>
  <path class="cls-4" d="M72.22,117.37c0,.61-.76,1.12-1.69,1.12-.74,0-1.34-.4-1.34-.94s.48-.71,1.07-.71.86.26.86.57-.31.46-.69.46-.54-.17-.54-.36.2-.3.44-.3.34.1.34.23"/>
  <path class="cls-4" d="M70,115.08c0,.61-.75,1.11-1.68,1.11-.74,0-1.34-.4-1.34-.89s.47-.72,1.07-.72.86.26.86.57-.31.46-.69.46-.55-.16-.55-.36.2-.29.44-.29.35.1.35.23"/>
  <path class="cls-4" d="M71.14,115.45c0,.62-.75,1.12-1.68,1.12-.74,0-1.34-.4-1.34-.93s.48-.71,1.08-.71.86.25.86.57-.31.46-.69.46-.56-.17-.56-.37.2-.3.44-.3.36.11.36.24"/>
  <path class="cls-4" d="M73.07,116.57c0,.62-.76,1.11-1.69,1.11-.73,0-1.34-.4-1.34-.93s.49-.72,1.07-.72.86.25.86.57-.3.46-.68.46-.55-.16-.55-.37.2-.29.44-.29.35.11.35.24"/>
  <path class="cls-4" d="M63.71,112.53c0,.61-.75,1.11-1.68,1.11-.75,0-1.35-.4-1.35-.94s.48-.72,1.08-.72.86.26.86.57-.31.46-.69.46-.55-.16-.55-.36.2-.29.44-.29.35.1.35.23"/>
  <path class="cls-4" d="M64.9,112.9c0,.62-.75,1.12-1.67,1.12-.75,0-1.35-.4-1.35-.93s.44-.7,1.08-.7.86.26.86.58-.31.45-.7.45-.55-.16-.55-.37.21-.29.45-.29.35.1.35.23"/>
  <path class="cls-4" d="M66.82,114c0,.62-.75,1.11-1.68,1.11-.74,0-1.34-.4-1.34-.93s.48-.71,1.07-.71.86.25.86.57-.31.46-.68.46-.55-.16-.55-.37.19-.29.44-.29.35.11.35.24"/>
  <path class="cls-4" d="M66.1,113c0,.62-.74,1.12-1.67,1.12-.75,0-1.34-.4-1.34-.89s.47-.72,1.07-.72.86.26.86.57-.31.46-.69.46-.55-.16-.55-.37.19-.29.44-.29.35.1.35.24"/>
  <path class="cls-4" d="M67.3,113.38c0,.61-.75,1.12-1.67,1.12-.75,0-1.35-.4-1.35-.94s.48-.71,1.08-.71.86.26.86.57-.31.46-.69.46-.56-.17-.56-.36.2-.3.44-.3.36.11.36.23"/>
  <path class="cls-4" d="M69.23,114.5c0,.62-.76,1.11-1.69,1.11-.73,0-1.34-.4-1.34-.93s.48-.72,1.07-.72.86.26.86.57-.31.45-.68.45-.55-.15-.55-.36.2-.29.44-.29.35.1.35.23"/>
  <path class="cls-4" d="M67,113.69c-.46-.54-.2-1.22.6-1.54a1.78,1.78,0,0,1,1.87.33c.3.34.13.78-.38.93a1.11,1.11,0,0,1-1.18-.2c-.2-.22-.08-.5.24-.63a.75.75,0,0,1,.76.13c.12.14,0,.32-.16.41a.49.49,0,0,1-.49-.09"/>
  <path class="cls-4" d="M65.68,113.76c-.47-.53-.2-1.21.6-1.52a1.76,1.76,0,0,1,1.87.31c.3.34.12.78-.38.94a1.09,1.09,0,0,1-1.18-.21c-.2-.21-.08-.49.24-.61a.73.73,0,0,1,.76.12c.12.14,0,.33-.16.4a.47.47,0,0,1-.48-.08"/>
  <path class="cls-4" d="M63.17,113.44c-.47-.53-.2-1.21.61-1.53a1.78,1.78,0,0,1,1.87.33c.3.33.12.77-.4.93a1.1,1.1,0,0,1-1.17-.2c-.19-.22-.08-.5.25-.63a.74.74,0,0,1,.75.13c.13.14,0,.33-.15.4a.46.46,0,0,1-.49-.08"/>
  <path class="cls-4" d="M69.71,113.64c0,.62-.75,1.12-1.68,1.12-.75,0-1.35-.4-1.35-.93s.49-.71,1.08-.71.86.25.86.57-.31.45-.68.45-.55-.16-.55-.36.19-.3.43-.3.35.1.35.23"/>
  <path class="cls-4" d="M70.91,114c0,.62-.76,1.11-1.68,1.11-.75,0-1.35-.4-1.35-.93s.48-.71,1.08-.71.85.25.85.57-.3.46-.69.46-.54-.16-.54-.37.2-.29.44-.29.35.11.35.24"/>
  <path class="cls-4" d="M72.82,115.13c0,.62-.74,1.13-1.68,1.13-.74,0-1.34-.41-1.34-.94s.48-.72,1.08-.72.86.26.86.58-.31.46-.69.46-.55-.17-.55-.38.19-.29.44-.29.35.11.35.24"/>
  <path class="cls-4" d="M71.38,114.26c0,.61-.74,1.12-1.67,1.12-.75,0-1.34-.41-1.34-.94s.47-.71,1.07-.71.86.25.86.57-.31.46-.69.46-.55-.17-.55-.36.19-.29.45-.29.34.1.34.23"/>
  <path class="cls-4" d="M72.6,114.66c0,.61-.75,1.11-1.67,1.11-.75,0-1.35-.39-1.35-.94s.48-.71,1.08-.71.86.26.86.57-.31.45-.7.45-.55-.16-.55-.36.2-.29.44-.29.36.1.36.23"/>
  <path class="cls-4" d="M74.47,115.77c0,.62-.76,1.12-1.68,1.12-.74,0-1.35-.4-1.35-.93s.49-.71,1.08-.71.86.25.86.57-.31.45-.69.45-.55-.16-.55-.36.2-.3.44-.3.36.11.36.23"/>
  <path class="cls-4" d="M72.6,113.32c0,.62-.76,1.12-1.68,1.12-.74,0-1.35-.4-1.35-.93s.49-.72,1.08-.72.86.26.86.58-.31.46-.69.46-.55-.17-.55-.38.2-.29.44-.29.36.1.36.24"/>
  <path class="cls-4" d="M73.79,113.69c0,.62-.76,1.13-1.69,1.13-.73,0-1.34-.41-1.34-.94s.48-.71,1.07-.71.86.25.86.57-.31.46-.68.46-.55-.17-.55-.37.2-.29.44-.29.35.11.35.24"/>
  <path class="cls-4" d="M75.7,114.82c0,.61-.75,1.11-1.68,1.11-.74,0-1.34-.39-1.34-.94s.48-.72,1.08-.72.86.27.86.57-.31.46-.69.46-.55-.16-.55-.36.19-.29.43-.29.36.1.36.23"/>
  <path class="cls-4" d="M72.72,112.69c0,.61-.75,1.11-1.67,1.11-.75,0-1.35-.4-1.35-.94s.48-.72,1.08-.72.86.27.86.57-.31.46-.69.46-.56-.16-.56-.36.2-.29.45-.29.35.1.35.23"/>
  <path class="cls-4" d="M73.92,113.06c0,.62-.75,1.12-1.68,1.12-.74,0-1.34-.4-1.34-.93s.48-.71,1.07-.71.86.25.86.57-.31.45-.69.45-.55-.16-.55-.37.2-.29.44-.29.35.1.35.23"/>
  <path class="cls-4" d="M75.84,114.18c0,.62-.75,1.11-1.68,1.11-.74,0-1.35-.4-1.35-.93s.49-.71,1.08-.71.86.25.86.57-.31.46-.68.46-.55-.16-.55-.37.19-.29.43-.29.36.1.36.24"/>
  <path class="cls-4" d="M74.47,113c0,.59-.69,1.07-1.54,1.07-.68,0-1.23-.39-1.23-.85s.44-.69.94-.69.78.25.78.56-.28.43-.62.43-.51-.15-.51-.35.18-.28.4-.28.33.1.33.22"/>
  <path class="cls-4" d="M75.6,113.39c0,.59-.68,1.06-1.53,1.06-.69,0-1.24-.38-1.24-.85s.44-.68.94-.68.79.24.79.54-.29.44-.63.44-.51-.16-.51-.35.19-.28.4-.28.33.1.33.22"/>
  <path class="cls-4" d="M77.52,114c0,.62-.75,1.11-1.68,1.11-.75,0-1.34-.4-1.34-.93s.48-.71,1.07-.71.86.25.86.57-.31.46-.69.46-.54-.16-.54-.37.19-.29.44-.29.34.11.34.24"/>
  <path class="cls-4" d="M73.13,114.82a2.27,2.27,0,0,1,2.32.33c.4.42.21.94-.41,1.24a1.43,1.43,0,0,1-1.48-.22c-.26-.26-.14-.62.26-.78a.91.91,0,0,1,.94.14c.17.16.09.39-.17.5a.59.59,0,0,1-.61-.09c-.1-.11,0-.25.11-.32"/>
  <path class="cls-4" d="M73,114a2.24,2.24,0,0,1,2.33.33c.39.42.22.94-.41,1.24a1.44,1.44,0,0,1-1.49-.22c-.25-.27-.14-.62.27-.79a.92.92,0,0,1,.93.14c.16.17.08.4-.17.5a.59.59,0,0,1-.61-.08c-.11-.11,0-.25.11-.33"/>
  <path class="cls-4" d="M73.35,112.26a2.25,2.25,0,0,1,2.32.35c.4.41.22.94-.41,1.23a1.42,1.42,0,0,1-1.48-.22c-.26-.26-.14-.62.26-.79A.93.93,0,0,1,75,113c.16.16.09.39-.16.5a.59.59,0,0,1-.61-.09c-.11-.11-.07-.26.1-.32"/>
  <path class="cls-4" d="M78.26,114a.86.86,0,0,1-.35-1.15.87.87,0,0,1,.35-.36,1.65,1.65,0,0,1,1.74,0,.53.53,0,0,1,.19.74.52.52,0,0,1-.19.2,1.06,1.06,0,0,1-1.11,0,.35.35,0,0,1-.15-.47.31.31,0,0,1,.15-.15.71.71,0,0,1,.72,0,.22.22,0,0,1,.09.3.2.2,0,0,1-.09.09.43.43,0,0,1-.46,0"/>
  <path class="cls-4" d="M77.12,114.26a.85.85,0,0,1-.36-1.14.89.89,0,0,1,.36-.36,1.65,1.65,0,0,1,1.74,0,.53.53,0,0,1,.19.74.44.44,0,0,1-.19.19,1,1,0,0,1-1.11,0,.35.35,0,0,1-.13-.48.33.33,0,0,1,.13-.13.67.67,0,0,1,.72,0,.22.22,0,0,1,.09.3.2.2,0,0,1-.09.09.47.47,0,0,1-.46,0"/>
  <path class="cls-4" d="M74.71,113.94a.88.88,0,0,1-.4-1.18.86.86,0,0,1,.4-.4,1.84,1.84,0,0,1,1.87,0,.55.55,0,0,1,.26.75.59.59,0,0,1-.26.26,1.19,1.19,0,0,1-1.21,0,.37.37,0,0,1-.17-.49.4.4,0,0,1,.17-.17.76.76,0,0,1,.77,0,.24.24,0,0,1,.12.3.25.25,0,0,1-.12.11.45.45,0,0,1-.5,0"/>
  <path class="cls-4" d="M77.52,114.83a.84.84,0,0,1-.36-1.14.78.78,0,0,1,.36-.36,1.64,1.64,0,0,1,1.73,0,.54.54,0,0,1,.2.74.52.52,0,0,1-.2.19,1,1,0,0,1-1.11,0,.35.35,0,0,1-.13-.48.4.4,0,0,1,.13-.13.67.67,0,0,1,.72,0,.22.22,0,0,1,.09.3.2.2,0,0,1-.09.09.47.47,0,0,1-.46,0"/>
  <path class="cls-4" d="M76.44,114.72a.86.86,0,0,1-.4-1.17.84.84,0,0,1,.4-.41,1.89,1.89,0,0,1,1.87,0,.57.57,0,0,1,.26.75.55.55,0,0,1-.26.26,1.16,1.16,0,0,1-1.22,0,.36.36,0,0,1-.17-.47.35.35,0,0,1,.17-.17.78.78,0,0,1,.78,0,.23.23,0,0,1,.11.31.2.2,0,0,1-.11.11.5.5,0,0,1-.5,0"/>
  <path class="cls-4" d="M73.9,114.85a.87.87,0,0,1-.41-1.17.9.9,0,0,1,.41-.41,1.89,1.89,0,0,1,1.87,0A.57.57,0,0,1,76,114a.55.55,0,0,1-.26.26,1.23,1.23,0,0,1-1.23,0,.36.36,0,0,1-.17-.47.4.4,0,0,1,.17-.17.73.73,0,0,1,.78,0,.22.22,0,0,1,0,.41.5.5,0,0,1-.5,0"/>
  <path class="cls-4" d="M77.69,115.43a.89.89,0,0,1,0-1.58,1.89,1.89,0,0,1,1.87,0,.56.56,0,0,1,.26.75.47.47,0,0,1-.26.26,1.16,1.16,0,0,1-1.22,0,.36.36,0,0,1-.18-.47.33.33,0,0,1,.18-.17.72.72,0,0,1,.77,0,.22.22,0,0,1,.11.31.2.2,0,0,1-.11.11.48.48,0,0,1-.49,0"/>
  <path class="cls-4" d="M76.38,116.12A.84.84,0,0,1,76,115a.81.81,0,0,1,.35-.36,1.65,1.65,0,0,1,1.74,0,.54.54,0,0,1,.2.74.52.52,0,0,1-.2.19,1,1,0,0,1-1.11,0,.34.34,0,0,1-.15-.46.28.28,0,0,1,.15-.15.67.67,0,0,1,.72,0,.22.22,0,0,1,.09.3.2.2,0,0,1-.09.09.43.43,0,0,1-.46,0"/>
  <path class="cls-4" d="M74.05,116.21a.85.85,0,0,1-.36-1.15.89.89,0,0,1,.36-.36,1.67,1.67,0,0,1,1.75,0,.56.56,0,0,1,.17.76.58.58,0,0,1-.17.18,1.07,1.07,0,0,1-1.12,0,.35.35,0,0,1,0-.62.69.69,0,0,1,.71,0,.23.23,0,0,1,.09.31.24.24,0,0,1-.09.08.41.41,0,0,1-.45,0"/>
  <path class="cls-5" d="M70,65.79a5.71,5.71,0,0,0,2,3.74,7.08,7.08,0,0,0,5.36,1.33c2.59-.46,3.88-2.32,5.18-3.87"/>
  <path class="cls-5" d="M54.84,65.13a5.76,5.76,0,0,0,2,3.74,7,7,0,0,0,5.36,1.33c2.57-.45,3.86-2.31,5.18-3.87"/>
  <ellipse class="cls-6" cx="75.36" cy="69" rx="1.2" ry="0.93"/>
  <path class="cls-7" d="M75.4,69.4a2.18,2.18,0,0,0-.43-.22c-.14-.06-.26-.19-.16-.29a.48.48,0,0,1,.22-.12,1,1,0,0,1,.57,0,.42.42,0,0,1,.27.29.32.32,0,0,1,0,.27.35.35,0,0,1-.32.14c-.18,0-.29-.15-.46-.2"/>
  <ellipse class="cls-6" cx="60.47" cy="68.7" rx="1.21" ry="0.94"/>
  <path class="cls-7" d="M60.51,69.09a1.75,1.75,0,0,0-.43-.22c-.14-.07-.26-.21-.17-.31a.44.44,0,0,1,.22-.1,1,1,0,0,1,.58-.06.38.38,0,0,1,.27.29A.26.26,0,0,1,61,69a.35.35,0,0,1-.31.15c-.18,0-.29-.16-.46-.21"/>
  <ellipse class="cls-8" cx="66.72" cy="94.02" rx="0.96" ry="0.64"/>
  <path class="cls-9" d="M62.32,18.24c-.36.12-.64.25-4.07,2.55h0c-5.53,13.4-7.48,18.3-9.12,18.18s-2.16-4.9-2.41-7a20.57,20.57,0,0,1,.48-7.33,13.17,13.17,0,0,1,2.64-6.38,18,18,0,0,1,10.28-7.18c.49-.13,9.42-2.5,15.37.63,2.61,1.39,3.5,3.85,5.28,8.78,1.43,4,2.15,6.08.93,8.62-.93,2-2.08,4.67-2.86,4.58-.35,0-.47-.66-.53-.93-.24-1.19-3.5-2.39-4.41-4.83-.39-1.06.48-2.55,1.35-4.08.34-.59-.82-2.88-3.87-4.46C69,18.1,65.12,17.29,62.32,18.24Z"/>
  <path class="cls-10" d="M62.76,31c.39-.8,4-.7,4.34,0,.23.44-.82,1.08-.93,1.15a2.64,2.64,0,0,1-1.87.42C63.33,32.42,62.54,31.5,62.76,31Z"/>
  <path class="cls-11" d="M62.74,30.67c0-.27,1.45-.54,2.76-.44.48,0,1.45.17,1.48.38s-.93.48-1.77.53C64.05,31.21,62.76,30.93,62.74,30.67Z"/>
  <path d="M69.55,26.05a.33.33,0,0,0,.32-.34v0a.36.36,0,0,0-.32-.31.35.35,0,0,0-.31.37A.33.33,0,0,0,69.55,26.05Z"/>
  <path class="cls-12" d="M69.05,24a2.75,2.75,0,0,0,.5-.09h.53l.14.06h0l0,.06h0a.3.3,0,0,0,.29.11.16.16,0,0,0,.17-.2,1,1,0,0,0-.75-.45,3.35,3.35,0,0,0-1.22.07.14.14,0,0,0-.13.2.27.27,0,0,0,.25.11Z"/>
  <path class="cls-12" d="M60,23h.64l.13.05A.21.21,0,0,0,61,23c0-.05,0-.12-.06-.15a1.31,1.31,0,0,0-.75-.11,1.14,1.14,0,0,0-.64.26c0,.06,0,.13.06.16a.26.26,0,0,0,.24,0Z"/>
  <path class="cls-13" d="M63.94,25.12a2.69,2.69,0,0,1-1.11,1.29c-.1.07-.21.13-.21.23a.2.2,0,0,0,0,.11.83.83,0,0,0,.23.3.58.58,0,0,0,.46.09,1,1,0,0,0,.24-.1.32.32,0,0,1,.27,0c.08,0,.11.08.17.12a.32.32,0,0,0,.2,0"/>
  <path d="M60.45,24.54a.33.33,0,0,0,.32-.35h0a.35.35,0,0,0-.32-.3.33.33,0,0,0-.27.39A.32.32,0,0,0,60.45,24.54Z"/>
</svg>
