<svg id="Layer_1" data-name="Layer 1" xmlns="http://www.w3.org/2000/svg" viewBox="0 0 136 227">
  <defs>
    <style>
      .cls-1 {
        fill: #7fc7e1;
      }

      .cls-2 {
        fill: #eaa0a0;
      }

      .cls-3 {
        fill: none;
        stroke: #bc6868;
        stroke-miterlimit: 10;
      }

      .cls-4 {
        fill: #bc6868;
      }
    </style>
  </defs>
  <title>naked_9</title>
  <rect class="cls-1" x="-45.53" y="46.39" width="226.48" height="135.13" transform="translate(-46.51 181.23) rotate(-89.78)"/>
  <path class="cls-2" d="M9.83,68.53A115.11,115.11,0,0,0,20.4,88.87a114.06,114.06,0,0,0,14.81,18.2v22.49l-2.15,4.34-2.13,8.56-6.41,45L25.57,196l5.3,4.28L35.1,196l2.13-3.21,2.1,10.71v10.7l2.11,3.21L38.25,226l61.43.07-4.21-17.14,2.13-12.84,8.46,9.64,5.29-1.06,3.25-61L110.37,134l-3.17-2.15-12.7-5.37V113.62a134.58,134.58,0,0,0,18-19.25,136,136,0,0,0,17-28.88,179.37,179.37,0,0,0-4.2-27.85A206.91,206.91,0,0,0,119,16.23c-1.92-5.63-3.83-10.35-5.28-13.94l-68.78-.1H24.73c-2.87,7.91-5.37,15.11-7.43,21.4C12.16,39.23,11.27,44,10.88,46A93.09,93.09,0,0,0,9.83,68.53Z"/>
  <path class="cls-1" d="M36.89,26.27c0,2.45-.16,6-.54,10.17s-.88,7.23-1.07,8.56a142.5,142.5,0,0,0-1.1,30,102,102,0,0,0,2.64,15.53c.09.37-3.71-8.76-9-18.75-1.68-3.17-3.18-5.75-4.24-7.5q3.79-9.81,7.45-20.33Q34.17,34.93,36.89,26.27Z"/>
  <path class="cls-1" d="M100.44,21A240,240,0,0,0,101,46.15c.73,10.19,2.53,13.41,2.09,21.42-.63,11.72-4.45,18.6-3.2,19.26,1,.52,4.58-3,16.45-21.93-7.79-12.74-9.22-21-9-26.23a22.19,22.19,0,0,0-2.1-11.79A19.43,19.43,0,0,0,100.44,21Z"/>
  <line class="cls-3" x1="102.4" y1="156.96" x2="102.37" y2="178.38"/>
  <path d="M69.14,62.17c-6.15-.53-11,3.83-12.71,5.35a24.49,24.49,0,0,0-6.36,9.58,29.67,29.67,0,0,0-2.14,16.06c1,6.11,3.4,6.63,4.23,13.92.39,3.59.63,5.75,0,8.57-.4,1.74-2.13,8.1-2.13,9.64v2.76a5.57,5.57,0,0,0,.09.73c.31,2.23.85,6,1.91,6.14s2.3-2.77,3.32-5.08c.43-1,.73-1.84,1-2.41,1.91,1.71,4.13,4.28,4.22,7.5.11,3.84-3,5.45-4.24,9.59-2,6.62,1.82,15,4.21,15,4.85,0,7.27-34.49,10.64-34.25,1.61.12,3.28,8.18,3.83,12.19.18,1.38.16,1.71.38,2.8,1.09,5.27,4.22,10,5.29,9.65,1.76-.57-5.47-13.63,0-23.56,4.27-7.67,12.14-6.2,13.78-12.83,1.25-5-3.17-6.47-5.27-19.28a52,52,0,0,1-1.05-10.7c.13-5.46,1.2-7,0-9.64-.6-1.3-1.49-2.33-8.47-6.44C73.82,64.06,70.83,62.32,69.14,62.17Z"/>
  <line class="cls-3" x1="44.15" y1="159.58" x2="44.13" y2="180.99"/>
  <path class="cls-4" d="M55,35.76a1.44,1.44,0,1,0-1.43-1.43A1.43,1.43,0,0,0,55,35.76Z"/>
  <path class="cls-4" d="M82.42,35.11A1.44,1.44,0,1,0,81,33.67,1.43,1.43,0,0,0,82.42,35.11Z"/>
  <line class="cls-3" x1="69.55" y1="173.52" x2="69.51" y2="210.99"/>
  <path class="cls-3" d="M87.08,126.44h5.29s-1.92.15-10.06.51"/>
  <path class="cls-3" d="M36.75,130.12a23.05,23.05,0,0,1,4.25-1,23.67,23.67,0,0,1,7.42,0"/>
</svg>
