<svg id="Layer_1" data-name="Layer 1" xmlns="http://www.w3.org/2000/svg" viewBox="0 0 136 227">
  <defs>
    <style>
      .cls-1 {
        fill: #ede683;
      }

      .cls-2 {
        fill: #e8c992;
      }

      .cls-3 {
        fill: none;
        stroke: #c96;
        stroke-miterlimit: 10;
      }

      .cls-4 {
        fill: #0c0a02;
      }
    </style>
  </defs>
  <title>naked_1</title>
  <rect class="cls-1" x="-45.08" y="46.1" width="226.48" height="135.13" transform="translate(-45.77 181.38) rotate(-89.78)"/>
  <path class="cls-2" d="M51.16,12.51c-1.3,2.31.17,4.43-1.85,7-.49.61-1.64,1.84-6.05,3.18-5.31,1.62-6.93.81-11.15,1.85-1.83.45-7.27,1.77-10.37,5.57-2.52,3.09-2.37,6.43-2.38,12.3,0,19.74-1.77,18.58-.63,32.07.57,6.78.89,5.57,1.46,12.78.6,7.43,2,14.78,2.13,22.26.05,3,0,6.39,2.4,8.27,2.06,1.63,4.28.81,5.93,2.58s1.25,4.27.71,7.41a123.14,123.14,0,0,1-3.27,13.94c-1.44,4.81-1.36,9.09-1.2,17.7v1.25c.4,8,4.18,13.43,6,16.55,6.2,10.48,7.08,22.12,7.22,24.4.56,7.81-.89,13.44,2.65,15.68,1.6,1,3.22.7,6,.53,8-.53,10,1,17.37,1.33,10.54.44,25.67-2.11,27.62-7.5,1-2.81-1.18-4-1.93-10.32a26.63,26.63,0,0,1-.22-3.68,56,56,0,0,1,2.3-15.21c2.65-9.47,4.49-10.51,6.35-18.81.64-2.83.55-3.28,1.42-7,1-4.22,1.64-5.89,1.46-8.61a17.29,17.29,0,0,0-1.19-5c-3.72-10.5-6.5-17-6.5-17-.68-1.57-3.61-8.41-4.09-9.53,0,0,4.22-2.46,4.76-2.8,4.76-3,3.66-15.54,4.37-26.66.41-6.46.83-3.1,3.9-24.2a99.19,99.19,0,0,0,.88-21.78c-.52-7.17-1.55-9.92-3.61-12C99.42,26.86,96,26,89.35,24.36c-8.91-2.18-11.21-1.49-13.6-3.95-3-3.11-.92-5.78-3.64-8.75C67.26,6.42,54,7.48,51.16,12.51Z"/>
  <polyline class="cls-3" points="74.96 38.06 68.33 92.24 68.06 105.81"/>
  <polyline class="cls-3" points="35.56 63.26 37.14 91.67 36.94 101.95 36.71 113.47"/>
  <path class="cls-3" d="M92.24,48,88.09,65.25,83.85,85.32,80.24,101"/>
  <line class="cls-3" x1="75.17" y1="27.16" x2="75.48" y2="32.92"/>
  <path class="cls-4" d="M68.05,160.53A9.2,9.2,0,0,0,66.86,156c-1.65-2.82-4.5-3.89-7.25-5-10.62-4.32-8.61-4.82-13.2-6a38.26,38.26,0,0,0-18.66,0c0-.89,0-2,.07-3.29a42.93,42.93,0,0,1,.53-4.93A34.43,34.43,0,0,1,29.74,131c1-3,1.51-4.43,2.65-5.31,2.1-1.51,5.15-.69,6.84-.28,5.69,1.34,11.7.49,17.5,1.14,5.52.61,13.77.4,25.29-3.66a34.53,34.53,0,0,0,7.76-2.33c2.47-1.08,3.47-1.85,4.73-1.55.88.18,1.9.94,4.12,7.88,2,6.36,1.83,7.26,1.55,7.84-1,2.15-3.39,2-7.7,4-3,1.38-5.31,3.42-10.13,7.5-1,.84-7.41,6.39-8.23,9.86a10.73,10.73,0,0,0-.49,3.28,3,3,0,0,1,0,2.05,2.11,2.11,0,0,1-.89.81l-2.15.79Z"/>
  <polyline class="cls-3" points="61.47 169.25 52.03 171.13 42.63 170.97"/>
  <path class="cls-1" d="M70.29,217.19c-.64-3.66-2.83-16.23-4.12-26.26a30.53,30.53,0,0,1-.3-6.19c.24-4.43,1.43-6.94,2.79-11.88a85.69,85.69,0,0,0,2.12-10l1.77-1.2L74.9,216v1.3Z"/>
  <path class="cls-3" d="M92.65,166.76,99,164.18"/>
</svg>
