<svg id="Layer_1" data-name="Layer 1" xmlns="http://www.w3.org/2000/svg" viewBox="0 0 136 227">
  <defs>
    <style>
      .cls-1 {
        fill: #ea7657;
      }

      .cls-2 {
        fill: #bf9579;
      }

      .cls-3 {
        fill: none;
        stroke: #7c5942;
        stroke-miterlimit: 10;
      }

      .cls-4 {
        fill: #51321d;
      }
    </style>
  </defs>
  <title>naked_7</title>
  <rect class="cls-1" x="-0.25" y="-0.35" width="135.49" height="226.7" transform="translate(-0.25 0.15) rotate(-0.13)"/>
  <path class="cls-2" d="M2.32,117.52a11.24,11.24,0,0,1,3.53-5A13.09,13.09,0,0,1,12,109.78c3.95-.69,6,.73,12.84,2.46l.65.11c4.09,1,7.11,1.45,7.94,1.58,4.44.68,12.42,2.6,19.13,4.26,7.15,1.76,8.9,2.41,11.38,1.36,2.32-1,2.27-2.18,6.61-6.23a71.82,71.82,0,0,1,8.85-6.88,61.14,61.14,0,0,1,9.46-5.74,49.22,49.22,0,0,1,9-3.15c5.91-1.42,10.28-1.24,17.84-.85,11.55.58,13.11,2.23,13.7,3,2,2.57,1,5.82.33,10.3-1.23,8-.5,15.36.92,30.06,1.17,11.85,3.24,18.68.63,20-1.11.58-2-.4-6-1.83a47,47,0,0,0-13.4-2.44,13.9,13.9,0,0,0-2.81.31c-1.74.27-5.27.5-9,1.21-3.23.62-2.47.92-7.06,2a28.67,28.67,0,0,1-7.07,1.07,18.19,18.19,0,0,1-5.87-.66,18.65,18.65,0,0,0-4.9-1c-2.5-.15-2.75,1.11-6.17,2.2-5.56,1.76-9,0-10.15,2.05-.56.91.34,1.39.1,3.14-.31,2.3-2,2.94-5.45,6.77-1.77,1.93-3.33,4-4.37,5.29-2.56,3.31-2.68,3.87-3.83,4.42-1.49.72-2.27.25-6.79.22l-5.1.16c-5.5.18-8.5,1.05-8.79.28-.17-.49.8-1.29,2.47-2.66,2.05-1.68,2.63-1.65,3.6-2.7,1.26-1.34.92-2.07,2.12-4.65,1.75-3.66,3.67-4.73,3.23-5.54s-2.34.08-6.79.22c-3.27.09-3.51-.34-6.25-.09A14.85,14.85,0,0,0,17,169.2c-3.09,1.61-4.59,4.49-5.51,6.2-2.26,4.41-1.6,7.19-3.95,8.47-.91.49-2.33.74-3.12.1-1.21-1-.52-3.66-.17-5.44l-.52-16.66-.37-11.46c-.27-8.49,1.47-17.29-.81-25.48A12.33,12.33,0,0,1,2.32,117.52Z"/>
  <path class="cls-3" d="M13.05,130.75c0,.82.09,1.82.09,3,0,2.2-.15,2.66.12,3.78a10.52,10.52,0,0,0,1.13,2.68,12.08,12.08,0,0,0,1.1,1.58"/>
  <path class="cls-3" d="M10.31,156.39a8.43,8.43,0,0,1,3.47-1.4,19.72,19.72,0,0,1,2.77-.08c1.3,0,2.34-.07,3-.1"/>
  <path class="cls-3" d="M20.78,146.47a13.27,13.27,0,0,0,3.47,6.63,18.56,18.56,0,0,0,2.82,2.25,29,29,0,0,0,4.34,2.45"/>
  <path class="cls-3" d="M88.87,151.57a6.73,6.73,0,0,1-3.42,5.79"/>
  <path class="cls-3" d="M80.24,149c-.51,0-.63.38-1.72.85-.37.15-.51.18-.5.25s1.16.46,2.26.19c.32-.08.92-.24,1-.55S80.78,149,80.24,149Z"/>
  <path class="cls-3" d="M106.29,139.61c.74.07,1.78.19,3,.43a38.85,38.85,0,0,1,3.78.92c1.06.29,2.44.67,4,1.17"/>
  <path class="cls-3" d="M45.3,121.67a35.45,35.45,0,0,0,3.79.92c2.47.48,3.14.35,6.8.83,2.55.33,2.93.49,4.78.63,3.51.25,4.47-.14,5-.43a6.24,6.24,0,0,0,2.67-3.19"/>
  <path class="cls-3" d="M20.21,160.49a12,12,0,0,1,2.23-.85,11.24,11.24,0,0,1,3-.35"/>
  <path class="cls-3" d="M43.42,157.16a11.44,11.44,0,0,1-2.19,2.15,3,3,0,0,1-1,.54,3.45,3.45,0,0,1-2.26-.18,6.59,6.59,0,0,1-2.05-1.23,40.71,40.71,0,0,1-4.14-4.27c-2.32-3.07-1.85-3.38-4-6.11A49.23,49.23,0,0,0,24,143.78c-1.11-1.13-2-1.92-2.85-2.77-1.79-1.69-4.05-3.8-6.71-6.27"/>
  <path class="cls-3" d="M35.93,166a22.12,22.12,0,0,1,1.67-2.91,21,21,0,0,1,2.65-3.23"/>
  <path class="cls-3" d="M97.06,129.15c.81,1.42,1.53,2.62,2.12,3.56a19.81,19.81,0,0,0,2.1,3,7.93,7.93,0,0,0,1.85,1.76c1,.62,1.85.64,2.3,1.48a2.18,2.18,0,0,1,.28,1c0,1.12-1.26,1.79-2.42,2.67a37.67,37.67,0,0,0-3.88,4c-.8.81-2,2-3.4,3.48"/>
  <path class="cls-3" d="M52.61,154.28c-1.32-1.47-2.36-2.78-3.13-3.8a63.17,63.17,0,0,1-5.66-8.69c-1-2-1.56-3-1.6-3.1a8.45,8.45,0,0,0-.64-1.23l-.15-.25a32.46,32.46,0,0,0-7.84-7.76c-.39-.26-1.41-.93-2.77-1.95-.55-.42-.92-.75-1.29-1S28,125.23,26.64,124h0a16.86,16.86,0,0,0-3.16-2.48,6.14,6.14,0,0,0-2.55-.69"/>
  <path class="cls-3" d="M57.26,150.76a59,59,0,0,0,6.78.31l6.26-.21,2-.06"/>
  <path class="cls-3" d="M82.09,110.57A39.9,39.9,0,0,1,95,105.75a26.7,26.7,0,0,1,9.76-.31,24.29,24.29,0,0,1,5.55,1.65"/>
  <path class="cls-4" d="M103.7,142a1.39,1.39,0,1,0-1.39-1.39A1.39,1.39,0,0,0,103.7,142Z"/>
  <path class="cls-4" d="M101,140.48a1.39,1.39,0,1,0-1.39-1.39A1.39,1.39,0,0,0,101,140.48Z"/>
  <path class="cls-4" d="M100.16,138.34A1.39,1.39,0,1,0,98.77,137,1.38,1.38,0,0,0,100.16,138.34Z"/>
  <path class="cls-4" d="M102.53,140.11a1.39,1.39,0,1,0-1.38-1.39A1.39,1.39,0,0,0,102.53,140.11Z"/>
  <path class="cls-4" d="M100.4,143A1.39,1.39,0,1,0,99,141.6,1.39,1.39,0,0,0,100.4,143Z"/>
  <path class="cls-4" d="M97.71,146.88a1.39,1.39,0,1,0-1.39-1.39A1.38,1.38,0,0,0,97.71,146.88Z"/>
  <path class="cls-4" d="M100.46,145.24a1.39,1.39,0,1,0-1.38-1.39A1.39,1.39,0,0,0,100.46,145.24Z"/>
  <path class="cls-4" d="M101.42,144.43A1.39,1.39,0,1,0,100,143,1.39,1.39,0,0,0,101.42,144.43Z"/>
  <path class="cls-4" d="M102.35,142.92a1.39,1.39,0,1,0-1.39-1.39A1.39,1.39,0,0,0,102.35,142.92Z"/>
  <path class="cls-4" d="M101.72,141.14a1.39,1.39,0,1,0-1.39-1.38A1.38,1.38,0,0,0,101.72,141.14Z"/>
  <path class="cls-4" d="M104.65,141.05a1.39,1.39,0,1,0-1.39-1.38A1.38,1.38,0,0,0,104.65,141.05Z"/>
  <path class="cls-4" d="M99.09,135.85a1.39,1.39,0,1,0-1.38-1.39A1.39,1.39,0,0,0,99.09,135.85Z"/>
  <path class="cls-4" d="M97.6,133.5a1.39,1.39,0,1,0-1.39-1.39A1.38,1.38,0,0,0,97.6,133.5Z"/>
  <path class="cls-4" d="M97.51,132.17a1.39,1.39,0,1,0-1.38-1.39A1.39,1.39,0,0,0,97.51,132.17Z"/>
  <path class="cls-4" d="M98.39,134.49A1.39,1.39,0,1,0,97,133.1,1.39,1.39,0,0,0,98.39,134.49Z"/>
  <path class="cls-4" d="M97.94,135.65a1.39,1.39,0,1,0-1.39-1.39A1.38,1.38,0,0,0,97.94,135.65Z"/>
  <path class="cls-4" d="M97.94,135.65a1.39,1.39,0,1,0-1.39-1.39A1.38,1.38,0,0,0,97.94,135.65Z"/>
  <path class="cls-4" d="M96.33,142.74a1.39,1.39,0,1,0-1.39-1.38A1.39,1.39,0,0,0,96.33,142.74Z"/>
  <path class="cls-4" d="M98.25,140.16a1.39,1.39,0,1,0-1.38-1.39A1.39,1.39,0,0,0,98.25,140.16Z"/>
  <path class="cls-4" d="M98.43,145.63A1.39,1.39,0,1,0,97,144.24,1.39,1.39,0,0,0,98.43,145.63Z"/>
  <path class="cls-4" d="M99.22,142.7a1.39,1.39,0,1,0-1.38-1.39A1.39,1.39,0,0,0,99.22,142.7Z"/>
  <path class="cls-4" d="M100.35,140.27A1.39,1.39,0,1,0,99,138.88,1.39,1.39,0,0,0,100.35,140.27Z"/>
  <path class="cls-4" d="M101.7,138a1.39,1.39,0,1,0-1.39-1.38A1.38,1.38,0,0,0,101.7,138Z"/>
  <path class="cls-4" d="M98.66,136.18a1.39,1.39,0,1,0-1.39-1.39A1.39,1.39,0,0,0,98.66,136.18Z"/>
  <path class="cls-4" d="M99.84,135.59a1.39,1.39,0,1,0-1.38-1.39A1.39,1.39,0,0,0,99.84,135.59Z"/>
  <path class="cls-4" d="M101.67,136.91a1.39,1.39,0,1,0-1.38-1.39A1.39,1.39,0,0,0,101.67,136.91Z"/>
  <path class="cls-4" d="M103,138.85a1.39,1.39,0,1,0-1.39-1.39A1.38,1.38,0,0,0,103,138.85Z"/>
  <path class="cls-4" d="M104.66,139.86a1.39,1.39,0,1,0-1.39-1.39A1.39,1.39,0,0,0,104.66,139.86Z"/>
  <path class="cls-4" d="M106.45,141.27a1.39,1.39,0,0,0,0-2.77h0a1.39,1.39,0,1,0,0,2.77Z"/>
  <path class="cls-4" d="M101.88,143.26a1.39,1.39,0,1,0-1.39-1.38A1.38,1.38,0,0,0,101.88,143.26Z"/>
  <path class="cls-4" d="M100.82,143.94a1.39,1.39,0,1,0-1.38-1.39A1.39,1.39,0,0,0,100.82,143.94Z"/>
  <path class="cls-4" d="M100.82,143.94a1.39,1.39,0,1,0-1.38-1.39A1.39,1.39,0,0,0,100.82,143.94Z"/>
  <path class="cls-4" d="M98.73,143.64a1.39,1.39,0,1,0-1.38-1.39A1.39,1.39,0,0,0,98.73,143.64Z"/>
  <path class="cls-4" d="M98.25,140.06a1.39,1.39,0,1,0-1.38-1.38A1.38,1.38,0,0,0,98.25,140.06Z"/>
  <path class="cls-4" d="M98.25,140.06a1.39,1.39,0,1,0-1.38-1.38A1.38,1.38,0,0,0,98.25,140.06Z"/>
  <path class="cls-4" d="M98.25,140.06a1.39,1.39,0,1,0-1.38-1.38A1.38,1.38,0,0,0,98.25,140.06Z"/>
  <path class="cls-4" d="M97.24,137.63a1.39,1.39,0,1,0-1.39-1.39A1.38,1.38,0,0,0,97.24,137.63Z"/>
  <path class="cls-4" d="M97.2,136.36A1.39,1.39,0,1,0,95.81,135,1.39,1.39,0,0,0,97.2,136.36Z"/>
  <path class="cls-4" d="M96.73,132.6a1.39,1.39,0,1,0-1.39-1.39A1.38,1.38,0,0,0,96.73,132.6Z"/>
  <path class="cls-4" d="M96.61,131.68a1.39,1.39,0,1,0-1.39-1.38A1.38,1.38,0,0,0,96.61,131.68Z"/>
  <path class="cls-4" d="M96.68,133.93a1.39,1.39,0,1,0-1.39-1.39A1.39,1.39,0,0,0,96.68,133.93Z"/>
  <path class="cls-4" d="M96.93,141.81a1.39,1.39,0,1,0-1.39-1.39A1.39,1.39,0,0,0,96.93,141.81Z"/>
  <path class="cls-4" d="M97.25,145.16a1.39,1.39,0,1,0-1.38-1.39A1.39,1.39,0,0,0,97.25,145.16Z"/>
  <path class="cls-4" d="M97.44,148.1a1.39,1.39,0,1,0-1.39-1.39A1.39,1.39,0,0,0,97.44,148.1Z"/>
  <path class="cls-4" d="M97.19,150.18a1.39,1.39,0,1,0-1.39-1.39A1.39,1.39,0,0,0,97.19,150.18Z"/>
  <path class="cls-4" d="M98.13,148.91a1.39,1.39,0,1,0-1.39-1.38A1.38,1.38,0,0,0,98.13,148.91Z"/>
  <path class="cls-4" d="M99.66,146.23a1.39,1.39,0,1,0-1.39-1.39A1.38,1.38,0,0,0,99.66,146.23Z"/>
  <path class="cls-4" d="M100.3,146.88a1.39,1.39,0,1,0-1.39-1.39A1.38,1.38,0,0,0,100.3,146.88Z"/>
  <path class="cls-4" d="M103.3,143.49a1.39,1.39,0,1,0-1.39-1.38A1.38,1.38,0,0,0,103.3,143.49Z"/>
  <path class="cls-4" d="M104.73,142.25a1.39,1.39,0,1,0-1.38-1.38A1.38,1.38,0,0,0,104.73,142.25Z"/>
  <path class="cls-4" d="M105.57,140.33a1.39,1.39,0,1,0-1.39-1.39,1.38,1.38,0,0,0,1.39,1.39Z"/>
  <path class="cls-4" d="M105.47,141.67a1.39,1.39,0,1,0-1.38-1.39A1.39,1.39,0,0,0,105.47,141.67Z"/>
  <path class="cls-4" d="M99.28,137.4A1.39,1.39,0,1,0,97.89,136,1.39,1.39,0,0,0,99.28,137.4Z"/>
  <path class="cls-4" d="M99.33,138.92A1.39,1.39,0,1,0,98,137.53,1.39,1.39,0,0,0,99.33,138.92Z"/>
  <path class="cls-4" d="M98.06,138.13a1.39,1.39,0,1,0-1.39-1.39A1.39,1.39,0,0,0,98.06,138.13Z"/>
  <path class="cls-4" d="M100.43,137.32a1.39,1.39,0,1,0-1.38-1.39A1.39,1.39,0,0,0,100.43,137.32Z"/>
  <path class="cls-4" d="M100.42,136.71A1.39,1.39,0,1,0,99,135.32,1.38,1.38,0,0,0,100.42,136.71Z"/>
  <path class="cls-4" d="M98.91,141.24a1.39,1.39,0,1,0-1.39-1.39A1.39,1.39,0,0,0,98.91,141.24Z"/>
  <path class="cls-4" d="M100.44,141.75a1.39,1.39,0,1,0-1.38-1.39A1.39,1.39,0,0,0,100.44,141.75Z"/>
  <path class="cls-4" d="M102.8,141.52a1.39,1.39,0,1,0-1.39-1.38A1.38,1.38,0,0,0,102.8,141.52Z"/>
  <path class="cls-4" d="M104.28,139.13a1.39,1.39,0,1,0-1.39-1.39A1.39,1.39,0,0,0,104.28,139.13Z"/>
  <path class="cls-4" d="M103.42,140.08a1.39,1.39,0,1,0-1.39-1.39A1.39,1.39,0,0,0,103.42,140.08Z"/>
  <path class="cls-4" d="M103.54,141a1.39,1.39,0,1,0-1.39-1.38A1.38,1.38,0,0,0,103.54,141Z"/>
  <path class="cls-4" d="M104.59,140.28a1.39,1.39,0,1,0-1.39-1.39A1.39,1.39,0,0,0,104.59,140.28Z"/>
  <path class="cls-4" d="M105,140.53a1.39,1.39,0,1,0-1.39-1.38A1.38,1.38,0,0,0,105,140.53Z"/>
  <path class="cls-4" d="M105.06,141.27a1.39,1.39,0,1,0-1.39-1.38A1.39,1.39,0,0,0,105.06,141.27Z"/>
  <path class="cls-4" d="M104.17,142.73a1.39,1.39,0,1,0-1.39-1.39A1.39,1.39,0,0,0,104.17,142.73Z"/>
  <path class="cls-4" d="M104.17,142.73a1.39,1.39,0,1,0-1.39-1.39A1.39,1.39,0,0,0,104.17,142.73Z"/>
  <path class="cls-4" d="M104.18,141.49a1.39,1.39,0,1,0-1.39-1.39A1.39,1.39,0,0,0,104.18,141.49Z"/>
  <path class="cls-4" d="M103.78,140.16a1.39,1.39,0,1,0-1.38-1.38A1.38,1.38,0,0,0,103.78,140.16Z"/>
  <path class="cls-4" d="M100.66,138.6a1.39,1.39,0,1,0-1.39-1.39A1.38,1.38,0,0,0,100.66,138.6Z"/>
  <path class="cls-4" d="M101.34,139a1.39,1.39,0,1,0-1.39-1.39A1.39,1.39,0,0,0,101.34,139Z"/>
  <path class="cls-4" d="M101.34,139a1.39,1.39,0,1,0-1.39-1.39A1.39,1.39,0,0,0,101.34,139Z"/>
  <path class="cls-4" d="M98.07,141.22a1.39,1.39,0,1,0-1.39-1.39A1.38,1.38,0,0,0,98.07,141.22Z"/>
  <path class="cls-4" d="M97.58,139.8a1.39,1.39,0,1,0-1.39-1.38A1.38,1.38,0,0,0,97.58,139.8Z"/>
  <path class="cls-4" d="M97.17,138.39A1.39,1.39,0,1,0,95.78,137,1.39,1.39,0,0,0,97.17,138.39Z"/>
  <path class="cls-4" d="M96.66,135a1.39,1.39,0,1,0-1.39-1.39A1.39,1.39,0,0,0,96.66,135Z"/>
  <path class="cls-4" d="M97.36,134.65A1.39,1.39,0,1,0,96,133.27,1.38,1.38,0,0,0,97.36,134.65Z"/>
  <path class="cls-4" d="M98.08,133.11a1.39,1.39,0,1,0-1.39-1.39A1.38,1.38,0,0,0,98.08,133.11Z"/>
  <path class="cls-4" d="M98.59,133.28a.7.7,0,0,0,.7-.7.7.7,0,1,0-.7.7Z"/>
  <path class="cls-4" d="M99.29,134.86a1.39,1.39,0,1,0-1.39-1.39A1.39,1.39,0,0,0,99.29,134.86Z"/>
  <path class="cls-4" d="M98.19,135.13a1.39,1.39,0,1,0-1.39-1.38A1.38,1.38,0,0,0,98.19,135.13Z"/>
  <path class="cls-4" d="M96.37,139.61A1.39,1.39,0,1,0,95,138.22,1.38,1.38,0,0,0,96.37,139.61Z"/>
  <path class="cls-4" d="M96.29,141.46a1.39,1.39,0,1,0-1.39-1.39A1.39,1.39,0,0,0,96.29,141.46Z"/>
  <path class="cls-4" d="M96.88,143.56a1.39,1.39,0,1,0-1.38-1.39A1.39,1.39,0,0,0,96.88,143.56Z"/>
  <path class="cls-4" d="M96.14,145.24a1.39,1.39,0,1,0-1.38-1.39A1.39,1.39,0,0,0,96.14,145.24Z"/>
  <path class="cls-4" d="M96.28,146.88a1.39,1.39,0,1,0-1.38-1.39A1.39,1.39,0,0,0,96.28,146.88Z"/>
  <path class="cls-4" d="M96.29,148.41A1.39,1.39,0,1,0,94.9,147,1.38,1.38,0,0,0,96.29,148.41Z"/>
  <path class="cls-4" d="M96.25,150a1.39,1.39,0,1,0-1.38-1.39A1.39,1.39,0,0,0,96.25,150Z"/>
  <path class="cls-4" d="M96.62,149.24a1.39,1.39,0,1,0-1.38-1.39A1.39,1.39,0,0,0,96.62,149.24Z"/>
  <path class="cls-4" d="M97.62,149.65a1.39,1.39,0,1,0-1.38-1.38A1.38,1.38,0,0,0,97.62,149.65Z"/>
  <path class="cls-4" d="M98.46,148.07a1.39,1.39,0,1,0-1.38-1.39A1.39,1.39,0,0,0,98.46,148.07Z"/>
  <path class="cls-4" d="M99,147.31a1.39,1.39,0,1,0-1.38-1.38A1.38,1.38,0,0,0,99,147.31Z"/>
  <path class="cls-4" d="M99.34,144.91A1.39,1.39,0,1,0,98,143.52,1.39,1.39,0,0,0,99.34,144.91Z"/>
  <path class="cls-4" d="M99.58,144.25a1.39,1.39,0,1,0-1.38-1.39A1.39,1.39,0,0,0,99.58,144.25Z"/>
  <path class="cls-4" d="M99.37,143A1.39,1.39,0,1,0,98,141.63,1.39,1.39,0,0,0,99.37,143Z"/>
  <path class="cls-4" d="M97.81,142.11a1.39,1.39,0,1,0-1.39-1.39A1.39,1.39,0,0,0,97.81,142.11Z"/>
  <path class="cls-4" d="M97,144a1.39,1.39,0,1,0-1.39-1.39A1.39,1.39,0,0,0,97,144Z"/>
  <path class="cls-4" d="M96,144.73a1.39,1.39,0,1,0-1.38-1.38A1.38,1.38,0,0,0,96,144.73Z"/>
  <path class="cls-4" d="M96.11,143.91a1.39,1.39,0,1,0-1.39-1.39A1.38,1.38,0,0,0,96.11,143.91Z"/>
  <path class="cls-4" d="M98.24,144a1.39,1.39,0,1,0-1.38-1.39A1.39,1.39,0,0,0,98.24,144Z"/>
  <path class="cls-4" d="M97.65,143.58a1.39,1.39,0,1,0-1.39-1.39A1.39,1.39,0,0,0,97.65,143.58Z"/>
  <path class="cls-4" d="M97.65,143.58a1.39,1.39,0,1,0-1.39-1.39A1.39,1.39,0,0,0,97.65,143.58Z"/>
  <path class="cls-4" d="M98.54,142a1.39,1.39,0,1,0-1.39-1.38A1.38,1.38,0,0,0,98.54,142Z"/>
  <path class="cls-4" d="M100.17,141.43A1.39,1.39,0,1,0,98.78,140,1.38,1.38,0,0,0,100.17,141.43Z"/>
  <path class="cls-4" d="M102.15,142a1.39,1.39,0,1,0-1.39-1.38A1.38,1.38,0,0,0,102.15,142Z"/>
  <path class="cls-4" d="M101.37,142.82a1.39,1.39,0,1,0-1.39-1.39A1.39,1.39,0,0,0,101.37,142.82Z"/>
  <path class="cls-4" d="M102.1,139.3a1.39,1.39,0,1,0-1.39-1.39A1.39,1.39,0,0,0,102.1,139.3Z"/>
  <path class="cls-4" d="M99.48,139.66a1.39,1.39,0,1,0-1.38-1.39A1.39,1.39,0,0,0,99.48,139.66Z"/>
  <path class="cls-4" d="M99.12,138.1a1.39,1.39,0,1,0-1.39-1.38A1.38,1.38,0,0,0,99.12,138.1Z"/>
  <path class="cls-4" d="M99.12,138.1a1.39,1.39,0,1,0-1.39-1.38A1.38,1.38,0,0,0,99.12,138.1Z"/>
  <path class="cls-4" d="M98.29,137.16a1.39,1.39,0,1,0-1.39-1.39A1.39,1.39,0,0,0,98.29,137.16Z"/>
  <path class="cls-4" d="M99.94,137.06a1.39,1.39,0,1,0-1.39-1.39A1.38,1.38,0,0,0,99.94,137.06Z"/>
  <path class="cls-4" d="M99.26,136.71a1.39,1.39,0,1,0-1.39-1.39A1.39,1.39,0,0,0,99.26,136.71Z"/>
  <path class="cls-4" d="M99.29,140.35A1.39,1.39,0,1,0,97.9,139,1.39,1.39,0,0,0,99.29,140.35Z"/>
  <path class="cls-4" d="M98.36,139.37A1.39,1.39,0,1,0,97,138,1.39,1.39,0,0,0,98.36,139.37Z"/>
  <path class="cls-4" d="M97.6,139.06a1.39,1.39,0,1,0-1.39-1.38A1.38,1.38,0,0,0,97.6,139.06Z"/>
  <path class="cls-4" d="M100.64,139.48a1.39,1.39,0,1,0-1.39-1.39A1.39,1.39,0,0,0,100.64,139.48Z"/>
  <path class="cls-4" d="M101.78,140.31a1.39,1.39,0,1,0-1.39-1.38A1.38,1.38,0,0,0,101.78,140.31Z"/>
  <path class="cls-4" d="M102.16,144.1a1.39,1.39,0,1,0-1.38-1.38A1.38,1.38,0,0,0,102.16,144.1Z"/>
  <path class="cls-4" d="M103.06,142.67a1.39,1.39,0,1,0-1.39-1.39A1.39,1.39,0,0,0,103.06,142.67Z"/>
  <path class="cls-4" d="M99.12,142.06a1.39,1.39,0,1,0-1.39-1.39A1.39,1.39,0,0,0,99.12,142.06Z"/>
  <path class="cls-4" d="M101.3,142.25a1.39,1.39,0,1,0-1.38-1.38A1.38,1.38,0,0,0,101.3,142.25Z"/>
  <path class="cls-4" d="M100.33,141.1A1.39,1.39,0,1,0,99,139.71,1.39,1.39,0,0,0,100.33,141.1Z"/>
  <path class="cls-4" d="M99.8,142.54a1.39,1.39,0,1,0-1.39-1.39A1.38,1.38,0,0,0,99.8,142.54Z"/>
  <path class="cls-4" d="M101,144.85a1.39,1.39,0,1,0-1.39-1.38A1.38,1.38,0,0,0,101,144.85Z"/>
  <path class="cls-4" d="M101.27,145.17a1.39,1.39,0,1,0-1.39-1.39A1.38,1.38,0,0,0,101.27,145.17Z"/>
  <path class="cls-4" d="M97.15,146.22a1.39,1.39,0,1,0-1.39-1.39A1.39,1.39,0,0,0,97.15,146.22Z"/>
  <path class="cls-4" d="M98.59,146.68a1.39,1.39,0,1,0-1.38-1.38A1.38,1.38,0,0,0,98.59,146.68Z"/>
  <path class="cls-4" d="M97.51,144.78a1.39,1.39,0,1,0-1.38-1.39A1.39,1.39,0,0,0,97.51,144.78Z"/>
  <path class="cls-4" d="M98.18,144.76a1.39,1.39,0,1,0-1.39-1.39A1.39,1.39,0,0,0,98.18,144.76Z"/>
  <path class="cls-4" d="M100.4,146A1.39,1.39,0,1,0,99,144.64,1.38,1.38,0,0,0,100.4,146Z"/>
  <path class="cls-4" d="M97.69,143.39A1.39,1.39,0,1,0,96.3,142,1.39,1.39,0,0,0,97.69,143.39Z"/>
  <path class="cls-4" d="M97.22,141.15a1.39,1.39,0,1,0-1.39-1.38A1.38,1.38,0,0,0,97.22,141.15Z"/>
  <path class="cls-4" d="M96.13,137.87a1.39,1.39,0,1,0-1.38-1.39A1.39,1.39,0,0,0,96.13,137.87Z"/>
  <path class="cls-4" d="M101.37,139a.7.7,0,1,0-.69-.7A.69.69,0,0,0,101.37,139Z"/>
  <path class="cls-4" d="M100.44,140.33a.7.7,0,1,0-.69-.69A.69.69,0,0,0,100.44,140.33Z"/>
  <path class="cls-4" d="M100.44,140.33a.7.7,0,1,0-.69-.69A.69.69,0,0,0,100.44,140.33Z"/>
  <path class="cls-4" d="M99.18,138.74a.7.7,0,1,0-.7-.69A.69.69,0,0,0,99.18,138.74Z"/>
  <path class="cls-4" d="M97.94,141.13a.7.7,0,1,0-.7-.7A.69.69,0,0,0,97.94,141.13Z"/>
  <path class="cls-4" d="M97.94,141.13a.7.7,0,1,0-.7-.7A.69.69,0,0,0,97.94,141.13Z"/>
  <path class="cls-4" d="M97.81,143.85a.7.7,0,0,0,.69-.7.69.69,0,0,0-.69-.69.7.7,0,0,0-.7.69A.71.71,0,0,0,97.81,143.85Z"/>
  <path class="cls-4" d="M99.78,142.7a.7.7,0,1,0-.7-.7A.7.7,0,0,0,99.78,142.7Z"/>
  <path class="cls-4" d="M101.59,140.65a.69.69,0,1,0-.69-.69A.69.69,0,0,0,101.59,140.65Z"/>
  <path class="cls-4" d="M103.59,140.32a.69.69,0,0,0,.69-.69.7.7,0,1,0-.69.69Z"/>
  <path class="cls-4" d="M96.55,135.93a.7.7,0,1,0-.69-.69A.69.69,0,0,0,96.55,135.93Z"/>
  <path class="cls-4" d="M96.62,135.48a.7.7,0,1,0-.69-.7A.7.7,0,0,0,96.62,135.48Z"/>
  <path class="cls-4" d="M96.62,135.48a.7.7,0,1,0-.69-.7A.7.7,0,0,0,96.62,135.48Z"/>
  <path class="cls-4" d="M97.44,135.13a.69.69,0,0,0,0-1.38.69.69,0,1,0,0,1.38Z"/>
  <path class="cls-4" d="M97.44,135.13a.69.69,0,0,0,0-1.38.69.69,0,1,0,0,1.38Z"/>
  <path class="cls-4" d="M96.27,139.74a.7.7,0,1,0-.69-.69A.69.69,0,0,0,96.27,139.74Z"/>
  <path class="cls-4" d="M96.27,139.74a.7.7,0,1,0-.69-.69A.69.69,0,0,0,96.27,139.74Z"/>
  <path class="cls-4" d="M97.33,139.89a.7.7,0,1,0-.7-.7A.69.69,0,0,0,97.33,139.89Z"/>
  <path class="cls-4" d="M97.33,139.89a.7.7,0,1,0-.7-.7A.69.69,0,0,0,97.33,139.89Z"/>
  <path class="cls-4" d="M97.1,143.64a.69.69,0,0,0,.69-.69.7.7,0,1,0-.69.69Z"/>
  <path class="cls-4" d="M101,140.49a.7.7,0,1,0-.69-.7A.69.69,0,0,0,101,140.49Z"/>
  <path class="cls-4" d="M103.89,140a.7.7,0,0,0,.7-.7.7.7,0,1,0-.7.7Z"/>
</svg>
