<svg id="Layer_1" data-name="Layer 1" xmlns="http://www.w3.org/2000/svg" width="230" height="130" viewBox="0 0 230 130"><defs><style>.cls-1{fill:#c0e2ef;stroke:#000;stroke-miterlimit:10;}.cls-2{fill:#1f2531;}</style></defs><title>point</title><rect class="cls-1" x="4" y="3.5" width="222" height="123" rx="12"/><path class="cls-2" d="M25.7,45.26V45a5.15,5.15,0,0,1,1-3.62,3.5,3.5,0,0,1,2.62-.86,10.76,10.76,0,0,1,1.43.11,14.35,14.35,0,0,1,4.31,1.33,11.3,11.3,0,0,1,3.6,2.73,8.32,8.32,0,0,1,1.93,4,7.3,7.3,0,0,1,.09,1.14,6.78,6.78,0,0,1-.05.77l-.06.7a13,13,0,0,1-3.17,6.89,16.31,16.31,0,0,1-6.21,4.47q0,1.89.06,3.81c0,1.3,0,2.59,0,3.86v1.26a11.26,11.26,0,0,1-.26,2.34,3.65,3.65,0,0,1-1,1.92,2,2,0,0,1-1.43.5,4.82,4.82,0,0,1-.81-.08,2.42,2.42,0,0,1-1.7-1.41,6.34,6.34,0,0,1-.5-2.46c0-.27,0-.53,0-.79,0-.65,0-1.27.09-1.87s.05-.94.06-1.32q0-4.12.05-8.24,0-5.16-.07-10.33C25.72,48.32,25.71,46.79,25.7,45.26Zm5.52,2.2V59.3a13.67,13.67,0,0,0,3.48-2.73,11.82,11.82,0,0,0,2.45-3.9,6.64,6.64,0,0,0,.42-2.31,7.08,7.08,0,0,0-.31-2,7.1,7.1,0,0,0-4.29-4,2.58,2.58,0,0,0-.79-.15.81.81,0,0,0-.55.17,1.42,1.42,0,0,0-.44,1c0,.22,0,.46,0,.71s0,.47,0,.72S31.2,47.25,31.22,47.46Z"/><path class="cls-2" d="M55.94,41a6.87,6.87,0,0,1,4.31,2,11,11,0,0,1,2.46,4,24.58,24.58,0,0,1,1.22,4.57A39,39,0,0,1,64.46,58a40,40,0,0,1-1,8.74,18.87,18.87,0,0,1-2,5,9.44,9.44,0,0,1-3.54,3.53,7.26,7.26,0,0,1-3.6.86,11.5,11.5,0,0,1-1.8-.15,6.49,6.49,0,0,1-3.42-1.73A9.75,9.75,0,0,1,47,71.12a25.87,25.87,0,0,1-1.26-3.58,38.35,38.35,0,0,1-1.18-7.47c-.05-.8-.07-1.6-.07-2.39A38.62,38.62,0,0,1,45,51.77a17.9,17.9,0,0,1,2.57-7,8.39,8.39,0,0,1,3.58-3.08,9.07,9.07,0,0,1,3.63-.7Q55.34,41,55.94,41ZM60,67.85a32.84,32.84,0,0,0,.84-5.32q.24-2.47.24-5.16c0-.72,0-1.44-.05-2.18a26.41,26.41,0,0,0-1-6.92,6,6,0,0,0-2.94-4,3.1,3.1,0,0,0-1.19-.25,2.72,2.72,0,0,0-1.39.4,5.87,5.87,0,0,0-2,1.88,9.58,9.58,0,0,0-1.19,2.34,28.42,28.42,0,0,0-1.1,6.94c0,.63,0,1.26,0,1.89a41.39,41.39,0,0,0,.44,6.09,21.67,21.67,0,0,0,2,6.7c.81,1.48,1.67,2.28,2.6,2.39a2,2,0,0,0,.35,0,3.25,3.25,0,0,0,2.26-1,8.5,8.5,0,0,0,2-3C59.84,68.39,59.93,68.13,60,67.85Z"/><path class="cls-2" d="M71.87,71.67a19.84,19.84,0,0,1-.51-4.85c0-2.82.07-5.63.07-8.44q0-6.63,0-12.83v0l-1,0c-.65-.28-1-.66-1-1.14v-.18c0-1,.73-1.6,2.2-1.76l5-.35c1,.18,1.49.59,1.49,1.23v.53c0,.7-.66,1.19-2,1.47.06.19.11.4.16.62a20.42,20.42,0,0,1,.35,2.73c0,.82.07,1.49.07,2v5.21c0,1.16,0,2.32,0,3.47,0,2.42,0,4.83.07,7.23a21.69,21.69,0,0,1-.53,5c1.28,0,1.91.55,1.91,1.49s-.62,1.58-1.78,1.58H73.18q-1.09,0-2.13.09c-1.16,0-1.73-.5-1.73-1.49s.8-1.59,2.37-1.59Z"/><path class="cls-2" d="M102.06,73.08c-.34,1.08-.77,1.63-1.28,1.63a.83.83,0,0,1-.22,0A4,4,0,0,1,98.63,73a24.49,24.49,0,0,1-1.85-3.07c-.55-1.1-1-2-1.23-2.53-.06-.15-.11-.27-.15-.35Q94.26,64,93.18,61.5c-.4-.92-.8-1.85-1.21-2.77-.09-.22-.18-.44-.29-.66-.23-.53-.46-1.06-.68-1.6q-.72-1.71-1.47-3.39L89.46,53c-.11-.25-.18-.37-.21-.37v.75c0,1.68,0,3.37,0,5.07q0,5.91.22,11.85c0,.29,0,.58,0,.87,0,.5,0,1-.08,1.5a3.56,3.56,0,0,1-.84,1.94,2.86,2.86,0,0,1-2.24.76,2.26,2.26,0,0,1-1.89-.87,3.9,3.9,0,0,1-.64-2c0-.4,0-.79,0-1.17s0-.75,0-1.12,0-.56,0-.81c0-1.83,0-3.67,0-5.52q0-3.45-.07-6.9l0-5.4V47.83a11.32,11.32,0,0,1,.13-1.71,3.8,3.8,0,0,1,.8-1.84,2.37,2.37,0,0,1,1.92-.75,3.15,3.15,0,0,1,2.15.85,6.67,6.67,0,0,1,1.39,2,24.72,24.72,0,0,1,1,2.39c.16.45.31.87.46,1.25.06.16.15.4.28.7.4,1,1,2.41,1.73,4.27s1.56,3.79,2.41,5.81,1.61,3.85,2.29,5.51a9.88,9.88,0,0,0,1.37,2.74h0c.07,0,.13-.1.17-.29A4.35,4.35,0,0,0,99.9,68c0-.33,0-.66,0-1s0-.57,0-.75v-.15a126.4,126.4,0,0,0-.88-13q-.45-4.17-.74-8.43v-.11c0-.21,0-.41,0-.62s0-.44,0-.66A2,2,0,0,1,98.83,42a2.34,2.34,0,0,1,1.73-.51,1.24,1.24,0,0,1,1.18.62,3.77,3.77,0,0,1,.4,1.51c0,.42,0,.84,0,1.25v1.21c.06,1.52.12,3.07.19,4.64.14,3,.24,6,.31,9,0,.81,0,1.62,0,2.42,0,2.64,0,5-.17,7.14A18.17,18.17,0,0,1,102.06,73.08Z"/><path class="cls-2" d="M110.73,49.2c0-.15,0-.33,0-.53s0-.56,0-.84,0-.56,0-.85a1.35,1.35,0,0,0-.49-1.17,3.41,3.41,0,0,0-.85-.11,4.26,4.26,0,0,0-.86.09,5.64,5.64,0,0,1-.79.07,3.91,3.91,0,0,1-.86-.09c-.48-.1-.8-.51-1-1.21a2,2,0,0,1,0-.33,1.25,1.25,0,0,1,.38-.95,2,2,0,0,1,1.25-.52c1-.11,2-.2,3-.29l1.73-.17,1.08-.11,2.4-.25,2.44-.22,1,0,.44,0a1.75,1.75,0,0,1,1.23.86,1.47,1.47,0,0,1,.13.57,1.35,1.35,0,0,1-.22.73,2.27,2.27,0,0,1-1.63.87c-.42.08-.79.13-1.1.16a4.35,4.35,0,0,0-1.35.28,1,1,0,0,0-.47.84,9.26,9.26,0,0,0-.07,1.23q0,.42,0,.9l0,.51c0,2.27,0,4.54,0,6.83v3.41c0,3.73,0,7.47.07,11.2v.51a17.15,17.15,0,0,1-.11,1.86,3.92,3.92,0,0,1-.82,2,2.17,2.17,0,0,1-1.73.66,4,4,0,0,1-.49,0,2.47,2.47,0,0,1-2-1.34,6.39,6.39,0,0,1-.59-2.61v-.75q0-1.1.09-2.13c0-.51,0-1,.06-1.36q0-1.94,0-3.87c0-1.3,0-2.6,0-3.89,0-1.52,0-3.05,0-4.57v-.31C110.71,52.59,110.72,50.89,110.73,49.2Z"/></svg>
