<svg id="Layer_1" data-name="Layer 1" xmlns="http://www.w3.org/2000/svg" viewBox="0 0 1920 1080"><defs><style>.cls-1{fill:#e4d1e8;}.cls-2{fill:#fff;}.cls-3{fill:#eab2db;}.cls-4{fill:#fffbfa;}.cls-5{fill:#000503;}.cls-6{fill:#ffe000;}.cls-7{fill:#c7b299;}.cls-8{fill:#ea7657;}.cls-9{fill:#3b3b3b;}.cls-10{fill:#3d3d3d;}.cls-11{fill:#404040;}.cls-12{fill:#3e3e3e;}.cls-13{fill:#464646;}.cls-14{fill:#9f9f9f;}.cls-15{fill:#3f3f3f;}.cls-16{fill:#858585;}.cls-17{fill:#dadada;}.cls-18{fill:#1f2532;}.cls-19{fill:#fe9107;}.cls-20{fill:#fefefe;}.cls-21{fill:#fdfdfd;}.cls-22{fill:#fefefd;}.cls-23{fill:#222835;}.cls-24{fill:#232835;}.cls-25{fill:#fe930b;}.cls-26{fill:#ec9121;}.cls-27,.cls-31{fill:#846447;}.cls-28{fill:#e5cfbe;}.cls-29{fill:#b699ba;}.cls-30{fill:#db9f91;opacity:0.5;isolation:isolate;}.cls-31,.cls-32{stroke:#846447;stroke-width:0.25px;}.cls-31,.cls-32,.cls-37{stroke-miterlimit:10;}.cls-32,.cls-37{fill:none;}.cls-33{fill:#736357;}.cls-34{fill:#d12200;}.cls-35{fill:#ede683;}.cls-36{fill:#e8c992;}.cls-37{stroke:#c96;}.cls-38{fill:#0c0a02;}</style></defs><title>startscreen</title><rect class="cls-1" x="-20" y="1.01" width="1946" height="1094.63"/><rect x="836.92" y="88.27" width="275" height="153" rx="12"/><rect x="856.92" y="342.27" width="243" height="159" rx="12"/><rect x="759.92" y="220.27" width="436" height="139" rx="12"/><path class="cls-2" d="M908.81,122.85c.48-4.63.88-9.25,1.17-13.84a11.9,11.9,0,0,1,1.83-5.79,4,4,0,0,1,3.73-2.12,5.36,5.36,0,0,1,1.54.22,5,5,0,0,1,3.59,4.69c.05.68.07,1.39.07,2.12a26.4,26.4,0,0,1-.43,4.69c-.1.72-.2,1.39-.3,2-.14,1.36-.27,2.73-.36,4.1q-1.85,18.24-4.4,37.43a338.33,338.33,0,0,1-6.88,36.54,2.84,2.84,0,0,1-.15.52,87.06,87.06,0,0,1-3.63,11.49,18.93,18.93,0,0,1-6.92,9.23,14.3,14.3,0,0,1-6.88,2,10.68,10.68,0,0,1-4.25-.88,15.1,15.1,0,0,1-8.06-8A120.66,120.66,0,0,1,871.75,187q-3.09-12.28-4.77-21.28-2.85-15.88-5.2-32-1.32-8.79-2.71-17.5a20,20,0,0,1-.43-4,10.27,10.27,0,0,1,1-4.69q1.59-3.28,7.83-3.59h.22c3.23,0,5.64,1.08,7.26,3.23a20.17,20.17,0,0,1,3.36,8,79.8,79.8,0,0,1,1.32,9.23c.1,1.27.22,2.42.37,3.44a505.34,505.34,0,0,0,11.92,63.61c1.12,4.05,2,6.3,2.78,6.74a1,1,0,0,0,.44.14c.59,0,1.12-.68,1.61-2a49.83,49.83,0,0,0,1.61-6.22c.2-.88.39-1.74.59-2.57q3.66-16,5.93-32.15T908.81,122.85Z"/><path class="cls-2" d="M979.48,184.52l-27.9,2.79q-1.41,8.28-2.42,16.62a14.09,14.09,0,0,1-3.07,7.84q-2.57,3-7.77,3c-3.56-.14-5.91-1.29-7-3.44a11.42,11.42,0,0,1-1.17-5.35,17.27,17.27,0,0,1,.22-2.78Q932,190.9,934.8,173t6.78-35.27q4-17.31,9.12-27.86,3.57-6.37,9.08-7.25a12.2,12.2,0,0,1,1.91-.15q4.59,0,9.15,3.81,4.24,4,8.06,15.16c.19.54.39,1.1.58,1.68q.07-2.13.15-4.17a18.91,18.91,0,0,1,.07-2c0-4.5.63-7.69,1.73-9.59a6.73,6.73,0,0,1,5.23-3.37,37.61,37.61,0,0,1,5.2-.3q2,0,4.32.15a6.4,6.4,0,0,0,.88.07h5.42c2.88,0,5.75,0,8.61.08a29.17,29.17,0,0,1,5.67.44,5.83,5.83,0,0,1,4,3.44,4.11,4.11,0,0,1,.16,1.26,4.44,4.44,0,0,1-1.47,3.15c-1.36,1.37-3.88,2.08-7.54,2.13h-2.56a19.77,19.77,0,0,0-2.42-.15,14.66,14.66,0,0,0-5.86,1c-2.15.92-3.32,3.61-3.51,8v1.47q0,9.88-.52,19.63c0,1.41-.12,2.85-.22,4.32,0,3.07.61,4.93,1.83,5.56a8.29,8.29,0,0,0,3.45.59c.58,0,1.24,0,2-.07a23.69,23.69,0,0,1,2.92,0,16.48,16.48,0,0,0,1.76-.07c.88,0,1.81-.08,2.78-.08s2,0,3,.08a9,9,0,0,1,4.61,1.24,5.1,5.1,0,0,1,1.92,3.83,6.87,6.87,0,0,1-.22,1.62q-1,3.21-5.35,3.66h-1.17c-.83,0-1.86,0-3.08-.08-1.56-.09-3.15-.14-4.76-.14l-2.34.07a11.57,11.57,0,0,0-4.91.73,8.45,8.45,0,0,0-2.42,5.57c0,.64-.07,1.27-.07,1.9a27.83,27.83,0,0,0,.37,4.55c.14,1,.24,2,.29,3a8,8,0,0,1,.07,1.1,75.49,75.49,0,0,0,1,8.6,20.38,20.38,0,0,0,3,7.91,10,10,0,0,0,6.85,4.29c1.66.14,3.32.22,5,.22s3.32-.08,5-.22l4.25-.3q3.73.15,5.35,2.64a4.6,4.6,0,0,1,.8,2.49,5.52,5.52,0,0,1-.8,2.71q-1.7,2.64-7.69,3.15c-2.8.14-6,.22-9.45.22h-4.32a52,52,0,0,1-13.33-1.61q-6.52-2.34-9-7.76a45.71,45.71,0,0,1-3.48-11.94C980.22,189.58,979.82,187.06,979.48,184.52Zm-26.14-7.84,25.12-2.49a4.62,4.62,0,0,1-.15-.74c-.24-1.61-.71-4.56-1.39-8.86s-1.5-9.12-2.45-14.46-2-10.45-3.08-15.31a78.66,78.66,0,0,0-3.33-11.46c-.78-2.1-1.54-3.15-2.27-3.15a1,1,0,0,0-.66.36q-1.47,2.34-4,14.21t-4.72,24.4q-2.28,12.51-3,17.07Z"/><path class="cls-2" d="M1086.35,219a6.9,6.9,0,0,1-5-1.9q-3.58-3.45-6.15-12.82l-4.17-13q-4.77-15.6-11.28-31.27a6.78,6.78,0,0,1-.59-2.2,5.48,5.48,0,0,1,3.3-5.05q10.45-5.39,14.88-14.25a20.76,20.76,0,0,0,2.19-8.94q0-14.94-21.09-20.43l-.15,46.14q0,39.54.37,50a20.45,20.45,0,0,1-1.47,7.84q-1.68,4.1-7.83,4.25-8.71-.51-9.38-10.69l-.06-3.72q0-2.43.15-4.83.36-28,.36-44.17,0-14.94-.36-44.09c0-3.56.75-6.32,2.27-8.28q2.76-3.51,9.15-3.51a41.33,41.33,0,0,1,11.43,1.58,45.17,45.17,0,0,1,16.29,8,28.59,28.59,0,0,1,9.64,13.37,23.66,23.66,0,0,1,1.17,7.47,33.65,33.65,0,0,1-1.83,10.47q-4.41,12.69-17.27,20.78,5.64,13.17,11.06,26.36l7.94,18.75c1.57,3.52,2.35,6.37,2.35,8.57a7.64,7.64,0,0,1-.37,2.42C1091.33,217.78,1089.47,218.82,1086.35,219Z"/><path class="cls-2" d="M776.66,249.68a18.91,18.91,0,0,1,.07-2c0-4.5.62-7.69,1.72-9.59a6.79,6.79,0,0,1,5.24-3.37,39.22,39.22,0,0,1,5.2-.29c1.32,0,2.76,0,4.32.14a5.14,5.14,0,0,0,.88.08h5.42c2.88,0,5.74,0,8.6.07a29.27,29.27,0,0,1,5.68.44,5.83,5.83,0,0,1,4,3.44,4,4,0,0,1-1.25,4.4q-2.06,2-7.54,2.12h-2.61A19.49,19.49,0,0,0,804,245a15,15,0,0,0-5.86,1c-2.15.93-3.32,3.61-3.52,8.06v1.46q0,9.87-.51,19.63c-.05,1.42-.12,2.86-.22,4.32,0,3.08.61,4.93,1.83,5.57a8.75,8.75,0,0,0,3.44.58,19.67,19.67,0,0,0,2-.07,23.86,23.86,0,0,1,2.93-.15,16.57,16.57,0,0,0,1.76-.07c.92-.05,1.85-.07,2.78-.07s2,0,3,.07a9,9,0,0,1,4.62,1.25,5.3,5.3,0,0,1,1.9,3.95,6.16,6.16,0,0,1-.22,1.54q-.95,3.21-5.34,3.66h-1.1c-.88,0-1.93,0-3.15-.07-1.57,0-3.13-.07-4.69-.07h-2.44a11.37,11.37,0,0,0-4.9.73,8.43,8.43,0,0,0-2.37,5.62c0,.64-.07,1.27-.07,1.91a28.75,28.75,0,0,0,.36,4.54c.14,1,.24,2,.29,3a8,8,0,0,1,.08,1.1,71.39,71.39,0,0,0,1,8.61,20.54,20.54,0,0,0,3,7.91,10,10,0,0,0,6.85,4.28c1.66.15,3.32.22,5,.22s3.32-.07,5-.22l4.25-.29q3.74.15,5.34,2.64a4.73,4.73,0,0,1,.81,2.56,5.41,5.41,0,0,1-.81,2.64c-1.12,1.75-3.69,2.8-7.69,3.14q-4.17.3-9.45.3c-1.36,0-2.8,0-4.32-.08a51.17,51.17,0,0,1-13.33-1.61q-6.51-2.34-9-7.76a45.71,45.71,0,0,1-3.48-11.94,166.94,166.94,0,0,1-2.48-29.18v-.88q.06-16,.87-31.42Q776.44,255.34,776.66,249.68Z"/><path class="cls-2" d="M898.92,338.24c-1.13,3.62-2.54,5.42-4.25,5.42a3.54,3.54,0,0,1-.73-.07q-3.09-.9-6.45-5.64a81,81,0,0,1-6.17-10.27c-1.86-3.67-3.22-6.47-4.1-8.43q-.3-.75-.51-1.17-3.8-10.24-7.4-18.4-2-4.62-4-9.23a21.25,21.25,0,0,0-1-2.19c-.78-1.76-1.54-3.55-2.27-5.35q-2.43-5.73-4.91-11.28l-.22-.44c-.39-.83-.63-1.24-.73-1.24v2.49q-.15,8.42-.15,16.92,0,19.69.73,39.47c0,1,.08,2,.08,2.93a41.8,41.8,0,0,1-.3,5,11.79,11.79,0,0,1-2.78,6.49q-2.25,2.43-7.45,2.43c-3-.14-5.08-1.11-6.3-2.89a13,13,0,0,1-2.09-6.53c-.1-1.31-.15-2.61-.15-3.88s.05-2.51.15-3.73c0-1,0-1.88.07-2.71q.15-9.17.15-18.39,0-11.49-.22-23l-.15-18V254.09a37.7,37.7,0,0,1,.44-5.72,12.48,12.48,0,0,1,2.67-6.11c1.4-1.69,3.53-2.53,6.41-2.53a10.44,10.44,0,0,1,7.14,2.86,21.79,21.79,0,0,1,4.65,6.7,80.1,80.1,0,0,1,3.15,8c.54,1.51,1,2.9,1.54,4.17.2.54.51,1.32,1,2.34q2,4.92,5.75,14.21t8,19.38q4.23,10.07,7.66,18.38t4.57,9.12h.15c.25,0,.44-.32.59-.95a21.19,21.19,0,0,0,.29-2.75c0-1.1.06-2.18,0-3.26s0-1.9,0-2.49v-.51a420.5,420.5,0,0,0-2.93-43.29q-1.53-13.9-2.49-28.12v-.37c0-.68-.07-1.37-.07-2s0-1.47.07-2.2a6.67,6.67,0,0,1,1.83-4.06q1.59-1.74,5.79-1.72a4.08,4.08,0,0,1,3.92,2.08,12.58,12.58,0,0,1,1.35,5c.1,1.42.15,2.81.15,4.18v4q.29,7.62.66,15.46.66,14.94,1,30c.05,2.68.08,5.37.08,8q0,13.19-.59,23.81A60.74,60.74,0,0,1,898.92,338.24Z"/><path class="cls-2" d="M959.18,313.05a118.82,118.82,0,0,1-2.49-16.56c-.25-3.07-.37-6.37-.37-9.88q0-4,.22-8.28a99.44,99.44,0,0,1,3-20,45.71,45.71,0,0,1,8.17-17.1,26.2,26.2,0,0,1,15.23-9.52,35.58,35.58,0,0,1,7.91-.88,34.82,34.82,0,0,1,8.06.95,20.2,20.2,0,0,1,12.37,9.3,34.88,34.88,0,0,1,3.67,10.15,70.2,70.2,0,0,1,1.31,10.73l.08,1.24q.15,2.87.15,5.64a5.46,5.46,0,0,1-1.76,3.59,5.35,5.35,0,0,1-3.52,1.25H1011a5.44,5.44,0,0,1-3.59-1.76,5.29,5.29,0,0,1-1.24-3.52v-.95a82,82,0,0,0-.81-10.62,26.72,26.72,0,0,0-3.88-11.35,8.69,8.69,0,0,0-7.84-4.1,12.32,12.32,0,0,0-1.83.14q-6.74,1.32-10.36,8.06a47.13,47.13,0,0,0-4.94,16,115.09,115.09,0,0,0-1.28,17.1v.88a133.5,133.5,0,0,0,.58,14.14q.3,3.38,1.58,10.84a101.66,101.66,0,0,0,3.81,15.14q2.52,7.62,6.48,11.42A6.13,6.13,0,0,0,992,337a9.17,9.17,0,0,0,5.2-2,23,23,0,0,0,7.29-13.59,114,114,0,0,0,1.65-15.85c0-.88.07-1.69.07-2.42q0-4.32-1.54-6.37c-1.37-1.71-3.78-2.86-7.25-3.45a13.14,13.14,0,0,1-4.69-1.53,3.66,3.66,0,0,1-1.76-3.45,5.55,5.55,0,0,1,.08-1,5.18,5.18,0,0,1,4.39-4.1,26.81,26.81,0,0,1,5.93-.66h2.56c.63,0,1.27-.07,1.9-.07,3.9,0,6.69.7,8.35,2.12Q1017,287,1017.1,295c0,1.46.07,3,.07,4.54q0,6.38-.58,13.62a66,66,0,0,1-3.8,17.55q-5.49,14-20.29,16.7a32.48,32.48,0,0,1-5.56.51q-13.2,0-20.29-12.67a60.71,60.71,0,0,1-4.51-10.8Q960.36,318.67,959.18,313.05Z"/><path class="cls-2" d="M1073.21,231.45q9,1,14.4,6.56a37,37,0,0,1,8.2,13.22,85.23,85.23,0,0,1,4.11,15.23,133.65,133.65,0,0,1-1.47,50.69,63.91,63.91,0,0,1-6.78,16.53,31.89,31.89,0,0,1-11.75,11.74,24.35,24.35,0,0,1-12,2.86,38.88,38.88,0,0,1-6-.52,21.48,21.48,0,0,1-11.39-5.75,32.68,32.68,0,0,1-7-10.33,84.43,84.43,0,0,1-4.17-11.94,126.49,126.49,0,0,1-4-24.9c-.14-2.68-.22-5.34-.22-8a124.88,124.88,0,0,1,1.54-19.7,59.58,59.58,0,0,1,8.57-23.37,27.77,27.77,0,0,1,11.94-10.25,30.14,30.14,0,0,1,12.08-2.34A36.69,36.69,0,0,1,1073.21,231.45Zm13.63,89.36a111.87,111.87,0,0,0,2.78-17.72q.81-8.28.81-17.22c0-2.39,0-4.8-.15-7.25a89.64,89.64,0,0,0-3.52-23.07q-3.08-10.11-9.81-13.26a11,11,0,0,0-4-.8,8.73,8.73,0,0,0-4.62,1.32,19.08,19.08,0,0,0-6.59,6.26,32.69,32.69,0,0,0-4,7.8,94.91,94.91,0,0,0-3.66,23.14c-.1,2.1-.14,4.2-.14,6.3a139.17,139.17,0,0,0,1.46,20.29q1.89,13.26,6.52,22.34c2.68,4.93,5.57,7.59,8.64,8a9,9,0,0,0,1.17.08,10.91,10.91,0,0,0,7.55-3.45,28.29,28.29,0,0,0,6.52-10.1A26.12,26.12,0,0,0,1086.84,320.81Z"/><path class="cls-2" d="M1122.8,245.59c0-.83-.07-1.61-.07-2.34,0-4.45.73-7.81,2.19-10.11s4.42-3.37,8.87-3.37a21.53,21.53,0,0,1,3.07.15,33.85,33.85,0,0,1,16.55,6.3,50.85,50.85,0,0,1,12.42,13,68.83,68.83,0,0,1,8,16l.29,1a92.5,92.5,0,0,1,4,23.29c.1,1.52.15,3,.15,4.54a80.19,80.19,0,0,1-2.35,19.51,53.68,53.68,0,0,1-10.18,20.69,42.46,42.46,0,0,1-19.56,13.37,26.84,26.84,0,0,1-8.13,1.39,17.47,17.47,0,0,1-7.69-1.69q-6.75-3.29-7.47-13.47c-.05-1.32-.07-2.66-.07-4q0-4.1.22-8.57c0-2.3.09-4.49.15-6.59q.06-10.62.07-21.24Q1123.23,269.46,1122.8,245.59Zm31.57,5.09c-4.11-4.4-7.13-6.59-9.09-6.59a2.36,2.36,0,0,0-.65.07c-1.91.58-3,2.69-3.3,6.3q-.24,2.92-.22,6.08c0,1.75.05,3.54.15,5.34,0,1.52.09,2.91.14,4.18v2.42q.21,11.64.22,23.29,0,16-.44,32c0,.83-.07,1.64-.07,2.42a35.05,35.05,0,0,0,.29,4.69c.3,2.24,1.13,3.76,2.49,4.54a3.14,3.14,0,0,0,1.32.29c1.42,0,3.27-.71,5.57-2.12a34.47,34.47,0,0,0,12.38-15.13,59.21,59.21,0,0,0,4.61-20c.1-1.76.15-3.49.15-5.2a78.94,78.94,0,0,0-1.32-14.72A65.67,65.67,0,0,0,1154.37,250.68Z"/><path class="cls-2" d="M921,398.23q.74-7,1.17-13.85A11.83,11.83,0,0,1,924,378.6a4,4,0,0,1,3.74-2.13,6.22,6.22,0,0,1,1.54.22,5,5,0,0,1,3.6,4.69c.05.68.08,1.39.08,2.12a26.41,26.41,0,0,1-.44,4.69c-.1.73-.2,1.39-.29,2-.15,1.37-.27,2.73-.37,4.1q-1.83,18.24-4.4,37.43a338.33,338.33,0,0,1-6.88,36.54c0,.15-.1.32-.15.52a87.63,87.63,0,0,1-3.62,11.5,19.21,19.21,0,0,1-6.92,9.23,14.57,14.57,0,0,1-6.89,2,10.68,10.68,0,0,1-4.25-.88,15.06,15.06,0,0,1-8-8,119.8,119.8,0,0,1-6.74-20.29q-3.07-12.22-4.76-21.24-2.87-15.89-5.2-32-1.32-8.79-2.71-17.51a20,20,0,0,1-.44-4,10.4,10.4,0,0,1,1-4.69c1.07-2.19,3.69-3.39,7.84-3.58h.14c3.22,0,5.63,1.07,7.25,3.22a20.34,20.34,0,0,1,3.37,8,84.39,84.39,0,0,1,1.32,9.23c.09,1.27.22,2.42.36,3.45a507.35,507.35,0,0,0,11.9,63.51c1.12,4,2,6.29,2.78,6.74a.77.77,0,0,0,.44.14c.59,0,1.13-.68,1.61-2.05a51.68,51.68,0,0,0,1.62-6.22c.19-.88.39-1.73.58-2.56q3.66-16,5.93-32.16T921,398.23Z"/><path class="cls-2" d="M949.16,394.27a16.56,16.56,0,0,1,.08-2c0-4.5.62-7.69,1.72-9.59a6.74,6.74,0,0,1,5.24-3.37,37.6,37.6,0,0,1,5.2-.29c1.31,0,2.75.05,4.32.14a5.14,5.14,0,0,0,.88.08H972c2.88,0,5.74,0,8.6.07a29.27,29.27,0,0,1,5.68.44,5.83,5.83,0,0,1,4,3.44,4.2,4.2,0,0,1,.22,1.32,4.39,4.39,0,0,1-1.46,3.08c-1.37,1.36-3.88,2.07-7.55,2.12h-2.59a19.77,19.77,0,0,0-2.42-.15,15,15,0,0,0-5.86,1q-3.23,1.4-3.51,8.05v1.47q0,9.89-.51,19.63c0,1.42-.13,2.86-.22,4.32,0,3.08.61,4.93,1.83,5.57a8.75,8.75,0,0,0,3.44.58,19.87,19.87,0,0,0,2-.07,23.86,23.86,0,0,1,2.93-.15,16.39,16.39,0,0,0,1.75-.07c.93-.05,1.86-.07,2.79-.07s2,0,3,.07a9,9,0,0,1,4.61,1.24,5.33,5.33,0,0,1,1.91,4,6.16,6.16,0,0,1-.22,1.54q-1,3.21-5.35,3.66h-1.17c-.87,0-1.93,0-3.15-.07-1.56,0-3.12-.08-4.68-.08h-2.42a11.42,11.42,0,0,0-4.91.74,8.37,8.37,0,0,0-2.41,5.56c-.05.64-.08,1.27-.08,1.91a27.62,27.62,0,0,0,.37,4.54c.15,1,.24,2,.29,3A8,8,0,0,1,967,457a73.3,73.3,0,0,0,1,8.6,20.54,20.54,0,0,0,3,7.91,10,10,0,0,0,6.85,4.29c1.65.15,3.31.22,5,.22s3.32-.07,5-.22l4.24-.29a6.27,6.27,0,0,1,5.35,2.63,4.71,4.71,0,0,1,.81,2.57,5.24,5.24,0,0,1-.81,2.63c-1.12,1.76-3.69,2.81-7.69,3.15q-4.17.3-9.45.3c-1.37,0-2.81,0-4.32-.08a51.17,51.17,0,0,1-13.33-1.61q-6.54-2.34-9-7.76a45.71,45.71,0,0,1-3.48-11.94,166.55,166.55,0,0,1-2.42-29.15v-.88q.07-16,.88-31.42Q948.91,399.92,949.16,394.27Z"/><path class="cls-2" d="M1071.41,482.82c-1.13,3.61-2.54,5.42-4.25,5.42a6,6,0,0,1-.74-.07q-3.09-.9-6.44-5.64a79.57,79.57,0,0,1-6.15-10.26q-2.79-5.49-4.1-8.42c-.2-.49-.37-.88-.52-1.17q-3.81-10.26-7.39-18.46-2-4.61-4-9.23c-.3-.73-.61-1.46-1-2.19-.79-1.76-1.54-3.54-2.28-5.35q-2.43-5.73-4.9-11.28l-.22-.44c-.39-.83-.64-1.24-.73-1.24V417q-.15,8.41-.15,16.91,0,19.71.73,39.48c0,1,.07,2,.07,2.93a44,44,0,0,1-.29,5,11.72,11.72,0,0,1-2.78,6.48q-2.28,2.54-7.47,2.53-4.47-.24-6.3-2.89a13.15,13.15,0,0,1-2.13-6.56c-.09-1.32-.14-2.61-.14-3.88a32.78,32.78,0,0,1,.14-3.73c0-1,0-1.88.08-2.71q.15-9.17.14-18.39,0-11.49-.22-23l-.14-18V398.68a36.42,36.42,0,0,1,.44-5.71,12.48,12.48,0,0,1,2.67-6.11q2.07-2.55,6.41-2.53a10.44,10.44,0,0,1,7.14,2.86,21.79,21.79,0,0,1,4.65,6.7,80.91,80.91,0,0,1,3.15,7.94c.54,1.52,1,2.91,1.54,4.18.19.54.51,1.32,1,2.34l5.69,14.19q3.76,9.3,8,19.37t7.65,18.39q3.42,8.31,4.58,9.12h.15c.24,0,.44-.32.58-1a18.08,18.08,0,0,0,.3-2.74,32.22,32.22,0,0,0,0-3.26c-.06-1.07,0-1.91,0-2.49v-.51a426.19,426.19,0,0,0-2.93-43.29q-1.55-13.92-2.49-28.13v-.32c0-.68-.08-1.37-.08-2.05a20.68,20.68,0,0,1,.08-2.2,6.54,6.54,0,0,1,1.83-4.06q1.61-1.72,5.78-1.73a4.08,4.08,0,0,1,3.92,2.09,12.43,12.43,0,0,1,1.36,5c.1,1.42.14,2.81.14,4.17v4q.3,7.62.66,15.46.66,14.94,1,30c0,2.68.07,5.37.07,8.05q0,13.18-.58,23.81A60.8,60.8,0,0,1,1071.41,482.82Z"/><path class="cls-3" d="M1681.48,649.54l20.82-71.94,15.15-89-7.57-85.2c-1.32-1.57-4.56-5-9.47-5.68-7.27-1.05-15.3,4.19-18.93,13.26l-13.26,62.48-9.46,20.82V354.19c-2.76-10.2-11.52-17.11-20.83-17-10.26.07-16.41,8.56-17,9.46l-3.79,56.8q-2.83,38.82-5.68,77.63-39.75-47.34-79.52-94.67c-6.83-8-16.36-11.77-24.61-9.46-1.5.42-9,2.51-11.36,9.46-1.91,5.65.31,12.42,5.68,17l24.61,30.3,30.3,47.33L1513,443.17c-.27-.61-5.62-12.13-17-13.25-5-.49-13.79.74-17,7.57-2.32,4.88-.55,9.95,0,11.36l22.72,45.44,39.76,53-1.89,18.94-36-51.12c-1.43-9.94-8.2-16.8-15.14-17a13.81,13.81,0,0,0-9.47,3.78c-4.2,4.29-5,11.52-1.75,18,1.85,6.78,4.87,17.06,9.32,29.32,3.49,9.6,34.08,73.84,34.08,73.84h0l18.94,32.18v9.47Z"/><path class="cls-4" d="M1567.64,321.19l125.39,30a18.89,18.89,0,0,1,6.9,5.79,19.14,19.14,0,0,1,3.59,9.74l-61.88,258.62a18.43,18.43,0,0,1-4.54,6.6,18.7,18.7,0,0,1-6.24,3.84l-131-31.34a15.44,15.44,0,0,1-9.43-7.59,14.93,14.93,0,0,1-1.35-9.2L1550,333c.23-.87,2.45-8.67,9.8-11.27A14.64,14.64,0,0,1,1567.64,321.19Z"/><rect class="cls-5" x="1529.38" y="363.88" width="134.69" height="225.63" transform="translate(154.75 -358.46) rotate(13.46)"/><rect class="cls-5" x="1592.81" y="351.14" width="70.8" height="5.18" rx="1.24" transform="translate(127 -369.16) rotate(13.46)"/><circle class="cls-5" cx="1566.45" cy="603.2" r="4.6"/><polygon class="cls-6" points="1719.38 1087.5 1681.51 652.23 1541.4 652.23 1569.8 1087.5 1719.38 1087.5"/><path class="cls-7" d="M221.4,680.6q-13.47-45.63-27-91.25l-13.25-94.66,11.36-89a19.66,19.66,0,0,1,9.47,0,23.48,23.48,0,0,1,9.46,5.68c6.17,6,10,18.65,9.47,34.08l9.47,54.91,5.68,18.93V422.74q6.61-31.25,13.25-62.48c2.06-7.71,7-13.88,13.25-15.15,4.69-.95,10.8-.49,15.15,3.79a16.07,16.07,0,0,1,3.65,16.7L274,401.91v96.56l73.84-87.09L380,388.66a17.42,17.42,0,0,1,13.25-1.89c8.05,2.29,10.89,10.06,11.36,11.36a19.92,19.92,0,0,1,0,13.25l-37.86,53L327,519.3l20.82-13.25,41.66-56.8c.54-.61,9.25-9.91,20.82-7.58,1.63.33,9.57,1.93,13.26,9.47,3.5,7.17.45,14.14,0,15.15l-41.66,56.8-26.5,43.54,39.76-45.44a21.88,21.88,0,0,1,11.36-9.46c2.11-.74,7.52-2.63,13.25,0a15,15,0,0,1,7.57,7.57c2.28,5.45.77,12.13-3.78,17l-28.4,49.23L370.52,614l-3.78,20.82L355.38,667l-4,13.25Z"/><path class="cls-4" d="M234.75,363.05l128.14-14.26a18.92,18.92,0,0,1,8.45,3.11,19.17,19.17,0,0,1,6.68,7.94l29.42,264.29a18.44,18.44,0,0,1-6.61,13.47L267,652.51a15.46,15.46,0,0,1-11.45-3.94,14.91,14.91,0,0,1-4.38-8.2l-29-260.28c-.08-.89-.63-9,5.4-13.92A14.75,14.75,0,0,1,234.75,363.05Z"/><rect class="cls-5" x="247.46" y="386.69" width="134.69" height="225.63" transform="translate(-53.34 37.9) rotate(-6.35)"/><rect class="cls-5" x="267.36" y="370.55" width="70.8" height="5.18" rx="1.24" transform="translate(-39.43 35.79) rotate(-6.35)"/><circle class="cls-5" cx="329.2" cy="628.78" r="4.6"/><polygon class="cls-3" points="192.32 447.5 197 424.1 197 410.05 192.32 404.46 186.34 447.5 192.32 447.5"/><path class="cls-8" d="M1701.12,402.87c-4.59,3.34-4.12,10.52-3.79,15.15a34,34,0,0,0,3.79,13.25l11.36,11.36q-1.27-18.64-2.53-37.29c-.33-1.33-.67-2.66-1-4C1707.15,401.09,1703.81,400.92,1701.12,402.87Z"/><path class="cls-1" d="M1848.91,151.43h-48a2.34,2.34,0,0,1,.51-3.13c7.75-7.78,10.09-18.47,14.9-27.83a6,6,0,0,0-2.85-8.46,6.32,6.32,0,0,0-8.6,2.63,162.66,162.66,0,0,0-11.77,24.63,7,7,0,0,0,1.52,7.41c1.24,1.4,2.61,2.69,1.29,4.75h-21a2.14,2.14,0,0,1-.43-1.62c.34-1.34,1.41-2.23,2.1-3.35,3.5-5.77,1.18-10.73-5.61-11.32-7.14-.62-14.31,0-21.47-.28-6.83-.21-7.87-1.13-7.95-7.88q-.26-20.48,0-40.93c.09-6.82,1.1-7.68,7.93-7.94,3.65-.13,7.33.18,11-.24,4.56-.52,7.39-3.12,7.48-6.64s-2.63-6.42-7.24-6.85a137.7,137.7,0,0,0-23.94,0c-5.45.45-8,3.59-8.22,9.47-.29,8-.09,16-.1,24,0,12,.16,24-.07,35.94-.12,6,.55,11.58,5,16.1a2,2,0,0,1-.38,1.63h-41c-.9-2.56,1.16-3.31,2.74-3.92,20.69-8.07,20.37-33.61,10.27-46.18-6.66-8.29-13.89-16.09-20.49-24.41a86.6,86.6,0,0,1-11.09-17.09c-2.39-5.09-1.81-9.84,1.73-13.94,3.22-3.73,7.51-5.52,12.54-4.08,5.5,1.57,8.57,5.42,9.55,11a25.81,25.81,0,0,0,1,5.36c1.47,3.61,4.52,5.55,7.76,4.76,3.64-.89,5.29-3.64,5.09-7-.63-10.64-4-19.79-14.26-25.11-2.06-1.07-5.58-1.26-4.89-5.14h156.84a1.76,1.76,0,0,1-.2,2.29c-7.31,6.63-9.79,16.06-14.1,24.41-1.59,3.09-2.94,6.32-4.57,9.41-1,2-2.12,3.86-4.78,3.69-2.41-.16-3.18-2-4.13-3.83-4.35-8.24-7.87-16.88-12.08-25.18-3.19-6.28-6.48-8.2-10.59-6.28s-4.83,6.17-1.62,12.59c15,29.9,28.57,60.43,43.61,90.28,2.6,5.17,4,11,8.36,15.2A2.48,2.48,0,0,1,1848.91,151.43Z"/><path class="cls-1" d="M1907.85,93.51v5c-5.92,1.11-11.88.25-17.82.48a10.22,10.22,0,0,0-3.51.25c-.94.36-1.92.67-2.11,1.72s.64,1.64,1.46,2.27c4.91,3.8,4.9,3.84.06,7.31-.79.57-2,.91-1.87,2.06.21,1.48,1.72,1.51,2.78,1.58a106.16,106.16,0,0,0,17.83,0c1-.09,2.22-.6,3.18.34v5c-6.42,2.51-13.23,3.45-19.88,5-1.86.45-4.4.41-4.22,3.13.16,2.54,2.72,2.3,4.48,2.65,6.65,1.3,13.29,2.63,19.62,5.15v7c-1.48,1-2.6.09-3.45-.88-2.85-3.25-5.54-2.25-8.43,0s-5.44,5-8.74,6.62c-4.42,2.23-6.92.61-7.43-4.64-.2,2.64-.36,2.79,1.22,4.56,1,1.11,1.6,2,.85,3.37h-28c-.81-1.54.08-2.5,1.15-3.39,4.23-3.51,4-7.66,1.78-12.11-6-11.84-10.86-24.29-17.51-35.79-5.07-8.77-6-16.5-.45-25.82,5.11-8.64,9.07-18.09,13.49-27.2a63.37,63.37,0,0,0,3.23-7.82c1.32-4,.84-7.55-2.86-10.18-1.19-.85-2.69-1.58-1.82-3.51h31a1.92,1.92,0,0,1,.41,1.56c-.26,1.2-1.3,1.95-1.78,3-2.68,6.1-1.06,8.59,5.55,8.72,5.72.12,11.44.28,17.17-.11,1.73-.11,3.49.1,4.63,1.76v6c-3.73,1.07-7.51.49-11.25.2-3.23-.25-6.45-.08-9.2-.24,1.5.13,3.47-.06,5.43,0,1.58.06,3.32.45,3.49,2.49s-1,2.73-2.8,3.35c-3,1-6.35,1.61-8.67,4.81,5,2.3,10.06,1,14.91,1.34,2.83.2,5.86-.57,8.09,2v8c-3.61.31-6.35-3-10.24-2.18-3.35.69-6.89.08-9.73.18,3.75,0,8.11.16,12.45,0,3.85-.16,5.6,2,5.79,5.22s-1.76,5.36-5.34,5.62c-4.7.35-9.39.06-14.09.18a112.06,112.06,0,0,1,13.22.08c3.14.28,4.73-3.79,7.94-2.08v16c-5.61,2.21-11.43.3-16.21,1C1896.41,93.25,1902.26,91.3,1907.85,93.51Z"/><path class="cls-9" d="M1692.07,25.61c9.7,3.79,17.24,9.72,20.21,20.24a35.88,35.88,0,0,1,1.59,11.77,9,9,0,0,1-8.6,8.75,9.24,9.24,0,0,1-9.41-7.29c-.48-2.09-.45-4.29-.92-6.38-1.54-6.81-7.32-10.3-13.44-8.26-5.72,1.91-8.49,8.19-5.85,14.26,4.09,9.44,11.07,16.91,17.54,24.7,3.82,4.6,7.69,9.17,11.72,13.59,15.41,16.87,13.17,46.44-12.84,54.44h-16c-4.09-1.51-8.42-1.81-12.14-5-5.72-4.9-7.6-11.15-8.84-18v-14c2.13-6.08,4.66-7.84,10.45-7.23,6,.64,9.31,3.9,9.88,9.92a24.27,24.27,0,0,0,1.34,7.31c2,4.74,6,7,10.23,5.74a9.16,9.16,0,0,0,6.19-10.61c-.75-4.44-3.48-7.84-6.23-11.19-5.58-6.8-11.64-13.19-17.06-20.14-2.35-3-4.46-6.21-6.83-9.19-9.12-11.45-8.75-24.61-5.92-37.61,1.71-7.88,7.37-13.55,16.13-14.89,1.61-.24,3.3-.16,4.8-1Z"/><path class="cls-9" d="M1850.91,25.61c8.83,3.7,10.51,7.64,6.32,16.65-6.17,13.25-12.5,26.44-19.14,39.46-1.93,3.76-1.52,6.73.17,10.18Q1848.75,113.41,1859,135c4.14,8.65,3.09,11.84-5.14,16.42h-5c-8.11-7.06-10.57-17.41-15.11-26.47-11.61-23.16-22.59-46.64-33.83-70-2.23-4.63-4.53-9.24-6.7-13.91-2.76-5.91-1.23-11.45,3.69-13.69,5.46-2.48,10.2-.25,13.21,6,4.95,10.32,10,20.59,15.43,31.79,4.58-9.51,8.89-18.25,13-27.07,2.37-5.09,4.37-10.39,10.3-12.5Z"/><path class="cls-1" d="M1678.09,25.61c-4.28,2.34-9.08,3.63-12.72,7.28-9.51,9.5-12,22.62-6.14,34.72,6.23,12.85,15.91,23.18,25,34,3.2,3.8,6.43,7.59,9.38,11.58a13.73,13.73,0,0,1,1.94,12.34,11,11,0,0,1-21.33-.5,41.07,41.07,0,0,1-.81-6.38c-.39-4.13-2-7.49-6.23-8.69s-7.9-.47-10.72,3.16a16,16,0,0,1-1.33,1.4c0-28.33.09-56.67-.11-85,0-3.62,1-4.1,4.2-4C1665.48,25.81,1671.79,25.61,1678.09,25.61Z"/><path class="cls-9" d="M1796,151.43c-7.49-6.87-7.77-8.18-3.23-17.86q4.65-9.91,9.55-19.72c2.57-5.13,7.64-6.92,12.51-4.63s6.59,7.31,4.1,12.64c-3.65,7.82-7.68,15.47-11.21,23.34-1.43,3.21-4.46,4.19-6.72,6.23Z"/><path class="cls-10" d="M1907.85,114.48a6.49,6.49,0,0,1-4.5,1.76c-7-.08-14,0-21,0-2.07,0-4.18-.28-4.5-2.89-.28-2.34,1.56-3.09,3.33-3.71,2.3-.82,4.62-1.57,8.13-2.75-3.9-1.43-6.67-2.36-9.36-3.47a3.2,3.2,0,0,1-2.11-3.58,2.37,2.37,0,0,1,2.31-2.25c9.23.12,18.52-1.58,27.67,1v2c-.32.32-.66.63-1,.93-3.37,1.6-7.29-.65-10.49,1.53,1.13,2.31,2,4.61.39,7,4,.74,8.77-1.73,11.1,3.51Z"/><path class="cls-10" d="M1907.85,60.56c-8.65.09-17.3.19-25.95.25-1.65,0-3.53.08-4-2.11-.46-2.4,1.37-3.13,3.12-3.8a74,74,0,0,0,13.62-6.3c-4.37,0-8.73,0-13.1,0-1.67,0-3.71,0-3.56-2.4s2.2-1.59,3.55-1.61c7.15-.06,14.31,0,21.46-.06a5.62,5.62,0,0,1,4.82,2.07v1c-1.85,8.26-9.26,6.28-13.79,7.93,4.07.73,10.32-4.93,13.79,3.05Z"/><path class="cls-11" d="M1907.85,75.54c-2.51,3.09-5.72,4.11-9.68,3.92-5.65-.27-11.32-.06-17-.13-1.46,0-3.32,0-3.16-2.18.13-1.73,1.76-1.81,3.08-1.82,5.49-.06,11,0,16.48-.08,2.67,0,6.45,1,6.46-3.33,0-4.43-3.83-3.74-6.74-3.79-5-.07-10,.07-15-.08-1.59,0-4.37.91-4.24-1.9s2.85-1.57,4.44-1.61c5.82-.14,11.65.06,17.47-.1,3.5-.1,6.19.9,7.85,4.11Z"/><path class="cls-9" d="M1907.85,40.59c-9,.09-17.93.15-26.9.28-2.33,0-3.39-1-3.16-3.28.39-4-1.64-9,4-11.13,5.9-.77,11.84-.13,17.76-.37,1.78-.08,3.63.47,5.33-.48,1.65,0,3.45-.66,3.11,2.51C1907.51,32.23,1907.85,36.42,1907.85,40.59Z"/><path class="cls-12" d="M1907.85,135.45c-2.3,1.15-4.52.25-6.76-.27-6.46-1.5-12.93-3-19.4-4.51-2-.47-3.94-1-3.87-3.67s2.24-2.6,3.91-3c7.1-1.73,14.23-3.29,21.32-5a6.94,6.94,0,0,1,4.8.51v2a8.82,8.82,0,0,1-4.42,4.32c-2.28,1-2.12,2.37,0,3.32a9.06,9.06,0,0,1,4.4,4.34Z"/><path class="cls-10" d="M1881.87,151.43c-4.38-4-5.41-7.81-3-11a6.83,6.83,0,0,1,5.11-2.72,2.24,2.24,0,0,1,2.6,1.82c.18,1.16-.68,1.83-1.73,2-2.52.49-4.4,1.77-2.8,4.37s3.88.73,5.57-.4c2.06-1.37,3.91-3.08,5.84-4.64,6.27-5.08,9.86-4.69,14.37,1.56v9h-9c-1.88-1-2.49-2.46-1.43-5.34-3.61,3.55-7.67,4.23-11.56,5.34Z"/><path class="cls-1" d="M1655.11,128.46c2.92,5.48,4.94,11.4,9.8,15.83,3.38,3.09,7.74,4.32,11.18,7.14-6.16,0-12.32-.12-18.48.06-2.15.07-2.62-.41-2.56-2.56C1655.23,142.11,1655.11,135.28,1655.11,128.46Z"/><path class="cls-1" d="M1907.85,113.48c-3.94-2.58-8.33-1-12.51-1.35-2-.18-4.08,0-6.7,0,2.18-2.77,7.07-1.49,6.82-5.38-.23-3.5-3.92-3.39-6.45-4.31.28-2.45,2.21-1.26,3.35-1.35,4.85-.39,9.74.45,14.58-.47a1,1,0,0,1,.91-.09Z"/><path class="cls-13" d="M1907.85,93.51c-6.21,1.55-12.51.45-18.77.69-1.7.06-3-.82-3.09-2.54-.08-2.23-1.1-4.89,1-6.55,1.78-1.42,3,.17,2.84,1.81-.29,4,2.27,3.49,4.81,3.64,4.4.27,8.92-1,13.2,1Z"/><path class="cls-1" d="M1907.85,133.45c-2.38-1.66-5.24-1.87-7.94-2.55-1.75-.45-2.92-1.06-2.91-3.24s.65-3.4,2.8-3.93c2.7-.67,5.37-1.5,8-2.26Z"/><path class="cls-1" d="M1885.87,151.43a74.36,74.36,0,0,0,11.41-8.48c1.23-1.09,2.69-2.12,4.48-1.11,1,.57,2,1.34,2,2.65-.14,2-1.59,2.66-3.38,2.95-2.72.45-2.57,2.07-1.47,4Z"/><path class="cls-1" d="M1907.85,58.56c-2.88-2.87-6.54-1.6-9.9-1.8-2.47-.14-5,0-7.76-1,3.67-1.38,7.36-2.7,11-4.16,2.42-1,5.2-1.43,6.67-4Z"/><path class="cls-14" d="M1775.05,150.51a2.38,2.38,0,0,0-.06.92h-42a4.56,4.56,0,0,0-.08-.9c1.14-2.46,3.46-2.38,5.58-2.43q15.45-.37,30.92,0C1771.57,148.14,1773.89,148.07,1775.05,150.51Z"/><path class="cls-14" d="M1904.85,25.61c-7.63,2.13-15.39.58-23.09.85,0-.29.07-.57.11-.85Z"/><path class="cls-9" d="M1775.05,150.51l-42.1,0c-4.83-1.36-6.93-4.53-6.91-9.55.08-23,0-45.93,0-68.9,0-6,3.27-9.95,9.18-10.12,9-.27,18-.29,27,0,5.88.21,9.6,4.45,9.32,9.62s-4.22,8.72-10.07,8.77c-4.5.05-9,.11-13.49,0-2.52-.07-3.6.79-3.58,3.41q.09,22.73,0,45.44c0,2.73,1.26,3.33,3.68,3.3,7.66-.09,15.32-.05,23,0,5.73,0,9.56,2.62,10.58,7.12S1780.2,148,1775.05,150.51Z"/><path class="cls-9" d="M1752.34,45c-6.48,0-13,.07-19.43,0-5.23-.07-8.7-3.09-9.28-7.83s2.35-8.9,7.49-10.09a17.43,17.43,0,0,1,4-.41q17.68,0,35.37,0c4.55,0,8.6,1,10.56,5.82,2.5,6.08-1.17,12.23-7.74,12.46-7,.25-14,0-20.92,0Z"/><path class="cls-15" d="M1882,87.6c-.91,2.24,1.48,6.42-2.4,6.39-3.17,0-1.79-4-1.71-6.16.09-2.41-1.81-6.78,2-6.78C1883.53,81.05,1881,85.38,1882,87.6Z"/><path class="cls-16" d="M1906.94,100.59c-3.39,2-7.12.53-10.66,1-2.42.31-5-.68-7.27.83-.29-1.62-.29-1.73,1.34-1.75C1895.88,100.6,1901.41,100.61,1906.94,100.59Z"/><path class="cls-1" d="M1892.52,37.45c-2.49,0-5,0-7.45,0-1.82,0-4,.26-3.77-2.55.16-2.27.12-5,3.36-5.12,5.29-.16,10.6-.23,15.88,0,3,.15,3.29,2.65,3.27,5.16,0,2.94-2.13,2.41-3.85,2.46C1897.48,37.5,1895,37.45,1892.52,37.45Z"/><path class="cls-17" d="M1886.61,127.24c2.34-.37,4.44-2.7,6.81-.9a2.52,2.52,0,0,1-.12,2.2C1890.92,129.56,1888.78,128.37,1886.61,127.24Z"/><path class="cls-18" d="M44.22,97.59V24.71a6,6,0,0,1,5-5H296.79a6,6,0,0,1,5,5V97.59c-.86,3.9-3.56,5.81-7.23,6.7a54.37,54.37,0,0,1-9.46.33c-59.52,0-119,.17-178.58-.15-8.81,0-16.36,1.45-22.65,7.74-3.94,1.84-6.59,5.4-10.22,7.68a51.08,51.08,0,0,1-4.52,3c-3.38,1.64-4.92.93-5.58-2.75-.55-3.1-.24-6.27-.29-9.4-.09-6.1-.1-6.12-6-6.28-1.48,0-3-.07-4.45-.19C48.43,104,45.23,102.18,44.22,97.59Z"/><path class="cls-19" d="M82,111.4c6.14-6.25,13-9.26,22.35-9.19,63.77.48,127.55.28,191.32.3,4.08-.78,5.12,2.1,6.1,5.06v72.87c-1,4.92-4.54,6.6-9.07,6.92-2.32.16-4.65.1-7,.1-45.19,0-90.38.06-135.57-.08a20.87,20.87,0,0,0-13.28,4.4c-7,5.21-13.34,11.53-21.79,14.62h-1c-3.11-3.18-1.92-7.2-2-10.9-.18-7.87-.19-8-8.16-8-4.14,0-8.29.16-12.43-.11-7.38-.48-11.25-4.37-11.32-11.76-.19-19.39-.07-38.79-.07-58.18A9.85,9.85,0,0,1,82,111.4Z"/><path class="cls-1" d="M82,111.4l.15,63.17c0,8.25,2.43,10.71,10.59,10.73,5.64,0,11.29.28,16.91-.08,3.93-.26,4.74,1.21,4.55,4.77-.3,5.46-.1,10.94-.11,16.41-22.06,0-44.13-.09-66.2.09-3.25,0-3.76-.9-3.75-3.88.11-35,.07-70,.07-105,3.81,6,9.84,5.14,15.5,4.78,4.33-.28,6.2.73,5.72,5.51s-.1,9.59-.1,15.38Z"/><path class="cls-1" d="M115.1,206.4c8.05-7.67,17.54-13.49,26.19-20.38,1.69-1.35,3.86-.69,5.81-.69q71.78,0,143.54,0c4.67,0,8.44-1,11.14-4.94,0,7.3-.21,14.62.09,21.91.13,3.3-.48,4.16-4,4.15Q206.49,206.29,115.1,206.4Z"/><path class="cls-1" d="M301.78,107.57c-1.81-2-3.4-4.18-6.1-5.06,2.56-1,4.28-3,6.1-4.92Z"/><path class="cls-1" d="M49.21,19.72l-5,5Q42.92,18.42,49.21,19.72Z"/><path class="cls-1" d="M301.78,24.71q-2.5-2.49-5-5Q303.08,18.42,301.78,24.71Z"/><path class="cls-20" d="M136.43,66.4c4.07,5.48,8.1,10.92,12.15,16.39-13.79,5.13-15.9-7.43-22.62-15.24,0,5-.1,9.07,0,13.07.16,5-3.59,2.61-5.66,2.89s-4.68,1.19-4.61-2.92c.21-12.14.14-24.28,0-36.42,0-2.56.71-3.55,3.38-3.41,4,.2,8,0,12,.07,7.47.18,12.53,3.82,13.85,9.83C146.55,57.94,144.18,62.47,136.43,66.4Z"/><path class="cls-20" d="M251.17,83.61a49.17,49.17,0,0,0-6.17,0c-3.19.44-5.08-.72-5.67-3.88-.67-3.56-2.77-4.84-6.3-4.32a18.38,18.38,0,0,1-5,0c-4.49-.59-7.78.43-8.51,5.56-.39,2.7-2.41,2.67-4.49,2.6s-4.23,0-6.94,0c5.67-14,11.11-27.5,16.57-41,1.38-3.4,4.33-1.3,6.53-1.78,1.92-.42,3.36.17,4.19,2.33C240.51,56.45,245.72,69.68,251.17,83.61Z"/><path class="cls-20" d="M88.87,40.91c2.32,0,4.66-.18,7,0,9,.8,13.91,6.1,13.57,14.51S104,68.91,94.69,68.5c-5-.23-6.51,1.37-5.69,6A13.79,13.79,0,0,1,89,77c0,7.21,0,7.1-7.42,6.7-2.2-.12-2.79-.8-2.77-2.9q.11-18.4,0-36.83c0-2.29.58-3.38,3.07-3.18,2.31.18,4.65,0,7,0Z"/><path class="cls-21" d="M213.88,41.14c-.3,3.22-2,5.9-3.24,8.75-4.28,10.25-8.78,20.41-13,30.68-1,2.37-2.24,3.15-4.78,3.14s-3.78-.76-4.77-3.13C182.62,67.46,177,54.42,171.42,41.4c.56-.32.69-.44.82-.45,9.51-.69,9.51-.69,13,8.2,2.34,5.85,4.7,11.68,7.56,18.79,2.41-6.07,4.44-11.2,6.49-16.32.37-.93.8-1.83,1.16-2.75C204,40.18,204,40.18,213.88,41.14Z"/><path class="cls-21" d="M258.55,66.41c0-4.15-.25-8.32.07-12.45.29-3.71-.87-5.3-4.65-4.66-3.56.61-4.89-.58-4.9-4.49s1.81-4.12,4.83-4.05c6.8.15,13.62.27,20.41,0,3.57-.17,3.71,1.56,3.54,4.17-.14,2.24.63,5.12-3.23,4.39-5.33-1-6.23,1.48-6,6.2.38,8.29-.08,16.61.17,24.9.15,4.92-3.27,3-5.43,3.16s-5.18,1.23-4.87-3.19C258.8,75.73,258.55,71.06,258.55,66.41Z"/><path class="cls-21" d="M164.9,62.35c0,5.8-.16,11.6.06,17.39.11,2.94-.56,4-3.77,4-6.46-.14-6.46.07-6.46-6.63,0-10.76.24-21.54-.11-32.29-.16-4.66,2.5-3.91,5.28-4,3-.1,5.42-.24,5.1,4.2C164.58,50.73,164.9,56.55,164.9,62.35Z"/><path class="cls-22" d="M178.32,148.55c0-8.56.29-15.68-.1-22.75-.25-4.53,2.27-4.21,5.23-4.17s5.44-.52,5.3,4.09c-.34,11,0,21.94-.18,32.9,0,1.92,1.44,5.12-1.35,5.57-3.12.5-6.73,1.58-9.54-2-5.73-7.32-11.85-14.34-17.81-21.48-.64-.76-1.34-1.47-3-3.24v21c0,5.74-3,7.73-8.65,6-1.63-.49-1.51-1.54-1.51-2.66q0-18.69,0-37.39c0-1.12-.12-2.68,1.52-2.62,3.14.12,6.47-1.3,9.15,2.07,5.57,7,11.47,13.79,17.24,20.65C175.5,145.5,176.4,146.43,178.32,148.55Z"/><path class="cls-20" d="M277.35,164c-7.75,1.35-14.07,1.1-18.28-6.39-2.15-3.82-5.52-7-9.32-11.6,0,5.88-.26,10.42.07,14.92.34,4.66-2.79,3.48-5.22,3.53s-5.24.86-5.13-3.65c.29-11.79.26-23.59,0-35.39-.09-4.36,2.48-3.82,5.12-3.75s5.55-.93,5.21,3.62c-.3,4.11-.06,8.26-.06,13.79,3.45-4.12,6.14-7.32,8.81-10.53,6.36-7.66,6.36-7.67,17.54-6.4-4.89,5.7-9.34,11.17-14.11,16.33-2.36,2.56-2.64,4.26-.15,7C267.14,151.35,272,157.59,277.35,164Z"/><path class="cls-20" d="M235.24,164.47a48.71,48.71,0,0,0-5.63,0c-3.45.43-5.8-.57-6.43-4.28-.54-3.22-2.46-4.31-5.62-3.9a21.77,21.77,0,0,1-5.47,0c-4.52-.57-7.61.57-8.61,5.6-.41,2.1-8.91,3.81-10.41,2.29-.88-.88-.13-1.88.2-2.7,5-12.46,10.07-24.88,15-37.35.82-2.07,2.14-2.9,4.17-2.48,2.22.47,5.26-1.54,6.57,1.74C224.44,136.92,229.72,150.46,235.24,164.47Z"/><path class="cls-22" d="M125.1,165.4A17.82,17.82,0,0,1,114.33,163c-5.29-3.15-5.37-4.06-1.55-8.87,1.35-1.7,2.21-2,3.88-.46a10,10,0,0,0,8.19,2.9c2.33-.3,4.14-1.27,4.67-3.77s-.89-4.13-3-5.06c-2.43-1.06-5-1.87-7.43-2.86-5.59-2.26-8-5.52-7.81-10.84.19-5.64,2.72-10,8-12.11,5.78-2.32,11.38-1.16,16.81,1.56,2.49,1.25,2,2.9.6,4.28s-1,5.38-4.67,3.13a9.17,9.17,0,0,0-7.13-1.42,3.67,3.67,0,0,0-3.07,3.46,3.26,3.26,0,0,0,2.19,3.53c2.3,1,4.63,1.81,6.94,2.74,7.43,3,9.93,6.93,8.94,14.06-1,6.93-5.89,11.51-13.09,12.14A13.37,13.37,0,0,1,125.1,165.4Z"/><path class="cls-23" d="M125.63,54.18c1.6-1.6-2-5.52,2.72-5.46,3.54.05,6.65,1.1,6.83,5.49.15,3.75-2.63,6.37-6.79,6.09C123.66,60,127.08,56.14,125.63,54.18Z"/><path class="cls-24" d="M230.37,55.35l4.46,12.16h-9.94c1.49-4.1,2.94-8.09,4.38-12.08Z"/><path class="cls-23" d="M90.23,60.57c-3.17-1.8-.48-5.64-1.16-8.53s1.11-3.27,3.48-3.08c4.39.35,6.92,2.75,6.54,6.41C98.73,58.86,95.63,61,90.23,60.57Z"/><path class="cls-25" d="M218.55,148.43h-9.63l4.79-13.14A65.66,65.66,0,0,1,218.55,148.43Z"/><rect class="cls-26" x="1484.22" y="409.78" width="226.04" height="134.93" transform="translate(760.94 1919.3) rotate(-76.52)"/><path class="cls-3" d="M1563.82,481.54a3.37,3.37,0,0,0-.46,1.58c-.11.72-.31,3.26,2.81,6.81s9,7.2,20,12c.75.33,1.46.63,2.12.94A119.21,119.21,0,0,0,1594,489C1580.85,483.29,1566.17,478.41,1563.82,481.54Z"/><path class="cls-3" d="M1636.53,500h0c-1-2.57-.42-5.57.73-11.47,1-5.31,1.45-4.79,1.67-7.22s.81-8.66-3.5-13.63c-.92-1.06-5.27-5.77-11.88-5.11a13.19,13.19,0,0,0-10.37,6.84,16.36,16.36,0,0,0-1.09,10.91c1.22,4.39,3.86,5.5,4.11,10a14.66,14.66,0,0,1,0,2.65c3.62,1.71,7.11,3.69,10.89,4.85A32.82,32.82,0,0,0,1636.53,500Z"/><path class="cls-27" d="M1644.56,515.61a24.61,24.61,0,0,0-2.91-9c-2.36-4-4-3.61-5.12-6.63a32.79,32.79,0,0,1-9.47-2.18c-3.78-1.16-7.28-3.14-10.89-4.86a4.38,4.38,0,0,1-1.23,2.8c-2.59,2.34-8.68-1-15.86-4.37-1.65-.78-3.36-1.55-5.11-2.31a119.21,119.21,0,0,1-5.65,13.82c2.79,1.28,4.73,2.46,5.61,4.64.49,1.19.22,3-.32,6.57-.67,4.29-1.34,6.82-1.34,6.82-3.43,12.86-5.15,19.33-3.16,24,1.21,2.86,3.19,4.28,7.15,7.11,3.15,2.27,16.37,11.75,28.42,6.56,5.8-2.5,8.88-7.37,10.65-10.13,3-4.79,1.55-5.5,6-18.8C1643.72,522.39,1645,520,1644.56,515.61Z"/><path class="cls-28" d="M1587.33,493.22a17,17,0,0,1,2.32-8.33c2.46-4,4.66-3.13,8-6.94,4-4.58,6.8-12.95,3.73-20.28-1.89-4.54-6.86-8.58-12.51-8.58a13.7,13.7,0,0,0-9.85,4.61c-2.66,3.08-3.11,6.74-3.83,12.46-.48,3.93-.28,6.41-1.59,11-.74,2.6-1.42,4-2.23,4.76,2.33,2.87,4.28,6,7.43,7.87A37.06,37.06,0,0,0,1587.33,493.22Z"/><path class="cls-29" d="M1587.94,498.5a24,24,0,0,1-.51-5.73,37.21,37.21,0,0,1-8.53-3.48c-3.12-1.85-5.07-5-7.42-7.87a4.17,4.17,0,0,1-.94.68c-2,1-5,.66-6.18-1-1.31-1.81.2-4.49,1.36-8,.88-2.65.3-2,1.68-15.52,1.2-11.83,1.95-13.38,2.29-16.13a32.89,32.89,0,0,0,.21-4c0-3.07,0-5.79.26-8.49a111.64,111.64,0,0,0-13.19.24c0,.71-.12,1.56-.25,2.6s-.28,1.9-.31,2.08c-.43,2.37-1.12,4.35-2.76,11.23l-1.15,4.95c-2.14,9.57-2.28,12.14-3.92,19.05-.3,1.32-1.28,5.24-2.84,10.27-1,3.11-2.17,7-4.17,11.87-1.82,4.5-2.34,5-3.66,8.65-.81,2.3-.74,3.51-2.47,8.67-2.31,6.94-3.57,10.72-3.59,15.59,0,3.29,0,6.87,2.26,9.76,2.52,3.19,5.75,3,10.8,4.63,12,4,12.34,11.43,20.49,12.09,7.59.61,13.67-5.34,14.49-6.16,4.95-5,2.18-7.71,8.44-23.23,2.54-6.33,4.17-8.75,3.41-12.75C1590.93,504.29,1589,503.76,1587.94,498.5Z"/><path class="cls-28" d="M1571,424.76c.53-2.69,1-3.59,1.88-8.11.39-2.1.56-3.33.6-3.66.35-2.67.28-3.65.49-7.25.28-5.7.64-6.17.13-7.81-.77-2.51-2.65-4.65-3.5-4.37s-.1,3-1.37,7.44c-.57,2-1.19,4.11-2,4.14-1.84,0-3-10.37-4.29-10.23-.75.06-1.16,3.89-1.35,5.85-.07.6-.06.65-.25,3.28-.21,2.85-.31,4.27-.35,4.42-.65,3.75-2.92,4.21-3.29,7.08a7.73,7.73,0,0,0,1.61,5.36,14,14,0,0,0-1.81,4.8,32.18,32.18,0,0,0-.3,3.93,109.33,109.33,0,0,1,13.18-.25A42.3,42.3,0,0,1,1571,424.76Z"/><path class="cls-3" d="M1562.36,480c-.81.76-.65,1.38-1.48,4.35s-1.21,3-1.34,4.38c-.11,1.16-.32,3.5,1.23,5.14s4.33,2.11,5.42,1.09c.66-.63.16-1.32.9-3.19.63-1.64,1.81-3,2.27-2.87.2,0,.26.39.36.86a3.82,3.82,0,0,1,0,1.17c-.12,1.48-.3,1.81-.17,1.9.29.21,1.87-1,2.89-2.73.37-.64,2.18-3.94.64-7a7.48,7.48,0,0,0-2.76-2.74,7.73,7.73,0,0,0-4.19-1.45A5.21,5.21,0,0,0,1562.36,480Z"/><circle class="cls-30" cx="1580.37" cy="475.28" r="1.98"/><circle class="cls-30" cx="1589.83" cy="480.99" r="1.98"/><circle class="cls-30" cx="1618.08" cy="484.96" r="3.06"/><circle class="cls-30" cx="1631.66" cy="484.66" r="3.06"/><path class="cls-27" d="M1582.91,470a.38.38,0,0,0,.4-.36.37.37,0,0,0-.23-.37.38.38,0,0,0-.41.35A.39.39,0,0,0,1582.91,470Z"/><path class="cls-27" d="M1593.73,476.6a.38.38,0,0,0,.17-.73.38.38,0,0,0-.4.36A.36.36,0,0,0,1593.73,476.6Z"/><path class="cls-31" d="M1621.65,487.09c.66-1.45,5.68-1.13,6.11.19.25.8-1.3,1.93-1.43,2a3.22,3.22,0,0,1-2.62.71C1622.27,489.64,1621.26,487.94,1621.65,487.09Z"/><path class="cls-2" d="M1621.68,486.47c0-.49,2.1-.92,3.9-.69.66.08,2,.34,2,.73s-1.36.82-2.55.89C1623.45,487.48,1621.66,486.91,1621.68,486.47Z"/><path class="cls-32" d="M1581.38,479.22a5.37,5.37,0,0,0,6,3.14"/><path class="cls-32" d="M1621.06,478.5a4.44,4.44,0,0,0-5.57.28"/><path class="cls-32" d="M1633.29,478.57a4.42,4.42,0,0,0-5.57.27"/><path class="cls-33" d="M1575.55,470.06c2.66.56,4-7.84,10.41-9.28,2.17-.53,4.11,0,8.1.91s6,1.39,6.75,2.93c1.47,3-3.38,6.48-1.6,9.64.89,1.58,2.92,2.67,4.09,2.2s2.51-4.76,2-3.49l2.07-5.37c4.18-1,4.56-1.66,4.56-1.66.84-1.39-.22-4.15-2-5.05-1.29-.64-2.41.06-3-.68-.41-.53,0-1,.33-3.27a32.84,32.84,0,0,0,.23-3.71c-4.07-3.87-6-5.56-6-5.56-5.28-4.59-6.46-4.57-7.14-4.36-1.23.4-1.1,1.63-2.87,2.47a6.84,6.84,0,0,1-4.24.27c-3.18-.54-3.53-2-5.8-2a5,5,0,0,0-4,2c-.72,1.13-.06,1.67-.48,3.85-.24,1.32-.56,1.54-2.26,5.33-.1.21-1,2.29-1.33,3C1571.82,462.46,1573.19,469.51,1575.55,470.06Z"/><path class="cls-32" d="M1562.08,487.07a23.78,23.78,0,0,0-.94,4.07,25.42,25.42,0,0,0-.23,3"/><path class="cls-32" d="M1563.69,488a23.56,23.56,0,0,0-.94,4.05,22,22,0,0,0-.22,3"/><path class="cls-32" d="M1565.27,488.36a22.57,22.57,0,0,0-.94,4.06,21.8,21.8,0,0,0-.22,3"/><path class="cls-32" d="M1573.42,412.37a15.23,15.23,0,0,0-4.32-.93c-2-.15-3.63-.47-4,.24s.21,1.66,1,2.19,1.64.21,3.17,1c.55.28.92.47,1,.78,0,.66-1.93.79-2.74,2.22a2.94,2.94,0,0,0-.38,1.62"/><path class="cls-27" d="M1584.66,466a3.27,3.27,0,0,1,1.06.42,10.67,10.67,0,0,1,1,.64.37.37,0,1,0,.52-.54,6.15,6.15,0,0,0-2.37-1.25.39.39,0,0,0-.45.29.37.37,0,0,0,.28.44Z"/><path class="cls-27" d="M1594.53,472.94l.55.2a4.91,4.91,0,0,1,.57.25,2.62,2.62,0,0,1,.93.72.4.4,0,0,0,.54,0,.41.41,0,0,0,0-.54,5.09,5.09,0,0,0-2.4-1.35.37.37,0,0,0-.4.35.38.38,0,0,0,.23.38Z"/><path class="cls-27" d="M1589.38,471.69c-.35,1.53-1.62,2.6-2.5,3.81a.4.4,0,0,0,0,.53.38.38,0,0,0,.53,0h0c1-1.32,2.29-2.49,2.68-4.16a.38.38,0,0,0-.35-.41.4.4,0,0,0-.38.24Z"/><path class="cls-27" d="M1615.83,473.79a12,12,0,0,0,4-.7c.45-.17.2-.89-.23-.72a11.1,11.1,0,0,1-3.82.71.38.38,0,0,0,0,.76Z"/><path class="cls-27" d="M1627.46,472a8.06,8.06,0,0,0,4.13.31.39.39,0,0,0,.26-.47.41.41,0,0,0-.48-.25,7.33,7.33,0,0,1-3.74-.33.41.41,0,0,0-.46.29.39.39,0,0,0,.29.45Z"/><path class="cls-27" d="M1622.87,475.72a16.3,16.3,0,0,1,.75,3.85l.46,4.21c.06.47.8.44.75,0-.16-1.45-.36-2.89-.49-4.32a16.56,16.56,0,0,0-.76-3.88c-.17-.45-.89-.21-.72.22Z"/><path class="cls-27" d="M1553.07,460.86l9.07,2-.12-.69a20.71,20.71,0,0,1-9.83,2.22c-.48,0-.45.74,0,.75a21.39,21.39,0,0,0,10.2-2.33.38.38,0,0,0,.13-.51.35.35,0,0,0-.24-.17l-9.07-2a.38.38,0,0,0-.41.35.4.4,0,0,0,.24.38Z"/><polygon class="cls-34" points="330.62 1098.5 357.13 680.08 215.13 664.93 173.48 1098.5 330.62 1098.5"/><rect class="cls-35" x="247.02" y="386.86" width="134.69" height="226.42" transform="translate(-52.95 37.49) rotate(-6.3)"/><path class="cls-36" d="M292,400.81c-1,2.44.67,4.38-1,7.16-.42.66-1.42,2-5.6,3.84-5.1,2.19-6.84,1.61-10.92,3.08-1.77.66-7,2.58-9.67,6.71-2.16,3.36-1.63,6.66-1,12.49,2.24,19.61.35,18.66,3,31.94,1.34,6.67,1.52,5.43,2.9,12.53,1.44,7.31,3.67,14.46,4.65,21.87.39,3,.72,6.35,3.32,7.95,2.23,1.38,4.34.32,6.18,1.89s1.73,4.1,1.55,7.28a123.36,123.36,0,0,1-1.67,14.22c-.88,4.94-.32,9.19.82,17.72l.14,1.24c1.31,7.91,5.68,12.87,7.84,15.77,7.35,9.7,9.55,21.17,9.94,23.42,1.45,7.69.64,13.45,4.42,15.28,1.7.81,3.27.33,6-.16,7.89-1.43,10.05-.14,17.41-.65,10.52-.76,25.26-5,26.59-10.58.67-2.91-1.63-3.84-3.09-10a26.27,26.27,0,0,1-.64-3.63,56.15,56.15,0,0,1,.56-15.37c1.56-9.71,3.27-10.95,4.17-19.41.32-2.89.18-3.32.62-7.12.52-4.3,1-6,.47-8.72a17,17,0,0,0-1.75-4.83c-4.88-10-8.38-16.15-8.38-16.15-.86-1.49-4.54-8-5.15-9,0,0,3.92-2.92,4.41-3.32,4.39-3.52,1.88-15.85,1.32-27-.33-6.47.47-3.18,1.13-24.49a99.07,99.07,0,0,0-1.6-21.74c-1.33-7.06-2.67-9.68-4.95-11.51-2.47-2-5.94-2.46-12.76-3.32-9.1-1.16-11.3-.21-14-2.43-3.34-2.75-1.57-5.64-4.61-8.29C307.26,392.94,294.21,395.52,292,400.81Z"/><polyline class="cls-37" points="318.5 423.5 318.06 478.08 319.33 491.6"/><polyline class="cls-37" points="282.21 453.01 287.01 481.06 287.98 491.29 289.06 502.76"/><path class="cls-37" d="M336.8,431.43,334.63,449l-1.93,20.43-1.81,16"/><line class="cls-37" x1="317.47" y1="412.65" x2="318.43" y2="418.33"/><path class="cls-38" d="M325.53,545.93a9.13,9.13,0,0,0-1.7-4.36c-2-2.62-4.91-3.36-7.77-4.15-11-3.08-9.1-3.81-13.79-4.46a38.15,38.15,0,0,0-18.54,2.12c-.1-.89-.23-2-.31-3.28a45.59,45.59,0,0,1,0-5,34.91,34.91,0,0,1,.73-5.85c.66-3.09,1-4.57,2-5.57,1.92-1.74,5-1.27,6.77-1.06,5.8.69,11.68-.84,17.51-.85,5.56,0,13.73-1.17,24.71-6.51a34.32,34.32,0,0,0,7.45-3.2c2.33-1.35,3.24-2.23,4.52-2.07.9.08,2,.72,5,7.36,2.71,6.09,2.64,7,2.43,7.61-.75,2.25-3.14,2.37-7.2,4.85-2.82,1.71-4.88,4-9.21,8.6-.9,1-6.64,7.19-7.06,10.73a10.56,10.56,0,0,0-.11,3.32,3,3,0,0,1,.23,2,2.06,2.06,0,0,1-.79.91l-2.05,1Z"/><polyline class="cls-37" points="319.99 555.37 310.82 558.31 301.46 559.22"/><path class="cls-35" d="M334.19,602c-1.05-3.56-4.65-15.8-7.07-25.62a30.18,30.18,0,0,1-1-6.12c-.27-4.42.63-7,1.42-12.12a84.53,84.53,0,0,0,1-10.17l1.62-1.4,8.51,53.73.14,1.29Z"/><path class="cls-37" d="M350.68,549.36l6-3.28"/></svg>
