<svg id="Layer_1" data-name="Layer 1" xmlns="http://www.w3.org/2000/svg" viewBox="0 0 136 227">
  <defs>
    <style>
      .cls-1 {
        fill: #ec9121;
      }

      .cls-2 {
        fill: #eab2db;
      }

      .cls-3, .cls-7 {
        fill: #846447;
      }

      .cls-4 {
        fill: #e5cfbe;
      }

      .cls-5 {
        fill: #b699ba;
      }

      .cls-6 {
        fill: #db9f91;
        opacity: 0.5;
      }

      .cls-7, .cls-9 {
        stroke: #846447;
        stroke-miterlimit: 10;
        stroke-width: 0.25px;
      }

      .cls-8 {
        fill: #fff;
      }

      .cls-9 {
        fill: none;
      }

      .cls-10 {
        fill: #736357;
      }
    </style>
  </defs>
  <title>venner_1</title>
  <rect class="cls-1" x="0.08" y="0.05" width="135.83" height="226.91"/>
  <path class="cls-2" d="M36.31,122.33a3.35,3.35,0,0,0-.1,1.64c.06.73.43,3.25,4.27,6s10.37,5,22.22,7.18c.81.15,1.57.29,2.28.44a118.45,118.45,0,0,0,2.4-14.74C53.29,120.2,37.89,118.75,36.31,122.33Z"/>
  <path class="cls-2" d="M111.3,124h0c-1.52-2.29-1.66-5.34-1.86-11.34-.18-5.41.33-5,0-7.41s-1.16-8.62-6.48-12.5c-1.13-.82-6.43-4.43-12.72-2.31a13.21,13.21,0,0,0-8.57,9,16.41,16.41,0,0,0,1.39,10.88c2.18,4,5,4.49,6.25,8.8a15,15,0,0,1,.57,2.58c3.91.86,7.76,2,11.7,2.28A33,33,0,0,0,111.3,124Z"/>
  <path class="cls-3" d="M122.64,137.37a24.77,24.77,0,0,0-4.86-8.1c-3.19-3.33-4.69-2.63-6.48-5.31a33,33,0,0,1-9.72,0c-3.94-.28-7.79-1.42-11.7-2.28a4.37,4.37,0,0,1-.57,3c-2,2.86-8.68,1-16.43-.69-1.79-.39-3.63-.76-5.5-1.11A118.45,118.45,0,0,1,65,137.58c3,.62,5.16,1.34,6.51,3.26.74,1,.89,2.88,1.16,6.48.32,4.33.23,6.94.23,6.94-.45,13.3-.67,20,2.31,24.07,1.82,2.51,4.07,3.45,8.57,5.32,3.58,1.5,18.59,7.77,29.16,0,5.09-3.74,7-9.18,8.1-12.26,1.88-5.35.28-5.71,1.62-19.67C123.35,144.17,124.08,141.56,122.64,137.37Z"/>
  <path class="cls-4" d="M61.84,128.42a17,17,0,0,1,.39-8.64c1.49-4.45,3.84-4.09,6.25-8.56,2.89-5.37,3.72-14.15-.92-20.6-2.87-4-8.62-6.82-14.12-5.55a13.66,13.66,0,0,0-8.56,6.71c-1.9,3.6-1.52,7.26-.93,13,.41,3.94,1.16,6.31.93,11.11-.14,2.71-.49,4.18-1.1,5.14,2.91,2.28,5.51,4.87,9,6A37,37,0,0,0,61.84,128.42Z"/>
  <path class="cls-5" d="M63.62,133.43A23.82,23.82,0,0,1,61.84,128a37.51,37.51,0,0,1-9.1-1.47c-3.45-1.1-6.05-3.69-9-6a4,4,0,0,1-.76.87c-1.73,1.48-4.75,1.78-6.24.46-1.68-1.47-.81-4.42-.47-8.1.26-2.77-.15-2-1.85-15.5C33,86.47,33.35,84.79,33.06,82a32.14,32.14,0,0,0-.68-3.91c-.67-3-1.27-5.65-1.66-8.33A109.35,109.35,0,0,0,17.92,73c.12.7.23,1.54.34,2.59s.16,1.91.17,2.09c.11,2.41-.12,4.49-.17,11.56,0,0,0,2.29,0,5.09.06,9.8.5,12.34.46,19.44,0,1.35-.07,5.39-.46,10.65-.24,3.24-.54,7.28-1.39,12.5-.77,4.79-1.17,5.37-1.62,9.25-.28,2.42.06,3.59-.46,9-.69,7.28-1.07,11.25,0,16,.73,3.21,1.52,6.7,4.4,9,3.17,2.55,6.27,1.6,11.57,2.09,12.58,1.16,14.59,8.36,22.68,7.17,7.53-1.11,12.12-8.28,12.73-9.26,3.7-6,.39-8,3-24.53,1.06-6.74,2.1-9.47.46-13.19C67.84,138.4,65.88,138.31,63.62,133.43Z"/>
  <path class="cls-4" d="M30.53,65.39c-.09-2.74.18-3.73,0-8.33-.09-2.13-.2-3.37-.23-3.7-.26-2.68-.55-3.62-1.16-7.17-1-5.62-.76-6.16-1.62-7.64-1.32-2.27-3.63-3.94-4.4-3.47s.58,2.94.34,7.55c-.11,2.06-.23,4.28-1,4.48-1.78.46-5.29-9.42-6.48-9-.72.23-.25,4,0,6,.07.6.09.65.5,3.26.43,2.82.65,4.23.65,4.38.21,3.8-1.9,4.76-1.62,7.64a7.72,7.72,0,0,0,2.78,4.86,14,14,0,0,0-.69,5.09,35,35,0,0,0,.59,3.89A110.7,110.7,0,0,1,31,70,41.48,41.48,0,0,1,30.53,65.39Z"/>
  <path class="cls-2" d="M34.53,121.12c-.62.92-.32,1.49-.47,4.57s-.51,3.16-.32,4.57c.16,1.15.48,3.48,2.36,4.73s4.69,1.08,5.52-.16c.51-.76-.14-1.32.16-3.31.25-1.74,1.08-3.37,1.57-3.31.2,0,.34.33.54.76a4,4,0,0,1,.31,1.13c.21,1.47.11,1.83.26,1.89.33.14,1.6-1.37,2.2-3.31.22-.71,1.24-4.33-.94-6.93a7.5,7.5,0,0,0-3.31-2,7.66,7.66,0,0,0-4.41-.47A5.2,5.2,0,0,0,34.53,121.12Z"/>
  <circle class="cls-6" cx="51.03" cy="112.51" r="1.98"/>
  <circle class="cls-6" cx="61.53" cy="115.94" r="1.98"/>
  <circle class="cls-6" cx="89.95" cy="113.46" r="3.06"/>
  <circle class="cls-6" cx="103.11" cy="110.11" r="3.06"/>
  <path class="cls-3" d="M52.3,106.74a.38.38,0,0,0,0-.75.38.38,0,0,0,0,.75Z"/>
  <path class="cls-3" d="M64.34,110.79a.38.38,0,0,0,0-.75.38.38,0,0,0,0,.75Z"/>
  <path class="cls-7" d="M93.9,114.73c.32-1.56,5.28-2.37,6-1.19.42.73-.83,2.18-.94,2.3a3.19,3.19,0,0,1-2.39,1.28C95.08,117.08,93.71,115.65,93.9,114.73Z"/>
  <path class="cls-8" d="M93.79,114.12c-.1-.48,1.84-1.37,3.65-1.55.66-.07,2-.11,2.12.26s-1.14,1.11-2.28,1.44C95.74,114.71,93.87,114.56,93.79,114.12Z"/>
  <path class="cls-9" d="M52.9,116.12a5.38,5.38,0,0,0,6.56,1.71"/>
  <path class="cls-9" d="M91.4,106.53A4.44,4.44,0,0,0,86,108.05"/>
  <path class="cls-9" d="M103.33,103.81A4.43,4.43,0,0,0,98,105.33"/>
  <path class="cls-10" d="M45.15,108.48c2.72,0,2.09-8.52,8.06-11.38,2-.95,4-.94,8.1-.93s6.17,0,7.23,1.33c2.1,2.56-1.83,7.08.61,9.76,1.23,1.34,3.45,1.94,4.48,1.22s1.38-5.2,1.22-3.86l.81-5.7c3.84-1.92,4.07-2.64,4.07-2.64.5-1.54-1.15-4-3-4.48-1.4-.33-2.33.6-3.05,0-.51-.42-.18-1-.41-3.26a33.64,33.64,0,0,0-.61-3.66c-4.84-2.86-7.12-4.07-7.12-4.07-6.17-3.28-7.32-3-7.93-2.64-1.11.67-.71,1.84-2.24,3a6.86,6.86,0,0,1-4.07,1.22c-3.22.19-3.9-1.18-6.1-.61a5,5,0,0,0-3.46,2.85c-.44,1.26.32,1.64.4,3.86.06,1.34-.2,1.63-1,5.7,0,.23-.5,2.47-.61,3.26C39.81,101.94,42.73,108.53,45.15,108.48Z"/>
  <path class="cls-9" d="M30.11,52.77a15.35,15.35,0,0,0-4.42.06c-2,.31-3.64.36-3.86,1.14s.57,1.57,1.41,1.92,1.65-.16,3.31.24c.6.14,1,.25,1.11.54.18.64-1.7,1.2-2.17,2.78a2.93,2.93,0,0,0,0,1.66"/>
  <path class="cls-3" d="M53.12,102.54a3.37,3.37,0,0,1,1.13.17,11.5,11.5,0,0,1,1.08.41.38.38,0,0,0,.51-.13.39.39,0,0,0-.13-.52,6.16,6.16,0,0,0-2.59-.68.38.38,0,0,0-.37.38.37.37,0,0,0,.37.37Z"/>
  <path class="cls-3" d="M64.3,107l.58.07a6,6,0,0,1,.61.12,2.62,2.62,0,0,1,1.07.49.39.39,0,0,0,.52-.13.4.4,0,0,0-.14-.52,5.18,5.18,0,0,0-2.64-.78.38.38,0,0,0,0,.75Z"/>
  <path class="cls-3" d="M59,107c0,1.57-1,2.9-1.58,4.28a.39.39,0,0,0,.14.51.37.37,0,0,0,.51-.13c.67-1.51,1.67-2.94,1.68-4.66a.38.38,0,0,0-.75,0Z"/>
  <path class="cls-3" d="M85.24,103.08A12,12,0,0,0,89,101.45c.4-.27,0-.92-.38-.65a11.14,11.14,0,0,1-3.57,1.55c-.47.11-.28.84.19.73Z"/>
  <path class="cls-3" d="M96.16,98.67a8.11,8.11,0,0,0,4.1-.62.39.39,0,0,0,.14-.52.4.4,0,0,0-.52-.13,7.4,7.4,0,0,1-3.72.52.39.39,0,0,0-.38.38.38.38,0,0,0,.38.37Z"/>
  <path class="cls-3" d="M92.54,103.38A16.41,16.41,0,0,1,94.13,107l1.4,4c.16.45.88.25.72-.2-.48-1.37-1-2.73-1.45-4.09A16.32,16.32,0,0,0,93.19,103c-.27-.4-.92,0-.65.38Z"/>
  <path class="cls-3" d="M21.18,104.59l9.29-.07-.27-.64a20.71,20.71,0,0,1-9.08,4.37c-.47.1-.27.82.2.72a21.33,21.33,0,0,0,9.41-4.56.37.37,0,0,0-.26-.64l-9.29.07a.38.38,0,0,0,0,.75Z"/>
</svg>
