<svg id="Layer_1" data-name="Layer 1" xmlns="http://www.w3.org/2000/svg" viewBox="0 0 136 227">
  <defs>
    <style>
      .cls-1 {
        fill: #eab2db;
      }

      .cls-2 {
        fill: #c7b299;
      }

      .cls-3 {
        fill: #aad6e5;
      }

      .cls-4, .cls-6 {
        fill: #846447;
      }

      .cls-5 {
        fill: #ea7b65;
        opacity: 0.5;
      }

      .cls-6 {
        stroke: #846447;
        stroke-miterlimit: 10;
      }

      .cls-7 {
        fill: #fff;
      }
    </style>
  </defs>
  <title>venner_2</title>
  <rect class="cls-1" x="-44.91" y="45.15" width="226.82" height="135.71" transform="translate(-44.59 181.35) rotate(-89.92)"/>
  <path class="cls-2" d="M104.49,121.64c5.69-2.2,12.25,4.88,16.25,9.2,3.66,4,6.19,6.69,6.63,10.88.42,4-2.81,8.8-9.25,18.38-3.16,4.69-4.61,6.31-6.93,7.56-3.51,1.9-9.28,3.11-10.87.93C97,164,115.13,149,111.07,141.6c-2.32-4.25-9.68-2-12-6.81C97,130.58,100,123.38,104.49,121.64Z"/>
  <path class="cls-2" d="M27.16,126.58c-5.93-1.36-11.43,6.61-14.78,11.46-3.07,4.45-5.19,7.52-5,11.73.15,4,4,8.31,11.74,16.85,3.78,4.19,5.45,5.57,7.92,6.48,3.74,1.37,9.62,1.73,10.89-.66,2.66-5-17.41-17.2-14.44-25.15,1.7-4.54,9.3-3.35,10.92-8.48C35.79,134.34,31.87,127.65,27.16,126.58Z"/>
  <path d="M92.14,76.82c0,1.46-6.09,2.37-6.34,3.76s5.16,4.35,4.68,5.69-6.53.17-7.23,1.41,3.38,5.84,2.47,6.94-6.19-2.06-7.28-1.13,1.2,6.64,0,7.37S73.31,96.8,72,97.3s-1.17,6.64-2.6,6.89S66,98.6,64.56,98.6s-3.45,5.81-4.84,5.55-1.22-6.4-2.55-6.9-5.24,4.24-6.47,3.51,1.1-6.43,0-7.36-6.38,2.19-7.29,1.07,3.23-5.66,2.52-6.92-6.74-.09-7.22-1.45,5-4.23,4.72-5.66-6.32-2.35-6.31-3.81,6.09-2.37,6.33-3.76-5.15-4.36-4.67-5.69S45.31,67,46,65.77s-3.39-5.84-2.47-6.94,6.18,2.06,7.27,1.13-1.2-6.64,0-7.37,5.09,4.06,6.45,3.56,1.17-6.64,2.6-6.89,3.33,5.59,4.8,5.59,3.44-5.81,4.83-5.56,1.22,6.41,2.55,6.91,5.25-4.25,6.48-3.52-1.1,6.43,0,7.37,6.38-2.19,7.29-1.08-3.22,5.67-2.52,6.93,6.74.09,7.22,1.45-5,4.23-4.71,5.66S92.14,75.35,92.14,76.82Z"/>
  <path class="cls-2" d="M62.83,113.34c6.49,3.07,14.72,0,19.54-5.7a5.53,5.53,0,0,1-3.86-1.39c-1-.92-2-2.61-1.78-9.68.32-10.43,2.74-11.83,1.87-17-.14-.83-1.8-9.87-9.49-12.69a14.34,14.34,0,0,0-15.44,4.09c-3.7,4.38-3.25,10.1-3,13.35C51.21,91,54,92.73,55.6,102.49a42.19,42.19,0,0,1,.67,5.36C58.36,110,60.3,112.23,62.83,113.34Z"/>
  <path class="cls-3" d="M99.46,151c0-16.48-1.3-24.29-4-31.56-3-8.13-5.67-10-7.45-10.85a14,14,0,0,0-5.66-1c-4.82,5.74-13.05,8.77-19.54,5.7-2.53-1.11-4.47-3.39-6.56-5.49a4.84,4.84,0,0,1-.92,3.39c-3,3.62-9.53-.79-14.31,3-2.78,2.18-3.28,5.82-4.12,12.65a66.65,66.65,0,0,0-.06,15.89c2.15,18.11,3.22,27.17,4.9,29.5,10.89,15.12,48.62,12.11,56.73-3.5C99.46,166.85,99.46,161.57,99.46,151Z"/>
  <path class="cls-3" d="M23.16,124.39c-2.1,6.76,7,17.22,12.81,16.3,3.78-.6,3.09-5.44,11.08-13.15,3.91-3.78,6.59-5.05,6.76-8.09a7.78,7.78,0,0,0-4.6-7c-2.3-1-4.55-.3-11.71,3.19C28.38,120.05,23.8,122.32,23.16,124.39Z"/>
  <path class="cls-3" d="M97.28,137.25c7,.43,14.77-11,12.48-16.55-1.48-3.59-6-1.73-15.25-7.74-4.55-2.93-6.41-5.27-9.37-4.7a7.72,7.72,0,0,0-5.61,6.23c-.39,2.51.81,4.55,5.88,10.76C91.87,133.16,95.14,137.12,97.28,137.25Z"/>
  <path class="cls-4" d="M57.75,85.92a1.13,1.13,0,0,0,0-2.25,1.13,1.13,0,0,0,0,2.25Z"/>
  <path class="cls-4" d="M70.57,85.53a1.13,1.13,0,0,0,0-2.25,1.13,1.13,0,0,0,0,2.25Z"/>
  <ellipse class="cls-5" cx="57.89" cy="90.73" rx="2.2" ry="2.16" transform="translate(-33.03 148.32) rotate(-89.81)"/>
  <ellipse class="cls-5" cx="71.06" cy="90.21" rx="2.19" ry="2.16" transform="translate(-19.4 160.97) rotate(-89.81)"/>
  <path class="cls-6" d="M64.42,97.12c.23-1.12,3.75-1.69,4.23-.84.3.53-.6,1.56-.67,1.65a2.27,2.27,0,0,1-1.69.91C65.25,98.81,64.29,97.78,64.42,97.12Z"/>
  <path class="cls-7" d="M64.34,96.68c-.06-.34,1.31-1,2.59-1.1.47,0,1.43-.08,1.5.19s-.81.79-1.62,1C65.72,97.11,64.4,97,64.34,96.68Z"/>
  <path class="cls-4" d="M54.93,80.83l5.3,0a.75.75,0,0,0,0-1.5l-5.3,0a.75.75,0,1,0,0,1.5Z"/>
  <path class="cls-4" d="M67.54,80.33l5.85,0a.75.75,0,0,0,0-1.5l-5.85,0a.75.75,0,0,0,0,1.5Z"/>
  <path class="cls-4" d="M63.7,84.68a43.47,43.47,0,0,0,.09,6c0,.48.79.48.75,0a43.47,43.47,0,0,1-.09-6c0-.48-.73-.48-.75,0Z"/>
</svg>
