<svg id="Layer_1" data-name="Layer 1" xmlns="http://www.w3.org/2000/svg" viewBox="0 0 136 227">
  <defs>
    <style>
      .cls-1 {
        fill: #aad6e5;
      }

      .cls-2 {
        fill: #ea7657;
      }

      .cls-3 {
        fill: #ede683;
      }

      .cls-4 {
        fill: #b699ba;
      }

      .cls-5, .cls-8 {
        fill: #846447;
      }

      .cls-6 {
        fill: #ec9121;
      }

      .cls-7 {
        fill: #db9f91;
        opacity: 0.5;
      }

      .cls-8 {
        stroke: #846447;
        stroke-miterlimit: 10;
      }

      .cls-9 {
        fill: #fff;
      }
    </style>
  </defs>
  <title>venner_4</title>
  <rect class="cls-1" x="0.05" y="0.26" width="135.22" height="226.54" transform="translate(-0.38 0.23) rotate(-0.19)"/>
  <path class="cls-2" d="M29.68,78c2.07,2.19,10.86-.93,15.94-7,2.58-3.12,3.59-7.94,5.51-17.47,3.07-15.25,1.83-18.34.31-20.22s-4.29-3.65-7-3.38c-5.33.54-7.93,8.2-8.27,9.2-2.23,6.54.74,9.38.61,16.85C36.51,68.88,27.32,75.49,29.68,78Z"/>
  <path class="cls-3" d="M38,184c-.54-3.48,6.1-4.65,9.5-13.79,3.26-8.78.74-17.38,0-19.92-2-6.84-4.36-7.2-8-15-5.71-12.36-4.9-22.41-5.82-22.37C32.5,113,31,129,32.13,150.31c1.53,28.28,6.65,45.81.92,48.42-2.2,1-4.95-.69-5.82-1.23-5.79-3.57-6-12.33-6.43-23,0,0-.67-16.72-2.15-40.76C18,123.36,15,117.17,17.43,108c.87-3.29,2.46-8.93,7.35-12.87,3.43-2.75,4.88-1.77,10.42-5.21A30.76,30.76,0,0,0,45.92,79.83,22.59,22.59,0,0,0,49.6,70c.88-9.82-7.71-13-8-21.45-.27-8.85,8.7-19.87,18.08-19.61S75.06,40.79,76.87,47c.79,2.73,4.36,12.23,0,19.92-2.07,3.66-4.06,3.65-4.59,6.44-.91,4.69,4.12,8,13.17,18.08,7.5,8.37,11.23,12.7,13.49,18.69,3.45,9.14,1.41,16,3.06,16.24,1.91.31,4.72-8.82,7.66-18.39,2.69-8.75,3.22-12.77,2.45-17.16A43.32,43.32,0,0,0,110,83.51c-2-5.26-3.76-7.22-4.6-12-.45-2.57-.54-5.88.31-6.13,1.09-.32,3.15,4.67,3.77,4.41s-.07-4.58-1.79-9c-1-2.66-1.92-3.89-1.37-5.25.63-1.54,2.7-2.16,4.29-2.45a7.34,7.34,0,0,1,4.29,1.23c6,3.83,17.68,55.67-3.37,85.8-3.54,5.06-6.79,7.76-9.81,7.35-8.18-1.1-10.09-24.55-12.87-24.21-2.26.29-2.37,16-1.84,26A88.21,88.21,0,0,0,88.21,162c2.87,15.53,9.22,19.08,7.66,23.6C91.72,197.57,39.44,193.58,38,184Z"/>
  <path class="cls-4" d="M49,128.86c-4.37-3.69-1.06-16.26,3.67-17.16,4.37-.83,11.86,7.88,9.5,13.48-1.44,3.45-6.11,4.53-6.43,4.6C55.06,129.93,51.24,130.76,49,128.86Z"/>
  <path class="cls-4" d="M75.06,124.06c-3.45-4.57,2.54-16.1,7.36-15.93,4.45.15,9.83,10.3,6.3,15.24-2.17,3-7,3.07-7.29,3.07C80.74,126.43,76.83,126.41,75.06,124.06Z"/>
  <path class="cls-4" d="M62.39,125.5c4.3.4,8.51-.88,12.57-2.17,1.83-.58,1.05-3.48-.8-2.89-3.82,1.21-7.71,2.44-11.77,2.06a1.51,1.51,0,0,0-1.5,1.5,1.53,1.53,0,0,0,1.5,1.5Z"/>
  <path class="cls-4" d="M46.6,123.35l-10.09,1.23a1.54,1.54,0,0,0-1.5,1.5,1.5,1.5,0,0,0,1.5,1.5l10.09-1.23a1.54,1.54,0,0,0,1.5-1.5,1.51,1.51,0,0,0-1.5-1.5Z"/>
  <path class="cls-4" d="M54.2,111.66a181.58,181.58,0,0,1-7-30.87,1.52,1.52,0,0,0-1.85-1.05,1.54,1.54,0,0,0-1.05,1.84,181.5,181.5,0,0,0,7.05,30.88c.59,1.83,3.49,1,2.89-.8Z"/>
  <path class="cls-4" d="M85.33,108.59a83.33,83.33,0,0,0-5.27-24c-.68-1.79-3.58-1-2.89.8a80.55,80.55,0,0,1,5.16,23.24c.13,1.91,3.13,1.93,3,0Z"/>
  <path class="cls-5" d="M74.45,171.56a4,4,0,0,0,.91,3.53.37.37,0,0,0,.53-.53,3.18,3.18,0,0,1-.72-2.8c.12-.47-.61-.67-.72-.2Z"/>
  <path class="cls-6" d="M74.75,169.92a1.13,1.13,0,0,0,0-2.25,1.13,1.13,0,0,0,0,2.25Z"/>
  <path class="cls-5" d="M101.49,126.73a9.46,9.46,0,0,0,1.16,7.73c.53.81,1.82.06,1.29-.75a8,8,0,0,1-1-6.58.75.75,0,0,0-1.45-.4Z"/>
  <path class="cls-2" d="M43.15,34.09C48.37,28,58,26.92,65,29.55c8.89,3.34,13.74,12.82,12.1,14.71-1.23,1.42-5.44-2.22-13.12-1.17-2.2.29-6.15.89-8.92,4.07a9.6,9.6,0,0,0-1.72,3.2c-1.48-1-4.06-.92-4.66,0-2.24,2.49.83,5,2.61,7.47-1.3,6.27-1,9.12-2.07,9.45-2.09.62-5.86-6.53-7.53-12.57S37.71,40.42,43.15,34.09Z"/>
  <path class="cls-2" d="M79.43,42.83A5.64,5.64,0,0,1,78.2,48.6c-3.33,3.53-11.61,1.74-14.27-2.91-.39-.69-1.44-2.53-.7-4C65.06,38,77.25,37.86,79.43,42.83Z"/>
  <circle class="cls-7" cx="62.84" cy="62.22" r="2.92"/>
  <circle class="cls-7" cx="75.78" cy="61.35" r="2.92"/>
  <path class="cls-5" d="M61.92,51.47l.15-.07-.18.08a4,4,0,0,1,1-.24l-.2,0a10.3,10.3,0,0,1,1.24-.06.75.75,0,1,0,0-1.5,10.3,10.3,0,0,0-1.24.06,4.68,4.68,0,0,0-1.47.42.75.75,0,0,0,.75,1.29Z"/>
  <path class="cls-5" d="M73.25,51.15a7.15,7.15,0,0,1,1.36-.35l-.2,0a3.57,3.57,0,0,1,.8,0l-.2,0,.26,0a.78.78,0,0,0,.93-.52.77.77,0,0,0-.53-.92,5.15,5.15,0,0,0-2.82.31.76.76,0,0,0-.52.92.77.77,0,0,0,.92.53Z"/>
  <path class="cls-5" d="M63.62,57.46a1.5,1.5,0,0,0,0-3,1.5,1.5,0,0,0,0,3Z"/>
  <path class="cls-5" d="M74.6,56.4a1.5,1.5,0,0,0,0-3,1.5,1.5,0,0,0,0,3Z"/>
  <path class="cls-8" d="M66.39,65.08c.3-1.49,5-2.26,5.7-1.14.41.7-.8,2.09-.9,2.2a3,3,0,0,1-2.28,1.22C67.51,67.32,66.21,66,66.39,65.08Z"/>
  <path class="cls-9" d="M66.28,64.49C66.19,64,68,63.19,69.77,63c.63-.06,1.93-.1,2,.26s-1.08,1.06-2.18,1.37C68.14,65.06,66.36,64.92,66.28,64.49Z"/>
  <path class="cls-5" d="M70.28,54.67a5.38,5.38,0,0,0,1.17,4.79c.32.36.85-.17.53-.53a4.6,4.6,0,0,1-1-4.06.37.37,0,0,0-.72-.2Z"/>
  <path class="cls-5" d="M22.64,151.92a9.45,9.45,0,0,0,7.73-1.15c.8-.53.05-1.83-.76-1.3a8,8,0,0,1-6.57,1,.75.75,0,0,0-.4,1.44Z"/>
</svg>
