<svg id="Layer_1" data-name="Layer 1" xmlns="http://www.w3.org/2000/svg" viewBox="0 0 136 227">
  <defs>
    <style>
      .cls-1 {
        fill: #e8e0c8;
      }

      .cls-2 {
        fill: #eab2db;
      }

      .cls-3 {
        fill: #fff;
      }

      .cls-4 {
        fill: #c7b299;
      }

      .cls-5 {
        fill: #ec9121;
      }

      .cls-6, .cls-8, .cls-9 {
        fill: none;
        stroke-miterlimit: 10;
      }

      .cls-6 {
        stroke: #846447;
      }

      .cls-7 {
        fill: #f28f7c;
      }

      .cls-11, .cls-7 {
        opacity: 0.5;
      }

      .cls-8 {
        stroke: #a86514;
      }

      .cls-8, .cls-9 {
        stroke-width: 0.75px;
      }

      .cls-9 {
        stroke: #f2eeed;
      }

      .cls-10 {
        fill: #846447;
      }

      .cls-11 {
        fill: #f25d40;
      }
    </style>
  </defs>
  <title>venner_7</title>
  <rect class="cls-1" x="-0.03" y="0.39" width="135.9" height="226.95"/>
  <path class="cls-2" d="M69.16,121a8.28,8.28,0,0,0-1.35-1.83c-2.85-3-6.13-2.69-11.35-8.39-3.07-3.35-3.61-5.27-3.7-6.66-.23-3.35,2.05-4.7,3.7-8.64,2.41-5.74,1.11-11.38.5-14.06-1-4.45-2.58-11.22-8.64-13.82-5.69-2.45-13-.23-16.29,4.19C30,74.48,30.11,79,30.3,88c.16,7.08.84,8.71,0,13.33-.57,3.13-1.31,7-4.19,10.36-2.41,2.83-4,2.62-7.9,5.68l-.46.37c2.71,1.91,5.43,3.83,8.36,5.55C39.88,131.37,55.88,128.27,69.16,121Z"/>
  <path class="cls-3" d="M54.5,108.5c-.92.73-8.81,6.74-18,4a18.42,18.42,0,0,1-8-5c-10,2.86-14.59,7.43-16.71,11.63-3,5.91-1.08,9.77,0,24.68,1.23,16.82-3,18.95.5,24.43,5.79,9.19,21.11,8.87,31.83,8.64,11.82-.24,22.23-3.66,24.93-8.88a9.06,9.06,0,0,0,.7-1.92c6.34-22.26,9.06-26,8.75-31.58C77.76,121.24,60.89,111.74,54.5,108.5Z"/>
  <path class="cls-4" d="M116.75,80.72c.12-5.34-2.7-11.34-7.46-14.16-7.81-4.63-19.9-.35-24.78,7.18-4.38,6.78-3.19,16.58-.65,22.69,1.71,4.12,3.8,6,3.2,9.13-.84,4.36-6.24,7-11,8.67,2.59,9.83,5.77,19.92,11.35,27.83A22.22,22.22,0,0,1,92,137c6.77-6.16,13.17-12.19,19.36-18.36-4-2.89-7.75-4.49-8.08-8.79-.15-1.95.55-2.64,5-10.47C116.34,85.07,116.7,82.57,116.75,80.72Z"/>
  <path class="cls-5" d="M56.53,163.69c6.1-13.38,10-22,10.93-31.83.84-9.21-1.56-13.59,1.88-16.58,2-1.69,4.36-1.63,6.72-1.54L87.5,119.5l2,1a25.13,25.13,0,0,0,4,1,26.78,26.78,0,0,0,8,0,29.13,29.13,0,0,0,9.86-3.32,21.48,21.48,0,0,1,6.31,6.71c3.09,5.28,3,11.68,1.75,24.4-1.2,12.32-1.8,18.49-4.24,21.56-5.33,6.71-14.44,7.09-32.67,7.84-13,.54-26.84,1.12-29.22-4.81C52.42,171.74,53.57,170.17,56.53,163.69Z"/>
  <path class="cls-6" d="M40.05,83.09a3.43,3.43,0,0,0-2.29-.52,3.46,3.46,0,0,0-2,1"/>
  <path class="cls-6" d="M52.66,82.6a3.52,3.52,0,0,0-2.3-.52,3.38,3.38,0,0,0-2,1"/>
  <path class="cls-6" d="M40.87,92.18a4.06,4.06,0,0,0,3.09,2,3.87,3.87,0,0,0,3.65-2.11"/>
  <circle class="cls-7" cx="38.91" cy="89.14" r="2.35"/>
  <circle class="cls-7" cx="49.35" cy="88.82" r="2.35"/>
  <path class="cls-8" d="M104.66,145.47a45.23,45.23,0,0,1-3.46,23.58,43,43,0,0,1-5.33,8.89"/>
  <path class="cls-9" d="M23.21,141.54c-.68,3.15-4,20.08,6.18,30.74a24.18,24.18,0,0,0,4.94,3.94"/>
  <path class="cls-10" d="M82.43,88.4a.75.75,0,0,0,0-1.5.75.75,0,0,0,0,1.5Z"/>
  <path class="cls-10" d="M91.64,88.13a.75.75,0,0,0,0-1.5.75.75,0,0,0,0,1.5Z"/>
  <circle class="cls-11" cx="91.64" cy="94.17" r="2.35"/>
  <path class="cls-11" d="M84.39,95.62c-.27-1.18-1-2-1.61-2a11.84,11.84,0,0,0,1.59,3.74A3.5,3.5,0,0,0,84.39,95.62Z"/>
  <path class="cls-10" d="M43.82,82.2c.18,2.67.29,5.33.32,8a.38.38,0,0,0,.75,0c0-2.67-.14-5.33-.32-8,0-.48-.78-.48-.75,0Z"/>
  <path class="cls-10" d="M82,84.6h1.88a.75.75,0,0,0,0-1.5H82a.76.76,0,0,0-.75.75.77.77,0,0,0,.75.75Z"/>
  <path class="cls-10" d="M90.38,84.6h2.24a.75.75,0,0,0,0-1.5H90.38a.75.75,0,0,0,0,1.5Z"/>
  <path class="cls-10" d="M85.47,89.28a6.14,6.14,0,0,1-.29,1.12,6,6,0,0,1-.49,1,.38.38,0,0,0,.65.38,6.24,6.24,0,0,0,.85-2.28.39.39,0,0,0-.26-.46.38.38,0,0,0-.46.26Z"/>
  <path class="cls-10" d="M85.24,97.19a4.33,4.33,0,0,0,2.51.59,2.83,2.83,0,0,0,2.06-1.26c.27-.4-.38-.78-.64-.38a2.09,2.09,0,0,1-1.56.91,3.82,3.82,0,0,1-2-.5c-.42-.23-.8.42-.37.64Z"/>
  <path d="M74.18,77.8c-.2,2,9.1,6.88,16.5,4.45a22.76,22.76,0,0,1,5.88-1.56c1.51-.16,6.09-.63,7.15,1.32,1.26,2.29-3,6.62-2.32,7.26s4.15-3.46,5.79-2.56c1.3.71,1.35,4.49-.43,6.06-1.42,1.26-3.27.43-3.89,1.38s3,2.85,3.66,6.68c.07.43-.13.83.09,1,.61.45,3.06-1.28,4.69-3.46,1.37-1.83,1.13-2.6,2.61-4.27a12.3,12.3,0,0,1,2.8-2.28c3.4-2.32,6-7.59,5.82-12.61a13.9,13.9,0,0,0-2.75-7.77c-1.44-1.86-4.2-3.61-9.72-7.11-2-1.26-3.93-2.43-4.46-4.6-.38-1.58.23-2.73-.28-3-.82-.42-3.57,1.9-3.6,4.36,0,1.07.49,1.52.19,2-.62.95-3.09-.31-6.07-.43-3.4-.13-7.49,1.21-9.67,3.94-1.93,2.42-.65,3.78-2.42,6.26C80.62,77.29,74.34,76.17,74.18,77.8Z"/>
  <path class="cls-10" d="M30.5,85.5c.88.07.38-6.09,4-9,3.8-3,10.52-1.17,15,0,6.4,1.66,8.78,4.1,10,3,1.68-1.51-.45-8.21-5-12-6.09-5.08-14.4-3.15-15-3-2.48.62-1.6,1-10,5-3.84,1.82-7.2,3.24-7,4s2.18,0,4,1C30.61,76.83,29.45,85.42,30.5,85.5Z"/>
</svg>
