<svg id="Layer_1" data-name="Layer 1" xmlns="http://www.w3.org/2000/svg" viewBox="0 0 136 227">
  <defs>
    <style>
      .cls-1 {
        fill: #ede683;
      }

      .cls-2 {
        fill: #e5cfbe;
      }

      .cls-3 {
        fill: #ea7657;
      }

      .cls-4, .cls-6 {
        fill: none;
        stroke: #846447;
        stroke-miterlimit: 10;
      }

      .cls-4 {
        stroke-width: 0.25px;
      }

      .cls-5 {
        fill: #ea7b65;
        opacity: 0.5;
      }

      .cls-6 {
        stroke-width: 0.5px;
      }

      .cls-7 {
        fill: #846447;
      }

      .cls-8 {
        fill: #eab2db;
      }
    </style>
  </defs>
  <title>venner_10</title>
  <rect class="cls-1" x="-45.34" y="45.76" width="226.69" height="135.48" transform="translate(-45.66 181.24) rotate(-89.87)"/>
  <path class="cls-2" d="M39.92,127.65a23.62,23.62,0,0,0,.14-12c-1.7-6.27-5-6-8-12.33C28.54,95.71,28.09,83.52,35,75,39.3,69.7,47.48,66.24,55,68.42c7.65,2.22,10.94,9.15,11.3,10,2.34,5.14,1.52,10.16.25,18-.88,5.43-2.11,8.64-2.17,15.28,0,3.76.34,5.82,1.11,7.19-4.2,2.92-8,6.29-12.86,7.53A51.59,51.59,0,0,1,39.92,127.65Z"/>
  <path class="cls-3" d="M37.05,134.44l.35-.66A32.56,32.56,0,0,0,40,127a51.67,51.67,0,0,0,12.69-1.3c4.86-1.24,8.66-4.61,12.85-7.53a5.24,5.24,0,0,0,1,1.27c.41.39,4.7,3,8.6,1.14S79.72,113.33,80,111a22.21,22.21,0,0,0,0-4c-.14-3.94.24-7,1-13,1.15-9.16,1.88-8.86,2-14,.06-2.55,0-8,0-8s.72-6.59,1.62-11.5a82,82,0,0,1,3-11.38,14.11,14.11,0,0,1,8.79,2.46A12.21,12.21,0,0,1,98,53c-.28,1.16-.67,2.89-1,5-.82,5.27-.66,8.94,0,20,.53,8.93.8,13.43,1,15,.31,2.42,1.29,9.4,1.9,13.34,0,.08.06.32.1.66a75.75,75.75,0,0,1,.69,7.87c0,1.75-.11,1.56-.22,4.65,0,1.43-.07,3.27,0,6.06.08,4.49.17,10.1.93,17.37.69,6.69,1.19,7.53,1.5,12.92.19,3.37-.36,4.95-.08,12.51.37,10.11.58,15.64-1.27,22.06-1.26,4.39-2.63,9.15-6.79,12.12-4.59,3.28-8.8,1.71-16.16,2-13,.45-14.17,5.33-31.9,8.11-9.15,1.43-13.73,2.15-16.16.47-8.29-5.69,2.15-20.66-2.9-48.41-1.23-6.78-3.26-13.59.41-18.26C29.1,145.06,34.83,138.57,37.05,134.44Z"/>
  <path class="cls-2" d="M88,45.52c.27-3,0-4.1.52-9.12.23-2.32.43-3.67.49-4,.45-2.92.82-3.93,1.72-7.78,1.41-6.09,1.21-6.69,2.25-8.25,1.59-2.4,4.21-4.08,5-3.52s-.82,3.18-.84,8.23c0,2.27,0,4.7.84,5,1.92.61,6.38-10,7.66-9.47.77.31,0,4.45-.38,6.58-.12.65-.14.7-.75,3.53-.65,3.06-1,4.59-1,4.76-.46,4.15,1.79,5.33,1.29,8.46-.21,1.32-.94,3.15-3.34,5.14A8.18,8.18,0,0,0,98,50a7.46,7.46,0,0,0,0,3c-1.18-.1-2.46-.26-3.8-.5a39.33,39.33,0,0,1-7-2A45.81,45.81,0,0,0,88,45.52Z"/>
  <path class="cls-4" d="M89.25,31.74a16.89,16.89,0,0,1,4.83.33c2.16.47,4,.64,4.15,1.5.15.69-.73,1.68-1.66,2-1.09.39-1.8-.28-3.64.05-.67.12-1.15.21-1.25.52-.23.7,1.78,1.43,2.2,3.19a3.29,3.29,0,0,1-.12,1.81"/>
  <ellipse class="cls-5" cx="37.12" cy="102.12" rx="2.35" ry="2.39"/>
  <ellipse class="cls-5" cx="51.59" cy="100.61" rx="2.35" ry="2.39"/>
  <path class="cls-6" d="M39.69,93.47A3.14,3.14,0,0,0,37.62,93a3.09,3.09,0,0,0-1.78.88"/>
  <path class="cls-6" d="M51.07,92.12A3.16,3.16,0,0,0,49,91.65a3.24,3.24,0,0,0-1.79.87"/>
  <path class="cls-7" d="M43.38,100.11c.73-1.38.54-2.94.65-4.44,0-.48-.71-.48-.75,0-.09,1.35.11,2.82-.54,4.06-.23.42.42.8.64.38Z"/>
  <path class="cls-7" d="M40.49,104.9a2.84,2.84,0,0,0,2.91,2.23,3.2,3.2,0,0,0,2.81-2.46c.12-.47-.61-.67-.72-.2a2.46,2.46,0,0,1-2.09,1.91,2.1,2.1,0,0,1-2.19-1.68c-.08-.47-.8-.27-.72.2Z"/>
  <path class="cls-8" d="M62.12,68.49c-2.42-.77-15.15-4.4-24.54,3.32-7.8,6.42-9.56,17.61-8,18.53.81.47,1.93-2.08,6.32-4.51,8.71-4.83,16.8-1.72,17.79-1.07L54,85c.28.24.55.49.83.75a38.44,38.44,0,0,1,5.45,6.42,2.54,2.54,0,0,1,.9-2.71,2.65,2.65,0,0,1,3.61.9,7.74,7.74,0,0,1,.9,2.71,8.82,8.82,0,0,1-1.8,6.32,2.5,2.5,0,0,0,1.8.9c4.47-.21,11.34-19.71,3.61-28C67.32,70.14,65,69.41,62.12,68.49Z"/>
  <path class="cls-8" d="M52.18,63c.67,2.9-1.54,5.88-4.94,6.67s-6.69-.93-7.36-3.83S41.42,60,44.82,59.2,51.51,60.13,52.18,63Z"/>
  <path class="cls-8" d="M74.08,65.66c.67,2.9-1.54,5.89-4.94,6.68s-6.69-.93-7.36-3.83,1.54-5.89,4.93-6.67S73.41,62.76,74.08,65.66Z"/>
</svg>
