<svg id="Layer_1" data-name="Layer 1" xmlns="http://www.w3.org/2000/svg" viewBox="0 0 134.71 226.23">
  <defs>
    <style>
      .cls-1 {
        fill: #eab2db;
      }

      .cls-2, .cls-8 {
        fill: #42210b;
      }

      .cls-3 {
        fill: #846447;
      }

      .cls-4 {
        fill: #e2b9a8;
      }

      .cls-5 {
        fill: #1b1464;
      }

      .cls-6 {
        fill: #fcfcfc;
      }

      .cls-7 {
        fill: #ea7b65;
        opacity: 0.5;
      }

      .cls-8 {
        stroke: #42210b;
        stroke-miterlimit: 10;
      }

      .cls-9 {
        fill: #fff;
      }
    </style>
  </defs>
  <title>Artboard 28</title>
  <rect class="cls-1" x="-46.49" y="45.26" width="226.66" height="135.65" transform="translate(-46.41 179.64) rotate(-89.86)"/>
  <path class="cls-2" d="M72.09,26.85c3.77-3.17,9.57-2.77,13.72-.45a11.55,11.55,0,0,1,1.59,1.06C96.66,35,98.06,53.74,98.06,53.74c2.35,33.51,21,49.24,11.78,59.76-6.28,7.14-21.6,7.5-30,1.07-8.12-6.23-4-14.41-8.18-50.16C69.26,43.87,66.65,31.43,72.09,26.85Z"/>
  <path class="cls-3" d="M50.29,98a9.12,9.12,0,0,1,0,6.18c5.74,2,10.7,5.8,16.92,6.82a19.93,19.93,0,0,0,10.55-1.5l0-.06,0,0s-7.91-17.14-.92-30.77c3.71-7.23,7.66-5.78,9.42-10.94,4.17-12.3-12.74-35.75-29.36-34.93C41.31,33.46,33,56,31.74,59.49s-7.58,20.84.07,28.64C37.4,93.83,47.68,91.58,50.29,98Z"/>
  <path class="cls-4" d="M79.37,123.46c5-1.67,9.3-6,11.88-10.88l-.19-.09c-3.75-1.43-11.1-2.33-13.65-7.81a19.93,19.93,0,0,1-10.55,1.5c-6.22-1-11.18-4.78-16.92-6.82a12.5,12.5,0,0,1-.91,2.73c-1.88,3.86-5.79,5.19-11.23,7.44C47.34,122.79,63.36,126.5,79.37,123.46Z"/>
  <path class="cls-5" d="M91.25,112.58c-2.58,4.86-6.89,9.21-11.88,10.88-16,3-32-.67-41.57-13.93l-.53.22c-11,4.6-16.5,6.91-19.71,10.23-4.72,4.9-4,10.52-4.06,32.47-.12,27.85-1.39,27.64.08,30.87,9.56,21.1,66,35.69,89.43,6.47C123.36,164.43,108.26,119.35,91.25,112.58Z"/>
  <polygon class="cls-6" points="64.28 105.27 50.31 98.04 46.07 104.53 59.7 114.52 64.28 105.27"/>
  <polygon class="cls-6" points="80.33 107.82 77.57 101.08 63.4 105.31 66.01 114.65 80.33 107.82"/>
  <path class="cls-2" d="M39.7,44.59c1.34,3.71,13-1.07,22.89,6.55a21.81,21.81,0,0,1,7.66,11.12,16.47,16.47,0,0,1,.37,3.39c0,2-.51,3.56-.35,3.61s1-4.69,3.17-5.1c1.26-.24,2.62,1.1,3.19,2.22a5,5,0,0,1-1.58,6.05c-1.18.8-2.07.48-2.23,1-.45,1.39,6.47,7.06,11.94,5.17,2.23-.78,3.38-2.51,5-5A30.4,30.4,0,0,0,94.8,58a33,33,0,0,0-4.2-16.62A25.74,25.74,0,0,0,81.23,31c-6.31-3.76-12.68-3.32-15.6-3.09C51.12,29.09,38.19,40.41,39.7,44.59Z"/>
  <path d="M35.51,60.7a1.13,1.13,0,0,0,0-2.25,1.13,1.13,0,0,0,0,2.25Z"/>
  <path d="M53.6,62.34a1.13,1.13,0,0,0,0-2.25,1.13,1.13,0,0,0,0,2.25Z"/>
  <ellipse class="cls-7" cx="31.14" cy="72.85" rx="2.71" ry="2.75" transform="translate(-0.17 0.07) rotate(-0.14)"/>
  <ellipse class="cls-7" cx="57.15" cy="72.08" rx="2.7" ry="2.75" transform="translate(-0.17 0.13) rotate(-0.14)"/>
  <path class="cls-2" d="M36,54.84c.12-.17-.06.06,0,0l.11-.12.23-.23.07-.06.08-.06.27-.17L37,54c.13-.06-.06,0,0,0l.15,0a4.85,4.85,0,0,1,.63-.16c-.16,0,.13,0,.19,0h.32l.33,0c-.07,0-.09,0,0,0l.16,0,.31.08.15.06c.19.06-.08,0,0,0a3.44,3.44,0,0,1,.58.35.76.76,0,0,0,1-.27.78.78,0,0,0-.27-1,4.39,4.39,0,0,0-6,1,.75.75,0,0,0,1.3.76Z"/>
  <path class="cls-2" d="M51.93,55.82a13.82,13.82,0,0,1,1.66-.4,4.52,4.52,0,0,1,.74-.06l.42,0h.06l.19,0a2.32,2.32,0,0,1,1,.44,1.56,1.56,0,0,1,.55.78.78.78,0,0,0,.93.52.76.76,0,0,0,.52-.92A3.4,3.4,0,0,0,55.55,54a7.57,7.57,0,0,0-4,.35.75.75,0,0,0,.4,1.45Z"/>
  <path class="cls-2" d="M44.31,56.09a20.14,20.14,0,0,1-.49,7.42A12.84,12.84,0,0,1,40.31,69c-.35.33.18.86.53.53a13.56,13.56,0,0,0,3.63-5.63,20.39,20.39,0,0,0,.59-7.82c0-.48-.77-.48-.75,0Z"/>
  <path class="cls-8" d="M38,77.76c.56-1.3,5.75-1.14,6.28,0,.33.71-1.17,1.75-1.3,1.84a3.46,3.46,0,0,1-2.63.7C38.83,80,37.65,78.53,38,77.76Z"/>
  <path class="cls-9" d="M38,77.21c0-.43,2.08-.87,4-.71.69,0,2.09.25,2.13.59s-1.33.77-2.54.86C39.86,78.06,38,77.61,38,77.21Z"/>
</svg>
