<svg id="Layer_1" data-name="Layer 1" xmlns="http://www.w3.org/2000/svg" viewBox="0 0 136 227">
  <defs>
    <style>
      .cls-1 {
        fill: #e8e0c8;
      }

      .cls-2 {
        fill: #eab2db;
      }

      .cls-3 {
        fill: #fff;
      }

      .cls-4 {
        fill: #ede683;
      }

      .cls-5 {
        fill: #c7b299;
      }

      .cls-6 {
        fill: #ea7657;
      }

      .cls-7 {
        fill: #563b36;
      }

      .cls-10, .cls-11, .cls-8 {
        fill: none;
      }

      .cls-14, .cls-8 {
        stroke: #846447;
      }

      .cls-10, .cls-11, .cls-14, .cls-8 {
        stroke-miterlimit: 10;
      }

      .cls-9 {
        fill: #f28f7c;
      }

      .cls-13, .cls-9 {
        opacity: 0.5;
      }

      .cls-10 {
        stroke: #c1272d;
      }

      .cls-10, .cls-11 {
        stroke-width: 0.75px;
      }

      .cls-11 {
        stroke: #f2eeed;
      }

      .cls-12, .cls-14 {
        fill: #846447;
      }

      .cls-13 {
        fill: #f25d40;
      }
    </style>
  </defs>
  <title>venner_3</title>
  <rect class="cls-1" x="0.27" y="0.01" width="135.86" height="226.92"/>
  <path class="cls-2" d="M72.44,123.58a8.71,8.71,0,0,0-1.35-1.83c-2.86-3-6.13-2.69-11.35-8.39-3.07-3.35-3.61-5.27-3.7-6.66-.23-3.36,2.05-4.71,3.7-8.64,2.4-5.75,1.11-11.38.49-14.07-1-4.44-2.57-11.21-8.64-13.82-5.69-2.44-13-.22-16.29,4.2-2,2.73-1.92,7.25-1.72,16.28.15,7.09.84,8.71,0,13.33-.57,3.14-1.32,7-4.2,10.37-2.4,2.83-4,2.62-7.9,5.67l-.45.37c2.7,1.91,5.42,3.84,8.35,5.55C43.16,134,59.16,130.89,72.44,123.58Z"/>
  <path class="cls-3" d="M72.44,123.58c-13.28,7.31-29.28,10.4-43.06,2.36-2.93-1.71-5.65-3.64-8.35-5.55-1.66-.17-4.13-.15-6,1.36-4.22,3.47-1,11.5,0,24.68,1.22,16.82-3,18.94.49,24.43,5.8,9.18,21.11,8.86,31.84,8.64,11.81-.25,22.22-3.67,24.92-8.89,1.81-3.49.27-5.37-.49-14.06C70.2,138,75.67,129.54,72.44,123.58Z"/>
  <path class="cls-4" d="M63.5,110.79c4.65-1.92,2.24-17,.59-27.39-2.16-13.55-4.59-16.19-5.83-17.34C53.82,61.94,46.45,60,40.4,62.48c-5.61,2.3-8,7.56-10.25,12.59-2.64,5.85-1,5.94-4.15,19.32-1.91,8-3.45,11.9-1.2,14.52,1.21,1.41,3.09,1.94,6,2.76,4,1.11,6.18,1.78,7.87.88,5.86-3.12,1.44-22.64-2.91-24.36A3.67,3.67,0,0,1,34.07,87a3.86,3.86,0,0,1,0-4.44c.27-.33.82-.84,3-1.23A12.85,12.85,0,0,1,42,81c6.47.85,13.23-3.3,16.1-.89,4.66,3.91-7.51,19.57-1.34,27.61C58.42,109.94,61.51,111.61,63.5,110.79Z"/>
  <path class="cls-5" d="M120,83.34c.13-5.35-2.69-11.34-7.45-14.16-7.81-4.63-19.91-.36-24.78,7.18-4.39,6.77-3.2,16.57-.66,22.68,1.71,4.13,3.81,6,3.21,9.14-.84,4.35-6.24,7-11,8.67,2.59,9.83,5.77,19.91,11.36,27.82a22.39,22.39,0,0,1,4.58-5c6.78-6.16,13.17-12.18,19.36-18.35-4-2.89-7.75-4.49-8.08-8.79-.15-2,.55-2.65,5-10.47C119.62,87.68,120,85.19,120,83.34Zm-7.33,3.36c-.77-1.22-5.7-1.12-5.4,1.84-.3-3,4.63-3.06,5.4-1.84,2.27,2.67-2.12,5-3.55,7.48C110.57,91.68,115,89.37,112.69,86.7Z"/>
  <path class="cls-6" d="M59.8,166.3c6.1-13.37,10-22,10.94-31.82.83-9.21-1.56-13.6,1.87-16.58,2-1.7,4.36-1.63,6.72-1.54,2.59,9.82,5.77,19.91,11.36,27.82a22.18,22.18,0,0,1,4.58-5c6.78-6.16,13.17-12.19,19.36-18.35a21.57,21.57,0,0,1,6.32,6.7c3.08,5.28,3,11.69,1.74,24.4-1.19,12.33-1.79,18.49-4.24,21.57-5.33,6.71-14.44,7.08-32.66,7.84-13,.54-26.84,1.11-29.23-4.82C55.7,174.35,56.84,172.79,59.8,166.3Z"/>
  <path class="cls-7" d="M117.11,69.29c-5.75-6-15.28-5.34-21.2-2.31-6.72,3.43-10.74,10.94-9.3,12.8,1.16,1.51,5.12-1.7,12.23-.42,2,.37,5.67,1.07,8.07,4a8.28,8.28,0,0,1,1.44,2.9c1.43-.84,3.82-.62,4.33.2,2,2.29-1,4.33-2.79,6.44.9,5.57.43,8.06,1.45,8.4,1.63.55,5.63-4.73,7.61-10.69C120.29,86.56,123.74,76.16,117.11,69.29Z"/>
  <circle class="cls-7" cx="115.76" cy="64.74" r="5.43"/>
  <path class="cls-8" d="M43.33,85.7a3.52,3.52,0,0,0-2.3-.52,3.38,3.38,0,0,0-2,1"/>
  <path class="cls-8" d="M55.93,85.22a3.4,3.4,0,0,0-4.27.44"/>
  <path class="cls-8" d="M44.15,94.8a4.05,4.05,0,0,0,3.08,2,3.87,3.87,0,0,0,3.65-2.12"/>
  <circle class="cls-9" cx="42.19" cy="91.76" r="2.35"/>
  <circle class="cls-9" cx="52.63" cy="91.44" r="2.35"/>
  <path class="cls-10" d="M107.94,148.09a45.31,45.31,0,0,1-3.46,23.57,43.37,43.37,0,0,1-5.33,8.9"/>
  <path class="cls-11" d="M26.48,144.16c-.67,3.15-4,20.07,6.19,30.73a23.6,23.6,0,0,0,4.94,4"/>
  <path class="cls-12" d="M85.7,91a.75.75,0,0,0,0-1.5.75.75,0,0,0,0,1.5Z"/>
  <path class="cls-12" d="M94.91,90.74a.75.75,0,0,0,0-1.5.75.75,0,0,0,0,1.5Z"/>
  <circle class="cls-13" cx="94.91" cy="96.79" r="2.35"/>
  <path class="cls-13" d="M87.66,98.24c-.26-1.18-1-2-1.61-2A12.31,12.31,0,0,0,87.64,100,3.46,3.46,0,0,0,87.66,98.24Z"/>
  <path class="cls-14" d="M88.7,100c.15-.72,2.4-1.09,2.71-.55.19.34-.38,1-.42,1.06a1.45,1.45,0,0,1-1.09.59C89.24,101.12,88.62,100.46,88.7,100Z"/>
  <path class="cls-3" d="M88.66,99.5c0-.22.84-.63,1.66-.71.3,0,.92-.05,1,.12s-.51.51-1,.66C89.55,99.77,88.7,99.71,88.66,99.5Z"/>
  <path class="cls-12" d="M47.09,84.82q.27,4,.33,8a.38.38,0,0,0,.75,0q-.06-4-.33-8c0-.48-.78-.48-.75,0Z"/>
  <path class="cls-12" d="M85.3,87.21h1.89a.75.75,0,0,0,0-1.5H85.3a.75.75,0,0,0,0,1.5Z"/>
  <path class="cls-12" d="M93.66,87.21H95.9a.75.75,0,0,0,0-1.5H93.66a.75.75,0,0,0,0,1.5Z"/>
  <path class="cls-12" d="M88.74,91.9A6,6,0,0,1,88.45,93,5.89,5.89,0,0,1,88,94a.38.38,0,0,0,.13.52.39.39,0,0,0,.51-.14,6.39,6.39,0,0,0,.86-2.27.38.38,0,0,0-.73-.2Z"/>
</svg>
