<svg id="Layer_1" data-name="Layer 1" xmlns="http://www.w3.org/2000/svg" viewBox="0 0 136 227">
  <defs>
    <style>
      .cls-1 {
        fill: #ec9121;
      }

      .cls-2 {
        fill: #ede683;
      }

      .cls-3 {
        fill: #aad6e5;
      }

      .cls-4, .cls-6 {
        fill: #846447;
      }

      .cls-5 {
        fill: #ea7b65;
        opacity: 0.5;
      }

      .cls-6 {
        stroke: #846447;
        stroke-miterlimit: 10;
      }

      .cls-7 {
        fill: #fff;
      }

      .cls-8 {
        fill: #736357;
      }
    </style>
  </defs>
  <title>venner_8</title>
  <rect class="cls-1" x="-45.54" y="45.53" width="226.68" height="135.46" transform="matrix(0, -1, 1, 0, -45.62, 180.79)"/>
  <path class="cls-2" d="M65.5,103.94c6.5,3,14.72,0,19.52-5.77a5.54,5.54,0,0,1-3.87-1.37c-1-.92-2-2.61-1.82-9.68.29-10.43,2.71-11.84,1.82-17-.14-.84-1.83-9.87-9.53-12.67C63.74,54.55,56.76,61,56.19,61.56,51,66.44,49.25,74.66,51.5,80.5c1.69,4.38,5.12,6,6.73,12.61a23.68,23.68,0,0,1,.69,5.36C61,100.57,63,102.83,65.5,103.94Z"/>
  <path class="cls-3" d="M102.25,141.48c-.06-16.49-1.38-24.29-4.08-31.56-3-8.11-5.71-10-7.49-10.82A14,14,0,0,0,85,98.17c-4.8,5.76-13,8.81-19.52,5.77-2.54-1.11-4.49-3.38-6.58-5.47a4.84,4.84,0,0,1-.91,3.39c-3,3.63-9.54-.76-14.3,3-2.77,2.19-3.26,5.84-4.08,12.66a66.59,66.59,0,0,0,0,15.9C41,145,42.92,152,44.62,162.9c1.58,10.13,1.27,12.61,3.88,14.6,3.1,2.36,7.16,1.61,11,1,26.85-4.27,34.35-.16,39-7,1.33-1.95,1.83-5.4,2.84-12.29A115.13,115.13,0,0,0,102.25,141.48Z"/>
  <path class="cls-4" d="M60.32,76.54a1.13,1.13,0,0,0,0-2.25,1.13,1.13,0,0,0,0,2.25Z"/>
  <path class="cls-4" d="M73.14,76.11a1.13,1.13,0,0,0,0-2.25,1.13,1.13,0,0,0,0,2.25Z"/>
  <ellipse class="cls-5" cx="60.48" cy="81.35" rx="2.16" ry="2.2"/>
  <ellipse class="cls-5" cx="73.64" cy="80.78" rx="2.16" ry="2.19"/>
  <path class="cls-6" d="M65.69,87.72c.34-1.12,5.65-1.71,6.38-.86.46.52-.89,1.56-1,1.65a4,4,0,0,1-2.56.92C67,89.4,65.49,88.37,65.69,87.72Z"/>
  <path class="cls-7" d="M65.5,87c0-.5,2.38-1.3,4.54-1.38.79,0,2.4,0,2.46.39S71,87.05,69.59,87.32C67.71,87.68,65.53,87.42,65.5,87Z"/>
  <path class="cls-4" d="M57.48,71.46h5.3a.75.75,0,1,0,0-1.5h-5.3a.75.75,0,0,0,0,1.5Z"/>
  <path class="cls-4" d="M70.1,70.91h5.84a.75.75,0,0,0,0-1.5H70.1a.75.75,0,0,0,0,1.5Z"/>
  <path class="cls-4" d="M66.26,75.28a46.66,46.66,0,0,0,.12,6c0,.48.79.48.75,0a46.66,46.66,0,0,1-.12-6c0-.49-.72-.48-.75,0Z"/>
  <path class="cls-2" d="M31.5,116.5c-2.35-.26-4,2.32-9,9-11.77,15.85-13.15,15.95-13,19,0,0,.42,8.2,15,18,4.31,2.9,4.09,1.78,13,7a22.85,22.85,0,0,0,7,3c5.23,1.22,10.79.36,11-1,.26-1.64-7.32-3.69-7-5,.25-1,4.92-.4,5-1,.11-.82-8.66-2.71-10-3-4.61-1-4-.63-5-1-4.58-1.68-7.14-5.52-11-11-1.93-2.74-2.89-4.11-3-5-.82-6.75,11.91-9.3,13-18C38.13,122.48,34.73,116.86,31.5,116.5Z"/>
  <path class="cls-8" d="M48.5,75.5c2.85.67,7.94-6.59,12-9A6.53,6.53,0,0,1,62,65.77c1.85-.57,3.38,0,7.48-1.27,5.2-1.68,6.78-3.82,8-3,2.21,1.49-2.46,8.86.81,12.56,1.36,1.53,3.91,2.23,5.11,1.39s1.58-6,1.4-4.42l.93-6.51c4.38-2.2,4.65-3,4.65-3,.56-1.75-1.32-4.61-3.49-5.11-1.6-.38-2.66.68-3.49,0-.57-.48-.2-1.13-.46-3.73a39.54,39.54,0,0,0-.7-4.18c-5.53-3.27-8.14-4.65-8.14-4.65-7.05-3.75-8.37-3.44-9.06-3-1.27.76-.82,2.11-2.56,3.48a7.88,7.88,0,0,1-4.65,1.4c-3.68.22-4.46-1.35-7-.7a5.68,5.68,0,0,0-3.95,3.26c-.5,1.44.36,1.88.46,4.41.06,1.53-.23,1.86-1.16,6.52h0a27.62,27.62,0,0,0-.7,3.72C45.36,64.47,45.35,74.76,48.5,75.5Z"/>
  <path class="cls-3" d="M25.86,115.13c-2.07,6.76,7,17.18,12.87,16.25,3.78-.61,3.07-5.46,11-13.19,3.9-3.79,6.58-5.07,6.74-8.12a7.78,7.78,0,0,0-4.63-7c-2.3-1-4.54-.28-11.7,3.24C31.07,110.77,26.5,113.05,25.86,115.13Z"/>
  <path class="cls-2" d="M107.2,111.18c2.33-.43,4.2,2,9.63,8.32,12.89,15,14.27,15,14.34,18,0,0,.18,8.21-13.65,19-4.09,3.2-4,2.07-12.46,7.93A23.12,23.12,0,0,1,98.3,168c-5.13,1.59-10.74,1.14-11-.2-.37-1.62,7-4.22,6.62-5.5-.32-1-4.93,0-5.06-.63-.17-.81,8.44-3.33,9.76-3.72,4.52-1.32,3.93-.92,4.91-1.36,4.45-2,6.73-6,10.18-11.77,1.72-2.87,2.58-4.31,2.62-5.2.33-6.79-12.55-8.42-14.27-17C101,117.63,104,111.78,107.2,111.18Z"/>
  <path class="cls-3" d="M100,127.74c7,.4,14.74-11.07,12.43-16.6-1.49-3.58-6-1.71-15.28-7.69-4.55-2.92-6.43-5.25-9.38-4.67A7.73,7.73,0,0,0,82.2,105c-.38,2.51.82,4.55,5.92,10.75C94.6,123.66,97.88,127.61,100,127.74Z"/>
</svg>
